<svg id="Layer_1" data-name="Layer 1" xmlns="http://www.w3.org/2000/svg" viewBox="0 0 841.89 595.28"><defs><style>.cls-1{opacity:0.05;}.cls-2{fill:#010101;}</style></defs><g class="cls-1"><path class="cls-2" d="M503.33,20.24C350.75-22,209.53,57.81,155.44,183.86c-18.54,35.66-23.29,97.46-23.29,97.46s23.64-52.78,71.4-100.24c7.81-7.75,30.23-34.62,65.45-47.26l.06.36a121,121,0,0,0,4.77,17.17,75.09,75.09,0,0,0,8,15.52,71.85,71.85,0,0,1-2.34-16.63,112.35,112.35,0,0,1,1.11-16.45c.67-4.49,1.56-8.92,2.63-13.29,5.34-12.58,16.14-33.79,32.18-45.34,23.77-17.11,35.42-18.06,41.36-12.83s7.13,23.29,5.7,39.21a157.84,157.84,0,0,1-2.58,17.37c-1.22,4.63-2.65,9.22-4.33,13.74a113.58,113.58,0,0,1-7,14.94A72.43,72.43,0,0,1,338.51,161,75.63,75.63,0,0,0,353,151.3a122,122,0,0,0,12.46-12.74c2.13-2.55,4.16-5.18,6.13-7.87,8.92.32,20.18,1.41,28.67,4.61,16.4,6.18,31.61,12.59,57,33,0,0-5-6.85-9.89-13.35-5.2-6.87-5.32-14.93-2.23-22.3s21.39-41.12,55.86-41.83c0,0,10,8.08,7.84,27.81s-8.32,33.27-15,42.54c-2.83,3.94-6.3,8.52-9.36,12.49A13.11,13.11,0,0,0,486,191.22c8,7.59,22.35,20.85,26.41,31.74,0,0-4.2,20.72-22.27,45.2S453,301,453,301s40.48-4.61,66.08-37.56c25-32.17,54.15-65.13,51.82-150.22,0,0,18.69,23.14,18.06,86.2s-6,82.4-6.65,91.28,5.07,18.38,3.48,33.91c-1.14,11.16-2.44,26.43-3.08,34.12a10.08,10.08,0,0,0,3.14,8.19l12.48,11.73a20.11,20.11,0,0,1,4.7,22.61l-20.95,48.68a27.82,27.82,0,0,1-16.93,15.46c-21.69,7.05-69.61,20.52-119.44,20.52-67.5,0-99.83-17.75-123.28-34.23,0,0,19,26.3,76.38,43.1,21.63,6.34,48.68,9.43,74,10.82,24.45,1.34,29.38,35.32,6.28,43.49a173.62,173.62,0,0,1-50.15,10c-71.31,3.16-107.76-.64-177.79-39.3-26.51-14.64-48.11-34.54-64.73-53.62A288.42,288.42,0,0,0,421,586.43c184.83,0,329.1-173.64,278.6-366.69C674.3,123.21,599.5,46.87,503.33,20.24Z"/><path class="cls-2" d="M517.9,424.36s20-28.09-5.33-34.38c-20.28-5-57.23,33.28-57.23,33.28S512,393.15,517.9,424.36Z"/><path class="cls-2" d="M322.51,287.39s-3.69,23.39,7.39,33.24,33.24,6.16,39.4,1.23C369.3,321.86,339.82,317.87,322.51,287.39Z"/></g><path class="cls-2" d="M194,144.05a48,48,0,0,1-48.09-48A46.69,46.69,0,0,1,160,61.93a46.32,46.32,0,0,1,34-14.19S214,48,228,62.05l-13.6,13.59A28.1,28.1,0,0,0,194,67.17a27.55,27.55,0,0,0-20.37,8.47,28.87,28.87,0,0,0,0,40.86,28.92,28.92,0,0,0,40.86-.06L228.1,130A47.93,47.93,0,0,1,194,144.05Z"/><path class="cls-2" d="M263.85,48.51v38h31.73v-38h19V143.4h-19v-38H263.85v38h-19V48.51Z"/><path class="cls-2" d="M331.72,48.51H350.8V143.4H331.72Z"/><path class="cls-2" d="M386.79,48.51v75.93h38.14v19H367.71V48.51Z"/><path class="cls-2" d="M460.7,48.51v75.93h38.14v19H441.62V48.51Z"/><path class="cls-2" d="M665.55,124.72c5.27,0,11.08-4.38,11.08-9.64,0-8.67-11.63-9.88-18.19-12.15C646.87,99,636.65,89.49,636.65,76.57a29,29,0,0,1,57.63-4l-18.94,4a9.63,9.63,0,0,0-19.26.05c0,8.55,10.82,10.83,17.41,12.78C685.47,92.86,696,102,696,115.19c0,16-14.36,28.93-30.34,28.93-14.67,0-27.94-10.77-30.1-24.9l18.94-4c0,5.3,5.75,9.62,11.11,9.62Z"/><path class="cls-2" d="M617.6,98.34c-3.51-17.67-14.07-39.85-26.53-48.12-10.82-7.17-23.55-6.42-40.71,11.06-.52.51-1,1-1.56,1.57s-1,1-1.56,1.56a125.57,125.57,0,0,0-9.78,10.8s-14.06,18.42-17.58,37.6S521,144,536.51,144c26.85,0,31.53-11.87,41.56-12.41,14.07-.75,20.14,13.91,28.45,7.15a19.34,19.34,0,0,0,2.25-2.18,19.14,19.14,0,0,0,1.56-1.56,19.14,19.14,0,0,0,1.56-1.56C619.2,126.92,621,115.48,617.6,98.34ZM539.08,83.68A178.94,178.94,0,0,1,554,63.85C569,49.72,579.51,48.5,588.25,53s16.13,16.35,18.59,25.84,1,15.72-4.48,19.17c-5.82,3.64-10.08-4.24-19.94-3.83-7,.28-10.31,6.66-29.13,6.66C542.45,100.79,533.61,92.51,539.08,83.68Zm21.11,47.78c-5.21,3.53-16.57,4.27-24.77,2.41s-9.15-12.8-8-20.41,1.65-11.14,4.58-12.8c2.13-1.2,6.15.75,6.15.75,3.31,1.66,9.15,6.12,15.62,5.93a44.82,44.82,0,0,0,21.93-6.86c6.78-4.46,11.2-.56,11.67,2s-.47,3.89-9,7.6S565.39,127.94,560.19,131.46Zm54.58-18.89c-.16,6.68-2.76,13.37-6.66,15.66s-9.26-1.53-13.16-3.82-8.44-4.39-13.31-2.1-9.59,2.67-8-3.25,9.09-8.21,9.09-8.21c11.86-1.91,6.34-9.93,17.22-7.64,5,1.06,5.52-5.73,10.72-5.16C613.47,98.36,614.93,105.88,614.77,112.57Z"/><path class="cls-2" d="M587.24,66c-1.84-6.87-13.1-6.23-18.4-1.56s-4.67,14.34,2.5,16.21S591,80,587.24,66Z"/><path class="cls-2" d="M439.31,374c.39-4.35,1.29-14.75,1.29-18.38,0-4.62-.66-10.12-3.52-13.64s-3.08-6.83-6.17-3.75-4.4,5.29-6.16,5.73-4.84-.22-7.92,1.76-3.09,3.08-.88,5.72,5.5,3.08,6.16,8.37c.6,4.84.35,13.69.3,17.35C427.59,376.08,433.21,374.89,439.31,374Z"/><path class="cls-2" d="M384.35,306.2c-5.14,7.19-6.49,20.83.33,26.55s14.56,11.45,20.5,6.61c0,0-1.28,3.93-3.92,4.59,0,0,9.14,3.9,12.66-.22,2.24-2.61,5.77-3.08,8.63-4.4s5.72-2.86,5.06-5.94-1.32-4.4-1.54-6.82-2.86-4.41-7-6.17-5.51,3.3-11.23,4.18a27,27,0,0,0,6.82-7.92c2.65-4.84,2.21-5.28,4-7.05s4.17-7.47,2-12.09a92.17,92.17,0,0,0-24.3-1.43A34.82,34.82,0,0,0,384.35,306.2Z"/><path class="cls-2" d="M415.43,361.66c0-2.73-1-6.7-3.89-8.46s-5.72-1.76-10.56-2.64a23.53,23.53,0,0,1-11-5.5c-2.64-2.2-4.84-6.83-6.39-5.73s-2.86,2.87-2.86,8.37-1.1,8.14.88,11.23a13.89,13.89,0,0,1,2.64,8.36c0,2.45-.09,9.26-.13,11.94,11.22,1,23.29.75,31.36-.7C415.46,374.93,415.43,363.94,415.43,361.66Z"/><path class="cls-2" d="M354.75,346.82c3.52-2,7.48-7.93,8.14-11.23a16.71,16.71,0,0,0-.66-7.26s4.84,6.38,8.59,5.06,4-5.94,4.18-10.57A32,32,0,0,1,379.18,309c2.12-3.38,3.89-10.09,4-10.6-9.31,2.56-16.59,6.83-21.41,11.77-7.1,7.28-13.84,15.27-13.84,32.55,0,0,0,.16,0,.45C348.75,344.37,351.74,348.51,354.75,346.82Z"/><path class="cls-2" d="M472.08,355.84a17.93,17.93,0,0,0-6.16-10.12c-3.3-2.64-4-1.1-8.81-2.42s-9.68-3.75-11.23-3.75-4.4-.66-2.86,2.65,3.3,4,3.08,12.54c-.16,6.6.1,14.91.23,18.42A107.69,107.69,0,0,1,464.2,373c2.54.19,4.89.24,7.07.2C471.58,369.41,472.45,358.39,472.08,355.84Z"/><path class="cls-2" d="M377.42,361.57c0-2.64-1.54-3.52-1.32-8.59s2.86-12.77-1.32-13.65-6.17-1.1-9,2.65-6.6,7-6.82,13.42c-.2,5.69,1.32,13.35,1.65,18.37A27.37,27.37,0,0,0,365.9,376,77.87,77.87,0,0,0,377,378.39C377.08,374.89,377.42,363.79,377.42,361.57Z"/><path class="cls-2" d="M478.91,340.21c-4.85-2.42-8.81-2.64-12.77-5.94s-11.45-4.4-11.45-4.4,5.72-1.54,8.37-.88,6.16-.88,2.64-2.86-5.07-6.61-5.07-10.35c0,0,2.87,6.38,6.39,7.26,2.93.74,5.89-3.7,7.18-5h0l.44-.42c-12.09-8-26.75-13.07-45.15-18.08-1.74-.48-3.46-.9-5.15-1.28.06.37,1,5.75-.69,10.21-1.76,4.63-3.74,7.05-2,8.37s7.26.66,9.47,2.2,4.84,1.32,7.26,1.32,4.18,3.08,4.18,3.08a10,10,0,0,0-7.7-.88c-4.19,1.32-4.85,5.95-3.52,7.27s6.16,5.06,11.22,4.62,10.13,2.2,14.09,4,6.61.44,9,3.09,5.06,6.82,9.46,9.46,9.47,1.32,10.13-1.54S483.75,342.64,478.91,340.21Z"/><path class="cls-2" d="M485.51,326.45a66.4,66.4,0,0,0-5.9-5.2l-.6-.45-.19.13c-1.07.8-7.65,5.85-8.06,8.28-.44,2.64,2.64,3.52,5.72,2.42s5.72-4.77,9-5.18Z"/><path class="cls-2" d="M494.66,342.12c-.5-2.8-1.79-7.69-7.58-14h0s-4,1.77-4,4.19.66,4,3.52,6.6,4,4,3.74,7.05,2.46,3.56,4.72.06A38.1,38.1,0,0,0,494.66,342.12Z"/><path class="cls-2" d="M492.33,365.87c.11-.14.2-.28.3-.42s.17-.23.24-.34.18-.32.26-.48.1-.18.14-.27a4.38,4.38,0,0,0,.26-.71c.09-.32.18-.67.26-1,0-.11,0-.22.07-.33.05-.27.11-.54.16-.83l.06-.34c.07-.39.14-.79.2-1.2a.19.19,0,0,1,0-.08c0-.39.11-.8.16-1.21,0-.14,0-.28,0-.42,0-.32.07-.64.1-1,0-.15,0-.28,0-.42.05-.45.08-.9.12-1.36,0-.06,0-.13,0-.2,0-.4.05-.79.08-1.19,0-.16,0-.33,0-.5s0-.55,0-.83c-2.54,2.81-8.92,4.51-15.09,3.46-1-.17-1.78.8-1.85,1.78l-1.1,14.59c.52-.07,1-.14,1.51-.23l.75-.12,1.4-.29.7-.16,1.28-.33.64-.19,1.15-.37.6-.22c.35-.13.7-.26,1-.4l.55-.25.91-.42.51-.27c.27-.14.54-.29.79-.44l.47-.29.67-.45c.15-.1.29-.21.43-.32s.38-.29.55-.44.26-.23.39-.34l.45-.42.34-.38Z"/><path class="cls-2" d="M520.59,353.86c-.41.59-.86,1.14-1.31,1.69s-.67.82-1,1.21-.54.59-.81.87-.56.58-.85.87-.69.64-1.05.95-.62.55-.93.81c-.51.41-1,.81-1.55,1.19-.26.19-.51.36-.77.53-.46.32-.93.62-1.41.91l-.68.42a36.76,36.76,0,0,1-7.63,3.29l-6.87,6.87-3.22,3.22-21.4,21.41-17.54-17.54c-2.09.05-4.14.14-6.14.3L466.56,400,425,400l18.77-18.77c-2.57.29-5.07.65-7.49,1.05L420.47,398.1l-11-11c-1.91.18-3.93.31-6,.39L415.92,400l-36.36,0L392,387.5c-2.06-.07-4.11-.18-6.11-.33L375,398.1l-24.56-24.56a22.21,22.21,0,0,1-5.95.48l3.52,3.52-20.55,20.55L313,383.64l12.51-12.51a31.55,31.55,0,0,1-12.87-9.43,13,13,0,0,1-.81-1.33l-11.83,12-17.28,17.24-13.59,13.51,1.08,2.73,9.43,23.29h283l9.43-23.29.67-2.22ZM296.73,399.91l13-13.05,13.06,13.06Zm35.32,0,19.17-19.17L370.4,400Zm143.56.08,20.1-20.1L515.84,400Zm23.32-23.32,10.75-10.76,21.41,21.41L520.33,398.1ZM524.82,400l9.49-9.48,9.49,9.49Z"/><path class="cls-2" d="M358.83,306.78c9.73-10,25.93-15.71,44.43-15.71A106.27,106.27,0,0,1,431.09,295c20.77,5.67,37.41,11.58,50.84,21.81,6.23-43.23-15.82-99.36-36.64-115.46,17.32,32,12.65,62.59-4.66,73.91,12-44.61-6-82.56-49.94-106.54,36.62,49.28-17.31,52.61-16.05,110.73-.27-20.1-12.58-25.49-4.59-55.46-30,46.1-35.23,81.81-25.14,106.44C347.34,319.47,353,312.73,358.83,306.78Z"/><path class="cls-2" d="M344.39,357.93c-.94-5.75-.73-15.08-.72-15.47,0-18.57,7.49-27.81,15.16-35.68l.13-.13c-6.86-16.42-17.34-32.34-28.67-42.47,19.51,41.8-10.52,43.36-2,70.27-8.64-9.12-12-17.55-6.26-38.46-22.46,35.14-17,74.44,21.3,73.31a33.44,33.44,0,0,0,5.43-.59A28.65,28.65,0,0,1,344.39,357.93Z"/><path class="cls-2" d="M515.15,293.37c4.73,20.13.09,25.94-9.47,33.73,17.16-25.44-14.2-37.87,17.16-68.05-27.92,4.19-47.39,25.93-56.14,48.46a89.57,89.57,0,0,1,16.17,10c14.55,11.43,16.21,20.67,16.76,23.7a76.72,76.72,0,0,1-.35,21.7C525,358.15,534.2,330,515.15,293.37Z"/><path class="cls-2" d="M221.41,474.51a83.94,83.94,0,0,0-6.81,9.3,124.29,124.29,0,0,0-6.53,11.5q-3.09,6.13-5.65,12.58a122.29,122.29,0,0,0-4.25,12.55c2.45-.75,5-1.47,7.53-2.17s5-1.29,7.38-1.8a60.48,60.48,0,0,1,6.57-1.08,17.5,17.5,0,0,1,5.13.08,12.06,12.06,0,0,1,3.6,1.32,10,10,0,0,1,2.69,2.2,7.57,7.57,0,0,1,1.52,2.81,6.66,6.66,0,0,1,.2,3,3,3,0,0,1-.6,1.09,5.82,5.82,0,0,1-.92.88,2.81,2.81,0,0,1-.92.48.45.45,0,0,1-.6-.28c-.06-.06,0-.35,0-.88a3.4,3.4,0,0,0,0-1.37,10.46,10.46,0,0,0-5.17-.68,67.35,67.35,0,0,0-7.94,1q-4.44.79-9.38,1.92t-9.57,2q-4.65.93-8.5,1.44a20.4,20.4,0,0,1-6.09.12,2.36,2.36,0,0,1-1.64-1,5.79,5.79,0,0,1-.88-1.8,4.18,4.18,0,0,1-.2-1.68c.05-.48.16-.73.32-.73a11.35,11.35,0,0,0,4-.76q3.09-.91,7.5-2.28c-.11-.43-.22-.84-.32-1.24a11.9,11.9,0,0,1-.28-1.44,12.43,12.43,0,0,1-.08-2.13c0-.85.12-2,.28-3.28a55,55,0,0,1,2.4-10.34,92.83,92.83,0,0,1,4.65-11.54,95.41,95.41,0,0,1,6.53-11.47,78,78,0,0,1,8-10.17,50,50,0,0,1,9-7.7,26.15,26.15,0,0,1,9.74-4,10.51,10.51,0,0,1,5.77.69,11.5,11.5,0,0,1,4.85,3.68,13.41,13.41,0,0,1,2.56,6.13,14.59,14.59,0,0,1-1.16,7.94,28,28,0,0,1-3.93,6.89,23.07,23.07,0,0,1-4.68,4.53,20.73,20.73,0,0,1-4.85,2.6,19.78,19.78,0,0,1-4.45,1.13,16.46,16.46,0,0,1-3.53.08,5.06,5.06,0,0,1-2-.48c-.59-.38-.88-.71-.88-1s.4-.65,1.2-1.08a30.57,30.57,0,0,0,5.49-3.73,40.92,40.92,0,0,0,4.77-4.72,56.42,56.42,0,0,0,3.89-5.09,36.44,36.44,0,0,0,2.76-4.81,16.44,16.44,0,0,0,1.32-3.85,2.66,2.66,0,0,0-.28-2.24,3.56,3.56,0,0,0-2.56-.92,10.13,10.13,0,0,0-4,.92,23.16,23.16,0,0,0-5.13,3.12A42.57,42.57,0,0,0,221.41,474.51Z"/><path class="cls-2" d="M244.49,517.47c0,.16.13.27.4.32a3.86,3.86,0,0,0,.84.08c.3,0,.58,0,.85,0s.4.12.4.28a1.91,1.91,0,0,1-.28,1.16,7.06,7.06,0,0,1-.89,1.29,10,10,0,0,1-1.08,1.08,2.19,2.19,0,0,1-1,.56,3.36,3.36,0,0,1-2.08-.44,7.7,7.7,0,0,1-2.29-1.8,9.07,9.07,0,0,1-1.72-3,8.55,8.55,0,0,1-.4-3.93,31.1,31.1,0,0,1,1.2-5.25,70.87,70.87,0,0,1,2.48-6.77,74.64,74.64,0,0,1,3.57-7.25,46.11,46.11,0,0,1,4.53-6.69,2.83,2.83,0,0,1,2.28,0,6.3,6.3,0,0,1,2.09,1.4,5.5,5.5,0,0,1,1.32,2.08,2.26,2.26,0,0,1-.08,2c-.21.48-.63,1.39-1.24,2.72s-1.31,2.87-2.09,4.61-1.59,3.58-2.44,5.53-1.62,3.77-2.28,5.45-1.21,3.12-1.61,4.33A4.75,4.75,0,0,0,244.49,517.47Zm11.06-44.88a3.27,3.27,0,0,1,2.37-.32,7.42,7.42,0,0,1,3,1.16,6.33,6.33,0,0,1,2.13,2.28,3,3,0,0,1-.25,3.05c-.26.37-.66.9-1.2,1.56a15.64,15.64,0,0,1-1.88,2,11.78,11.78,0,0,1-2.37,1.64,5.15,5.15,0,0,1-2.72.6,3.33,3.33,0,0,1-1.84-.92,3.28,3.28,0,0,1-1-2,7.9,7.9,0,0,1,.17-2.69,13.52,13.52,0,0,1,.92-2.8,12,12,0,0,1,1.32-2.29A3.35,3.35,0,0,1,255.55,472.59Z"/><path class="cls-2" d="M283.52,487.9c.43-.27.76-.23,1,.12a1,1,0,0,1,0,1.16,12.58,12.58,0,0,1-3,2.6,17.22,17.22,0,0,1-3.25,1.61,16.48,16.48,0,0,1-3.28.84c-1.1.16-2.08.27-2.93.32a26,26,0,0,1,.68,5.41c.08,2.16,0,4.53-.12,7.09s-.43,5.27-.8,8.1-.86,5.58-1.44,8.25-1.26,5.22-2,7.66a41,41,0,0,1-2.44,6.29,14.41,14.41,0,0,1-2.85,4.08,3.75,3.75,0,0,1-3.2,1.21,6.11,6.11,0,0,1-2.37-.64,10.18,10.18,0,0,1-2.76-2,11.69,11.69,0,0,1-2.32-3.28,11.33,11.33,0,0,1-1.05-4.69,24.92,24.92,0,0,1,.44-6.89,91.36,91.36,0,0,1,2.37-9.9q1.6-5.49,4-11.74t5.25-12.43a4.17,4.17,0,0,1-.61-2.52A2.34,2.34,0,0,1,264,486.7a2.09,2.09,0,0,1,1.52-.09q2.16-4.56,4.25-8.65t3.72-7.21q1.65-3.13,2.73-5a21.82,21.82,0,0,1,1.24-2.05,1.91,1.91,0,0,1,2-.36,6.86,6.86,0,0,1,2.41,1.25,9.05,9.05,0,0,1,1.84,1.88c.48.67.62,1.19.4,1.56-.43.75-1,1.82-1.76,3.21s-1.58,3-2.49,4.77-1.89,3.72-3,5.81-2.14,4.19-3.21,6.33a30.28,30.28,0,0,0,3.57.12c1.2,0,2.26-.07,3.17-.12C281.46,488.08,282.51,488,283.52,487.9Zm-15.31,11.22c-.58,1.12-1.36,2.78-2.32,5s-1.94,4.58-2.93,7.17-1.93,5.26-2.84,8-1.64,5.28-2.21,7.58a25.13,25.13,0,0,0-.84,5.77c0,1.55.4,2.43,1.21,2.64.26.11.7-.28,1.32-1.16a23.76,23.76,0,0,0,2-3.73q1.08-2.4,2.29-5.77a69.07,69.07,0,0,0,2.16-7.45,87.58,87.58,0,0,0,1.56-8.66A71.84,71.84,0,0,0,268.21,499.12Z"/><path class="cls-2" d="M306.52,496.31a11.32,11.32,0,0,1-3.2,6,26.56,26.56,0,0,1-5.69,4.41,36,36,0,0,1-6.17,2.85,23.1,23.1,0,0,1-4.73,1.2,8.4,8.4,0,0,0-.16,3.28,2.5,2.5,0,0,0,1.36,2.17,4.63,4.63,0,0,0,2.92,0,23.28,23.28,0,0,0,4.13-1.44,35.14,35.14,0,0,0,4.57-2.49q2.32-1.48,4.25-3c.8-.75,1.36-1.13,1.68-1.13s.49.2.52.61a4,4,0,0,1-.24,1.48c-.19.59-.36,1.07-.52,1.44s-.8,1.35-1.6,2.61a19.86,19.86,0,0,1-3.21,3.76,18.57,18.57,0,0,1-4.73,3.21,11.14,11.14,0,0,1-6.25.92,9,9,0,0,1-3-.88A12.31,12.31,0,0,1,283,519a13,13,0,0,1-2.72-3.8,12.83,12.83,0,0,1-1.21-5.33,22.79,22.79,0,0,1,2.09-8.78,34.94,34.94,0,0,1,4.61-7.53,25.64,25.64,0,0,1,5.73-5.37,11.63,11.63,0,0,1,5.53-2.21,8.42,8.42,0,0,1,4.48.85,9.13,9.13,0,0,1,3.13,2.56,9.4,9.4,0,0,1,1.68,3.45A7.7,7.7,0,0,1,306.52,496.31ZM301.15,492a1.9,1.9,0,0,0-1.92.09,10.57,10.57,0,0,0-2.52,1.72,29.45,29.45,0,0,0-2.77,2.8,39.34,39.34,0,0,0-2.68,3.41c-.83,1.18-1.55,2.31-2.17,3.41a17.44,17.44,0,0,0-1.32,2.84,19.3,19.3,0,0,0,5.37-3.13,36.81,36.81,0,0,0,4.77-4.48,20.76,20.76,0,0,0,3-4.25C301.55,493.11,301.63,492.31,301.15,492Z"/><path class="cls-2" d="M318.71,511.86c-1.13-1.82-2.34-3.81-3.65-6a21.26,21.26,0,0,1-2.69-6.93,9.64,9.64,0,0,1,.49-5.85A10.26,10.26,0,0,1,316.1,489a12.77,12.77,0,0,1,4.77-2.24,13.33,13.33,0,0,1,5.21-.25,4.56,4.56,0,0,1,2.88,1.29,5.25,5.25,0,0,1,1.29,2.44,9,9,0,0,1,.16,2.89,10.48,10.48,0,0,1-.56,2.52c-.16.27-.66.12-1.49-.44s-1.75-1.16-2.76-1.8a14.78,14.78,0,0,0-3.05-1.49,1.89,1.89,0,0,0-2.32.53c-.54.74-.06,2.51,1.44,5.28.48.86,1.08,1.82,1.8,2.89s1.42,2.16,2.09,3.29a30.1,30.1,0,0,1,1.72,3.32,8.84,8.84,0,0,1,.8,3,11.55,11.55,0,0,1-1,4.73,13.61,13.61,0,0,1-2.84,4.12A13.85,13.85,0,0,1,320,522a12.85,12.85,0,0,1-5.25,1.08,10,10,0,0,1-5.61-1.64,9.53,9.53,0,0,1-3.33-4,11.86,11.86,0,0,1-1-5.25,12.07,12.07,0,0,1,1.44-5.41c.59-1.07,1.11-1.57,1.57-1.52s.7.61.76,1.68a7.5,7.5,0,0,0,.88,3.25,16.34,16.34,0,0,0,2.2,3.36,12.18,12.18,0,0,0,2.85,2.53,4.53,4.53,0,0,0,3,.8,2.12,2.12,0,0,0,1.89-1.68A4.36,4.36,0,0,0,318.71,511.86Z"/><path class="cls-2" d="M337.94,519.72q.07.24.48.36c.27.08.55.14.84.2s.58.1.84.16.4.16.4.32a1.48,1.48,0,0,1-.32,1.08,6.79,6.79,0,0,1-1,1.16,7.87,7.87,0,0,1-1.16,1,2.59,2.59,0,0,1-2.89.16,5.06,5.06,0,0,1-1.68-1.52,7.92,7.92,0,0,1-1.2-2.68,15,15,0,0,1-.44-3.81,31.64,31.64,0,0,1,1-6.61,78,78,0,0,1,2.32-7.7c1-2.69,2.1-5.49,3.41-8.37s2.69-5.77,4.13-8.66a11.8,11.8,0,0,1-2.09-.56,3.29,3.29,0,0,1-1.48-1,2.62,2.62,0,0,1-.52-1.2,4,4,0,0,1,0-1.09,5.1,5.1,0,0,1,.16-.72c.16-.64.95-1.15,2.37-1.52a29.89,29.89,0,0,1,5.16-.8q2.33-4.33,4.45-7.69a51.58,51.58,0,0,1,3.65-5.21,2.89,2.89,0,0,1,2.4.08,7.58,7.58,0,0,1,2.41,1.56,6,6,0,0,1,1.48,2.16,1.59,1.59,0,0,1-.2,1.81,15.26,15.26,0,0,0-1.52,2.28q-1.12,1.89-2.65,4.69c2,0,3.76,0,5.33.08s2.71.08,3.41.08a1.21,1.21,0,0,1,.8.36q.41.36-.24,1.56a8.47,8.47,0,0,1-2.36,2.81,12.7,12.7,0,0,1-3.33,1.8,17.65,17.65,0,0,1-3.85,1,27.24,27.24,0,0,1-3.84.28q-1.77,3.52-3.65,7.34c-1.26,2.53-2.44,5-3.57,7.49s-2.18,4.81-3.16,7.05-1.81,4.25-2.45,6-1.11,3.21-1.4,4.33S337.67,519.5,337.94,519.72Z"/><path class="cls-2" d="M377.05,488.94a2.67,2.67,0,0,1,2.2-.6,11.15,11.15,0,0,1,2.93.64,9,9,0,0,1,2.44,1.28c.67.51.9.92.69,1.24a13.63,13.63,0,0,0-1.65,2.73q-1,2-2.52,5.41l-3.69,8.21q-2.16,4.81-5.29,11.14A111.25,111.25,0,0,1,364,533a54,54,0,0,1-9.3,10.5,25,25,0,0,1-10,5.37,15.14,15.14,0,0,1-10.46-1.28,9.49,9.49,0,0,1-4.65-4.21,5.41,5.41,0,0,1-.16-4.93,4.78,4.78,0,0,1,1.33-1.88,3.87,3.87,0,0,1,1.4-.77,1.82,1.82,0,0,1,1,0c.27.11.37.24.32.41a7.11,7.11,0,0,0-.84,3.4,6,6,0,0,0,.76,2.89,4.9,4.9,0,0,0,2.08,1.92,5.74,5.74,0,0,0,3.13.52,11.89,11.89,0,0,0,5.81-2A31,31,0,0,0,351,537a68.41,68.41,0,0,0,7.1-10,114.46,114.46,0,0,0,7.05-14.31c-.8,1-1.64,2-2.53,3s-1.72,1.81-2.52,2.56a28.69,28.69,0,0,1-2.21,1.89,3.9,3.9,0,0,1-1.64.84,5.35,5.35,0,0,1-2.84-.52,9.66,9.66,0,0,1-2.77-2,10.54,10.54,0,0,1-2.08-3,7.4,7.4,0,0,1-.72-3.61,14.3,14.3,0,0,1,1-5,47.64,47.64,0,0,1,2.56-5.61c1-1.89,2.11-3.75,3.29-5.57s2.3-3.43,3.37-4.85,2-2.56,2.72-3.44,1.2-1.33,1.36-1.33a4.3,4.3,0,0,1,2.33.52,7.32,7.32,0,0,1,1.92,1.49,6,6,0,0,1,1.16,1.8,1.5,1.5,0,0,1,0,1.4c-.53.81-1.21,1.89-2,3.25s-1.71,2.84-2.65,4.45-1.85,3.23-2.76,4.89-1.68,3.16-2.33,4.52a28.67,28.67,0,0,0-1.4,3.49c-.29,1-.28,1.52,0,1.68q.48.48,2-.6a29.5,29.5,0,0,0,3.56-3.12c1.37-1.37,2.83-2.93,4.41-4.69s3.09-3.53,4.53-5.29q1.36-2.8,2.4-4.73c.7-1.28,1.29-2.32,1.77-3.13s.86-1.44,1.16-1.92Z"/><path class="cls-2" d="M388.43,518.19c.05.16.21.27.48.32a3.86,3.86,0,0,0,.84.08c.3,0,.58,0,.84,0s.4.12.4.28a1.76,1.76,0,0,1-.32,1.17,6.79,6.79,0,0,1-1,1.28,10.61,10.61,0,0,1-1.16,1.08,2.44,2.44,0,0,1-1.08.56,2.59,2.59,0,0,1-1.8-.36A4.86,4.86,0,0,1,384,521a9.74,9.74,0,0,1-1.16-2.81,11.75,11.75,0,0,1-.28-3.84,33.34,33.34,0,0,1,1.56-7.86q1.41-4.56,3.53-9.66t4.77-10.38q2.64-5.28,5.29-9.93t5-8.38a67.15,67.15,0,0,1,4-5.73,3,3,0,0,1,2.41.08,7.77,7.77,0,0,1,2.4,1.56,5.81,5.81,0,0,1,1.48,2.17,1.56,1.56,0,0,1-.2,1.8,20.55,20.55,0,0,0-1.88,2.81c-.93,1.55-2,3.48-3.32,5.81s-2.7,4.94-4.25,7.85-3.08,5.87-4.57,8.86-2.94,5.92-4.33,8.77-2.58,5.44-3.57,7.74a56.69,56.69,0,0,0-2.16,5.69C388.26,517,388.16,517.93,388.43,518.19Z"/><path class="cls-2" d="M425.54,496.31a11.4,11.4,0,0,1-3.21,6,26.56,26.56,0,0,1-5.69,4.41,35.62,35.62,0,0,1-6.17,2.85,22.94,22.94,0,0,1-4.73,1.2,8.4,8.4,0,0,0-.16,3.28,2.5,2.5,0,0,0,1.36,2.17,4.66,4.66,0,0,0,2.93,0,23.84,23.84,0,0,0,4.13-1.44,35.71,35.71,0,0,0,4.56-2.49q2.32-1.48,4.25-3c.8-.75,1.36-1.13,1.69-1.13s.49.2.52.61a4.46,4.46,0,0,1-.24,1.48c-.19.59-.36,1.07-.52,1.44s-.81,1.35-1.61,2.61a20.15,20.15,0,0,1-3.2,3.76,18.93,18.93,0,0,1-4.73,3.21,11.16,11.16,0,0,1-6.25.92,9,9,0,0,1-3.05-.88,12.31,12.31,0,0,1-3.37-2.33,13.15,13.15,0,0,1-2.72-3.8,12.67,12.67,0,0,1-1.2-5.33,22.77,22.77,0,0,1,2.08-8.78,35.34,35.34,0,0,1,4.61-7.53,26.08,26.08,0,0,1,5.73-5.37,11.63,11.63,0,0,1,5.53-2.21,8.46,8.46,0,0,1,4.49.85,9.27,9.27,0,0,1,4.81,6A7.85,7.85,0,0,1,425.54,496.31ZM420.17,492a1.92,1.92,0,0,0-1.93.09,10.57,10.57,0,0,0-2.52,1.72,32,32,0,0,0-2.77,2.8,41.38,41.38,0,0,0-2.68,3.41,38,38,0,0,0-2.16,3.41,16.77,16.77,0,0,0-1.33,2.84,19,19,0,0,0,5.37-3.13,36.17,36.17,0,0,0,4.77-4.48,20.86,20.86,0,0,0,3-4.25C420.57,493.11,420.65,492.31,420.17,492Z"/><path class="cls-2" d="M489.41,474.51a85.24,85.24,0,0,0-6.81,9.3,126.63,126.63,0,0,0-6.53,11.5q-3.09,6.13-5.65,12.58a122.29,122.29,0,0,0-4.25,12.55q3.69-1.12,7.53-2.17t7.38-1.8a60.48,60.48,0,0,1,6.57-1.08,17.5,17.5,0,0,1,5.13.08,12.12,12.12,0,0,1,3.61,1.32,10.06,10.06,0,0,1,2.68,2.2,7.57,7.57,0,0,1,1.52,2.81,6.52,6.52,0,0,1,.2,3,2.75,2.75,0,0,1-.6,1.09,5.82,5.82,0,0,1-.92.88,2.81,2.81,0,0,1-.92.48.45.45,0,0,1-.6-.28c-.06-.06,0-.35,0-.88a3.4,3.4,0,0,0,0-1.37,10.44,10.44,0,0,0-5.17-.68,67.35,67.35,0,0,0-7.94,1c-3,.53-6.09,1.17-9.37,1.92s-6.48,1.43-9.58,2-5.93,1.1-8.5,1.44a20.4,20.4,0,0,1-6.09.12,2.36,2.36,0,0,1-1.64-1,6,6,0,0,1-.88-1.8,4.36,4.36,0,0,1-.2-1.68c.05-.48.16-.73.32-.73a11.4,11.4,0,0,0,4-.76q3.07-.91,7.49-2.28c-.11-.43-.21-.84-.32-1.24a11.9,11.9,0,0,1-.28-1.44,12.43,12.43,0,0,1-.08-2.13c0-.85.12-2,.28-3.28a55,55,0,0,1,2.4-10.34,92.83,92.83,0,0,1,4.65-11.54,95.41,95.41,0,0,1,6.53-11.47,78,78,0,0,1,8-10.17,50,50,0,0,1,9.06-7.7,26,26,0,0,1,9.73-4,10.5,10.5,0,0,1,5.77.69,11.44,11.44,0,0,1,4.85,3.68,13.42,13.42,0,0,1,2.57,6.13,14.6,14.6,0,0,1-1.17,7.94,28.29,28.29,0,0,1-3.92,6.89,23.37,23.37,0,0,1-4.69,4.53,20.73,20.73,0,0,1-4.85,2.6,19.65,19.65,0,0,1-4.45,1.13,16.38,16.38,0,0,1-3.52.08,5.12,5.12,0,0,1-2-.48c-.59-.38-.88-.71-.88-1s.4-.65,1.2-1.08a29.88,29.88,0,0,0,5.49-3.73,40.92,40.92,0,0,0,4.77-4.72,56.42,56.42,0,0,0,3.89-5.09,35.35,35.35,0,0,0,2.76-4.81,16.07,16.07,0,0,0,1.33-3.85,2.69,2.69,0,0,0-.29-2.24,3.54,3.54,0,0,0-2.56-.92,10.13,10.13,0,0,0-4,.92,23.16,23.16,0,0,0-5.13,3.12A43.12,43.12,0,0,0,489.41,474.51Z"/><path class="cls-2" d="M534,495.67a19.62,19.62,0,0,1-.16,5.57,34.66,34.66,0,0,1-1.56,6.17,32.43,32.43,0,0,1-2.81,6,25.47,25.47,0,0,1-3.92,5.09,17.25,17.25,0,0,1-4.85,3.45,11.08,11.08,0,0,1-5.69,1,8.24,8.24,0,0,1-2.93-.84,13,13,0,0,1-3.12-2.08,13.52,13.52,0,0,1-2.53-3,7.7,7.7,0,0,1-1.12-3.73,21.7,21.7,0,0,1,.52-6.05,31.6,31.6,0,0,1,1.73-5.37,26.42,26.42,0,0,1,2.28-4.32,23.23,23.23,0,0,1,2.2-2.93,5.24,5.24,0,0,1,2.49-1.68,7.48,7.48,0,0,0,1.6-.48,22.7,22.7,0,0,1,1.32-2.45,10.17,10.17,0,0,1,1.81-2.2,8.06,8.06,0,0,1,2.4-1.53,6.71,6.71,0,0,1,3.13-.4,8,8,0,0,1,2.84,1.05,14.3,14.3,0,0,1,3,2.24,14.54,14.54,0,0,1,2.4,3.09A6.82,6.82,0,0,1,534,495.67Zm-10.42,12.18a43.16,43.16,0,0,0,2.21-5.57,26,26,0,0,0,1.08-4.89,10.87,10.87,0,0,0-.12-3.68,2.5,2.5,0,0,0-1.32-1.89,2.59,2.59,0,0,0-2.57.12,7.42,7.42,0,0,0-2.56,2.37,9.3,9.3,0,0,0-1.16,1.84,4.48,4.48,0,0,1-.93,1.37,10.18,10.18,0,0,0-1.4,2,37.24,37.24,0,0,0-1.68,3.4q-.84,1.94-1.56,4.05a29.35,29.35,0,0,0-1.09,4.09,12.62,12.62,0,0,0-.2,3.49,2.77,2.77,0,0,0,1.13,2.16,3.22,3.22,0,0,0,2.44,0A8.12,8.12,0,0,0,518.5,515a18.52,18.52,0,0,0,2.65-3.09A32.4,32.4,0,0,0,523.55,507.85Z"/><path class="cls-2" d="M560.66,516.51q.08.24.48.36a4.62,4.62,0,0,0,.84.16l.84.08c.27,0,.41.12.41.28a1.76,1.76,0,0,1-.28,1.12,8.45,8.45,0,0,1-.89,1.25,5.79,5.79,0,0,1-1.12,1,3.1,3.1,0,0,1-1.08.48,2.69,2.69,0,0,1-1.84-.64,7.53,7.53,0,0,1-1.81-2.05,11,11,0,0,1-1.32-3.2,14.37,14.37,0,0,1-.4-4.05v-.56q-2.32,3.28-4.09,5.45a33.19,33.19,0,0,1-3.12,3.41,11.51,11.51,0,0,1-2.41,1.76,4.4,4.4,0,0,1-1.92.52,5.66,5.66,0,0,1-2.45-.64,8.64,8.64,0,0,1-2.44-1.81,10,10,0,0,1-1.88-2.76,8.07,8.07,0,0,1-.76-3.53,17,17,0,0,1,.84-4.36,47.71,47.71,0,0,1,1.92-5.09q1.16-2.65,2.6-5.29c1-1.77,1.93-3.42,2.89-5s1.9-2.93,2.8-4.13a28.3,28.3,0,0,1,2.41-2.85,1.91,1.91,0,0,1,1.76.08,5.88,5.88,0,0,1,1.89,1.45,6.8,6.8,0,0,1,1.28,2.2,3.39,3.39,0,0,1,0,2.45,22.85,22.85,0,0,1-1.24,2.4c-.67,1.18-1.45,2.55-2.33,4.13s-1.79,3.23-2.72,5-1.77,3.36-2.49,4.89a34.13,34.13,0,0,0-1.6,3.88c-.35,1.07-.36,1.71,0,1.93s.88.12,1.68-.28a14.16,14.16,0,0,0,3-2.29,50.34,50.34,0,0,0,4.17-4.53q2.35-2.84,5.16-6.93,1.85-3.21,3.69-6.57a52.64,52.64,0,0,1,3.93-6.17,2.23,2.23,0,0,1,2.2.2,5.76,5.76,0,0,1,1.81,1.8,8.19,8.19,0,0,1,1,2.41,2.7,2.7,0,0,1-.16,2.08c-.22.48-.62,1.31-1.21,2.48s-1.24,2.54-2,4.09-1.46,3.17-2.2,4.85-1.43,3.26-2,4.73-1.09,2.74-1.44,3.81A4,4,0,0,0,560.66,516.51Z"/><path class="cls-2" d="M594.24,516.67c0,.16.21.27.48.32a4.6,4.6,0,0,0,.84.08,7.69,7.69,0,0,1,.85,0c.26,0,.4.12.4.28a2.07,2.07,0,0,1-.24,1.16,7,7,0,0,1-.81,1.29,8.2,8.2,0,0,1-1,1.08,2.28,2.28,0,0,1-1,.56,3.15,3.15,0,0,1-2-.36,6,6,0,0,1-2.05-1.73,10.23,10.23,0,0,1-1.6-3.08,13.23,13.23,0,0,1-.56-4.61,17.94,17.94,0,0,1,1.92-6.93q1.85-4,4.33-9c-.91.8-2.11,1.93-3.61,3.37a61.23,61.23,0,0,0-4.72,5.17,75.83,75.83,0,0,0-5,6.77,45.09,45.09,0,0,0-4.25,8.17,4.24,4.24,0,0,1-.24,1.09c-.16.5-.64.76-1.45.76a3.94,3.94,0,0,1-2-1,13,13,0,0,1-2-2,10.89,10.89,0,0,1-1.48-2.4,4.52,4.52,0,0,1-.49-2.21,21.35,21.35,0,0,1,.93-4.4,52.94,52.94,0,0,1,1.88-5.17c.75-1.79,1.57-3.58,2.48-5.37s1.82-3.49,2.73-5.09,1.76-3,2.56-4.29a29.14,29.14,0,0,1,2.09-2.93c.21-.21.68-.2,1.4,0a8.13,8.13,0,0,1,2.2,1.17,9.89,9.89,0,0,1,1.89,1.72,1.75,1.75,0,0,1,.52,1.64,14.75,14.75,0,0,1-.76,1.65c-.4.77-.87,1.64-1.41,2.6s-1.08,2-1.64,3.13-1.08,2.21-1.56,3.28a64,64,0,0,1,5-5.25q2.76-2.6,5.33-4.65c1.71-1.36,3.24-2.48,4.61-3.36a11.2,11.2,0,0,1,2.76-1.48,3.57,3.57,0,0,1,2.36,1,5.52,5.52,0,0,1,1.89,2.56,4.06,4.06,0,0,1,.4,3.13c-.21.48-.63,1.35-1.24,2.6s-1.31,2.7-2.09,4.33-1.57,3.34-2.4,5.13-1.58,3.47-2.24,5.05-1.21,2.92-1.61,4.05A4.23,4.23,0,0,0,594.24,516.67Z"/><path class="cls-2" d="M639.28,482a1,1,0,0,1,1-.56c.43,0,.62.32.57.8a14.24,14.24,0,0,1-1.37,5.29,18.1,18.1,0,0,1-2.48,3.8,15.36,15.36,0,0,1-2.73,2.53,13.68,13.68,0,0,1-2.08,1.28,5,5,0,0,1-1.28.4,19.31,19.31,0,0,1-.88,7.86,26.06,26.06,0,0,1-3.53,7.17,21.4,21.4,0,0,1-5.09,5.17,8.88,8.88,0,0,1-5.65,1.84,5.8,5.8,0,0,1-1.8-.12,10.31,10.31,0,0,1-1.89-.6,12.52,12.52,0,0,0-1.76,1.84,14.32,14.32,0,0,0-1.76,3.13,33.89,33.89,0,0,1,6.89-1.6,18.83,18.83,0,0,1,7.93.56,10.17,10.17,0,0,1,2.81,2.08,12.07,12.07,0,0,1,1.84,2.53,12.38,12.38,0,0,1,1.08,2.6,12.82,12.82,0,0,1,.45,2.24A9.14,9.14,0,0,1,628,535.3a19.76,19.76,0,0,1-4.2,4.53,29.06,29.06,0,0,1-5.9,3.61,35,35,0,0,1-6.65,2.32,27.68,27.68,0,0,1-6.49.8,12.39,12.39,0,0,1-5.45-1.12,8.12,8.12,0,0,1-3.37-3.16,8.63,8.63,0,0,1-1.28-5.17,5.18,5.18,0,0,1,1-2.49,12,12,0,0,1,2.25-2.4,16.54,16.54,0,0,1,3-2,15.84,15.84,0,0,1,3.37-1.24,5.23,5.23,0,0,1-1.64-1.8,8.15,8.15,0,0,1-.77-1.72,4.5,4.5,0,0,1,0-2.69,10.68,10.68,0,0,1,1.41-2.8,16.82,16.82,0,0,1,2.36-2.73,30.55,30.55,0,0,1,2.93-2.44,9.49,9.49,0,0,1-1.89-2,7.12,7.12,0,0,1-1.08-2.36,11.83,11.83,0,0,1-.12-4.85,25,25,0,0,1,1.56-5.41,31.68,31.68,0,0,1,2.81-5.29,27,27,0,0,1,3.69-4.53,18.66,18.66,0,0,1,4.12-3.12,8.69,8.69,0,0,1,4.21-1.17,15.51,15.51,0,0,1,4.41.61,8.23,8.23,0,0,1,3.45,1.88,1.47,1.47,0,0,0,.16.28l.16.28a18.28,18.28,0,0,0,3.28-2q1.6-1.25,3-2.37C637.33,483.86,638.32,482.93,639.28,482ZM607,530a44.57,44.57,0,0,0-3.84,3.69,36.62,36.62,0,0,0-2.49,3.09,3,3,0,0,0-.8,2.52,5.8,5.8,0,0,0,3.61.44,29.11,29.11,0,0,0,5.29-1.2,49.65,49.65,0,0,0,5.85-2.32,41.89,41.89,0,0,0,5.29-3,17,17,0,0,0,3.6-3.09c.86-1,1.13-1.92.81-2.72s-1.13-1.18-2.41-1.12a23,23,0,0,0-4.53.72c-1.73.43-3.54.93-5.41,1.52S608.43,529.6,607,530Zm7.38-17.79q1.68.81,3.6-.72a17.73,17.73,0,0,0,3.73-4.25,41.21,41.21,0,0,0,3.25-6,61.54,61.54,0,0,0,2.32-6,8.18,8.18,0,0,1-2.24-1.08,4.73,4.73,0,0,1-1.45-1.56,23.79,23.79,0,0,0-5,5.16,32.71,32.71,0,0,0-3.57,6.1,18.14,18.14,0,0,0-1.56,5.37C613.24,510.83,613.56,511.81,614.36,512.18Z"/><path class="cls-2" d="M661.4,496.31a11.32,11.32,0,0,1-3.2,6,26.56,26.56,0,0,1-5.69,4.41,36,36,0,0,1-6.17,2.85,22.94,22.94,0,0,1-4.73,1.2,8.4,8.4,0,0,0-.16,3.28,2.5,2.5,0,0,0,1.36,2.17,4.63,4.63,0,0,0,2.92,0,23.28,23.28,0,0,0,4.13-1.44,35.14,35.14,0,0,0,4.57-2.49q2.33-1.48,4.25-3c.8-.75,1.36-1.13,1.68-1.13s.49.2.52.61a4,4,0,0,1-.24,1.48c-.19.59-.36,1.07-.52,1.44s-.8,1.35-1.6,2.61a19.86,19.86,0,0,1-3.21,3.76,18.57,18.57,0,0,1-4.73,3.21,11.14,11.14,0,0,1-6.25.92,9,9,0,0,1-3-.88,12.31,12.31,0,0,1-3.37-2.33,13,13,0,0,1-2.72-3.8,12.83,12.83,0,0,1-1.21-5.33,22.79,22.79,0,0,1,2.09-8.78,35.34,35.34,0,0,1,4.61-7.53,25.86,25.86,0,0,1,5.73-5.37A11.63,11.63,0,0,1,652,486a8.42,8.42,0,0,1,4.48.85,9.13,9.13,0,0,1,3.13,2.56,9.4,9.4,0,0,1,1.68,3.45A7.7,7.7,0,0,1,661.4,496.31ZM656,492a1.9,1.9,0,0,0-1.92.09,10.81,10.81,0,0,0-2.53,1.72,30.67,30.67,0,0,0-2.76,2.8,39.34,39.34,0,0,0-2.68,3.41,38.16,38.16,0,0,0-2.17,3.41,17.44,17.44,0,0,0-1.32,2.84,19.3,19.3,0,0,0,5.37-3.13,36.81,36.81,0,0,0,4.77-4.48,20.76,20.76,0,0,0,3-4.25C656.43,493.11,656.51,492.31,656,492Z"/></svg>