<svg xmlns="http://www.w3.org/2000/svg" xmlns:xlink="http://www.w3.org/1999/xlink" viewBox="0 0 841.89 595.28"><defs><style>.cls-1{isolation:isolate;}.cls-11,.cls-14,.cls-15,.cls-18,.cls-2,.cls-5,.cls-8{mix-blend-mode:screen;}.cls-2{fill:url(#linear-gradient);}.cls-3{fill:url(#linear-gradient-2);}.cls-4{fill:url(#linear-gradient-3);}.cls-5{fill:url(#linear-gradient-4);}.cls-6{fill:url(#linear-gradient-5);}.cls-7{fill:url(#linear-gradient-6);}.cls-8{fill:url(#linear-gradient-7);}.cls-9{fill:url(#linear-gradient-8);}.cls-10{fill:url(#linear-gradient-9);}.cls-11{fill:url(#linear-gradient-10);}.cls-12{fill:#010101;}.cls-13{fill:#95351f;}.cls-14{fill:url(#linear-gradient-11);}.cls-15{fill:url(#linear-gradient-12);}.cls-16{fill:#651f0d;}.cls-17{fill:#a91f25;}.cls-18{fill:url(#linear-gradient-13);}.cls-19{opacity:0.05;}</style><linearGradient id="linear-gradient" x1="413.51" y1="215.45" x2="413.51" y2="349.23" gradientUnits="userSpaceOnUse"><stop offset="0" stop-color="#010101"/><stop offset="1" stop-color="#f48420"/></linearGradient><linearGradient id="linear-gradient-2" x1="608.56" y1="285.18" x2="621.28" y2="365.21" gradientTransform="matrix(-1, 0, 0, 1, 1108.83, 0)" gradientUnits="userSpaceOnUse"><stop offset="0" stop-color="#ed3326"/><stop offset="1" stop-color="#faed14"/></linearGradient><linearGradient id="linear-gradient-3" x1="587.22" y1="267.36" x2="629.32" y2="353.61" xlink:href="#linear-gradient-2"/><linearGradient id="linear-gradient-4" x1="602.87" y1="291.11" x2="621.04" y2="353.02" gradientTransform="matrix(-1, 0, 0, 1, 1108.83, 0)" xlink:href="#linear-gradient"/><linearGradient id="linear-gradient-5" x1="399.24" y1="223.42" x2="423.14" y2="373.93" gradientTransform="matrix(1, 0, 0, 1, 0, 0)" xlink:href="#linear-gradient-2"/><linearGradient id="linear-gradient-6" x1="413.45" y1="188.22" x2="413.45" y2="355.21" gradientTransform="matrix(1, 0, 0, 1, 0, 0)" xlink:href="#linear-gradient-2"/><linearGradient id="linear-gradient-7" x1="414.02" y1="215.82" x2="414.02" y2="349.23" xlink:href="#linear-gradient"/><linearGradient id="linear-gradient-8" x1="343.16" y1="293.84" x2="355.27" y2="370.1" gradientTransform="translate(83.95 -77.21) rotate(14.54)" xlink:href="#linear-gradient-2"/><linearGradient id="linear-gradient-9" x1="325.67" y1="287.13" x2="361.35" y2="360.23" gradientTransform="translate(83.95 -77.21) rotate(14.54)" xlink:href="#linear-gradient-2"/><linearGradient id="linear-gradient-10" x1="339.58" y1="300.77" x2="357.12" y2="360.57" gradientTransform="translate(83.95 -77.21) rotate(14.54)" xlink:href="#linear-gradient"/><linearGradient id="linear-gradient-11" x1="405.09" y1="299.9" x2="405.09" y2="339.52" gradientUnits="userSpaceOnUse"><stop offset="0" stop-color="#f48420"/><stop offset="1" stop-color="#be242e" stop-opacity="0"/></linearGradient><linearGradient id="linear-gradient-12" x1="364.05" y1="329.46" x2="379.03" y2="306.13" gradientUnits="userSpaceOnUse"><stop offset="0" stop-color="#be242e" stop-opacity="0"/><stop offset="1" stop-color="#f48420"/></linearGradient><linearGradient id="linear-gradient-13" x1="431.68" y1="298.95" x2="456.72" y2="330.44" xlink:href="#linear-gradient-11"/></defs><g class="cls-1"><g id="Layer_1" data-name="Layer 1"><path class="cls-2" d="M465.29,273.55c-3.33,36-32.64,22-37.31,48.63-24-38,12.66-49.3-6-87.94,4.66,24-46.48,43-21.32,93.27-12,1.33-38.64-13.33-39.31-40.64a103.83,103.83,0,0,0-2.5,12c1.41,2.38,2.79,4.78,4.09,7.24L358.76,308c-.21-.53-.46-1-.68-1.58-2.07,35.77,20.22,59,56.58,59C471.83,365.48,474,315.52,465.29,273.55Z"/><path class="cls-3" d="M514.77,293.16c4.73,20.08.1,25.88-9.45,33.66,17.13-25.39-14.17-37.79,17.13-67.9-59.05,8.86-80.27,96.41-41.89,103.36C519.5,369.33,537.8,337.45,514.77,293.16Z"/><path class="cls-4" d="M518.16,322.35c-8.24,6.6-11.54,14-22.25,13.19,14.73-31.16-11.84-35.29,11.18-68.35-32.47,17.12-56.82,76-30.11,90.92C497.06,369.33,516.51,357,518.16,322.35Z"/><path class="cls-5" d="M475.29,352c11.19,11.19,35.36,4.13,39.48-18.13-7.68,11.22-19.69,11.54-27.11,8.24,5.44-12,6.59-13.19,3.3-47.82C486.84,317.41,459.63,336.37,475.29,352Z"/><path class="cls-6" d="M370,223.93c-8,29.9,4.31,35.28,4.58,55.34-1.26-58,52.56-61.32,16-110.48,43.84,23.92,61.78,61.78,49.82,106.3,17.28-11.3,21.93-41.86,4.65-73.75,35.21,27.24,74,169.26-27.23,168.75C351.73,369.76,308.21,318.93,370,223.93Z"/><path class="cls-7" d="M361.36,263.79C360,284.05,373.18,303.15,386.61,315c-19.27-52.49,40.06-77.79,23.92-116.93,27.23,22.59,25.91,75.07,14.61,105,10.63-26.58,40.31-11.74,37.21-53.81,16.39,45.62,24.12,118.25-44.51,118.25C358,367.43,341.43,320.93,361.36,263.79Z"/><path class="cls-8" d="M362,287.05c.66,27.23,27.24,41.85,39.19,40.52-25.08-50.11,25.92-69.09,21.26-93,18.61,38.53-17.93,49.83,6,87.7,4.66-26.58,33.89-12.63,37.21-48.5,8.63,41.85,6.52,91.68-50.49,91.68C372.66,365.44,349.41,333.55,362,287.05Z"/><path class="cls-9" d="M322.1,295.77c-5.68,20.87-2.37,29.28,6.25,38.37-8.51-26.84,21.45-28.4,2-70.11,32,28.63,57.2,103.59,13,104.89C305.19,370,299.7,330.83,322.1,295.77Z"/><path class="cls-10" d="M316.14,324.91c5.92,7.91,7.16,15.41,17.07,17.18-2.91-31.84,11.8-24,9.29-57.37,15.49,26.33,36.68,78.39.07,81.94C327.43,368.12,309.5,356.66,316.14,324.91Z"/><path class="cls-11" d="M348.07,364c-12.76,7.53-30.52-7.6-29-28.73,5.19,9.51,12.59,16,20.08,14.77-4.53-10.81-2.95-24.81,8.25-44.09C339.38,326,374.73,348.25,348.07,364Z"/><path class="cls-12" d="M398.87,381.73c-11.95,0-23.79-1.43-31.65-3.82a27,27,0,0,1-19.33-21.12,100,100,0,0,1-.68-14.71c0-17.63,6.8-26.07,14.38-33.84,9.22-9.46,24.6-14.89,42.18-14.89a101,101,0,0,1,26.49,3.74c20.26,5.52,36.41,11.28,49.35,21.44,13.79,10.83,15.35,19.54,15.87,22.4.85,4.72.91,16.48-.75,22.45s-10.64,12-27,12c-1.82,0-3.71-.08-5.63-.22-2.3-.17-4.65-.25-7-.25-11.7,0-21.82,2.11-30.75,4l-.13,0c-2.67.56-5.19,1.08-7.64,1.53A102.94,102.94,0,0,1,398.87,381.73Z"/><path class="cls-12" d="M491.53,341.65c-.64-3.59-2.63-10.72-14.4-20-12.43-9.76-27.85-15.26-47.92-20.73-30.83-8.41-54.1-.84-64.75,10.08-6.79,7-13.24,14.6-13.24,31.13,0,0-.21,8.83.63,14a23.06,23.06,0,0,0,16.54,17.93c12.89,3.92,35.16,4.62,47.49,2.38s27.47-6.72,46.52-5.32,27.34-4.78,28.46-8.82C492.37,356.88,492.27,345.74,491.53,341.65Z"/><path class="cls-13" d="M439,371.83c.38-4.15,1.24-14.1,1.24-17.57,0-4.42-.63-9.68-3.37-13.05s-2.95-6.53-5.9-3.58-4.21,5.05-5.89,5.47-4.63-.21-7.58,1.69-2.95,2.95-.84,5.47,5.26,2.95,5.89,8c.58,4.63.34,13.1.29,16.59C427.78,373.82,433.15,372.68,439,371.83Z"/><path class="cls-13" d="M386.43,307c-4.92,6.87-6.21,19.91.32,25.39s13.92,10.95,19.61,6.32c0,0-1.23,3.76-3.75,4.39,0,0,8.73,3.73,12.1-.21,2.14-2.5,5.52-2.94,8.25-4.21s5.48-2.73,4.85-5.68-1.27-4.21-1.48-6.53-2.73-4.21-6.73-5.89-5.27,3.15-10.74,4a26,26,0,0,0,6.53-7.58c2.52-4.63,2.1-5.05,3.78-6.74s4-7.14,1.91-11.56a87.5,87.5,0,0,0-23.25-1.37A33.36,33.36,0,0,0,386.43,307Z"/><path class="cls-14" d="M409.87,341.57a11.66,11.66,0,0,1-1.31-.08,13.2,13.2,0,0,0,.77-1.81l2-7.1-7,3.71a4.32,4.32,0,0,1-2.83,1h0c-4.05,0-9.74-4.77-12.79-7.33-4.94-4.14-4-15.29.21-21.18a30.56,30.56,0,0,1,9.74-8.42c1.8-.13,3.64-.19,5.49-.19a87.76,87.76,0,0,1,14.49,1.25,9.12,9.12,0,0,1-1.73,6.6,10.82,10.82,0,0,0-2.47,3.75c-.38.82-.89,1.94-1.85,3.7a48.06,48.06,0,0,1-5.31,7.59l-6.18,6.47c3.26-.5,13.55-4,15.09-5.12a6.22,6.22,0,0,1,1.75-1.09,1.1,1.1,0,0,1,.39.11c4.67,2,4.84,3.28,4.84,3.29a21.7,21.7,0,0,0,.85,4.21c.22.79.45,1.62.68,2.69.1.48-.85,1.16-3.1,2.19-.67.31-1.44.58-2.26.87-2.23.78-5,1.74-7.05,4.15A3.45,3.45,0,0,1,409.87,341.57Z"/><path class="cls-13" d="M416.16,360c0-2.62-1-6.41-3.72-8.09s-5.48-1.69-10.11-2.53a22.51,22.51,0,0,1-10.52-5.26c-2.53-2.11-4.64-6.53-6.11-5.48s-2.74,2.74-2.74,8-1,7.79.85,10.74a13.31,13.31,0,0,1,2.52,8c0,2.34-.09,8.85-.12,11.42,10.72,1,22.27.72,30-.67C416.18,372.72,416.16,362.22,416.16,360Z"/><path class="cls-13" d="M358.12,345.84c3.37-1.89,7.16-7.58,7.79-10.74a16,16,0,0,0-.63-6.94s4.63,6.1,8.21,4.84,3.79-5.69,4-10.11a30.51,30.51,0,0,1,4-13.26c2-3.24,3.72-9.66,3.85-10.15-8.91,2.45-15.88,6.54-20.48,11.26-6.79,7-13.24,14.61-13.24,31.13,0,0,0,.16,0,.43C352.38,343.5,355.24,347.46,358.12,345.84Z"/><path class="cls-15" d="M356.65,343.08a5.63,5.63,0,0,1-1.9-1.75c.15-14.7,5.68-21.57,12.35-28.4a38.39,38.39,0,0,1,13.4-8.55,21.41,21.41,0,0,1-1.66,3.59,33.37,33.37,0,0,0-4.47,14.77c-.19,3.95-.44,6.79-1.92,7.31-.92,0-3.2-1.84-4.69-3.79l-5.45,2.88a12.56,12.56,0,0,1,.54,5.35C362.37,336.85,359.11,341.65,356.65,343.08Z"/><path class="cls-13" d="M470.33,354.47a17.09,17.09,0,0,0-5.89-9.68c-3.16-2.53-3.79-1.05-8.42-2.32s-9.27-3.58-10.74-3.58-4.21-.63-2.74,2.53,3.16,3.79,2.95,12c-.16,6.3.09,14.25.22,17.61a102.67,102.67,0,0,1,17.09-.2c2.43.18,4.67.23,6.76.19C469.85,367.44,470.68,356.91,470.33,354.47Z"/><path class="cls-13" d="M379.81,360c0-2.53-1.48-3.37-1.27-8.21s2.74-12.22-1.26-13.06-5.9-1.05-8.63,2.53-6.32,6.74-6.53,12.84c-.19,5.44,1.26,12.76,1.58,17.57a26.31,26.31,0,0,0,5.08,2.15,74,74,0,0,0,10.6,2.26C379.48,372.68,379.81,362.07,379.81,360Z"/><path class="cls-12" d="M392.14,304.71a17.9,17.9,0,0,0-4.11,6.9,26.77,26.77,0,0,0-1.29,7.85,19,19,0,0,0,1.2,7.73,16.61,16.61,0,0,0,4.63,6.52,12.71,12.71,0,0,1-6.05-5.87,16.22,16.22,0,0,1-1.45-4.11,21.07,21.07,0,0,1-.33-4.33,21.67,21.67,0,0,1,1.84-8.37A13.45,13.45,0,0,1,392.14,304.71Z"/><path class="cls-12" d="M386.79,342.71a23.44,23.44,0,0,0,5.42,5.34,21.47,21.47,0,0,0,6.88,2.74c1.22.32,2.47.57,3.73.78.63.11,1.26.21,1.89.29l1,.12.47.06.57.1a8.16,8.16,0,0,1,3.66,2.05,6.9,6.9,0,0,1,2.14,3.37,8.39,8.39,0,0,0-2.74-2.6,8.18,8.18,0,0,0-3.32-1.28l-.4,0h-.5l-1-.05c-.67,0-1.33-.1-2-.17a35.79,35.79,0,0,1-3.94-.71,18.06,18.06,0,0,1-7.34-3.44A15.24,15.24,0,0,1,386.79,342.71Z"/><path class="cls-16" d="M422.83,374.84c5-1,10.33-2.16,16.16-3,.34-3.75,1.07-12.23,1.21-16.38-6.41.86-12.25,2.11-17.61,3.22C423.1,363.37,422.88,371.43,422.83,374.84Z"/><path class="cls-17" d="M492.27,345.12c-.08-1.27-.19-2.4-.32-3.27a27.55,27.55,0,0,1-.73,4,5.21,5.21,0,0,1-.36.91A6.8,6.8,0,0,0,492.27,345.12Z"/><path class="cls-16" d="M379.81,360s0,0,0-.05a75.71,75.71,0,0,1-11.14-2.33,26,26,0,0,1-6.55-3c-.09,5.41,1.3,12.49,1.6,17.15a26.11,26.11,0,0,0,5,2.07,73.53,73.53,0,0,0,10.72,2.27C379.48,372.73,379.81,362.07,379.81,360Z"/><path class="cls-16" d="M470.36,354.79a71.44,71.44,0,0,1-7.62-.16,103.82,103.82,0,0,0-17.28.21c-.09,6,.13,13.09.25,16.19a103.13,103.13,0,0,1,17-.18q3.67.25,6.82.18C469.84,367.59,470.62,357.68,470.36,354.79Z"/><path class="cls-16" d="M416.16,360s0-.06,0-.09c-7.86,1.42-19.75,1.64-30.68.61a12.53,12.53,0,0,1,.86,4.86c0,2.35-.09,8.87-.12,11.43,10.73.95,22.28.7,30-.69h0C416.18,372.69,416.16,362.22,416.16,360Z"/><path class="cls-13" d="M476.86,339.52c-4.63-2.31-8.42-2.52-12.21-5.68s-10.95-4.21-10.95-4.21,5.48-1.47,8-.84,5.9-.84,2.53-2.74-4.84-6.32-4.84-9.89c0,0,2.73,6.1,6.1,6.94,2.81.71,5.64-3.54,6.87-4.74h0l.42-.4c-11.56-7.69-25.58-12.5-43.18-17.3-1.66-.45-3.31-.85-4.93-1.22.07.35,1,5.5-.65,9.77-1.69,4.42-3.58,6.74-1.9,8s6.95.63,9.05,2.1,4.64,1.27,6.95,1.27,4,2.94,4,2.94a9.57,9.57,0,0,0-7.37-.84c-4,1.27-4.63,5.69-3.36,6.95s5.89,4.84,10.73,4.42,9.69,2.11,13.48,3.79,6.31.42,8.63,3,4.84,6.52,9,9,9.05,1.26,9.68-1.47S481.49,341.84,476.86,339.52Z"/><path class="cls-18" d="M478.05,348.08a6.3,6.3,0,0,1-3.16-.92,25.82,25.82,0,0,1-6.4-6.17c-.63-.78-1.23-1.51-1.85-2.19a40.11,40.11,0,0,0,4.22,1.67,38.44,38.44,0,0,1,4.6,1.85c3.51,1.75,4.62,4.23,4.48,5.26a3,3,0,0,1-1.89.5Zm-15.35-11.8a16.85,16.85,0,0,0-2.49-.47,11.56,11.56,0,0,1-3.34-.82l-1.26-.57c-3.46-1.58-7.78-3.54-12.4-3.54-.45,0-.9,0-1.36.06l-.52,0c-3.11,0-6.23-2.22-7.4-3.23a2.38,2.38,0,0,1,1.76-2.07,5.74,5.74,0,0,1,1.7-.26,6.93,6.93,0,0,1,3.11.79l10.16,6L444.84,322c-.27-.46-2.7-4.52-6.72-4.52h-1.57a6.17,6.17,0,0,1-3.58-.71c-1.76-1.23-4.09-1.46-6.35-1.7-.49-.05-1.1-.11-1.64-.18.17-.39.36-.82.54-1.2.41-.92.92-2.05,1.42-3.35a19.93,19.93,0,0,0,1.16-6.83l.68.18c12.56,3.43,23.29,6.84,32.6,11.39l-5.12,1.1a16.56,16.56,0,0,0,2.87,9.38,35.6,35.6,0,0,0-6.24,1.07l.36,6.11c1.75.26,6.86,1.41,9.4,3.52ZM466.16,320c-.88-.33-2.45-2.28-3.53-4.36,1.82.92,3.59,1.9,5.31,2.92A5.88,5.88,0,0,1,466.16,320Z"/><path class="cls-13" d="M483.17,326.36a60.5,60.5,0,0,0-5.64-5L477,321l-.18.12c-1,.77-7.32,5.6-7.71,7.92-.42,2.52,2.53,3.37,5.47,2.31s5.47-4.56,8.63-4.95Z"/><path class="cls-13" d="M491.93,341.35c-.49-2.69-1.72-7.36-7.25-13.42h0s-3.81,1.69-3.81,4,.63,3.79,3.37,6.31,3.79,3.79,3.58,6.74,2.35,3.41,4.5.06A35.57,35.57,0,0,0,491.93,341.35Z"/><path class="cls-12" d="M481,344.75a3.22,3.22,0,0,1,.42,1.4,2.33,2.33,0,0,1-.48,1.41,3.81,3.81,0,0,1-2.69,1.27,7,7,0,0,1-3-.48,12,12,0,0,1-2.6-1.45c-3.27-2.24-5.53-5.61-8.06-8.35a4.68,4.68,0,0,0-2.26-1.27c-.89-.23-1.85-.31-2.82-.48a13.84,13.84,0,0,1-2.87-.83c-.91-.38-1.76-.82-2.64-1.23a39.49,39.49,0,0,0-5.31-2.18,16.64,16.64,0,0,0-5.65-.9,15.69,15.69,0,0,1,5.78.44,37.69,37.69,0,0,1,5.49,1.95l2.66,1.13a11.74,11.74,0,0,0,2.69.72c.93.16,1.9.22,2.89.46a5.61,5.61,0,0,1,2.74,1.49c1.38,1.46,2.48,3,3.74,4.46a26.24,26.24,0,0,0,4.09,3.94,12.14,12.14,0,0,0,2.38,1.49,6.36,6.36,0,0,0,2.68.57,3.45,3.45,0,0,0,2.5-.93A2.4,2.4,0,0,0,481,344.75Z"/><path class="cls-12" d="M521.79,353.54c-.42.6-.87,1.16-1.32,1.72s-.69.82-1,1.21-.54.6-.82.89-.57.59-.86.87-.7.66-1.06,1-.62.55-1,.82c-.51.41-1,.82-1.57,1.21l-.77.53c-.47.32-.95.63-1.43.92l-.69.42a37,37,0,0,1-7.71,3.33l-7,7-3.26,3.26-21.66,21.66L454,380.57c-2.12,0-4.2.13-6.22.29l19.38,19.38-42,0,19-19c-2.61.29-5.13.66-7.58,1.07l-16,16-11.14-11.15c-1.94.18-4,.31-6.12.4l12.65,12.65-36.79,0,12.61-12.61q-3.14-.1-6.19-.32l-11.05,11.05-24.85-24.85a22.41,22.41,0,0,1-6,.49l3.57,3.56-20.8,20.8L311.7,383.68,324.36,371a32,32,0,0,1-13-9.55,13.23,13.23,0,0,1-.82-1.35l-12,12.16-17.5,17.45L267.3,403.4l1.09,2.76,9.55,23.56H564.37l9.54-23.56.68-2.25Zm-226.55,46.6,13.2-13.2,13.22,13.22Zm35.74,0,19.4-19.39,19.42,19.42Zm145.28.09,20.35-20.35L517,400.27Zm23.61-23.6,10.88-10.89,21.67,21.66-10.89,10.89Zm26.2,23.63,9.6-9.6,9.61,9.61Z"/><path class="cls-13" d="M537.87,139.48c-5,0-8.55-1.38-10.89-4.23-3.6-4.38-4.42-12.18-2.43-23.19,3.21-17.76,16.15-35.42,16.7-36.17.42-.53,9-11.23,10.37-12.74.84-1.08,2.75-3.51,3.26-4L555,59l.15-.1c1.65-1.14,16.4-11.09,23.61-11.09A19.7,19.7,0,0,1,590,51.56c11.37,7.65,21.55,29.44,24.81,46.08,3.13,15.93,1.61,26.42-4.64,32.09l-.13.12-.11.13a16.07,16.07,0,0,1-1.3,1.31l-.13.12-.11.13a16.07,16.07,0,0,1-1.3,1.31l-.13.13-.12.13a15.73,15.73,0,0,1-1.85,1.82,3.88,3.88,0,0,1-2.5,1.08c-1.6,0-3.51-1.16-6.47-3.07-3.86-2.49-9.15-5.9-16.09-5.9-.39,0-.8,0-1.2,0-4.39.24-7.7,2.19-11.53,4.46C561.19,135.08,553.76,139.48,537.87,139.48Z"/><path class="cls-12" d="M194,144.05a48,48,0,0,1-48.09-48A46.69,46.69,0,0,1,160,61.93a46.32,46.32,0,0,1,34-14.19S214,48,228,62.05l-13.6,13.59A28.1,28.1,0,0,0,194,67.17a27.55,27.55,0,0,0-20.37,8.47,28.87,28.87,0,0,0,0,40.86,28.92,28.92,0,0,0,40.86-.06L228.1,130A47.93,47.93,0,0,1,194,144.05Z"/><path class="cls-12" d="M263.85,48.51v38h31.73v-38h19V143.4h-19v-38H263.85v38h-19V48.51Z"/><path class="cls-12" d="M331.72,48.51H350.8V143.4H331.72Z"/><path class="cls-12" d="M386.79,48.51v75.93h38.14v19H367.71V48.51Z"/><path class="cls-12" d="M460.7,48.51v75.93h38.14v19H441.62V48.51Z"/><path class="cls-12" d="M665.55,124.72c5.27,0,11.08-4.38,11.08-9.64,0-8.67-11.63-9.88-18.19-12.15C646.87,99,636.65,89.49,636.65,76.57a29,29,0,0,1,57.63-4l-18.94,4a9.63,9.63,0,0,0-19.26.05c0,8.55,10.82,10.83,17.41,12.78C685.47,92.86,696,102,696,115.19c0,16-14.36,28.93-30.34,28.93-14.67,0-27.94-10.77-30.1-24.9l18.94-4c0,5.3,5.75,9.62,11.11,9.62Z"/><path class="cls-12" d="M617.6,98.34c-3.51-17.67-14.07-39.85-26.53-48.12-10.82-7.17-23.55-6.42-40.71,11.06-.52.51-1,1-1.56,1.57s-1,1-1.56,1.56a125.57,125.57,0,0,0-9.78,10.8s-14.06,18.42-17.58,37.6S521,144,536.51,144c26.85,0,31.53-11.87,41.56-12.41,14.07-.75,20.14,13.91,28.45,7.15a19.34,19.34,0,0,0,2.25-2.18,19.14,19.14,0,0,0,1.56-1.56,19.14,19.14,0,0,0,1.56-1.56C619.2,126.92,621,115.48,617.6,98.34ZM539.08,83.68A178.94,178.94,0,0,1,554,63.85C569,49.72,579.51,48.5,588.25,53s16.13,16.35,18.59,25.84,1,15.72-4.48,19.17c-5.82,3.64-10.08-4.24-19.94-3.83-7,.28-10.31,6.66-29.13,6.66C542.45,100.79,533.61,92.51,539.08,83.68Zm21.11,47.78c-5.21,3.53-16.57,4.27-24.77,2.41s-9.15-12.8-8-20.41,1.65-11.14,4.58-12.8c2.13-1.2,6.15.75,6.15.75,3.31,1.66,9.15,6.12,15.62,5.93a44.82,44.82,0,0,0,21.93-6.86c6.78-4.46,11.2-.56,11.67,2s-.47,3.89-9,7.6S565.39,127.94,560.19,131.46Zm54.58-18.89c-.16,6.68-2.76,13.37-6.66,15.66s-9.26-1.53-13.16-3.82-8.44-4.39-13.31-2.1-9.59,2.67-8-3.25,9.09-8.21,9.09-8.21c11.86-1.91,6.34-9.93,17.22-7.64,5,1.06,5.52-5.73,10.72-5.16C613.47,98.36,614.93,105.88,614.77,112.57Z"/><path class="cls-12" d="M587.24,66c-1.84-6.87-13.1-6.23-18.4-1.56s-4.67,14.34,2.5,16.21S591,80,587.24,66Z"/><path class="cls-12" d="M221.41,474.51a83.94,83.94,0,0,0-6.81,9.3,124.29,124.29,0,0,0-6.53,11.5q-3.09,6.13-5.65,12.58a122.29,122.29,0,0,0-4.25,12.55c2.45-.75,5-1.47,7.53-2.17s5-1.29,7.38-1.8a60.48,60.48,0,0,1,6.57-1.08,17.5,17.5,0,0,1,5.13.08,12.06,12.06,0,0,1,3.6,1.32,10,10,0,0,1,2.69,2.2,7.57,7.57,0,0,1,1.52,2.81,6.66,6.66,0,0,1,.2,3,3,3,0,0,1-.6,1.09,5.82,5.82,0,0,1-.92.88,2.81,2.81,0,0,1-.92.48.45.45,0,0,1-.6-.28c-.06-.06,0-.35,0-.88a3.4,3.4,0,0,0,0-1.37,10.46,10.46,0,0,0-5.17-.68,67.35,67.35,0,0,0-7.94,1q-4.44.79-9.38,1.92t-9.57,2q-4.65.93-8.5,1.44a20.4,20.4,0,0,1-6.09.12,2.36,2.36,0,0,1-1.64-1,5.79,5.79,0,0,1-.88-1.8,4.18,4.18,0,0,1-.2-1.68c.05-.48.16-.73.32-.73a11.35,11.35,0,0,0,4-.76q3.09-.91,7.5-2.28c-.11-.43-.22-.84-.32-1.24a11.9,11.9,0,0,1-.28-1.44,12.43,12.43,0,0,1-.08-2.13c0-.85.12-2,.28-3.28a55,55,0,0,1,2.4-10.34,92.83,92.83,0,0,1,4.65-11.54,95.41,95.41,0,0,1,6.53-11.47,78,78,0,0,1,8-10.17,50,50,0,0,1,9-7.7,26.15,26.15,0,0,1,9.74-4,10.51,10.51,0,0,1,5.77.69,11.5,11.5,0,0,1,4.85,3.68,13.41,13.41,0,0,1,2.56,6.13,14.59,14.59,0,0,1-1.16,7.94,28,28,0,0,1-3.93,6.89,23.07,23.07,0,0,1-4.68,4.53,20.73,20.73,0,0,1-4.85,2.6,19.78,19.78,0,0,1-4.45,1.13,16.46,16.46,0,0,1-3.53.08,5.06,5.06,0,0,1-2-.48c-.59-.38-.88-.71-.88-1s.4-.65,1.2-1.08a30.57,30.57,0,0,0,5.49-3.73,40.92,40.92,0,0,0,4.77-4.72,56.42,56.42,0,0,0,3.89-5.09,36.44,36.44,0,0,0,2.76-4.81,16.44,16.44,0,0,0,1.32-3.85,2.66,2.66,0,0,0-.28-2.24,3.56,3.56,0,0,0-2.56-.92,10.13,10.13,0,0,0-4,.92,23.16,23.16,0,0,0-5.13,3.12A42.57,42.57,0,0,0,221.41,474.51Z"/><path class="cls-12" d="M244.49,517.47c0,.16.13.27.4.32a3.86,3.86,0,0,0,.84.08c.3,0,.58,0,.85,0s.4.12.4.28a1.91,1.91,0,0,1-.28,1.16,7.06,7.06,0,0,1-.89,1.29,10,10,0,0,1-1.08,1.08,2.19,2.19,0,0,1-1,.56,3.36,3.36,0,0,1-2.08-.44,7.7,7.7,0,0,1-2.29-1.8,9.07,9.07,0,0,1-1.72-3,8.55,8.55,0,0,1-.4-3.93,31.1,31.1,0,0,1,1.2-5.25,70.87,70.87,0,0,1,2.48-6.77,74.64,74.64,0,0,1,3.57-7.25,46.11,46.11,0,0,1,4.53-6.69,2.83,2.83,0,0,1,2.28,0,6.3,6.3,0,0,1,2.09,1.4,5.5,5.5,0,0,1,1.32,2.08,2.26,2.26,0,0,1-.08,2c-.21.48-.63,1.39-1.24,2.72s-1.31,2.87-2.09,4.61-1.59,3.58-2.44,5.53-1.62,3.77-2.28,5.45-1.21,3.12-1.61,4.33A4.75,4.75,0,0,0,244.49,517.47Zm11.06-44.88a3.27,3.27,0,0,1,2.37-.32,7.42,7.42,0,0,1,3,1.16,6.33,6.33,0,0,1,2.13,2.28,3,3,0,0,1-.25,3.05c-.26.37-.66.9-1.2,1.56a15.64,15.64,0,0,1-1.88,2,11.78,11.78,0,0,1-2.37,1.64,5.15,5.15,0,0,1-2.72.6,3.33,3.33,0,0,1-1.84-.92,3.28,3.28,0,0,1-1-2,7.9,7.9,0,0,1,.17-2.69,13.52,13.52,0,0,1,.92-2.8,12,12,0,0,1,1.32-2.29A3.35,3.35,0,0,1,255.55,472.59Z"/><path class="cls-12" d="M283.52,487.9c.43-.27.76-.23,1,.12a1,1,0,0,1,0,1.16,12.58,12.58,0,0,1-3,2.6,17.22,17.22,0,0,1-3.25,1.61,16.48,16.48,0,0,1-3.28.84c-1.1.16-2.08.27-2.93.32a26,26,0,0,1,.68,5.41c.08,2.16,0,4.53-.12,7.09s-.43,5.27-.8,8.1-.86,5.58-1.44,8.25-1.26,5.22-2,7.66a41,41,0,0,1-2.44,6.29,14.41,14.41,0,0,1-2.85,4.08,3.75,3.75,0,0,1-3.2,1.21,6.11,6.11,0,0,1-2.37-.64,10.18,10.18,0,0,1-2.76-2,11.69,11.69,0,0,1-2.32-3.28,11.33,11.33,0,0,1-1.05-4.69,24.92,24.92,0,0,1,.44-6.89,91.36,91.36,0,0,1,2.37-9.9q1.6-5.49,4-11.74t5.25-12.43a4.17,4.17,0,0,1-.61-2.52A2.34,2.34,0,0,1,264,486.7a2.09,2.09,0,0,1,1.52-.09q2.16-4.56,4.25-8.65t3.72-7.21q1.65-3.13,2.73-5a21.82,21.82,0,0,1,1.24-2.05,1.91,1.91,0,0,1,2-.36,6.86,6.86,0,0,1,2.41,1.25,9.05,9.05,0,0,1,1.84,1.88c.48.67.62,1.19.4,1.56-.43.75-1,1.82-1.76,3.21s-1.58,3-2.49,4.77-1.89,3.72-3,5.81-2.14,4.19-3.21,6.33a30.28,30.28,0,0,0,3.57.12c1.2,0,2.26-.07,3.17-.12C281.46,488.08,282.51,488,283.52,487.9Zm-15.31,11.22c-.58,1.12-1.36,2.78-2.32,5s-1.94,4.58-2.93,7.17-1.93,5.26-2.84,8-1.64,5.28-2.21,7.58a25.13,25.13,0,0,0-.84,5.77c0,1.55.4,2.43,1.21,2.64.26.11.7-.28,1.32-1.16a23.76,23.76,0,0,0,2-3.73q1.08-2.4,2.29-5.77a69.07,69.07,0,0,0,2.16-7.45,87.58,87.58,0,0,0,1.56-8.66A71.84,71.84,0,0,0,268.21,499.12Z"/><path class="cls-12" d="M306.52,496.31a11.32,11.32,0,0,1-3.2,6,26.56,26.56,0,0,1-5.69,4.41,36,36,0,0,1-6.17,2.85,23.1,23.1,0,0,1-4.73,1.2,8.4,8.4,0,0,0-.16,3.28,2.5,2.5,0,0,0,1.36,2.17,4.63,4.63,0,0,0,2.92,0,23.28,23.28,0,0,0,4.13-1.44,35.14,35.14,0,0,0,4.57-2.49q2.32-1.48,4.25-3c.8-.75,1.36-1.13,1.68-1.13s.49.2.52.61a4,4,0,0,1-.24,1.48c-.19.59-.36,1.07-.52,1.44s-.8,1.35-1.6,2.61a19.86,19.86,0,0,1-3.21,3.76,18.57,18.57,0,0,1-4.73,3.21,11.14,11.14,0,0,1-6.25.92,9,9,0,0,1-3-.88A12.31,12.31,0,0,1,283,519a13,13,0,0,1-2.72-3.8,12.83,12.83,0,0,1-1.21-5.33,22.79,22.79,0,0,1,2.09-8.78,34.94,34.94,0,0,1,4.61-7.53,25.64,25.64,0,0,1,5.73-5.37,11.63,11.63,0,0,1,5.53-2.21,8.42,8.42,0,0,1,4.48.85,9.13,9.13,0,0,1,3.13,2.56,9.4,9.4,0,0,1,1.68,3.45A7.7,7.7,0,0,1,306.52,496.31ZM301.15,492a1.9,1.9,0,0,0-1.92.09,10.57,10.57,0,0,0-2.52,1.72,29.45,29.45,0,0,0-2.77,2.8,39.34,39.34,0,0,0-2.68,3.41c-.83,1.18-1.55,2.31-2.17,3.41a17.44,17.44,0,0,0-1.32,2.84,19.3,19.3,0,0,0,5.37-3.13,36.81,36.81,0,0,0,4.77-4.48,20.76,20.76,0,0,0,3-4.25C301.55,493.11,301.63,492.31,301.15,492Z"/><path class="cls-12" d="M318.71,511.86c-1.13-1.82-2.34-3.81-3.65-6a21.26,21.26,0,0,1-2.69-6.93,9.64,9.64,0,0,1,.49-5.85A10.26,10.26,0,0,1,316.1,489a12.77,12.77,0,0,1,4.77-2.24,13.33,13.33,0,0,1,5.21-.25,4.56,4.56,0,0,1,2.88,1.29,5.25,5.25,0,0,1,1.29,2.44,9,9,0,0,1,.16,2.89,10.48,10.48,0,0,1-.56,2.52c-.16.27-.66.12-1.49-.44s-1.75-1.16-2.76-1.8a14.78,14.78,0,0,0-3.05-1.49,1.89,1.89,0,0,0-2.32.53c-.54.74-.06,2.51,1.44,5.28.48.86,1.08,1.82,1.8,2.89s1.42,2.16,2.09,3.29a30.1,30.1,0,0,1,1.72,3.32,8.84,8.84,0,0,1,.8,3,11.55,11.55,0,0,1-1,4.73,13.61,13.61,0,0,1-2.84,4.12A13.85,13.85,0,0,1,320,522a12.85,12.85,0,0,1-5.25,1.08,10,10,0,0,1-5.61-1.64,9.53,9.53,0,0,1-3.33-4,11.86,11.86,0,0,1-1-5.25,12.07,12.07,0,0,1,1.44-5.41c.59-1.07,1.11-1.57,1.57-1.52s.7.61.76,1.68a7.5,7.5,0,0,0,.88,3.25,16.34,16.34,0,0,0,2.2,3.36,12.18,12.18,0,0,0,2.85,2.53,4.53,4.53,0,0,0,3,.8,2.12,2.12,0,0,0,1.89-1.68A4.36,4.36,0,0,0,318.71,511.86Z"/><path class="cls-12" d="M337.94,519.72q.07.24.48.36c.27.08.55.14.84.2s.58.1.84.16.4.16.4.32a1.48,1.48,0,0,1-.32,1.08,6.79,6.79,0,0,1-1,1.16,7.87,7.87,0,0,1-1.16,1,2.59,2.59,0,0,1-2.89.16,5.06,5.06,0,0,1-1.68-1.52,7.92,7.92,0,0,1-1.2-2.68,15,15,0,0,1-.44-3.81,31.64,31.64,0,0,1,1-6.61,78,78,0,0,1,2.32-7.7c1-2.69,2.1-5.49,3.41-8.37s2.69-5.77,4.13-8.66a11.8,11.8,0,0,1-2.09-.56,3.29,3.29,0,0,1-1.48-1,2.62,2.62,0,0,1-.52-1.2,4,4,0,0,1,0-1.09,5.1,5.1,0,0,1,.16-.72c.16-.64.95-1.15,2.37-1.52a29.89,29.89,0,0,1,5.16-.8q2.33-4.33,4.45-7.69a51.58,51.58,0,0,1,3.65-5.21,2.89,2.89,0,0,1,2.4.08,7.58,7.58,0,0,1,2.41,1.56,6,6,0,0,1,1.48,2.16,1.59,1.59,0,0,1-.2,1.81,15.26,15.26,0,0,0-1.52,2.28q-1.12,1.89-2.65,4.69c2,0,3.76,0,5.33.08s2.71.08,3.41.08a1.21,1.21,0,0,1,.8.36q.41.36-.24,1.56a8.47,8.47,0,0,1-2.36,2.81,12.7,12.7,0,0,1-3.33,1.8,17.65,17.65,0,0,1-3.85,1,27.24,27.24,0,0,1-3.84.28q-1.77,3.52-3.65,7.34c-1.26,2.53-2.44,5-3.57,7.49s-2.18,4.81-3.16,7.05-1.81,4.25-2.45,6-1.11,3.21-1.4,4.33S337.67,519.5,337.94,519.72Z"/><path class="cls-12" d="M377.05,488.94a2.67,2.67,0,0,1,2.2-.6,11.15,11.15,0,0,1,2.93.64,9,9,0,0,1,2.44,1.28c.67.51.9.92.69,1.24a13.63,13.63,0,0,0-1.65,2.73q-1,2-2.52,5.41l-3.69,8.21q-2.16,4.81-5.29,11.14A111.25,111.25,0,0,1,364,533a54,54,0,0,1-9.3,10.5,25,25,0,0,1-10,5.37,15.14,15.14,0,0,1-10.46-1.28,9.49,9.49,0,0,1-4.65-4.21,5.41,5.41,0,0,1-.16-4.93,4.78,4.78,0,0,1,1.33-1.88,3.87,3.87,0,0,1,1.4-.77,1.82,1.82,0,0,1,1,0c.27.11.37.24.32.41a7.11,7.11,0,0,0-.84,3.4,6,6,0,0,0,.76,2.89,4.9,4.9,0,0,0,2.08,1.92,5.74,5.74,0,0,0,3.13.52,11.89,11.89,0,0,0,5.81-2A31,31,0,0,0,351,537a68.41,68.41,0,0,0,7.1-10,114.46,114.46,0,0,0,7.05-14.31c-.8,1-1.64,2-2.53,3s-1.72,1.81-2.52,2.56a28.69,28.69,0,0,1-2.21,1.89,3.9,3.9,0,0,1-1.64.84,5.35,5.35,0,0,1-2.84-.52,9.66,9.66,0,0,1-2.77-2,10.54,10.54,0,0,1-2.08-3,7.4,7.4,0,0,1-.72-3.61,14.3,14.3,0,0,1,1-5,47.64,47.64,0,0,1,2.56-5.61c1-1.89,2.11-3.75,3.29-5.57s2.3-3.43,3.37-4.85,2-2.56,2.72-3.44,1.2-1.33,1.36-1.33a4.3,4.3,0,0,1,2.33.52,7.32,7.32,0,0,1,1.92,1.49,6,6,0,0,1,1.16,1.8,1.5,1.5,0,0,1,0,1.4c-.53.81-1.21,1.89-2,3.25s-1.71,2.84-2.65,4.45-1.85,3.23-2.76,4.89-1.68,3.16-2.33,4.52a28.67,28.67,0,0,0-1.4,3.49c-.29,1-.28,1.52,0,1.68q.48.48,2-.6a29.5,29.5,0,0,0,3.56-3.12c1.37-1.37,2.83-2.93,4.41-4.69s3.09-3.53,4.53-5.29q1.36-2.8,2.4-4.73c.7-1.28,1.29-2.32,1.77-3.13s.86-1.44,1.16-1.92Z"/><path class="cls-12" d="M388.43,518.19c.05.16.21.27.48.32a3.86,3.86,0,0,0,.84.08c.3,0,.58,0,.84,0s.4.12.4.28a1.76,1.76,0,0,1-.32,1.17,6.79,6.79,0,0,1-1,1.28,10.61,10.61,0,0,1-1.16,1.08,2.44,2.44,0,0,1-1.08.56,2.59,2.59,0,0,1-1.8-.36A4.86,4.86,0,0,1,384,521a9.74,9.74,0,0,1-1.16-2.81,11.75,11.75,0,0,1-.28-3.84,33.34,33.34,0,0,1,1.56-7.86q1.41-4.56,3.53-9.66t4.77-10.38q2.64-5.28,5.29-9.93t5-8.38a67.15,67.15,0,0,1,4-5.73,3,3,0,0,1,2.41.08,7.77,7.77,0,0,1,2.4,1.56,5.81,5.81,0,0,1,1.48,2.17,1.56,1.56,0,0,1-.2,1.8,20.55,20.55,0,0,0-1.88,2.81c-.93,1.55-2,3.48-3.32,5.81s-2.7,4.94-4.25,7.85-3.08,5.87-4.57,8.86-2.94,5.92-4.33,8.77-2.58,5.44-3.57,7.74a56.69,56.69,0,0,0-2.16,5.69C388.26,517,388.16,517.93,388.43,518.19Z"/><path class="cls-12" d="M425.54,496.31a11.4,11.4,0,0,1-3.21,6,26.56,26.56,0,0,1-5.69,4.41,35.62,35.62,0,0,1-6.17,2.85,22.94,22.94,0,0,1-4.73,1.2,8.4,8.4,0,0,0-.16,3.28,2.5,2.5,0,0,0,1.36,2.17,4.66,4.66,0,0,0,2.93,0,23.84,23.84,0,0,0,4.13-1.44,35.71,35.71,0,0,0,4.56-2.49q2.32-1.48,4.25-3c.8-.75,1.36-1.13,1.69-1.13s.49.2.52.61a4.46,4.46,0,0,1-.24,1.48c-.19.59-.36,1.07-.52,1.44s-.81,1.35-1.61,2.61a20.15,20.15,0,0,1-3.2,3.76,18.93,18.93,0,0,1-4.73,3.21,11.16,11.16,0,0,1-6.25.92,9,9,0,0,1-3.05-.88,12.31,12.31,0,0,1-3.37-2.33,13.15,13.15,0,0,1-2.72-3.8,12.67,12.67,0,0,1-1.2-5.33,22.77,22.77,0,0,1,2.08-8.78,35.34,35.34,0,0,1,4.61-7.53,26.08,26.08,0,0,1,5.73-5.37,11.63,11.63,0,0,1,5.53-2.21,8.46,8.46,0,0,1,4.49.85,9.27,9.27,0,0,1,4.81,6A7.85,7.85,0,0,1,425.54,496.31ZM420.17,492a1.92,1.92,0,0,0-1.93.09,10.57,10.57,0,0,0-2.52,1.72,32,32,0,0,0-2.77,2.8,41.38,41.38,0,0,0-2.68,3.41,38,38,0,0,0-2.16,3.41,16.77,16.77,0,0,0-1.33,2.84,19,19,0,0,0,5.37-3.13,36.17,36.17,0,0,0,4.77-4.48,20.86,20.86,0,0,0,3-4.25C420.57,493.11,420.65,492.31,420.17,492Z"/><path class="cls-12" d="M489.41,474.51a85.24,85.24,0,0,0-6.81,9.3,126.63,126.63,0,0,0-6.53,11.5q-3.09,6.13-5.65,12.58a122.29,122.29,0,0,0-4.25,12.55q3.69-1.12,7.53-2.17t7.38-1.8a60.48,60.48,0,0,1,6.57-1.08,17.5,17.5,0,0,1,5.13.08,12.12,12.12,0,0,1,3.61,1.32,10.06,10.06,0,0,1,2.68,2.2,7.57,7.57,0,0,1,1.52,2.81,6.52,6.52,0,0,1,.2,3,2.75,2.75,0,0,1-.6,1.09,5.82,5.82,0,0,1-.92.88,2.81,2.81,0,0,1-.92.48.45.45,0,0,1-.6-.28c-.06-.06,0-.35,0-.88a3.4,3.4,0,0,0,0-1.37,10.44,10.44,0,0,0-5.17-.68,67.35,67.35,0,0,0-7.94,1c-3,.53-6.09,1.17-9.37,1.92s-6.48,1.43-9.58,2-5.93,1.1-8.5,1.44a20.4,20.4,0,0,1-6.09.12,2.36,2.36,0,0,1-1.64-1,6,6,0,0,1-.88-1.8,4.36,4.36,0,0,1-.2-1.68c.05-.48.16-.73.32-.73a11.4,11.4,0,0,0,4-.76q3.07-.91,7.49-2.28c-.11-.43-.21-.84-.32-1.24a11.9,11.9,0,0,1-.28-1.44,12.43,12.43,0,0,1-.08-2.13c0-.85.12-2,.28-3.28a55,55,0,0,1,2.4-10.34,92.83,92.83,0,0,1,4.65-11.54,95.41,95.41,0,0,1,6.53-11.47,78,78,0,0,1,8-10.17,50,50,0,0,1,9.06-7.7,26,26,0,0,1,9.73-4,10.5,10.5,0,0,1,5.77.69,11.44,11.44,0,0,1,4.85,3.68,13.42,13.42,0,0,1,2.57,6.13,14.6,14.6,0,0,1-1.17,7.94,28.29,28.29,0,0,1-3.92,6.89,23.37,23.37,0,0,1-4.69,4.53,20.73,20.73,0,0,1-4.85,2.6,19.65,19.65,0,0,1-4.45,1.13,16.38,16.38,0,0,1-3.52.08,5.12,5.12,0,0,1-2-.48c-.59-.38-.88-.71-.88-1s.4-.65,1.2-1.08a29.88,29.88,0,0,0,5.49-3.73,40.92,40.92,0,0,0,4.77-4.72,56.42,56.42,0,0,0,3.89-5.09,35.35,35.35,0,0,0,2.76-4.81,16.07,16.07,0,0,0,1.33-3.85,2.69,2.69,0,0,0-.29-2.24,3.54,3.54,0,0,0-2.56-.92,10.13,10.13,0,0,0-4,.92,23.16,23.16,0,0,0-5.13,3.12A43.12,43.12,0,0,0,489.41,474.51Z"/><path class="cls-12" d="M534,495.67a19.62,19.62,0,0,1-.16,5.57,34.66,34.66,0,0,1-1.56,6.17,32.43,32.43,0,0,1-2.81,6,25.47,25.47,0,0,1-3.92,5.09,17.25,17.25,0,0,1-4.85,3.45,11.08,11.08,0,0,1-5.69,1,8.24,8.24,0,0,1-2.93-.84,13,13,0,0,1-3.12-2.08,13.52,13.52,0,0,1-2.53-3,7.7,7.7,0,0,1-1.12-3.73,21.7,21.7,0,0,1,.52-6.05,31.6,31.6,0,0,1,1.73-5.37,26.42,26.42,0,0,1,2.28-4.32,23.23,23.23,0,0,1,2.2-2.93,5.24,5.24,0,0,1,2.49-1.68,7.48,7.48,0,0,0,1.6-.48,22.7,22.7,0,0,1,1.32-2.45,10.17,10.17,0,0,1,1.81-2.2,8.06,8.06,0,0,1,2.4-1.53,6.71,6.71,0,0,1,3.13-.4,8,8,0,0,1,2.84,1.05,14.3,14.3,0,0,1,3,2.24,14.54,14.54,0,0,1,2.4,3.09A6.82,6.82,0,0,1,534,495.67Zm-10.42,12.18a43.16,43.16,0,0,0,2.21-5.57,26,26,0,0,0,1.08-4.89,10.87,10.87,0,0,0-.12-3.68,2.5,2.5,0,0,0-1.32-1.89,2.59,2.59,0,0,0-2.57.12,7.42,7.42,0,0,0-2.56,2.37,9.3,9.3,0,0,0-1.16,1.84,4.48,4.48,0,0,1-.93,1.37,10.18,10.18,0,0,0-1.4,2,37.24,37.24,0,0,0-1.68,3.4q-.84,1.94-1.56,4.05a29.35,29.35,0,0,0-1.09,4.09,12.62,12.62,0,0,0-.2,3.49,2.77,2.77,0,0,0,1.13,2.16,3.22,3.22,0,0,0,2.44,0A8.12,8.12,0,0,0,518.5,515a18.52,18.52,0,0,0,2.65-3.09A32.4,32.4,0,0,0,523.55,507.85Z"/><path class="cls-12" d="M560.66,516.51q.08.24.48.36a4.62,4.62,0,0,0,.84.16l.84.08c.27,0,.41.12.41.28a1.76,1.76,0,0,1-.28,1.12,8.45,8.45,0,0,1-.89,1.25,5.79,5.79,0,0,1-1.12,1,3.1,3.1,0,0,1-1.08.48,2.69,2.69,0,0,1-1.84-.64,7.53,7.53,0,0,1-1.81-2.05,11,11,0,0,1-1.32-3.2,14.37,14.37,0,0,1-.4-4.05v-.56q-2.32,3.28-4.09,5.45a33.19,33.19,0,0,1-3.12,3.41,11.51,11.51,0,0,1-2.41,1.76,4.4,4.4,0,0,1-1.92.52,5.66,5.66,0,0,1-2.45-.64,8.64,8.64,0,0,1-2.44-1.81,10,10,0,0,1-1.88-2.76,8.07,8.07,0,0,1-.76-3.53,17,17,0,0,1,.84-4.36,47.71,47.71,0,0,1,1.92-5.09q1.16-2.65,2.6-5.29c1-1.77,1.93-3.42,2.89-5s1.9-2.93,2.8-4.13a28.3,28.3,0,0,1,2.41-2.85,1.91,1.91,0,0,1,1.76.08,5.88,5.88,0,0,1,1.89,1.45,6.8,6.8,0,0,1,1.28,2.2,3.39,3.39,0,0,1,0,2.45,22.85,22.85,0,0,1-1.24,2.4c-.67,1.18-1.45,2.55-2.33,4.13s-1.79,3.23-2.72,5-1.77,3.36-2.49,4.89a34.13,34.13,0,0,0-1.6,3.88c-.35,1.07-.36,1.71,0,1.93s.88.12,1.68-.28a14.16,14.16,0,0,0,3-2.29,50.34,50.34,0,0,0,4.17-4.53q2.35-2.84,5.16-6.93,1.85-3.21,3.69-6.57a52.64,52.64,0,0,1,3.93-6.17,2.23,2.23,0,0,1,2.2.2,5.76,5.76,0,0,1,1.81,1.8,8.19,8.19,0,0,1,1,2.41,2.7,2.7,0,0,1-.16,2.08c-.22.48-.62,1.31-1.21,2.48s-1.24,2.54-2,4.09-1.46,3.17-2.2,4.85-1.43,3.26-2,4.73-1.09,2.74-1.44,3.81A4,4,0,0,0,560.66,516.51Z"/><path class="cls-12" d="M594.24,516.67c0,.16.21.27.48.32a4.6,4.6,0,0,0,.84.08,7.69,7.69,0,0,1,.85,0c.26,0,.4.12.4.28a2.07,2.07,0,0,1-.24,1.16,7,7,0,0,1-.81,1.29,8.2,8.2,0,0,1-1,1.08,2.28,2.28,0,0,1-1,.56,3.15,3.15,0,0,1-2-.36,6,6,0,0,1-2.05-1.73,10.23,10.23,0,0,1-1.6-3.08,13.23,13.23,0,0,1-.56-4.61,17.94,17.94,0,0,1,1.92-6.93q1.85-4,4.33-9c-.91.8-2.11,1.93-3.61,3.37a61.23,61.23,0,0,0-4.72,5.17,75.83,75.83,0,0,0-5,6.77,45.09,45.09,0,0,0-4.25,8.17,4.24,4.24,0,0,1-.24,1.09c-.16.5-.64.76-1.45.76a3.94,3.94,0,0,1-2-1,13,13,0,0,1-2-2,10.89,10.89,0,0,1-1.48-2.4,4.52,4.52,0,0,1-.49-2.21,21.35,21.35,0,0,1,.93-4.4,52.94,52.94,0,0,1,1.88-5.17c.75-1.79,1.57-3.58,2.48-5.37s1.82-3.49,2.73-5.09,1.76-3,2.56-4.29a29.14,29.14,0,0,1,2.09-2.93c.21-.21.68-.2,1.4,0a8.13,8.13,0,0,1,2.2,1.17,9.89,9.89,0,0,1,1.89,1.72,1.75,1.75,0,0,1,.52,1.64,14.75,14.75,0,0,1-.76,1.65c-.4.77-.87,1.64-1.41,2.6s-1.08,2-1.64,3.13-1.08,2.21-1.56,3.28a64,64,0,0,1,5-5.25q2.76-2.6,5.33-4.65c1.71-1.36,3.24-2.48,4.61-3.36a11.2,11.2,0,0,1,2.76-1.48,3.57,3.57,0,0,1,2.36,1,5.52,5.52,0,0,1,1.89,2.56,4.06,4.06,0,0,1,.4,3.13c-.21.48-.63,1.35-1.24,2.6s-1.31,2.7-2.09,4.33-1.57,3.34-2.4,5.13-1.58,3.47-2.24,5.05-1.21,2.92-1.61,4.05A4.23,4.23,0,0,0,594.24,516.67Z"/><path class="cls-12" d="M639.28,482a1,1,0,0,1,1-.56c.43,0,.62.32.57.8a14.24,14.24,0,0,1-1.37,5.29,18.1,18.1,0,0,1-2.48,3.8,15.36,15.36,0,0,1-2.73,2.53,13.68,13.68,0,0,1-2.08,1.28,5,5,0,0,1-1.28.4,19.31,19.31,0,0,1-.88,7.86,26.06,26.06,0,0,1-3.53,7.17,21.4,21.4,0,0,1-5.09,5.17,8.88,8.88,0,0,1-5.65,1.84,5.8,5.8,0,0,1-1.8-.12,10.31,10.31,0,0,1-1.89-.6,12.52,12.52,0,0,0-1.76,1.84,14.32,14.32,0,0,0-1.76,3.13,33.89,33.89,0,0,1,6.89-1.6,18.83,18.83,0,0,1,7.93.56,10.17,10.17,0,0,1,2.81,2.08,12.07,12.07,0,0,1,1.84,2.53,12.38,12.38,0,0,1,1.08,2.6,12.82,12.82,0,0,1,.45,2.24A9.14,9.14,0,0,1,628,535.3a19.76,19.76,0,0,1-4.2,4.53,29.06,29.06,0,0,1-5.9,3.61,35,35,0,0,1-6.65,2.32,27.68,27.68,0,0,1-6.49.8,12.39,12.39,0,0,1-5.45-1.12,8.12,8.12,0,0,1-3.37-3.16,8.63,8.63,0,0,1-1.28-5.17,5.18,5.18,0,0,1,1-2.49,12,12,0,0,1,2.25-2.4,16.54,16.54,0,0,1,3-2,15.84,15.84,0,0,1,3.37-1.24,5.23,5.23,0,0,1-1.64-1.8,8.15,8.15,0,0,1-.77-1.72,4.5,4.5,0,0,1,0-2.69,10.68,10.68,0,0,1,1.41-2.8,16.82,16.82,0,0,1,2.36-2.73,30.55,30.55,0,0,1,2.93-2.44,9.49,9.49,0,0,1-1.89-2,7.12,7.12,0,0,1-1.08-2.36,11.83,11.83,0,0,1-.12-4.85,25,25,0,0,1,1.56-5.41,31.68,31.68,0,0,1,2.81-5.29,27,27,0,0,1,3.69-4.53,18.66,18.66,0,0,1,4.12-3.12,8.69,8.69,0,0,1,4.21-1.17,15.51,15.51,0,0,1,4.41.61,8.23,8.23,0,0,1,3.45,1.88,1.47,1.47,0,0,0,.16.28l.16.28a18.28,18.28,0,0,0,3.28-2q1.6-1.25,3-2.37C637.33,483.86,638.32,482.93,639.28,482ZM607,530a44.57,44.57,0,0,0-3.84,3.69,36.62,36.62,0,0,0-2.49,3.09,3,3,0,0,0-.8,2.52,5.8,5.8,0,0,0,3.61.44,29.11,29.11,0,0,0,5.29-1.2,49.65,49.65,0,0,0,5.85-2.32,41.89,41.89,0,0,0,5.29-3,17,17,0,0,0,3.6-3.09c.86-1,1.13-1.92.81-2.72s-1.13-1.18-2.41-1.12a23,23,0,0,0-4.53.72c-1.73.43-3.54.93-5.41,1.52S608.43,529.6,607,530Zm7.38-17.79q1.68.81,3.6-.72a17.73,17.73,0,0,0,3.73-4.25,41.21,41.21,0,0,0,3.25-6,61.54,61.54,0,0,0,2.32-6,8.18,8.18,0,0,1-2.24-1.08,4.73,4.73,0,0,1-1.45-1.56,23.79,23.79,0,0,0-5,5.16,32.71,32.71,0,0,0-3.57,6.1,18.14,18.14,0,0,0-1.56,5.37C613.24,510.83,613.56,511.81,614.36,512.18Z"/><path class="cls-12" d="M661.4,496.31a11.32,11.32,0,0,1-3.2,6,26.56,26.56,0,0,1-5.69,4.41,36,36,0,0,1-6.17,2.85,22.94,22.94,0,0,1-4.73,1.2,8.4,8.4,0,0,0-.16,3.28,2.5,2.5,0,0,0,1.36,2.17,4.63,4.63,0,0,0,2.92,0,23.28,23.28,0,0,0,4.13-1.44,35.14,35.14,0,0,0,4.57-2.49q2.33-1.48,4.25-3c.8-.75,1.36-1.13,1.68-1.13s.49.2.52.61a4,4,0,0,1-.24,1.48c-.19.59-.36,1.07-.52,1.44s-.8,1.35-1.6,2.61a19.86,19.86,0,0,1-3.21,3.76,18.57,18.57,0,0,1-4.73,3.21,11.14,11.14,0,0,1-6.25.92,9,9,0,0,1-3-.88,12.31,12.31,0,0,1-3.37-2.33,13,13,0,0,1-2.72-3.8,12.83,12.83,0,0,1-1.21-5.33,22.79,22.79,0,0,1,2.09-8.78,35.34,35.34,0,0,1,4.61-7.53,25.86,25.86,0,0,1,5.73-5.37A11.63,11.63,0,0,1,652,486a8.42,8.42,0,0,1,4.48.85,9.13,9.13,0,0,1,3.13,2.56,9.4,9.4,0,0,1,1.68,3.45A7.7,7.7,0,0,1,661.4,496.31ZM656,492a1.9,1.9,0,0,0-1.92.09,10.81,10.81,0,0,0-2.53,1.72,30.67,30.67,0,0,0-2.76,2.8,39.34,39.34,0,0,0-2.68,3.41,38.16,38.16,0,0,0-2.17,3.41,17.44,17.44,0,0,0-1.32,2.84,19.3,19.3,0,0,0,5.37-3.13,36.81,36.81,0,0,0,4.77-4.48,20.76,20.76,0,0,0,3-4.25C656.43,493.11,656.51,492.31,656,492Z"/><g class="cls-19"><path class="cls-12" d="M503.33,20.24C350.75-22,209.53,57.81,155.44,183.86c-18.54,35.66-23.29,97.46-23.29,97.46s23.64-52.78,71.4-100.24c7.81-7.75,30.23-34.62,65.45-47.26l.06.36a121,121,0,0,0,4.77,17.17,75.09,75.09,0,0,0,8,15.52,71.85,71.85,0,0,1-2.34-16.63,112.35,112.35,0,0,1,1.11-16.45c.67-4.49,1.56-8.92,2.63-13.29,5.34-12.58,16.14-33.79,32.18-45.34,23.77-17.11,35.42-18.06,41.36-12.83s7.13,23.29,5.7,39.21a157.84,157.84,0,0,1-2.58,17.37c-1.22,4.63-2.65,9.22-4.33,13.74a113.58,113.58,0,0,1-7,14.94A72.43,72.43,0,0,1,338.51,161,75.63,75.63,0,0,0,353,151.3a122,122,0,0,0,12.46-12.74c2.13-2.55,4.16-5.18,6.13-7.87,8.92.32,20.18,1.41,28.67,4.61,16.4,6.18,31.61,12.59,57,33,0,0-5-6.85-9.89-13.35-5.2-6.87-5.32-14.93-2.23-22.3s21.39-41.12,55.86-41.83c0,0,10,8.08,7.84,27.81s-8.32,33.27-15,42.54c-2.83,3.94-6.3,8.52-9.36,12.49A13.11,13.11,0,0,0,486,191.22c8,7.59,22.35,20.85,26.41,31.74,0,0-4.2,20.72-22.27,45.2S453,301,453,301s40.48-4.61,66.08-37.56c25-32.17,54.15-65.13,51.82-150.22,0,0,18.69,23.14,18.06,86.2s-6,82.4-6.65,91.28,5.07,18.38,3.48,33.91c-1.14,11.16-2.44,26.43-3.08,34.12a10.08,10.08,0,0,0,3.14,8.19l12.48,11.73a20.11,20.11,0,0,1,4.7,22.61l-20.95,48.68a27.82,27.82,0,0,1-16.93,15.46c-21.69,7.05-69.61,20.52-119.44,20.52-67.5,0-99.83-17.75-123.28-34.23,0,0,19,26.3,76.38,43.1,21.63,6.34,48.68,9.43,74,10.82,24.45,1.34,29.38,35.32,6.28,43.49a173.62,173.62,0,0,1-50.15,10c-71.31,3.16-107.76-.64-177.79-39.3-26.51-14.64-48.11-34.54-64.73-53.62A288.42,288.42,0,0,0,421,586.43c184.83,0,329.1-173.64,278.6-366.69C674.3,123.21,599.5,46.87,503.33,20.24Z"/><path class="cls-12" d="M517.9,424.36s20-28.09-5.33-34.38c-20.28-5-57.23,33.28-57.23,33.28S512,393.15,517.9,424.36Z"/><path class="cls-12" d="M322.51,287.39s-3.69,23.39,7.39,33.24,33.24,6.16,39.4,1.23C369.3,321.86,339.82,317.87,322.51,287.39Z"/></g></g></g></svg>