<svg xmlns="http://www.w3.org/2000/svg" xmlns:xlink="http://www.w3.org/1999/xlink" viewBox="0 0 841.89 595.28"><defs><style>.cls-1{isolation:isolate;}.cls-2{fill:url(#linear-gradient);}.cls-3{fill:#95351f;}.cls-4{fill:#010101;}.cls-12,.cls-15,.cls-5,.cls-9{mix-blend-mode:screen;}.cls-5{fill:url(#linear-gradient-2);}.cls-6{fill:url(#linear-gradient-3);}.cls-7{fill:url(#linear-gradient-4);}.cls-8{fill:url(#linear-gradient-5);}.cls-9{fill:url(#linear-gradient-6);}.cls-10{fill:url(#linear-gradient-7);}.cls-11{fill:url(#linear-gradient-8);}.cls-12{fill:url(#linear-gradient-9);}.cls-13{fill:url(#linear-gradient-10);}.cls-14{fill:url(#linear-gradient-11);}.cls-15{fill:url(#linear-gradient-12);}.cls-16{fill:url(#linear-gradient-13);}.cls-17{fill:#be242e;}.cls-18{fill:url(#linear-gradient-14);}.cls-19{fill:url(#linear-gradient-15);}.cls-20{fill:#941d22;}.cls-21{fill:#a91f25;}.cls-22{fill:url(#linear-gradient-16);}.cls-23{opacity:0.05;}</style><linearGradient id="linear-gradient" x1="501.59" y1="505.38" x2="501.59" y2="479.04" gradientUnits="userSpaceOnUse"><stop offset="0" stop-color="#ed3326"/><stop offset="1" stop-color="#faed14"/></linearGradient><linearGradient id="linear-gradient-2" x1="412.68" y1="114.7" x2="412.68" y2="259.69" gradientUnits="userSpaceOnUse"><stop offset="0" stop-color="#010101"/><stop offset="1" stop-color="#f48420"/></linearGradient><linearGradient id="linear-gradient-3" x1="415.32" y1="201.34" x2="415.32" y2="309.23" gradientUnits="userSpaceOnUse"><stop offset="0" stop-color="#ed3326" stop-opacity="0"/><stop offset="1" stop-color="#faed14"/></linearGradient><linearGradient id="linear-gradient-4" x1="602.13" y1="190.27" x2="615.91" y2="277.01" gradientTransform="matrix(-1, 0, 0, 1, 1108.83, 0)" xlink:href="#linear-gradient"/><linearGradient id="linear-gradient-5" x1="578.99" y1="170.95" x2="624.62" y2="264.44" gradientTransform="matrix(-1, 0, 0, 1, 1108.83, 0)" xlink:href="#linear-gradient"/><linearGradient id="linear-gradient-6" x1="595.96" y1="196.69" x2="615.65" y2="263.8" gradientTransform="matrix(-1, 0, 0, 1, 1108.83, 0)" xlink:href="#linear-gradient-2"/><linearGradient id="linear-gradient-7" x1="397.21" y1="123.34" x2="423.11" y2="286.46" xlink:href="#linear-gradient"/><linearGradient id="linear-gradient-8" x1="412.61" y1="85.19" x2="412.61" y2="266.18" xlink:href="#linear-gradient"/><linearGradient id="linear-gradient-9" x1="413.23" y1="115.1" x2="413.23" y2="259.69" xlink:href="#linear-gradient-2"/><linearGradient id="linear-gradient-10" x1="312.93" y1="204.34" x2="326.06" y2="287" gradientTransform="translate(83.95 -77.21) rotate(14.54)" xlink:href="#linear-gradient"/><linearGradient id="linear-gradient-11" x1="293.97" y1="197.07" x2="332.64" y2="276.29" gradientTransform="translate(83.95 -77.21) rotate(14.54)" xlink:href="#linear-gradient"/><linearGradient id="linear-gradient-12" x1="309.05" y1="211.86" x2="328.06" y2="276.67" gradientTransform="translate(83.95 -77.21) rotate(14.54)" xlink:href="#linear-gradient-2"/><linearGradient id="linear-gradient-13" x1="421.32" y1="291.99" x2="421.32" y2="201.19" xlink:href="#linear-gradient"/><linearGradient id="linear-gradient-14" x1="402.34" y1="180.38" x2="402.34" y2="254.79" gradientUnits="userSpaceOnUse"><stop offset="0.27" stop-color="#f6b429"/><stop offset="0.4" stop-color="#ed782c"/><stop offset="0.6" stop-color="#ed3326"/><stop offset="1" stop-color="#be242e"/></linearGradient><linearGradient id="linear-gradient-15" x1="350.38" y1="246.08" x2="387.62" y2="188.04" gradientUnits="userSpaceOnUse"><stop offset="0" stop-color="#be242e"/><stop offset="0.4" stop-color="#ed3326"/><stop offset="0.6" stop-color="#ed782c"/><stop offset="0.73" stop-color="#f6b429"/></linearGradient><linearGradient id="linear-gradient-16" x1="409.26" y1="176.48" x2="474.56" y2="253.58" gradientUnits="userSpaceOnUse"><stop offset="0.27" stop-color="#f6b429"/><stop offset="0.4" stop-color="#ed782c"/><stop offset="0.6" stop-color="#ed3326"/><stop offset="0.98" stop-color="#be242e"/></linearGradient></defs><g class="cls-1"><g id="Layer_1" data-name="Layer 1"><path class="cls-2" d="M503.15,505.38s2.87-7.82,4.44-9.13,9.65-13.56,9.65-13.56L508.89,479l-23,.26,12.53,16.95Z"/><path class="cls-3" d="M532.28,445.77c-4.35,0-7.41-1.1-9.35-3.37-3.16-3.7-3.85-10.86-2-20.71,3.11-16.5,15.52-32.88,16.33-33.94,3.15-3.75,9.82-11.69,10.31-12.15,0,0,2.64-3.26,3.13-3.72,0,0,15.68-10.31,22.48-10.31a18.32,18.32,0,0,1,10.07,3.26c11,7.08,20.78,27.44,24,43,3,14.58,1.67,24.07-4,29l-.22.19-.19.21a13,13,0,0,1-1.13,1.09l-.22.2-.19.21c-.35.37-.73.74-1.13,1.1l-.22.19-.19.21a14.07,14.07,0,0,1-1.62,1.53c-.75.6-1.11.6-1.23.6h0c-1.12,0-3.39-1.4-5.38-2.64-4.08-2.52-9.65-6-17.18-6l-1.31,0c-4.88.26-8.55,2.35-12.44,4.56C554.79,441.69,547.63,445.77,532.28,445.77Z"/><path class="cls-4" d="M556.32,294.23l-3-3-21.86,21.85a2.59,2.59,0,0,0-.32-.44l-24.35-24.34,21.92-21.92-3-2.95L503.89,285.4,442.45,224a2.09,2.09,0,0,0-3,3l61.45,61.44-24.73,24.73-24.86-24.87,16.47-16.47a2.09,2.09,0,1,0-2.95-3l-16.48,16.48L421.11,258a2.09,2.09,0,0,0-2.95,2.95l27.28,27.28-24.87,24.87-24.86-24.86,16.48-16.48a2.09,2.09,0,1,0-2.95-3l-16.48,16.48-25.62-25.62,14.6-14.6a2.09,2.09,0,0,0-3-2.95l-15.36,15.36a2.13,2.13,0,0,0-.9.53,2,2,0,0,0-.52.9L336.37,284.5,309.85,258a2.09,2.09,0,0,0-3,2.95l26.53,26.52-23.6,23.6-21-21-3,3,21,21a2.08,2.08,0,0,0,2.93,2.93l.15.15,3-3-.14-.13,23.6-23.6,26.69,26.69a2.12,2.12,0,0,0,1.48.61,2.06,2.06,0,0,0,.84-.19l.15,0a2.11,2.11,0,0,0,1.47-.61l25.76-25.76L418.57,317a2,2,0,0,0,2,.52,1.81,1.81,0,0,0,.51.08,2.08,2.08,0,0,0,1.48-.62l25.8-25.8,25.41,25.41a2.08,2.08,0,0,0,3.41-.7l1.06,1.06,25.62-25.63,24.34,24.34a2.08,2.08,0,0,0,3,0,2,2,0,0,0,.48-.78l2,2ZM365,313.08l-25.62-25.63,24.86-24.86,25.62,25.63Z"/><polygon class="cls-4" points="582.71 313.77 499.75 230.32 499.75 245 573.28 318.54 582.46 318.54 582.71 313.77"/><path class="cls-5" d="M468.79,177.66c-3.61,39-35.38,23.83-40.43,52.71-26-41.16,13.72-53.43-6.5-95.31,5.05,26-50.37,46.63-23.11,101.09-13,1.44-41.88-14.44-42.6-44.05a114.23,114.23,0,0,0-2.71,13c1.53,2.58,3,5.18,4.43,7.84L353.34,215c-.24-.57-.5-1.14-.75-1.71-2.24,38.77,21.92,64,61.33,64C475.88,277.3,478.18,223.15,468.79,177.66Z"/><polygon class="cls-4" points="258.45 313.77 313.27 258.46 313.27 273.14 267.87 318.54 258.69 318.54 258.45 313.77"/><ellipse class="cls-6" cx="415.32" cy="263.6" rx="103.76" ry="40.38"/><path class="cls-7" d="M522.42,198.93c5.12,21.76.11,28-10.24,36.47,18.56-27.52-15.35-41,18.56-73.59-64,9.6-87,104.49-45.4,112C527.54,281.48,547.38,246.92,522.42,198.93Z"/><path class="cls-8" d="M526.1,230.56c-8.93,7.15-12.51,15.19-24.12,14.3,16-33.78-12.83-38.25,12.12-74.09-35.19,18.56-61.59,82.37-32.63,98.55C503.22,281.48,524.31,268.09,526.1,230.56Z"/><path class="cls-9" d="M479.64,262.73c12.12,12.13,38.31,4.48,42.78-19.65-8.32,12.16-21.34,12.5-29.38,8.93,5.89-13,7.15-14.3,3.57-51.83C492.14,225.2,462.66,245.75,479.64,262.73Z"/><path class="cls-10" d="M365.52,123.89c-8.64,32.4,4.67,38.24,5,60-1.37-62.85,57-66.45,17.36-119.74,47.52,25.93,67,67,54,115.21,18.72-12.24,23.76-45.36,5-79.92C485,128.93,527.07,282.85,417.36,282.3,345.71,281.94,298.55,226.86,365.52,123.89Z"/><path class="cls-11" d="M356.15,167.09c-1.44,22,12.81,42.66,27.37,55.45-20.89-56.89,43.41-84.31,25.92-126.73,29.52,24.48,28.08,81.36,15.84,113.77,11.52-28.81,43.68-12.73,40.32-58.33,17.77,49.45,26.15,128.17-48.24,128.17C352.55,279.42,334.55,229,356.15,167.09Z"/><path class="cls-12" d="M356.88,192.29c.71,29.53,29.52,45.37,42.48,43.93-27.19-54.31,28.08-74.89,23-100.81,20.16,41.76-19.44,54,6.48,95.05,5-28.81,36.72-13.68,40.32-52.57,9.36,45.37,7.07,99.37-54.72,99.37C368.4,277.26,343.19,242.7,356.88,192.29Z"/><path class="cls-13" d="M313.6,201.75c-6.16,22.62-2.57,31.73,6.78,41.59-9.23-29.1,23.24-30.78,2.14-76,34.71,31,62,112.27,14.12,113.68C295.27,282.25,289.32,239.75,313.6,201.75Z"/><path class="cls-14" d="M307.14,233.33c6.41,8.58,7.76,16.71,18.5,18.62-3.15-34.5,12.79-26,10.07-62.17,16.79,28.54,39.76,85,.08,88.8C319.37,280.17,299.94,267.75,307.14,233.33Z"/><path class="cls-15" d="M341.75,275.66c-13.83,8.15-33.08-8.24-31.47-31.14,5.63,10.31,13.65,17.36,21.77,16-4.91-11.72-3.21-26.89,8.94-47.79C332.33,234.54,370.64,258.63,341.75,275.66Z"/><path class="cls-16" d="M500.74,251.25c-.73-4.05-3.47-12.64-16.82-23.08-14.1-11-31.45-16.67-54.23-22.85-35-9.49-60.52-1.3-72.6,11-7.7,7.86-15.42,17-15.42,35.68,0,0-.69,9.78.26,15.59.62,3.74,4.13,15.81,18.76,20.24s39.89,5.22,53.88,2.69,31.16-7.59,52.79-6,31-5.39,32.29-10C501.36,268.46,501.58,255.87,500.74,251.25Z"/><path class="cls-17" d="M440.8,285.75c.42-4.72,1.4-16,1.4-19.94,0-5-.72-11-3.83-14.81s-3.34-7.4-6.68-4.06-4.78,5.74-6.69,6.21-5.26-.24-8.6,1.91-3.34,3.35-1,6.21,6,3.35,6.69,9.08c.66,5.25.38,14.86.33,18.82C428.08,288,434.17,286.71,440.8,285.75Z"/><path class="cls-18" d="M381.16,212.19c-5.58,7.8-7,22.59.37,28.81s15.79,12.42,22.24,7.17c0,0-1.39,4.26-4.26,5,0,0,9.92,4.23,13.74-.24,2.42-2.84,6.26-3.34,9.36-4.77s6.21-3.11,5.49-6.45-1.43-4.78-1.67-7.41-3.1-4.77-7.64-6.68-6,3.58-12.18,4.53a29.21,29.21,0,0,0,7.4-8.6c2.87-5.25,2.39-5.73,4.3-7.64s4.53-8.11,2.16-13.12a99.23,99.23,0,0,0-26.37-1.55A37.77,37.77,0,0,0,381.16,212.19Z"/><path class="cls-17" d="M414.89,272.36c0-3-1.12-7.26-4.22-9.18s-6.21-1.91-11.47-2.86a25.62,25.62,0,0,1-11.94-6c-2.87-2.39-5.25-7.41-6.93-6.21s-3.1,3.1-3.1,9.07-1.2,8.84.95,12.18a15.11,15.11,0,0,1,2.87,9.08c0,2.66-.1,10-.14,13,12.16,1.09,25.27.81,34-.76C414.92,286.75,414.89,274.84,414.89,272.36Z"/><path class="cls-19" d="M349,256.26c3.83-2.15,8.12-8.6,8.84-12.18a18.09,18.09,0,0,0-.72-7.89s5.26,6.93,9.32,5.5,4.3-6.45,4.54-11.47a34.68,34.68,0,0,1,4.54-15c2.29-3.68,4.22-11,4.36-11.52-10.11,2.78-18,7.42-23.23,12.78-7.7,7.9-15,16.57-15,35.32,0,0,0,.18,0,.48C342.54,253.6,345.78,258.09,349,256.26Z"/><path class="cls-17" d="M476.35,266.05c-.48-3.34-3.1-8.12-6.69-11s-4.29-1.19-9.55-2.62-10.51-4.06-12.18-4.06-4.78-.72-3.11,2.86,3.59,4.3,3.35,13.62c-.19,7.15.1,16.17.24,20a116.23,116.23,0,0,1,19.4-.23q4.13.3,7.66.21C475.81,280.76,476.75,268.82,476.35,266.05Z"/><path class="cls-17" d="M373.65,272.26c0-2.87-1.68-3.82-1.44-9.31s3.11-13.86-1.43-14.81-6.69-1.2-9.79,2.86-7.17,7.65-7.41,14.57c-.21,6.17,1.43,14.48,1.8,19.94a29.87,29.87,0,0,0,5.76,2.44,85.15,85.15,0,0,0,12,2.56C373.28,286.71,373.65,274.67,373.65,272.26Z"/><path class="cls-20" d="M422.46,289.16c5.62-1.17,11.71-2.46,18.34-3.41.38-4.26,1.21-13.88,1.37-18.6-7.27,1-13.9,2.41-20,3.67C422.77,276.15,422.51,285.29,422.46,289.16Z"/><path class="cls-21" d="M344.08,255.12a24.42,24.42,0,0,1-1.86-5.86c-.17-1.08-.31-2.31-.41-3.59-.19,1.93-.3,4-.3,6.17V252A15.68,15.68,0,0,0,344.08,255.12Z"/><path class="cls-21" d="M501.24,255.44c-.09-1.44-.21-2.72-.36-3.71a32.71,32.71,0,0,1-.83,4.51,7.59,7.59,0,0,1-.41,1A7.66,7.66,0,0,0,501.24,255.44Z"/><path class="cls-20" d="M373.65,272.26s0,0,0-.05A86.29,86.29,0,0,1,361,269.56a29.19,29.19,0,0,1-7.43-3.41c-.1,6.14,1.47,14.17,1.81,19.46A30.52,30.52,0,0,0,361,288a86.6,86.6,0,0,0,12.16,2.58C373.28,286.76,373.65,274.67,373.65,272.26Z"/><path class="cls-20" d="M476.39,266.41a80.7,80.7,0,0,1-8.66-.18,118.44,118.44,0,0,0-19.59.24c-.11,6.85.14,14.85.27,18.37a116.46,116.46,0,0,1,19.32-.21c2.78.2,5.36.26,7.74.2C475.8,280.93,476.68,269.69,476.39,266.41Z"/><path class="cls-20" d="M414.89,272.36s0-.07,0-.1c-8.92,1.61-22.41,1.87-34.81.7a14.09,14.09,0,0,1,1,5.51c0,2.66-.1,10.06-.14,13,12.18,1.08,25.28.79,34-.79h0C414.92,286.72,414.89,274.84,414.89,272.36Z"/><path class="cls-22" d="M483.76,249.09c-5.26-2.63-9.56-2.86-13.86-6.45s-12.42-4.77-12.42-4.77,6.21-1.68,9.08-1,6.69-.95,2.87-3.1-5.5-7.17-5.5-11.23c0,0,3.11,6.93,6.93,7.88,3.18.8,6.4-4,7.8-5.37h0s.22-.22.48-.45c-13.12-8.73-29-14.19-49-19.63-1.89-.52-3.75-1-5.59-1.38.07.4,1.1,6.23-.75,11.08-1.91,5-4.06,7.64-2.14,9.07s7.88.72,10.27,2.39,5.25,1.44,7.88,1.44,4.54,3.34,4.54,3.34a10.85,10.85,0,0,0-8.36-1c-4.54,1.44-5.26,6.45-3.83,7.89s6.69,5.49,12.19,5,11,2.39,15.28,4.3,7.17.48,9.8,3.35,5.49,7.4,10.27,10.27,10.27,1.43,11-1.68S489,251.72,483.76,249.09Z"/><path class="cls-17" d="M490.92,234.15a72.38,72.38,0,0,0-6.4-5.63l-.65-.49-.21.14c-1.16.87-8.3,6.35-8.74,9-.48,2.87,2.87,3.82,6.21,2.63s6.2-5.18,9.78-5.63Z"/><path class="cls-17" d="M500.85,251.16c-.55-3-2-8.34-8.22-15.22h0s-4.31,1.92-4.31,4.54.71,4.3,3.82,7.17,4.3,4.3,4.06,7.64,2.67,3.87,5.11.07A37.83,37.83,0,0,0,500.85,251.16Z"/><rect class="cls-4" x="257.71" y="312.79" width="326.46" height="12.73" rx="2.93"/><path class="cls-4" d="M202.87,453.11a46.27,46.27,0,0,1,0-92.53s19.22.22,32.75,13.75l-13.06,13.06a27,27,0,0,0-19.63-8.14,26.45,26.45,0,0,0-19.57,8.14,27.73,27.73,0,0,0,0,39.25,27.78,27.78,0,0,0,39.25-.06l13.07,13.07A46.1,46.1,0,0,1,202.87,453.11Z"/><path class="cls-4" d="M270,361.32V397.8h30.48V361.32h18.27v91.17H300.51V416H270v36.54H251.76V361.32Z"/><path class="cls-4" d="M335.23,361.32h18.32v91.17H335.23Z"/><path class="cls-4" d="M388.13,361.32v72.95h36.65v18.22h-55V361.32Z"/><path class="cls-4" d="M459.13,361.32v72.95h36.65v18.22h-55V361.32Z"/><path class="cls-4" d="M655.94,434.54c5.06,0,10.64-4.2,10.64-9.26,0-8.33-11.17-9.49-17.47-11.67-11.12-3.79-20.93-12.92-20.93-25.33a27.81,27.81,0,0,1,55.35-3.84l-18.19,3.84a9.25,9.25,0,0,0-18.5.05c0,8.22,10.4,10.4,16.73,12.28,11.5,3.32,21.65,12.08,21.65,24.78,0,15.37-13.8,27.79-29.14,27.79-14.11,0-26.85-10.35-28.93-23.92l18.2-3.87c0,5.08,5.53,9.23,10.67,9.23Z"/><path class="cls-4" d="M609.87,409.2c-3.38-17-13.51-38.29-25.49-46.23-10.39-6.89-22.62-6.17-39.11,10.63q-.74.72-1.5,1.5t-1.5,1.5A123.11,123.11,0,0,0,532.88,387s-13.51,17.7-16.89,36.12,1.12,30,16,30c25.8,0,30.3-11.4,39.93-11.92,13.52-.72,19.35,13.37,27.34,6.86a18.39,18.39,0,0,0,2.15-2.08,19.3,19.3,0,0,0,1.5-1.5q.79-.72,1.5-1.5C611.41,436.65,613.15,425.66,609.87,409.2Zm-75.43-14.09a171.52,171.52,0,0,1,14.29-19.05c14.43-13.58,24.54-14.74,32.94-10.47s15.5,15.7,17.87,24.82,1,15.11-4.31,18.42c-5.59,3.49-9.68-4.07-19.16-3.68-6.75.28-9.9,6.4-28,6.4C537.67,411.55,529.18,403.59,534.44,395.11ZM554.72,441c-5,3.39-15.92,4.1-23.8,2.32s-8.79-12.3-7.73-19.6,1.58-10.71,4.4-12.3c2-1.16,5.91.71,5.91.71,3.18,1.6,8.79,5.88,15,5.7a43,43,0,0,0,21.07-6.59c6.52-4.28,10.76-.54,11.21,2s-.45,3.74-8.63,7.31S559.72,437.63,554.72,441Zm52.43-18.14c-.15,6.42-2.65,12.84-6.4,15s-8.89-1.47-12.63-3.67-8.12-4.22-12.8-2-9.21,2.57-7.64-3.12,8.73-7.89,8.73-7.89c11.39-1.83,6.09-9.54,16.54-7.33,4.82,1,5.31-5.51,10.3-5C605.91,409.21,607.31,416.44,607.15,422.87Z"/><path class="cls-4" d="M580.7,378.11c-1.76-6.6-12.58-6-17.67-1.5s-4.49,13.78,2.4,15.57S584.29,391.58,580.7,378.11Z"/><path class="cls-4" d="M186.05,511.6l25.69-35.25v53.71H201.19V508.32l-15.14,20.9-15.17-20.9v21.74H160.34V476.35Z"/><path class="cls-4" d="M249.89,477.46V488h-21.1v10.58h15.82v10.52H228.79v10.57h21.1v10.49H218.24V477.46Z"/><path class="cls-4" d="M280,476.51l24,53.55H292.55l-3.55-8H271l-3.54,8h-11.4Zm4.82,36.27-4.79-11.1-4.85,11.1Z"/><path class="cls-4" d="M334.83,477.59V488H321.94v42H311.36V488H298.44V477.59Z"/><path class="cls-4" d="M390.9,477.46v42.1h21.15v10.51H380.32V477.46Z"/><path class="cls-4" d="M464.17,484.9A26.57,26.57,0,1,1,445.3,477,25.8,25.8,0,0,1,464.17,484.9ZM434,492.41a16,16,0,0,0,22.61,22.65A16,16,0,1,0,434,492.41Z"/><path class="cls-4" d="M572.9,506.54V477.33h10.61v53.82l-31.73-30.22v29.21H541.21V476.35Z"/><path class="cls-4" d="M617,477.13a26.87,26.87,0,0,1,18.9,7.8l-7.54,7.54a15.57,15.57,0,0,0-11.29-4.73,16,16,0,0,0,0,32.09,16,16,0,0,0,14.43-9.21h-15V500.54h27c.75,9.83-2.48,17-7.67,22.13a25.85,25.85,0,0,1-18.87,7.8A26.68,26.68,0,0,1,590.3,503.8a25.91,25.91,0,0,1,7.83-18.9A25.5,25.5,0,0,1,617,477Z"/><path class="cls-4" d="M681.55,477.33v10.54H660.4v10.61h15.87V509H660.4v10.61h21.15v10.51H649.83V477.33Z"/><path class="cls-4" d="M523.71,479.8l2.46-3.21H480l2.47,3.21c.12.16,12.23,15.95,14,18.69,1.57,2.42,2.22,4.83,2.22,13.48,0,6.33-1.15,8.1-1.34,8.35-1.79,1.23-6.57,4.46-7.71,5.08l-6.91,3.76h40.74l-6.91-3.76c-1-.55-5.16-3.33-7.72-5.08-.19-.25-1.34-2-1.34-8.35,0-8.66.66-11.06,2.22-13.48C511.48,495.75,523.59,480,523.71,479.8ZM505.3,496.51a15.08,15.08,0,0,0-2.22,5.62,15.08,15.08,0,0,0-2.22-5.62c-1.11-1.72-11.16-15.13-11.16-15.13a39.56,39.56,0,0,0,5,.1c.53,0,.84,0,.84,0,3.64-.12,7.37-.27,11.12,1,2.77,1,5.2,2.08,7.29,2.43C514,484.92,506.11,495.26,505.3,496.51Z"/><g class="cls-23"><path class="cls-4" d="M503.33,20.24C350.75-22,209.53,57.81,155.44,183.86c-18.54,35.66-23.29,97.46-23.29,97.46s23.64-52.78,71.4-100.24c7.81-7.75,30.23-34.62,65.45-47.26l.06.36a121,121,0,0,0,4.77,17.17,75.09,75.09,0,0,0,8,15.52,71.85,71.85,0,0,1-2.34-16.63,112.35,112.35,0,0,1,1.11-16.45c.67-4.49,1.56-8.92,2.63-13.29,5.34-12.58,16.14-33.79,32.18-45.34,23.77-17.11,35.42-18.06,41.36-12.83s7.13,23.29,5.7,39.21a157.84,157.84,0,0,1-2.58,17.37c-1.22,4.63-2.65,9.22-4.33,13.74a113.58,113.58,0,0,1-7,14.94A72.43,72.43,0,0,1,338.51,161,75.63,75.63,0,0,0,353,151.3a122,122,0,0,0,12.46-12.74c2.13-2.55,4.16-5.18,6.13-7.87,8.92.32,20.18,1.41,28.67,4.61,16.4,6.18,31.61,12.59,57,33,0,0-5-6.85-9.89-13.35-5.2-6.87-5.32-14.93-2.23-22.3s21.39-41.12,55.86-41.83c0,0,10,8.08,7.84,27.81s-8.32,33.27-15,42.54c-2.83,3.94-6.3,8.52-9.36,12.49A13.11,13.11,0,0,0,486,191.22c8,7.59,22.35,20.85,26.41,31.74,0,0-4.2,20.72-22.27,45.2S453,301,453,301s40.48-4.61,66.08-37.56c25-32.17,54.15-65.13,51.82-150.22,0,0,18.69,23.14,18.06,86.2s-6,82.4-6.65,91.28,5.07,18.38,3.48,33.91c-1.14,11.16-2.44,26.43-3.08,34.12a10.08,10.08,0,0,0,3.14,8.19l12.48,11.73a20.11,20.11,0,0,1,4.7,22.61l-20.95,48.68a27.82,27.82,0,0,1-16.93,15.46c-21.69,7.05-69.61,20.52-119.44,20.52-67.5,0-99.83-17.75-123.28-34.23,0,0,19,26.3,76.38,43.1,21.63,6.34,48.68,9.43,74,10.82,24.45,1.34,29.38,35.32,6.28,43.49a173.62,173.62,0,0,1-50.15,10c-71.31,3.16-107.76-.64-177.79-39.3-26.51-14.64-48.11-34.54-64.73-53.62A288.42,288.42,0,0,0,421,586.43c184.83,0,329.1-173.64,278.6-366.69C674.3,123.21,599.5,46.87,503.33,20.24Z"/><path class="cls-4" d="M517.9,424.36s20-28.09-5.33-34.38c-20.28-5-57.23,33.28-57.23,33.28S512,393.15,517.9,424.36Z"/><path class="cls-4" d="M322.51,287.39s-3.69,23.39,7.39,33.24,33.24,6.16,39.4,1.23C369.3,321.86,339.82,317.87,322.51,287.39Z"/></g></g></g></svg>