<svg id="Layer_1" data-name="Layer 1" xmlns="http://www.w3.org/2000/svg" viewBox="0 0 841.89 595.28"><defs><style>.cls-1{opacity:0.05;}.cls-2{fill:#010101;}</style></defs><g class="cls-1"><path class="cls-2" d="M503.33,20.24C350.75-22,209.53,57.81,155.44,183.86c-18.54,35.66-23.29,97.46-23.29,97.46s23.64-52.78,71.4-100.24c7.81-7.75,30.23-34.62,65.45-47.26l.06.36a121,121,0,0,0,4.77,17.17,75.09,75.09,0,0,0,8,15.52,71.85,71.85,0,0,1-2.34-16.63,112.35,112.35,0,0,1,1.11-16.45c.67-4.49,1.56-8.92,2.63-13.29,5.34-12.58,16.14-33.79,32.18-45.34,23.77-17.11,35.42-18.06,41.36-12.83s7.13,23.29,5.7,39.21a157.84,157.84,0,0,1-2.58,17.37c-1.22,4.63-2.65,9.22-4.33,13.74a113.58,113.58,0,0,1-7,14.94A72.43,72.43,0,0,1,338.51,161,75.63,75.63,0,0,0,353,151.3a122,122,0,0,0,12.46-12.74c2.13-2.55,4.16-5.18,6.13-7.87,8.92.32,20.18,1.41,28.67,4.61,16.4,6.18,31.61,12.59,57,33,0,0-5-6.85-9.89-13.35-5.2-6.87-5.32-14.93-2.23-22.3s21.39-41.12,55.86-41.83c0,0,10,8.08,7.84,27.81s-8.32,33.27-15,42.54c-2.83,3.94-6.3,8.52-9.36,12.49A13.11,13.11,0,0,0,486,191.22c8,7.59,22.35,20.85,26.41,31.74,0,0-4.2,20.72-22.27,45.2S453,301,453,301s40.48-4.61,66.08-37.56c25-32.17,54.15-65.13,51.82-150.22,0,0,18.69,23.14,18.06,86.2s-6,82.4-6.65,91.28,5.07,18.38,3.48,33.91c-1.14,11.16-2.44,26.43-3.08,34.12a10.08,10.08,0,0,0,3.14,8.19l12.48,11.73a20.11,20.11,0,0,1,4.7,22.61l-20.95,48.68a27.82,27.82,0,0,1-16.93,15.46c-21.69,7.05-69.61,20.52-119.44,20.52-67.5,0-99.83-17.75-123.28-34.23,0,0,19,26.3,76.38,43.1,21.63,6.34,48.68,9.43,74,10.82,24.45,1.34,29.38,35.32,6.28,43.49a173.62,173.62,0,0,1-50.15,10c-71.31,3.16-107.76-.64-177.79-39.3-26.51-14.64-48.11-34.54-64.73-53.62A288.42,288.42,0,0,0,421,586.43c184.83,0,329.1-173.64,278.6-366.69C674.3,123.21,599.5,46.87,503.33,20.24Z"/><path class="cls-2" d="M517.9,424.36s20-28.09-5.33-34.38c-20.28-5-57.23,33.28-57.23,33.28S512,393.15,517.9,424.36Z"/><path class="cls-2" d="M322.51,287.39s-3.69,23.39,7.39,33.24,33.24,6.16,39.4,1.23C369.3,321.86,339.82,317.87,322.51,287.39Z"/></g><path class="cls-2" d="M493.79,233l0,0Z"/><path class="cls-2" d="M582,313.1l-49.19-49.48a38,38,0,0,1-6.69,7.8l23.29,23.29L531.52,312.6a1.58,1.58,0,0,0-.12-.15l-24.08-24.09L519.67,276a42.75,42.75,0,0,1-11.3,4.41L476.2,312.58,456,292.42c-2.24.05-4.44.15-6.58.32l20.05,20.05H427.26L447.09,293c-2.7.27-5.34.6-7.89,1l-18.63,18.62-13-13c-2.05.19-4.22.33-6.48.42l12.8,12.79H371.65l12.94-12.94c-2.17-.12-4.31-.29-6.4-.49L365,312.58l-24.9-24.9H340c-1.28.14-2.46.23-3.61.26l-1.93,0c-.66,0-1.32,0-2-.05l-22.64,22.63-17-17,14.07-14.07a35.66,35.66,0,0,1-7.16-7.4l-41.29,41.66,0,.42a3.56,3.56,0,0,0-.76,2.18v5.57a3.57,3.57,0,0,0,3.58,3.57H580.55a3.57,3.57,0,0,0,3.58-3.57v-5.57A3.59,3.59,0,0,0,582,313.1Zm-14.51-.31H538.22l14.64-14.63Zm-63.62-21,21,21h-42Zm-167.47-.9,21.88,21.88H314.52Zm-31.21,21.88H273.66L289.43,297Z"/><path class="cls-2" d="M440,285.8c.43-4.71,1.4-16,1.4-19.93,0-5-.71-11-3.82-14.8s-3.34-7.41-6.68-4.06-4.78,5.73-6.69,6.21-5.25-.24-8.6,1.91-3.34,3.34-.95,6.2,6,3.35,6.69,9.08c.65,5.25.37,14.85.32,18.82C427.31,288.06,433.4,286.76,440,285.8Z"/><path class="cls-2" d="M380.4,212.26c-5.57,7.8-7,22.59.37,28.8s15.79,12.42,22.24,7.17c0,0-1.39,4.27-4.26,5,0,0,9.91,4.23,13.73-.24,2.43-2.84,6.26-3.34,9.36-4.77s6.21-3.1,5.49-6.45-1.43-4.77-1.67-7.4-3.1-4.77-7.64-6.68-6,3.58-12.18,4.53a29.36,29.36,0,0,0,7.41-8.59c2.86-5.26,2.38-5.74,4.29-7.65s4.53-8.1,2.16-13.11a99.59,99.59,0,0,0-26.36-1.56A38,38,0,0,0,380.4,212.26Z"/><path class="cls-2" d="M414.12,272.42c0-3-1.11-7.27-4.22-9.18s-6.21-1.91-11.46-2.86a25.62,25.62,0,0,1-11.94-6c-2.86-2.39-5.25-7.4-6.92-6.21s-3.11,3.11-3.11,9.07-1.19,8.84,1,12.18a15.08,15.08,0,0,1,2.86,9.08c0,2.66-.1,10-.14,13,12.16,1.09,25.26.81,34-.76C414.15,286.81,414.12,274.9,414.12,272.42Z"/><path class="cls-2" d="M348.3,256.32c3.82-2.15,8.11-8.6,8.83-12.18s-.72-7.88-.72-7.88,5.26,6.93,9.32,5.49,4.3-6.44,4.53-11.46a34.68,34.68,0,0,1,4.54-15c2.3-3.68,4.22-10.95,4.37-11.51-10.11,2.78-18,7.42-23.23,12.77-7.7,7.9-15,16.56-15,35.31,0,0,0,.18,0,.49C341.79,253.66,345,258.16,348.3,256.32Z"/><path class="cls-2" d="M475.57,266.11c-.48-3.34-3.1-8.12-6.69-11s-4.29-1.2-9.55-2.63-10.5-4.06-12.18-4.06-4.77-.72-3.1,2.87,3.58,4.29,3.34,13.61c-.18,7.15.11,16.16.25,20a117.23,117.23,0,0,1,19.39-.22c2.75.2,5.3.26,7.66.21C475,280.82,476,268.87,475.57,266.11Z"/><path class="cls-2" d="M372.89,272.32c0-2.87-1.67-3.82-1.43-9.31s3.1-13.85-1.43-14.81-6.69-1.19-9.79,2.87-7.17,7.64-7.41,14.56c-.21,6.17,1.43,14.47,1.8,19.93a29.87,29.87,0,0,0,5.76,2.44,85.15,85.15,0,0,0,12,2.56C372.53,286.76,372.89,274.73,372.89,272.32Z"/><path class="cls-2" d="M483,249.16c-5.25-2.63-9.55-2.87-13.85-6.45s-12.41-4.78-12.41-4.78,6.2-1.67,9.07-1,6.69-1,2.86-3.11-5.49-7.16-5.49-11.22c0,0,3.11,6.93,6.93,7.88,3.18.8,6.39-4,7.79-5.37h0s.21-.22.47-.45c-13.11-8.72-29-14.18-49-19.62-1.89-.52-3.75-1-5.59-1.38.07.39,1.1,6.23-.74,11.07-1.91,5-4.06,7.64-2.15,9.07s7.88.72,10.27,2.39,5.25,1.44,7.88,1.44,4.53,3.34,4.53,3.34a10.83,10.83,0,0,0-8.36-1c-4.53,1.44-5.25,6.45-3.82,7.88s6.69,5.5,12.18,5,11,2.39,15.28,4.3,7.17.47,9.79,3.34,5.5,7.4,10.27,10.27,10.27,1.43,11-1.67S488.23,251.78,483,249.16Z"/><path class="cls-2" d="M490.13,234.22a69.45,69.45,0,0,0-6.4-5.63c-.21-.17-.43-.33-.65-.49l-.2.13c-1.16.88-8.3,6.35-8.74,9-.48,2.86,2.86,3.82,6.21,2.62s6.19-5.17,9.78-5.62Z"/><path class="cls-2" d="M500.06,251.22c-.54-3-1.95-8.34-8.22-15.21h0s-4.32,1.92-4.32,4.55.72,4.3,3.82,7.16,4.3,4.3,4.06,7.64,2.67,3.87,5.11.07A37.83,37.83,0,0,0,500.06,251.22Z"/><path class="cls-2" d="M522.09,198.89c5.12,21.75.1,28-10.24,36.46,18.55-27.51-15.35-40.94,18.55-73.57C512,164.54,497,174.36,486,187.11c-5-37.48-22.55-74.7-39.38-87.71,18.72,34.55,13.68,67.66-5,79.9,13-48.23-6.48-89.26-54-115.18,39.59,53.27-18.72,56.87-17.35,119.71-.29-21.73-13.6-27.56-5-60-14.49,22.28-23.63,42.31-28.34,60a104.2,104.2,0,0,0-14.65-16.59c21.1,45.2-11.36,46.88-2.14,76-9.34-9.86-12.93-19-6.77-41.58-24.28,38-18.33,80.48,23,79.26,1.05,0,2.06-.11,3.05-.22a33.15,33.15,0,0,1-2.33-4.19,60.2,60.2,0,0,1-2.54-6.77s-11.9-1.15-18.44-16.57c4.7,5.21,10.16,8.17,15.67,7.25,0,0-.17-7,.47-14.65s2.94-11,2.94-11a22.47,22.47,0,0,1,.32-15.34c2.63-6.51,3.5-15.26,1.27-22.58,2.07,2.71,4.77,7,5.09,14.95.25,6.44-.11,11.49-.11,11.49a67.45,67.45,0,0,1,8.87-11.12c-.75-4.07-3.94-24.66,3.32-46.16,0,0,.64,9.86,3.82,15.74a65.92,65.92,0,0,1,6.14,20.4,70.21,70.21,0,0,1,21.44-7l.56-.09c4.11-52.52,33.46-42.53,32.27-76.4,13.25,26.71,8.1,54.2-2.32,76.47,2.14.32,4.15.68,4.15.68q5.4,1,10.92,2.48c8.05,2.19,15.75,4.38,23.07,6.9,7.18-4.53,13.41-11.38,14.89-27.38A182.73,182.73,0,0,1,473,213.2a95.22,95.22,0,0,1,11.47,6.93c5.86-6.36,10.62-13,11.87-20,1.56,16.41,2.19,25.88,1.92,32.44q7.13,8.46,8.73,17.27a34.72,34.72,0,0,1,.39,3.53A24,24,0,0,0,522.09,243c-1.43,7.68-7.12,13.74-14.61,18.07a79.36,79.36,0,0,1-1.2,12.68C533.07,267.93,542.35,237.85,522.09,198.89Z"/><path class="cls-2" d="M497.53,277c.12-.15.22-.3.32-.45s.19-.25.27-.37.19-.35.28-.52.11-.2.15-.29a5.79,5.79,0,0,0,.29-.78c.1-.34.19-.72.27-1.1,0-.12.05-.24.08-.35l.18-.91c0-.12,0-.24.07-.36.07-.43.14-.86.21-1.31a.28.28,0,0,1,0-.09c.06-.42.11-.86.17-1.31,0-.15,0-.3.05-.45,0-.35.07-.7.11-1.05,0-.15,0-.3,0-.46.05-.48.09-1,.12-1.46,0-.07,0-.15,0-.23,0-.42.06-.85.08-1.28l0-.54c0-.3,0-.6,0-.91-2.76,3.05-9.68,4.9-16.37,3.75-1.05-.18-1.92.88-2,1.94l-1.19,15.83,1.63-.25.82-.14,1.51-.31.76-.17c.48-.12.94-.24,1.39-.37l.69-.2,1.26-.4.64-.24c.39-.14.76-.29,1.12-.44s.4-.17.6-.26.67-.3,1-.46l.55-.29.85-.48c.18-.1.34-.21.51-.32l.73-.48c.16-.11.31-.23.46-.35s.42-.31.61-.47l.42-.38.48-.45c.14-.14.25-.28.38-.42S497.42,277.12,497.53,277Z"/><path class="cls-2" d="M202.87,453.11a46.27,46.27,0,0,1,0-92.53s19.22.22,32.75,13.75l-13.06,13.06a27,27,0,0,0-19.63-8.14,26.45,26.45,0,0,0-19.57,8.14,27.73,27.73,0,0,0,0,39.25,27.78,27.78,0,0,0,39.25-.06l13.07,13.07A46.1,46.1,0,0,1,202.87,453.11Z"/><path class="cls-2" d="M270,361.32V397.8h30.48V361.32h18.27v91.17H300.51V416H270v36.54H251.76V361.32Z"/><path class="cls-2" d="M335.23,361.32h18.32v91.17H335.23Z"/><path class="cls-2" d="M388.13,361.32v72.95h36.65v18.22h-55V361.32Z"/><path class="cls-2" d="M459.13,361.32v72.95h36.65v18.22h-55V361.32Z"/><path class="cls-2" d="M655.94,434.54c5.06,0,10.64-4.2,10.64-9.26,0-8.33-11.17-9.49-17.47-11.67-11.12-3.79-20.93-12.92-20.93-25.33a27.81,27.81,0,0,1,55.35-3.84l-18.19,3.84a9.25,9.25,0,0,0-18.5.05c0,8.22,10.4,10.4,16.73,12.28,11.5,3.32,21.65,12.08,21.65,24.78,0,15.37-13.8,27.79-29.14,27.79-14.11,0-26.85-10.35-28.93-23.92l18.2-3.87c0,5.08,5.53,9.23,10.67,9.23Z"/><path class="cls-2" d="M609.87,409.2c-3.38-17-13.51-38.29-25.49-46.23-10.39-6.89-22.62-6.17-39.11,10.63q-.74.72-1.5,1.5t-1.5,1.5A123.11,123.11,0,0,0,532.88,387s-13.51,17.7-16.89,36.12,1.12,30,16,30c25.8,0,30.3-11.4,39.93-11.92,13.52-.72,19.35,13.37,27.34,6.86a18.39,18.39,0,0,0,2.15-2.08,19.3,19.3,0,0,0,1.5-1.5q.79-.72,1.5-1.5C611.41,436.65,613.15,425.66,609.87,409.2Zm-75.43-14.09a171.52,171.52,0,0,1,14.29-19.05c14.43-13.58,24.54-14.74,32.94-10.47s15.5,15.7,17.87,24.82,1,15.11-4.31,18.42c-5.59,3.49-9.68-4.07-19.16-3.68-6.75.28-9.9,6.4-28,6.4C537.67,411.55,529.18,403.59,534.44,395.11ZM554.72,441c-5,3.39-15.92,4.1-23.8,2.32s-8.79-12.3-7.73-19.6,1.58-10.71,4.4-12.3c2-1.16,5.91.71,5.91.71,3.18,1.6,8.79,5.88,15,5.7a43,43,0,0,0,21.07-6.59c6.52-4.28,10.76-.54,11.21,2s-.45,3.74-8.63,7.31S559.72,437.63,554.72,441Zm52.43-18.14c-.15,6.42-2.65,12.84-6.4,15s-8.89-1.47-12.63-3.67-8.12-4.22-12.8-2-9.21,2.57-7.64-3.12,8.73-7.89,8.73-7.89c11.39-1.83,6.09-9.54,16.54-7.33,4.82,1,5.31-5.51,10.3-5C605.91,409.21,607.31,416.44,607.15,422.87Z"/><path class="cls-2" d="M580.7,378.11c-1.76-6.6-12.58-6-17.67-1.5s-4.49,13.78,2.4,15.57S584.29,391.58,580.7,378.11Z"/><path class="cls-2" d="M186.05,511.6l25.69-35.25v53.71H201.19V508.32l-15.14,20.9-15.17-20.9v21.74H160.34V476.35Z"/><path class="cls-2" d="M249.89,477.46V488h-21.1v10.58h15.82v10.52H228.79v10.57h21.1v10.49H218.24V477.46Z"/><path class="cls-2" d="M280,476.51l24,53.55H292.55l-3.55-8H271l-3.54,8h-11.4Zm4.82,36.27-4.79-11.1-4.85,11.1Z"/><path class="cls-2" d="M334.83,477.59V488H321.94v42H311.36V488H298.44V477.59Z"/><path class="cls-2" d="M390.9,477.46v42.1h21.15v10.51H380.32V477.46Z"/><path class="cls-2" d="M464.17,484.9A26.57,26.57,0,1,1,445.3,477,25.8,25.8,0,0,1,464.17,484.9ZM434,492.41a16,16,0,0,0,22.61,22.65A16,16,0,1,0,434,492.41Z"/><path class="cls-2" d="M572.9,506.54V477.33h10.61v53.82l-31.73-30.22v29.21H541.21V476.35Z"/><path class="cls-2" d="M617,477.13a26.87,26.87,0,0,1,18.9,7.8l-7.54,7.54a15.57,15.57,0,0,0-11.29-4.73,16,16,0,0,0,0,32.09,16,16,0,0,0,14.43-9.21h-15V500.54h27c.75,9.83-2.48,17-7.67,22.13a25.85,25.85,0,0,1-18.87,7.8A26.68,26.68,0,0,1,590.3,503.8a25.91,25.91,0,0,1,7.83-18.9A25.5,25.5,0,0,1,617,477Z"/><path class="cls-2" d="M681.55,477.33v10.54H660.4v10.61h15.87V509H660.4v10.61h21.15v10.51H649.83V477.33Z"/><path class="cls-2" d="M523.71,479.8l2.46-3.21H480l2.47,3.21c.12.16,12.23,15.95,14,18.69,1.57,2.42,2.22,4.83,2.22,13.48,0,6.33-1.15,8.1-1.34,8.35-1.79,1.23-6.57,4.46-7.71,5.08l-6.91,3.76h40.74l-6.91-3.76c-1-.55-5.16-3.33-7.72-5.08-.19-.25-1.34-2-1.34-8.35,0-8.66.66-11.06,2.22-13.48C511.48,495.75,523.59,480,523.71,479.8ZM505.3,496.51a15.08,15.08,0,0,0-2.22,5.62,15.08,15.08,0,0,0-2.22-5.62c-1.11-1.72-11.16-15.13-11.16-15.13a39.56,39.56,0,0,0,5,.1c.53,0,.84,0,.84,0,3.64-.12,7.37-.27,11.12,1,2.77,1,5.2,2.08,7.29,2.43C514,484.92,506.11,495.26,505.3,496.51Z"/></svg>