<svg id="Layer_1" data-name="Layer 1" xmlns="http://www.w3.org/2000/svg" viewBox="0 0 841.89 595.28"><defs><style>.cls-1{opacity:0.05;}.cls-2{fill:#010101;}</style></defs><g class="cls-1"><path class="cls-2" d="M503.33,20.24C350.75-22,209.53,57.81,155.44,183.86c-18.54,35.66-23.29,97.46-23.29,97.46s23.64-52.78,71.4-100.24c7.81-7.75,30.23-34.62,65.45-47.26l.06.36a121,121,0,0,0,4.77,17.17,75.09,75.09,0,0,0,8,15.52,71.85,71.85,0,0,1-2.34-16.63,112.35,112.35,0,0,1,1.11-16.45c.67-4.49,1.56-8.92,2.63-13.29,5.34-12.58,16.14-33.79,32.18-45.34,23.77-17.11,35.42-18.06,41.36-12.83s7.13,23.29,5.7,39.21a157.84,157.84,0,0,1-2.58,17.37c-1.22,4.63-2.65,9.22-4.33,13.74a113.58,113.58,0,0,1-7,14.94A72.43,72.43,0,0,1,338.51,161,75.63,75.63,0,0,0,353,151.3a122,122,0,0,0,12.46-12.74c2.13-2.55,4.16-5.18,6.13-7.87,8.92.32,20.18,1.41,28.67,4.61,16.4,6.18,31.61,12.59,57,33,0,0-5-6.85-9.89-13.35-5.2-6.87-5.32-14.93-2.23-22.3s21.39-41.12,55.86-41.83c0,0,10,8.08,7.84,27.81s-8.32,33.27-15,42.54c-2.83,3.94-6.3,8.52-9.36,12.49A13.11,13.11,0,0,0,486,191.22c8,7.59,22.35,20.85,26.41,31.74,0,0-4.2,20.72-22.27,45.2S453,301,453,301s40.48-4.61,66.08-37.56c25-32.17,54.15-65.13,51.82-150.22,0,0,18.69,23.14,18.06,86.2s-6,82.4-6.65,91.28,5.07,18.38,3.48,33.91c-1.14,11.16-2.44,26.43-3.08,34.12a10.08,10.08,0,0,0,3.14,8.19l12.48,11.73a20.11,20.11,0,0,1,4.7,22.61l-20.95,48.68a27.82,27.82,0,0,1-16.93,15.46c-21.69,7.05-69.61,20.52-119.44,20.52-67.5,0-99.83-17.75-123.28-34.23,0,0,19,26.3,76.38,43.1,21.63,6.34,48.68,9.43,74,10.82,24.45,1.34,29.38,35.32,6.28,43.49a173.62,173.62,0,0,1-50.15,10c-71.31,3.16-107.76-.64-177.79-39.3-26.51-14.64-48.11-34.54-64.73-53.62A288.42,288.42,0,0,0,421,586.43c184.83,0,329.1-173.64,278.6-366.69C674.3,123.21,599.5,46.87,503.33,20.24Z"/><path class="cls-2" d="M517.9,424.36s20-28.09-5.33-34.38c-20.28-5-57.23,33.28-57.23,33.28S512,393.15,517.9,424.36Z"/><path class="cls-2" d="M322.51,287.39s-3.69,23.39,7.39,33.24,33.24,6.16,39.4,1.23C369.3,321.86,339.82,317.87,322.51,287.39Z"/></g><path class="cls-2" d="M115.39,48.85v13h-26v13h19.51v13H89.38v26h-13V48.85Z"/><path class="cls-2" d="M136.3,49v51.78h26v12.93h-39V49Z"/><path class="cls-2" d="M270,115.17,240.78,49h13.77l15.37,35.45L285.34,49h13.93Z"/><path class="cls-2" d="M354.82,58.16a31.7,31.7,0,0,1,9.67,23.25,32.81,32.81,0,0,1-32.87,32.75,32.76,32.76,0,0,1-32.84-32.75,31.84,31.84,0,0,1,9.64-23.25,32.67,32.67,0,0,1,46.4,0ZM317.69,67.4a19.68,19.68,0,0,0,0,27.86,19.73,19.73,0,0,0,33.64-13.93,19.8,19.8,0,0,0-19.71-19.71A18.79,18.79,0,0,0,317.69,67.4Z"/><path class="cls-2" d="M411.57,88.15V49h13.09V88.19a26.17,26.17,0,1,1-52.34,0V49H385.4V88.15a13.09,13.09,0,0,0,26.17,0Z"/><path class="cls-2" d="M435,49h21.12A23.75,23.75,0,0,1,473,55.6c3.94,3.93,6.26,7.53,6.26,14.69V72a21,21,0,0,1-4.1,12.33,14.75,14.75,0,0,1-7.74,6l15.05,23.44H466.6L448,85.1v28.62H435Zm30.91,21.68a8.69,8.69,0,0,0-2.57-6.22c-1.69-1.64-4.89-2.57-8-2.57H448V79.76h5v0h4.33C462.07,79.8,465.88,75.62,465.88,70.69Z"/><path class="cls-2" d="M527.41,49V77.63L544,49h15L539.86,81.89l22.24,31.83H546.28L527.41,86.58v27.14h-13V49Z"/><path class="cls-2" d="M570,49h13v64.71H570Z"/><path class="cls-2" d="M632.29,84.78V48.85h13.05V115l-39-37.17V113.8h-13V47.65Z"/><path class="cls-2" d="M686.08,48.61a33.06,33.06,0,0,1,23.24,9.59l-9.27,9.28a19.14,19.14,0,0,0-13.89-5.82,19.8,19.8,0,0,0-19.67,19.75,19,19,0,0,0,5.78,13.93,18.78,18.78,0,0,0,13.89,5.78A19.63,19.63,0,0,0,703.9,89.8H685.44V77.39h33.23c.93,12.1-3,20.87-9.43,27.22A31.79,31.79,0,0,1,686,114.2a31.4,31.4,0,0,1-23.16-9.59,31.47,31.47,0,0,1-9.64-23.2,31.88,31.88,0,0,1,9.64-23.25A31.38,31.38,0,0,1,686,48.49Z"/><path class="cls-2" d="M744.73,101c3.59,0,7.56-3,7.56-6.57,0-5.91-7.93-6.73-12.41-8.29C732,83.44,725,77,725,68.15a19.74,19.74,0,0,1,39.29-2.73L751.4,68.15a6.57,6.57,0,0,0-13.13,0c0,5.83,7.38,7.38,11.88,8.71,8.16,2.36,15.36,8.58,15.36,17.59,0,10.91-9.79,19.72-20.68,19.72-10,0-19.06-7.34-20.53-17l12.91-2.74c0,3.61,3.93,6.55,7.58,6.55Z"/><path class="cls-2" d="M239.66,83.46c-2.47-12.4-9.87-28-18.62-33.77-7.59-5-16.53-4.5-28.57,7.77l-1.09,1.09-1.1,1.1a86.64,86.64,0,0,0-6.85,7.58s-9.87,12.92-12.34,26.38.81,21.9,11.66,21.9c18.85,0,22.13-8.33,29.17-8.71,9.87-.53,14.13,9.76,20,5a14.09,14.09,0,0,0,1.57-1.52,14.27,14.27,0,0,0,1.1-1.1,14,14,0,0,0,1.09-1.09C240.78,103.51,242.05,95.49,239.66,83.46Zm-55.1-10.29A125,125,0,0,1,195,59.26c10.54-9.92,17.93-10.77,24.06-7.65s11.32,11.47,13.05,18.13.74,11-3.14,13.45c-4.09,2.55-7.08-3-14-2.69-4.93.21-7.23,4.68-20.44,4.68C186.92,85.18,180.72,79.37,184.56,73.17Zm14.81,33.53c-3.65,2.47-11.62,3-17.38,1.69s-6.42-9-5.64-14.32,1.15-7.82,3.21-9c1.49-.85,4.31.52,4.31.52,2.33,1.17,6.42,4.3,11,4.17A31.54,31.54,0,0,0,210.22,85c4.76-3.13,7.86-.39,8.19,1.43s-.33,2.74-6.31,5.34S203,104.23,199.37,106.7Zm38.3-13.26c-.11,4.7-1.94,9.39-4.67,11s-6.5-1.07-9.23-2.68-5.93-3.08-9.35-1.47-6.72,1.88-5.58-2.28,6.38-5.76,6.38-5.76c8.32-1.34,4.44-7,12.08-5.36,3.52.74,3.88-4,7.52-3.62C236.76,83.47,237.79,88.75,237.67,93.44Z"/><path class="cls-2" d="M218.35,60.75c-1.28-4.82-9.19-4.37-12.9-1.09S202.16,69.72,207.2,71,221,70.59,218.35,60.75Z"/><path class="cls-2" d="M217.83,61.13c-1.22-4.56-8.68-4.14-12.2-1a6.4,6.4,0,0,0-1,1.14c3.7-2.66,10.44-2.81,11.59,1.5.84,3.14.45,5.4-.61,7C217.75,68.25,219,65.56,217.83,61.13Z"/><path class="cls-2" d="M132.39,151.21V190H151.9v9.7H122.64V151.21Z"/><path class="cls-2" d="M158,151.21h9.75v48.53H158Z"/><path class="cls-2" d="M205,151.09v9.72H185.48v9.79h14.63v9.72H185.48V199.8h-9.75V151.09Z"/><path class="cls-2" d="M240.38,151.09v9.72h-19.5v9.79h14.63v9.72H220.88v9.79h19.5v9.69H211.12V151.09Z"/><path class="cls-2" d="M260,190.19c2.69,0,5.67-2.24,5.67-4.94,0-4.43-5.95-5-9.31-6.21-5.91-2-11.14-6.87-11.14-13.48a14.81,14.81,0,0,1,29.47-2.05L265,165.56a4.92,4.92,0,0,0-9.84,0c0,4.37,5.53,5.53,8.9,6.54,6.13,1.76,11.53,6.43,11.53,13.18,0,8.19-7.35,14.8-15.52,14.8-7.5,0-14.29-5.51-15.39-12.74l9.68-2.06c0,2.71,3,4.92,5.68,4.92Z"/><path class="cls-2" d="M313.61,151.21v9.66H301.69v38.87h-9.78V160.87H280v-9.66Z"/><path class="cls-2" d="M329,151.21,337.81,168l8.85-16.83h11l-15.05,27.73v20.8H333v-20.8l-15-27.73Z"/><path class="cls-2" d="M373.59,151.21V190H393.1v9.7H363.84V151.21Z"/><path class="cls-2" d="M428.49,151.09v9.72H409v9.79h14.63v9.72H409v9.79h19.5v9.69H399.23V151.09Z"/><path class="cls-2" d="M467.13,151.21V190h19.51v9.7H457.38V151.21Z"/><path class="cls-2" d="M530.94,158.07a24.51,24.51,0,1,1-17.4-7.25A23.77,23.77,0,0,1,530.94,158.07ZM503.1,165a14.74,14.74,0,0,0,0,20.89,14.79,14.79,0,1,0,0-20.89Z"/><path class="cls-2" d="M618.78,178V151.09h9.78v49.64L599.3,172.86V199.8h-9.75V150.19Z"/><path class="cls-2" d="M659.32,150.91a24.81,24.81,0,0,1,17.43,7.19l-7,7a14.37,14.37,0,0,0-10.42-4.37,14.8,14.8,0,0,0,0,29.6,14.73,14.73,0,0,0,13.31-8.49H658.84v-9.31h24.92c.7,9.07-2.28,15.66-7.07,20.41a23.83,23.83,0,0,1-17.4,7.2,24.63,24.63,0,0,1-24.6-24.6,23.88,23.88,0,0,1,7.23-17.43,23.54,23.54,0,0,1,17.37-7.25Z"/><path class="cls-2" d="M719.25,151.09v9.72H699.74v9.79h14.63v9.72H699.74v9.79h19.51v9.69H690V151.09Z"/><path class="cls-2" d="M580.56,152.79l1.19-1.55H540.84l1.19,1.55c.12.15,11.91,15.44,13.65,18.11,1.63,2.5,2.32,4.94,2.32,13.55a27.87,27.87,0,0,1-.6,6.42,5.42,5.42,0,0,1-2.24,3.2c-1.94,1.29-5.52,3.68-6.47,4.2l-3.34,1.8h31.89l-3.34-1.8c-1-.55-4.59-2.94-6.48-4.21a5.4,5.4,0,0,1-2.22-3.15,27.39,27.39,0,0,1-.61-6.46c0-8.61.68-11,2.32-13.55C568.65,168.23,580.44,152.94,580.56,152.79Zm-17.1,16.72a14.23,14.23,0,0,0-2.16,5.43,14.56,14.56,0,0,0-2.16-5.43c-1.08-1.65-10.84-14.61-10.84-14.61a37.22,37.22,0,0,0,4.85.1c.52,0,.82,0,.82,0,3.54-.12,7.16-.26,10.8,1a53,53,0,0,0,7.09,2.35S564.24,168.31,563.46,169.51Z"/><path class="cls-2" d="M505.32,441.37l0,0Z"/><path class="cls-2" d="M607.49,534.19l-57-57.31a43.63,43.63,0,0,1-7.75,9l27,27L549,533.61c0-.06-.09-.12-.14-.17L521,505.54l14.31-14.31a49.7,49.7,0,0,1-13.1,5.11L484.94,533.6l-23.35-23.36c-2.59.06-5.14.17-7.62.37l23.23,23.23H428.26l23-23q-4.69.47-9.14,1.16l-21.57,21.57-15.07-15.06q-3.57.33-7.5.49l14.82,14.82H363.85l15-15q-3.78-.21-7.42-.56L356.1,533.59l-28.84-28.84h-.07c-1.48.17-2.85.26-4.19.3-.75,0-1.49,0-2.22,0s-1.53,0-2.29-.06l-26.22,26.21L272.6,511.59l16.3-16.3a41.1,41.1,0,0,1-8.29-8.57L232.78,535l0,.49a4.12,4.12,0,0,0-.88,2.52v6.45a4.14,4.14,0,0,0,4.15,4.14H605.81a4.14,4.14,0,0,0,4.15-4.14V538A4.16,4.16,0,0,0,607.49,534.19Zm-16.8-.35h-33.9l17-17ZM517,509.53l24.31,24.31H492.69Zm-194-1,25.34,25.35H297.67Zm-36.15,25.35H250.35l18.26-18.26Z"/><path class="cls-2" d="M443,502.57c.49-5.45,1.62-18.53,1.62-23.08,0-5.81-.83-12.72-4.42-17.15s-3.87-8.57-7.75-4.7-5.53,6.64-7.74,7.19-6.08-.28-10,2.21-3.87,3.87-1.1,7.19,6.91,3.88,7.74,10.51c.76,6.08.44,17.21.38,21.8C428.32,505.19,435.37,503.69,443,502.57Z"/><path class="cls-2" d="M374,417.39c-6.46,9-8.15,26.17.42,33.36s18.29,14.39,25.76,8.31c0,0-1.61,4.94-4.93,5.77,0,0,11.48,4.89,15.9-.29,2.81-3.28,7.25-3.86,10.84-5.52s7.2-3.59,6.37-7.47-1.66-5.53-1.94-8.57-3.6-5.53-8.85-7.74-6.92,4.14-14.11,5.25a33.93,33.93,0,0,0,8.58-10c3.32-6.08,2.76-6.63,5-8.85s5.24-9.38,2.49-15.19a115.17,115.17,0,0,0-30.53-1.8A43.77,43.77,0,0,0,374,417.39Z"/><path class="cls-2" d="M413,487.08c0-3.44-1.29-8.42-4.88-10.63s-7.2-2.22-13.28-3.32a29.58,29.58,0,0,1-13.83-6.92c-3.32-2.76-6.08-8.57-8-7.19s-3.6,3.6-3.6,10.51-1.38,10.23,1.11,14.11,3.32,6.63,3.32,10.51c0,3.08-.12,11.62-.16,15,14.08,1.27,29.25.94,39.38-.88C413.07,503.74,413,489.94,413,487.08Z"/><path class="cls-2" d="M336.8,468.42c4.42-2.48,9.4-9.95,10.23-14.1s-.83-9.13-.83-9.13,6.09,8,10.79,6.36,5-7.46,5.25-13.27a40.21,40.21,0,0,1,5.26-17.43c2.66-4.25,4.89-12.68,5.05-13.33-11.7,3.22-20.85,8.59-26.9,14.8-8.92,9.15-17.4,19.18-17.4,40.89,0,0,0,.21,0,.57C329.26,465.34,333,470.55,336.8,468.42Z"/><path class="cls-2" d="M484.22,479.76c-.56-3.87-3.6-9.4-7.75-12.72s-5-1.38-11.06-3-12.17-4.7-14.11-4.7-5.53-.83-3.59,3.32,4.15,5,3.87,15.76c-.21,8.28.12,18.73.28,23.14a134.47,134.47,0,0,1,22.46-.26c3.19.23,6.14.3,8.88.24C483.59,496.8,484.67,483,484.22,479.76Z"/><path class="cls-2" d="M365.29,487c0-3.32-1.94-4.43-1.66-10.79s3.59-16-1.66-17.15-7.75-1.38-11.34,3.32-8.3,8.85-8.58,16.87c-.24,7.15,1.66,16.76,2.08,23.08a34.15,34.15,0,0,0,6.68,2.83,97.67,97.67,0,0,0,13.92,3C364.86,503.69,365.29,489.74,365.29,487Z"/><path class="cls-2" d="M492.79,460.13c-6.09-3.05-11.06-3.32-16-7.47s-14.38-5.53-14.38-5.53,7.19-1.94,10.51-1.11,7.74-1.1,3.31-3.59-6.36-8.3-6.36-13c0,0,3.6,8,8,9.12,3.69.93,7.41-4.65,9-6.22h0l.56-.52c-15.19-10.1-33.61-16.43-56.72-22.73-2.19-.6-4.35-1.12-6.48-1.6.08.46,1.27,7.22-.86,12.83-2.22,5.81-4.7,8.85-2.49,10.51s9.13.83,11.89,2.77,6.09,1.66,9.13,1.66,5.25,3.87,5.25,3.87a12.52,12.52,0,0,0-9.68-1.11c-5.25,1.66-6.08,7.47-4.42,9.13s7.74,6.36,14.1,5.81,12.73,2.76,17.7,5,8.3.56,11.34,3.88,6.37,8.57,11.9,11.89,11.89,1.66,12.72-1.94S498.87,463.17,492.79,460.13Z"/><path class="cls-2" d="M501.08,442.83a82.91,82.91,0,0,0-7.41-6.53l-.75-.56-.24.15c-1.35,1-9.62,7.36-10.12,10.41-.56,3.32,3.31,4.42,7.19,3s7.18-6,11.33-6.51Z"/><path class="cls-2" d="M512.58,462.52c-.63-3.52-2.25-9.66-9.52-17.62h0s-5,2.23-5,5.27.83,5,4.43,8.3,5,5,4.7,8.85,3.09,4.48,5.92.08A44.69,44.69,0,0,0,512.58,462.52Z"/><path class="cls-2" d="M538.09,401.91c5.94,25.19.13,32.47-11.85,42.23,21.49-31.86-17.78-47.42,21.49-85.22-21.31,3.2-38.68,14.57-51.49,29.35-5.77-43.42-26.12-86.53-45.62-101.6,21.68,40,15.85,78.37-5.83,92.55,15-55.87-7.51-103.39-62.54-133.41,45.86,61.7-21.68,65.87-20.09,138.65-.34-25.17-15.76-31.93-5.75-69.45-16.79,25.81-27.37,49-32.82,69.55a120,120,0,0,0-17-19.22c24.44,52.35-13.16,54.3-2.48,88-10.82-11.41-15-22-7.85-48.15-28.11,44-21.23,93.21,26.68,91.8,1.22,0,2.39-.13,3.53-.26a39.21,39.21,0,0,1-2.69-4.85,68,68,0,0,1-2.94-7.84s-13.79-1.34-21.36-19.19c5.44,6,11.76,9.45,18.15,8.4,0,0-.2-8.13.54-17s3.41-12.71,3.41-12.71c-1.67-4.16-2.16-11.55.36-17.77,3.06-7.54,4.06-17.68,1.48-26.15,2.39,3.13,5.52,8.1,5.89,17.31a130.54,130.54,0,0,1-.13,13.31,78.52,78.52,0,0,1,10.28-12.88c-.87-4.71-4.56-28.57,3.85-53.47,0,0,.73,11.42,4.42,18.23,3.39,6.28,6.62,17.7,7.11,23.64a81.39,81.39,0,0,1,24.83-8.15l.65-.1c4.76-60.83,38.76-49.26,37.39-88.5,15.34,30.94,9.38,62.79-2.7,88.58,2.48.37,4.81.79,4.81.79,4.17.77,8.39,1.71,12.65,2.87,9.32,2.54,18.24,5.08,26.72,8,8.31-5.25,15.54-13.18,17.25-31.71a212.91,212.91,0,0,1,4.72,40.93,109.13,109.13,0,0,1,13.27,8c6.79-7.37,12.31-15.09,13.75-23.15,1.81,19,2.54,30,2.23,37.57,5.5,6.53,8.89,13.22,10.11,20A40.47,40.47,0,0,1,521,465c6.12-1.34,12.28-4.95,17.08-12-1.64,8.89-8.24,15.92-16.91,20.94a91.82,91.82,0,0,1-1.39,14.68C550.81,481.87,561.56,447,538.09,401.91Z"/><path class="cls-2" d="M509.65,492.36c.14-.18.25-.35.38-.53s.21-.29.3-.43a6,6,0,0,0,.33-.6l.18-.33a6.2,6.2,0,0,0,.33-.9c.11-.41.21-.84.31-1.28l.09-.41q.1-.51.21-1.05c0-.14.05-.28.08-.42.08-.49.17-1,.24-1.52a.28.28,0,0,0,0-.09c.08-.5.14-1,.2-1.52l.06-.53c0-.4.09-.8.13-1.21,0-.18,0-.35,0-.53.05-.56.1-1.13.14-1.7,0-.08,0-.17,0-.26l.09-1.49c0-.2,0-.41,0-.62s0-.7,0-1.05c-3.19,3.53-11.2,5.67-19,4.34-1.21-.21-2.23,1-2.32,2.24l-1.38,18.34,1.9-.29.94-.16c.61-.11,1.19-.23,1.76-.36l.88-.2c.55-.13,1.08-.27,1.6-.42l.81-.24c.5-.15,1-.3,1.45-.47l.75-.27c.44-.16.88-.33,1.29-.5.24-.1.47-.2.69-.31.4-.17.78-.35,1.15-.53l.64-.34,1-.55.59-.37.84-.56c.19-.13.36-.27.54-.4l.7-.55.48-.44c.2-.18.39-.35.57-.53l.43-.47C509.36,492.68,509.52,492.52,509.65,492.36Z"/></svg>