<svg xmlns="http://www.w3.org/2000/svg" xmlns:xlink="http://www.w3.org/1999/xlink" viewBox="0 0 841.89 595.28"><defs><style>.cls-1{isolation:isolate;}.cls-2{fill:#010101;}.cls-10,.cls-13,.cls-3,.cls-7{mix-blend-mode:screen;}.cls-3{fill:url(#linear-gradient);}.cls-4{fill:url(#linear-gradient-2);}.cls-5{fill:url(#linear-gradient-3);}.cls-6{fill:url(#linear-gradient-4);}.cls-7{fill:url(#linear-gradient-5);}.cls-8{fill:url(#linear-gradient-6);}.cls-9{fill:url(#linear-gradient-7);}.cls-10{fill:url(#linear-gradient-8);}.cls-11{fill:url(#linear-gradient-9);}.cls-12{fill:url(#linear-gradient-10);}.cls-13{fill:url(#linear-gradient-11);}.cls-14{fill:url(#linear-gradient-12);}.cls-15{fill:#be242e;}.cls-16{fill:url(#linear-gradient-13);}.cls-17{fill:url(#linear-gradient-14);}.cls-18{fill:#941d22;}.cls-19{fill:#a91f25;}.cls-20{fill:url(#linear-gradient-15);}.cls-21{fill:url(#linear-gradient-16);}.cls-22{fill:#95351f;}.cls-23{opacity:0.05;}</style><linearGradient id="linear-gradient" x1="411.55" y1="315.85" x2="411.55" y2="483.41" gradientUnits="userSpaceOnUse"><stop offset="0" stop-color="#010101"/><stop offset="1" stop-color="#f48420"/></linearGradient><linearGradient id="linear-gradient-2" x1="414.6" y1="415.98" x2="414.6" y2="540.67" gradientUnits="userSpaceOnUse"><stop offset="0" stop-color="#ed3326" stop-opacity="0"/><stop offset="1" stop-color="#faed14"/></linearGradient><linearGradient id="linear-gradient-3" x1="588.61" y1="403.19" x2="604.54" y2="503.43" gradientTransform="matrix(-1, 0, 0, 1, 1108.83, 0)" gradientUnits="userSpaceOnUse"><stop offset="0" stop-color="#ed3326"/><stop offset="1" stop-color="#faed14"/></linearGradient><linearGradient id="linear-gradient-4" x1="561.87" y1="380.87" x2="614.61" y2="488.9" xlink:href="#linear-gradient-3"/><linearGradient id="linear-gradient-5" x1="581.48" y1="410.61" x2="604.24" y2="488.17" gradientTransform="matrix(-1, 0, 0, 1, 1108.83, 0)" xlink:href="#linear-gradient"/><linearGradient id="linear-gradient-6" x1="393.67" y1="325.84" x2="423.61" y2="514.35" gradientTransform="matrix(1, 0, 0, 1, 0, 0)" xlink:href="#linear-gradient-3"/><linearGradient id="linear-gradient-7" x1="411.48" y1="281.74" x2="411.48" y2="490.91" gradientTransform="matrix(1, 0, 0, 1, 0, 0)" xlink:href="#linear-gradient-3"/><linearGradient id="linear-gradient-8" x1="412.19" y1="316.32" x2="412.19" y2="483.42" xlink:href="#linear-gradient"/><linearGradient id="linear-gradient-9" x1="354" y1="415.07" x2="369.18" y2="510.6" gradientTransform="translate(83.95 -77.21) rotate(14.54)" xlink:href="#linear-gradient-3"/><linearGradient id="linear-gradient-10" x1="332.1" y1="406.67" x2="376.79" y2="498.23" gradientTransform="translate(83.95 -77.21) rotate(14.54)" xlink:href="#linear-gradient-3"/><linearGradient id="linear-gradient-11" x1="349.52" y1="423.76" x2="371.49" y2="498.66" gradientTransform="translate(83.95 -77.21) rotate(14.54)" xlink:href="#linear-gradient"/><linearGradient id="linear-gradient-12" x1="421.54" y1="520.74" x2="421.54" y2="415.8" gradientTransform="matrix(1, 0, 0, 1, 0, 0)" xlink:href="#linear-gradient-3"/><linearGradient id="linear-gradient-13" x1="399.6" y1="391.76" x2="399.6" y2="477.76" gradientUnits="userSpaceOnUse"><stop offset="0.27" stop-color="#f6b429"/><stop offset="0.4" stop-color="#ed782c"/><stop offset="0.6" stop-color="#ed3326"/><stop offset="1" stop-color="#be242e"/></linearGradient><linearGradient id="linear-gradient-14" x1="339.55" y1="467.69" x2="382.59" y2="400.61" gradientUnits="userSpaceOnUse"><stop offset="0" stop-color="#be242e"/><stop offset="0.4" stop-color="#ed3326"/><stop offset="0.6" stop-color="#ed782c"/><stop offset="0.73" stop-color="#f6b429"/></linearGradient><linearGradient id="linear-gradient-15" x1="407.6" y1="387.25" x2="483.07" y2="476.35" gradientUnits="userSpaceOnUse"><stop offset="0.27" stop-color="#f6b429"/><stop offset="0.4" stop-color="#ed782c"/><stop offset="0.6" stop-color="#ed3326"/><stop offset="0.98" stop-color="#be242e"/></linearGradient><linearGradient id="linear-gradient-16" x1="560.25" y1="189.97" x2="560.25" y2="163.62" gradientTransform="matrix(1, 0, 0, 1, 0, 0)" xlink:href="#linear-gradient-3"/></defs><g class="cls-1"><g id="Layer_1" data-name="Layer 1"><path class="cls-2" d="M577.56,523.34l-3.42-3.42-25.25,25.26a2.25,2.25,0,0,0-.38-.51l-28.13-28.13,25.33-25.33-3.41-3.42L517,513.13l-71-71a2.41,2.41,0,1,0-3.42,3.41l71,71L485,545.12l-28.74-28.74,19-19a2.41,2.41,0,0,0-3.41-3.41l-19,19L421.3,481.44a2.41,2.41,0,0,0-3.41,3.41l31.53,31.53-28.74,28.73L392,516.38l19-19a2.41,2.41,0,0,0-3.41-3.41l-19,19-29.62-29.61,16.87-16.87a2.41,2.41,0,1,0-3.41-3.41l-17.75,17.75a2.41,2.41,0,0,0-1,.61,2.24,2.24,0,0,0-.6,1l-29.62,29.61-30.66-30.65a2.41,2.41,0,1,0-3.41,3.41L320,515.5l-27.28,27.28-24.3-24.3L265,521.89l24.31,24.31a2.4,2.4,0,0,0,3.39,3.39l.17.17,3.41-3.41-.16-.16,27.28-27.28,30.84,30.85a2.42,2.42,0,0,0,1.71.71,2.53,2.53,0,0,0,1-.21h.17a2.35,2.35,0,0,0,1.7-.71l29.78-29.77,29.82,29.83a2.43,2.43,0,0,0,1.71.71,2.31,2.31,0,0,0,.64-.1,2.38,2.38,0,0,0,2.3-.62l29.82-29.82,29.36,29.36a2.4,2.4,0,0,0,3.41,0,2.23,2.23,0,0,0,.53-.81l1.22,1.22L517,520l28.13,28.13a2.4,2.4,0,0,0,3.41,0,2.31,2.31,0,0,0,.56-.9l2.32,2.32ZM356.39,545.12,326.78,515.5l28.73-28.73,29.61,29.61Z"/><polygon class="cls-2" points="608.05 545.91 512.18 449.47 512.18 466.44 597.16 551.43 607.77 551.43 608.05 545.91"/><path class="cls-3" d="M476.4,388.62c-4.17,45.06-40.88,27.54-46.73,60.91-30-47.56,15.86-61.75-7.51-110.14,5.85,30-58.21,53.88-26.7,116.82-15,1.67-48.4-16.69-49.23-50.9a127.28,127.28,0,0,0-3.14,15c1.77,3,3.5,6,5.12,9.07L343,431.81c-.27-.67-.57-1.33-.85-2-2.6,44.81,25.32,73.95,70.86,73.95C484.59,503.77,487.25,441.19,476.4,388.62Z"/><polygon class="cls-2" points="233.31 545.91 296.67 482 296.67 498.96 244.2 551.43 233.59 551.43 233.31 545.91"/><ellipse class="cls-4" cx="414.6" cy="487.94" rx="119.92" ry="46.67"/><path class="cls-5" d="M538.38,413.19c5.92,25.15.12,32.42-11.83,42.16C548,423.55,508.8,408,548,370.3c-74,11.09-100.54,120.76-52.47,129.46C544.3,508.6,567.22,468.66,538.38,413.19Z"/><path class="cls-6" d="M542.63,449.75c-10.32,8.27-14.45,17.56-27.88,16.53,18.46-39-14.82-44.21,14-85.63-40.68,21.45-71.18,95.19-37.72,113.9C516.2,508.6,540.57,493.13,542.63,449.75Z"/><path class="cls-7" d="M488.94,486.93c14,14,44.28,5.17,49.44-22.71-9.61,14-24.66,14.45-34,10.32,6.82-15,8.27-16.52,4.14-59.9C503.39,443.56,469.31,467.31,488.94,486.93Z"/><path class="cls-8" d="M357.05,326.47c-10,37.45,5.4,44.2,5.74,69.31-1.58-72.64,65.82-76.8,20.06-138.38,54.91,30,77.39,77.39,62.41,133.15,21.63-14.15,27.46-52.43,5.82-92.37,44.11,34.12,92.68,212-34.11,211.37C334.16,509.13,279.66,445.47,357.05,326.47Z"/><path class="cls-9" d="M346.23,376.4c-1.67,25.38,14.79,49.3,31.62,64.08-24.13-65.74,50.18-97.43,30-146.46,34.12,28.29,32.45,94,18.31,131.48,13.31-33.29,50.48-14.7,46.6-67.41,20.53,57.15,30.22,148.13-55.75,148.13C342.07,506.22,321.27,448,346.23,376.4Z"/><path class="cls-10" d="M347.06,405.53c.83,34.12,34.12,52.42,49.1,50.76-31.42-62.77,32.45-86.54,26.63-116.5,23.3,48.26-22.47,62.41,7.49,109.84,5.82-33.28,42.44-15.81,46.6-60.75,10.82,52.43,8.17,114.84-63.25,114.84C360.38,503.72,331.25,463.78,347.06,405.53Z"/><path class="cls-11" d="M297.05,416.46c-7.11,26.13-3,36.67,7.83,48.06-10.66-33.62,26.87-35.57,2.48-87.82,40.12,35.86,71.65,129.75,16.31,131.38C275.86,509.49,269,460.37,297.05,416.46Z"/><path class="cls-12" d="M289.59,453c7.41,9.91,9,19.3,21.37,21.52-3.64-39.88,14.79-30.11,11.64-71.86,19.4,33,45.95,98.18.09,102.63C303.72,507.08,281.27,492.73,289.59,453Z"/><path class="cls-13" d="M329.58,501.87c-16,9.43-38.23-9.52-36.36-36,6.5,11.92,15.76,20.06,25.15,18.5-5.67-13.53-3.7-31.07,10.33-55.22C318.69,454.35,363,482.19,329.58,501.87Z"/><path class="cls-14" d="M513.33,473.66c-.85-4.68-4-14.61-19.45-26.67-16.29-12.74-36.34-19.27-62.66-26.41-40.43-11-70-1.5-83.91,12.76-8.9,9.08-17.82,19.67-17.82,41.23,0,0-.8,11.3.3,18,.71,4.33,4.78,18.28,21.68,23.39s46.1,6,62.27,3.11,36-8.77,61-6.94,35.85-6.24,37.32-11.52C514,493.55,514.29,479,513.33,473.66Z"/><path class="cls-15" d="M444.05,513.53c.49-5.45,1.62-18.5,1.62-23,0-5.8-.83-12.7-4.42-17.11s-3.86-8.56-7.73-4.7-5.52,6.63-7.73,7.18-6.07-.27-9.93,2.21-3.87,3.86-1.11,7.18,6.9,3.86,7.73,10.49c.76,6.06.44,17.17.38,21.75C429.35,516.14,436.39,514.64,444.05,513.53Z"/><path class="cls-16" d="M375.13,428.52c-6.45,9-8.14,26.11.42,33.29s18.25,14.36,25.71,8.29c0,0-1.61,4.93-4.92,5.76,0,0,11.46,4.89,15.87-.28,2.8-3.28,7.23-3.86,10.82-5.52s7.18-3.58,6.35-7.45-1.66-5.52-1.93-8.56-3.59-5.52-8.83-7.73-6.91,4.15-14.08,5.25a33.84,33.84,0,0,0,8.55-9.94c3.32-6.07,2.77-6.62,5-8.83s5.24-9.37,2.5-15.16a115.2,115.2,0,0,0-30.48-1.8A43.66,43.66,0,0,0,375.13,428.52Z"/><path class="cls-15" d="M414.11,498.06c0-3.43-1.29-8.4-4.88-10.6s-7.18-2.21-13.25-3.32a29.49,29.49,0,0,1-13.8-6.9c-3.31-2.76-6.07-8.56-8-7.18s-3.59,3.59-3.59,10.49-1.38,10.22,1.11,14.08,3.31,6.63,3.31,10.49c0,3.08-.11,11.61-.16,15,14.06,1.27,29.2.94,39.31-.88C414.14,514.69,414.11,500.92,414.11,498.06Z"/><path class="cls-17" d="M338,479.45c4.42-2.48,9.39-9.94,10.22-14.08s-.83-9.11-.83-9.11,6.07,8,10.76,6.35,5-7.45,5.25-13.25A40,40,0,0,1,368.65,432c2.66-4.25,4.88-12.66,5.05-13.3-11.68,3.21-20.82,8.57-26.85,14.76-8.9,9.14-17.36,19.15-17.36,40.82,0,0,0,.2,0,.56C330.49,476.38,334.24,481.57,338,479.45Z"/><path class="cls-15" d="M485.14,490.77c-.55-3.87-3.59-9.39-7.73-12.7s-5-1.38-11-3-12.15-4.69-14.08-4.69-5.52-.83-3.59,3.31,4.14,5,3.87,15.74c-.21,8.26.12,18.69.28,23.09a134.94,134.94,0,0,1,22.41-.26c3.18.23,6.13.3,8.87.24C484.51,507.77,485.6,494,485.14,490.77Z"/><path class="cls-15" d="M366.44,497.94c0-3.31-1.93-4.41-1.65-10.76s3.59-16-1.66-17.12-7.73-1.38-11.32,3.32-8.28,8.83-8.55,16.84c-.25,7.13,1.65,16.72,2.07,23a34.2,34.2,0,0,0,6.66,2.82,98.76,98.76,0,0,0,13.9,3C366,514.64,366.44,500.73,366.44,497.94Z"/><path class="cls-18" d="M422.86,517.47c6.49-1.35,13.53-2.83,21.19-3.94.44-4.92,1.4-16,1.59-21.49-8.41,1.14-16.07,2.78-23.1,4.24C423.22,502.43,422.92,513,422.86,517.47Z"/><path class="cls-19" d="M332.28,478.13a27.86,27.86,0,0,1-2.15-6.77c-.21-1.25-.36-2.66-.48-4.14-.22,2.23-.35,4.59-.35,7.12v.19A17,17,0,0,0,332.28,478.13Z"/><path class="cls-19" d="M513.9,478.51c-.1-1.67-.24-3.15-.42-4.29a36.71,36.71,0,0,1-1,5.21,5.68,5.68,0,0,1-.47,1.18A8.76,8.76,0,0,0,513.9,478.51Z"/><path class="cls-18" d="M366.44,497.94v-.05a98.69,98.69,0,0,1-14.62-3.07,33.48,33.48,0,0,1-8.57-3.94c-.12,7.1,1.7,16.37,2.09,22.49a34.38,34.38,0,0,0,6.48,2.71,98,98,0,0,0,14.07,3C366,514.7,366.44,500.73,366.44,497.94Z"/><path class="cls-18" d="M485.18,491.18a90.58,90.58,0,0,1-10-.21,135.51,135.51,0,0,0-22.65.29c-.12,7.91.17,17.15.32,21.22a135.17,135.17,0,0,1,22.33-.24c3.21.23,6.19.3,8.94.24C484.5,508,485.52,495,485.18,491.18Z"/><path class="cls-18" d="M414.11,498.06s0-.08,0-.12c-10.31,1.87-25.9,2.16-40.23.81a16.5,16.5,0,0,1,1.13,6.37c0,3.08-.12,11.63-.16,15,14.07,1.25,29.22.92,39.3-.91h0C414.14,514.66,414.11,500.92,414.11,498.06Z"/><path class="cls-20" d="M493.7,471.17c-6.07-3-11-3.31-16-7.45s-14.36-5.53-14.36-5.53,7.18-1.93,10.49-1.1,7.73-1.1,3.32-3.59-6.35-8.28-6.35-13c0,0,3.59,8,8,9.11,3.68.92,7.4-4.65,9-6.22h0s.25-.26.55-.53c-15.16-10.08-33.54-16.39-56.61-22.68-2.19-.6-4.34-1.12-6.47-1.59.09.45,1.27,7.2-.86,12.8-2.21,5.8-4.69,8.83-2.48,10.49s9.11.83,11.87,2.76,6.07,1.65,9.11,1.65,5.24,3.87,5.24,3.87a12.5,12.5,0,0,0-9.66-1.1c-5.24,1.65-6.07,7.45-4.42,9.1s7.73,6.35,14.08,5.8,12.7,2.76,17.67,5,8.28.55,11.32,3.86,6.35,8.56,11.87,11.87,11.87,1.66,12.69-1.93S499.77,474.21,493.7,471.17Z"/><path class="cls-15" d="M502,453.9a84.13,84.13,0,0,0-7.4-6.51c-.25-.19-.51-.37-.75-.56l-.24.15c-1.34,1-9.6,7.34-10.1,10.39-.56,3.31,3.31,4.41,7.17,3s7.17-6,11.31-6.5Z"/><path class="cls-15" d="M513.45,473.56c-.63-3.52-2.25-9.65-9.5-17.59h0s-5,2.22-5,5.26.83,5,4.42,8.28,5,5,4.69,8.84,3.09,4.47,5.91.07A44.53,44.53,0,0,0,513.45,473.56Z"/><rect class="cls-2" x="232.46" y="544.78" width="377.29" height="14.71" rx="2.93"/><path class="cls-21" d="M561.81,190s2.87-7.83,4.44-9.13,9.65-13.57,9.65-13.57l-8.35-3.65-22.95.26,12.52,17Z"/><path class="cls-2" d="M115.55,60.12v13h-26v13h19.51v13H89.54v26h-13V60.12Z"/><path class="cls-2" d="M136.46,60.28v51.79h26V125h-39V60.28Z"/><path class="cls-2" d="M270.13,126.44,240.94,60.28h13.77l15.38,35.45L285.5,60.28h13.93Z"/><path class="cls-2" d="M355,69.44a32.69,32.69,0,0,1,0,46.44,32.84,32.84,0,0,1-56-23.2,32.78,32.78,0,0,1,56-23.24Zm-37.13,9.23a19.69,19.69,0,0,0,27.82,27.86,19.58,19.58,0,0,0,0-27.86,19.63,19.63,0,0,0-27.82,0Z"/><path class="cls-2" d="M411.74,99.42V60.28h13.08V99.46a26.17,26.17,0,1,1-52.34,0V60.28h13.08V99.42a13.09,13.09,0,0,0,26.18,0Z"/><path class="cls-2" d="M435.14,60.28h21.11a23.75,23.75,0,0,1,16.94,6.59c3.94,3.94,6.26,7.53,6.26,14.69v1.69a20.94,20.94,0,0,1-4.09,12.32,14.81,14.81,0,0,1-7.75,6L482.66,125H466.77L448.18,96.37V125h-13ZM466,82a8.71,8.71,0,0,0-2.57-6.22c-1.68-1.64-4.89-2.57-8-2.57h-7.31V91h5v0h4.33C462.23,91.07,466,86.89,466,82Z"/><path class="cls-2" d="M527.58,60.28V88.9l16.57-28.62h15L540,93.16,562.26,125H546.44L527.58,97.86V125h-13V60.28Z"/><path class="cls-2" d="M570.16,60.28h13V125h-13Z"/><path class="cls-2" d="M632.46,96.05V60.12h13v66.2l-39-37.17v35.92h-13V58.92Z"/><path class="cls-2" d="M686.24,59.88a33,33,0,0,1,23.24,9.6l-9.27,9.27a19.12,19.12,0,0,0-13.89-5.82,18.8,18.8,0,0,0-13.89,5.82,19.68,19.68,0,0,0,0,27.86,18.78,18.78,0,0,0,13.89,5.78,19.63,19.63,0,0,0,17.74-11.32H685.6V88.66h33.24c.92,12.1-3.05,20.88-9.44,27.22a31.75,31.75,0,0,1-23.2,9.59,32.81,32.81,0,0,1-32.79-32.79A31.83,31.83,0,0,1,663,69.44a31.35,31.35,0,0,1,23.16-9.68Z"/><path class="cls-2" d="M744.89,112.25c3.59,0,7.56-3,7.56-6.57,0-5.91-7.93-6.73-12.4-8.28-7.89-2.69-14.86-9.17-14.86-18a19.74,19.74,0,0,1,39.29-2.73l-12.91,2.73a6.57,6.57,0,0,0-13.13,0c0,5.83,7.38,7.38,11.87,8.71,8.16,2.36,15.37,8.58,15.37,17.59,0,10.91-9.8,19.72-20.69,19.72-10,0-19.06-7.34-20.53-17l12.92-2.75c0,3.61,3.92,6.55,7.57,6.55Z"/><path class="cls-2" d="M239.82,94.73C237.35,82.34,230,66.77,221.2,61c-7.59-5-16.52-4.51-28.56,7.76l-1.1,1.09-1.1,1.1a91.39,91.39,0,0,0-6.85,7.58s-9.87,12.93-12.34,26.38.81,21.9,11.67,21.9c18.84,0,22.12-8.33,29.16-8.71,9.87-.52,14.13,9.76,20,5a13.36,13.36,0,0,0,1.57-1.53,12.69,12.69,0,0,0,1.1-1.1,14,14,0,0,0,1.09-1.09C240.94,114.78,242.22,106.76,239.82,94.73Zm-55.1-10.28a125.58,125.58,0,0,1,10.44-13.92c10.54-9.92,17.93-10.77,24.06-7.65S230.54,74.35,232.27,81s.74,11-3.14,13.46c-4.09,2.55-7.08-3-14-2.69-4.93.2-7.23,4.67-20.44,4.67C187.09,96.45,180.88,90.64,184.72,84.45ZM199.53,118c-3.65,2.48-11.62,3-17.38,1.69s-6.42-9-5.64-14.32,1.15-7.81,3.21-9c1.49-.84,4.32.52,4.32.52,2.32,1.17,6.42,4.3,11,4.17a31.44,31.44,0,0,0,15.38-4.82c4.76-3.12,7.86-.39,8.2,1.43s-.34,2.74-6.31,5.34S203.19,115.5,199.53,118Zm38.3-13.25c-.11,4.69-1.93,9.38-4.67,11s-6.49-1.08-9.23-2.68-5.93-3.09-9.35-1.48-6.72,1.88-5.58-2.28,6.38-5.76,6.38-5.76c8.32-1.34,4.45-7,12.08-5.36,3.52.74,3.88-4,7.53-3.62C236.92,94.74,238,100,237.83,104.72Z"/><path class="cls-2" d="M218.51,72c-1.28-4.82-9.18-4.37-12.9-1.09S202.33,81,207.36,82.3,221.14,81.87,218.51,72Z"/><path class="cls-2" d="M218,72.4c-1.21-4.55-8.68-4.13-12.19-1a6.46,6.46,0,0,0-1,1.14c3.7-2.66,10.45-2.81,11.6,1.5.83,3.14.44,5.41-.62,7C217.92,79.52,219.17,76.83,218,72.4Z"/><path class="cls-2" d="M132.56,162.48v38.84h19.5V211H122.8V162.48Z"/><path class="cls-2" d="M158.2,162.48H168V211H158.2Z"/><path class="cls-2" d="M205.15,162.36v9.73H185.64v9.78h14.63v9.72H185.64v19.48h-9.75V162.36Z"/><path class="cls-2" d="M240.55,162.36v9.73H221v9.78h14.63v9.72H221v9.79h19.51v9.69H211.28V162.36Z"/><path class="cls-2" d="M260.2,201.46c2.7,0,5.67-2.24,5.67-4.93,0-4.43-5.95-5.05-9.3-6.22-5.92-2-11.15-6.87-11.15-13.48a14.81,14.81,0,0,1,29.47-2l-9.68,2a4.93,4.93,0,0,0-9.85,0c0,4.37,5.53,5.54,8.9,6.54,6.13,1.76,11.53,6.43,11.53,13.18,0,8.19-7.35,14.8-15.51,14.8-7.51,0-14.3-5.51-15.4-12.73l9.68-2.07c0,2.71,2.95,4.92,5.69,4.92Z"/><path class="cls-2" d="M313.77,162.48v9.67H301.85V211h-9.78V172.15H280.12v-9.67Z"/><path class="cls-2" d="M329.12,162.48,338,179.31l8.85-16.83h11.05l-15.06,27.73V211h-9.69v-20.8l-15-27.73Z"/><path class="cls-2" d="M373.75,162.48v38.84h19.51V211H364V162.48Z"/><path class="cls-2" d="M428.66,162.36v9.73H409.15v9.78h14.63v9.72H409.15v9.79h19.51v9.69H399.39V162.36Z"/><path class="cls-2" d="M467.3,162.48v38.84h19.5V211H457.54V162.48Z"/><path class="cls-2" d="M531.1,169.35a24.48,24.48,0,1,1-17.4-7.26A23.74,23.74,0,0,1,531.1,169.35Zm-27.84,6.92a14.74,14.74,0,0,0,0,20.89,14.78,14.78,0,1,0,0-20.89Z"/><path class="cls-2" d="M618.94,189.31V162.36h9.78V212l-29.26-27.87v26.94h-9.75V161.46Z"/><path class="cls-2" d="M659.48,162.18a24.76,24.76,0,0,1,17.43,7.2l-6.95,7A14.34,14.34,0,0,0,659.54,172a14.08,14.08,0,0,0-10.41,4.36,14.74,14.74,0,0,0,0,20.89,14.07,14.07,0,0,0,10.41,4.34,14.73,14.73,0,0,0,13.31-8.49H659v-9.3h24.93c.69,9.07-2.29,15.65-7.08,20.41a23.83,23.83,0,0,1-17.4,7.19,24.6,24.6,0,0,1-24.59-24.59,23.88,23.88,0,0,1,7.22-17.43,23.51,23.51,0,0,1,17.37-7.26Z"/><path class="cls-2" d="M719.41,162.36v9.73H699.9v9.78h14.63v9.72H699.9v9.79h19.51v9.69H690.15V162.36Z"/><path class="cls-2" d="M580.72,164.06l1.19-1.54H541l1.19,1.54c.12.15,11.91,15.44,13.65,18.11,1.64,2.51,2.32,4.94,2.32,13.55a27.87,27.87,0,0,1-.6,6.42,5.38,5.38,0,0,1-2.24,3.2c-1.93,1.3-5.52,3.69-6.47,4.2l-3.34,1.8H577.4l-3.34-1.8c-1-.55-4.59-2.94-6.47-4.21a5.37,5.37,0,0,1-2.23-3.15,27.39,27.39,0,0,1-.61-6.46c0-8.61.69-11,2.32-13.55C568.81,179.5,580.6,164.21,580.72,164.06Zm-17.1,16.72a14.46,14.46,0,0,0-2.16,5.43,14.63,14.63,0,0,0-2.16-5.43c-1.08-1.65-10.84-14.61-10.84-14.61a37.22,37.22,0,0,0,4.85.1c.52,0,.82,0,.82,0,3.54-.11,7.17-.26,10.81,1A55.39,55.39,0,0,0,572,169.6S564.4,179.58,563.62,180.78Z"/><path class="cls-2" d="M218.25,72.53c-1.28-4.82-9.19-4.37-12.91-1.09s-3.28,10.06,1.75,11.38S220.88,82.38,218.25,72.53Z"/><path class="cls-2" d="M115.24,60.63v13h-26V86.65h19.52v13H89.22v26h-13v-65Z"/><path class="cls-2" d="M136.16,60.79v51.8h26v12.94h-39V60.79Z"/><path class="cls-2" d="M269.89,127l-29.2-66.18h13.78l15.38,35.46,15.42-35.46h13.94Z"/><path class="cls-2" d="M354.79,69.94a32.73,32.73,0,0,1,0,46.47A32.86,32.86,0,0,1,298.72,93.2a32.8,32.8,0,0,1,56.07-23.26Zm-37.15,9.24a19.69,19.69,0,0,0,27.83,27.87,19.59,19.59,0,0,0,0-27.87,19.64,19.64,0,0,0-27.83,0Z"/><path class="cls-2" d="M411.57,99.94V60.79h13.09V100a26.19,26.19,0,1,1-52.37,0V60.79h13.1V99.94a13.09,13.09,0,0,0,26.18,0Z"/><path class="cls-2" d="M435,60.79H456.1a23.79,23.79,0,0,1,16.95,6.58c3.94,3.94,6.27,7.54,6.27,14.7v1.69a21,21,0,0,1-4.1,12.33,14.69,14.69,0,0,1-7.75,6l15.06,23.46h-15.9L448,96.89v28.64H435ZM465.9,82.47a8.71,8.71,0,0,0-2.57-6.22c-1.69-1.64-4.89-2.57-8-2.57H448V91.55h5v0h4.34C462.09,91.59,465.9,87.41,465.9,82.47Z"/><path class="cls-2" d="M527.47,60.79V89.42l16.58-28.63h15L539.92,93.68l22.25,31.85H546.34L527.47,98.38v27.15h-13V60.79Z"/><path class="cls-2" d="M570.07,60.79h13v64.74h-13Z"/><path class="cls-2" d="M632.4,96.57V60.63h13.05v66.22l-39-37.19v36h-13V59.42Z"/><path class="cls-2" d="M686.21,60.39A33.08,33.08,0,0,1,709.46,70l-9.27,9.28a19.16,19.16,0,0,0-13.9-5.82,18.81,18.81,0,0,0-13.9,5.82,19.69,19.69,0,0,0,0,27.87,18.79,18.79,0,0,0,13.9,5.79A19.64,19.64,0,0,0,704,101.59H685.57V89.18h33.25c.93,12.1-3,20.88-9.44,27.23a31.79,31.79,0,0,1-23.21,9.6A32.84,32.84,0,0,1,653.36,93.2,31.85,31.85,0,0,1,663,69.94a31.35,31.35,0,0,1,23.17-9.68Z"/><path class="cls-2" d="M744.89,112.78c3.59,0,7.56-3,7.56-6.58,0-5.91-7.93-6.73-12.41-8.28-7.89-2.69-14.87-9.17-14.87-18a19.76,19.76,0,0,1,39.32-2.73l-12.92,2.73a6.57,6.57,0,0,0-13.14,0c0,5.83,7.38,7.38,11.88,8.72,8.17,2.35,15.37,8.58,15.37,17.59,0,10.92-9.79,19.74-20.69,19.74-10,0-19.07-7.35-20.54-17l12.92-2.75c0,3.62,3.93,6.56,7.58,6.56Z"/><path class="cls-2" d="M239.57,95.25c-2.47-12.4-9.88-28-18.63-33.78s-19.3-4.22-34.34,14.25c0,0-9.88,12.94-12.35,26.4S175.07,124,185.93,124c18.85,0,22.13-8.34,29.18-8.72,9.87-.52,14.14,9.77,20,5C240.62,115.82,242,107.66,239.57,95.25ZM207.09,82.82c-5-1.32-5.47-8.1-1.75-11.38s11.63-3.73,12.91,1.09C220.88,82.38,212.12,84.13,207.09,82.82Z"/><path class="cls-22" d="M188.51,119.92a29.42,29.42,0,0,1-6.42-.67c-4.88-1.1-5.69-7.82-4.9-13.24.75-5.22,1.13-7.38,2.73-8.28a1.53,1.53,0,0,1,.75-.15,7.2,7.2,0,0,1,2.66.7c.46.22,1,.54,1.6.89,2.43,1.43,5.76,3.38,9.51,3.38h.31a32.36,32.36,0,0,0,15.9-5,6.67,6.67,0,0,1,3.59-1.26,3.1,3.1,0,0,1,3.12,2.06c.18,1,.3,1.64-5.75,4.27-3.8,1.66-6.41,5.87-8.71,9.58-1.47,2.36-2.85,4.59-4.18,5.49C196.67,119.09,192.85,119.92,188.51,119.92Z"/><path class="cls-22" d="M231,115.76c-1.81,0-4.07-1.37-5.89-2.48l-1-.56a13.7,13.7,0,0,0-6.77-2.31,8.15,8.15,0,0,0-3.48.79,9,9,0,0,1-3.43,1,1.16,1.16,0,0,1-.85-.26c-.08-.11-.32-.56,0-1.88.92-3.37,5.14-4.9,5.68-5.08,4.3-.71,5.69-2.59,6.71-4,.79-1.07,1.23-1.66,2.8-1.66a10.45,10.45,0,0,1,2.15.26,4.16,4.16,0,0,0,.91.1c1.77,0,2.82-1.12,3.74-2.1S233.24,96,234.3,96a1.88,1.88,0,0,1,.33,0c.75.08,2.11,3.73,2,9.2-.11,4.53-1.87,8.81-4.2,10.18A2.71,2.71,0,0,1,231,115.76Z"/><path class="cls-22" d="M194.42,96c-4.13,0-7.94-1.86-9.48-4.63a5.55,5.55,0,0,1,.33-5.9,126.38,126.38,0,0,1,10.35-13.8c6.37-6,11.92-8.93,16.9-8.93a13,13,0,0,1,6,1.51c6,3,10.94,11.3,12.56,17.52s.77,10.22-2.72,12.39a3.15,3.15,0,0,1-1.72.53h0A9.26,9.26,0,0,1,223,93.45a16.7,16.7,0,0,0-7.62-2.14h-.56a14.33,14.33,0,0,0-5.41,1.61C206.36,94.3,202.56,96,194.42,96Zm18-28a12,12,0,0,0-7.69,2.74,8.52,8.52,0,0,0-2.58,8.15,6.46,6.46,0,0,0,4.73,4.9,13.4,13.4,0,0,0,3.34.41c3.43,0,6.33-1.22,8-3.34s2-5,1-8.55C218.47,69.58,215.93,68,212.39,68Z"/><path class="cls-2" d="M569.11,55.66l14.63-5.22a3.93,3.93,0,0,0,2.38-5l-2.87-8-4,5.14-9-6.71L567.81,46.6l-6.47-1,2.74,7.68A3.93,3.93,0,0,0,569.11,55.66Z"/><g class="cls-23"><path class="cls-2" d="M503.33,20.24C350.75-22,209.53,57.81,155.44,183.86c-18.54,35.66-23.29,97.46-23.29,97.46s23.64-52.78,71.4-100.24c7.81-7.75,30.23-34.62,65.45-47.26l.06.36a121,121,0,0,0,4.77,17.17,75.09,75.09,0,0,0,8,15.52,71.85,71.85,0,0,1-2.34-16.63,112.35,112.35,0,0,1,1.11-16.45c.67-4.49,1.56-8.92,2.63-13.29,5.34-12.58,16.14-33.79,32.18-45.34,23.77-17.11,35.42-18.06,41.36-12.83s7.13,23.29,5.7,39.21a157.84,157.84,0,0,1-2.58,17.37c-1.22,4.63-2.65,9.22-4.33,13.74a113.58,113.58,0,0,1-7,14.94A72.43,72.43,0,0,1,338.51,161,75.63,75.63,0,0,0,353,151.3a122,122,0,0,0,12.46-12.74c2.13-2.55,4.16-5.18,6.13-7.87,8.92.32,20.18,1.41,28.67,4.61,16.4,6.18,31.61,12.59,57,33,0,0-5-6.85-9.89-13.35-5.2-6.87-5.32-14.93-2.23-22.3s21.39-41.12,55.86-41.83c0,0,10,8.08,7.84,27.81s-8.32,33.27-15,42.54c-2.83,3.94-6.3,8.52-9.36,12.49A13.11,13.11,0,0,0,486,191.22c8,7.59,22.35,20.85,26.41,31.74,0,0-4.2,20.72-22.27,45.2S453,301,453,301s40.48-4.61,66.08-37.56c25-32.17,54.15-65.13,51.82-150.22,0,0,18.69,23.14,18.06,86.2s-6,82.4-6.65,91.28,5.07,18.38,3.48,33.91c-1.14,11.16-2.44,26.43-3.08,34.12a10.08,10.08,0,0,0,3.14,8.19l12.48,11.73a20.11,20.11,0,0,1,4.7,22.61l-20.95,48.68a27.82,27.82,0,0,1-16.93,15.46c-21.69,7.05-69.61,20.52-119.44,20.52-67.5,0-99.83-17.75-123.28-34.23,0,0,19,26.3,76.38,43.1,21.63,6.34,48.68,9.43,74,10.82,24.45,1.34,29.38,35.32,6.28,43.49a173.62,173.62,0,0,1-50.15,10c-71.31,3.16-107.76-.64-177.79-39.3-26.51-14.64-48.11-34.54-64.73-53.62A288.42,288.42,0,0,0,421,586.43c184.83,0,329.1-173.64,278.6-366.69C674.3,123.21,599.5,46.87,503.33,20.24Z"/><path class="cls-2" d="M517.9,424.36s20-28.09-5.33-34.38c-20.28-5-57.23,33.28-57.23,33.28S512,393.15,517.9,424.36Z"/><path class="cls-2" d="M322.51,287.39s-3.69,23.39,7.39,33.24,33.24,6.16,39.4,1.23C369.3,321.86,339.82,317.87,322.51,287.39Z"/></g></g></g></svg>