<svg id="Layer_1" data-name="Layer 1" xmlns="http://www.w3.org/2000/svg" viewBox="0 0 630 530"><defs><style>.cls-1{opacity:0.05;}</style></defs><path d="M315,265l0,0Z"/><g class="cls-1"><path d="M385.16,28.78C255.22-7.19,135,60.77,88.91,168.12c-15.79,30.36-19.83,83-19.83,83s20.13-44.94,60.8-85.35c6.65-6.6,25.74-29.49,55.73-40.25,0,.1,0,.21,0,.31a104.25,104.25,0,0,0,4.06,14.62,63.89,63.89,0,0,0,6.81,13.21,61.81,61.81,0,0,1-2-14.16,95.73,95.73,0,0,1,1-14c.57-3.82,1.33-7.6,2.24-11.32,4.54-10.71,13.74-28.77,27.4-38.61C245.37,61,255.29,60.17,260.35,64.62s6.07,19.84,4.86,33.4a134.27,134.27,0,0,1-2.2,14.79c-1,3.94-2.26,7.85-3.69,11.7a97,97,0,0,1-5.94,12.72,61,61,0,0,1-8.58,11.43,64.06,64.06,0,0,0,12.35-8.27,104.62,104.62,0,0,0,10.61-10.85c1.81-2.17,3.55-4.41,5.22-6.7,7.59.27,17.19,1.2,24.41,3.92,14,5.26,26.92,10.73,48.58,28.13,0,0-4.25-5.83-8.43-11.37-4.42-5.85-4.53-12.71-1.89-19s18.21-35,47.56-35.62c0,0,8.5,6.88,6.68,23.68s-7.08,28.34-12.75,36.23c-2.41,3.35-5.36,7.25-8,10.63a11.17,11.17,0,0,0,1.2,14.93c6.82,6.46,19,17.75,22.49,27,0,0-3.58,17.64-19,38.49s-31.58,27.93-31.58,27.93,34.47-3.92,56.27-32c21.29-27.39,46.11-55.45,44.13-127.92,0,0,15.92,19.71,15.38,73.41s-5.13,70.17-5.67,77.72,4.32,15.66,3,28.88c-1,9.51-2.08,22.51-2.63,29.06a8.6,8.6,0,0,0,2.68,7l10.63,10a17.14,17.14,0,0,1,4,19.26l-17.84,41.44a23.67,23.67,0,0,1-14.42,13.17c-18.46,6-59.27,17.47-101.7,17.47-57.49,0-85-15.11-105-29.14,0,0,16.19,22.4,65,36.7,18.42,5.39,41.45,8,63,9.21,20.83,1.14,25,30.08,5.36,37a147.56,147.56,0,0,1-42.72,8.53c-60.72,2.7-91.75-.54-151.39-33.46-22.58-12.46-41-29.41-55.12-45.66A245.56,245.56,0,0,0,315,510.92c157.39,0,280.25-147.86,237.25-312.25A239.12,239.12,0,0,0,385.16,28.78Z"/><path d="M397.56,372.91S414.63,349,393,343.63C375.75,339.35,344.29,372,344.29,372S392.52,346.33,397.56,372.91Z"/><path d="M231.18,256.28s-3.14,19.91,6.29,28.3,28.31,5.24,33.55,1.05C271,285.63,245.92,282.23,231.18,256.28Z"/></g><path d="M85.87,104.67A47.14,47.14,0,0,1,51.58,90.52,46.78,46.78,0,0,1,37.32,56.18,47.15,47.15,0,0,1,51.58,21.77,46.78,46.78,0,0,1,85.87,7.45s20.19.23,34.4,14.44L106.55,35.62a28.36,28.36,0,0,0-20.62-8.56,27.76,27.76,0,0,0-20.56,8.56,28.32,28.32,0,0,0-8.56,20.62,28.1,28.1,0,0,0,8.56,20.62,28,28,0,0,0,20.56,8.49,28.2,28.2,0,0,0,20.68-8.55l13.72,13.72A48.33,48.33,0,0,1,85.87,104.67Z"/><path d="M156.43,8.22V46.55h32V8.22h19.2V104h-19.2V65.63h-32V104h-19.2V8.22Z"/><path d="M224.94,8.22h19.25V104H224.94Z"/><path d="M280.52,8.22V84.88H319V104H261.27V8.22Z"/><path d="M355.13,8.22V84.88h38.5V104H335.87V8.22Z"/><path d="M561.91,85.16c5.32,0,11.19-4.42,11.19-9.74,0-8.74-11.74-10-18.36-12.26-11.68-4-22-13.57-22-26.61a29.23,29.23,0,0,1,58.17-4l-19.12,4a9.72,9.72,0,0,0-19.44.06c0,8.63,10.93,10.92,17.58,12.9C582,53,592.68,62.2,592.68,75.54c0,16.15-14.5,29.2-30.62,29.2-14.82,0-28.21-10.87-30.39-25.13l19.12-4.07c0,5.35,5.81,9.7,11.21,9.7Z"/><path d="M513.44,60.44c-3.85-19.32-15.38-43.58-29-52.62C472.6,0,458.67.8,439.91,19.92c-.57.55-1.14,1.12-1.71,1.7s-1.14,1.13-1.71,1.71a139.06,139.06,0,0,0-10.68,11.81s-15.39,20.15-19.23,41.11,1.27,34.13,18.18,34.13c29.37,0,34.48-13,45.45-13.57,15.38-.82,22,15.21,31.11,7.81a22.06,22.06,0,0,0,2.46-2.37,21.1,21.1,0,0,0,1.7-1.71,19.71,19.71,0,0,0,1.71-1.71C515.18,91.69,517.17,79.18,513.44,60.44Zm-85.86-16a194.35,194.35,0,0,1,16.27-21.69C460.26,7.27,471.78,5.94,481.34,10.8S499,28.68,501.67,39.05s1.15,17.2-4.9,21c-6.37,4-11-4.63-21.8-4.19-7.69.31-11.28,7.28-31.86,7.28C431.26,63.11,421.59,54.06,427.58,44.41Zm23.08,52.24c-5.7,3.86-18.12,4.67-27.09,2.64s-10-14-8.8-22.32,1.8-12.18,5-14c2.32-1.32,6.72.81,6.72.81,3.63,1.82,10,6.69,17.08,6.49a49,49,0,0,0,24-7.51c7.42-4.87,12.25-.6,12.77,2.24s-.52,4.26-9.83,8.31S456.35,92.8,450.66,96.65ZM510.34,76c-.18,7.31-3,14.62-7.28,17.12S492.94,91.45,488.67,89s-9.23-4.81-14.56-2.3-10.48,2.92-8.7-3.55,9.94-9,9.94-9c13-2.09,6.93-10.86,18.83-8.36,5.49,1.16,6-6.26,11.72-5.64C508.92,60.46,510.52,68.69,510.34,76Z"/><path d="M480.23,25.05c-2-7.51-14.31-6.82-20.11-1.7S455,39,462.85,41.07,484.32,40.39,480.23,25.05Z"/><path d="M37.11,503.71,67.49,462v63.54H55V499.82l-17.9,24.73L19.16,499.82v25.73H6.68V462Z"/><path d="M112.63,463.32v12.44h-25v12.51h18.72v12.44H87.67v12.52h25v12.4H75.19V463.32Z"/><path d="M148.27,462.2l28.35,63.35H163.1l-4.2-9.43H137.65l-4.2,9.43H120Zm5.7,42.9L148.31,492l-5.74,13.13Z"/><path d="M213.13,463.47v12.36H197.87v49.72H185.36V475.83H170.07V463.47Z"/><path d="M279.45,463.32v49.81h25v12.44H266.94V463.32Z"/><path d="M366.14,472.12a31.43,31.43,0,1,1-22.32-9.3A30.51,30.51,0,0,1,366.14,472.12ZM330.42,481a18.43,18.43,0,0,0-5.56,13.4,19,19,0,1,0,5.56-13.4Z"/><path d="M494.78,497.72V463.16h12.55v63.68l-37.54-35.76v34.56H457.28V462Z"/><path d="M546.94,462.93a31.83,31.83,0,0,1,22.36,9.23l-8.92,8.92a18.43,18.43,0,0,0-13.36-5.6,18.08,18.08,0,0,0-13.36,5.6,18.93,18.93,0,0,0,0,26.8A18,18,0,0,0,547,513.44a18.9,18.9,0,0,0,17.07-10.89H546.32V490.62h32c.89,11.63-2.93,20.08-9.08,26.18A30.57,30.57,0,0,1,546.9,526a31.58,31.58,0,0,1-31.55-31.55,30.64,30.64,0,0,1,9.27-22.36,30.16,30.16,0,0,1,22.28-9.3Z"/><path d="M623.32,463.16v12.48h-25v12.55h18.77v12.47H598.29v12.55h25v12.43H585.78V463.16Z"/><path d="M436.58,466.09l2.91-3.8H384.85l2.91,3.8c.15.19,14.47,18.87,16.57,22.11,1.85,2.86,2.63,5.71,2.63,15.95,0,7.49-1.36,9.58-1.59,9.88-2.12,1.45-7.77,5.28-9.12,6l-8.17,4.44h48.19L428.09,520c-1.21-.66-6.1-3.94-9.12-6-.23-.3-1.59-2.39-1.59-9.88,0-10.24.77-13.09,2.63-15.95C422.1,485,436.43,466.28,436.58,466.09ZM414.8,485.85a17.8,17.8,0,0,0-2.63,6.65,17.63,17.63,0,0,0-2.63-6.65c-1.31-2-13.2-17.9-13.2-17.9a46.56,46.56,0,0,0,5.92.13l1,0c4.31-.14,8.72-.32,13.16,1.22,3.27,1.14,6.15,2.46,8.62,2.88C425,472.15,415.76,484.38,414.8,485.85Z"/><path d="M480.4,389.94l-50.52-50.81a38.79,38.79,0,0,1-6.87,8l23.92,23.93-18.37,18.37a1.67,1.67,0,0,0-.12-.16L403.7,364.54l12.69-12.69a43.79,43.79,0,0,1-11.61,4.53l-33,33L351,368.71c-2.3.05-4.56.15-6.76.32l20.6,20.6H321.49l20.36-20.37c-2.78.27-5.48.62-8.1,1l-19.13,19.12-13.36-13.35q-3.17.29-6.65.43l13.14,13.14H264.37l13.3-13.3c-2.23-.12-4.43-.29-6.58-.5l-13.58,13.58-25.58-25.57h-.06c-1.31.14-2.53.23-3.71.27l-2,0c-.69,0-1.36,0-2-.06l-23.24,23.25L183.47,369.9l14.45-14.45a36.31,36.31,0,0,1-7.35-7.6l-42.4,42.78,0,.44a3.64,3.64,0,0,0-.78,2.23V399a3.67,3.67,0,0,0,3.68,3.67H478.91a3.67,3.67,0,0,0,3.68-3.67V393.3A3.68,3.68,0,0,0,480.4,389.94Zm-14.9-.31H435.44l15-15Zm-65.34-21.55,21.55,21.55h-43.1Zm-172-.92,22.47,22.47H205.7Zm-32,22.47H163.74l16.19-16.19Z"/><path d="M334.84,361.91c.43-4.84,1.44-16.44,1.44-20.47,0-5.15-.74-11.28-3.93-15.2s-3.43-7.61-6.86-4.17-4.91,5.88-6.87,6.37-5.4-.24-8.83,2-3.43,3.44-1,6.38,6.13,3.43,6.87,9.32c.67,5.39.38,15.25.33,19.32C321.78,364.22,328,362.9,334.84,361.91Z"/><path d="M273.61,286.38c-5.73,8-7.23,23.2.37,29.58s16.22,12.76,22.84,7.36c0,0-1.42,4.38-4.37,5.12,0,0,10.18,4.34,14.11-.25,2.48-2.91,6.42-3.43,9.61-4.9s6.37-3.19,5.64-6.62-1.47-4.9-1.72-7.6-3.19-4.91-7.85-6.87-6.13,3.68-12.5,4.66a30,30,0,0,0,7.6-8.83c2.94-5.39,2.45-5.88,4.41-7.84s4.66-8.33,2.22-13.47a102.17,102.17,0,0,0-27.08-1.6A39,39,0,0,0,273.61,286.38Z"/><path d="M308.24,348.17c0-3.05-1.15-7.47-4.33-9.43s-6.38-2-11.78-2.94a26.31,26.31,0,0,1-12.26-6.13c-2.94-2.45-5.39-7.6-7.11-6.38s-3.19,3.19-3.19,9.32-1.22,9.07,1,12.51a15.46,15.46,0,0,1,2.95,9.32c0,2.73-.11,10.31-.15,13.3,12.49,1.12,25.94.83,34.93-.78C308.27,362.94,308.24,350.71,308.24,348.17Z"/><path d="M240.64,331.63c3.92-2.21,8.33-8.83,9.07-12.51S249,311,249,311s5.4,7.11,9.57,5.64,4.41-6.62,4.66-11.77a35.44,35.44,0,0,1,4.66-15.45c2.35-3.77,4.33-11.25,4.48-11.82-10.38,2.85-18.49,7.62-23.85,13.12-7.91,8.11-15.43,17-15.43,36.26,0,0,0,.18,0,.5C234,328.9,237.28,333.52,240.64,331.63Z"/><path d="M371.34,341.68c-.49-3.43-3.18-8.33-6.86-11.28s-4.42-1.22-9.81-2.69-10.79-4.17-12.51-4.17-4.9-.74-3.19,2.94,3.68,4.41,3.44,14c-.19,7.34.1,16.6.25,20.51a120.19,120.19,0,0,1,19.91-.23c2.82.21,5.44.27,7.87.22C370.79,356.79,371.75,344.52,371.34,341.68Z"/><path d="M265.89,348.06c0-2.94-1.71-3.92-1.47-9.56s3.19-14.23-1.47-15.21-6.86-1.22-10,2.95-7.36,7.84-7.6,14.95c-.22,6.34,1.46,14.87,1.84,20.47a30.37,30.37,0,0,0,5.92,2.51,87.36,87.36,0,0,0,12.34,2.63C265.52,362.9,265.89,350.53,265.89,348.06Z"/><path d="M379,324.27c-5.4-2.69-9.81-2.94-14.23-6.62s-12.75-4.9-12.75-4.9,6.38-1.72,9.32-1,6.87-1,2.94-3.19-5.64-7.36-5.64-11.53c0,0,3.19,7.11,7.11,8.1,3.27.81,6.57-4.13,8-5.52h0s.22-.23.49-.47C360.72,290.2,344.4,284.59,323.9,279c-1.94-.53-3.85-1-5.74-1.41.07.4,1.13,6.4-.77,11.37-2,5.15-4.17,7.85-2.2,9.32s8.09.73,10.54,2.45,5.4,1.47,8.09,1.47,4.66,3.44,4.66,3.44a11.1,11.1,0,0,0-8.58-1c-4.66,1.48-5.4,6.63-3.92,8.1s6.86,5.64,12.5,5.15,11.28,2.45,15.7,4.41,7.35.49,10.05,3.43,5.64,7.61,10.55,10.55,10.54,1.47,11.28-1.72S384.34,327,379,324.27Z"/><path d="M386.3,308.94a70.89,70.89,0,0,0-6.58-5.79c-.21-.17-.44-.33-.66-.5-.07.05-.14.08-.21.14-1.19.9-8.53,6.52-9,9.22-.49,2.94,2.95,3.93,6.38,2.7s6.36-5.31,10-5.77Z"/><path d="M396.5,326.4c-.56-3.13-2-8.57-8.45-15.63h0s-4.43,2-4.43,4.66.73,4.42,3.92,7.36,4.41,4.42,4.17,7.85,2.74,4,5.25.07A41.69,41.69,0,0,0,396.5,326.4Z"/><path d="M423.91,272.65c5.26,22.34.11,28.8-10.51,37.45,19.05-28.25-15.77-42.05,19.05-75.56-18.89,2.84-34.29,12.92-45.65,26-5.12-38.5-23.16-76.72-40.45-90.09,19.23,35.49,14,69.5-5.17,82.06,13.31-49.53-6.66-91.67-55.44-118.28,40.66,54.7-19.23,58.4-17.82,122.93-.3-22.31-14-28.3-5.1-61.57-14.88,22.88-24.27,43.45-29.1,61.66a106.68,106.68,0,0,0-15.05-17c21.67,46.42-11.67,48.15-2.2,78-9.59-10.12-13.28-19.48-6.95-42.7-24.93,39-18.83,82.65,23.65,81.4,1.09,0,2.12-.12,3.13-.23a34.19,34.19,0,0,1-2.38-4.3,60.08,60.08,0,0,1-2.61-6.95s-12.23-1.19-18.94-17c4.82,5.35,10.43,8.38,16.09,7.45,0,0-.17-7.21.48-15s3-11.27,3-11.27a23,23,0,0,1,.33-15.75c2.7-6.68,3.59-15.68,1.3-23.19,2.13,2.78,4.9,7.19,5.23,15.35.26,6.61-.11,11.8-.11,11.8a69.2,69.2,0,0,1,9.11-11.42c-.77-4.18-4-25.33,3.41-47.41,0,0,.65,10.13,3.92,16.17a67.27,67.27,0,0,1,6.3,20.95,72.37,72.37,0,0,1,22-7.22l.58-.09c4.22-53.94,34.37-43.68,33.15-78.47,13.6,27.44,8.31,55.67-2.39,78.54,2.19.33,4.26.7,4.26.7,3.7.68,7.44,1.52,11.21,2.55,8.27,2.25,16.18,4.5,23.7,7.08,7.37-4.65,13.77-11.69,15.29-28.11a188.44,188.44,0,0,1,4.18,36.28,97.87,97.87,0,0,1,11.78,7.13c6-6.54,10.91-13.39,12.19-20.53,1.6,16.85,2.25,26.57,2,33.31,4.87,5.79,7.87,11.72,9,17.74a33.15,33.15,0,0,1,.41,3.62A24.6,24.6,0,0,0,423.91,318c-1.46,7.88-7.31,14.12-15,18.56a81.33,81.33,0,0,1-1.23,13C435.19,343.56,444.72,312.66,423.91,272.65Z"/><path d="M395.37,352.85c.13-.16.23-.31.34-.47s.19-.25.27-.38.2-.35.29-.53l.16-.3a5.54,5.54,0,0,0,.29-.8c.1-.35.19-.73.28-1.13,0-.12.05-.24.08-.36l.18-.93c0-.12.05-.25.07-.37.08-.44.15-.89.22-1.35a.19.19,0,0,1,0-.08c.06-.44.12-.89.17-1.35l.06-.47c0-.35.07-.71.11-1.07,0-.16,0-.31,0-.47.05-.5.09-1,.13-1.51,0-.07,0-.15,0-.23,0-.44.05-.88.08-1.32l0-.55c0-.31,0-.62,0-.93-2.83,3.13-9.94,5-16.81,3.85-1.08-.19-2,.9-2.06,2l-1.22,16.25,1.68-.25.84-.15,1.55-.31.78-.18c.49-.12,1-.24,1.42-.37l.72-.21c.44-.14.87-.27,1.29-.42l.66-.24c.39-.14.78-.29,1.15-.45l.61-.27c.35-.15.69-.31,1-.47l.57-.3.88-.49.52-.33.75-.49.48-.36c.21-.16.42-.32.62-.49l.43-.39.5-.46c.14-.14.25-.28.38-.43S395.26,353,395.37,352.85Z"/></svg>