<svg id="Layer_1" data-name="Layer 1" xmlns="http://www.w3.org/2000/svg" viewBox="0 0 730 530"><defs><style>.cls-1{opacity:0.05;}</style></defs><g class="cls-1"><path d="M435.16,28.78c-129.94-36-250.19,32-296.25,139.34-15.79,30.36-19.83,83-19.83,83s20.13-44.94,60.8-85.35c6.65-6.6,25.74-29.49,55.73-40.25,0,.1,0,.21,0,.31a104.25,104.25,0,0,0,4.06,14.62,63.89,63.89,0,0,0,6.81,13.21,61.81,61.81,0,0,1-2-14.16,95.73,95.73,0,0,1,1-14c.57-3.82,1.33-7.6,2.24-11.32,4.54-10.71,13.74-28.77,27.4-38.61C295.37,61,305.29,60.17,310.35,64.62s6.07,19.84,4.86,33.4a134.27,134.27,0,0,1-2.2,14.79c-1,3.94-2.26,7.85-3.69,11.7a97,97,0,0,1-5.94,12.72,61,61,0,0,1-8.58,11.43,64.06,64.06,0,0,0,12.35-8.27,104.62,104.62,0,0,0,10.61-10.85c1.81-2.17,3.55-4.41,5.22-6.7,7.59.27,17.19,1.2,24.41,3.92,14,5.26,26.92,10.73,48.58,28.13,0,0-4.25-5.83-8.43-11.37-4.42-5.85-4.53-12.71-1.89-19s18.21-35,47.56-35.62c0,0,8.5,6.88,6.68,23.68s-7.08,28.34-12.75,36.23c-2.41,3.35-5.36,7.25-8,10.63a11.17,11.17,0,0,0,1.2,14.93c6.82,6.46,19,17.75,22.49,27,0,0-3.58,17.64-19,38.49s-31.58,27.93-31.58,27.93,34.47-3.92,56.27-32c21.29-27.39,46.11-55.45,44.13-127.92,0,0,15.92,19.71,15.38,73.41s-5.13,70.17-5.67,77.72,4.32,15.66,3,28.88c-1,9.51-2.08,22.51-2.63,29.06a8.6,8.6,0,0,0,2.68,7l10.63,10a17.14,17.14,0,0,1,4,19.26l-17.84,41.44a23.67,23.67,0,0,1-14.42,13.17c-18.46,6-59.27,17.47-101.7,17.47-57.49,0-85-15.11-105-29.14,0,0,16.19,22.4,65,36.7,18.42,5.39,41.45,8,63,9.21,20.83,1.14,25,30.08,5.36,37a147.56,147.56,0,0,1-42.72,8.53c-60.72,2.7-91.75-.54-151.39-33.46-22.58-12.46-41-29.41-55.12-45.66A245.56,245.56,0,0,0,365,510.92c157.39,0,280.25-147.86,237.25-312.25A239.12,239.12,0,0,0,435.16,28.78Z"/><path d="M447.56,372.91S464.63,349,443,343.63C425.75,339.35,394.29,372,394.29,372S442.52,346.33,447.56,372.91Z"/><path d="M281.18,256.28s-3.14,19.91,6.29,28.3,28.31,5.24,33.55,1.05C321,285.63,295.92,282.23,281.18,256.28Z"/></g><path d="M440.58,194.77l0,0Z"/><path d="M532.08,277.91l-51-51.33a39.27,39.27,0,0,1-6.94,8.08l24.16,24.17-18.55,18.56c-.05-.06-.08-.11-.13-.16l-25-25,12.82-12.82A44.09,44.09,0,0,1,455.69,244l-33.37,33.37L401.4,256.46c-2.32.05-4.6.15-6.82.32l20.8,20.81H371.55L392.13,257q-4.22.42-8.19,1l-19.32,19.32-13.49-13.49q-3.21.28-6.72.44l13.27,13.27H313.86l13.43-13.43q-3.39-.2-6.65-.51l-13.72,13.72-25.83-25.83H281c-1.33.14-2.56.23-3.75.27l-2,0c-.69,0-1.37,0-2-.06l-23.48,23.48-17.62-17.61,14.6-14.6a36.3,36.3,0,0,1-7.42-7.68L196.47,278.6l0,.44a3.72,3.72,0,0,0-.78,2.26v5.77a3.72,3.72,0,0,0,3.71,3.72H530.58a3.72,3.72,0,0,0,3.71-3.72V281.3A3.7,3.7,0,0,0,532.08,277.91ZM517,277.59H486.67l15.18-15.18Zm-66-21.77,21.77,21.77H429.26Zm-173.74-.93,22.7,22.7h-45.4Zm-32.38,22.7h-32.7l16.35-16.35Z"/><path d="M384.79,249.59c.44-4.89,1.45-16.6,1.45-20.68,0-5.2-.74-11.4-4-15.36s-3.47-7.68-6.94-4.21-4.95,5.95-6.93,6.44-5.45-.25-8.92,2-3.47,3.47-1,6.44,6.19,3.47,6.94,9.42c.68,5.44.39,15.41.33,19.52C371.6,251.93,377.92,250.58,384.79,249.59Z"/><path d="M322.94,173.29c-5.78,8.1-7.3,23.44.38,29.88s16.38,12.89,23.07,7.44c0,0-1.44,4.42-4.41,5.17,0,0,10.28,4.38,14.24-.25,2.52-2.95,6.49-3.47,9.71-4.95s6.44-3.22,5.7-6.69-1.49-4.95-1.74-7.68-3.22-5-7.92-6.94-6.2,3.72-12.64,4.71a30.42,30.42,0,0,0,7.68-8.92c3-5.45,2.48-5.94,4.46-7.92s4.7-8.41,2.24-13.61a102.94,102.94,0,0,0-27.35-1.61A39.18,39.18,0,0,0,322.94,173.29Z"/><path d="M357.92,235.71c0-3.08-1.15-7.54-4.37-9.53s-6.45-2-11.9-3A26.43,26.43,0,0,1,329.27,217c-3-2.48-5.45-7.68-7.19-6.44s-3.22,3.22-3.22,9.41-1.23,9.17,1,12.64a15.62,15.62,0,0,1,3,9.41c0,2.76-.11,10.41-.15,13.44,12.62,1.13,26.21.84,35.28-.79C358,250.63,357.92,238.27,357.92,235.71Z"/><path d="M289.63,219c4-2.23,8.42-8.92,9.17-12.63s-.75-8.18-.75-8.18,5.45,7.19,9.67,5.7,4.46-6.69,4.7-11.89a36,36,0,0,1,4.71-15.61c2.38-3.81,4.38-11.36,4.53-11.94-10.49,2.89-18.68,7.7-24.1,13.25-8,8.2-15.58,17.19-15.58,36.63,0,0,0,.19,0,.51C282.88,216.24,286.25,220.91,289.63,219Z"/><path d="M421.67,229.16c-.5-3.47-3.22-8.43-6.94-11.4s-4.46-1.24-9.91-2.72-10.9-4.21-12.63-4.21-4.95-.75-3.22,3,3.72,4.46,3.47,14.12c-.19,7.42.1,16.77.25,20.72a121.63,121.63,0,0,1,20.12-.23c2.85.21,5.5.27,7.95.22C421.11,244.42,422.08,232,421.67,229.16Z"/><path d="M315.15,235.6c0-3-1.74-4-1.49-9.66s3.22-14.37-1.48-15.36-6.94-1.24-10.16,3-7.43,7.93-7.68,15.11c-.22,6.4,1.48,15,1.86,20.67a30.38,30.38,0,0,0,6,2.54,88.89,88.89,0,0,0,12.47,2.66C314.77,250.58,315.15,238.1,315.15,235.6Z"/><path d="M429.35,211.57c-5.45-2.73-9.91-3-14.37-6.69s-12.88-4.95-12.88-4.95,6.44-1.74,9.41-1,6.94-1,3-3.23-5.7-7.43-5.7-11.64c0,0,3.22,7.19,7.18,8.18,3.3.82,6.64-4.17,8.09-5.58h0l.5-.47c-13.61-9-30.1-14.71-50.81-20.35-2-.54-3.89-1-5.8-1.43.08.41,1.14,6.46-.77,11.49-2,5.2-4.21,7.92-2.23,9.41s8.18.74,10.65,2.48,5.45,1.48,8.18,1.48,4.7,3.47,4.7,3.47a11.21,11.21,0,0,0-8.67-1c-4.7,1.49-5.45,6.69-4,8.18s6.94,5.69,12.63,5.2,11.4,2.48,15.86,4.46,7.43.49,10.16,3.47,5.69,7.67,10.65,10.65,10.65,1.48,11.39-1.74S434.8,214.29,429.35,211.57Z"/><path d="M436.78,196.08a74.94,74.94,0,0,0-6.64-5.85l-.68-.51-.21.15c-1.2.9-8.61,6.58-9.07,9.31-.49,3,3,4,6.44,2.73s6.43-5.37,10.15-5.83Z"/><path d="M447.08,213.72c-.57-3.16-2-8.66-8.53-15.79h0s-4.48,2-4.48,4.72.74,4.46,4,7.43,4.46,4.46,4.21,7.93,2.77,4,5.3.07A39.7,39.7,0,0,0,447.08,213.72Z"/><path d="M469.93,159.42c5.31,22.57.11,29.09-10.62,37.83,19.25-28.54-15.93-42.48,19.25-76.33-19.09,2.87-34.65,13-46.12,26.29-5.17-38.89-23.4-77.5-40.86-91,19.42,35.85,14.19,70.2-5.22,82.9,13.44-50-6.73-92.6-56-119.49,41.07,55.27-19.42,59-18,124.19-.3-22.54-14.11-28.6-5.14-62.2-15,23.11-24.52,43.89-29.4,62.28a107.93,107.93,0,0,0-15.2-17.21c21.89,46.89-11.79,48.64-2.22,78.81-9.69-10.22-13.41-19.67-7-43.13-25.18,39.41-19,83.49,23.89,82.23,1.1,0,2.15-.12,3.17-.24A34.23,34.23,0,0,1,278,240a60.85,60.85,0,0,1-2.63-7s-12.35-1.2-19.14-17.19c4.88,5.4,10.54,8.47,16.26,7.52,0,0-.18-7.28.48-15.2s3-11.38,3-11.38a23.41,23.41,0,0,1,.33-15.92c2.74-6.75,3.63-15.83,1.32-23.42,2.15,2.81,4.95,7.26,5.28,15.51a117.82,117.82,0,0,1-.11,11.92,70.32,70.32,0,0,1,9.2-11.54c-.77-4.22-4.08-25.58,3.45-47.89,0,0,.66,10.23,4,16.33a68.16,68.16,0,0,1,6.37,21.17,72.72,72.72,0,0,1,22.24-7.3l.58-.09c4.27-54.48,34.72-44.12,33.49-79.26,13.74,27.71,8.4,56.23-2.41,79.33,2.21.34,4.3.71,4.3.71,3.73.69,7.51,1.54,11.33,2.58,8.34,2.27,16.34,4.54,23.93,7.15,7.45-4.7,13.92-11.81,15.45-28.4A190,190,0,0,1,419,174.26a99.73,99.73,0,0,1,11.89,7.2c6.08-6.6,11-13.52,12.31-20.74,1.62,17,2.28,26.85,2,33.65,4.93,5.85,8,11.84,9,17.92a36.79,36.79,0,0,1,.41,3.66,24.86,24.86,0,0,0,15.31-10.73c-1.48,8-7.39,14.25-15.16,18.74a81.81,81.81,0,0,1-1.24,13.16C481.32,231.05,490.94,199.84,469.93,159.42Z"/><path d="M444.45,240.44c.13-.16.23-.32.34-.47s.19-.26.27-.39.2-.36.29-.54.12-.2.16-.3a4.63,4.63,0,0,0,.3-.8c.1-.36.19-.75.28-1.15,0-.12.06-.24.08-.36.07-.31.13-.62.19-.94,0-.13.05-.25.07-.38.07-.44.15-.89.22-1.36a.28.28,0,0,1,0-.09c.06-.44.12-.89.17-1.36l.06-.47c0-.36.08-.72.11-1.08,0-.16,0-.32.05-.48,0-.5.09-1,.12-1.52,0-.07,0-.15,0-.23,0-.44.06-.89.08-1.33l0-.56c0-.32,0-.63.05-.94-2.87,3.16-10,5.07-17,3.89-1.08-.19-2,.9-2.08,2L427.05,248c.58-.07,1.15-.16,1.7-.25l.84-.15,1.58-.32.78-.18,1.44-.37.72-.22c.45-.13.88-.27,1.3-.42.23-.07.45-.16.67-.24l1.16-.45.62-.27c.35-.16.7-.32,1-.49s.38-.19.57-.3.6-.32.89-.49l.52-.33c.26-.17.52-.33.76-.5l.48-.36.63-.49.43-.4c.17-.15.35-.31.51-.47s.26-.28.38-.42Z"/><path d="M138.82,420a48,48,0,0,1,0-96s19.93.23,34,14.25l-13.55,13.55a28,28,0,0,0-20.36-8.44,27.42,27.42,0,0,0-20.29,8.44,28,28,0,0,0-8.45,20.36A28.75,28.75,0,0,0,138.87,401a27.82,27.82,0,0,0,20.42-8.44l13.55,13.55A47.77,47.77,0,0,1,138.82,420Z"/><path d="M208.47,324.82v37.84h31.61V324.82H259v94.56H240.08V381.49H208.47v37.89H189.52V324.82Z"/><path d="M276.1,324.82h19v94.56h-19Z"/><path d="M331,324.82v75.67h38v18.89H312V324.82Z"/><path d="M404.61,324.82v75.67h38v18.89h-57V324.82Z"/><path d="M608.74,400.77c5.24,0,11-4.36,11-9.61,0-8.63-11.59-9.84-18.13-12.1-11.53-3.93-21.71-13.4-21.71-26.28a28.85,28.85,0,0,1,57.42-4l-18.87,4a9.6,9.6,0,0,0-19.19.06c0,8.52,10.78,10.79,17.35,12.74,11.93,3.44,22.46,12.53,22.46,25.69,0,16-14.31,28.83-30.23,28.83-14.63,0-27.85-10.73-30-24.81l18.87-4c0,5.28,5.74,9.58,11.07,9.58Z"/><path d="M561,374.49c-3.51-17.61-14-39.72-26.44-48-10.78-7.14-23.47-6.39-40.57,11l-1.55,1.55c-.52.5-1,1-1.56,1.56a126.15,126.15,0,0,0-9.73,10.76s-14,18.36-17.53,37.46,1.16,31.1,16.57,31.1c26.76,0,31.42-11.83,41.41-12.36,14-.75,20.08,13.86,28.36,7.11a19.8,19.8,0,0,0,2.23-2.16,19.14,19.14,0,0,0,1.56-1.56,18.89,18.89,0,0,0,1.55-1.55C562.55,403,564.36,391.56,561,374.49Zm-78.24-14.62a177,177,0,0,1,14.82-19.76c15-14.08,25.46-15.29,34.17-10.86s16.07,16.29,18.53,25.75,1,15.67-4.47,19.1c-5.8,3.63-10-4.22-19.87-3.82-7,.29-10.27,6.64-29,6.64C486.07,376.92,477.26,368.67,482.72,359.87Zm21,47.61c-5.19,3.52-16.51,4.25-24.68,2.41s-9.12-12.76-8-20.34,1.64-11.1,4.56-12.75c2.12-1.21,6.13.73,6.13.73,3.3,1.67,9.12,6.11,15.56,5.92a44.62,44.62,0,0,0,21.85-6.84c6.76-4.44,11.17-.55,11.64,2s-.47,3.89-9,7.58S508.94,404,503.75,407.48Zm54.39-18.82c-.17,6.66-2.76,13.32-6.64,15.61s-9.23-1.53-13.11-3.81-8.41-4.38-13.27-2.09-9.55,2.66-7.93-3.24,9.06-8.18,9.06-8.18c11.82-1.91,6.31-9.9,17.16-7.62,5,1.06,5.5-5.71,10.68-5.13C556.84,374.5,558.3,382,558.14,388.66Z"/><path d="M530.7,342.24c-1.83-6.85-13.05-6.22-18.33-1.56s-4.66,14.29,2.49,16.15S534.43,356.21,530.7,342.24Z"/><path d="M120.28,490l26.82-36.81v56.09h-11V486.54l-15.81,21.83-15.84-21.83v22.71h-11V453.16Z"/><path d="M187,454.31v11h-22v11h16.52v11H164.92v11.05h22v10.95h-33v-55Z"/><path d="M218.42,453.33l25,55.92H231.5l-3.7-8.33H209l-3.7,8.33h-11.9Zm5,37.87-5-11.6-5.07,11.6Z"/><path d="M275.66,454.45v10.91H262.2v43.89h-11V465.36h-13.5V454.45Z"/><path d="M334.21,454.31v44H356.3v11H323.17V454.31Z"/><path d="M410.73,462.09a27.72,27.72,0,1,1-19.7-8.22A26.88,26.88,0,0,1,410.73,462.09Zm-31.53,7.84a16.71,16.71,0,0,0,23.62,23.65,16.71,16.71,0,1,0-23.62-23.65Z"/><path d="M524.29,484.69V454.18h11.08v56.21l-33.13-31.57v30.51H491.19V453.16Z"/><path d="M570.34,454a28.08,28.08,0,0,1,19.74,8.15L582.2,470a16.26,16.26,0,0,0-11.79-4.94,16,16,0,0,0-11.8,4.94,16.73,16.73,0,0,0,0,23.66,16,16,0,0,0,11.8,4.91A16.66,16.66,0,0,0,585.47,489H569.79V478.41H598c.78,10.27-2.59,17.73-8,23.12a27,27,0,0,1-19.7,8.14,27.86,27.86,0,0,1-27.85-27.85,27,27,0,0,1,8.18-19.73,26.6,26.6,0,0,1,19.67-8.22Z"/><path d="M637.76,454.18v11H615.67v11.08h16.57v11H615.67v11.08h22.09v11H604.63V454.18Z"/><path d="M472.91,456.76l2.58-3.36H427.25l2.57,3.36c.13.16,12.78,16.66,14.63,19.52,1.64,2.52,2.32,5,2.32,14.08,0,6.61-1.2,8.45-1.4,8.72-1.87,1.28-6.86,4.66-8.06,5.3l-7.21,3.92h42.54l-7.22-3.92c-1.07-.58-5.38-3.48-8.05-5.3-.2-.27-1.4-2.11-1.4-8.72,0-9.05.68-11.56,2.32-14.08C460.14,473.42,472.79,456.92,472.91,456.76Zm-19.22,17.45a15.64,15.64,0,0,0-2.32,5.87,15.64,15.64,0,0,0-2.32-5.87c-1.16-1.79-11.65-15.81-11.65-15.81a39.34,39.34,0,0,0,5.22.11c.55,0,.88,0,.88,0,3.8-.12,7.7-.28,11.61,1.08,2.89,1,5.43,2.17,7.62,2.54C462.73,462.11,454.54,472.9,453.69,474.21Z"/></svg>