<svg id="Layer_1" data-name="Layer 1" xmlns="http://www.w3.org/2000/svg" viewBox="0 0 630 530"><defs><style>.cls-1{opacity:0.05;}</style></defs><path d="M315,265l0,0Z"/><g class="cls-1"><path d="M385.16,28.78C255.22-7.19,135,60.77,88.91,168.12c-15.79,30.36-19.83,83-19.83,83s20.13-44.94,60.8-85.35c6.65-6.6,25.74-29.49,55.73-40.25,0,.1,0,.21,0,.31a104.25,104.25,0,0,0,4.06,14.62,63.89,63.89,0,0,0,6.81,13.21,61.81,61.81,0,0,1-2-14.16,95.73,95.73,0,0,1,1-14c.57-3.82,1.33-7.6,2.24-11.32,4.54-10.71,13.74-28.77,27.4-38.61C245.37,61,255.29,60.17,260.35,64.62s6.07,19.84,4.86,33.4a134.27,134.27,0,0,1-2.2,14.79c-1,3.94-2.26,7.85-3.69,11.7a97,97,0,0,1-5.94,12.72,61,61,0,0,1-8.58,11.43,64.06,64.06,0,0,0,12.35-8.27,104.62,104.62,0,0,0,10.61-10.85c1.81-2.17,3.55-4.41,5.22-6.7,7.59.27,17.19,1.2,24.41,3.92,14,5.26,26.92,10.73,48.58,28.13,0,0-4.25-5.83-8.43-11.37-4.42-5.85-4.53-12.71-1.89-19s18.21-35,47.56-35.62c0,0,8.5,6.88,6.68,23.68s-7.08,28.34-12.75,36.23c-2.41,3.35-5.36,7.25-8,10.63a11.17,11.17,0,0,0,1.2,14.93c6.82,6.46,19,17.75,22.49,27,0,0-3.58,17.64-19,38.49s-31.58,27.93-31.58,27.93,34.47-3.92,56.27-32c21.29-27.39,46.11-55.45,44.13-127.92,0,0,15.92,19.71,15.38,73.41s-5.13,70.17-5.67,77.72,4.32,15.66,3,28.88c-1,9.51-2.08,22.51-2.63,29.06a8.6,8.6,0,0,0,2.68,7l10.63,10a17.14,17.14,0,0,1,4,19.26l-17.84,41.44a23.67,23.67,0,0,1-14.42,13.17c-18.46,6-59.27,17.47-101.7,17.47-57.49,0-85-15.11-105-29.14,0,0,16.19,22.4,65,36.7,18.42,5.39,41.45,8,63,9.21,20.83,1.14,25,30.08,5.36,37a147.56,147.56,0,0,1-42.72,8.53c-60.72,2.7-91.75-.54-151.39-33.46-22.58-12.46-41-29.41-55.12-45.66A245.56,245.56,0,0,0,315,510.92c157.39,0,280.25-147.86,237.25-312.25A239.12,239.12,0,0,0,385.16,28.78Z"/><path d="M397.56,372.91S414.63,349,393,343.63C375.75,339.35,344.29,372,344.29,372S392.52,346.33,397.56,372.91Z"/><path d="M231.18,256.28s-3.14,19.91,6.29,28.3,28.31,5.24,33.55,1.05C271,285.63,245.92,282.23,231.18,256.28Z"/></g><path d="M85.87,104.67A47.14,47.14,0,0,1,51.58,90.52,46.78,46.78,0,0,1,37.32,56.18,47.15,47.15,0,0,1,51.58,21.77,46.78,46.78,0,0,1,85.87,7.45s20.19.23,34.4,14.44L106.55,35.62a28.36,28.36,0,0,0-20.62-8.56,27.76,27.76,0,0,0-20.56,8.56,28.32,28.32,0,0,0-8.56,20.62,28.1,28.1,0,0,0,8.56,20.62,28,28,0,0,0,20.56,8.49,28.2,28.2,0,0,0,20.68-8.55l13.72,13.72A48.33,48.33,0,0,1,85.87,104.67Z"/><path d="M156.43,8.22V46.55h32V8.22h19.2V104h-19.2V65.63h-32V104h-19.2V8.22Z"/><path d="M224.94,8.22h19.25V104H224.94Z"/><path d="M280.52,8.22V84.88H319V104H261.27V8.22Z"/><path d="M355.13,8.22V84.88h38.5V104H335.87V8.22Z"/><path d="M561.91,85.16c5.32,0,11.19-4.42,11.19-9.74,0-8.74-11.74-10-18.36-12.26-11.68-4-22-13.57-22-26.61a29.23,29.23,0,0,1,58.17-4l-19.12,4a9.72,9.72,0,0,0-19.44.06c0,8.63,10.93,10.92,17.58,12.9C582,53,592.68,62.2,592.68,75.54c0,16.15-14.5,29.2-30.62,29.2-14.82,0-28.21-10.87-30.39-25.13l19.12-4.07c0,5.35,5.81,9.7,11.21,9.7Z"/><path d="M513.44,60.44c-3.85-19.32-15.38-43.58-29-52.62C472.6,0,458.67.8,439.91,19.92c-.57.55-1.14,1.12-1.71,1.7s-1.14,1.13-1.71,1.71a139.06,139.06,0,0,0-10.68,11.81s-15.39,20.15-19.23,41.11,1.27,34.13,18.18,34.13c29.37,0,34.48-13,45.45-13.57,15.38-.82,22,15.21,31.11,7.81a22.06,22.06,0,0,0,2.46-2.37,21.1,21.1,0,0,0,1.7-1.71,19.71,19.71,0,0,0,1.71-1.71C515.18,91.69,517.17,79.18,513.44,60.44Zm-85.86-16a194.35,194.35,0,0,1,16.27-21.69C460.26,7.27,471.78,5.94,481.34,10.8S499,28.68,501.67,39.05s1.15,17.2-4.9,21c-6.37,4-11-4.63-21.8-4.19-7.69.31-11.28,7.28-31.86,7.28C431.26,63.11,421.59,54.06,427.58,44.41Zm23.08,52.24c-5.7,3.86-18.12,4.67-27.09,2.64s-10-14-8.8-22.32,1.8-12.18,5-14c2.32-1.32,6.72.81,6.72.81,3.63,1.82,10,6.69,17.08,6.49a49,49,0,0,0,24-7.51c7.42-4.87,12.25-.6,12.77,2.24s-.52,4.26-9.83,8.31S456.35,92.8,450.66,96.65ZM510.34,76c-.18,7.31-3,14.62-7.28,17.12S492.94,91.45,488.67,89s-9.23-4.81-14.56-2.3-10.48,2.92-8.7-3.55,9.94-9,9.94-9c13-2.09,6.93-10.86,18.83-8.36,5.49,1.16,6-6.26,11.72-5.64C508.92,60.46,510.52,68.69,510.34,76Z"/><path d="M480.23,25.05c-2-7.51-14.31-6.82-20.11-1.7S455,39,462.85,41.07,484.32,40.39,480.23,25.05Z"/><path d="M37.11,503.71,67.49,462v63.54H55V499.82l-17.9,24.73L19.16,499.82v25.73H6.68V462Z"/><path d="M112.63,463.32v12.44h-25v12.51h18.72v12.44H87.67v12.52h25v12.4H75.19V463.32Z"/><path d="M148.27,462.2l28.35,63.35H163.1l-4.2-9.43H137.65l-4.2,9.43H120Zm5.7,42.9L148.31,492l-5.74,13.13Z"/><path d="M213.13,463.47v12.36H197.87v49.72H185.36V475.83H170.07V463.47Z"/><path d="M279.45,463.32v49.81h25v12.44H266.94V463.32Z"/><path d="M366.14,472.12a31.43,31.43,0,1,1-22.32-9.3A30.51,30.51,0,0,1,366.14,472.12ZM330.42,481a18.43,18.43,0,0,0-5.56,13.4,19,19,0,1,0,5.56-13.4Z"/><path d="M494.78,497.72V463.16h12.55v63.68l-37.54-35.76v34.56H457.28V462Z"/><path d="M546.94,462.93a31.83,31.83,0,0,1,22.36,9.23l-8.92,8.92a18.43,18.43,0,0,0-13.36-5.6,18.08,18.08,0,0,0-13.36,5.6,18.93,18.93,0,0,0,0,26.8A18,18,0,0,0,547,513.44a18.9,18.9,0,0,0,17.07-10.89H546.32V490.62h32c.89,11.63-2.93,20.08-9.08,26.18A30.57,30.57,0,0,1,546.9,526a31.58,31.58,0,0,1-31.55-31.55,30.64,30.64,0,0,1,9.27-22.36,30.16,30.16,0,0,1,22.28-9.3Z"/><path d="M623.32,463.16v12.48h-25v12.55h18.77v12.47H598.29v12.55h25v12.43H585.78V463.16Z"/><path d="M436.58,466.09l2.91-3.8H384.85l2.91,3.8c.15.19,14.47,18.87,16.57,22.11,1.85,2.86,2.63,5.71,2.63,15.95,0,7.49-1.36,9.58-1.59,9.88-2.12,1.45-7.77,5.28-9.12,6l-8.17,4.44h48.19L428.09,520c-1.21-.66-6.1-3.94-9.12-6-.23-.3-1.59-2.39-1.59-9.88,0-10.24.77-13.09,2.63-15.95C422.1,485,436.43,466.28,436.58,466.09ZM414.8,485.85a17.8,17.8,0,0,0-2.63,6.65,17.63,17.63,0,0,0-2.63-6.65c-1.31-2-13.2-17.9-13.2-17.9a46.56,46.56,0,0,0,5.92.13l1,0c4.31-.14,8.72-.32,13.16,1.22,3.27,1.14,6.15,2.46,8.62,2.88C425,472.15,415.76,484.38,414.8,485.85Z"/><path d="M480.4,389.94l-50.52-50.81a38.79,38.79,0,0,1-6.87,8l23.92,23.93-18.37,18.37a1.67,1.67,0,0,0-.12-.16L403.7,364.54l12.69-12.69a43.79,43.79,0,0,1-11.61,4.53l-33,33L351,368.71c-2.3.05-4.56.15-6.76.32l20.6,20.6H321.49l20.36-20.37c-2.78.27-5.48.62-8.1,1l-19.13,19.12-13.36-13.35q-3.17.29-6.65.43l13.14,13.14H264.37l13.3-13.3c-2.23-.12-4.43-.29-6.58-.5l-13.58,13.58-25.58-25.57h-.06c-1.31.14-2.53.23-3.71.27l-2,0c-.69,0-1.36,0-2-.06l-23.24,23.25L183.47,369.9l14.45-14.45a36.31,36.31,0,0,1-7.35-7.6l-42.4,42.78,0,.44a3.64,3.64,0,0,0-.78,2.23V399a3.67,3.67,0,0,0,3.68,3.67H478.91a3.67,3.67,0,0,0,3.68-3.67V393.3A3.68,3.68,0,0,0,480.4,389.94Zm-14.9-.31H435.44l15-15Zm-65.34-21.55,21.55,21.55h-43.1Zm-172-.92,22.47,22.47H205.7Zm-32,22.47H163.74l16.19-16.19Z"/><path d="M423.91,272.65c5.26,22.34.11,28.8-10.51,37.45,19.05-28.25-15.77-42.05,19.05-75.56-18.89,2.84-34.29,12.92-45.65,26-5.12-38.5-23.16-76.72-40.45-90.09,19.23,35.49,14,69.5-5.17,82.06,13.31-49.53-6.66-91.67-55.44-118.28,40.66,54.7-19.23,58.4-17.82,122.93-.3-22.31-14-28.3-5.1-61.57-14.88,22.88-24.27,43.45-29.1,61.66a106.68,106.68,0,0,0-15.05-17c21.67,46.42-11.67,48.15-2.2,78-9.59-10.12-13.28-19.48-6.95-42.7-24.93,39-18.83,82.65,23.65,81.4,1.09,0,2.12-.12,3.13-.23a34.19,34.19,0,0,1-2.38-4.3,60.08,60.08,0,0,1-2.61-6.95s-12.23-1.19-18.94-17c4.82,5.35,10.43,8.38,16.09,7.45,0,0-.17-7.21.48-15s3-11.27,3-11.27a23,23,0,0,1,.33-15.75c2.7-6.68,3.59-15.68,1.3-23.19,2.13,2.78,4.9,7.19,5.23,15.35.26,6.61-.11,11.8-.11,11.8a69.2,69.2,0,0,1,9.11-11.42c-.77-4.18-4-25.33,3.41-47.41,0,0,.65,10.13,3.92,16.17a67.27,67.27,0,0,1,6.3,20.95,72.37,72.37,0,0,1,22-7.22l.58-.09c4.22-53.94,34.37-43.68,33.15-78.47,13.6,27.44,8.31,55.67-2.39,78.54,2.19.33,4.26.7,4.26.7,3.7.68,7.44,1.52,11.21,2.55,8.27,2.25,16.18,4.5,23.7,7.08,7.37-4.65,13.77-11.69,15.29-28.11a188.44,188.44,0,0,1,4.18,36.28,97.87,97.87,0,0,1,11.78,7.13c6-6.54,10.91-13.39,12.19-20.53,1.6,16.85,2.25,26.57,2,33.31,4.87,5.79,7.87,11.72,9,17.74a33.15,33.15,0,0,1,.41,3.62A24.6,24.6,0,0,0,423.91,318c-1.46,7.88-7.31,14.12-15,18.56a81.33,81.33,0,0,1-1.23,13C435.19,343.56,444.72,312.66,423.91,272.65Z"/><path d="M397.74,333.14v-.56c0-.44,0-.87,0-1.29a38.92,38.92,0,0,0-.43-5c-.55-3-2.21-8.56-8.35-15.49h0c-.55-.62-1.14-1.26-1.78-1.91h0a71.47,71.47,0,0,0-7.18-6.41c-.78-.61-1.57-1.2-2.37-1.78s-1.54-1.09-2.32-1.62h0c-13.64-9.2-30.12-14.48-51.09-20.18-1.68-.46-3.33-.87-5-1.24h0l0,0c-1.31-.3-4-.86-4.1-.88h0a109.24,109.24,0,0,0-18.4-2.09h.16c-.11,0-.22,0-.33,0-.77,0-1.54,0-2.29,0l-1,0-1.13,0c-.93,0-1.85,0-2.75.1l-1.11.07c-.9.06-1.78.13-2.65.21l-1.08.12c-.86.09-1.7.2-2.53.31l-1.07.16q-1.22.19-2.4.42l-1.05.21c-.77.15-1.52.32-2.27.5l-1,.25c-.73.19-1.45.39-2.15.59l-1,.3c-.69.21-1.36.43-2,.66-.34.11-.67.22-1,.34-.65.23-1.28.48-1.9.73-.32.13-.65.25-1,.39-.61.25-1.19.51-1.77.78l-.94.43-1.65.84-.9.48-1.53.88c-.29.18-.58.34-.86.52-.49.3-1,.62-1.42.93l-.82.55c-.46.32-.89.66-1.33,1-.25.18-.5.36-.74.55-.45.36-.88.74-1.31,1.11l-.59.51c-.61.54-1.19,1.1-1.75,1.67-7.92,8.11-15.85,17.56-15.85,36.82,0,0-.11,1.42-.18,3.51,0,.69-.05,1.46-.06,2.28,0,.41,0,.83,0,1.26,0,.86,0,1.75,0,2.65s.05,1.79.1,2.67c.08,1.32.21,2.59.39,3.71.08.49.21,1.1.4,1.82a26.84,26.84,0,0,0,2.85,6.81,27.2,27.2,0,0,0,16,12.26c.67.21,1.37.4,2.09.59l.61.16,1.65.4.65.15,1.9.4.41.08a154.19,154.19,0,0,0,28.26,2.47,117.56,117.56,0,0,0,19.86-1.47c2.67-.49,5.46-1.06,8.36-1.67h0c5.87-1.23,12.23-2.56,19.16-3.52l3.21-.41.67-.07c1.11-.13,2.23-.24,3.36-.34,3.53-.31,7.18-.5,11-.5,2.76,0,5.59.09,8.5.31,2.2.16,4.27.23,6.22.23.84,0,1.64,0,2.43-.05h0l.25,0c.68,0,1.33-.06,2-.11l1-.06,1.84-.19.9-.11c.59-.07,1.15-.16,1.71-.25l.83-.15c.54-.1,1.06-.2,1.57-.32l.78-.17c.49-.12,1-.25,1.42-.38l.72-.21,1.29-.41.66-.24,1.15-.45.62-.27,1-.48.57-.3c.3-.16.6-.32.88-.49l.52-.33.75-.49.48-.36.62-.49c.16-.13.29-.26.43-.39s.35-.31.5-.47.26-.28.39-.42.27-.29.38-.44.23-.31.34-.46.19-.26.27-.39.2-.35.29-.53l.16-.3a5.54,5.54,0,0,0,.29-.8c.1-.35.19-.73.28-1.13,0-.12.05-.24.08-.36l.18-.93c0-.13.05-.25.07-.38.08-.44.15-.88.22-1.35,0,0,0-.05,0-.08q.09-.66.18-1.35c0-.16,0-.31,0-.47,0-.35.08-.71.11-1.08,0-.15,0-.31.05-.47,0-.49.09-1,.12-1.5,0-.08,0-.16,0-.24,0-.43.06-.87.08-1.32l0-.55c0-.35,0-.7.05-1.05,0-.18,0-.37,0-.56,0-.49,0-1,0-1.46,0-.13,0-.26,0-.39,0-.37,0-.74,0-1.11V334C397.75,333.73,397.75,333.44,397.74,333.14Zm-101.49,3.34c-19.83,4.47-49.38,4.72-54.41-12.58a30.49,30.49,0,0,1,6.92-25.16c10.06-11.64,26.1-18.25,33.65-16.05s7.87,7.24,8.18,15.73,6.61,13.84,10.7,17.93S313.71,332.55,296.25,336.48Zm3.53-32.35c-3.28-6-3.6-16.39.65-19.74s15.71-2.61,21.92,0,6.19,6.3,4.91,8.19c-3.27,4.84-7.2,3.35-10.14,7.45a35.52,35.52,0,0,0-4.26,6.71C310.57,311.21,303.05,310.09,299.78,304.13Zm84.22,27c-5.38,3.47-20.24.63-26.25-.64a43.7,43.7,0,0,0-17.71.95c-9.8,2.53-17.71-.63-21.51-5.69s-1.26-15.5,5.38-22.77,20.56-9.49,29.1-7.59,20.24,7,28.46,16.44S389.38,327.64,384,331.12Z"/></svg>