<svg id="Layer_1" data-name="Layer 1" xmlns="http://www.w3.org/2000/svg" viewBox="0 0 630 530"><defs><style>.cls-1{opacity:0.05;}</style></defs><g class="cls-1"><path d="M385.16,28.78C255.22-7.19,135,60.77,88.91,168.12c-15.79,30.36-19.83,83-19.83,83s20.13-44.94,60.8-85.35c6.65-6.6,25.74-29.49,55.73-40.25,0,.1,0,.21,0,.31a104.25,104.25,0,0,0,4.06,14.62,63.89,63.89,0,0,0,6.81,13.21,61.81,61.81,0,0,1-2-14.16,95.73,95.73,0,0,1,1-14c.57-3.82,1.33-7.6,2.24-11.32,4.54-10.71,13.74-28.77,27.4-38.61C245.37,61,255.29,60.17,260.35,64.62s6.07,19.84,4.86,33.4a134.27,134.27,0,0,1-2.2,14.79c-1,3.94-2.26,7.85-3.69,11.7a97,97,0,0,1-5.94,12.72,61,61,0,0,1-8.58,11.43,64.06,64.06,0,0,0,12.35-8.27,104.62,104.62,0,0,0,10.61-10.85c1.81-2.17,3.55-4.41,5.22-6.7,7.59.27,17.19,1.2,24.41,3.92,14,5.26,26.92,10.73,48.58,28.13,0,0-4.25-5.83-8.43-11.37-4.42-5.85-4.53-12.71-1.89-19s18.21-35,47.56-35.62c0,0,8.5,6.88,6.68,23.68s-7.08,28.34-12.75,36.23c-2.41,3.35-5.36,7.25-8,10.63a11.17,11.17,0,0,0,1.2,14.93c6.82,6.46,19,17.75,22.49,27,0,0-3.58,17.64-19,38.49s-31.58,27.93-31.58,27.93,34.47-3.92,56.27-32c21.29-27.39,46.11-55.45,44.13-127.92,0,0,15.92,19.71,15.38,73.41s-5.13,70.17-5.67,77.72,4.32,15.66,3,28.88c-1,9.51-2.08,22.51-2.63,29.06a8.6,8.6,0,0,0,2.68,7l10.63,10a17.14,17.14,0,0,1,4,19.26l-17.84,41.44a23.67,23.67,0,0,1-14.42,13.17c-18.46,6-59.27,17.47-101.7,17.47-57.49,0-85-15.11-105-29.14,0,0,16.19,22.4,65,36.7,18.42,5.39,41.45,8,63,9.21,20.83,1.14,25,30.08,5.36,37a147.56,147.56,0,0,1-42.72,8.53c-60.72,2.7-91.75-.54-151.39-33.46-22.58-12.46-41-29.41-55.12-45.66A245.56,245.56,0,0,0,315,510.92c157.39,0,280.25-147.86,237.25-312.25A239.12,239.12,0,0,0,385.16,28.78Z"/><path d="M397.56,372.91S414.63,349,393,343.63C375.75,339.35,344.29,372,344.29,372S392.52,346.33,397.56,372.91Z"/><path d="M231.18,256.28s-3.14,19.91,6.29,28.3,28.31,5.24,33.55,1.05C271,285.63,245.92,282.23,231.18,256.28Z"/></g><path d="M390.81,212.38l0,0Z"/><path d="M482.6,295.77l-51.19-51.49a39.84,39.84,0,0,1-7,8.11l24.24,24.24-18.62,18.61-.12-.15L404.88,270l12.86-12.85A44.51,44.51,0,0,1,406,261.76L372.5,295.23l-21-21c-2.33.05-4.62.15-6.85.33l20.87,20.87h-44l20.64-20.64q-4.23.42-8.21,1l-19.39,19.38L301.08,281.7c-2.14.19-4.39.34-6.74.43l13.32,13.32h-44L277.17,282c-2.26-.13-4.49-.3-6.67-.51l-13.76,13.76-25.91-25.91h-.06c-1.34.15-2.57.24-3.76.28l-2,0c-.69,0-1.37,0-2.05-.06l-23.56,23.56-17.67-17.67,14.64-14.64a36.78,36.78,0,0,1-7.44-7.71l-43,43.36,0,.44a3.71,3.71,0,0,0-.79,2.26V305a3.73,3.73,0,0,0,3.73,3.73H481.09a3.73,3.73,0,0,0,3.73-3.73v-5.79A3.73,3.73,0,0,0,482.6,295.77Zm-15.1-.32H437.05l15.22-15.23Zm-66.21-21.84,21.84,21.84H379.46ZM227,272.68l22.77,22.77H204.25Zm-32.48,22.77H161.73L178.14,279Z"/><path d="M334.85,267.36c.44-4.9,1.46-16.65,1.46-20.74,0-5.22-.75-11.43-4-15.41s-3.47-7.7-6.95-4.22-5,6-7,6.46-5.47-.25-8.95,2-3.48,3.48-1,6.46,6.21,3.48,7,9.44c.68,5.46.39,15.46.34,19.58C321.62,269.71,328,268.36,334.85,267.36Z"/><path d="M272.81,190.83c-5.8,8.12-7.32,23.51.38,30s16.43,12.93,23.14,7.46c0,0-1.44,4.44-4.42,5.19,0,0,10.31,4.4,14.29-.26,2.52-2.95,6.5-3.47,9.73-5s6.46-3.23,5.72-6.71-1.49-5-1.74-7.7-3.23-5-8-7-6.21,3.73-12.67,4.72a30.57,30.57,0,0,0,7.7-8.94c3-5.47,2.48-6,4.47-8s4.72-8.43,2.24-13.64a103.58,103.58,0,0,0-27.43-1.62A39.44,39.44,0,0,0,272.81,190.83Z"/><path d="M307.9,253.44c0-3.09-1.16-7.57-4.39-9.55s-6.46-2-11.93-3a26.51,26.51,0,0,1-12.42-6.21c-3-2.48-5.47-7.7-7.21-6.46s-3.23,3.23-3.23,9.44-1.24,9.2,1,12.68a15.67,15.67,0,0,1,3,9.44c0,2.77-.11,10.45-.15,13.48,12.65,1.14,26.29.84,35.39-.79C307.93,268.41,307.9,256,307.9,253.44Z"/><path d="M239.4,236.68c4-2.24,8.45-9,9.19-12.67s-.74-8.2-.74-8.2,5.46,7.2,9.69,5.71,4.47-6.71,4.72-11.93A36.21,36.21,0,0,1,267,193.94c2.39-3.82,4.39-11.4,4.54-12-10.51,2.89-18.73,7.72-24.17,13.3-8,8.22-15.63,17.23-15.63,36.74,0,0,0,.18,0,.5C232.63,233.91,236,238.59,239.4,236.68Z"/><path d="M371.84,246.87c-.49-3.48-3.23-8.45-6.95-11.43s-4.48-1.25-9.94-2.74-10.94-4.22-12.68-4.22-5-.75-3.23,3,3.73,4.47,3.48,14.17c-.19,7.44.11,16.82.26,20.78a121.15,121.15,0,0,1,20.17-.23c2.87.21,5.52.27,8,.22C371.28,262.17,372.26,249.74,371.84,246.87Z"/><path d="M265,253.33c0-3-1.74-4-1.49-9.69s3.23-14.42-1.49-15.41-7-1.24-10.19,3-7.45,7.95-7.7,15.16c-.22,6.42,1.49,15.06,1.87,20.74a30.93,30.93,0,0,0,6,2.54,86.3,86.3,0,0,0,12.5,2.66C264.61,268.36,265,255.83,265,253.33Z"/><path d="M379.55,229.22c-5.47-2.73-9.94-3-14.41-6.7s-12.93-5-12.93-5,6.46-1.74,9.45-1,6.95-1,3-3.23-5.72-7.45-5.72-11.68c0,0,3.23,7.21,7.21,8.2,3.31.83,6.65-4.18,8.11-5.59h0l.5-.47c-13.65-9.07-30.19-14.76-51-20.42-2-.53-3.91-1-5.82-1.43.08.41,1.15,6.48-.77,11.52-2,5.22-4.23,7.95-2.24,9.44s8.2.75,10.69,2.49,5.46,1.49,8.2,1.49,4.72,3.48,4.72,3.48a11.24,11.24,0,0,0-8.7-1c-4.72,1.49-5.47,6.7-4,8.2s7,5.71,12.68,5.21,11.43,2.49,15.9,4.48,7.45.49,10.19,3.48,5.71,7.7,10.68,10.68,10.69,1.49,11.43-1.74S385,232,379.55,229.22Z"/><path d="M387,213.68a75.59,75.59,0,0,0-6.66-5.86l-.68-.51-.21.14c-1.21.91-8.64,6.61-9.1,9.35-.49,3,3,4,6.46,2.73s6.45-5.38,10.18-5.85Z"/><path d="M397.33,231.38c-.57-3.17-2-8.69-8.55-15.84h0s-4.49,2-4.49,4.73.74,4.47,4,7.45,4.48,4.48,4.23,8,2.78,4,5.32.06A39.84,39.84,0,0,0,397.33,231.38Z"/><path d="M420.25,176.92c5.33,22.63.11,29.18-10.65,37.94,19.31-28.62-16-42.61,19.31-76.56-19.15,2.87-34.76,13.09-46.26,26.36-5.19-39-23.47-77.73-41-91.28,19.48,36,14.24,70.42-5.24,83.15,13.49-50.19-6.74-92.89-56.18-119.86,41.2,55.44-19.48,59.18-18.06,124.57-.3-22.61-14.15-28.68-5.16-62.39-15.08,23.18-24.59,44-29.49,62.48a108.1,108.1,0,0,0-15.24-17.26c22,47-11.83,48.78-2.23,79.05-9.73-10.26-13.46-19.74-7.05-43.26-25.26,39.53-19.08,83.74,24,82.47,1.1,0,2.16-.11,3.18-.23a34.53,34.53,0,0,1-2.42-4.36,60.14,60.14,0,0,1-2.64-7s-12.39-1.2-19.19-17.24c4.89,5.42,10.57,8.49,16.3,7.54,0,0-.17-7.3.49-15.24s3.06-11.42,3.06-11.42a23.44,23.44,0,0,1,.33-16c2.74-6.77,3.64-15.88,1.32-23.49,2.16,2.81,5,7.28,5.3,15.55a116.57,116.57,0,0,1-.12,12,70.74,70.74,0,0,1,9.24-11.57c-.78-4.24-4.1-25.67,3.45-48,0,0,.67,10.26,4,16.38a68.33,68.33,0,0,1,6.39,21.24A73,73,0,0,1,278,173.08l.58-.09c4.28-54.66,34.82-44.26,33.59-79.51,13.78,27.79,8.43,56.41-2.42,79.58,2.22.33,4.32.71,4.32.71q5.61,1,11.36,2.58c8.37,2.28,16.39,4.56,24,7.18,7.47-4.72,14-11.85,15.5-28.5a191.24,191.24,0,0,1,4.23,36.77A99.57,99.57,0,0,1,381.05,199c6.1-6.62,11.06-13.56,12.35-20.8,1.63,17.08,2.29,26.93,2,33.75,4.94,5.87,8,11.88,9.08,18,.17,1,.31,2.23.41,3.67a25,25,0,0,0,15.35-10.77c-1.48,8-7.41,14.3-15.2,18.81a82,82,0,0,1-1.25,13.19C431.68,248.76,441.33,217.46,420.25,176.92Z"/><path d="M394.7,258.18l.34-.47c.09-.13.19-.26.27-.39s.2-.36.29-.54.12-.2.16-.3a4.43,4.43,0,0,0,.3-.81c.1-.36.19-.74.28-1.14,0-.12.06-.25.08-.37.07-.3.13-.62.19-.94,0-.13.05-.25.07-.38.08-.44.15-.9.22-1.36,0,0,0-.06,0-.09.06-.45.12-.9.18-1.37,0-.15,0-.31.05-.47l.12-1.09c0-.16,0-.31,0-.47.05-.51.09-1,.13-1.53,0-.08,0-.15,0-.23,0-.45.06-.89.09-1.34l0-.56c0-.32,0-.63,0-.94-2.87,3.17-10.07,5.09-17,3.9-1.09-.19-2,.91-2.08,2l-1.24,16.47c.59-.08,1.15-.16,1.71-.26l.84-.14,1.58-.32.79-.18,1.44-.38.73-.21,1.3-.42.67-.25c.4-.14.79-.3,1.16-.45l.63-.27c.35-.16.7-.32,1-.49l.58-.3c.3-.16.61-.33.89-.5l.53-.33c.26-.16.52-.33.76-.5l.48-.36.63-.49.43-.4c.18-.15.35-.31.51-.47s.26-.29.39-.43S394.58,258.33,394.7,258.18Z"/><path d="M99.4,426.82a44.32,44.32,0,0,1-32.26-13.31,45.69,45.69,0,0,1,0-64.69A44,44,0,0,1,99.4,335.34s19,.22,32.37,13.59l-12.91,12.92a26.7,26.7,0,0,0-19.41-8.06,26.13,26.13,0,0,0-19.34,8.06,27.4,27.4,0,0,0,0,38.8,27.45,27.45,0,0,0,38.8-.06l12.92,12.92A45.53,45.53,0,0,1,99.4,426.82Z"/><path d="M165.79,336.07v36.06h30.14V336.07H214V426.2H195.93V390.08H165.79V426.2H147.73V336.07Z"/><path d="M230.25,336.07h18.12V426.2H230.25Z"/><path d="M282.56,336.07V408.2h36.23v18H264.44V336.07Z"/><path d="M352.76,336.07V408.2H389v18H334.64V336.07Z"/><path d="M547.33,408.46c5,0,10.53-4.16,10.53-9.16,0-8.23-11.05-9.38-17.28-11.54-11-3.74-20.7-12.76-20.7-25a27.51,27.51,0,0,1,54.74-3.8l-18,3.8a9.15,9.15,0,0,0-18.29.06c0,8.12,10.28,10.28,16.54,12.14,11.37,3.28,21.4,11.94,21.4,24.49,0,15.2-13.64,27.48-28.81,27.48-13.94,0-26.55-10.23-28.6-23.65l18-3.83c0,5,5.47,9.13,10.55,9.13Z"/><path d="M501.72,385.2c-3.62-18.18-14.47-41-27.3-49.51-11.13-7.38-24.23-6.6-41.89,11.38-.53.52-1.07,1.06-1.61,1.61s-1.06,1.06-1.6,1.6a131.72,131.72,0,0,0-10.06,11.12s-14.47,19-18.09,38.68,1.19,32.11,17.11,32.11c27.63,0,32.44-12.21,42.76-12.76,14.48-.78,20.73,14.31,29.28,7.35a148.32,148.32,0,0,0,3.91-3.85,18.7,18.7,0,0,0,1.61-1.6C503.36,414.6,505.23,402.84,501.72,385.2Zm-80.79-15.08a183,183,0,0,1,15.31-20.41c15.45-14.54,26.28-15.79,35.27-11.22s16.6,16.83,19.14,26.59,1.08,16.18-4.61,19.73c-6,3.74-10.38-4.36-20.52-3.95-7.23.3-10.61,6.86-30,6.86C424.39,387.72,415.29,379.2,420.93,370.12Zm21.72,49.16c-5.36,3.62-17,4.39-25.49,2.48s-9.42-13.17-8.28-21,1.69-11.46,4.71-13.17c2.19-1.24,6.33.76,6.33.76,3.41,1.72,9.41,6.3,16.07,6.11a46.15,46.15,0,0,0,22.56-7.06c7-4.58,11.53-.57,12,2.1s-.49,4-9.26,7.83S448,415.65,442.65,419.28Zm56.16-19.44C498.64,406.72,496,413.6,492,416s-9.52-1.58-13.53-3.94-8.69-4.52-13.71-2.16-9.86,2.75-8.18-3.34,9.35-8.45,9.35-8.45c12.2-2,6.52-10.22,17.72-7.86,5.16,1.09,5.68-5.89,11-5.3C497.47,385.22,499,393,498.81,399.84Z"/><path d="M470.47,351.9c-1.88-7.06-13.47-6.41-18.92-1.6s-4.81,14.75,2.57,16.68S474.32,366.34,470.47,351.9Z"/><path d="M81.73,484.71l25.57-35.1v53.47H96.8V481.43L81.73,502.24l-15.1-20.81v21.65H56.13V449.61Z"/><path d="M145.28,450.71v10.47h-21v10.53H140v10.47H124.28v10.53h21v10.44h-31.5V450.71Z"/><path d="M175.27,449.77l23.85,53.31H187.75l-3.53-7.94H166.33l-3.53,7.94H151.45Zm4.8,36.1-4.76-11.05-4.83,11.05Z"/><path d="M229.84,450.84v10.4H217v41.84H206.48V461.24H193.61v-10.4Z"/><path d="M285.65,450.72v41.91h21.06v10.46H275.12V450.72Z"/><path d="M358.59,458.12a26.44,26.44,0,1,1-18.78-7.83A25.67,25.67,0,0,1,358.59,458.12Zm-30,7.48a15.93,15.93,0,0,0,22.51,22.55,15.93,15.93,0,1,0-22.51-22.55Z"/><path d="M466.84,479.67V450.59H477.4v53.58l-31.58-30.09v29.08H435.29V449.61Z"/><path d="M510.73,450.39a26.74,26.74,0,0,1,18.82,7.77l-7.51,7.5A15.48,15.48,0,0,0,510.8,461a15.19,15.19,0,0,0-11.24,4.71,15.92,15.92,0,0,0,0,22.55,15.17,15.17,0,0,0,11.24,4.68,15.89,15.89,0,0,0,14.36-9.16H510.21v-10h26.91c.75,9.79-2.47,16.89-7.64,22a25.74,25.74,0,0,1-18.78,7.76,26.56,26.56,0,0,1-26.55-26.54,25.8,25.8,0,0,1,7.8-18.82,25.39,25.39,0,0,1,18.75-7.83Z"/><path d="M575,450.59v10.49H553.94v10.56h15.8v10.5h-15.8V492.7H575v10.46H543.42V450.59Z"/><path d="M417.87,453.05l2.45-3.2h-46l2.45,3.2c.12.15,12.18,15.88,13.94,18.6,1.56,2.41,2.21,4.81,2.21,13.42,0,6.3-1.14,8.06-1.33,8.31-1.78,1.22-6.54,4.45-7.68,5.06l-6.87,3.74h40.55l-6.88-3.74c-1-.55-5.14-3.32-7.68-5.06-.19-.25-1.34-2-1.34-8.31,0-8.62.65-11,2.22-13.42C405.69,468.93,417.74,453.2,417.87,453.05Zm-18.33,16.63a14.93,14.93,0,0,0-2.21,5.59,14.93,14.93,0,0,0-2.21-5.59C394,468,384,454.61,384,454.61a37.42,37.42,0,0,0,5,.11c.52,0,.84,0,.84,0,3.62-.11,7.33-.26,11.06,1a55,55,0,0,0,7.26,2.43S400.35,468.43,399.54,469.68Z"/></svg>