<svg id="Layer_1" data-name="Layer 1" xmlns="http://www.w3.org/2000/svg" viewBox="0 0 730 530"><defs><style>.cls-1{opacity:0.05;}</style></defs><g class="cls-1"><path d="M435.16,28.78c-129.94-36-250.19,32-296.25,139.34-15.79,30.36-19.83,83-19.83,83s20.13-44.94,60.8-85.35c6.65-6.6,25.74-29.49,55.73-40.25,0,.1,0,.21,0,.31a104.25,104.25,0,0,0,4.06,14.62,63.89,63.89,0,0,0,6.81,13.21,61.81,61.81,0,0,1-2-14.16,95.73,95.73,0,0,1,1-14c.57-3.82,1.33-7.6,2.24-11.32,4.54-10.71,13.74-28.77,27.4-38.61C295.37,61,305.29,60.17,310.35,64.62s6.07,19.84,4.86,33.4a134.27,134.27,0,0,1-2.2,14.79c-1,3.94-2.26,7.85-3.69,11.7a97,97,0,0,1-5.94,12.72,61,61,0,0,1-8.58,11.43,64.06,64.06,0,0,0,12.35-8.27,104.62,104.62,0,0,0,10.61-10.85c1.81-2.17,3.55-4.41,5.22-6.7,7.59.27,17.19,1.2,24.41,3.92,14,5.26,26.92,10.73,48.58,28.13,0,0-4.25-5.83-8.43-11.37-4.42-5.85-4.53-12.71-1.89-19s18.21-35,47.56-35.62c0,0,8.5,6.88,6.68,23.68s-7.08,28.34-12.75,36.23c-2.41,3.35-5.36,7.25-8,10.63a11.17,11.17,0,0,0,1.2,14.93c6.82,6.46,19,17.75,22.49,27,0,0-3.58,17.64-19,38.49s-31.58,27.93-31.58,27.93,34.47-3.92,56.27-32c21.29-27.39,46.11-55.45,44.13-127.92,0,0,15.92,19.71,15.38,73.41s-5.13,70.17-5.67,77.72,4.32,15.66,3,28.88c-1,9.51-2.08,22.51-2.63,29.06a8.6,8.6,0,0,0,2.68,7l10.63,10a17.14,17.14,0,0,1,4,19.26l-17.84,41.44a23.67,23.67,0,0,1-14.42,13.17c-18.46,6-59.27,17.47-101.7,17.47-57.49,0-85-15.11-105-29.14,0,0,16.19,22.4,65,36.7,18.42,5.39,41.45,8,63,9.21,20.83,1.14,25,30.08,5.36,37a147.56,147.56,0,0,1-42.72,8.53c-60.72,2.7-91.75-.54-151.39-33.46-22.58-12.46-41-29.41-55.12-45.66A245.56,245.56,0,0,0,365,510.92c157.39,0,280.25-147.86,237.25-312.25A239.12,239.12,0,0,0,435.16,28.78Z"/><path d="M447.56,372.91S464.63,349,443,343.63C425.75,339.35,394.29,372,394.29,372S442.52,346.33,447.56,372.91Z"/><path d="M281.18,256.28s-3.14,19.91,6.29,28.3,28.31,5.24,33.55,1.05C321,285.63,295.92,282.23,281.18,256.28Z"/></g><path d="M440.58,408.42l0,0Z"/><path d="M532.08,491.56l-51-51.33a39.27,39.27,0,0,1-6.94,8.08l24.16,24.17L479.72,491c-.05-.05-.08-.11-.13-.16l-25-25,12.82-12.81a44.07,44.07,0,0,1-11.73,4.57L422.32,491,401.4,470.11c-2.32.05-4.6.15-6.82.33l20.8,20.8H371.55l20.58-20.57c-2.81.27-5.54.62-8.19,1L364.62,491l-13.49-13.49c-2.14.2-4.38.34-6.72.44l13.27,13.27H313.86l13.43-13.43q-3.39-.19-6.65-.51L306.92,491l-25.83-25.83H281c-1.33.15-2.56.23-3.75.27l-2,0c-.69,0-1.37,0-2-.05l-23.48,23.48-17.62-17.62,14.6-14.59a36.78,36.78,0,0,1-7.42-7.68l-42.84,43.22,0,.43a3.72,3.72,0,0,0-.78,2.26v5.78a3.71,3.71,0,0,0,3.71,3.71H530.58a3.71,3.71,0,0,0,3.71-3.71V495A3.72,3.72,0,0,0,532.08,491.56ZM517,491.24H486.67l15.18-15.18Zm-66-21.77,21.77,21.77H429.26Zm-173.74-.93,22.7,22.7h-45.4Zm-32.38,22.7h-32.7l16.35-16.35Z"/><path d="M384.79,463.24c.44-4.89,1.45-16.6,1.45-20.68,0-5.2-.74-11.39-4-15.36s-3.47-7.68-6.94-4.21-4.95,5.95-6.93,6.44-5.45-.25-8.92,2-3.47,3.47-1,6.45,6.19,3.46,6.94,9.41c.68,5.44.39,15.41.33,19.52C371.6,465.58,377.92,464.24,384.79,463.24Z"/><path d="M322.94,387c-5.78,8.09-7.3,23.43.38,29.87s16.38,12.89,23.07,7.44c0,0-1.44,4.43-4.41,5.17,0,0,10.28,4.39,14.24-.25,2.52-2.94,6.49-3.46,9.71-4.95s6.44-3.22,5.7-6.69-1.49-5-1.74-7.68-3.22-4.95-7.92-6.93-6.2,3.71-12.64,4.7a30.42,30.42,0,0,0,7.68-8.92c3-5.45,2.48-5.94,4.46-7.92s4.7-8.41,2.24-13.61a103.36,103.36,0,0,0-27.35-1.61A39.25,39.25,0,0,0,322.94,387Z"/><path d="M357.92,449.36c0-3.08-1.15-7.54-4.37-9.52s-6.45-2-11.9-3a26.43,26.43,0,0,1-12.38-6.19c-3-2.48-5.45-7.68-7.19-6.44s-3.22,3.22-3.22,9.41-1.23,9.17,1,12.64a15.64,15.64,0,0,1,3,9.41c0,2.76-.11,10.42-.15,13.44,12.62,1.13,26.21.84,35.28-.79C358,464.28,357.92,451.92,357.92,449.36Z"/><path d="M289.63,432.65c4-2.23,8.42-8.91,9.17-12.63s-.75-8.18-.75-8.18,5.45,7.19,9.67,5.7,4.46-6.69,4.7-11.89A36,36,0,0,1,317.13,390c2.38-3.81,4.38-11.36,4.53-11.93-10.49,2.88-18.68,7.69-24.1,13.25-8,8.19-15.58,17.18-15.58,36.63,0,0,0,.18,0,.5C282.88,429.89,286.25,434.56,289.63,432.65Z"/><path d="M421.67,442.81c-.5-3.47-3.22-8.42-6.94-11.4s-4.46-1.23-9.91-2.72-10.9-4.21-12.63-4.21-4.95-.74-3.22,3,3.72,4.46,3.47,14.12c-.19,7.42.1,16.77.25,20.72a121.63,121.63,0,0,1,20.12-.23c2.85.21,5.5.27,7.95.22C421.11,458.07,422.08,445.68,421.67,442.81Z"/><path d="M315.15,449.25c0-3-1.74-4-1.49-9.66s3.22-14.37-1.48-15.36-6.94-1.24-10.16,3-7.43,7.93-7.68,15.11c-.22,6.41,1.48,15,1.86,20.68a30.38,30.38,0,0,0,6,2.53,88.89,88.89,0,0,0,12.47,2.66C314.77,464.24,315.15,451.75,315.15,449.25Z"/><path d="M429.35,425.22c-5.45-2.72-9.91-3-14.37-6.69s-12.88-4.95-12.88-4.95,6.44-1.74,9.41-1,6.94-1,3-3.22-5.7-7.43-5.7-11.65c0,0,3.22,7.19,7.18,8.18,3.3.82,6.64-4.17,8.09-5.58h0s.23-.23.5-.47c-13.61-9.05-30.1-14.72-50.81-20.36-2-.53-3.89-1-5.8-1.43.08.41,1.14,6.47-.77,11.49-2,5.2-4.21,7.93-2.23,9.41s8.18.75,10.65,2.48,5.45,1.49,8.18,1.49,4.7,3.46,4.7,3.46a11.26,11.26,0,0,0-8.67-1c-4.7,1.49-5.45,6.69-4,8.18s6.94,5.7,12.63,5.2,11.4,2.48,15.86,4.46,7.43.5,10.16,3.47,5.69,7.68,10.65,10.65,10.65,1.49,11.39-1.73S434.8,428,429.35,425.22Z"/><path d="M436.78,409.73a74.94,74.94,0,0,0-6.64-5.85l-.68-.5-.21.14c-1.2.9-8.61,6.58-9.07,9.32-.49,3,3,4,6.44,2.72s6.43-5.37,10.15-5.83Z"/><path d="M447.08,427.37c-.57-3.16-2-8.66-8.53-15.79h0s-4.48,2-4.48,4.71.74,4.46,4,7.44,4.46,4.45,4.21,7.92,2.77,4,5.3.07A39.7,39.7,0,0,0,447.08,427.37Z"/><path d="M469.93,373.07c5.31,22.57.11,29.09-10.62,37.83,19.25-28.54-15.93-42.47,19.25-76.32-19.09,2.86-34.65,13-46.12,26.28-5.17-38.89-23.4-77.5-40.86-91,19.42,35.84,14.19,70.2-5.22,82.89,13.44-50-6.73-92.6-56-119.49,41.07,55.27-19.42,59-18,124.19-.3-22.54-14.11-28.6-5.14-62.2-15,23.11-24.52,43.9-29.4,62.28a107.84,107.84,0,0,0-15.2-17.2c21.89,46.88-11.79,48.63-2.22,78.81-9.69-10.23-13.41-19.68-7-43.14-25.18,39.41-19,83.49,23.89,82.23,1.1,0,2.15-.12,3.17-.23a34.32,34.32,0,0,1-2.41-4.35,60.85,60.85,0,0,1-2.63-7s-12.35-1.2-19.14-17.19c4.88,5.4,10.54,8.47,16.26,7.52,0,0-.18-7.28.48-15.2s3-11.38,3-11.38a23.39,23.39,0,0,1,.33-15.91c2.74-6.75,3.63-15.84,1.32-23.43,2.15,2.81,4.95,7.26,5.28,15.51a117.71,117.71,0,0,1-.11,11.92,69.8,69.8,0,0,1,9.2-11.53c-.77-4.23-4.08-25.59,3.45-47.9,0,0,.66,10.23,4,16.33a68.24,68.24,0,0,1,6.37,21.17,72.72,72.72,0,0,1,22.24-7.29,5.81,5.81,0,0,1,.58-.09c4.27-54.49,34.72-44.13,33.49-79.27,13.74,27.71,8.4,56.24-2.41,79.34,2.21.33,4.3.71,4.3.71q5.6,1,11.33,2.57c8.34,2.27,16.34,4.54,23.93,7.15,7.45-4.7,13.92-11.81,15.45-28.4A190,190,0,0,1,419,387.92a98.36,98.36,0,0,1,11.89,7.19c6.08-6.6,11-13.52,12.31-20.74,1.62,17,2.28,26.85,2,33.65,4.93,5.85,8,11.85,9,17.92a36.79,36.79,0,0,1,.41,3.66,24.86,24.86,0,0,0,15.31-10.73c-1.48,8-7.39,14.25-15.16,18.75a81.57,81.57,0,0,1-1.24,13.15C481.32,444.7,490.94,413.49,469.93,373.07Z"/><path d="M444.45,454.09c.13-.16.23-.32.34-.47s.19-.26.27-.39.2-.36.29-.54.12-.2.16-.3a4.63,4.63,0,0,0,.3-.8c.1-.36.19-.75.28-1.15,0-.12.06-.24.08-.36.07-.3.13-.62.19-.94,0-.12.05-.25.07-.38.07-.44.15-.89.22-1.36a.19.19,0,0,1,0-.08c.06-.45.12-.9.17-1.37l.06-.46c0-.36.08-.73.11-1.09,0-.16,0-.32.05-.48,0-.5.09-1,.12-1.51,0-.08,0-.16,0-.24,0-.44.06-.89.08-1.33l0-.56c0-.32,0-.63.05-.94-2.87,3.16-10,5.08-17,3.89-1.08-.19-2,.91-2.08,2l-1.23,16.43,1.7-.26c.28,0,.57-.09.84-.15.54-.1,1.07-.2,1.58-.32.26-.06.53-.11.78-.18l1.44-.37.72-.21,1.3-.42.67-.24c.4-.15.79-.3,1.16-.46l.62-.27,1-.48.57-.3.89-.5.52-.33c.26-.16.52-.33.76-.5l.48-.36.63-.49.43-.39.51-.48c.14-.14.26-.28.38-.42Z"/><path d="M138.82,116.37A47.87,47.87,0,0,1,90.89,68.51a46.5,46.5,0,0,1,14.08-34,46.16,46.16,0,0,1,33.85-14.14s19.93.22,34,14.25L159.23,48.21a28,28,0,0,0-20.36-8.44,27.42,27.42,0,0,0-20.29,8.44,28,28,0,0,0-8.45,20.36,28.75,28.75,0,0,0,28.74,28.74,27.83,27.83,0,0,0,20.42-8.45l13.55,13.55A47.77,47.77,0,0,1,138.82,116.37Z"/><path d="M208.47,21.17V59h31.61V21.17H259v94.56H240.08V77.84H208.47v37.89H189.52V21.17Z"/><path d="M276.1,21.17h19v94.56h-19Z"/><path d="M331,21.17V96.84h38v18.89H312V21.17Z"/><path d="M404.61,21.17V96.84h38v18.89h-57V21.17Z"/><path d="M608.74,97.11c5.24,0,11-4.36,11-9.6,0-8.64-11.59-9.84-18.13-12.11C590.12,71.47,579.94,62,579.94,49.13a28.85,28.85,0,0,1,57.42-4l-18.87,4a9.6,9.6,0,0,0-19.19.06c0,8.52,10.78,10.78,17.35,12.73,11.93,3.45,22.46,12.54,22.46,25.7,0,15.95-14.31,28.82-30.23,28.82-14.63,0-27.85-10.72-30-24.8l18.87-4c0,5.28,5.74,9.58,11.07,9.58Z"/><path d="M561,70.83c-3.51-17.6-14-39.71-26.44-47.95-10.78-7.15-23.47-6.39-40.57,11l-1.55,1.56q-.78.75-1.56,1.56a126.15,126.15,0,0,0-9.73,10.76s-14,18.36-17.53,37.46,1.16,31.1,16.57,31.1c26.76,0,31.42-11.83,41.41-12.37,14-.75,20.08,13.87,28.36,7.12a19.8,19.8,0,0,0,2.23-2.16,19.14,19.14,0,0,0,1.56-1.56,17.55,17.55,0,0,0,1.55-1.56C562.55,99.3,564.36,87.91,561,70.83ZM482.72,56.22a177,177,0,0,1,14.82-19.76c15-14.08,25.46-15.29,34.17-10.86s16.07,16.29,18.53,25.74,1,15.68-4.47,19.11c-5.8,3.62-10-4.22-19.87-3.82-7,.29-10.27,6.64-29,6.64C486.07,73.27,477.26,65,482.72,56.22Zm21,47.61c-5.19,3.51-16.51,4.25-24.68,2.4s-9.12-12.75-8-20.33,1.64-11.1,4.56-12.76c2.12-1.2,6.13.74,6.13.74,3.3,1.67,9.12,6.1,15.56,5.92A44.82,44.82,0,0,0,519.15,73c6.76-4.44,11.17-.56,11.64,2s-.47,3.88-9,7.58S508.94,100.32,503.75,103.83ZM558.14,85c-.17,6.66-2.76,13.32-6.64,15.6s-9.23-1.52-13.11-3.8-8.41-4.38-13.27-2.1-9.55,2.67-7.93-3.23,9.06-8.19,9.06-8.19c11.82-1.9,6.31-9.89,17.16-7.61,5,1.06,5.5-5.71,10.68-5.14C556.84,70.85,558.3,78.35,558.14,85Z"/><path d="M530.7,38.58c-1.83-6.84-13.05-6.21-18.33-1.55s-4.66,14.29,2.49,16.15S534.43,52.56,530.7,38.58Z"/><path d="M120.28,186.32,147.1,149.5v56.1h-11V182.89l-15.81,21.82-15.84-21.82V205.6h-11V149.5Z"/><path d="M187,150.66v11h-22v11.05h16.52v11H164.92v11.05h22v10.95h-33v-55Z"/><path d="M218.42,149.67l25,55.93H231.5l-3.7-8.33H209l-3.7,8.33h-11.9Zm5,37.88-5-11.6-5.07,11.6Z"/><path d="M275.66,150.8v10.91H262.2V205.6h-11V161.71h-13.5V150.8Z"/><path d="M334.21,150.66v44H356.3v11H323.17v-55Z"/><path d="M410.73,158.43a27.74,27.74,0,1,1-19.7-8.21A26.92,26.92,0,0,1,410.73,158.43Zm-31.53,7.84a16.71,16.71,0,0,0,0,23.66,16.74,16.74,0,1,0,0-23.66Z"/><path d="M524.29,181v-30.5h11.08v56.21l-33.13-31.57v30.51H491.19V149.5Z"/><path d="M570.34,150.32a28.08,28.08,0,0,1,19.74,8.15l-7.88,7.87a16.26,16.26,0,0,0-11.79-4.94,16.76,16.76,0,0,0,0,33.51,16.65,16.65,0,0,0,15.06-9.62H569.79V174.76H598c.78,10.27-2.59,17.73-8,23.11a27,27,0,0,1-19.7,8.15,27.88,27.88,0,0,1-27.85-27.85,27,27,0,0,1,8.18-19.74,26.63,26.63,0,0,1,19.67-8.21Z"/><path d="M637.76,150.53v11H615.67v11.07h16.57v11H615.67V194.7h22.09v11H604.63V150.53Z"/><path d="M472.91,153.11l2.58-3.36H427.25l2.57,3.36c.13.16,12.78,16.66,14.63,19.51,1.64,2.53,2.32,5,2.32,14.09,0,6.61-1.2,8.45-1.4,8.71-1.87,1.28-6.86,4.66-8.06,5.31l-7.21,3.92h42.54l-7.22-3.92c-1.07-.58-5.38-3.48-8.05-5.31-.2-.26-1.4-2.1-1.4-8.71,0-9.05.68-11.56,2.32-14.09C460.14,169.77,472.79,153.27,472.91,153.11Zm-19.22,17.44a15.77,15.77,0,0,0-2.32,5.87,15.77,15.77,0,0,0-2.32-5.87c-1.16-1.79-11.65-15.8-11.65-15.8a39.34,39.34,0,0,0,5.22.11c.55,0,.88,0,.88,0,3.8-.13,7.7-.28,11.61,1.07,2.89,1,5.43,2.17,7.62,2.55C462.73,158.46,454.54,169.25,453.69,170.55Z"/></svg>