<svg id="Layer_1" data-name="Layer 1" xmlns="http://www.w3.org/2000/svg" viewBox="0 0 730 530"><defs><style>.cls-1{opacity:0.05;}</style></defs><g class="cls-1"><path d="M435.16,28.78c-129.94-36-250.19,32-296.25,139.34-15.79,30.36-19.83,83-19.83,83s20.13-44.94,60.8-85.35c6.65-6.6,25.74-29.49,55.73-40.25,0,.1,0,.21,0,.31a104.25,104.25,0,0,0,4.06,14.62,63.89,63.89,0,0,0,6.81,13.21,61.81,61.81,0,0,1-2-14.16,95.73,95.73,0,0,1,1-14c.57-3.82,1.33-7.6,2.24-11.32,4.54-10.71,13.74-28.77,27.4-38.61C295.37,61,305.29,60.17,310.35,64.62s6.07,19.84,4.86,33.4a134.27,134.27,0,0,1-2.2,14.79c-1,3.94-2.26,7.85-3.69,11.7a97,97,0,0,1-5.94,12.72,61,61,0,0,1-8.58,11.43,64.06,64.06,0,0,0,12.35-8.27,104.62,104.62,0,0,0,10.61-10.85c1.81-2.17,3.55-4.41,5.22-6.7,7.59.27,17.19,1.2,24.41,3.92,14,5.26,26.92,10.73,48.58,28.13,0,0-4.25-5.83-8.43-11.37-4.42-5.85-4.53-12.71-1.89-19s18.21-35,47.56-35.62c0,0,8.5,6.88,6.68,23.68s-7.08,28.34-12.75,36.23c-2.41,3.35-5.36,7.25-8,10.63a11.17,11.17,0,0,0,1.2,14.93c6.82,6.46,19,17.75,22.49,27,0,0-3.58,17.64-19,38.49s-31.58,27.93-31.58,27.93,34.47-3.92,56.27-32c21.29-27.39,46.11-55.45,44.13-127.92,0,0,15.92,19.71,15.38,73.41s-5.13,70.17-5.67,77.72,4.32,15.66,3,28.88c-1,9.51-2.08,22.51-2.63,29.06a8.6,8.6,0,0,0,2.68,7l10.63,10a17.14,17.14,0,0,1,4,19.26l-17.84,41.44a23.67,23.67,0,0,1-14.42,13.17c-18.46,6-59.27,17.47-101.7,17.47-57.49,0-85-15.11-105-29.14,0,0,16.19,22.4,65,36.7,18.42,5.39,41.45,8,63,9.21,20.83,1.14,25,30.08,5.36,37a147.56,147.56,0,0,1-42.72,8.53c-60.72,2.7-91.75-.54-151.39-33.46-22.58-12.46-41-29.41-55.12-45.66A245.56,245.56,0,0,0,365,510.92c157.39,0,280.25-147.86,237.25-312.25A239.12,239.12,0,0,0,435.16,28.78Z"/><path d="M447.56,372.91S464.63,349,443,343.63C425.75,339.35,394.29,372,394.29,372S442.52,346.33,447.56,372.91Z"/><path d="M281.18,256.28s-3.14,19.91,6.29,28.3,28.31,5.24,33.55,1.05C321,285.63,295.92,282.23,281.18,256.28Z"/></g><path d="M245.08,328.7s-1.63,1.79,2.6,21,17.09,36.3,23.93,40.54,15-1.47,16.28-2.77a64.68,64.68,0,0,0,4.6-6.62S318,392,346.82,395A278.05,278.05,0,0,0,414,393.16c13.52-2,37.77-8,41.84-9.93s5-2.39,5-2.39.52,2.71,5.9,7,10.41,5,16.44.32a60.13,60.13,0,0,0,17.58-23.93c4.72-11.23,8.14-28.65,7.81-35,0,0-4.39,13.35-20.84,27.19S446.27,378.83,428,382.25s-41.83,5.7-53.55,5.37-34-3.25-47.86-5.69-31.58-8.14-40.37-12.7-20.51-12.37-27.35-19.37S247,334.56,245.08,328.7Z"/><path d="M250.9,307.93h-4.24v2.5h4.59C251.12,309.61,251,308.77,250.9,307.93Z"/><path d="M267.18,337H251.11l6.15-10.29c-.44-.69-.87-1.4-1.27-2.14-.22-.39-.42-.8-.62-1.21l-9.31,12.38,1.88,1.26H246v3.74h23.45L259,359.35l5.53,2.89,10.31-21.19A38,38,0,0,1,267.18,337Z"/><path d="M491.53,320.1,501.6,337H482l-2.82-5a41.78,41.78,0,0,1-3.87,2l1.46,3H466.31l-4.47,1a18.81,18.81,0,0,1-2.58,2.76h19.31L489,362.19l5.52-2.9-10.44-18.57h20.75v-3.56l1.92-1.26-13.51-18.65C492.72,318.23,492.13,319.17,491.53,320.1Z"/><path d="M468.7,366.53H468l-10.16-24.65a26.09,26.09,0,0,1-3.81,2.36l7.87,22.29H441.07l-5-17.84c-1.56.11-3.19.18-4.91.18h0l-.91,0,3.88,17.68H410.43l-2.71-17.81c-1.85.15-3.66.34-5.43.56l1.65,17.25H379.61l-.36-13.09-5.23,1-.33,12H350.37l1-10.45c-1.82,0-3.64-.06-5.44-.14l-1.61,10.59H321.17l2.87-13c-1.89-.37-3.68-.79-5.34-1.23l-4,14.28h-23l8-22.57-.83.09c-1.28.15-2.47.23-3.64.27h-.46L282.09,375l5.82,2.23,2-5.66h23.37l-4,14.23,7.27,1.82,3.53-16.05h23.48l-3.19,21,7.43.92,2.09-21.91h23.67l-.65,23.64h7.48l-.65-23.64h24.67l1.35,14.15,7.44-.92-2-13.23h24l1.79,8.16,7.26-1.82-1.78-6.34h21.18l2,5.78,5.83-2.23-2.82-6.83Z"/><path d="M496.14,310.43h10.65v-2.5H496.9C496.68,308.78,496.42,309.61,496.14,310.43Z"/><path d="M398.6,342.36c.42-4.7,1.4-16,1.4-19.89,0-5-.72-11-3.82-14.78s-3.33-7.39-6.67-4.05-4.76,5.72-6.67,6.2-5.24-.24-8.58,1.9-3.34,3.34-.95,6.2,5.95,3.34,6.67,9.06c.65,5.24.38,14.82.32,18.78C385.91,344.61,392,343.32,398.6,342.36Z"/><path d="M339.1,269c-5.57,7.79-7,22.55.36,28.75s15.76,12.39,22.2,7.15c0,0-1.39,4.26-4.25,5,0,0,9.89,4.22,13.71-.24,2.41-2.83,6.24-3.33,9.34-4.76s6.19-3.1,5.48-6.43-1.43-4.77-1.67-7.39-3.1-4.77-7.63-6.67-6,3.57-12.15,4.53a29.34,29.34,0,0,0,7.39-8.58c2.86-5.25,2.38-5.72,4.29-7.63s4.52-8.09,2.15-13.09A99.68,99.68,0,0,0,352,258,37.8,37.8,0,0,0,339.1,269Z"/><path d="M372.75,329c0-3-1.11-7.26-4.21-9.16s-6.2-1.91-11.44-2.86a25.63,25.63,0,0,1-11.92-6c-2.86-2.38-5.24-7.39-6.91-6.2s-3.09,3.1-3.09,9.06-1.2,8.82.95,12.15A15.09,15.09,0,0,1,339,335.1c0,2.65-.1,10-.14,12.93,12.13,1.09,25.21.81,33.94-.76C372.78,343.36,372.75,331.47,372.75,329Z"/><path d="M307.05,312.94c3.82-2.15,8.11-8.58,8.82-12.16s-.71-7.86-.71-7.86,5.24,6.91,9.29,5.48S328.74,292,329,287a34.58,34.58,0,0,1,4.53-15c2.29-3.66,4.21-10.93,4.35-11.48-10.08,2.77-18,7.4-23.18,12.75-7.68,7.88-15,16.53-15,35.24,0,0,0,.17,0,.48C300.56,310.28,303.8,314.77,307.05,312.94Z"/><path d="M434.08,322.71c-.48-3.34-3.1-8.11-6.68-11s-4.29-1.19-9.53-2.62-10.48-4.05-12.15-4.05-4.77-.71-3.1,2.86,3.57,4.29,3.34,13.58c-.19,7.14.1,16.14.24,19.94a116.76,116.76,0,0,1,19.35-.22c2.75.2,5.29.26,7.65.21C433.54,337.39,434.47,325.47,434.08,322.71Z"/><path d="M331.6,328.9c0-2.86-1.67-3.81-1.43-9.29s3.1-13.82-1.43-14.78-6.67-1.19-9.77,2.86-7.15,7.63-7.39,14.54c-.21,6.16,1.43,14.44,1.79,19.89a29.15,29.15,0,0,0,5.75,2.43,83.47,83.47,0,0,0,12,2.56C331.24,343.32,331.6,331.3,331.6,328.9Z"/><path d="M441.46,305.79c-5.24-2.63-9.53-2.86-13.82-6.44s-12.39-4.77-12.39-4.77,6.2-1.66,9.06-.95,6.67-.95,2.86-3.1-5.49-7.15-5.49-11.2c0,0,3.1,6.91,6.92,7.87,3.17.79,6.38-4,7.77-5.37h0s.21-.22.48-.46c-13.09-8.7-29-14.15-48.88-19.58-1.89-.51-3.74-1-5.58-1.38.07.4,1.1,6.23-.74,11.06-1.91,5-4,7.62-2.15,9s7.87.72,10.25,2.39,5.24,1.43,7.86,1.43,4.53,3.33,4.53,3.33a10.81,10.81,0,0,0-8.34-.95c-4.53,1.43-5.24,6.43-3.81,7.86s6.67,5.49,12.15,5,11,2.38,15.25,4.29,7.15.48,9.78,3.34,5.48,7.38,10.24,10.24,10.25,1.43,11-1.66S446.71,308.41,441.46,305.79Z"/><path d="M448.61,290.88a70.75,70.75,0,0,0-6.39-5.62c-.21-.17-.43-.33-.65-.49a2.43,2.43,0,0,0-.2.14c-1.16.87-8.29,6.33-8.72,9-.48,2.86,2.86,3.81,6.19,2.62s6.19-5.16,9.76-5.61Z"/><path d="M458.52,307.85c-.54-3-1.94-8.33-8.2-15.19h0s-4.31,1.91-4.31,4.54.72,4.29,3.82,7.15,4.29,4.29,4.05,7.62,2.66,3.86,5.1.07A37.62,37.62,0,0,0,458.52,307.85Z"/><path d="M155.47,482.79l24.07-33.05v50.35h-9.88V479.71L155.47,499.3l-14.23-19.59v20.38h-9.88V449.74Z"/><path d="M215.31,450.78v9.85H195.53v9.92h14.84v9.86H195.53v9.92h19.78v9.83H185.65V450.78Z"/><path d="M243.56,449.89,266,500.09H255.31L252,492.62H235.14l-3.33,7.47H221.13Zm4.52,34-4.49-10.41L239,483.89Z"/><path d="M295,450.9v9.79H282.87v39.4H273v-39.4H260.83V450.9Z"/><path d="M347.51,450.78v39.47h19.83v9.86H337.6V450.78Z"/><path d="M416.21,457.76a24.89,24.89,0,1,1-17.69-7.38A24.16,24.16,0,0,1,416.21,457.76Zm-28.31,7A15,15,0,0,0,409.11,486a15,15,0,1,0-21.21-21.24Z"/><path d="M518.15,478V450.66h9.94v50.46l-29.74-28.34v27.39h-9.92V449.74Z"/><path d="M559.49,450.47a25.18,25.18,0,0,1,17.71,7.32l-7.06,7.06a14.62,14.62,0,0,0-10.59-4.43,15,15,0,0,0,0,30.08,15,15,0,0,0,13.52-8.63H559v-9.46h25.33c.71,9.22-2.32,15.91-7.19,20.75a24.19,24.19,0,0,1-17.68,7.31,25,25,0,0,1-25-25,24.24,24.24,0,0,1,7.34-17.71,23.88,23.88,0,0,1,17.66-7.38Z"/><path d="M620,450.66v9.88H600.18v9.95h14.87v9.88H600.18v9.94H620v9.86H590.27V450.66Z"/><path d="M455.92,496.48c0-11.91,1-15.7,3.42-19.48s19-25.17,19-25.17H427.07s16.49,21.38,19,25.17,3.42,7.57,3.42,19.48-2.93,13.34-2.93,13.34-8.65,5.88-10.66,7h33.65c-2-1.08-10.65-7-10.65-7S455.92,508.38,455.92,496.48ZM452.66,481a18.19,18.19,0,0,0-2.71-6.81c-1.35-2.08-13.62-18.36-13.62-18.36a47.59,47.59,0,0,0,6.1.13l1,0c4.45-.14,9-.33,13.57,1.25,3.38,1.17,6.35,2.52,8.9,2.95,0,0-9.56,12.54-10.55,14.06A18,18,0,0,0,452.66,481Z"/><path d="M157,100.81A42.65,42.65,0,0,1,125.91,88,42.4,42.4,0,0,1,113,56.89a42.69,42.69,0,0,1,12.91-31.17,42.38,42.38,0,0,1,31.06-13l-.05.21a44.78,44.78,0,0,1,31.22,12.87L175.71,38.26A25.69,25.69,0,0,0,157,30.51a25.18,25.18,0,0,0-18.63,7.75,25.73,25.73,0,0,0-7.75,18.68,25.49,25.49,0,0,0,7.75,18.68,26.45,26.45,0,0,0,37.36-.05L188.2,88A43.84,43.84,0,0,1,157,100.81Z"/><path d="M220.89,13.45V48.17h29V13.45h17.38v86.77H249.91V65.45h-29v34.77H203.51V13.45Z"/><path d="M288.1,13.45h17.44v86.77H288.1Z"/><path d="M342.08,13.45V82.89H377v17.33H324.64V13.45Z"/><path d="M409.67,13.45V82.89h34.88v17.33H392.23V13.45Z"/><path d="M588.52,83.14c4.81,0,10.13-4,10.13-8.82,0-7.92-10.63-9-16.63-11.11-10.58-3.6-19.93-12.29-19.93-24.1a26.48,26.48,0,0,1,52.69-3.66l-17.31,3.66a8.81,8.81,0,0,0-17.61,0c0,7.82,9.9,9.9,15.92,11.68,11,3.16,20.61,11.51,20.61,23.59,0,14.63-13.13,26.45-27.74,26.45-13.42,0-25.56-9.85-27.53-22.77l17.32-3.68c0,4.84,5.26,8.79,10.16,8.79Z"/><path d="M521.52,30.37c-1.81-6.8-13-6.18-18.22-1.54s-4.63,14.2,2.47,16.05S525.22,44.26,521.52,30.37Z"/><path d="M480.62,255.2c5.12,21.74.1,28-10.24,36.45,18.55-27.5-15.34-40.93,18.55-73.54-18.39,2.76-33.38,12.57-44.44,25.32-5-37.47-22.54-74.67-39.36-87.68,18.71,34.54,13.67,67.64-5,79.87,13-48.21-6.47-89.22-54-115.13,39.57,53.25-18.71,56.85-17.35,119.66-.29-21.72-13.59-27.56-5-59.94-14.48,22.27-23.61,42.3-28.32,60a104.13,104.13,0,0,0-14.64-16.58c21.09,45.17-11.36,46.86-2.15,75.93-9.33-9.85-12.92-19-6.77-41.56-24.26,38-18.32,80.44,23,79.23,1.06,0,2.07-.12,3.06-.23a33.07,33.07,0,0,1-2.33-4.18,60.2,60.2,0,0,1-2.54-6.77s-11.89-1.15-18.43-16.56c4.7,5.21,10.15,8.16,15.66,7.25,0,0-.17-7,.47-14.65s2.94-11,2.94-11a22.47,22.47,0,0,1,.32-15.34c2.63-6.5,3.49-15.26,1.27-22.57,2.06,2.71,4.77,7,5.08,14.94a112.76,112.76,0,0,1-.11,11.49,67.46,67.46,0,0,1,8.87-11.11c-.75-4.07-3.94-24.66,3.32-46.15,0,0,.64,9.86,3.82,15.74a65.48,65.48,0,0,1,6.13,20.39,70.3,70.3,0,0,1,21.44-7l.56-.09c4.11-52.49,33.45-42.51,32.26-76.37,13.24,26.7,8.09,54.19-2.32,76.44,2.13.32,4.14.69,4.14.69,3.6.66,7.24,1.47,10.92,2.47,8,2.19,15.74,4.38,23.06,6.9,7.17-4.53,13.41-11.38,14.89-27.37a183.3,183.3,0,0,1,4.06,35.32A93.9,93.9,0,0,1,443,276.44c5.86-6.37,10.62-13,11.87-20,1.56,16.4,2.19,25.87,1.92,32.42q7.13,8.46,8.72,17.27a34.48,34.48,0,0,1,.4,3.52,24,24,0,0,0,14.75-10.34c-1.43,7.67-7.12,13.74-14.6,18.07a79.34,79.34,0,0,1-1.2,12.67C491.59,324.21,500.87,294.14,480.62,255.2Z"/><path d="M498.41,288.58a61.34,61.34,0,0,1,.19,8c5.21,7.08,8.06,14.74,8.06,22.72,0,36.16-58.32,65.57-130,65.57s-130-29.41-130-65.57a35.51,35.51,0,0,1,3.92-16,65,65,0,0,1,.51-10.15c-6.18,8.19-9.42,17-9.42,26.14,0,19.17,14.26,37.05,40.16,50.35,25.38,13,59.06,20.21,94.84,20.21s69.46-7.18,94.83-20.21c25.91-13.3,40.17-31.18,40.17-50.35C511.65,308.44,507.08,298,498.41,288.58Z"/><path d="M551.6,62.43c-3.48-17.5-13.93-39.48-26.29-47.67s-27.23-6-48.45,20.11c0,0-13.94,18.25-17.42,37.24S460.59,103,475.91,103c26.6,0,31.24-11.75,41.17-12.29C531,90,537,104.51,545.27,97.81,553.08,91.45,555.08,79.93,551.6,62.43ZM475.52,49A174.63,174.63,0,0,1,490,29.65c8.92-8.39,16.59-12.46,23.43-12.46a17.7,17.7,0,0,1,8.18,2c8.29,4.21,15.15,15.67,17.4,24.32,2.92,11.24-.64,15-3.56,16.79a3.79,3.79,0,0,1-2.09.65c-1.38,0-3-.78-4.85-1.69-2.82-1.37-6.32-3.07-11-3.07h-.81c-2.95.12-5.23,1.14-7.87,2.33-4.26,1.9-9.55,4.27-20.91,4.27-5.6,0-10.76-2.49-12.82-6.2A7.25,7.25,0,0,1,475.52,49ZM499.32,86c-2,3.28-3.95,6.37-5.71,7.57-2.76,1.86-8.14,3-14.06,3a41,41,0,0,1-8.92-.93c-8.51-1.92-6.67-16.34-6.43-18,1-7.15,1.54-10.09,3.54-11.22a1.56,1.56,0,0,1,.75-.13,9.77,9.77,0,0,1,3.49.92c.59.3,1.33.74,2.2,1.24,3.49,2,8.27,4.85,13.75,4.85h.45a46.26,46.26,0,0,0,22.76-7.13,8.86,8.86,0,0,1,4.72-1.68,3.73,3.73,0,0,1,3.78,2.39c.19,1,.33,1.83-7.74,5.35C506.36,74.68,502.62,80.7,499.32,86Zm47.47-9.54c-.15,6.2-2.5,12-5.61,13.84a3.14,3.14,0,0,1-1.67.42c-2.37,0-5.49-1.88-8-3.4l-1.34-.8c-2.81-1.65-6.18-3.34-9.88-3.34a12.05,12.05,0,0,0-5.18,1.17,12,12,0,0,1-4.56,1.35,1.29,1.29,0,0,1-.7-.12s-.29-.47.16-2.11c1.2-4.36,6.7-6.42,7.56-6.71,6.28-1.06,8.32-3.81,9.81-5.83,1.1-1.48,1.55-2.09,3.46-2.09a14.49,14.49,0,0,1,2.89.36,7.17,7.17,0,0,0,1.43.15c2.76,0,4.41-1.76,5.73-3.17s2-2.08,3.27-2.08h.31C545.37,64.74,547,69.52,546.79,76.47Z"/></svg>