<svg xmlns="http://www.w3.org/2000/svg" xmlns:xlink="http://www.w3.org/1999/xlink" viewBox="0 0 630 530"><defs><style>.cls-1{isolation:isolate;}.cls-2,.cls-3,.cls-33{fill:none;}.cls-2,.cls-3{stroke:#753523;stroke-linejoin:round;stroke-width:4px;}.cls-2{stroke-linecap:round;}.cls-4{fill:url(#linear-gradient);}.cls-10,.cls-13,.cls-16,.cls-5{mix-blend-mode:screen;}.cls-5{fill:url(#linear-gradient-2);}.cls-6{fill:url(#linear-gradient-3);}.cls-7{fill:url(#linear-gradient-4);}.cls-8{fill:url(#linear-gradient-5);}.cls-9{fill:url(#linear-gradient-6);}.cls-10{fill:url(#linear-gradient-7);}.cls-11{fill:url(#linear-gradient-8);}.cls-12{fill:url(#linear-gradient-9);}.cls-13{fill:url(#linear-gradient-10);}.cls-14{fill:url(#linear-gradient-11);}.cls-15{fill:url(#linear-gradient-12);}.cls-16{fill:url(#linear-gradient-13);}.cls-17{fill:#fad1c0;}.cls-18{fill:#be222d;}.cls-19{fill:url(#linear-gradient-14);}.cls-20{fill:url(#linear-gradient-15);}.cls-21{fill:#931b22;}.cls-22{fill:#a91b25;}.cls-23{fill:url(#linear-gradient-16);}.cls-24{fill:url(#linear-gradient-17);}.cls-25{fill:#ed2f24;}.cls-26{fill:url(#linear-gradient-18);}.cls-27{fill:url(#linear-gradient-19);}.cls-28{fill:url(#linear-gradient-20);}.cls-29{fill:url(#linear-gradient-21);}.cls-30{fill:url(#linear-gradient-22);}.cls-31{fill:url(#linear-gradient-23);}.cls-32{fill:#fde9e2;}.cls-33{stroke:#fcf8c8;stroke-miterlimit:10;stroke-width:0.5px;}.cls-34{fill:url(#linear-gradient-24);}.cls-35{fill:url(#linear-gradient-25);}.cls-36{fill:url(#linear-gradient-26);}.cls-37{fill:url(#linear-gradient-27);}.cls-38{fill:url(#linear-gradient-28);}.cls-39{fill:url(#linear-gradient-29);}.cls-40{fill:url(#linear-gradient-30);}.cls-41{fill:url(#linear-gradient-31);}.cls-42{fill:url(#linear-gradient-32);}.cls-43{fill:url(#linear-gradient-33);}.cls-44{opacity:0.05;}</style><linearGradient id="linear-gradient" x1="374.5" y1="355.49" x2="367.98" y2="349.02" gradientTransform="matrix(-1, 0, 0, 1, 807.22, 0)" gradientUnits="userSpaceOnUse"><stop offset="0" stop-color="#753423"/><stop offset="0.54" stop-color="#b15c3a"/><stop offset="0.95" stop-color="#753423"/></linearGradient><linearGradient id="linear-gradient-2" x1="306.51" y1="185.77" x2="306.51" y2="334.69" gradientUnits="userSpaceOnUse"><stop offset="0"/><stop offset="1" stop-color="#f4831f"/></linearGradient><linearGradient id="linear-gradient-3" x1="182.03" y1="369.9" x2="175.57" y2="363.48" gradientTransform="matrix(1, 0, 0, 1, 0, 0)" xlink:href="#linear-gradient"/><linearGradient id="linear-gradient-4" x1="309.22" y1="274.77" x2="309.22" y2="385.58" gradientUnits="userSpaceOnUse"><stop offset="0" stop-color="#ed2f24" stop-opacity="0"/><stop offset="1" stop-color="#fced09"/></linearGradient><linearGradient id="linear-gradient-5" x1="493.75" y1="263.39" x2="507.9" y2="352.49" gradientTransform="matrix(-1, 0, 0, 1, 896.83, 0)" gradientUnits="userSpaceOnUse"><stop offset="0" stop-color="#ed2f24"/><stop offset="1" stop-color="#fced09"/></linearGradient><linearGradient id="linear-gradient-6" x1="469.98" y1="243.55" x2="516.85" y2="339.57" xlink:href="#linear-gradient-5"/><linearGradient id="linear-gradient-7" x1="487.41" y1="269.99" x2="507.63" y2="338.92" gradientTransform="matrix(-1, 0, 0, 1, 896.83, 0)" xlink:href="#linear-gradient-2"/><linearGradient id="linear-gradient-8" x1="290.62" y1="194.65" x2="317.23" y2="362.19" gradientTransform="matrix(1, 0, 0, 1, 0, 0)" xlink:href="#linear-gradient-5"/><linearGradient id="linear-gradient-9" x1="306.44" y1="155.46" x2="306.44" y2="341.36" gradientTransform="matrix(1, 0, 0, 1, 0, 0)" xlink:href="#linear-gradient-5"/><linearGradient id="linear-gradient-10" x1="307.08" y1="186.19" x2="307.08" y2="334.7" xlink:href="#linear-gradient-2"/><linearGradient id="linear-gradient-11" x1="231.44" y1="274.86" x2="244.92" y2="359.76" gradientTransform="translate(72.27 -51.66) rotate(14.54)" xlink:href="#linear-gradient-5"/><linearGradient id="linear-gradient-12" x1="211.96" y1="267.39" x2="251.68" y2="348.77" gradientTransform="translate(72.27 -51.66) rotate(14.54)" xlink:href="#linear-gradient-5"/><linearGradient id="linear-gradient-13" x1="227.45" y1="282.59" x2="246.98" y2="349.15" gradientTransform="translate(72.27 -51.66) rotate(14.54)" xlink:href="#linear-gradient-2"/><linearGradient id="linear-gradient-14" x1="295.89" y1="253.23" x2="295.89" y2="329.66" gradientUnits="userSpaceOnUse"><stop offset="0.27" stop-color="#f6b42c"/><stop offset="0.4" stop-color="#ed772d"/><stop offset="0.6" stop-color="#ed2f24"/><stop offset="1" stop-color="#be222d"/></linearGradient><linearGradient id="linear-gradient-15" x1="242.52" y1="320.72" x2="280.77" y2="261.1" gradientUnits="userSpaceOnUse"><stop offset="0" stop-color="#be222d"/><stop offset="0.4" stop-color="#ed2f24"/><stop offset="0.6" stop-color="#ed772d"/><stop offset="0.73" stop-color="#f6b42c"/></linearGradient><linearGradient id="linear-gradient-16" x1="303" y1="249.23" x2="370.07" y2="328.42" gradientUnits="userSpaceOnUse"><stop offset="0.27" stop-color="#f6b42c"/><stop offset="0.4" stop-color="#ed772d"/><stop offset="0.6" stop-color="#ed2f24"/><stop offset="0.98" stop-color="#be222d"/></linearGradient><linearGradient id="linear-gradient-17" x1="315" y1="402.31" x2="315" y2="389.24" gradientUnits="userSpaceOnUse"><stop offset="0" stop-color="#753423"/><stop offset="0.54" stop-color="#b15c3a"/><stop offset="1" stop-color="#753423"/></linearGradient><linearGradient id="linear-gradient-18" x1="83.61" y1="108.11" x2="83.61" y2="11.82" gradientTransform="matrix(1, 0, 0, 1, 0, 0)" xlink:href="#linear-gradient-5"/><linearGradient id="linear-gradient-19" x1="176.33" y1="107.46" x2="176.33" y2="12.58" gradientTransform="matrix(1, 0, 0, 1, 0, 0)" xlink:href="#linear-gradient-5"/><linearGradient id="linear-gradient-20" x1="237.86" y1="107.46" x2="237.86" y2="12.58" gradientTransform="matrix(1, 0, 0, 1, 0, 0)" xlink:href="#linear-gradient-5"/><linearGradient id="linear-gradient-21" x1="292.92" y1="107.46" x2="292.92" y2="12.58" gradientTransform="matrix(1, 0, 0, 1, 0, 0)" xlink:href="#linear-gradient-5"/><linearGradient id="linear-gradient-22" x1="366.82" y1="107.46" x2="366.82" y2="12.58" gradientTransform="matrix(1, 0, 0, 1, 0, 0)" xlink:href="#linear-gradient-5"/><linearGradient id="linear-gradient-23" x1="562.36" y1="108.18" x2="562.36" y2="11.75" gradientTransform="matrix(1, 0, 0, 1, 0, 0)" xlink:href="#linear-gradient-5"/><linearGradient id="linear-gradient-24" x1="39.09" y1="523.28" x2="39.09" y2="459.73" gradientTransform="matrix(1, 0, 0, 1, 0, 0)" xlink:href="#linear-gradient-5"/><linearGradient id="linear-gradient-25" x1="95.91" y1="523.35" x2="95.91" y2="461.04" gradientTransform="matrix(1, 0, 0, 1, 0, 0)" xlink:href="#linear-gradient-5"/><linearGradient id="linear-gradient-26" x1="150.29" y1="523.28" x2="150.29" y2="459.92" gradientTransform="matrix(1, 0, 0, 1, 0, 0)" xlink:href="#linear-gradient-5"/><linearGradient id="linear-gradient-27" x1="193.6" y1="523.28" x2="193.6" y2="461.19" gradientTransform="matrix(1, 0, 0, 1, 0, 0)" xlink:href="#linear-gradient-5"/><linearGradient id="linear-gradient-28" x1="287.71" y1="523.29" x2="287.71" y2="461.04" gradientTransform="matrix(1, 0, 0, 1, 0, 0)" xlink:href="#linear-gradient-5"/><linearGradient id="linear-gradient-29" x1="345.83" y1="523.72" x2="345.83" y2="460.54" gradientTransform="matrix(1, 0, 0, 1, 0, 0)" xlink:href="#linear-gradient-5"/><linearGradient id="linear-gradient-30" x1="484.3" y1="524.57" x2="484.3" y2="459.73" gradientTransform="matrix(1, 0, 0, 1, 0, 0)" xlink:href="#linear-gradient-5"/><linearGradient id="linear-gradient-31" x1="548.89" y1="523.75" x2="548.89" y2="460.54" gradientTransform="matrix(1, 0, 0, 1, 0, 0)" xlink:href="#linear-gradient-5"/><linearGradient id="linear-gradient-32" x1="606.55" y1="523.37" x2="606.55" y2="460.89" gradientTransform="matrix(1, 0, 0, 1, 0, 0)" xlink:href="#linear-gradient-5"/><linearGradient id="linear-gradient-33" x1="414.17" y1="522.2" x2="414.17" y2="460.01" gradientTransform="matrix(1, 0, 0, 1, 0, 0)" xlink:href="#linear-gradient-5"/></defs><g class="cls-1"><g id="Layer_1" data-name="Layer 1"><line class="cls-2" x1="335.57" y1="299.51" x2="426.71" y2="390.65"/><line class="cls-2" x1="313.65" y1="334.45" x2="370.8" y2="391.6"/><line class="cls-2" x1="199.37" y1="334.45" x2="257.06" y2="392.14"/><polygon class="cls-3" points="277.68 262.6 149.89 392.06 480.02 392.06 389.76 300.23 384.04 316.17 357.89 302.94 277.68 262.6"/><polygon class="cls-4" points="481.15 390.24 395.94 304.53 395.94 319.61 471.47 395.14 480.9 395.14 481.15 390.24"/><path class="cls-5" d="M364.14,250.44c-3.7,40.05-36.33,24.48-41.53,54.14-26.69-42.27,14.1-54.88-6.67-97.89,5.19,26.7-51.74,47.89-23.73,103.83-13.35,1.48-43-14.84-43.76-45.24a113.77,113.77,0,0,0-2.78,13.31c1.57,2.65,3.1,5.33,4.54,8.06l-4.65,2.18c-.24-.59-.51-1.18-.76-1.77-2.31,39.82,22.5,65.73,63,65.73C371.42,352.79,373.78,297.17,364.14,250.44Z"/><line class="cls-2" x1="256.51" y1="334.45" x2="314.08" y2="392.02"/><line class="cls-2" x1="315.17" y1="392.01" x2="361.63" y2="345.55"/><polygon class="cls-6" points="148.1 390.24 204.4 333.43 204.4 348.51 157.78 395.14 148.35 395.14 148.1 390.24"/><line class="cls-3" x1="177.75" y1="367.37" x2="202.52" y2="392.14"/><line class="cls-2" x1="258.08" y1="391.97" x2="304.49" y2="345.55"/><line class="cls-2" x1="199.44" y1="391.9" x2="273.21" y2="318.14"/><ellipse class="cls-7" cx="309.22" cy="338.71" rx="106.58" ry="41.47"/><path class="cls-8" d="M419.23,272.29c5.26,22.34.11,28.8-10.52,37.46,19.06-28.26-15.77-42.07,19.06-75.59C362,244,338.42,341.49,381.15,349.23,424.49,357.07,444.86,321.58,419.23,272.29Z"/><path class="cls-9" d="M423,304.78c-9.18,7.34-12.85,15.6-24.78,14.68,16.4-34.69-13.18-39.29,12.45-76.1-36.15,19.07-63.26,84.61-33.51,101.23C399.51,357.07,421.17,343.33,423,304.78Z"/><path class="cls-10" d="M375.28,337.82c12.46,12.46,39.36,4.6,44-20.18-8.55,12.49-21.92,12.84-30.18,9.17,6.05-13.36,7.34-14.69,3.67-53.24C388.13,299.27,357.84,320.38,375.28,337.82Z"/><path class="cls-11" d="M258.07,195.21c-8.88,33.28,4.8,39.28,5.1,61.6-1.41-64.56,58.5-68.25,17.83-123,48.8,26.62,68.78,68.78,55.46,118.33,19.23-12.57,24.41-46.59,5.18-82.09,39.2,30.32,82.36,188.41-30.32,187.85C237.73,357.55,189.29,301,258.07,195.21Z"/><path class="cls-12" d="M248.45,239.59c-1.48,22.55,13.15,43.81,28.11,56.94-21.45-58.42,44.59-86.59,26.62-130.16,30.32,25.14,28.85,83.57,16.27,116.85,11.84-29.58,44.87-13.06,41.42-59.9C379.11,274.1,387.73,355,311.32,355,244.75,355,226.27,303.19,248.45,239.59Z"/><path class="cls-13" d="M249.19,265.47c.74,30.33,30.33,46.6,43.64,45.12-27.93-55.79,28.84-76.92,23.66-103.54,20.71,42.89-20,55.46,6.66,97.62,5.18-29.58,37.72-14.05,41.42-54,9.61,46.6,7.26,102.06-56.21,102.06C261,352.74,235.14,317.24,249.19,265.47Z"/><path class="cls-14" d="M204.75,275.19c-6.33,23.23-2.64,32.59,6.95,42.71-9.47-29.88,23.88-31.61,2.21-78,35.65,31.87,63.67,115.32,14.5,116.77C185.91,357.87,179.81,314.22,204.75,275.19Z"/><path class="cls-15" d="M198.11,307.63c6.59,8.8,8,17.15,19,19.12-3.24-35.44,13.14-26.76,10.35-63.86,17.23,29.31,40.83,87.26.08,91.21C210.67,355.73,190.72,343,198.11,307.63Z"/><path class="cls-16" d="M233.66,351.1c-14.21,8.37-34-8.46-32.32-32,5.78,10.59,14,17.83,22.36,16.45-5-12-3.3-27.63,9.17-49.09C224,308.86,263.33,333.6,233.66,351.1Z"/><line class="cls-3" x1="372.36" y1="391.97" x2="424.22" y2="340.1"/><line class="cls-3" x1="429.28" y1="391.91" x2="452.53" y2="368.66"/><path class="cls-17" d="M397,326c-.75-4.15-3.56-13-17.28-23.7C365.2,291,347.38,285.2,324,278.85c-35.92-9.75-62.16-1.33-74.57,11.34-7.91,8.07-15.83,17.48-15.83,36.65,0,0-.72,10,.26,16,.63,3.85,4.25,16.24,19.27,20.79s41,5.36,55.34,2.76,32-7.8,54.22-6.17,31.86-5.54,33.17-10.23C397.59,343.7,397.82,330.77,397,326Z"/><path class="cls-18" d="M335.39,361.46c.44-4.84,1.44-16.44,1.44-20.48,0-5.15-.74-11.28-3.93-15.21s-3.43-7.6-6.87-4.17-4.9,5.89-6.87,6.38-5.39-.24-8.83,2-3.43,3.44-1,6.38,6.13,3.44,6.87,9.33c.67,5.39.39,15.25.34,19.33C322.33,363.78,328.59,362.45,335.39,361.46Z"/><path class="cls-19" d="M274.14,285.91c-5.73,8-7.23,23.21.37,29.58s16.22,12.77,22.85,7.37c0,0-1.43,4.38-4.37,5.12,0,0,10.18,4.34,14.11-.25,2.49-2.91,6.42-3.43,9.61-4.9s6.38-3.19,5.64-6.62-1.47-4.91-1.71-7.61-3.19-4.91-7.85-6.87-6.14,3.68-12.52,4.66a30.16,30.16,0,0,0,7.61-8.83c2.94-5.4,2.45-5.89,4.41-7.85s4.66-8.33,2.22-13.48a102.63,102.63,0,0,0-27.09-1.59A38.82,38.82,0,0,0,274.14,285.91Z"/><path class="cls-18" d="M308.78,347.71c0-3-1.15-7.46-4.34-9.42s-6.37-2-11.77-3a26.3,26.3,0,0,1-12.27-6.13c-2.94-2.46-5.4-7.61-7.11-6.38s-3.19,3.19-3.19,9.32-1.23,9.08,1,12.51A15.49,15.49,0,0,1,274,354c0,2.73-.1,10.31-.14,13.3,12.49,1.13,25.95.84,34.94-.78C308.81,362.49,308.78,350.26,308.78,347.71Z"/><path class="cls-20" d="M241.15,331.17c3.92-2.21,8.34-8.83,9.08-12.51s-.74-8.1-.74-8.1,5.4,7.12,9.57,5.65,4.41-6.63,4.66-11.78A35.66,35.66,0,0,1,268.38,289c2.36-3.77,4.34-11.25,4.48-11.82-10.38,2.85-18.49,7.62-23.86,13.12-7.91,8.12-15.43,17-15.43,36.28,0,0,0,.18,0,.5C234.46,328.44,237.8,333.06,241.15,331.17Z"/><path class="cls-18" d="M371.91,341.23c-.49-3.44-3.19-8.34-6.87-11.29s-4.41-1.22-9.81-2.69-10.8-4.18-12.51-4.18-4.91-.73-3.19,2.95,3.68,4.41,3.43,14c-.19,7.35.11,16.61.25,20.52a120.33,120.33,0,0,1,19.92-.23c2.83.21,5.45.27,7.88.22C371.35,356.34,372.32,344.07,371.91,341.23Z"/><path class="cls-18" d="M266.42,347.61c0-2.95-1.72-3.93-1.47-9.57s3.19-14.23-1.48-15.21-6.87-1.23-10.05,2.94-7.36,7.85-7.61,15c-.22,6.34,1.47,14.87,1.84,20.47a30.47,30.47,0,0,0,5.93,2.51,86,86,0,0,0,12.34,2.63C266,362.45,266.42,350.08,266.42,347.61Z"/><path class="cls-21" d="M316.56,365c5.77-1.19,12-2.52,18.83-3.5.39-4.38,1.25-14.25,1.41-19.1-7.47,1-14.28,2.47-20.53,3.77C316.87,351.6,316.61,361,316.56,365Z"/><path class="cls-22" d="M236.05,330a25.26,25.26,0,0,1-1.91-6c-.18-1.11-.32-2.37-.43-3.68-.19,2-.3,4.08-.3,6.33v.17A15.7,15.7,0,0,0,236.05,330Z"/><path class="cls-22" d="M397.47,330.33c-.09-1.48-.21-2.79-.37-3.81a32.45,32.45,0,0,1-.85,4.63,6.85,6.85,0,0,1-.42,1.06A8.08,8.08,0,0,0,397.47,330.33Z"/><path class="cls-21" d="M266.42,347.61v-.05a87.59,87.59,0,0,1-13-2.73,29.76,29.76,0,0,1-7.63-3.5c-.1,6.31,1.51,14.55,1.86,20a30.22,30.22,0,0,0,5.77,2.41,87.56,87.56,0,0,0,12.49,2.65C266,362.5,266.42,350.09,266.42,347.61Z"/><path class="cls-21" d="M371.94,341.6a79.88,79.88,0,0,1-8.88-.19,121.63,121.63,0,0,0-20.13.25c-.11,7,.15,15.25.28,18.87a120.62,120.62,0,0,1,19.85-.22c2.85.21,5.5.27,7.95.21C371.34,356.51,372.24,345,371.94,341.6Z"/><path class="cls-21" d="M308.78,347.71v-.1c-9.17,1.65-23,1.92-35.76.72a14.64,14.64,0,0,1,1,5.66c0,2.73-.1,10.33-.14,13.32,12.51,1.11,26,.81,34.93-.81h0C308.81,362.46,308.78,350.25,308.78,347.71Z"/><path class="cls-23" d="M379.52,323.81c-5.4-2.7-9.82-2.94-14.23-6.62s-12.76-4.91-12.76-4.91,6.38-1.72,9.32-1,6.87-1,2.95-3.19-5.65-7.36-5.65-11.53c0,0,3.19,7.11,7.12,8.09,3.27.82,6.57-4.12,8-5.52h0s.22-.23.49-.47c-13.47-9-29.81-14.57-50.31-20.16-1.95-.53-3.86-1-5.75-1.42.08.41,1.13,6.41-.76,11.38-2,5.16-4.17,7.85-2.21,9.33s8.1.73,10.55,2.45,5.4,1.47,8.09,1.47,4.67,3.44,4.67,3.44a11.13,11.13,0,0,0-8.59-1c-4.66,1.48-5.4,6.63-3.93,8.1s6.87,5.64,12.52,5.15,11.28,2.46,15.7,4.42,7.36.49,10.06,3.43,5.64,7.61,10.54,10.55,10.55,1.47,11.29-1.72S384.91,326.51,379.52,323.81Z"/><path class="cls-18" d="M386.87,308.47a70.89,70.89,0,0,0-6.58-5.79c-.21-.17-.44-.33-.66-.5a1.28,1.28,0,0,0-.21.14c-1.19.89-8.53,6.52-9,9.22-.49,2.95,2.94,3.93,6.38,2.7s6.37-5.31,10.05-5.77Z"/><path class="cls-18" d="M397.07,325.94c-.56-3.13-2-8.58-8.44-15.64h0s-4.43,2-4.43,4.67.73,4.41,3.92,7.36,4.42,4.41,4.17,7.85,2.74,4,5.26.07A38.74,38.74,0,0,0,397.07,325.94Z"/><rect class="cls-24" x="147.34" y="389.24" width="335.31" height="13.07" rx="2.93"/><path d="M315,265l0,0Z"/><polygon class="cls-25" points="333.14 17.66 337.89 12.16 340.82 14.42 335.52 22.2 333.14 17.66"/><polygon class="cls-25" points="259.24 17.66 263.98 12.11 268.78 16.41 261.83 21.87 259.24 17.66"/><polygon class="cls-25" points="223.25 17.66 228.02 12.16 231.11 14.7 225.49 21.87 223.25 17.66"/><polygon class="cls-25" points="527.07 88.36 531.78 82.95 536.16 87.96 531.53 91.76 527.07 88.36"/><polygon class="cls-25" points="585.75 41.71 591.3 36.95 587.09 34.51 583.03 40.3 585.75 41.71"/><polygon class="cls-25" points="390.35 112.54 395.85 107.86 392.17 104.71 387.37 109.96 390.35 112.54"/><polygon class="cls-25" points="316.45 112.54 321.97 107.9 319.19 105.75 312.87 110.46 316.45 112.54"/><polygon class="cls-25" points="242.32 112.54 247.8 107.9 245.56 106.03 237.5 109.59 242.32 112.54"/><polygon class="cls-25" points="206.13 112.54 211.64 107.86 209.62 105.17 203.7 109.59 206.13 112.54"/><polygon class="cls-25" points="155.4 112.54 160.93 107.86 158.2 105.08 152.36 111.04 155.4 112.54"/><polygon class="cls-25" points="187.13 17.66 192.2 12.58 194.71 16.74 189.08 22.47 187.13 17.66"/><polygon class="cls-25" points="136.38 17.66 141.46 12.58 143.97 16.74 138.34 22.47 136.38 17.66"/><path class="cls-25" d="M85.51,113.18a46.65,46.65,0,0,1-34-14,46.38,46.38,0,0,1-14.13-34A46.66,46.66,0,0,1,51.55,31.08a46.3,46.3,0,0,1,34-14.19s20,.23,34.08,14.3L106,44.79a28.1,28.1,0,0,0-20.42-8.48A27.52,27.52,0,0,0,65.2,44.79a28.09,28.09,0,0,0-8.47,20.42A27.84,27.84,0,0,0,65.2,85.64a27.74,27.74,0,0,0,20.37,8.41,27.9,27.9,0,0,0,20.48-8.47l13.6,13.6A48,48,0,0,1,85.51,113.18Z"/><path class="cls-25" d="M155.4,17.66v38h31.72v-38h19v94.88h-19v-38H155.4v38h-19V17.66Z"/><path class="cls-25" d="M223.26,17.66h19.07v94.88H223.26Z"/><path class="cls-25" d="M278.31,17.66V93.58h38.14v19H259.24V17.66Z"/><path class="cls-25" d="M352.21,17.66V93.58h38.14v19H333.14V17.66Z"/><path class="cls-25" d="M557,93.86c5.27,0,11.08-4.38,11.08-9.64,0-8.66-11.63-9.87-18.19-12.15-11.57-3.94-21.78-13.44-21.78-26.36a28.95,28.95,0,0,1,57.61-4l-18.94,4a9.63,9.63,0,0,0-19.25.06c0,8.55,10.82,10.82,17.41,12.78,12,3.45,22.54,12.57,22.54,25.78,0,16-14.37,28.92-30.34,28.92-14.67,0-27.94-10.76-30.1-24.89l18.94-4c0,5.3,5.75,9.61,11.11,9.61Z"/><path class="cls-18" d="M427.29,39.24s-15.24,20-19,40.73,1.25,33.8,18,33.8c29.09,0,34.16-12.86,45-13.44,15.24-.82,21.82,15.06,30.82,7.73,8.55-7,10.73-19.54,6.93-38.68s-15.24-43.17-28.75-52.13S450.49,10.74,427.29,39.24Z"/><path class="cls-25" d="M87.2,111.49a46.69,46.69,0,0,1-34-14,46.34,46.34,0,0,1-14.13-34A46.7,46.7,0,0,1,53.24,29.38a46.33,46.33,0,0,1,34-14.18s20,.23,34.08,14.3l-13.6,13.6a28.1,28.1,0,0,0-20.42-8.48A27.52,27.52,0,0,0,66.89,43.1a28.09,28.09,0,0,0-8.47,20.42A27.84,27.84,0,0,0,66.89,84a27.74,27.74,0,0,0,20.37,8.41,27.9,27.9,0,0,0,20.48-8.47l13.6,13.59A47.92,47.92,0,0,1,87.2,111.49Z"/><path class="cls-25" d="M157.09,16v38h31.72V16h19v94.88h-19v-38H157.09v38h-19V16Z"/><path class="cls-25" d="M225,16H244v94.88H225Z"/><path class="cls-25" d="M280,16V91.89h38.14v19H260.93V16Z"/><path class="cls-25" d="M353.9,16V91.89H392v19H334.83V16Z"/><path class="cls-25" d="M558.72,92.17c5.27,0,11.08-4.38,11.08-9.64,0-8.67-11.63-9.87-18.19-12.15C540,66.44,529.83,56.94,529.83,44a28.95,28.95,0,0,1,57.61-4l-18.93,4a9.63,9.63,0,0,0-19.26.06c0,8.55,10.82,10.82,17.41,12.78,12,3.45,22.54,12.57,22.54,25.78,0,16-14.36,28.92-30.34,28.92-14.67,0-27.94-10.76-30.1-24.89l18.94-4c0,5.3,5.75,9.61,11.11,9.61Z"/><path class="cls-18" d="M429,37.55s-15.23,20-19,40.72,1.25,33.8,18,33.8c29.09,0,34.16-12.85,45-13.43,15.24-.82,21.82,15.06,30.82,7.73,8.55-7,10.74-19.54,6.93-38.68S495.47,24.52,482,15.56,452.18,9.05,429,37.55Z"/><path class="cls-25" d="M88.89,109.8a46.69,46.69,0,0,1-34-14,46.36,46.36,0,0,1-14.13-34A46.7,46.7,0,0,1,54.93,27.69a46.36,46.36,0,0,1,34-14.18s20,.22,34.08,14.3l-13.6,13.6A28.08,28.08,0,0,0,89,32.93a27.54,27.54,0,0,0-20.37,8.48,28.08,28.08,0,0,0-8.47,20.42,27.82,27.82,0,0,0,8.47,20.42A27.73,27.73,0,0,0,89,90.67a27.9,27.9,0,0,0,20.48-8.47L123,95.79A47.92,47.92,0,0,1,88.89,109.8Z"/><path class="cls-25" d="M158.78,14.27v38H190.5v-38h19v94.88h-19v-38H158.78v38h-19V14.27Z"/><path class="cls-25" d="M226.64,14.27h19.07v94.88H226.64Z"/><path class="cls-25" d="M281.69,14.27V90.2h38.14v19H262.62V14.27Z"/><path class="cls-25" d="M355.59,14.27V90.2h38.14v19H336.52V14.27Z"/><path class="cls-25" d="M560.41,90.48c5.27,0,11.08-4.38,11.08-9.65,0-8.66-11.62-9.87-18.19-12.14-11.56-3.94-21.78-13.44-21.78-26.36a28.95,28.95,0,0,1,57.61-4l-18.93,4a9.63,9.63,0,0,0-19.26.06c0,8.54,10.83,10.82,17.41,12.78,12,3.45,22.54,12.57,22.54,25.78,0,16-14.36,28.92-30.33,28.92-14.68,0-27.95-10.76-30.11-24.89l18.94-4c0,5.29,5.76,9.61,11.11,9.61Z"/><path class="cls-18" d="M430.67,35.86s-15.23,20-19,40.72,1.25,33.8,18,33.8c29.08,0,34.15-12.85,45-13.44,15.24-.81,21.82,15.07,30.82,7.74,8.55-7,10.74-19.54,6.93-38.68s-15.24-43.17-28.74-52.13S453.88,7.36,430.67,35.86Z"/><path class="cls-26" d="M90.58,108.11a46.69,46.69,0,0,1-34-14,46.37,46.37,0,0,1-14.13-34A46.7,46.7,0,0,1,56.62,26a46.33,46.33,0,0,1,34-14.18s20,.22,34.08,14.3l-13.6,13.6a28.07,28.07,0,0,0-20.42-8.48,27.52,27.52,0,0,0-20.36,8.48A28.07,28.07,0,0,0,61.8,60.14a27.84,27.84,0,0,0,8.48,20.42A27.74,27.74,0,0,0,90.64,89a27.86,27.86,0,0,0,20.48-8.48l13.6,13.6A47.92,47.92,0,0,1,90.58,108.11Z"/><path class="cls-27" d="M160.47,12.58v38h31.72v-38h19v94.88h-19v-38H160.47v38h-19V12.58Z"/><path class="cls-28" d="M228.33,12.58H247.4v94.88H228.33Z"/><path class="cls-29" d="M283.38,12.58V88.51h38.15v18.95H264.31V12.58Z"/><path class="cls-30" d="M357.28,12.58V88.51h38.14v18.95H338.21V12.58Z"/><path class="cls-31" d="M562.1,88.78c5.27,0,11.08-4.37,11.08-9.64,0-8.66-11.62-9.87-18.18-12.14-11.57-3.94-21.79-13.44-21.79-26.36a28.95,28.95,0,0,1,57.61-4l-18.93,4a9.63,9.63,0,0,0-19.25.06c0,8.54,10.82,10.82,17.41,12.77,12,3.46,22.53,12.58,22.53,25.79,0,16-14.36,28.92-30.33,28.92-14.68,0-28-10.76-30.1-24.89l18.93-4c0,5.29,5.76,9.61,11.11,9.61Z"/><path class="cls-17" d="M432.37,34.17s-15.24,19.95-19.05,40.72,1.26,33.8,18,33.8c29.09,0,34.15-12.86,45-13.44,15.24-.81,21.82,15.07,30.82,7.74,8.55-7,10.74-19.55,6.93-38.69s-15.24-43.16-28.74-52.12S455.57,5.66,432.37,34.17Z"/><path class="cls-18" d="M445.16,26.94A193.34,193.34,0,0,0,429,48.42C423.11,58,432.69,67,444.43,67c20.39,0,23.94-6.9,31.55-7.21,10.68-.44,15.29,8.09,21.6,4.15,6-3.74,7.53-10.49,4.86-20.77s-10.68-23.18-20.15-28S461.42,11.63,445.16,26.94Z"/><path class="cls-18" d="M428,67.62s-4.36-2.11-6.66-.81c-3.18,1.8-3.76,5.63-5,13.87s-.17,20.09,8.72,22.1,21.18,1.21,26.82-2.61,10.43-19.09,19.65-23.11,10.26-5.42,9.74-8.24-5.29-7-12.64-2.21a48.55,48.55,0,0,1-23.75,7.44C437.89,74.25,431.57,69.43,428,67.62Z"/><path class="cls-18" d="M476.37,77.85s-8.1,2.48-9.86,8.89,3.35,6,8.62,3.52,10.21-.21,14.43,2.28,10,6.62,14.25,4.13,7-9.72,7.21-17-1.4-15.39-4.4-15.72c-5.63-.62-6.17,6.73-11.61,5.58C483.23,67.09,489.21,75.78,476.37,77.85Z"/><path class="cls-32" d="M481.2,29.25c-2-7.44-14.18-6.75-19.92-1.69s-5.07,15.53,2.7,17.56S485.25,44.44,481.2,29.25Z"/><path class="cls-33" d="M90.58,108.11a46.69,46.69,0,0,1-34-14,46.37,46.37,0,0,1-14.13-34A46.7,46.7,0,0,1,56.62,26a46.33,46.33,0,0,1,34-14.18s20,.22,34.08,14.3l-13.6,13.6a28.07,28.07,0,0,0-20.42-8.48,27.52,27.52,0,0,0-20.36,8.48A28.07,28.07,0,0,0,61.8,60.14a27.84,27.84,0,0,0,8.48,20.42A27.74,27.74,0,0,0,90.64,89a27.86,27.86,0,0,0,20.48-8.48l13.6,13.6A47.92,47.92,0,0,1,90.58,108.11Z"/><path class="cls-33" d="M160.47,12.58v38h31.72v-38h19v94.88h-19v-38H160.47v38h-19V12.58Z"/><path class="cls-33" d="M228.33,12.58H247.4v94.88H228.33Z"/><path class="cls-33" d="M283.38,12.58V88.51h38.15v18.95H264.31V12.58Z"/><path class="cls-33" d="M357.28,12.58V88.51h38.14v18.95H338.21V12.58Z"/><path class="cls-33" d="M562.1,88.78c5.27,0,11.08-4.37,11.08-9.64,0-8.66-11.62-9.87-18.18-12.14-11.57-3.94-21.79-13.44-21.79-26.36a28.95,28.95,0,0,1,57.61-4l-18.93,4a9.63,9.63,0,0,0-19.25.06c0,8.54,10.82,10.82,17.41,12.77,12,3.46,22.53,12.58,22.53,25.79,0,16-14.36,28.92-30.33,28.92-14.68,0-28-10.76-30.1-24.89l18.93-4c0,5.29,5.76,9.61,11.11,9.61Z"/><path class="cls-18" d="M480.39,29.83c-1.87-7-13.4-6.38-18.82-1.59A10.42,10.42,0,0,0,460,30c5.71-4.1,16.13-4.33,17.9,2.32,1.29,4.84.69,8.34-.95,10.78C480.28,40.82,482.22,36.66,480.39,29.83Z"/><path class="cls-25" d="M35.11,505.44l30.38-41.71v63.55H53V501.55l-17.9,24.72L17.16,501.55v25.73H4.68V463.73Z"/><path class="cls-25" d="M110.63,465v12.44h-25V490h18.72v12.44H85.67V515h25v12.4H73.19V465Z"/><path class="cls-25" d="M146.27,463.92l28.35,63.36H161.1l-4.2-9.44H135.65l-4.2,9.44H118Zm5.7,42.91-5.66-13.14-5.74,13.14Z"/><path class="cls-25" d="M211.13,465.19v12.37H195.87v49.72H183.36V477.56H168.07V465.19Z"/><path class="cls-25" d="M277.45,465v49.82h25v12.43H264.94V465Z"/><path class="cls-25" d="M364.14,473.85a31.41,31.41,0,1,1-22.32-9.31A30.5,30.5,0,0,1,364.14,473.85Zm-35.72,8.88a18.94,18.94,0,0,0,26.76,26.8,18.94,18.94,0,1,0-26.76-26.8Z"/><path class="cls-25" d="M492.78,499.45V464.89h12.55v63.68l-37.54-35.76v34.56H455.28V463.73Z"/><path class="cls-25" d="M544.94,464.66a31.78,31.78,0,0,1,22.36,9.23l-8.92,8.92a18.39,18.39,0,0,0-13.36-5.6,18,18,0,0,0-13.36,5.6A19,19,0,0,0,545,515.17a18.9,18.9,0,0,0,17.07-10.89H544.32V492.34h32c.89,11.64-2.93,20.08-9.08,26.19a30.56,30.56,0,0,1-22.32,9.22,31.56,31.56,0,0,1-31.55-31.54,30.63,30.63,0,0,1,9.27-22.36,30.13,30.13,0,0,1,22.28-9.31Z"/><path class="cls-25" d="M621.32,464.89v12.47h-25v12.55h18.77v12.47H596.29v12.55h25v12.44H583.78V464.89Z"/><path class="cls-25" d="M434.58,467.81l2.91-3.8H382.85l2.91,3.8c.15.19,14.47,18.88,16.57,22.11,1.85,2.86,2.63,5.71,2.63,15.95,0,7.49-1.36,9.58-1.59,9.88-2.12,1.45-7.77,5.28-9.12,6l-8.17,4.44h48.19l-8.18-4.44c-1.21-.65-6.1-3.94-9.12-6-.23-.3-1.59-2.39-1.59-9.88,0-10.24.77-13.09,2.63-15.95C420.1,486.69,434.43,468,434.58,467.81ZM412.8,487.58a17.73,17.73,0,0,0-2.63,6.65,17.57,17.57,0,0,0-2.63-6.65c-1.31-2-13.2-17.9-13.2-17.9a44.8,44.8,0,0,0,5.92.12c.62,0,1,0,1,0,4.31-.14,8.72-.32,13.16,1.22,3.27,1.14,6.15,2.46,8.62,2.88C423,473.87,413.76,486.1,412.8,487.58Z"/><path class="cls-25" d="M36.11,504.44l30.38-41.71v63.55H54V500.55l-17.9,24.72L18.16,500.55v25.73H5.68V462.73Z"/><path class="cls-25" d="M111.63,464v12.44h-25V489h18.72v12.44H86.67V514h25v12.4H74.19V464Z"/><path class="cls-25" d="M147.27,462.92l28.35,63.36H162.1l-4.2-9.44H136.65l-4.2,9.44H119Zm5.7,42.91-5.66-13.14-5.74,13.14Z"/><path class="cls-25" d="M212.13,464.19v12.37H196.87v49.72H184.36V476.56H169.07V464.19Z"/><path class="cls-25" d="M278.45,464v49.82h25v12.43H265.94V464Z"/><path class="cls-25" d="M365.14,472.85a31.41,31.41,0,1,1-22.32-9.31A30.5,30.5,0,0,1,365.14,472.85Zm-35.72,8.88a18.94,18.94,0,0,0,26.76,26.8,18.94,18.94,0,1,0-26.76-26.8Z"/><path class="cls-25" d="M493.78,498.45V463.89h12.55v63.68l-37.54-35.76v34.56H456.28V462.73Z"/><path class="cls-25" d="M545.94,463.66a31.78,31.78,0,0,1,22.36,9.23l-8.92,8.92a18.39,18.39,0,0,0-13.36-5.6,18,18,0,0,0-13.36,5.6A19,19,0,0,0,546,514.17a18.9,18.9,0,0,0,17.07-10.89H545.32V491.34h32c.89,11.64-2.93,20.08-9.08,26.19a30.56,30.56,0,0,1-22.32,9.22,31.56,31.56,0,0,1-31.55-31.54,30.63,30.63,0,0,1,9.27-22.36,30.13,30.13,0,0,1,22.28-9.31Z"/><path class="cls-25" d="M622.32,463.89v12.47h-25v12.55h18.77v12.47H597.29v12.55h25v12.44H584.78V463.89Z"/><path class="cls-25" d="M435.58,466.81l2.91-3.8H383.85l2.91,3.8c.15.19,14.47,18.88,16.57,22.11,1.85,2.86,2.63,5.71,2.63,15.95,0,7.49-1.36,9.58-1.59,9.88-2.12,1.45-7.77,5.28-9.12,6l-8.17,4.44h48.19l-8.18-4.44c-1.21-.65-6.1-3.94-9.12-6-.23-.3-1.59-2.39-1.59-9.88,0-10.24.77-13.09,2.63-15.95C421.1,485.69,435.43,467,435.58,466.81ZM413.8,486.58a17.73,17.73,0,0,0-2.63,6.65,17.57,17.57,0,0,0-2.63-6.65c-1.31-2-13.2-17.9-13.2-17.9a44.8,44.8,0,0,0,5.92.12c.62,0,1,0,1,0,4.31-.14,8.72-.32,13.16,1.22,3.27,1.14,6.15,2.46,8.62,2.88C424,472.87,414.76,485.1,413.8,486.58Z"/><path class="cls-25" d="M37.11,503.44l30.38-41.71v63.55H55V499.55l-17.9,24.72L19.16,499.55v25.73H6.68V461.73Z"/><path class="cls-25" d="M112.63,463v12.44h-25V488h18.72v12.44H87.67V513h25v12.4H75.19V463Z"/><path class="cls-25" d="M148.27,461.92l28.35,63.36H163.1l-4.2-9.44H137.65l-4.2,9.44H120Zm5.7,42.91-5.66-13.14-5.74,13.14Z"/><path class="cls-25" d="M213.13,463.19v12.37H197.87v49.72H185.36V475.56H170.07V463.19Z"/><path class="cls-25" d="M279.45,463v49.82h25v12.43H266.94V463Z"/><path class="cls-25" d="M366.14,471.85a31.41,31.41,0,1,1-22.32-9.31A30.5,30.5,0,0,1,366.14,471.85Zm-35.72,8.88a18.94,18.94,0,0,0,26.76,26.8,18.94,18.94,0,1,0-26.76-26.8Z"/><path class="cls-25" d="M494.78,497.45V462.89h12.55v63.68l-37.54-35.76v34.56H457.28V461.73Z"/><path class="cls-25" d="M546.94,462.66a31.78,31.78,0,0,1,22.36,9.23l-8.92,8.92a18.39,18.39,0,0,0-13.36-5.6,18,18,0,0,0-13.36,5.6A19,19,0,0,0,547,513.17a18.9,18.9,0,0,0,17.07-10.89H546.32V490.34h32c.89,11.64-2.93,20.08-9.08,26.19a30.56,30.56,0,0,1-22.32,9.22,31.56,31.56,0,0,1-31.55-31.54,30.63,30.63,0,0,1,9.27-22.36,30.13,30.13,0,0,1,22.28-9.31Z"/><path class="cls-25" d="M623.32,462.89v12.47h-25v12.55h18.77v12.47H598.29v12.55h25v12.44H585.78V462.89Z"/><path class="cls-25" d="M436.58,465.81l2.91-3.8H384.85l2.91,3.8c.15.19,14.47,18.88,16.57,22.11,1.85,2.86,2.63,5.71,2.63,15.95,0,7.49-1.36,9.58-1.59,9.88-2.12,1.45-7.77,5.28-9.12,6l-8.17,4.44h48.19l-8.18-4.44c-1.21-.65-6.1-3.94-9.12-6-.23-.3-1.59-2.39-1.59-9.88,0-10.24.77-13.09,2.63-15.95C422.1,484.69,436.43,466,436.58,465.81ZM414.8,485.58a17.73,17.73,0,0,0-2.63,6.65,17.57,17.57,0,0,0-2.63-6.65c-1.31-2-13.2-17.9-13.2-17.9a44.8,44.8,0,0,0,5.92.12c.62,0,1,0,1,0,4.31-.14,8.72-.32,13.16,1.22,3.27,1.14,6.15,2.46,8.62,2.88C425,471.87,415.76,484.1,414.8,485.58Z"/><path class="cls-25" d="M38.11,502.44l30.38-41.71v63.55H56V498.55l-17.9,24.72L20.16,498.55v25.73H7.68V460.73Z"/><path class="cls-25" d="M113.63,462v12.44h-25V487h18.72v12.44H88.67V512h25v12.4H76.19V462Z"/><path class="cls-25" d="M149.27,460.92l28.35,63.36H164.1l-4.2-9.44H138.65l-4.2,9.44H121Zm5.7,42.91-5.66-13.14-5.74,13.14Z"/><path class="cls-25" d="M214.13,462.19v12.37H198.87v49.72H186.36V474.56H171.07V462.19Z"/><path class="cls-25" d="M280.45,462v49.82h25v12.43H267.94V462Z"/><path class="cls-25" d="M367.14,470.85a31.41,31.41,0,1,1-22.32-9.31A30.5,30.5,0,0,1,367.14,470.85Zm-35.72,8.88a18.94,18.94,0,0,0,26.76,26.8,18.94,18.94,0,1,0-26.76-26.8Z"/><path class="cls-25" d="M495.78,496.45V461.89h12.55v63.68l-37.54-35.76v34.56H458.28V460.73Z"/><path class="cls-25" d="M547.94,461.66a31.78,31.78,0,0,1,22.36,9.23l-8.92,8.92a18.39,18.39,0,0,0-13.36-5.6,18,18,0,0,0-13.36,5.6A19,19,0,0,0,548,512.17a18.9,18.9,0,0,0,17.07-10.89H547.32V489.34h32c.89,11.64-2.93,20.08-9.08,26.19a30.56,30.56,0,0,1-22.32,9.22,31.56,31.56,0,0,1-31.55-31.54,30.63,30.63,0,0,1,9.27-22.36,30.13,30.13,0,0,1,22.28-9.31Z"/><path class="cls-25" d="M624.32,461.89v12.47h-25v12.55h18.77v12.47H599.29v12.55h25v12.44H586.78V461.89Z"/><path class="cls-25" d="M437.58,464.81l2.91-3.8H385.85l2.91,3.8c.15.19,14.47,18.88,16.57,22.11,1.85,2.86,2.63,5.71,2.63,15.95,0,7.49-1.36,9.58-1.59,9.88-2.12,1.45-7.77,5.28-9.12,6l-8.17,4.44h48.19l-8.18-4.44c-1.21-.65-6.1-3.94-9.12-6-.23-.3-1.59-2.39-1.59-9.88,0-10.24.77-13.09,2.63-15.95C423.1,483.69,437.43,465,437.58,464.81ZM415.8,484.58a17.73,17.73,0,0,0-2.63,6.65,17.57,17.57,0,0,0-2.63-6.65c-1.31-2-13.2-17.9-13.2-17.9a44.8,44.8,0,0,0,5.92.12c.62,0,1,0,1,0,4.31-.14,8.72-.32,13.16,1.22,3.27,1.14,6.15,2.46,8.62,2.88C426,470.87,416.76,483.1,415.8,484.58Z"/><path class="cls-34" d="M39.11,501.44l30.38-41.71v63.55H57V497.55l-17.9,24.72L21.16,497.55v25.73H8.68V459.73Z"/><path class="cls-35" d="M114.63,461v12.44h-25V486h18.72v12.44H89.67V511h25v12.4H77.19V461Z"/><path class="cls-36" d="M150.27,459.92l28.35,63.36H165.1l-4.2-9.44H139.65l-4.2,9.44H122Zm5.7,42.91-5.66-13.14-5.74,13.14Z"/><path class="cls-37" d="M215.13,461.19v12.37H199.87v49.72H187.36V473.56H172.07V461.19Z"/><path class="cls-38" d="M281.45,461v49.82h25v12.43H268.94V461Z"/><path class="cls-39" d="M368.14,469.85a31.41,31.41,0,1,1-22.32-9.31A30.5,30.5,0,0,1,368.14,469.85Zm-35.72,8.88a18.94,18.94,0,0,0,26.76,26.8,18.94,18.94,0,1,0-26.76-26.8Z"/><path class="cls-40" d="M496.78,495.45V460.89h12.55v63.68l-37.54-35.76v34.56H459.28V459.73Z"/><path class="cls-41" d="M548.94,460.66a31.78,31.78,0,0,1,22.36,9.23l-8.92,8.92a18.39,18.39,0,0,0-13.36-5.6,18,18,0,0,0-13.36,5.6A19,19,0,0,0,549,511.17a18.9,18.9,0,0,0,17.07-10.89H548.32V488.34h32c.89,11.64-2.93,20.08-9.08,26.19a30.56,30.56,0,0,1-22.32,9.22,31.56,31.56,0,0,1-31.55-31.54,30.63,30.63,0,0,1,9.27-22.36,30.13,30.13,0,0,1,22.28-9.31Z"/><path class="cls-42" d="M625.32,460.89v12.47h-25v12.55h18.77v12.47H600.29v12.55h25v12.44H587.78V460.89Z"/><path class="cls-43" d="M438.58,463.81l2.91-3.8H386.85l2.91,3.8c.15.19,14.47,18.88,16.57,22.11,1.85,2.86,2.63,5.71,2.63,15.95,0,7.49-1.36,9.58-1.59,9.88-2.12,1.45-7.77,5.28-9.12,6l-8.17,4.44h48.19l-8.18-4.44c-1.21-.65-6.1-3.94-9.12-6-.23-.3-1.59-2.39-1.59-9.88,0-10.24.77-13.09,2.63-15.95C424.1,482.69,438.43,464,438.58,463.81ZM416.8,483.58a17.73,17.73,0,0,0-2.63,6.65,17.57,17.57,0,0,0-2.63-6.65c-1.31-2-13.2-17.9-13.2-17.9a44.8,44.8,0,0,0,5.92.12c.62,0,1,0,1,0,4.31-.14,8.72-.32,13.16,1.22,3.27,1.14,6.15,2.46,8.62,2.88C427,469.87,417.76,482.1,416.8,483.58Z"/><path class="cls-33" d="M39.11,501.44l30.38-41.71v63.55H57V497.55l-17.9,24.72L21.16,497.55v25.73H8.68V459.73Z"/><path class="cls-33" d="M114.63,461v12.44h-25V486h18.72v12.44H89.67V511h25v12.4H77.19V461Z"/><path class="cls-33" d="M150.27,459.92l28.35,63.36H165.1l-4.2-9.44H139.65l-4.2,9.44H122Zm5.7,42.91-5.66-13.14-5.74,13.14Z"/><path class="cls-33" d="M215.13,461.19v12.37H199.87v49.72H187.36V473.56H172.07V461.19Z"/><path class="cls-33" d="M281.45,461v49.82h25v12.43H268.94V461Z"/><path class="cls-33" d="M368.14,469.85a31.41,31.41,0,1,1-22.32-9.31A30.5,30.5,0,0,1,368.14,469.85Zm-35.72,8.88a18.94,18.94,0,0,0,26.76,26.8,18.94,18.94,0,1,0-26.76-26.8Z"/><path class="cls-33" d="M496.78,495.45V460.89h12.55v63.68l-37.54-35.76v34.56H459.28V459.73Z"/><path class="cls-33" d="M548.94,460.66a31.78,31.78,0,0,1,22.36,9.23l-8.92,8.92a18.39,18.39,0,0,0-13.36-5.6,18,18,0,0,0-13.36,5.6A19,19,0,0,0,549,511.17a18.9,18.9,0,0,0,17.07-10.89H548.32V488.34h32c.89,11.64-2.93,20.08-9.08,26.19a30.56,30.56,0,0,1-22.32,9.22,31.56,31.56,0,0,1-31.55-31.54,30.63,30.63,0,0,1,9.27-22.36,30.13,30.13,0,0,1,22.28-9.31Z"/><path class="cls-33" d="M625.32,460.89v12.47h-25v12.55h18.77v12.47H600.29v12.55h25v12.44H587.78V460.89Z"/><path class="cls-33" d="M438.58,463.81l2.91-3.8H386.85l2.91,3.8c.15.19,14.47,18.88,16.57,22.11,1.85,2.86,2.63,5.71,2.63,15.95,0,7.49-1.36,9.58-1.59,9.88-2.12,1.45-7.77,5.28-9.12,6l-8.17,4.44h48.19l-8.18-4.44c-1.21-.65-6.1-3.94-9.12-6-.23-.3-1.59-2.39-1.59-9.88,0-10.24.77-13.09,2.63-15.95C424.1,482.69,438.43,464,438.58,463.81ZM416.8,483.58a17.73,17.73,0,0,0-2.63,6.65,17.57,17.57,0,0,0-2.63-6.65c-1.31-2-13.2-17.9-13.2-17.9a44.8,44.8,0,0,0,5.92.12c.62,0,1,0,1,0,4.31-.14,8.72-.32,13.16,1.22,3.27,1.14,6.15,2.46,8.62,2.88C427,469.87,417.76,482.1,416.8,483.58Z"/><g class="cls-44"><path d="M385.16,28.78C255.22-7.19,135,60.77,88.91,168.12c-15.79,30.36-19.83,83-19.83,83s20.13-44.94,60.8-85.35c6.65-6.6,25.74-29.49,55.73-40.25,0,.1,0,.21,0,.31a104.25,104.25,0,0,0,4.06,14.62,63.89,63.89,0,0,0,6.81,13.21,61.81,61.81,0,0,1-2-14.16,95.73,95.73,0,0,1,1-14c.57-3.82,1.33-7.6,2.24-11.32,4.54-10.71,13.74-28.77,27.4-38.61C245.37,61,255.29,60.17,260.35,64.62s6.07,19.84,4.86,33.4a134.27,134.27,0,0,1-2.2,14.79c-1,3.94-2.26,7.85-3.69,11.7a97,97,0,0,1-5.94,12.72,61,61,0,0,1-8.58,11.43,64.06,64.06,0,0,0,12.35-8.27,104.62,104.62,0,0,0,10.61-10.85c1.81-2.17,3.55-4.41,5.22-6.7,7.59.27,17.19,1.2,24.41,3.92,14,5.26,26.92,10.73,48.58,28.13,0,0-4.25-5.83-8.43-11.37-4.42-5.85-4.53-12.71-1.89-19s18.21-35,47.56-35.62c0,0,8.5,6.88,6.68,23.68s-7.08,28.34-12.75,36.23c-2.41,3.35-5.36,7.25-8,10.63a11.17,11.17,0,0,0,1.2,14.93c6.82,6.46,19,17.75,22.49,27,0,0-3.58,17.64-19,38.49s-31.58,27.93-31.58,27.93,34.47-3.92,56.27-32c21.29-27.39,46.11-55.45,44.13-127.92,0,0,15.92,19.71,15.38,73.41s-5.13,70.17-5.67,77.72,4.32,15.66,3,28.88c-1,9.51-2.08,22.51-2.63,29.06a8.6,8.6,0,0,0,2.68,7l10.63,10a17.14,17.14,0,0,1,4,19.26l-17.84,41.44a23.67,23.67,0,0,1-14.42,13.17c-18.46,6-59.27,17.47-101.7,17.47-57.49,0-85-15.11-105-29.14,0,0,16.19,22.4,65,36.7,18.42,5.39,41.45,8,63,9.21,20.83,1.14,25,30.08,5.36,37a147.56,147.56,0,0,1-42.72,8.53c-60.72,2.7-91.75-.54-151.39-33.46-22.58-12.46-41-29.41-55.12-45.66A245.56,245.56,0,0,0,315,510.92c157.39,0,280.25-147.86,237.25-312.25A239.12,239.12,0,0,0,385.16,28.78Z"/><path d="M397.56,372.91S414.63,349,393,343.63C375.75,339.35,344.29,372,344.29,372S392.52,346.33,397.56,372.91Z"/><path d="M231.18,256.28s-3.14,19.91,6.29,28.3,28.31,5.24,33.55,1.05C271,285.63,245.92,282.23,231.18,256.28Z"/></g></g></g></svg>