<svg id="Layer_1" data-name="Layer 1" xmlns="http://www.w3.org/2000/svg" xmlns:xlink="http://www.w3.org/1999/xlink" viewBox="0 0 630 530"><defs><style>.cls-1{opacity:0.05;}.cls-2{fill:#be222d;}.cls-3{fill:url(#linear-gradient);}.cls-4{fill:#ed2f24;}.cls-5{fill:url(#linear-gradient-2);}.cls-6{fill:url(#linear-gradient-3);}.cls-7{fill:url(#linear-gradient-4);}.cls-8{fill:url(#linear-gradient-5);}.cls-9{fill:url(#linear-gradient-6);}.cls-10{fill:url(#linear-gradient-7);}.cls-11{fill:#fad1c0;}.cls-12{fill:#fde9e2;}.cls-13{fill:none;stroke:#fcf8c8;stroke-miterlimit:10;stroke-width:0.5px;}.cls-14{fill:url(#linear-gradient-8);}.cls-15{fill:url(#linear-gradient-9);}.cls-16{fill:url(#linear-gradient-10);}.cls-17{fill:url(#linear-gradient-11);}.cls-18{fill:url(#linear-gradient-12);}.cls-19{fill:url(#linear-gradient-13);}.cls-20{fill:url(#linear-gradient-14);}.cls-21{fill:url(#linear-gradient-15);}.cls-22{fill:url(#linear-gradient-16);}.cls-23{fill:url(#linear-gradient-17);}</style><linearGradient id="linear-gradient" x1="194.83" y1="245.61" x2="435.17" y2="245.61" gradientUnits="userSpaceOnUse"><stop offset="0" stop-color="#ed2f24"/><stop offset="1" stop-color="#fced09"/></linearGradient><linearGradient id="linear-gradient-2" x1="83.61" y1="108.11" x2="83.61" y2="11.82" xlink:href="#linear-gradient"/><linearGradient id="linear-gradient-3" x1="176.33" y1="107.46" x2="176.33" y2="12.58" xlink:href="#linear-gradient"/><linearGradient id="linear-gradient-4" x1="237.86" y1="107.46" x2="237.86" y2="12.58" xlink:href="#linear-gradient"/><linearGradient id="linear-gradient-5" x1="292.92" y1="107.46" x2="292.92" y2="12.58" xlink:href="#linear-gradient"/><linearGradient id="linear-gradient-6" x1="366.82" y1="107.46" x2="366.82" y2="12.58" xlink:href="#linear-gradient"/><linearGradient id="linear-gradient-7" x1="562.36" y1="108.18" x2="562.36" y2="11.75" xlink:href="#linear-gradient"/><linearGradient id="linear-gradient-8" x1="39.09" y1="523.28" x2="39.09" y2="459.73" xlink:href="#linear-gradient"/><linearGradient id="linear-gradient-9" x1="95.91" y1="523.35" x2="95.91" y2="461.04" xlink:href="#linear-gradient"/><linearGradient id="linear-gradient-10" x1="150.29" y1="523.28" x2="150.29" y2="459.92" xlink:href="#linear-gradient"/><linearGradient id="linear-gradient-11" x1="193.6" y1="523.28" x2="193.6" y2="461.19" xlink:href="#linear-gradient"/><linearGradient id="linear-gradient-12" x1="287.71" y1="523.29" x2="287.71" y2="461.04" xlink:href="#linear-gradient"/><linearGradient id="linear-gradient-13" x1="345.83" y1="523.72" x2="345.83" y2="460.54" xlink:href="#linear-gradient"/><linearGradient id="linear-gradient-14" x1="484.3" y1="524.57" x2="484.3" y2="459.73" xlink:href="#linear-gradient"/><linearGradient id="linear-gradient-15" x1="548.89" y1="523.75" x2="548.89" y2="460.54" xlink:href="#linear-gradient"/><linearGradient id="linear-gradient-16" x1="606.55" y1="523.37" x2="606.55" y2="460.89" xlink:href="#linear-gradient"/><linearGradient id="linear-gradient-17" x1="414.17" y1="522.2" x2="414.17" y2="460.01" xlink:href="#linear-gradient"/></defs><path d="M315,265l0,0Z"/><g class="cls-1"><path d="M385.16,28.78C255.22-7.19,135,60.77,88.91,168.12c-15.79,30.36-19.83,83-19.83,83s20.13-44.94,60.8-85.35c6.65-6.6,25.74-29.49,55.73-40.25,0,.1,0,.21,0,.31a104.25,104.25,0,0,0,4.06,14.62,63.89,63.89,0,0,0,6.81,13.21,61.81,61.81,0,0,1-2-14.16,95.73,95.73,0,0,1,1-14c.57-3.82,1.33-7.6,2.24-11.32,4.54-10.71,13.74-28.77,27.4-38.61C245.37,61,255.29,60.17,260.35,64.62s6.07,19.84,4.86,33.4a134.27,134.27,0,0,1-2.2,14.79c-1,3.94-2.26,7.85-3.69,11.7a97,97,0,0,1-5.94,12.72,61,61,0,0,1-8.58,11.43,64.06,64.06,0,0,0,12.35-8.27,104.62,104.62,0,0,0,10.61-10.85c1.81-2.17,3.55-4.41,5.22-6.7,7.59.27,17.19,1.2,24.41,3.92,14,5.26,26.92,10.73,48.58,28.13,0,0-4.25-5.83-8.43-11.37-4.42-5.85-4.53-12.71-1.89-19s18.21-35,47.56-35.62c0,0,8.5,6.88,6.68,23.68s-7.08,28.34-12.75,36.23c-2.41,3.35-5.36,7.25-8,10.63a11.17,11.17,0,0,0,1.2,14.93c6.82,6.46,19,17.75,22.49,27,0,0-3.58,17.64-19,38.49s-31.58,27.93-31.58,27.93,34.47-3.92,56.27-32c21.29-27.39,46.11-55.45,44.13-127.92,0,0,15.92,19.71,15.38,73.41s-5.13,70.17-5.67,77.72,4.32,15.66,3,28.88c-1,9.51-2.08,22.51-2.63,29.06a8.6,8.6,0,0,0,2.68,7l10.63,10a17.14,17.14,0,0,1,4,19.26l-17.84,41.44a23.67,23.67,0,0,1-14.42,13.17c-18.46,6-59.27,17.47-101.7,17.47-57.49,0-85-15.11-105-29.14,0,0,16.19,22.4,65,36.7,18.42,5.39,41.45,8,63,9.21,20.83,1.14,25,30.08,5.36,37a147.56,147.56,0,0,1-42.72,8.53c-60.72,2.7-91.75-.54-151.39-33.46-22.58-12.46-41-29.41-55.12-45.66A245.56,245.56,0,0,0,315,510.92c157.39,0,280.25-147.86,237.25-312.25A239.12,239.12,0,0,0,385.16,28.78Z"/><path d="M397.56,372.91S414.63,349,393,343.63C375.75,339.35,344.29,372,344.29,372S392.52,346.33,397.56,372.91Z"/><path d="M231.18,256.28s-3.14,19.91,6.29,28.3,28.31,5.24,33.55,1.05C271,285.63,245.92,282.23,231.18,256.28Z"/></g><path class="cls-2" d="M480.4,389.94l-50.52-50.81a38.79,38.79,0,0,1-6.87,8l23.92,23.93-18.37,18.37a1.67,1.67,0,0,0-.12-.16L403.7,364.54l12.69-12.69a43.79,43.79,0,0,1-11.61,4.53l-33,33L351,368.71c-2.3.05-4.56.15-6.76.32l20.6,20.6H321.49l20.36-20.37c-2.78.27-5.48.62-8.1,1l-19.13,19.12-13.36-13.35q-3.17.29-6.65.43l13.14,13.14H264.37l13.3-13.3c-2.23-.12-4.43-.29-6.58-.5l-13.58,13.58-25.58-25.57h-.06c-1.31.14-2.53.23-3.71.27l-2,0c-.69,0-1.36,0-2-.06l-23.24,23.25L183.47,369.9l14.45-14.45a36.31,36.31,0,0,1-7.35-7.6l-42.4,42.78,0,.44a3.64,3.64,0,0,0-.78,2.23V399a3.67,3.67,0,0,0,3.68,3.67H478.91a3.67,3.67,0,0,0,3.68-3.67V393.3A3.68,3.68,0,0,0,480.4,389.94Zm-14.9-.31H435.44l15-15Zm-65.34-21.55,21.55,21.55h-43.1Zm-172-.92,22.47,22.47H205.7Zm-32,22.47H163.74l16.19-16.19Z"/><path class="cls-3" d="M423.91,272.65c5.26,22.34.11,28.8-10.51,37.45,19.05-28.25-15.77-42.05,19.05-75.56-18.89,2.84-34.29,12.92-45.65,26-5.12-38.5-23.16-76.72-40.45-90.09,19.23,35.49,14,69.5-5.17,82.06,13.31-49.53-6.66-91.67-55.44-118.28,40.66,54.7-19.23,58.4-17.82,122.93-.3-22.31-14-28.3-5.1-61.57-14.88,22.88-24.27,43.45-29.1,61.66a106.68,106.68,0,0,0-15.05-17c21.67,46.42-11.67,48.15-2.2,78-9.59-10.12-13.28-19.48-6.95-42.7-24.93,39-18.83,82.65,23.65,81.4,1.09,0,2.12-.12,3.13-.23a34.19,34.19,0,0,1-2.38-4.3,60.08,60.08,0,0,1-2.61-6.95s-12.23-1.19-18.94-17c4.82,5.35,10.43,8.38,16.09,7.45,0,0-.17-7.21.48-15s3-11.27,3-11.27a23,23,0,0,1,.33-15.75c2.7-6.68,3.59-15.68,1.3-23.19,2.13,2.78,4.9,7.19,5.23,15.35.26,6.61-.11,11.8-.11,11.8a69.2,69.2,0,0,1,9.11-11.42c-.77-4.18-4-25.33,3.41-47.41,0,0,.65,10.13,3.92,16.17a67.27,67.27,0,0,1,6.3,20.95,72.37,72.37,0,0,1,22-7.22l.58-.09c4.22-53.94,34.37-43.68,33.15-78.47,13.6,27.44,8.31,55.67-2.39,78.54,2.19.33,4.26.7,4.26.7,3.7.68,7.44,1.52,11.21,2.55,8.27,2.25,16.18,4.5,23.7,7.08,7.37-4.65,13.77-11.69,15.29-28.11a188.44,188.44,0,0,1,4.18,36.28,97.87,97.87,0,0,1,11.78,7.13c6-6.54,10.91-13.39,12.19-20.53,1.6,16.85,2.25,26.57,2,33.31,4.87,5.79,7.87,11.72,9,17.74a33.15,33.15,0,0,1,.41,3.62A24.6,24.6,0,0,0,423.91,318c-1.46,7.88-7.31,14.12-15,18.56a81.33,81.33,0,0,1-1.23,13C435.19,343.56,444.72,312.66,423.91,272.65Z"/><path class="cls-2" d="M397.74,333.14v-.56c0-.44,0-.87,0-1.29a38.92,38.92,0,0,0-.43-5c-.55-3-2.21-8.56-8.35-15.49h0c-.55-.62-1.14-1.26-1.78-1.91h0a71.47,71.47,0,0,0-7.18-6.41c-.78-.61-1.57-1.2-2.37-1.78s-1.54-1.09-2.32-1.62h0c-13.64-9.2-30.12-14.48-51.09-20.18-1.68-.46-3.33-.87-5-1.24h0l0,0c-1.31-.3-4-.86-4.1-.88h0a109.24,109.24,0,0,0-18.4-2.09h.16c-.11,0-.22,0-.33,0-.77,0-1.54,0-2.29,0l-1,0-1.13,0c-.93,0-1.85,0-2.75.1l-1.11.07c-.9.06-1.78.13-2.65.21l-1.08.12c-.86.09-1.7.2-2.53.31l-1.07.16q-1.22.19-2.4.42l-1.05.21c-.77.15-1.52.32-2.27.5l-1,.25c-.73.19-1.45.39-2.15.59l-1,.3c-.69.21-1.36.43-2,.66-.34.11-.67.22-1,.34-.65.23-1.28.48-1.9.73-.32.13-.65.25-1,.39-.61.25-1.19.51-1.77.78l-.94.43-1.65.84-.9.48-1.53.88c-.29.18-.58.34-.86.52-.49.3-1,.62-1.42.93l-.82.55c-.46.32-.89.66-1.33,1-.25.18-.5.36-.74.55-.45.36-.88.74-1.31,1.11l-.59.51c-.61.54-1.19,1.1-1.75,1.67-7.92,8.11-15.85,17.56-15.85,36.82,0,0-.11,1.42-.18,3.51,0,.69-.05,1.46-.06,2.28,0,.41,0,.83,0,1.26,0,.86,0,1.75,0,2.65s.05,1.79.1,2.67c.08,1.32.21,2.59.39,3.71.08.49.21,1.1.4,1.82a26.84,26.84,0,0,0,2.85,6.81,27.2,27.2,0,0,0,16,12.26c.67.21,1.37.4,2.09.59l.61.16,1.65.4.65.15,1.9.4.41.08a154.19,154.19,0,0,0,28.26,2.47,117.56,117.56,0,0,0,19.86-1.47c2.67-.49,5.46-1.06,8.36-1.67h0c5.87-1.23,12.23-2.56,19.16-3.52l3.21-.41.67-.07c1.11-.13,2.23-.24,3.36-.34,3.53-.31,7.18-.5,11-.5,2.76,0,5.59.09,8.5.31,2.2.16,4.27.23,6.22.23.84,0,1.64,0,2.43-.05h0l.25,0c.68,0,1.33-.06,2-.11l1-.06,1.84-.19.9-.11c.59-.07,1.15-.16,1.71-.25l.83-.15c.54-.1,1.06-.2,1.57-.32l.78-.17c.49-.12,1-.25,1.42-.38l.72-.21,1.29-.41.66-.24,1.15-.45.62-.27,1-.48.57-.3c.3-.16.6-.32.88-.49l.52-.33.75-.49.48-.36.62-.49c.16-.13.29-.26.43-.39s.35-.31.5-.47.26-.28.39-.42.27-.29.38-.44.23-.31.34-.46.19-.26.27-.39.2-.35.29-.53l.16-.3a5.54,5.54,0,0,0,.29-.8c.1-.35.19-.73.28-1.13,0-.12.05-.24.08-.36l.18-.93c0-.13.05-.25.07-.38.08-.44.15-.88.22-1.35,0,0,0-.05,0-.08q.09-.66.18-1.35c0-.16,0-.31,0-.47,0-.35.08-.71.11-1.08,0-.15,0-.31.05-.47,0-.49.09-1,.12-1.5,0-.08,0-.16,0-.24,0-.43.06-.87.08-1.32l0-.55c0-.35,0-.7.05-1.05,0-.18,0-.37,0-.56,0-.49,0-1,0-1.46,0-.13,0-.26,0-.39,0-.37,0-.74,0-1.11V334C397.75,333.73,397.75,333.44,397.74,333.14Zm-101.49,3.34c-19.83,4.47-49.38,4.72-54.41-12.58a30.49,30.49,0,0,1,6.92-25.16c10.06-11.64,26.1-18.25,33.65-16.05s7.87,7.24,8.18,15.73,6.61,13.84,10.7,17.93S313.71,332.55,296.25,336.48Zm3.53-32.35c-3.28-6-3.6-16.39.65-19.74s15.71-2.61,21.92,0,6.19,6.3,4.91,8.19c-3.27,4.84-7.2,3.35-10.14,7.45a35.52,35.52,0,0,0-4.26,6.71C310.57,311.21,303.05,310.09,299.78,304.13Zm84.22,27c-5.38,3.47-20.24.63-26.25-.64a43.7,43.7,0,0,0-17.71.95c-9.8,2.53-17.71-.63-21.51-5.69s-1.26-15.5,5.38-22.77,20.56-9.49,29.1-7.59,20.24,7,28.46,16.44S389.38,327.64,384,331.12Z"/><polygon class="cls-4" points="333.14 17.66 337.89 12.16 340.82 14.42 335.52 22.2 333.14 17.66"/><polygon class="cls-4" points="259.24 17.66 263.98 12.11 268.78 16.41 261.83 21.87 259.24 17.66"/><polygon class="cls-4" points="223.25 17.66 228.02 12.16 231.11 14.7 225.49 21.87 223.25 17.66"/><polygon class="cls-4" points="527.07 88.36 531.78 82.95 536.16 87.96 531.53 91.76 527.07 88.36"/><polygon class="cls-4" points="585.75 41.71 591.3 36.95 587.09 34.51 583.03 40.3 585.75 41.71"/><polygon class="cls-4" points="390.35 112.54 395.85 107.86 392.17 104.71 387.37 109.96 390.35 112.54"/><polygon class="cls-4" points="316.45 112.54 321.97 107.9 319.19 105.75 312.87 110.46 316.45 112.54"/><polygon class="cls-4" points="242.32 112.54 247.8 107.9 245.56 106.03 237.5 109.59 242.32 112.54"/><polygon class="cls-4" points="206.13 112.54 211.64 107.86 209.62 105.17 203.7 109.59 206.13 112.54"/><polygon class="cls-4" points="155.4 112.54 160.93 107.86 158.2 105.08 152.36 111.04 155.4 112.54"/><polygon class="cls-4" points="187.13 17.66 192.2 12.58 194.71 16.74 189.08 22.47 187.13 17.66"/><polygon class="cls-4" points="136.38 17.66 141.46 12.58 143.97 16.74 138.34 22.47 136.38 17.66"/><path class="cls-4" d="M85.51,113.18a46.65,46.65,0,0,1-34-14,46.38,46.38,0,0,1-14.13-34A46.66,46.66,0,0,1,51.55,31.08a46.3,46.3,0,0,1,34-14.19s20,.23,34.08,14.3L106,44.79a28.1,28.1,0,0,0-20.42-8.48A27.52,27.52,0,0,0,65.2,44.79a28.09,28.09,0,0,0-8.47,20.42A27.84,27.84,0,0,0,65.2,85.64a27.74,27.74,0,0,0,20.37,8.41,27.9,27.9,0,0,0,20.48-8.47l13.6,13.6A48,48,0,0,1,85.51,113.18Z"/><path class="cls-4" d="M155.4,17.66v38h31.72v-38h19v94.88h-19v-38H155.4v38h-19V17.66Z"/><path class="cls-4" d="M223.26,17.66h19.07v94.88H223.26Z"/><path class="cls-4" d="M278.31,17.66V93.58h38.14v19H259.24V17.66Z"/><path class="cls-4" d="M352.21,17.66V93.58h38.14v19H333.14V17.66Z"/><path class="cls-4" d="M557,93.86c5.27,0,11.08-4.38,11.08-9.64,0-8.66-11.63-9.87-18.19-12.15-11.57-3.94-21.78-13.44-21.78-26.36a28.95,28.95,0,0,1,57.61-4l-18.94,4a9.63,9.63,0,0,0-19.25.06c0,8.55,10.82,10.82,17.41,12.78,12,3.45,22.54,12.57,22.54,25.78,0,16-14.37,28.92-30.34,28.92-14.67,0-27.94-10.76-30.1-24.89l18.94-4c0,5.3,5.75,9.61,11.11,9.61Z"/><path class="cls-2" d="M427.29,39.24s-15.24,20-19,40.73,1.25,33.8,18,33.8c29.09,0,34.16-12.86,45-13.44,15.24-.82,21.82,15.06,30.82,7.73,8.55-7,10.73-19.54,6.93-38.68s-15.24-43.17-28.75-52.13S450.49,10.74,427.29,39.24Z"/><path class="cls-4" d="M87.2,111.49a46.69,46.69,0,0,1-34-14,46.34,46.34,0,0,1-14.13-34A46.7,46.7,0,0,1,53.24,29.38a46.33,46.33,0,0,1,34-14.18s20,.23,34.08,14.3l-13.6,13.6a28.1,28.1,0,0,0-20.42-8.48A27.52,27.52,0,0,0,66.89,43.1a28.09,28.09,0,0,0-8.47,20.42A27.84,27.84,0,0,0,66.89,84a27.74,27.74,0,0,0,20.37,8.41,27.9,27.9,0,0,0,20.48-8.47l13.6,13.59A47.92,47.92,0,0,1,87.2,111.49Z"/><path class="cls-4" d="M157.09,16v38h31.72V16h19v94.88h-19v-38H157.09v38h-19V16Z"/><path class="cls-4" d="M225,16H244v94.88H225Z"/><path class="cls-4" d="M280,16V91.89h38.14v19H260.93V16Z"/><path class="cls-4" d="M353.9,16V91.89H392v19H334.83V16Z"/><path class="cls-4" d="M558.72,92.17c5.27,0,11.08-4.38,11.08-9.64,0-8.67-11.63-9.87-18.19-12.15C540,66.44,529.83,56.94,529.83,44a28.95,28.95,0,0,1,57.61-4l-18.93,4a9.63,9.63,0,0,0-19.26.06c0,8.55,10.82,10.82,17.41,12.78,12,3.45,22.54,12.57,22.54,25.78,0,16-14.36,28.92-30.34,28.92-14.67,0-27.94-10.76-30.1-24.89l18.94-4c0,5.3,5.75,9.61,11.11,9.61Z"/><path class="cls-2" d="M429,37.55s-15.23,20-19,40.72,1.25,33.8,18,33.8c29.09,0,34.16-12.85,45-13.43,15.24-.82,21.82,15.06,30.82,7.73,8.55-7,10.74-19.54,6.93-38.68S495.47,24.52,482,15.56,452.18,9.05,429,37.55Z"/><path class="cls-4" d="M88.89,109.8a46.69,46.69,0,0,1-34-14,46.36,46.36,0,0,1-14.13-34A46.7,46.7,0,0,1,54.93,27.69a46.36,46.36,0,0,1,34-14.18s20,.22,34.08,14.3l-13.6,13.6A28.08,28.08,0,0,0,89,32.93a27.54,27.54,0,0,0-20.37,8.48,28.08,28.08,0,0,0-8.47,20.42,27.82,27.82,0,0,0,8.47,20.42A27.73,27.73,0,0,0,89,90.67a27.9,27.9,0,0,0,20.48-8.47L123,95.79A47.92,47.92,0,0,1,88.89,109.8Z"/><path class="cls-4" d="M158.78,14.27v38H190.5v-38h19v94.88h-19v-38H158.78v38h-19V14.27Z"/><path class="cls-4" d="M226.64,14.27h19.07v94.88H226.64Z"/><path class="cls-4" d="M281.69,14.27V90.2h38.14v19H262.62V14.27Z"/><path class="cls-4" d="M355.59,14.27V90.2h38.14v19H336.52V14.27Z"/><path class="cls-4" d="M560.41,90.48c5.27,0,11.08-4.38,11.08-9.65,0-8.66-11.62-9.87-18.19-12.14-11.56-3.94-21.78-13.44-21.78-26.36a28.95,28.95,0,0,1,57.61-4l-18.93,4a9.63,9.63,0,0,0-19.26.06c0,8.54,10.83,10.82,17.41,12.78,12,3.45,22.54,12.57,22.54,25.78,0,16-14.36,28.92-30.33,28.92-14.68,0-27.95-10.76-30.11-24.89l18.94-4c0,5.29,5.76,9.61,11.11,9.61Z"/><path class="cls-2" d="M430.67,35.86s-15.23,20-19,40.72,1.25,33.8,18,33.8c29.08,0,34.15-12.85,45-13.44,15.24-.81,21.82,15.07,30.82,7.74,8.55-7,10.74-19.54,6.93-38.68s-15.24-43.17-28.74-52.13S453.88,7.36,430.67,35.86Z"/><path class="cls-5" d="M90.58,108.11a46.69,46.69,0,0,1-34-14,46.37,46.37,0,0,1-14.13-34A46.7,46.7,0,0,1,56.62,26a46.33,46.33,0,0,1,34-14.18s20,.22,34.08,14.3l-13.6,13.6a28.07,28.07,0,0,0-20.42-8.48,27.52,27.52,0,0,0-20.36,8.48A28.07,28.07,0,0,0,61.8,60.14a27.84,27.84,0,0,0,8.48,20.42A27.74,27.74,0,0,0,90.64,89a27.86,27.86,0,0,0,20.48-8.48l13.6,13.6A47.92,47.92,0,0,1,90.58,108.11Z"/><path class="cls-6" d="M160.47,12.58v38h31.72v-38h19v94.88h-19v-38H160.47v38h-19V12.58Z"/><path class="cls-7" d="M228.33,12.58H247.4v94.88H228.33Z"/><path class="cls-8" d="M283.38,12.58V88.51h38.15v18.95H264.31V12.58Z"/><path class="cls-9" d="M357.28,12.58V88.51h38.14v18.95H338.21V12.58Z"/><path class="cls-10" d="M562.1,88.78c5.27,0,11.08-4.37,11.08-9.64,0-8.66-11.62-9.87-18.18-12.14-11.57-3.94-21.79-13.44-21.79-26.36a28.95,28.95,0,0,1,57.61-4l-18.93,4a9.63,9.63,0,0,0-19.25.06c0,8.54,10.82,10.82,17.41,12.77,12,3.46,22.53,12.58,22.53,25.79,0,16-14.36,28.92-30.33,28.92-14.68,0-28-10.76-30.1-24.89l18.93-4c0,5.29,5.76,9.61,11.11,9.61Z"/><path class="cls-11" d="M432.37,34.17s-15.24,19.95-19.05,40.72,1.26,33.8,18,33.8c29.09,0,34.15-12.86,45-13.44,15.24-.81,21.82,15.07,30.82,7.74,8.55-7,10.74-19.55,6.93-38.69s-15.24-43.16-28.74-52.12S455.57,5.66,432.37,34.17Z"/><path class="cls-2" d="M445.16,26.94A193.34,193.34,0,0,0,429,48.42C423.11,58,432.69,67,444.43,67c20.39,0,23.94-6.9,31.55-7.21,10.68-.44,15.29,8.09,21.6,4.15,6-3.74,7.53-10.49,4.86-20.77s-10.68-23.18-20.15-28S461.42,11.63,445.16,26.94Z"/><path class="cls-2" d="M428,67.62s-4.36-2.11-6.66-.81c-3.18,1.8-3.76,5.63-5,13.87s-.17,20.09,8.72,22.1,21.18,1.21,26.82-2.61,10.43-19.09,19.65-23.11,10.26-5.42,9.74-8.24-5.29-7-12.64-2.21a48.55,48.55,0,0,1-23.75,7.44C437.89,74.25,431.57,69.43,428,67.62Z"/><path class="cls-2" d="M476.37,77.85s-8.1,2.48-9.86,8.89,3.35,6,8.62,3.52,10.21-.21,14.43,2.28,10,6.62,14.25,4.13,7-9.72,7.21-17-1.4-15.39-4.4-15.72c-5.63-.62-6.17,6.73-11.61,5.58C483.23,67.09,489.21,75.78,476.37,77.85Z"/><path class="cls-12" d="M481.2,29.25c-2-7.44-14.18-6.75-19.92-1.69s-5.07,15.53,2.7,17.56S485.25,44.44,481.2,29.25Z"/><path class="cls-13" d="M90.58,108.11a46.69,46.69,0,0,1-34-14,46.37,46.37,0,0,1-14.13-34A46.7,46.7,0,0,1,56.62,26a46.33,46.33,0,0,1,34-14.18s20,.22,34.08,14.3l-13.6,13.6a28.07,28.07,0,0,0-20.42-8.48,27.52,27.52,0,0,0-20.36,8.48A28.07,28.07,0,0,0,61.8,60.14a27.84,27.84,0,0,0,8.48,20.42A27.74,27.74,0,0,0,90.64,89a27.86,27.86,0,0,0,20.48-8.48l13.6,13.6A47.92,47.92,0,0,1,90.58,108.11Z"/><path class="cls-13" d="M160.47,12.58v38h31.72v-38h19v94.88h-19v-38H160.47v38h-19V12.58Z"/><path class="cls-13" d="M228.33,12.58H247.4v94.88H228.33Z"/><path class="cls-13" d="M283.38,12.58V88.51h38.15v18.95H264.31V12.58Z"/><path class="cls-13" d="M357.28,12.58V88.51h38.14v18.95H338.21V12.58Z"/><path class="cls-13" d="M562.1,88.78c5.27,0,11.08-4.37,11.08-9.64,0-8.66-11.62-9.87-18.18-12.14-11.57-3.94-21.79-13.44-21.79-26.36a28.95,28.95,0,0,1,57.61-4l-18.93,4a9.63,9.63,0,0,0-19.25.06c0,8.54,10.82,10.82,17.41,12.77,12,3.46,22.53,12.58,22.53,25.79,0,16-14.36,28.92-30.33,28.92-14.68,0-28-10.76-30.1-24.89l18.93-4c0,5.29,5.76,9.61,11.11,9.61Z"/><path class="cls-2" d="M480.39,29.83c-1.87-7-13.4-6.38-18.82-1.59A10.42,10.42,0,0,0,460,30c5.71-4.1,16.13-4.33,17.9,2.32,1.29,4.84.69,8.34-.95,10.78C480.28,40.82,482.22,36.66,480.39,29.83Z"/><path class="cls-4" d="M35.11,505.44l30.38-41.71v63.55H53V501.55l-17.9,24.72L17.16,501.55v25.73H4.68V463.73Z"/><path class="cls-4" d="M110.63,465v12.44h-25V490h18.72v12.44H85.67V515h25v12.4H73.19V465Z"/><path class="cls-4" d="M146.27,463.92l28.35,63.36H161.1l-4.2-9.44H135.65l-4.2,9.44H118Zm5.7,42.91-5.66-13.14-5.74,13.14Z"/><path class="cls-4" d="M211.13,465.19v12.37H195.87v49.72H183.36V477.56H168.07V465.19Z"/><path class="cls-4" d="M277.45,465v49.82h25v12.43H264.94V465Z"/><path class="cls-4" d="M364.14,473.85a31.41,31.41,0,1,1-22.32-9.31A30.5,30.5,0,0,1,364.14,473.85Zm-35.72,8.88a18.94,18.94,0,0,0,26.76,26.8,18.94,18.94,0,1,0-26.76-26.8Z"/><path class="cls-4" d="M492.78,499.45V464.89h12.55v63.68l-37.54-35.76v34.56H455.28V463.73Z"/><path class="cls-4" d="M544.94,464.66a31.78,31.78,0,0,1,22.36,9.23l-8.92,8.92a18.39,18.39,0,0,0-13.36-5.6,18,18,0,0,0-13.36,5.6A19,19,0,0,0,545,515.17a18.9,18.9,0,0,0,17.07-10.89H544.32V492.34h32c.89,11.64-2.93,20.08-9.08,26.19a30.56,30.56,0,0,1-22.32,9.22,31.56,31.56,0,0,1-31.55-31.54,30.63,30.63,0,0,1,9.27-22.36,30.13,30.13,0,0,1,22.28-9.31Z"/><path class="cls-4" d="M621.32,464.89v12.47h-25v12.55h18.77v12.47H596.29v12.55h25v12.44H583.78V464.89Z"/><path class="cls-4" d="M434.58,467.81l2.91-3.8H382.85l2.91,3.8c.15.19,14.47,18.88,16.57,22.11,1.85,2.86,2.63,5.71,2.63,15.95,0,7.49-1.36,9.58-1.59,9.88-2.12,1.45-7.77,5.28-9.12,6l-8.17,4.44h48.19l-8.18-4.44c-1.21-.65-6.1-3.94-9.12-6-.23-.3-1.59-2.39-1.59-9.88,0-10.24.77-13.09,2.63-15.95C420.1,486.69,434.43,468,434.58,467.81ZM412.8,487.58a17.73,17.73,0,0,0-2.63,6.65,17.57,17.57,0,0,0-2.63-6.65c-1.31-2-13.2-17.9-13.2-17.9a44.8,44.8,0,0,0,5.92.12c.62,0,1,0,1,0,4.31-.14,8.72-.32,13.16,1.22,3.27,1.14,6.15,2.46,8.62,2.88C423,473.87,413.76,486.1,412.8,487.58Z"/><path class="cls-4" d="M36.11,504.44l30.38-41.71v63.55H54V500.55l-17.9,24.72L18.16,500.55v25.73H5.68V462.73Z"/><path class="cls-4" d="M111.63,464v12.44h-25V489h18.72v12.44H86.67V514h25v12.4H74.19V464Z"/><path class="cls-4" d="M147.27,462.92l28.35,63.36H162.1l-4.2-9.44H136.65l-4.2,9.44H119Zm5.7,42.91-5.66-13.14-5.74,13.14Z"/><path class="cls-4" d="M212.13,464.19v12.37H196.87v49.72H184.36V476.56H169.07V464.19Z"/><path class="cls-4" d="M278.45,464v49.82h25v12.43H265.94V464Z"/><path class="cls-4" d="M365.14,472.85a31.41,31.41,0,1,1-22.32-9.31A30.5,30.5,0,0,1,365.14,472.85Zm-35.72,8.88a18.94,18.94,0,0,0,26.76,26.8,18.94,18.94,0,1,0-26.76-26.8Z"/><path class="cls-4" d="M493.78,498.45V463.89h12.55v63.68l-37.54-35.76v34.56H456.28V462.73Z"/><path class="cls-4" d="M545.94,463.66a31.78,31.78,0,0,1,22.36,9.23l-8.92,8.92a18.39,18.39,0,0,0-13.36-5.6,18,18,0,0,0-13.36,5.6A19,19,0,0,0,546,514.17a18.9,18.9,0,0,0,17.07-10.89H545.32V491.34h32c.89,11.64-2.93,20.08-9.08,26.19a30.56,30.56,0,0,1-22.32,9.22,31.56,31.56,0,0,1-31.55-31.54,30.63,30.63,0,0,1,9.27-22.36,30.13,30.13,0,0,1,22.28-9.31Z"/><path class="cls-4" d="M622.32,463.89v12.47h-25v12.55h18.77v12.47H597.29v12.55h25v12.44H584.78V463.89Z"/><path class="cls-4" d="M435.58,466.81l2.91-3.8H383.85l2.91,3.8c.15.19,14.47,18.88,16.57,22.11,1.85,2.86,2.63,5.71,2.63,15.95,0,7.49-1.36,9.58-1.59,9.88-2.12,1.45-7.77,5.28-9.12,6l-8.17,4.44h48.19l-8.18-4.44c-1.21-.65-6.1-3.94-9.12-6-.23-.3-1.59-2.39-1.59-9.88,0-10.24.77-13.09,2.63-15.95C421.1,485.69,435.43,467,435.58,466.81ZM413.8,486.58a17.73,17.73,0,0,0-2.63,6.65,17.57,17.57,0,0,0-2.63-6.65c-1.31-2-13.2-17.9-13.2-17.9a44.8,44.8,0,0,0,5.92.12c.62,0,1,0,1,0,4.31-.14,8.72-.32,13.16,1.22,3.27,1.14,6.15,2.46,8.62,2.88C424,472.87,414.76,485.1,413.8,486.58Z"/><path class="cls-4" d="M37.11,503.44l30.38-41.71v63.55H55V499.55l-17.9,24.72L19.16,499.55v25.73H6.68V461.73Z"/><path class="cls-4" d="M112.63,463v12.44h-25V488h18.72v12.44H87.67V513h25v12.4H75.19V463Z"/><path class="cls-4" d="M148.27,461.92l28.35,63.36H163.1l-4.2-9.44H137.65l-4.2,9.44H120Zm5.7,42.91-5.66-13.14-5.74,13.14Z"/><path class="cls-4" d="M213.13,463.19v12.37H197.87v49.72H185.36V475.56H170.07V463.19Z"/><path class="cls-4" d="M279.45,463v49.82h25v12.43H266.94V463Z"/><path class="cls-4" d="M366.14,471.85a31.41,31.41,0,1,1-22.32-9.31A30.5,30.5,0,0,1,366.14,471.85Zm-35.72,8.88a18.94,18.94,0,0,0,26.76,26.8,18.94,18.94,0,1,0-26.76-26.8Z"/><path class="cls-4" d="M494.78,497.45V462.89h12.55v63.68l-37.54-35.76v34.56H457.28V461.73Z"/><path class="cls-4" d="M546.94,462.66a31.78,31.78,0,0,1,22.36,9.23l-8.92,8.92a18.39,18.39,0,0,0-13.36-5.6,18,18,0,0,0-13.36,5.6A19,19,0,0,0,547,513.17a18.9,18.9,0,0,0,17.07-10.89H546.32V490.34h32c.89,11.64-2.93,20.08-9.08,26.19a30.56,30.56,0,0,1-22.32,9.22,31.56,31.56,0,0,1-31.55-31.54,30.63,30.63,0,0,1,9.27-22.36,30.13,30.13,0,0,1,22.28-9.31Z"/><path class="cls-4" d="M623.32,462.89v12.47h-25v12.55h18.77v12.47H598.29v12.55h25v12.44H585.78V462.89Z"/><path class="cls-4" d="M436.58,465.81l2.91-3.8H384.85l2.91,3.8c.15.19,14.47,18.88,16.57,22.11,1.85,2.86,2.63,5.71,2.63,15.95,0,7.49-1.36,9.58-1.59,9.88-2.12,1.45-7.77,5.28-9.12,6l-8.17,4.44h48.19l-8.18-4.44c-1.21-.65-6.1-3.94-9.12-6-.23-.3-1.59-2.39-1.59-9.88,0-10.24.77-13.09,2.63-15.95C422.1,484.69,436.43,466,436.58,465.81ZM414.8,485.58a17.73,17.73,0,0,0-2.63,6.65,17.57,17.57,0,0,0-2.63-6.65c-1.31-2-13.2-17.9-13.2-17.9a44.8,44.8,0,0,0,5.92.12c.62,0,1,0,1,0,4.31-.14,8.72-.32,13.16,1.22,3.27,1.14,6.15,2.46,8.62,2.88C425,471.87,415.76,484.1,414.8,485.58Z"/><path class="cls-4" d="M38.11,502.44l30.38-41.71v63.55H56V498.55l-17.9,24.72L20.16,498.55v25.73H7.68V460.73Z"/><path class="cls-4" d="M113.63,462v12.44h-25V487h18.72v12.44H88.67V512h25v12.4H76.19V462Z"/><path class="cls-4" d="M149.27,460.92l28.35,63.36H164.1l-4.2-9.44H138.65l-4.2,9.44H121Zm5.7,42.91-5.66-13.14-5.74,13.14Z"/><path class="cls-4" d="M214.13,462.19v12.37H198.87v49.72H186.36V474.56H171.07V462.19Z"/><path class="cls-4" d="M280.45,462v49.82h25v12.43H267.94V462Z"/><path class="cls-4" d="M367.14,470.85a31.41,31.41,0,1,1-22.32-9.31A30.5,30.5,0,0,1,367.14,470.85Zm-35.72,8.88a18.94,18.94,0,0,0,26.76,26.8,18.94,18.94,0,1,0-26.76-26.8Z"/><path class="cls-4" d="M495.78,496.45V461.89h12.55v63.68l-37.54-35.76v34.56H458.28V460.73Z"/><path class="cls-4" d="M547.94,461.66a31.78,31.78,0,0,1,22.36,9.23l-8.92,8.92a18.39,18.39,0,0,0-13.36-5.6,18,18,0,0,0-13.36,5.6A19,19,0,0,0,548,512.17a18.9,18.9,0,0,0,17.07-10.89H547.32V489.34h32c.89,11.64-2.93,20.08-9.08,26.19a30.56,30.56,0,0,1-22.32,9.22,31.56,31.56,0,0,1-31.55-31.54,30.63,30.63,0,0,1,9.27-22.36,30.13,30.13,0,0,1,22.28-9.31Z"/><path class="cls-4" d="M624.32,461.89v12.47h-25v12.55h18.77v12.47H599.29v12.55h25v12.44H586.78V461.89Z"/><path class="cls-4" d="M437.58,464.81l2.91-3.8H385.85l2.91,3.8c.15.19,14.47,18.88,16.57,22.11,1.85,2.86,2.63,5.71,2.63,15.95,0,7.49-1.36,9.58-1.59,9.88-2.12,1.45-7.77,5.28-9.12,6l-8.17,4.44h48.19l-8.18-4.44c-1.21-.65-6.1-3.94-9.12-6-.23-.3-1.59-2.39-1.59-9.88,0-10.24.77-13.09,2.63-15.95C423.1,483.69,437.43,465,437.58,464.81ZM415.8,484.58a17.73,17.73,0,0,0-2.63,6.65,17.57,17.57,0,0,0-2.63-6.65c-1.31-2-13.2-17.9-13.2-17.9a44.8,44.8,0,0,0,5.92.12c.62,0,1,0,1,0,4.31-.14,8.72-.32,13.16,1.22,3.27,1.14,6.15,2.46,8.62,2.88C426,470.87,416.76,483.1,415.8,484.58Z"/><path class="cls-14" d="M39.11,501.44l30.38-41.71v63.55H57V497.55l-17.9,24.72L21.16,497.55v25.73H8.68V459.73Z"/><path class="cls-15" d="M114.63,461v12.44h-25V486h18.72v12.44H89.67V511h25v12.4H77.19V461Z"/><path class="cls-16" d="M150.27,459.92l28.35,63.36H165.1l-4.2-9.44H139.65l-4.2,9.44H122Zm5.7,42.91-5.66-13.14-5.74,13.14Z"/><path class="cls-17" d="M215.13,461.19v12.37H199.87v49.72H187.36V473.56H172.07V461.19Z"/><path class="cls-18" d="M281.45,461v49.82h25v12.43H268.94V461Z"/><path class="cls-19" d="M368.14,469.85a31.41,31.41,0,1,1-22.32-9.31A30.5,30.5,0,0,1,368.14,469.85Zm-35.72,8.88a18.94,18.94,0,0,0,26.76,26.8,18.94,18.94,0,1,0-26.76-26.8Z"/><path class="cls-20" d="M496.78,495.45V460.89h12.55v63.68l-37.54-35.76v34.56H459.28V459.73Z"/><path class="cls-21" d="M548.94,460.66a31.78,31.78,0,0,1,22.36,9.23l-8.92,8.92a18.39,18.39,0,0,0-13.36-5.6,18,18,0,0,0-13.36,5.6A19,19,0,0,0,549,511.17a18.9,18.9,0,0,0,17.07-10.89H548.32V488.34h32c.89,11.64-2.93,20.08-9.08,26.19a30.56,30.56,0,0,1-22.32,9.22,31.56,31.56,0,0,1-31.55-31.54,30.63,30.63,0,0,1,9.27-22.36,30.13,30.13,0,0,1,22.28-9.31Z"/><path class="cls-22" d="M625.32,460.89v12.47h-25v12.55h18.77v12.47H600.29v12.55h25v12.44H587.78V460.89Z"/><path class="cls-23" d="M438.58,463.81l2.91-3.8H386.85l2.91,3.8c.15.19,14.47,18.88,16.57,22.11,1.85,2.86,2.63,5.71,2.63,15.95,0,7.49-1.36,9.58-1.59,9.88-2.12,1.45-7.77,5.28-9.12,6l-8.17,4.44h48.19l-8.18-4.44c-1.21-.65-6.1-3.94-9.12-6-.23-.3-1.59-2.39-1.59-9.88,0-10.24.77-13.09,2.63-15.95C424.1,482.69,438.43,464,438.58,463.81ZM416.8,483.58a17.73,17.73,0,0,0-2.63,6.65,17.57,17.57,0,0,0-2.63-6.65c-1.31-2-13.2-17.9-13.2-17.9a44.8,44.8,0,0,0,5.92.12c.62,0,1,0,1,0,4.31-.14,8.72-.32,13.16,1.22,3.27,1.14,6.15,2.46,8.62,2.88C427,469.87,417.76,482.1,416.8,483.58Z"/><path class="cls-13" d="M39.11,501.44l30.38-41.71v63.55H57V497.55l-17.9,24.72L21.16,497.55v25.73H8.68V459.73Z"/><path class="cls-13" d="M114.63,461v12.44h-25V486h18.72v12.44H89.67V511h25v12.4H77.19V461Z"/><path class="cls-13" d="M150.27,459.92l28.35,63.36H165.1l-4.2-9.44H139.65l-4.2,9.44H122Zm5.7,42.91-5.66-13.14-5.74,13.14Z"/><path class="cls-13" d="M215.13,461.19v12.37H199.87v49.72H187.36V473.56H172.07V461.19Z"/><path class="cls-13" d="M281.45,461v49.82h25v12.43H268.94V461Z"/><path class="cls-13" d="M368.14,469.85a31.41,31.41,0,1,1-22.32-9.31A30.5,30.5,0,0,1,368.14,469.85Zm-35.72,8.88a18.94,18.94,0,0,0,26.76,26.8,18.94,18.94,0,1,0-26.76-26.8Z"/><path class="cls-13" d="M496.78,495.45V460.89h12.55v63.68l-37.54-35.76v34.56H459.28V459.73Z"/><path class="cls-13" d="M548.94,460.66a31.78,31.78,0,0,1,22.36,9.23l-8.92,8.92a18.39,18.39,0,0,0-13.36-5.6,18,18,0,0,0-13.36,5.6A19,19,0,0,0,549,511.17a18.9,18.9,0,0,0,17.07-10.89H548.32V488.34h32c.89,11.64-2.93,20.08-9.08,26.19a30.56,30.56,0,0,1-22.32,9.22,31.56,31.56,0,0,1-31.55-31.54,30.63,30.63,0,0,1,9.27-22.36,30.13,30.13,0,0,1,22.28-9.31Z"/><path class="cls-13" d="M625.32,460.89v12.47h-25v12.55h18.77v12.47H600.29v12.55h25v12.44H587.78V460.89Z"/><path class="cls-13" d="M438.58,463.81l2.91-3.8H386.85l2.91,3.8c.15.19,14.47,18.88,16.57,22.11,1.85,2.86,2.63,5.71,2.63,15.95,0,7.49-1.36,9.58-1.59,9.88-2.12,1.45-7.77,5.28-9.12,6l-8.17,4.44h48.19l-8.18-4.44c-1.21-.65-6.1-3.94-9.12-6-.23-.3-1.59-2.39-1.59-9.88,0-10.24.77-13.09,2.63-15.95C424.1,482.69,438.43,464,438.58,463.81ZM416.8,483.58a17.73,17.73,0,0,0-2.63,6.65,17.57,17.57,0,0,0-2.63-6.65c-1.31-2-13.2-17.9-13.2-17.9a44.8,44.8,0,0,0,5.92.12c.62,0,1,0,1,0,4.31-.14,8.72-.32,13.16,1.22,3.27,1.14,6.15,2.46,8.62,2.88C427,469.87,417.76,482.1,416.8,483.58Z"/></svg>