<svg xmlns="http://www.w3.org/2000/svg" xmlns:xlink="http://www.w3.org/1999/xlink" viewBox="0 0 730 530"><defs><style>.cls-1{isolation:isolate;}.cls-2{fill:#ed2f24;}.cls-3{fill:#be222d;}.cls-4{fill:url(#linear-gradient);}.cls-5{fill:url(#linear-gradient-2);}.cls-6{fill:url(#linear-gradient-3);}.cls-7{fill:url(#linear-gradient-4);}.cls-8{fill:url(#linear-gradient-5);}.cls-9{fill:url(#linear-gradient-6);}.cls-10{fill:#fad1c0;}.cls-11{fill:#fde9e2;}.cls-12,.cls-23,.cls-24{fill:none;}.cls-12{stroke:#fcf8c8;stroke-miterlimit:10;stroke-width:0.5px;}.cls-13{fill:url(#linear-gradient-7);}.cls-14{fill:url(#linear-gradient-8);}.cls-15{fill:url(#linear-gradient-9);}.cls-16{fill:url(#linear-gradient-10);}.cls-17{fill:url(#linear-gradient-11);}.cls-18{fill:url(#linear-gradient-12);}.cls-19{fill:url(#linear-gradient-13);}.cls-20{fill:url(#linear-gradient-14);}.cls-21{fill:url(#linear-gradient-15);}.cls-22{fill:url(#linear-gradient-16);}.cls-23,.cls-24{stroke:#753523;stroke-linejoin:round;stroke-width:4px;}.cls-23{stroke-linecap:round;}.cls-25{fill:url(#linear-gradient-17);}.cls-26,.cls-31,.cls-34,.cls-37{mix-blend-mode:screen;}.cls-26{fill:url(#linear-gradient-18);}.cls-27{fill:url(#linear-gradient-19);}.cls-28{fill:url(#linear-gradient-20);}.cls-29{fill:url(#linear-gradient-21);}.cls-30{fill:url(#linear-gradient-22);}.cls-31{fill:url(#linear-gradient-23);}.cls-32{fill:url(#linear-gradient-24);}.cls-33{fill:url(#linear-gradient-25);}.cls-34{fill:url(#linear-gradient-26);}.cls-35{fill:url(#linear-gradient-27);}.cls-36{fill:url(#linear-gradient-28);}.cls-37{fill:url(#linear-gradient-29);}.cls-38{fill:url(#linear-gradient-30);}.cls-39{fill:url(#linear-gradient-31);}.cls-40{fill:#931b22;}.cls-41{fill:#a91b25;}.cls-42{fill:url(#linear-gradient-32);}.cls-43{fill:url(#linear-gradient-33);}.cls-44{opacity:0.05;}</style><linearGradient id="linear-gradient" x1="133.61" y1="116.06" x2="133.61" y2="19.76" gradientUnits="userSpaceOnUse"><stop offset="0" stop-color="#ed2f24"/><stop offset="1" stop-color="#fced09"/></linearGradient><linearGradient id="linear-gradient-2" x1="226.33" y1="115.41" x2="226.33" y2="20.53" xlink:href="#linear-gradient"/><linearGradient id="linear-gradient-3" x1="287.86" y1="115.41" x2="287.86" y2="20.53" xlink:href="#linear-gradient"/><linearGradient id="linear-gradient-4" x1="342.92" y1="115.41" x2="342.92" y2="20.53" xlink:href="#linear-gradient"/><linearGradient id="linear-gradient-5" x1="416.82" y1="115.41" x2="416.82" y2="20.53" xlink:href="#linear-gradient"/><linearGradient id="linear-gradient-6" x1="612.36" y1="116.13" x2="612.36" y2="19.69" xlink:href="#linear-gradient"/><linearGradient id="linear-gradient-7" x1="121.25" y1="203.89" x2="121.25" y2="147.76" xlink:href="#linear-gradient"/><linearGradient id="linear-gradient-8" x1="171.44" y1="203.96" x2="171.44" y2="148.91" xlink:href="#linear-gradient"/><linearGradient id="linear-gradient-9" x1="219.49" y1="203.89" x2="219.49" y2="147.93" xlink:href="#linear-gradient"/><linearGradient id="linear-gradient-10" x1="257.75" y1="203.89" x2="257.75" y2="149.05" xlink:href="#linear-gradient"/><linearGradient id="linear-gradient-11" x1="340.89" y1="203.91" x2="340.89" y2="148.92" xlink:href="#linear-gradient"/><linearGradient id="linear-gradient-12" x1="392.24" y1="204.28" x2="392.24" y2="148.47" xlink:href="#linear-gradient"/><linearGradient id="linear-gradient-13" x1="514.57" y1="205.03" x2="514.57" y2="147.76" xlink:href="#linear-gradient"/><linearGradient id="linear-gradient-14" x1="571.63" y1="204.32" x2="571.63" y2="148.47" xlink:href="#linear-gradient"/><linearGradient id="linear-gradient-15" x1="622.57" y1="203.98" x2="622.57" y2="148.78" xlink:href="#linear-gradient"/><linearGradient id="linear-gradient-16" x1="452.61" y1="202.95" x2="452.61" y2="148" xlink:href="#linear-gradient"/><linearGradient id="linear-gradient-17" x1="424.86" y1="457.93" x2="418.36" y2="451.47" gradientTransform="matrix(-1, 0, 0, 1, 907.22, 0)" gradientUnits="userSpaceOnUse"><stop offset="0" stop-color="#753423"/><stop offset="0.54" stop-color="#b15c3a"/><stop offset="0.95" stop-color="#753423"/></linearGradient><linearGradient id="linear-gradient-18" x1="356.53" y1="288.73" x2="356.53" y2="437.19" gradientUnits="userSpaceOnUse"><stop offset="0"/><stop offset="1" stop-color="#f4831f"/></linearGradient><linearGradient id="linear-gradient-19" x1="232.44" y1="472.29" x2="226" y2="465.89" gradientTransform="matrix(1, 0, 0, 1, 0, 0)" xlink:href="#linear-gradient-17"/><linearGradient id="linear-gradient-20" x1="359.24" y1="377.45" x2="359.24" y2="487.92" gradientUnits="userSpaceOnUse"><stop offset="0" stop-color="#ed2f24" stop-opacity="0"/><stop offset="1" stop-color="#fced09"/></linearGradient><linearGradient id="linear-gradient-21" x1="544.02" y1="366.11" x2="558.13" y2="454.93" gradientTransform="matrix(-1, 0, 0, 1, 996.83, 0)" xlink:href="#linear-gradient"/><linearGradient id="linear-gradient-22" x1="520.33" y1="346.33" x2="567.05" y2="442.05" gradientTransform="matrix(-1, 0, 0, 1, 996.83, 0)" xlink:href="#linear-gradient"/><linearGradient id="linear-gradient-23" x1="537.7" y1="372.69" x2="557.86" y2="441.41" gradientTransform="matrix(-1, 0, 0, 1, 996.83, 0)" xlink:href="#linear-gradient-18"/><linearGradient id="linear-gradient-24" x1="340.69" y1="297.58" x2="367.22" y2="464.6" xlink:href="#linear-gradient"/><linearGradient id="linear-gradient-25" x1="356.47" y1="258.51" x2="356.47" y2="443.84" xlink:href="#linear-gradient"/><linearGradient id="linear-gradient-26" x1="357.1" y1="289.14" x2="357.1" y2="437.2" xlink:href="#linear-gradient-18"/><linearGradient id="linear-gradient-27" x1="307.47" y1="374.2" x2="320.91" y2="458.84" gradientTransform="translate(73.87 -64.21) rotate(14.54)" xlink:href="#linear-gradient"/><linearGradient id="linear-gradient-28" x1="288.06" y1="366.75" x2="327.66" y2="447.88" gradientTransform="translate(73.87 -64.21) rotate(14.54)" xlink:href="#linear-gradient"/><linearGradient id="linear-gradient-29" x1="303.5" y1="381.9" x2="322.96" y2="448.26" gradientTransform="translate(73.87 -64.21) rotate(14.54)" xlink:href="#linear-gradient-18"/><linearGradient id="linear-gradient-30" x1="345.95" y1="355.98" x2="345.95" y2="432.18" gradientUnits="userSpaceOnUse"><stop offset="0.27" stop-color="#f6b42c"/><stop offset="0.4" stop-color="#ed772d"/><stop offset="0.6" stop-color="#ed2f24"/><stop offset="1" stop-color="#be222d"/></linearGradient><linearGradient id="linear-gradient-31" x1="292.74" y1="423.26" x2="330.88" y2="363.83" gradientUnits="userSpaceOnUse"><stop offset="0" stop-color="#be222d"/><stop offset="0.4" stop-color="#ed2f24"/><stop offset="0.6" stop-color="#ed772d"/><stop offset="0.73" stop-color="#f6b42c"/></linearGradient><linearGradient id="linear-gradient-32" x1="353.03" y1="351.99" x2="419.9" y2="430.94" gradientUnits="userSpaceOnUse"><stop offset="0.27" stop-color="#f6b42c"/><stop offset="0.4" stop-color="#ed772d"/><stop offset="0.6" stop-color="#ed2f24"/><stop offset="0.98" stop-color="#be222d"/></linearGradient><linearGradient id="linear-gradient-33" x1="365" y1="504.59" x2="365" y2="491.56" gradientUnits="userSpaceOnUse"><stop offset="0" stop-color="#753423"/><stop offset="0.54" stop-color="#b15c3a"/><stop offset="1" stop-color="#753423"/></linearGradient></defs><g class="cls-1"><g id="Layer_1" data-name="Layer 1"><polygon class="cls-2" points="383.14 25.6 387.89 20.11 390.82 22.37 385.52 30.14 383.14 25.6"/><polygon class="cls-2" points="309.24 25.6 313.98 20.05 318.78 24.35 311.83 29.81 309.24 25.6"/><polygon class="cls-2" points="273.25 25.6 278.02 20.11 281.11 22.64 275.49 29.81 273.25 25.6"/><polygon class="cls-2" points="577.07 96.31 581.78 90.9 586.16 95.9 581.53 99.71 577.07 96.31"/><polygon class="cls-2" points="635.75 49.66 641.3 44.9 637.09 42.46 633.03 48.25 635.75 49.66"/><polygon class="cls-2" points="440.35 120.48 445.85 115.8 442.17 112.66 437.37 117.91 440.35 120.48"/><polygon class="cls-2" points="366.45 120.48 371.97 115.84 369.19 113.69 362.87 118.41 366.45 120.48"/><polygon class="cls-2" points="292.32 120.48 297.8 115.84 295.56 113.98 287.5 117.54 292.32 120.48"/><polygon class="cls-2" points="256.13 120.48 261.64 115.8 259.62 113.11 253.7 117.54 256.13 120.48"/><polygon class="cls-2" points="205.4 120.48 210.93 115.8 208.2 113.03 202.36 118.99 205.4 120.48"/><polygon class="cls-2" points="237.13 25.6 242.2 20.53 244.71 24.68 239.08 30.42 237.13 25.6"/><polygon class="cls-2" points="186.38 25.6 191.46 20.53 193.97 24.68 188.34 30.42 186.38 25.6"/><path class="cls-2" d="M135.51,121.13a48,48,0,0,1-48.09-48A46.7,46.7,0,0,1,101.55,39a46.33,46.33,0,0,1,34-14.18s20,.22,34.08,14.3L156,52.74a28.1,28.1,0,0,0-20.42-8.48,27.52,27.52,0,0,0-20.37,8.48,28.06,28.06,0,0,0-8.47,20.42A28.83,28.83,0,0,0,135.57,102a27.9,27.9,0,0,0,20.48-8.47l13.6,13.59A47.92,47.92,0,0,1,135.51,121.13Z"/><path class="cls-2" d="M205.4,25.6v38h31.72v-38h19v94.88h-19v-38H205.4v38h-19V25.6Z"/><path class="cls-2" d="M273.26,25.6h19.07v94.88H273.26Z"/><path class="cls-2" d="M328.31,25.6v75.93h38.14v19H309.24V25.6Z"/><path class="cls-2" d="M402.21,25.6v75.93h38.14v19H383.14V25.6Z"/><path class="cls-2" d="M607,101.8c5.27,0,11.08-4.37,11.08-9.64,0-8.66-11.63-9.87-18.19-12.14-11.57-3.94-21.78-13.44-21.78-26.36a28.95,28.95,0,0,1,57.61-4l-18.94,4a9.63,9.63,0,0,0-19.25.06c0,8.54,10.82,10.82,17.41,12.77,12,3.46,22.54,12.58,22.54,25.79,0,16-14.37,28.92-30.34,28.92-14.67,0-27.94-10.76-30.1-24.89l18.94-4c0,5.29,5.75,9.61,11.11,9.61Z"/><path class="cls-3" d="M477.29,47.19s-15.24,20-19,40.72,1.25,33.8,18,33.8c29.09,0,34.16-12.86,45-13.44,15.24-.81,21.82,15.07,30.82,7.74,8.55-7,10.73-19.55,6.93-38.68S543.78,34.16,530.27,25.2,500.49,18.69,477.29,47.19Z"/><path class="cls-2" d="M137.2,119.44a48,48,0,0,1-48.09-48,46.7,46.7,0,0,1,14.13-34.08,46.29,46.29,0,0,1,34-14.18s20,.22,34.08,14.3l-13.6,13.6a28.06,28.06,0,0,0-20.42-8.48,27.49,27.49,0,0,0-20.37,8.48,28.06,28.06,0,0,0-8.47,20.42,28.83,28.83,0,0,0,28.84,28.84,27.91,27.91,0,0,0,20.48-8.48l13.6,13.6A47.92,47.92,0,0,1,137.2,119.44Z"/><path class="cls-2" d="M207.09,23.91v38h31.72v-38h19v94.88h-19v-38H207.09v38h-19V23.91Z"/><path class="cls-2" d="M275,23.91H294v94.88H275Z"/><path class="cls-2" d="M330,23.91V99.84h38.14v19H310.93V23.91Z"/><path class="cls-2" d="M403.9,23.91V99.84H442v19H384.83V23.91Z"/><path class="cls-2" d="M608.72,100.11c5.27,0,11.08-4.37,11.08-9.64,0-8.66-11.63-9.87-18.19-12.14C590,74.39,579.83,64.89,579.83,52a28.95,28.95,0,0,1,57.61-4l-18.93,4a9.63,9.63,0,0,0-19.26.06c0,8.54,10.82,10.82,17.41,12.77,12,3.46,22.54,12.58,22.54,25.79,0,16-14.36,28.92-30.34,28.92-14.67,0-27.94-10.76-30.1-24.89l18.94-4c0,5.29,5.75,9.61,11.11,9.61Z"/><path class="cls-3" d="M479,45.5s-15.23,20-19,40.72,1.25,33.8,18,33.8c29.09,0,34.16-12.86,45-13.44,15.24-.81,21.82,15.07,30.82,7.74,8.55-7,10.74-19.55,6.93-38.69S545.47,32.47,532,23.51,502.18,17,479,45.5Z"/><path class="cls-2" d="M138.89,117.75a48,48,0,0,1-48.09-48,46.69,46.69,0,0,1,14.13-34.08,46.34,46.34,0,0,1,34-14.19s20,.23,34.08,14.31l-13.6,13.59A28.08,28.08,0,0,0,139,40.88a27.53,27.53,0,0,0-20.37,8.47,28.1,28.1,0,0,0-8.47,20.43A28.83,28.83,0,0,0,139,98.62a27.91,27.91,0,0,0,20.48-8.48l13.6,13.6A47.92,47.92,0,0,1,138.89,117.75Z"/><path class="cls-2" d="M208.78,22.22v38H240.5v-38h19V117.1h-19v-38H208.78v38h-19V22.22Z"/><path class="cls-2" d="M276.64,22.22h19.07V117.1H276.64Z"/><path class="cls-2" d="M331.69,22.22V98.15h38.14V117.1H312.62V22.22Z"/><path class="cls-2" d="M405.59,22.22V98.15h38.14V117.1H386.52V22.22Z"/><path class="cls-2" d="M610.41,98.42c5.27,0,11.08-4.37,11.08-9.64,0-8.66-11.62-9.87-18.19-12.14-11.56-4-21.78-13.44-21.78-26.36a28.95,28.95,0,0,1,57.61-4l-18.93,4a9.63,9.63,0,0,0-19.26,0c0,8.55,10.83,10.82,17.41,12.78,12,3.45,22.54,12.58,22.54,25.79,0,16-14.36,28.92-30.33,28.92-14.68,0-27.95-10.77-30.11-24.89l18.94-4c0,5.29,5.76,9.61,11.11,9.61Z"/><path class="cls-3" d="M480.67,43.81s-15.23,19.95-19,40.72,1.25,33.8,18,33.8c29.08,0,34.15-12.86,45-13.44,15.24-.81,21.82,15.07,30.82,7.74,8.55-7,10.74-19.55,6.93-38.69s-15.24-43.16-28.74-52.12S503.88,15.3,480.67,43.81Z"/><path class="cls-4" d="M140.58,116.06A48,48,0,0,1,92.49,68,46.67,46.67,0,0,1,106.62,34a46.34,46.34,0,0,1,34-14.19s20,.23,34.08,14.31l-13.6,13.59a28.06,28.06,0,0,0-20.42-8.47,27.51,27.51,0,0,0-20.36,8.47,28.11,28.11,0,0,0-8.48,20.43,27.84,27.84,0,0,0,8.48,20.42,28.9,28.9,0,0,0,40.84-.06l13.6,13.6A48,48,0,0,1,140.58,116.06Z"/><path class="cls-5" d="M210.47,20.53v38h31.72v-38h19v94.88h-19v-38H210.47v38h-19V20.53Z"/><path class="cls-6" d="M278.33,20.53H297.4v94.88H278.33Z"/><path class="cls-7" d="M333.38,20.53V96.46h38.15v19H314.31V20.53Z"/><path class="cls-8" d="M407.28,20.53V96.46h38.14v19H388.21V20.53Z"/><path class="cls-9" d="M612.1,96.73c5.27,0,11.08-4.37,11.08-9.64,0-8.66-11.62-9.87-18.18-12.14-11.57-4-21.79-13.44-21.79-26.36a28.95,28.95,0,0,1,57.61-4l-18.93,4a9.63,9.63,0,0,0-19.25,0c0,8.55,10.82,10.82,17.41,12.78C632,64.87,642.58,74,642.58,87.2c0,16-14.36,28.93-30.33,28.93-14.68,0-28-10.77-30.1-24.9l18.93-4c0,5.3,5.76,9.62,11.11,9.62Z"/><path class="cls-10" d="M482.37,42.12s-15.24,20-19.05,40.72,1.26,33.8,18,33.8c29.09,0,34.15-12.86,45-13.44,15.24-.82,21.82,15.07,30.82,7.74,8.55-7,10.74-19.55,6.93-38.69s-15.24-43.16-28.74-52.12S505.57,13.61,482.37,42.12Z"/><path class="cls-3" d="M495.16,34.89A192.26,192.26,0,0,0,479,56.37c-5.93,9.56,3.65,18.53,15.39,18.53,20.39,0,23.94-6.91,31.55-7.22,10.68-.43,15.29,8.09,21.6,4.16,6-3.74,7.53-10.5,4.86-20.77s-10.68-23.18-20.15-28S511.42,19.58,495.16,34.89Z"/><path class="cls-3" d="M478,75.57s-4.36-2.11-6.66-.81c-3.18,1.8-3.76,5.63-5,13.87s-.17,20.09,8.72,22.1,21.18,1.21,26.82-2.61S512.33,89,521.55,85s10.26-5.43,9.74-8.24-5.29-7-12.64-2.21A48.76,48.76,0,0,1,494.9,82C487.89,82.2,481.57,77.37,478,75.57Z"/><path class="cls-3" d="M526.37,85.8s-8.1,2.48-9.86,8.89,3.35,6,8.62,3.52,10.21-.21,14.43,2.27,10,6.62,14.25,4.14,7-9.72,7.21-17-1.4-15.39-4.4-15.72c-5.63-.62-6.17,6.73-11.61,5.58C533.23,75,539.21,83.73,526.37,85.8Z"/><path class="cls-11" d="M531.2,37.2c-2-7.44-14.18-6.76-19.92-1.69S506.21,51,514,53.06,535.25,52.39,531.2,37.2Z"/><path class="cls-12" d="M140.58,116.06A48,48,0,0,1,92.49,68,46.67,46.67,0,0,1,106.62,34a46.34,46.34,0,0,1,34-14.19s20,.23,34.08,14.31l-13.6,13.59a28.06,28.06,0,0,0-20.42-8.47,27.51,27.51,0,0,0-20.36,8.47,28.11,28.11,0,0,0-8.48,20.43,27.84,27.84,0,0,0,8.48,20.42,28.9,28.9,0,0,0,40.84-.06l13.6,13.6A48,48,0,0,1,140.58,116.06Z"/><path class="cls-12" d="M210.47,20.53v38h31.72v-38h19v94.88h-19v-38H210.47v38h-19V20.53Z"/><path class="cls-12" d="M278.33,20.53H297.4v94.88H278.33Z"/><path class="cls-12" d="M333.38,20.53V96.46h38.15v19H314.31V20.53Z"/><path class="cls-12" d="M407.28,20.53V96.46h38.14v19H388.21V20.53Z"/><path class="cls-12" d="M612.1,96.73c5.27,0,11.08-4.37,11.08-9.64,0-8.66-11.62-9.87-18.18-12.14-11.57-4-21.79-13.44-21.79-26.36a28.95,28.95,0,0,1,57.61-4l-18.93,4a9.63,9.63,0,0,0-19.25,0c0,8.55,10.82,10.82,17.41,12.78C632,64.87,642.58,74,642.58,87.2c0,16-14.36,28.93-30.33,28.93-14.68,0-28-10.77-30.1-24.9l18.93-4c0,5.3,5.76,9.62,11.11,9.62Z"/><path class="cls-3" d="M530.39,37.78c-1.87-7-13.4-6.38-18.82-1.6A10.11,10.11,0,0,0,510,38c5.71-4.1,16.13-4.34,17.9,2.32,1.29,4.84.69,8.33-.95,10.77C530.28,48.77,532.22,44.61,530.39,37.78Z"/><path class="cls-2" d="M117.73,188.14l26.84-36.85v56.14h-11V184.7l-15.82,21.84L101.87,184.7v22.73h-11V151.29Z"/><path class="cls-2" d="M184.45,152.45v11h-22v11.05h16.53v11H162.4v11.06h22v11H151.38V152.45Z"/><path class="cls-2" d="M215.94,151.46l25,56H229l-3.71-8.34H206.55l-3.71,8.34H190.93Zm5,37.9-5-11.6-5.07,11.6Z"/><path class="cls-2" d="M273.23,152.58V163.5H259.76v43.93H248.7V163.5H235.19V152.58Z"/><path class="cls-2" d="M331.83,152.45v44h22.1v11H320.77v-55Z"/><path class="cls-2" d="M408.41,160.23A27.76,27.76,0,1,1,388.69,152,26.93,26.93,0,0,1,408.41,160.23Zm-31.56,7.84a16.73,16.73,0,0,0,0,23.68,16.75,16.75,0,1,0,0-23.68Z"/><path class="cls-2" d="M522.06,182.84V152.31h11.08v56.26L500,177v30.53H488.93V151.29Z"/><path class="cls-2" d="M568.14,152.11a28.08,28.08,0,0,1,19.75,8.15L580,168.14a16.24,16.24,0,0,0-11.8-4.94,15.94,15.94,0,0,0-11.8,4.94,16.71,16.71,0,0,0,0,23.68,15.94,15.94,0,0,0,11.8,4.91,16.68,16.68,0,0,0,15.08-9.62h-15.7V176.57h28.25c.79,10.28-2.59,17.74-8,23.13a27,27,0,0,1-19.71,8.15A27.88,27.88,0,0,1,540.24,180a27,27,0,0,1,8.18-19.75A26.65,26.65,0,0,1,568.11,152Z"/><path class="cls-2" d="M635.62,152.31v11H613.51v11.09h16.58v11H613.51v11.08h22.11v11H602.46v-55.2Z"/><path class="cls-2" d="M470.64,154.9l2.57-3.36H424.94l2.57,3.36c.13.16,12.79,16.67,14.64,19.53,1.64,2.53,2.32,5,2.32,14.09,0,6.62-1.2,8.46-1.4,8.73-1.87,1.28-6.86,4.66-8.06,5.31l-7.22,3.92h42.58l-7.23-3.92c-1.07-.58-5.39-3.49-8.06-5.31-.2-.27-1.4-2.11-1.4-8.73,0-9.05.68-11.57,2.32-14.09C457.85,171.57,470.51,155.06,470.64,154.9ZM451.4,172.36a15.71,15.71,0,0,0-2.32,5.87,15.71,15.71,0,0,0-2.32-5.87c-1.16-1.79-11.67-15.82-11.67-15.82a39.53,39.53,0,0,0,5.23.11c.55,0,.88,0,.88,0,3.81-.13,7.7-.28,11.62,1.08,2.9,1,5.44,2.17,7.62,2.54C460.44,160.25,452.25,171.05,451.4,172.36Z"/><path class="cls-2" d="M118.61,187.25l26.85-36.84v56.13h-11V183.82l-15.82,21.84-15.85-21.84v22.72h-11V150.41Z"/><path class="cls-2" d="M185.33,151.56v11H163.28v11.06h16.54v11H163.28v11.06h22.05v11H152.26V151.56Z"/><path class="cls-2" d="M216.82,150.58l25,56H229.92l-3.71-8.33H207.43l-3.71,8.33h-11.9Zm5,37.9-5-11.6-5.07,11.6Z"/><path class="cls-2" d="M274.12,151.7v10.92H260.64v43.92h-11V162.62H236.08V151.7Z"/><path class="cls-2" d="M332.71,151.57v44h22.11v11H321.66v-55Z"/><path class="cls-2" d="M409.29,159.34a27.75,27.75,0,1,1-19.72-8.22A27,27,0,0,1,409.29,159.34Zm-31.55,7.85a16.71,16.71,0,0,0,0,23.68,16.75,16.75,0,1,0,0-23.68Z"/><path class="cls-2" d="M522.94,182V151.43H534v56.25l-33.16-31.59v30.54H489.81V150.41Z"/><path class="cls-2" d="M569,151.22a28.13,28.13,0,0,1,19.76,8.16l-7.88,7.88a16.27,16.27,0,0,0-11.81-4.95,16.77,16.77,0,0,0,0,33.54,16.7,16.7,0,0,0,15.08-9.62H568.48V175.68h28.24c.79,10.28-2.58,17.74-8,23.13A27,27,0,0,1,569,207a27.91,27.91,0,0,1-27.87-27.87,27.08,27.08,0,0,1,8.19-19.76A26.63,26.63,0,0,1,569,151.12Z"/><path class="cls-2" d="M636.5,151.43v11H614.39v11.09H631v11H614.39v11.09H636.5v11H603.34v-55.2Z"/><path class="cls-2" d="M471.52,154l2.58-3.36H425.82L428.4,154c.12.17,12.78,16.68,14.63,19.53,1.64,2.53,2.33,5.05,2.33,14.1,0,6.61-1.2,8.46-1.41,8.72-1.87,1.28-6.86,4.67-8.06,5.32l-7.21,3.92h42.57L464,201.68c-1.07-.58-5.4-3.49-8.06-5.32-.2-.26-1.41-2.11-1.41-8.72,0-9,.69-11.57,2.33-14.1C458.74,170.69,471.39,154.18,471.52,154Zm-19.23,17.46a15.6,15.6,0,0,0-2.33,5.88,15.75,15.75,0,0,0-2.32-5.88c-1.16-1.79-11.66-15.81-11.66-15.81a41.16,41.16,0,0,0,5.22.11c.56,0,.88,0,.88,0,3.81-.12,7.71-.28,11.62,1.08,2.9,1,5.44,2.17,7.63,2.55C461.33,159.37,453.13,170.17,452.29,171.47Z"/><path class="cls-2" d="M119.5,186.37l26.84-36.85v56.14h-11V182.93L119.5,204.78l-15.86-21.85v22.73h-11V149.52Z"/><path class="cls-2" d="M186.21,150.68v11h-22v11.06H180.7v11H164.17v11.05h22v11H153.14v-55Z"/><path class="cls-2" d="M217.71,149.69l25,56H230.81l-3.71-8.33H208.32l-3.71,8.33H192.7Zm5,37.9-5-11.6-5.07,11.6Z"/><path class="cls-2" d="M275,150.82v10.92H261.53v43.92H250.47V161.74H237V150.82Z"/><path class="cls-2" d="M333.59,150.68v44H355.7v11H322.54v-55Z"/><path class="cls-2" d="M410.18,158.46a27.76,27.76,0,1,1-19.72-8.22A26.94,26.94,0,0,1,410.18,158.46Zm-31.56,7.85A16.73,16.73,0,0,0,402.26,190a16.73,16.73,0,1,0-23.64-23.67Z"/><path class="cls-2" d="M523.82,181.08V150.55h11.09V206.8l-33.16-31.59v30.53H490.7V149.52Z"/><path class="cls-2" d="M569.91,150.34a28.08,28.08,0,0,1,19.75,8.15l-7.88,7.88a16.28,16.28,0,0,0-11.8-4.94,16,16,0,0,0-11.81,4.94,16.73,16.73,0,0,0,0,23.68A15.94,15.94,0,0,0,570,195a16.67,16.67,0,0,0,15.07-9.62H569.36V174.8h28.25c.78,10.28-2.59,17.74-8,23.13a27,27,0,0,1-19.72,8.15A27.89,27.89,0,0,1,542,178.21a27.06,27.06,0,0,1,8.19-19.75,26.63,26.63,0,0,1,19.68-8.22Z"/><path class="cls-2" d="M637.38,150.55v11h-22.1v11.09h16.58v11H615.28v11.09h22.1v11H604.22V150.55Z"/><path class="cls-2" d="M472.41,153.13l2.57-3.36H426.71l2.57,3.36c.13.16,12.79,16.67,14.64,19.53,1.64,2.53,2.32,5.05,2.32,14.09,0,6.62-1.2,8.47-1.4,8.73-1.87,1.28-6.87,4.66-8.06,5.31l-7.22,3.92h42.57l-7.22-3.92c-1.07-.58-5.39-3.48-8.06-5.31-.2-.26-1.4-2.11-1.4-8.73,0-9.05.68-11.56,2.32-14.09C459.62,169.8,472.28,153.29,472.41,153.13Zm-19.24,17.46a15.77,15.77,0,0,0-2.32,5.87,15.62,15.62,0,0,0-2.33-5.87c-1.16-1.79-11.66-15.81-11.66-15.81a43.27,43.27,0,0,0,5.23.11l.88,0c3.8-.12,7.7-.28,11.62,1.08,2.89,1,5.43,2.17,7.62,2.54C462.21,158.48,454,169.29,453.17,170.59Z"/><path class="cls-2" d="M120.38,185.49l26.84-36.85v56.14h-11V182.05l-15.82,21.84-15.86-21.84v22.73h-11V148.64Z"/><path class="cls-2" d="M187.1,149.8v11h-22v11.05h16.53v11H165.05v11.06h22v11H154v-55Z"/><path class="cls-2" d="M218.59,148.81l25,56H231.69L228,196.44H209.2l-3.71,8.34H193.58Zm5,37.9-5-11.6-5.07,11.6Z"/><path class="cls-2" d="M275.88,149.93v10.92H262.41v43.93H251.35V160.85H237.84V149.93Z"/><path class="cls-2" d="M334.48,149.8v44h22.1v11H323.42v-55Z"/><path class="cls-2" d="M411.06,157.58a27.76,27.76,0,1,1-19.72-8.22A26.93,26.93,0,0,1,411.06,157.58Zm-31.56,7.84a16.73,16.73,0,0,0,23.64,23.68,16.73,16.73,0,1,0-23.64-23.68Z"/><path class="cls-2" d="M524.71,180.19V149.66h11.08v56.26l-33.16-31.59v30.53H491.58V148.64Z"/><path class="cls-2" d="M570.79,149.46a28.08,28.08,0,0,1,19.75,8.15l-7.88,7.88a16.25,16.25,0,0,0-11.8-5,16,16,0,0,0-11.8,5,16.71,16.71,0,0,0,0,23.68,15.94,15.94,0,0,0,11.8,4.91,16.68,16.68,0,0,0,15.08-9.62h-15.7V173.92h28.25c.79,10.28-2.59,17.74-8,23.13a27,27,0,0,1-19.71,8.15,27.88,27.88,0,0,1-27.87-27.87,27,27,0,0,1,8.18-19.75,26.66,26.66,0,0,1,19.69-8.22Z"/><path class="cls-2" d="M638.27,149.66v11H616.16v11.09h16.58v11H616.16v11.08h22.11v11H605.11v-55.2Z"/><path class="cls-2" d="M473.29,152.24l2.57-3.35H427.59l2.57,3.35c.13.17,12.79,16.68,14.64,19.54,1.64,2.53,2.32,5,2.32,14.09,0,6.62-1.2,8.46-1.4,8.73-1.87,1.28-6.86,4.66-8.06,5.31l-7.22,3.92H473l-7.23-3.92c-1.07-.58-5.39-3.49-8.06-5.31-.2-.27-1.4-2.11-1.4-8.73,0-9.05.68-11.57,2.32-14.09C460.5,168.92,473.16,152.41,473.29,152.24Zm-19.24,17.47a15.71,15.71,0,0,0-2.32,5.87,15.71,15.71,0,0,0-2.32-5.87c-1.16-1.79-11.67-15.82-11.67-15.82A39.53,39.53,0,0,0,443,154c.55,0,.88,0,.88,0,3.81-.13,7.7-.28,11.62,1.08,2.9,1,5.44,2.17,7.62,2.54C463.09,157.6,454.9,168.4,454.05,169.71Z"/><path class="cls-13" d="M121.26,184.6l26.85-36.84v56.13h-11V181.17L121.26,203l-15.85-21.84v22.72h-11V147.76Z"/><path class="cls-14" d="M188,148.91v11h-22V171h16.54v11H165.93V193h22v11H154.91V148.91Z"/><path class="cls-15" d="M219.47,147.93l25,56H232.57l-3.71-8.33H210.08l-3.7,8.33H194.47Zm5,37.9-5-11.6-5.07,11.6Z"/><path class="cls-16" d="M276.77,149.05V160H263.29v43.92H252.24V160H238.73V149.05Z"/><path class="cls-17" d="M335.36,148.92v44h22.11v11H324.31v-55Z"/><path class="cls-18" d="M411.94,156.69a27.75,27.75,0,1,1-19.72-8.22A26.95,26.95,0,0,1,411.94,156.69Zm-31.55,7.85a16.28,16.28,0,0,0-4.92,11.84,16.78,16.78,0,1,0,4.92-11.84Z"/><path class="cls-19" d="M525.59,179.31V148.78h11.09V205l-33.16-31.59V204H492.46V147.76Z"/><path class="cls-20" d="M571.67,148.57a28.09,28.09,0,0,1,19.76,8.16l-7.88,7.88a16.27,16.27,0,0,0-11.81-5,16.77,16.77,0,0,0,0,33.54,16.7,16.7,0,0,0,15.08-9.62H571.13V173h28.24c.79,10.28-2.58,17.74-8,23.13a27,27,0,0,1-19.72,8.16,27.91,27.91,0,0,1-27.87-27.87A27.08,27.08,0,0,1,552,156.69a26.63,26.63,0,0,1,19.68-8.22Z"/><path class="cls-21" d="M639.15,148.78v11H617v11.09h16.58v11H617V193h22.11v11H606v-55.2Z"/><path class="cls-22" d="M474.17,151.36l2.58-3.36H428.47l2.58,3.36c.13.17,12.78,16.68,14.63,19.53,1.64,2.53,2.33,5.05,2.33,14.1,0,6.61-1.2,8.46-1.41,8.72-1.87,1.28-6.86,4.67-8.06,5.32L431.33,203H473.9L466.68,199c-1.07-.58-5.4-3.49-8.06-5.32-.2-.26-1.41-2.11-1.41-8.72,0-9.05.69-11.57,2.33-14.1C461.39,168,474,151.53,474.17,151.36Zm-19.23,17.46a15.6,15.6,0,0,0-2.33,5.88,15.75,15.75,0,0,0-2.32-5.88C449.13,167,438.63,153,438.63,153a41.16,41.16,0,0,0,5.22.11c.56,0,.88,0,.88,0,3.81-.12,7.71-.28,11.62,1.08,2.9,1,5.44,2.17,7.63,2.55C464,156.72,455.78,167.52,454.94,168.82Z"/><path class="cls-12" d="M121.26,184.6l26.85-36.84v56.13h-11V181.17L121.26,203l-15.85-21.84v22.72h-11V147.76Z"/><path class="cls-12" d="M188,148.91v11h-22V171h16.54v11H165.93V193h22v11H154.91V148.91Z"/><path class="cls-12" d="M219.47,147.93l25,56H232.57l-3.71-8.33H210.08l-3.7,8.33H194.47Zm5,37.9-5-11.6-5.07,11.6Z"/><path class="cls-12" d="M276.77,149.05V160H263.29v43.92H252.24V160H238.73V149.05Z"/><path class="cls-12" d="M335.36,148.92v44h22.11v11H324.31v-55Z"/><path class="cls-12" d="M411.94,156.69a27.75,27.75,0,1,1-19.72-8.22A26.95,26.95,0,0,1,411.94,156.69Zm-31.55,7.85a16.28,16.28,0,0,0-4.92,11.84,16.78,16.78,0,1,0,4.92-11.84Z"/><path class="cls-12" d="M525.59,179.31V148.78h11.09V205l-33.16-31.59V204H492.46V147.76Z"/><path class="cls-12" d="M571.67,148.57a28.09,28.09,0,0,1,19.76,8.16l-7.88,7.88a16.27,16.27,0,0,0-11.81-5,16.77,16.77,0,0,0,0,33.54,16.7,16.7,0,0,0,15.08-9.62H571.13V173h28.24c.79,10.28-2.58,17.74-8,23.13a27,27,0,0,1-19.72,8.16,27.91,27.91,0,0,1-27.87-27.87A27.08,27.08,0,0,1,552,156.69a26.63,26.63,0,0,1,19.68-8.22Z"/><path class="cls-12" d="M639.15,148.78v11H617v11.09h16.58v11H617V193h22.11v11H606v-55.2Z"/><path class="cls-12" d="M474.17,151.36l2.58-3.36H428.47l2.58,3.36c.13.17,12.78,16.68,14.63,19.53,1.64,2.53,2.33,5.05,2.33,14.1,0,6.61-1.2,8.46-1.41,8.72-1.87,1.28-6.86,4.67-8.06,5.32L431.33,203H473.9L466.68,199c-1.07-.58-5.4-3.49-8.06-5.32-.2-.26-1.41-2.11-1.41-8.72,0-9.05.69-11.57,2.33-14.1C461.39,168,474,151.53,474.17,151.36Zm-19.23,17.46a15.6,15.6,0,0,0-2.33,5.88,15.75,15.75,0,0,0-2.32-5.88C449.13,167,438.63,153,438.63,153a41.16,41.16,0,0,0,5.22.11c.56,0,.88,0,.88,0,3.81-.12,7.71-.28,11.62,1.08,2.9,1,5.44,2.17,7.63,2.55C464,156.72,455.78,167.52,454.94,168.82Z"/><line class="cls-23" x1="385.51" y1="402.11" x2="476.37" y2="492.98"/><line class="cls-23" x1="363.66" y1="436.95" x2="420.63" y2="493.92"/><line class="cls-23" x1="249.73" y1="436.95" x2="307.24" y2="494.46"/><polygon class="cls-24" points="327.8 365.32 200.4 494.38 529.52 494.38 439.53 402.83 433.82 418.73 407.76 405.53 327.8 365.32"/><polygon class="cls-25" points="530.64 492.57 445.69 407.12 445.69 422.15 520.99 497.45 530.39 497.45 530.64 492.57"/><path class="cls-26" d="M414,353.2c-3.69,39.93-36.22,24.4-41.4,54C346,365,386.64,352.46,365.94,309.58c5.17,26.62-51.58,47.74-23.66,103.51C329,414.57,299.39,398.3,298.66,368a113.17,113.17,0,0,0-2.78,13.27c1.57,2.64,3.1,5.31,4.53,8l-4.64,2.17c-.24-.59-.51-1.17-.76-1.76-2.3,39.7,22.44,65.52,62.79,65.52C421.25,455.23,423.6,399.78,414,353.2Z"/><line class="cls-23" x1="306.69" y1="436.95" x2="364.08" y2="494.34"/><line class="cls-23" x1="365.17" y1="494.33" x2="411.49" y2="448.02"/><polygon class="cls-27" points="198.61 492.57 254.74 435.94 254.74 450.97 208.26 497.45 198.86 497.45 198.61 492.57"/><line class="cls-24" x1="228.17" y1="469.77" x2="252.87" y2="494.46"/><line class="cls-23" x1="308.25" y1="494.29" x2="354.53" y2="448.02"/><line class="cls-23" x1="249.8" y1="494.22" x2="323.34" y2="420.69"/><ellipse class="cls-28" cx="359.24" cy="441.2" rx="106.25" ry="41.35"/><path class="cls-29" d="M468.91,375c5.24,22.28.1,28.72-10.49,37.35,19-28.17-15.72-41.93,19-75.35-65.52,9.83-89.07,107-46.48,114.71C474.15,459.5,494.46,424.12,468.91,375Z"/><path class="cls-30" d="M472.67,407.37c-9.14,7.32-12.8,15.55-24.7,14.64,16.35-34.59-13.14-39.17,12.42-75.87-36,19-63.07,84.34-33.42,100.91C449.25,459.5,470.84,445.8,472.67,407.37Z"/><path class="cls-31" d="M425.1,440.31c12.41,12.42,39.23,4.58,43.81-20.12-8.52,12.45-21.85,12.8-30.09,9.14,6-13.31,7.32-14.64,3.66-53.07C437.91,401.88,407.71,422.92,425.1,440.31Z"/><path class="cls-32" d="M308.24,298.14c-8.84,33.18,4.79,39.16,5.09,61.41-1.4-64.36,58.32-68.05,17.77-122.61,48.66,26.55,68.57,68.57,55.3,118,19.17-12.53,24.33-46.45,5.16-81.84,39.07,30.23,82.11,187.84-30.23,187.28C288,460,239.67,403.57,308.24,298.14Z"/><path class="cls-33" d="M298.66,342.38c-1.48,22.48,13.11,43.68,28,56.77-21.39-58.25,44.45-86.33,26.54-129.77,30.23,25.07,28.75,83.32,16.22,116.5,11.8-29.49,44.73-13,41.29-59.72,18.19,50.63,26.77,131.24-49.4,131.24C295,457.4,276.54,405.79,298.66,342.38Z"/><path class="cls-34" d="M299.4,368.18c.73,30.23,30.23,46.45,43.5,45-27.85-55.61,28.75-76.68,23.59-103.22,20.65,42.76-19.91,55.29,6.64,97.32,5.16-29.49,37.6-14,41.28-53.82,9.59,46.45,7.24,101.74-56,101.74C311.19,455.18,285.39,419.79,299.4,368.18Z"/><path class="cls-35" d="M255.09,377.87c-6.31,23.15-2.64,32.49,6.93,42.58-9.44-29.79,23.81-31.52,2.2-77.81,35.54,31.78,63.48,115,14.45,116.41C236.31,460.29,230.22,416.78,255.09,377.87Z"/><path class="cls-36" d="M248.47,410.21c6.57,8.78,8,17.1,18.94,19.06-3.23-35.33,13.1-26.68,10.32-63.66,17.18,29.22,40.7,87,.07,90.92C261,458.16,241.1,445.45,248.47,410.21Z"/><path class="cls-37" d="M283.91,453.55c-14.16,8.35-33.88-8.44-32.22-31.89,5.76,10.56,14,17.77,22.29,16.39-5-12-3.29-27.54,9.15-48.93C274.26,411.44,313.49,436.11,283.91,453.55Z"/><line class="cls-24" x1="422.18" y1="494.29" x2="473.89" y2="442.58"/><line class="cls-24" x1="478.92" y1="494.23" x2="502.1" y2="471.05"/><path class="cls-10" d="M446.71,428.55c-.75-4.15-3.56-12.94-17.23-23.63-14.44-11.29-32.2-17.07-55.52-23.4-35.82-9.72-62-1.33-74.35,11.3-7.88,8.05-15.78,17.43-15.78,36.54,0,0-.71,10,.26,16,.63,3.84,4.24,16.19,19.21,20.73s40.85,5.34,55.17,2.75,31.91-7.77,54-6.15,31.76-5.52,33.07-10.2C447.34,446.17,447.56,433.28,446.71,428.55Z"/><path class="cls-3" d="M385.33,463.87c.43-4.82,1.43-16.38,1.43-20.41,0-5.13-.73-11.25-3.91-15.16s-3.43-7.58-6.85-4.16-4.89,5.87-6.85,6.36-5.38-.25-8.8,2-3.43,3.42-1,6.35,6.11,3.43,6.85,9.3c.67,5.38.38,15.21.33,19.27C372.31,466.19,378.54,464.86,385.33,463.87Z"/><path class="cls-38" d="M324.26,388.55c-5.71,8-7.21,23.14.38,29.5s16.17,12.72,22.77,7.34c0,0-1.42,4.37-4.35,5.11,0,0,10.15,4.33,14.06-.25,2.48-2.91,6.41-3.42,9.59-4.89s6.35-3.18,5.62-6.6-1.47-4.89-1.71-7.58-3.18-4.89-7.83-6.85S356.68,408,350.32,409a30.06,30.06,0,0,0,7.58-8.81c2.94-5.38,2.45-5.87,4.4-7.82s4.64-8.31,2.21-13.44a102,102,0,0,0-27-1.59A38.9,38.9,0,0,0,324.26,388.55Z"/><path class="cls-3" d="M358.8,450.17c0-3-1.14-7.44-4.32-9.4s-6.36-2-11.74-2.93a26.13,26.13,0,0,1-12.23-6.12c-2.94-2.44-5.38-7.58-7.09-6.36s-3.18,3.18-3.18,9.3-1.23,9,1,12.47a15.38,15.38,0,0,1,2.94,9.29c0,2.73-.1,10.29-.15,13.27,12.46,1.12,25.88.83,34.84-.78C358.83,464.9,358.8,452.7,358.8,450.17Z"/><path class="cls-39" d="M291.38,433.68c3.91-2.2,8.31-8.81,9.05-12.47s-.74-8.08-.74-8.08,5.38,7.1,9.54,5.63,4.4-6.6,4.65-11.74a35.56,35.56,0,0,1,4.64-15.41c2.36-3.76,4.33-11.22,4.47-11.78-10.35,2.84-18.44,7.59-23.78,13.08-7.89,8.09-15.39,17-15.39,36.16,0,0,0,.18,0,.5C284.71,431,288,435.56,291.38,433.68Z"/><path class="cls-3" d="M421.73,443.71c-.48-3.43-3.17-8.32-6.84-11.25s-4.41-1.23-9.79-2.69-10.76-4.16-12.47-4.16-4.89-.74-3.18,2.93,3.67,4.41,3.43,13.94c-.19,7.33.1,16.56.25,20.46a119.47,119.47,0,0,1,19.85-.23c2.82.21,5.43.27,7.85.22C421.18,458.77,422.14,446.54,421.73,443.71Z"/><path class="cls-3" d="M316.57,450.07c0-2.94-1.71-3.92-1.47-9.54s3.18-14.19-1.47-15.17-6.85-1.22-10,2.94-7.34,7.82-7.59,14.92c-.21,6.32,1.47,14.82,1.84,20.41a31.34,31.34,0,0,0,5.9,2.5,85.74,85.74,0,0,0,12.32,2.62C316.19,464.86,316.57,452.53,316.57,450.07Z"/><path class="cls-40" d="M366.55,467.37c5.76-1.2,12-2.52,18.78-3.5.39-4.36,1.24-14.2,1.4-19-7.44,1-14.23,2.46-20.46,3.75C366.87,454,366.6,463.41,366.55,467.37Z"/><path class="cls-41" d="M286.29,432.51a24.9,24.9,0,0,1-1.9-6c-.18-1.1-.32-2.36-.43-3.67-.19,2-.3,4.07-.3,6.31v.17A15.41,15.41,0,0,0,286.29,432.51Z"/><path class="cls-41" d="M447.22,432.84c-.09-1.48-.22-2.78-.37-3.8a34,34,0,0,1-.85,4.62,6.38,6.38,0,0,1-.42,1A7.8,7.8,0,0,0,447.22,432.84Z"/><path class="cls-40" d="M316.57,450.07V450a88.35,88.35,0,0,1-12.95-2.72,29.94,29.94,0,0,1-7.61-3.49c-.1,6.29,1.51,14.5,1.86,19.92a30.39,30.39,0,0,0,5.75,2.41,87.31,87.31,0,0,0,12.45,2.64C316.19,464.91,316.57,452.54,316.57,450.07Z"/><path class="cls-40" d="M421.77,444.07a79.38,79.38,0,0,1-8.86-.18,120.94,120.94,0,0,0-20.07.25c-.11,7,.15,15.2.29,18.81a119.77,119.77,0,0,1,19.78-.22c2.85.21,5.48.27,7.92.21C421.17,458.94,422.07,447.43,421.77,444.07Z"/><path class="cls-40" d="M358.8,450.17s0-.07,0-.1c-9.13,1.65-22.94,1.91-35.64.71a14.57,14.57,0,0,1,1,5.64c0,2.73-.1,10.31-.15,13.28,12.48,1.11,25.89.82,34.82-.8h0C358.83,464.88,358.8,452.7,358.8,450.17Z"/><path class="cls-42" d="M429.32,426.34c-5.38-2.69-9.79-2.93-14.19-6.6s-12.72-4.89-12.72-4.89,6.36-1.72,9.3-1,6.85-1,2.93-3.18-5.62-7.34-5.62-11.5c0,0,3.18,7.1,7.09,8.07,3.26.82,6.55-4.11,8-5.5h0s.22-.22.49-.46c-13.44-8.93-29.72-14.53-50.16-20.1-1.94-.53-3.85-1-5.73-1.41.07.4,1.13,6.38-.76,11.34-2,5.14-4.16,7.83-2.2,9.3s8.07.73,10.51,2.44,5.38,1.47,8.07,1.47,4.65,3.42,4.65,3.42a11.09,11.09,0,0,0-8.56-1c-4.65,1.46-5.38,6.6-3.91,8.07s6.85,5.62,12.47,5.13,11.25,2.45,15.65,4.41,7.34.48,10,3.42,5.63,7.58,10.52,10.52,10.52,1.46,11.25-1.72S434.7,429,429.32,426.34Z"/><path class="cls-3" d="M436.65,411a73.33,73.33,0,0,0-6.56-5.77c-.21-.17-.44-.33-.66-.5l-.21.14c-1.19.9-8.5,6.51-9,9.2-.49,2.94,2.93,3.92,6.36,2.69s6.35-5.3,10-5.75Z"/><path class="cls-3" d="M446.82,428.46c-.56-3.12-2-8.55-8.42-15.58h0s-4.43,2-4.43,4.66.74,4.4,3.92,7.33,4.4,4.41,4.15,7.83,2.74,4,5.24.07A38.87,38.87,0,0,0,446.82,428.46Z"/><rect class="cls-43" x="197.86" y="491.56" width="334.28" height="13.03" rx="2.93"/><g class="cls-44"><path d="M435.16,28.78c-129.94-36-250.19,32-296.25,139.34-15.79,30.36-19.83,83-19.83,83s20.13-44.94,60.8-85.35c6.65-6.6,25.74-29.49,55.73-40.25,0,.1,0,.21,0,.31a104.25,104.25,0,0,0,4.06,14.62,63.89,63.89,0,0,0,6.81,13.21,61.81,61.81,0,0,1-2-14.16,95.73,95.73,0,0,1,1-14c.57-3.82,1.33-7.6,2.24-11.32,4.54-10.71,13.74-28.77,27.4-38.61C295.37,61,305.29,60.17,310.35,64.62s6.07,19.84,4.86,33.4a134.27,134.27,0,0,1-2.2,14.79c-1,3.94-2.26,7.85-3.69,11.7a97,97,0,0,1-5.94,12.72,61,61,0,0,1-8.58,11.43,64.06,64.06,0,0,0,12.35-8.27,104.62,104.62,0,0,0,10.61-10.85c1.81-2.17,3.55-4.41,5.22-6.7,7.59.27,17.19,1.2,24.41,3.92,14,5.26,26.92,10.73,48.58,28.13,0,0-4.25-5.83-8.43-11.37-4.42-5.85-4.53-12.71-1.89-19s18.21-35,47.56-35.62c0,0,8.5,6.88,6.68,23.68s-7.08,28.34-12.75,36.23c-2.41,3.35-5.36,7.25-8,10.63a11.17,11.17,0,0,0,1.2,14.93c6.82,6.46,19,17.75,22.49,27,0,0-3.58,17.64-19,38.49s-31.58,27.93-31.58,27.93,34.47-3.92,56.27-32c21.29-27.39,46.11-55.45,44.13-127.92,0,0,15.92,19.71,15.38,73.41s-5.13,70.17-5.67,77.72,4.32,15.66,3,28.88c-1,9.51-2.08,22.51-2.63,29.06a8.6,8.6,0,0,0,2.68,7l10.63,10a17.14,17.14,0,0,1,4,19.26l-17.84,41.44a23.67,23.67,0,0,1-14.42,13.17c-18.46,6-59.27,17.47-101.7,17.47-57.49,0-85-15.11-105-29.14,0,0,16.19,22.4,65,36.7,18.42,5.39,41.45,8,63,9.21,20.83,1.14,25,30.08,5.36,37a147.56,147.56,0,0,1-42.72,8.53c-60.72,2.7-91.75-.54-151.39-33.46-22.58-12.46-41-29.41-55.12-45.66A245.56,245.56,0,0,0,365,510.92c157.39,0,280.25-147.86,237.25-312.25A239.12,239.12,0,0,0,435.16,28.78Z"/><path d="M447.56,372.91S464.63,349,443,343.63C425.75,339.35,394.29,372,394.29,372S442.52,346.33,447.56,372.91Z"/><path d="M281.18,256.28s-3.14,19.91,6.29,28.3,28.31,5.24,33.55,1.05C321,285.63,295.92,282.23,281.18,256.28Z"/></g></g></g></svg>