<svg xmlns="http://www.w3.org/2000/svg" xmlns:xlink="http://www.w3.org/1999/xlink" viewBox="0 0 730 530"><defs><style>.cls-1{isolation:isolate;}.cls-2{fill:#ed2f24;}.cls-3{fill:#be222d;}.cls-4{fill:url(#linear-gradient);}.cls-5{fill:url(#linear-gradient-2);}.cls-6{fill:url(#linear-gradient-3);}.cls-7{fill:url(#linear-gradient-4);}.cls-8{fill:url(#linear-gradient-5);}.cls-9{fill:url(#linear-gradient-6);}.cls-10{fill:#fad1c0;}.cls-11{fill:#fde9e2;}.cls-12,.cls-23,.cls-24{fill:none;}.cls-12{stroke:#fcf8c8;stroke-miterlimit:10;stroke-width:0.5px;}.cls-13{fill:url(#linear-gradient-7);}.cls-14{fill:url(#linear-gradient-8);}.cls-15{fill:url(#linear-gradient-9);}.cls-16{fill:url(#linear-gradient-10);}.cls-17{fill:url(#linear-gradient-11);}.cls-18{fill:url(#linear-gradient-12);}.cls-19{fill:url(#linear-gradient-13);}.cls-20{fill:url(#linear-gradient-14);}.cls-21{fill:url(#linear-gradient-15);}.cls-22{fill:url(#linear-gradient-16);}.cls-23,.cls-24{stroke:#753523;stroke-linejoin:round;stroke-width:4px;}.cls-23{stroke-linecap:round;}.cls-25{fill:url(#linear-gradient-17);}.cls-26,.cls-31,.cls-34,.cls-37{mix-blend-mode:screen;}.cls-26{fill:url(#linear-gradient-18);}.cls-27{fill:url(#linear-gradient-19);}.cls-28{fill:url(#linear-gradient-20);}.cls-29{fill:url(#linear-gradient-21);}.cls-30{fill:url(#linear-gradient-22);}.cls-31{fill:url(#linear-gradient-23);}.cls-32{fill:url(#linear-gradient-24);}.cls-33{fill:url(#linear-gradient-25);}.cls-34{fill:url(#linear-gradient-26);}.cls-35{fill:url(#linear-gradient-27);}.cls-36{fill:url(#linear-gradient-28);}.cls-37{fill:url(#linear-gradient-29);}.cls-38{fill:url(#linear-gradient-30);}.cls-39{fill:url(#linear-gradient-31);}.cls-40{fill:#931b22;}.cls-41{fill:#a91b25;}.cls-42{fill:url(#linear-gradient-32);}.cls-43{fill:url(#linear-gradient-33);}.cls-44{opacity:0.05;}</style><linearGradient id="linear-gradient" x1="133.61" y1="416.58" x2="133.61" y2="320.28" gradientUnits="userSpaceOnUse"><stop offset="0" stop-color="#ed2f24"/><stop offset="1" stop-color="#fced09"/></linearGradient><linearGradient id="linear-gradient-2" x1="226.33" y1="415.93" x2="226.33" y2="321.05" xlink:href="#linear-gradient"/><linearGradient id="linear-gradient-3" x1="287.86" y1="415.93" x2="287.86" y2="321.05" xlink:href="#linear-gradient"/><linearGradient id="linear-gradient-4" x1="342.92" y1="415.93" x2="342.92" y2="321.05" xlink:href="#linear-gradient"/><linearGradient id="linear-gradient-5" x1="416.82" y1="415.93" x2="416.82" y2="321.05" xlink:href="#linear-gradient"/><linearGradient id="linear-gradient-6" x1="612.36" y1="416.65" x2="612.36" y2="320.21" xlink:href="#linear-gradient"/><linearGradient id="linear-gradient-7" x1="121.25" y1="504.42" x2="121.25" y2="448.28" xlink:href="#linear-gradient"/><linearGradient id="linear-gradient-8" x1="171.44" y1="504.48" x2="171.44" y2="449.43" xlink:href="#linear-gradient"/><linearGradient id="linear-gradient-9" x1="219.49" y1="504.42" x2="219.49" y2="448.45" xlink:href="#linear-gradient"/><linearGradient id="linear-gradient-10" x1="257.75" y1="504.42" x2="257.75" y2="449.57" xlink:href="#linear-gradient"/><linearGradient id="linear-gradient-11" x1="340.89" y1="504.43" x2="340.89" y2="449.44" xlink:href="#linear-gradient"/><linearGradient id="linear-gradient-12" x1="392.24" y1="504.8" x2="392.24" y2="448.99" xlink:href="#linear-gradient"/><linearGradient id="linear-gradient-13" x1="514.57" y1="505.56" x2="514.57" y2="448.28" xlink:href="#linear-gradient"/><linearGradient id="linear-gradient-14" x1="571.63" y1="504.84" x2="571.63" y2="448.99" xlink:href="#linear-gradient"/><linearGradient id="linear-gradient-15" x1="622.57" y1="504.5" x2="622.57" y2="449.3" xlink:href="#linear-gradient"/><linearGradient id="linear-gradient-16" x1="452.61" y1="503.47" x2="452.61" y2="448.53" xlink:href="#linear-gradient"/><linearGradient id="linear-gradient-17" x1="420.31" y1="241.9" x2="413.81" y2="235.44" gradientTransform="matrix(-1, 0, 0, 1, 907.22, 0)" gradientUnits="userSpaceOnUse"><stop offset="0" stop-color="#753423"/><stop offset="0.54" stop-color="#b15c3a"/><stop offset="0.95" stop-color="#753423"/></linearGradient><linearGradient id="linear-gradient-18" x1="361.09" y1="72.7" x2="361.09" y2="221.16" gradientUnits="userSpaceOnUse"><stop offset="0"/><stop offset="1" stop-color="#f4831f"/></linearGradient><linearGradient id="linear-gradient-19" x1="236.99" y1="256.26" x2="230.55" y2="249.86" gradientTransform="matrix(1, 0, 0, 1, 0, 0)" xlink:href="#linear-gradient-17"/><linearGradient id="linear-gradient-20" x1="363.79" y1="161.42" x2="363.79" y2="271.89" gradientUnits="userSpaceOnUse"><stop offset="0" stop-color="#ed2f24" stop-opacity="0"/><stop offset="1" stop-color="#fced09"/></linearGradient><linearGradient id="linear-gradient-21" x1="539.47" y1="150.08" x2="553.57" y2="238.9" gradientTransform="matrix(-1, 0, 0, 1, 996.83, 0)" xlink:href="#linear-gradient"/><linearGradient id="linear-gradient-22" x1="515.77" y1="130.3" x2="562.5" y2="226.02" gradientTransform="matrix(-1, 0, 0, 1, 996.83, 0)" xlink:href="#linear-gradient"/><linearGradient id="linear-gradient-23" x1="533.15" y1="156.66" x2="553.31" y2="225.37" gradientTransform="matrix(-1, 0, 0, 1, 996.83, 0)" xlink:href="#linear-gradient-18"/><linearGradient id="linear-gradient-24" x1="345.25" y1="81.54" x2="371.78" y2="248.57" xlink:href="#linear-gradient"/><linearGradient id="linear-gradient-25" x1="361.02" y1="42.48" x2="361.02" y2="227.81" xlink:href="#linear-gradient"/><linearGradient id="linear-gradient-26" x1="361.66" y1="73.11" x2="361.66" y2="221.16" xlink:href="#linear-gradient-18"/><linearGradient id="linear-gradient-27" x1="257.66" y1="163.94" x2="271.1" y2="248.58" gradientTransform="translate(73.87 -64.21) rotate(14.54)" xlink:href="#linear-gradient"/><linearGradient id="linear-gradient-28" x1="238.25" y1="156.49" x2="277.84" y2="237.62" gradientTransform="translate(73.87 -64.21) rotate(14.54)" xlink:href="#linear-gradient"/><linearGradient id="linear-gradient-29" x1="253.68" y1="171.64" x2="273.15" y2="238" gradientTransform="translate(73.87 -64.21) rotate(14.54)" xlink:href="#linear-gradient-18"/><linearGradient id="linear-gradient-30" x1="350.5" y1="139.95" x2="350.5" y2="216.15" gradientUnits="userSpaceOnUse"><stop offset="0.27" stop-color="#f6b42c"/><stop offset="0.4" stop-color="#ed772d"/><stop offset="0.6" stop-color="#ed2f24"/><stop offset="1" stop-color="#be222d"/></linearGradient><linearGradient id="linear-gradient-31" x1="297.3" y1="207.23" x2="335.43" y2="147.8" gradientUnits="userSpaceOnUse"><stop offset="0" stop-color="#be222d"/><stop offset="0.4" stop-color="#ed2f24"/><stop offset="0.6" stop-color="#ed772d"/><stop offset="0.73" stop-color="#f6b42c"/></linearGradient><linearGradient id="linear-gradient-32" x1="357.59" y1="135.96" x2="424.45" y2="214.9" gradientUnits="userSpaceOnUse"><stop offset="0.27" stop-color="#f6b42c"/><stop offset="0.4" stop-color="#ed772d"/><stop offset="0.6" stop-color="#ed2f24"/><stop offset="0.98" stop-color="#be222d"/></linearGradient><linearGradient id="linear-gradient-33" x1="369.55" y1="288.56" x2="369.55" y2="275.53" gradientUnits="userSpaceOnUse"><stop offset="0" stop-color="#753423"/><stop offset="0.54" stop-color="#b15c3a"/><stop offset="1" stop-color="#753423"/></linearGradient></defs><g class="cls-1"><g id="Layer_1" data-name="Layer 1"><polygon class="cls-2" points="383.14 326.12 387.89 320.63 390.82 322.89 385.52 330.67 383.14 326.12"/><polygon class="cls-2" points="309.24 326.12 313.98 320.57 318.78 324.88 311.83 330.33 309.24 326.12"/><polygon class="cls-2" points="273.25 326.12 278.02 320.63 281.11 323.17 275.49 330.33 273.25 326.12"/><polygon class="cls-2" points="577.07 396.83 581.78 391.42 586.16 396.43 581.53 400.23 577.07 396.83"/><polygon class="cls-2" points="635.75 350.18 641.3 345.42 637.09 342.98 633.03 348.77 635.75 350.18"/><polygon class="cls-2" points="440.35 421 445.85 416.32 442.17 413.18 437.37 418.43 440.35 421"/><polygon class="cls-2" points="366.45 421 371.97 416.36 369.19 414.21 362.87 418.93 366.45 421"/><polygon class="cls-2" points="292.32 421 297.8 416.36 295.56 414.5 287.5 418.06 292.32 421"/><polygon class="cls-2" points="256.13 421 261.64 416.32 259.62 413.63 253.7 418.06 256.13 421"/><polygon class="cls-2" points="205.4 421 210.93 416.32 208.2 413.55 202.36 419.51 205.4 421"/><polygon class="cls-2" points="237.13 326.12 242.2 321.05 244.71 325.21 239.08 330.94 237.13 326.12"/><polygon class="cls-2" points="186.38 326.12 191.46 321.05 193.97 325.21 188.34 330.94 186.38 326.12"/><path class="cls-2" d="M135.51,421.65a48.15,48.15,0,0,1,0-96.29s20,.23,34.08,14.3L156,353.26a28.1,28.1,0,0,0-20.42-8.48,27.52,27.52,0,0,0-20.37,8.48,28.86,28.86,0,0,0,0,40.85,28.93,28.93,0,0,0,40.85-.06l13.6,13.59A47.92,47.92,0,0,1,135.51,421.65Z"/><path class="cls-2" d="M205.4,326.12v38h31.72v-38h19V421h-19V383H205.4v38h-19V326.12Z"/><path class="cls-2" d="M273.26,326.12h19.07V421H273.26Z"/><path class="cls-2" d="M328.31,326.12v75.93h38.14V421H309.24V326.12Z"/><path class="cls-2" d="M402.21,326.12v75.93h38.14V421H383.14V326.12Z"/><path class="cls-2" d="M607,402.33c5.27,0,11.08-4.38,11.08-9.64,0-8.67-11.63-9.88-18.19-12.15-11.57-3.94-21.78-13.44-21.78-26.36a28.95,28.95,0,0,1,57.61-4l-18.94,4a9.63,9.63,0,0,0-19.25.06c0,8.55,10.82,10.82,17.41,12.78,12,3.45,22.54,12.57,22.54,25.78,0,16-14.37,28.92-30.34,28.92-14.67,0-27.94-10.76-30.1-24.89l18.94-4c0,5.3,5.75,9.61,11.11,9.61Z"/><path class="cls-3" d="M477.29,347.71s-15.24,20-19,40.72,1.25,33.8,18,33.8c29.09,0,34.16-12.85,45-13.43,15.24-.82,21.82,15.06,30.82,7.73,8.55-7,10.73-19.54,6.93-38.68s-15.24-43.17-28.75-52.13S500.49,319.21,477.29,347.71Z"/><path class="cls-2" d="M137.2,420a48.15,48.15,0,0,1,0-96.29s20,.22,34.08,14.3l-13.6,13.6a28.1,28.1,0,0,0-20.42-8.48,27.52,27.52,0,0,0-20.37,8.48,28.85,28.85,0,0,0,0,40.84,28.92,28.92,0,0,0,40.85-.05L171.34,406A47.92,47.92,0,0,1,137.2,420Z"/><path class="cls-2" d="M207.09,324.43v38h31.72v-38h19v94.88h-19v-38H207.09v38h-19V324.43Z"/><path class="cls-2" d="M275,324.43H294v94.88H275Z"/><path class="cls-2" d="M330,324.43v75.93h38.14v18.95H310.93V324.43Z"/><path class="cls-2" d="M403.9,324.43v75.93H442v18.95H384.83V324.43Z"/><path class="cls-2" d="M608.72,400.63c5.27,0,11.08-4.37,11.08-9.64,0-8.66-11.63-9.87-18.19-12.14-11.57-3.94-21.78-13.44-21.78-26.36a28.95,28.95,0,0,1,57.61-4l-18.93,4a9.63,9.63,0,0,0-19.26.06c0,8.54,10.82,10.82,17.41,12.77,12,3.46,22.54,12.58,22.54,25.79,0,16-14.36,28.92-30.34,28.92-14.67,0-27.94-10.76-30.1-24.89l18.94-4c0,5.29,5.75,9.61,11.11,9.61Z"/><path class="cls-3" d="M479,346s-15.23,20-19,40.72,1.25,33.8,18,33.8c29.09,0,34.16-12.86,45-13.44,15.24-.81,21.82,15.07,30.82,7.74,8.55-7,10.74-19.55,6.93-38.68S545.47,333,532,324,502.18,317.52,479,346Z"/><path class="cls-2" d="M138.89,418.27a48.15,48.15,0,0,1,0-96.29s20,.22,34.08,14.3l-13.6,13.6A28,28,0,0,0,139,341.4a27.5,27.5,0,0,0-20.37,8.48,28.85,28.85,0,0,0,0,40.84,28.91,28.91,0,0,0,40.85-.06l13.6,13.6A47.92,47.92,0,0,1,138.89,418.27Z"/><path class="cls-2" d="M208.78,322.74v38H240.5v-38h19v94.88h-19v-38H208.78v38h-19V322.74Z"/><path class="cls-2" d="M276.64,322.74h19.07v94.88H276.64Z"/><path class="cls-2" d="M331.69,322.74v75.93h38.14v18.95H312.62V322.74Z"/><path class="cls-2" d="M405.59,322.74v75.93h38.14v18.95H386.52V322.74Z"/><path class="cls-2" d="M610.41,398.94c5.27,0,11.08-4.37,11.08-9.64,0-8.66-11.62-9.87-18.19-12.14-11.56-3.94-21.78-13.44-21.78-26.36a28.95,28.95,0,0,1,57.61-4l-18.93,4a9.63,9.63,0,0,0-19.26.06c0,8.54,10.83,10.82,17.41,12.77,12,3.46,22.54,12.58,22.54,25.79,0,16-14.36,28.92-30.33,28.92-14.68,0-27.95-10.76-30.11-24.89l18.94-4c0,5.29,5.76,9.61,11.11,9.61Z"/><path class="cls-3" d="M480.67,344.33s-15.23,19.95-19,40.72,1.25,33.8,18,33.8c29.08,0,34.15-12.86,45-13.44,15.24-.81,21.82,15.07,30.82,7.74,8.55-7,10.74-19.55,6.93-38.69s-15.24-43.16-28.74-52.12S503.88,315.82,480.67,344.33Z"/><path class="cls-4" d="M140.58,416.58a48.15,48.15,0,0,1,0-96.3s20,.23,34.08,14.31l-13.6,13.59a28.06,28.06,0,0,0-20.42-8.47,27.51,27.51,0,0,0-20.36,8.47,28.84,28.84,0,0,0,0,40.85,28.9,28.9,0,0,0,40.84-.06l13.6,13.6A47.92,47.92,0,0,1,140.58,416.58Z"/><path class="cls-5" d="M210.47,321.05v38h31.72v-38h19v94.88h-19v-38H210.47v38h-19V321.05Z"/><path class="cls-6" d="M278.33,321.05H297.4v94.88H278.33Z"/><path class="cls-7" d="M333.38,321.05V397h38.15v18.95H314.31V321.05Z"/><path class="cls-8" d="M407.28,321.05V397h38.14v18.95H388.21V321.05Z"/><path class="cls-9" d="M612.1,397.25c5.27,0,11.08-4.37,11.08-9.64,0-8.66-11.62-9.87-18.18-12.14-11.57-4-21.79-13.44-21.79-26.36a28.95,28.95,0,0,1,57.61-4l-18.93,4a9.63,9.63,0,0,0-19.25.05c0,8.55,10.82,10.83,17.41,12.78,12,3.45,22.53,12.58,22.53,25.79,0,16-14.36,28.92-30.33,28.92-14.68,0-28-10.77-30.1-24.89l18.93-4c0,5.29,5.76,9.61,11.11,9.61Z"/><path class="cls-10" d="M482.37,342.64s-15.24,19.95-19.05,40.72,1.26,33.8,18,33.8c29.09,0,34.15-12.86,45-13.44,15.24-.81,21.82,15.07,30.82,7.74,8.55-7,10.74-19.55,6.93-38.69s-15.24-43.16-28.74-52.12S505.57,314.13,482.37,342.64Z"/><path class="cls-3" d="M495.16,335.41A192.26,192.26,0,0,0,479,356.89c-5.93,9.56,3.65,18.53,15.39,18.53,20.39,0,23.94-6.9,31.55-7.22,10.68-.43,15.29,8.09,21.6,4.16,6-3.74,7.53-10.5,4.86-20.77s-10.68-23.18-20.15-28S511.42,320.1,495.16,335.41Z"/><path class="cls-3" d="M478,376.09s-4.36-2.11-6.66-.81c-3.18,1.8-3.76,5.63-5,13.87s-.17,20.09,8.72,22.1,21.18,1.21,26.82-2.61,10.43-19.09,19.65-23.11,10.26-5.42,9.74-8.24-5.29-7-12.64-2.21a48.65,48.65,0,0,1-23.75,7.44C487.89,382.72,481.57,377.9,478,376.09Z"/><path class="cls-3" d="M526.37,386.32s-8.1,2.48-9.86,8.89,3.35,6,8.62,3.52,10.21-.21,14.43,2.28,10,6.62,14.25,4.13,7-9.72,7.21-17-1.4-15.39-4.4-15.72c-5.63-.62-6.17,6.73-11.61,5.58C533.23,375.56,539.21,384.25,526.37,386.32Z"/><path class="cls-11" d="M531.2,337.72c-2-7.44-14.18-6.76-19.92-1.69s-5.07,15.53,2.7,17.56S535.25,352.91,531.2,337.72Z"/><path class="cls-12" d="M140.58,416.58a48.15,48.15,0,0,1,0-96.3s20,.23,34.08,14.31l-13.6,13.59a28.06,28.06,0,0,0-20.42-8.47,27.51,27.51,0,0,0-20.36,8.47,28.84,28.84,0,0,0,0,40.85,28.9,28.9,0,0,0,40.84-.06l13.6,13.6A47.92,47.92,0,0,1,140.58,416.58Z"/><path class="cls-12" d="M210.47,321.05v38h31.72v-38h19v94.88h-19v-38H210.47v38h-19V321.05Z"/><path class="cls-12" d="M278.33,321.05H297.4v94.88H278.33Z"/><path class="cls-12" d="M333.38,321.05V397h38.15v18.95H314.31V321.05Z"/><path class="cls-12" d="M407.28,321.05V397h38.14v18.95H388.21V321.05Z"/><path class="cls-12" d="M612.1,397.25c5.27,0,11.08-4.37,11.08-9.64,0-8.66-11.62-9.87-18.18-12.14-11.57-4-21.79-13.44-21.79-26.36a28.95,28.95,0,0,1,57.61-4l-18.93,4a9.63,9.63,0,0,0-19.25.05c0,8.55,10.82,10.83,17.41,12.78,12,3.45,22.53,12.58,22.53,25.79,0,16-14.36,28.92-30.33,28.92-14.68,0-28-10.77-30.1-24.89l18.93-4c0,5.29,5.76,9.61,11.11,9.61Z"/><path class="cls-3" d="M530.39,338.3c-1.87-7-13.4-6.38-18.82-1.6a10.11,10.11,0,0,0-1.57,1.77c5.71-4.1,16.13-4.33,17.9,2.32,1.29,4.84.69,8.34-.95,10.77C530.28,349.29,532.22,345.13,530.39,338.3Z"/><path class="cls-2" d="M117.73,488.66l26.84-36.85V508h-11V485.22l-15.82,21.84-15.86-21.84V508h-11V451.81Z"/><path class="cls-2" d="M184.45,453v11h-22V475h16.53v11H162.4v11.06h22v11H151.38V453Z"/><path class="cls-2" d="M215.94,452l25,56H229l-3.71-8.34H206.55L202.84,508H190.93Zm5,37.9-5-11.6-5.07,11.6Z"/><path class="cls-2" d="M273.23,453.1V464H259.76V508H248.7V464H235.19V453.1Z"/><path class="cls-2" d="M331.83,453v44h22.1v11H320.77V453Z"/><path class="cls-2" d="M408.41,460.75a27.76,27.76,0,1,1-19.72-8.22A26.93,26.93,0,0,1,408.41,460.75Zm-31.56,7.84a16.32,16.32,0,0,0-4.91,11.84,16.76,16.76,0,1,0,4.91-11.84Z"/><path class="cls-2" d="M522.06,483.37V452.83h11.08v56.26L500,477.5V508H488.93V451.81Z"/><path class="cls-2" d="M568.14,452.63a28.08,28.08,0,0,1,19.75,8.15L580,468.66a16.28,16.28,0,0,0-11.8-4.94,16.77,16.77,0,0,0,0,33.53,16.68,16.68,0,0,0,15.08-9.62h-15.7V477.09h28.25c.79,10.28-2.59,17.74-8,23.13a27,27,0,0,1-19.71,8.15,27.88,27.88,0,0,1-27.87-27.87,27,27,0,0,1,8.18-19.75,26.65,26.65,0,0,1,19.69-8.22Z"/><path class="cls-2" d="M635.62,452.83v11H613.51v11.09h16.58v11H613.51v11.09h22.11v11H602.46v-55.2Z"/><path class="cls-2" d="M470.64,455.42l2.57-3.36H424.94l2.57,3.36c.13.16,12.79,16.67,14.64,19.53,1.64,2.53,2.32,5.05,2.32,14.09,0,6.62-1.2,8.47-1.4,8.73-1.87,1.28-6.86,4.66-8.06,5.31L427.79,507h42.58l-7.23-3.92c-1.07-.58-5.39-3.48-8.06-5.31-.2-.26-1.4-2.11-1.4-8.73,0-9.05.68-11.56,2.32-14.09C457.85,472.09,470.51,455.58,470.64,455.42ZM451.4,472.88a15.71,15.71,0,0,0-2.32,5.87,15.71,15.71,0,0,0-2.32-5.87c-1.16-1.79-11.67-15.82-11.67-15.82a39.53,39.53,0,0,0,5.23.11c.55,0,.88,0,.88,0,3.81-.12,7.7-.28,11.62,1.08,2.9,1,5.44,2.17,7.62,2.54C460.44,460.77,452.25,471.57,451.4,472.88Z"/><path class="cls-2" d="M118.61,487.77l26.85-36.84v56.14h-11V484.34l-15.82,21.84-15.85-21.84v22.73h-11V450.93Z"/><path class="cls-2" d="M185.33,452.09v11H163.28v11.06h16.54v11H163.28v11.06h22.05v10.95H152.26v-55Z"/><path class="cls-2" d="M216.82,451.1l25,56H229.92l-3.71-8.34H207.43l-3.71,8.34h-11.9Zm5,37.9-5-11.6L211.79,489Z"/><path class="cls-2" d="M274.12,452.22v10.92H260.64v43.93h-11V463.14H236.08V452.22Z"/><path class="cls-2" d="M332.71,452.09v44h22.11v11H321.66v-55Z"/><path class="cls-2" d="M409.29,459.87a27.73,27.73,0,1,1-19.72-8.23A26.93,26.93,0,0,1,409.29,459.87Zm-31.55,7.84a16.71,16.71,0,0,0,0,23.68,16.75,16.75,0,1,0,0-23.68Z"/><path class="cls-2" d="M522.94,482.48V452H534v56.26l-33.16-31.59v30.53H489.81V450.93Z"/><path class="cls-2" d="M569,451.75a28.13,28.13,0,0,1,19.76,8.15l-7.88,7.88a16.27,16.27,0,0,0-11.81-4.95,16,16,0,0,0-11.8,4.95,16.73,16.73,0,0,0,0,23.68,16,16,0,0,0,11.8,4.91,16.68,16.68,0,0,0,15.08-9.62H568.48V476.21h28.24c.79,10.27-2.58,17.73-8,23.13A27,27,0,0,1,569,507.49a27.89,27.89,0,0,1-27.87-27.87,27,27,0,0,1,8.19-19.75A26.6,26.6,0,0,1,569,451.64Z"/><path class="cls-2" d="M636.5,452v11H614.39v11.09H631v11H614.39v11.08H636.5v11H603.34V452Z"/><path class="cls-2" d="M471.52,454.53l2.58-3.35H425.82l2.58,3.35c.12.17,12.78,16.68,14.63,19.54,1.64,2.52,2.33,5,2.33,14.09,0,6.61-1.2,8.46-1.41,8.72-1.87,1.29-6.86,4.67-8.06,5.32l-7.21,3.92h42.57L464,502.2c-1.07-.58-5.4-3.49-8.06-5.32-.2-.26-1.41-2.11-1.41-8.72,0-9.05.69-11.57,2.33-14.09C458.74,471.21,471.39,454.7,471.52,454.53ZM452.29,472a15.55,15.55,0,0,0-2.33,5.87,15.71,15.71,0,0,0-2.32-5.87c-1.16-1.8-11.66-15.82-11.66-15.82a39.38,39.38,0,0,0,5.22.11c.56,0,.88,0,.88,0,3.81-.12,7.71-.28,11.62,1.08,2.9,1,5.44,2.18,7.63,2.55C461.33,459.89,453.13,470.69,452.29,472Z"/><path class="cls-2" d="M119.5,486.89,146.34,450v56.14h-11V483.45L119.5,505.3l-15.86-21.85v22.73h-11V450Z"/><path class="cls-2" d="M186.21,451.2v11h-22v11.06H180.7v11H164.17V495.3h22v10.95H153.14V451.2Z"/><path class="cls-2" d="M217.71,450.21l25,56H230.81l-3.71-8.33H208.32l-3.71,8.33H192.7Zm5,37.91-5-11.61-5.07,11.61Z"/><path class="cls-2" d="M275,451.34v10.92H261.53v43.92H250.47V462.26H237V451.34Z"/><path class="cls-2" d="M333.59,451.2v44H355.7v11H322.54v-55Z"/><path class="cls-2" d="M410.18,459a27.76,27.76,0,1,1-19.72-8.22A26.94,26.94,0,0,1,410.18,459Zm-31.56,7.85a16.73,16.73,0,0,0,23.64,23.67,16,16,0,0,0,4.95-11.83,16.83,16.83,0,0,0-16.75-16.75A16,16,0,0,0,378.62,466.83Z"/><path class="cls-2" d="M523.82,481.6V451.07h11.09v56.25l-33.16-31.59v30.53H490.7V450Z"/><path class="cls-2" d="M569.91,450.86A28,28,0,0,1,589.66,459l-7.88,7.88A16.25,16.25,0,0,0,570,462a16,16,0,0,0-11.81,4.95,16.72,16.72,0,0,0,0,23.67A15.94,15.94,0,0,0,570,495.48a16.67,16.67,0,0,0,15.07-9.62H569.36V475.32h28.25c.78,10.28-2.59,17.74-8,23.13a27,27,0,0,1-19.72,8.16A27.91,27.91,0,0,1,542,478.73,27.07,27.07,0,0,1,550.19,459a26.63,26.63,0,0,1,19.68-8.22Z"/><path class="cls-2" d="M637.38,451.07v11h-22.1v11.08h16.58v11H615.28v11.09h22.1v11H604.22V451.07Z"/><path class="cls-2" d="M472.41,453.65l2.57-3.36H426.71l2.57,3.36c.13.17,12.79,16.68,14.64,19.53,1.64,2.53,2.32,5.05,2.32,14.1,0,6.61-1.2,8.46-1.4,8.72-1.87,1.28-6.87,4.67-8.06,5.31l-7.22,3.93h42.57l-7.22-3.93c-1.07-.58-5.39-3.48-8.06-5.31-.2-.26-1.4-2.11-1.4-8.72,0-9,.68-11.57,2.32-14.1C459.62,470.33,472.28,453.82,472.41,453.65Zm-19.24,17.46a15.75,15.75,0,0,0-2.32,5.88,15.6,15.6,0,0,0-2.33-5.88c-1.16-1.79-11.66-15.81-11.66-15.81a41.31,41.31,0,0,0,5.23.11l.88,0c3.8-.12,7.7-.28,11.62,1.08,2.89,1,5.43,2.17,7.62,2.54C462.21,459,454,469.81,453.17,471.11Z"/><path class="cls-2" d="M120.38,486l26.84-36.85V505.3h-11V482.57l-15.82,21.84-15.86-21.84V505.3h-11V449.16Z"/><path class="cls-2" d="M187.1,450.32v11h-22v11.05h16.53v11H165.05v11.06h22v11H154V450.32Z"/><path class="cls-2" d="M218.59,449.33l25,56H231.69L228,497H209.2l-3.71,8.34H193.58Zm5,37.9-5-11.6-5.07,11.6Z"/><path class="cls-2" d="M275.88,450.45v10.93H262.41V505.3H251.35V461.38H237.84V450.45Z"/><path class="cls-2" d="M334.48,450.32v44h22.1v11H323.42v-55Z"/><path class="cls-2" d="M411.06,458.1a27.76,27.76,0,1,1-19.72-8.22A26.93,26.93,0,0,1,411.06,458.1Zm-31.56,7.84a16.73,16.73,0,0,0,0,23.68,16.75,16.75,0,1,0,0-23.68Z"/><path class="cls-2" d="M524.71,480.72V450.18h11.08v56.26l-33.16-31.59v30.53H491.58V449.16Z"/><path class="cls-2" d="M570.79,450a28.08,28.08,0,0,1,19.75,8.15L582.66,466a16.28,16.28,0,0,0-11.8-4.94,16.77,16.77,0,0,0,0,33.53A16.68,16.68,0,0,0,585.94,485h-15.7V474.44h28.25c.79,10.28-2.59,17.74-8,23.13a27,27,0,0,1-19.71,8.15,27.88,27.88,0,0,1-27.87-27.87,27,27,0,0,1,8.18-19.75,26.66,26.66,0,0,1,19.69-8.22Z"/><path class="cls-2" d="M638.27,450.18v11H616.16v11.09h16.58v11H616.16V494.4h22.11v11H605.11v-55.2Z"/><path class="cls-2" d="M473.29,452.77l2.57-3.36H427.59l2.57,3.36c.13.16,12.79,16.67,14.64,19.53,1.64,2.53,2.32,5.05,2.32,14.09,0,6.62-1.2,8.47-1.4,8.73-1.87,1.28-6.86,4.66-8.06,5.31l-7.22,3.92H473l-7.23-3.92c-1.07-.58-5.39-3.48-8.06-5.31-.2-.26-1.4-2.11-1.4-8.73,0-9.05.68-11.56,2.32-14.09C460.5,469.44,473.16,452.93,473.29,452.77Zm-19.24,17.46a15.71,15.71,0,0,0-2.32,5.87,15.71,15.71,0,0,0-2.32-5.87c-1.16-1.79-11.67-15.82-11.67-15.82a39.53,39.53,0,0,0,5.23.11c.55,0,.88,0,.88,0,3.81-.12,7.7-.28,11.62,1.08,2.9,1,5.44,2.17,7.62,2.54C463.09,458.12,454.9,468.92,454.05,470.23Z"/><path class="cls-13" d="M121.26,485.12l26.85-36.84v56.14h-11V481.69l-15.82,21.84-15.85-21.84v22.73h-11V448.28Z"/><path class="cls-14" d="M188,449.43v11h-22v11.06h16.54v11H165.93v11.06h22v11H154.91V449.43Z"/><path class="cls-15" d="M219.47,448.45l25,56H232.57l-3.71-8.34H210.08l-3.7,8.34H194.47Zm5,37.9-5-11.6-5.07,11.6Z"/><path class="cls-16" d="M276.77,449.57v10.92H263.29v43.93H252.24V460.49H238.73V449.57Z"/><path class="cls-17" d="M335.36,449.44v44h22.11v11H324.31v-55Z"/><path class="cls-18" d="M411.94,457.22A27.73,27.73,0,1,1,392.22,449,26.93,26.93,0,0,1,411.94,457.22Zm-31.55,7.84a16.71,16.71,0,0,0,0,23.68,16.75,16.75,0,1,0,0-23.68Z"/><path class="cls-19" d="M525.59,479.83V449.3h11.09v56.26L503.52,474V504.5H492.46V448.28Z"/><path class="cls-20" d="M571.67,449.1a28.13,28.13,0,0,1,19.76,8.15l-7.88,7.88a16.27,16.27,0,0,0-11.81-4.95A16.83,16.83,0,0,0,555,477a16.14,16.14,0,0,0,4.91,11.84,16,16,0,0,0,11.8,4.91,16.68,16.68,0,0,0,15.08-9.62H571.13V473.56h28.24c.79,10.27-2.58,17.73-8,23.13a27,27,0,0,1-19.72,8.15A27.89,27.89,0,0,1,543.77,477,27,27,0,0,1,552,457.22,26.6,26.6,0,0,1,571.64,449Z"/><path class="cls-21" d="M639.15,449.3v11H617v11.09h16.58v11H617v11.08h22.11v11H606V449.3Z"/><path class="cls-22" d="M474.17,451.88l2.58-3.35H428.47l2.58,3.35c.13.17,12.78,16.68,14.63,19.54,1.64,2.52,2.33,5,2.33,14.09,0,6.61-1.2,8.46-1.41,8.72-1.87,1.29-6.86,4.67-8.06,5.32l-7.21,3.92H473.9l-7.22-3.92c-1.07-.58-5.4-3.49-8.06-5.32-.2-.26-1.41-2.11-1.41-8.72,0-9.05.69-11.57,2.33-14.09C461.39,468.56,474,452.05,474.17,451.88Zm-19.23,17.46a15.66,15.66,0,0,0-2.33,5.88,15.71,15.71,0,0,0-2.32-5.87c-1.16-1.8-11.66-15.82-11.66-15.82a39.38,39.38,0,0,0,5.22.11c.56,0,.88,0,.88,0,3.81-.12,7.71-.28,11.62,1.08,2.9,1,5.44,2.17,7.63,2.55C464,457.24,455.78,468,454.94,469.34Z"/><path class="cls-12" d="M121.26,485.12l26.85-36.84v56.14h-11V481.69l-15.82,21.84-15.85-21.84v22.73h-11V448.28Z"/><path class="cls-12" d="M188,449.43v11h-22v11.06h16.54v11H165.93v11.06h22v11H154.91V449.43Z"/><path class="cls-12" d="M219.47,448.45l25,56H232.57l-3.71-8.34H210.08l-3.7,8.34H194.47Zm5,37.9-5-11.6-5.07,11.6Z"/><path class="cls-12" d="M276.77,449.57v10.92H263.29v43.93H252.24V460.49H238.73V449.57Z"/><path class="cls-12" d="M335.36,449.44v44h22.11v11H324.31v-55Z"/><path class="cls-12" d="M411.94,457.22A27.73,27.73,0,1,1,392.22,449,26.93,26.93,0,0,1,411.94,457.22Zm-31.55,7.84a16.71,16.71,0,0,0,0,23.68,16.75,16.75,0,1,0,0-23.68Z"/><path class="cls-12" d="M525.59,479.83V449.3h11.09v56.26L503.52,474V504.5H492.46V448.28Z"/><path class="cls-12" d="M571.67,449.1a28.13,28.13,0,0,1,19.76,8.15l-7.88,7.88a16.27,16.27,0,0,0-11.81-4.95A16.83,16.83,0,0,0,555,477a16.14,16.14,0,0,0,4.91,11.84,16,16,0,0,0,11.8,4.91,16.68,16.68,0,0,0,15.08-9.62H571.13V473.56h28.24c.79,10.27-2.58,17.73-8,23.13a27,27,0,0,1-19.72,8.15A27.89,27.89,0,0,1,543.77,477,27,27,0,0,1,552,457.22,26.6,26.6,0,0,1,571.64,449Z"/><path class="cls-12" d="M639.15,449.3v11H617v11.09h16.58v11H617v11.08h22.11v11H606V449.3Z"/><path class="cls-12" d="M474.17,451.88l2.58-3.35H428.47l2.58,3.35c.13.17,12.78,16.68,14.63,19.54,1.64,2.52,2.33,5,2.33,14.09,0,6.61-1.2,8.46-1.41,8.72-1.87,1.29-6.86,4.67-8.06,5.32l-7.21,3.92H473.9l-7.22-3.92c-1.07-.58-5.4-3.49-8.06-5.32-.2-.26-1.41-2.11-1.41-8.72,0-9.05.69-11.57,2.33-14.09C461.39,468.56,474,452.05,474.17,451.88Zm-19.23,17.46a15.66,15.66,0,0,0-2.33,5.88,15.71,15.71,0,0,0-2.32-5.87c-1.16-1.8-11.66-15.82-11.66-15.82a39.38,39.38,0,0,0,5.22.11c.56,0,.88,0,.88,0,3.81-.12,7.71-.28,11.62,1.08,2.9,1,5.44,2.17,7.63,2.55C464,457.24,455.78,468,454.94,469.34Z"/><line class="cls-23" x1="390.06" y1="186.08" x2="480.92" y2="276.95"/><line class="cls-23" x1="368.21" y1="220.92" x2="425.19" y2="277.89"/><line class="cls-23" x1="254.28" y1="220.92" x2="311.8" y2="278.43"/><polygon class="cls-24" points="332.35 149.29 204.95 278.35 534.07 278.35 444.08 186.8 438.38 202.7 412.32 189.5 332.35 149.29"/><polygon class="cls-25" points="535.19 276.54 450.24 191.09 450.24 206.12 525.54 281.42 534.94 281.42 535.19 276.54"/><path class="cls-26" d="M418.55,137.17c-3.7,39.92-36.23,24.4-41.41,54-26.61-42.14,14.05-54.71-6.65-97.59,5.18,26.62-51.58,47.74-23.66,103.51-13.3,1.47-42.88-14.79-43.62-45.1a113.17,113.17,0,0,0-2.78,13.27c1.57,2.64,3.1,5.31,4.54,8l-4.64,2.17c-.24-.59-.51-1.17-.76-1.75-2.3,39.69,22.44,65.52,62.79,65.52C425.8,239.2,428.16,183.75,418.55,137.17Z"/><line class="cls-23" x1="311.24" y1="220.92" x2="368.64" y2="278.31"/><line class="cls-23" x1="369.73" y1="278.3" x2="416.04" y2="231.98"/><polygon class="cls-27" points="203.17 276.54 259.3 219.9 259.3 234.94 212.81 281.42 203.42 281.42 203.17 276.54"/><line class="cls-24" x1="232.73" y1="253.74" x2="257.42" y2="278.43"/><line class="cls-23" x1="312.81" y1="278.26" x2="359.08" y2="231.98"/><line class="cls-23" x1="254.36" y1="278.19" x2="327.89" y2="204.65"/><ellipse class="cls-28" cx="363.79" cy="225.17" rx="106.25" ry="41.35"/><path class="cls-29" d="M473.46,158.94c5.25,22.28.11,28.72-10.48,37.35,19-28.17-15.73-41.93,19-75.35-65.53,9.83-89.08,107-46.48,114.71C478.71,243.47,499,208.09,473.46,158.94Z"/><path class="cls-30" d="M477.23,191.33c-9.15,7.33-12.81,15.56-24.7,14.65,16.35-34.59-13.14-39.17,12.41-75.87-36,19-63.06,84.34-33.41,100.91C453.8,243.47,475.4,229.77,477.23,191.33Z"/><path class="cls-31" d="M429.65,224.28c12.42,12.41,39.23,4.58,43.81-20.12-8.52,12.45-21.85,12.8-30.09,9.14,6-13.31,7.32-14.64,3.67-53.07C442.46,185.85,412.27,206.89,429.65,224.28Z"/><path class="cls-32" d="M312.8,82.11c-8.85,33.18,4.78,39.15,5.08,61.41-1.4-64.36,58.33-68.05,17.77-122.61,48.66,26.54,68.57,68.57,55.3,118,19.17-12.53,24.33-46.45,5.16-81.84,39.08,30.23,82.11,187.84-30.23,187.27C292.52,244,244.23,187.54,312.8,82.11Z"/><path class="cls-33" d="M303.21,126.35c-1.48,22.48,13.11,43.68,28,56.77-21.38-58.25,44.46-86.33,26.54-129.77C388,78.42,386.53,136.67,374,169.85c11.8-29.5,44.73-13,41.29-59.72,18.19,50.62,26.78,131.24-49.4,131.24C299.53,241.37,281.09,189.75,303.21,126.35Z"/><path class="cls-34" d="M304,152.15c.73,30.23,30.23,46.45,43.5,45C319.61,141.52,376.21,120.45,371,93.9c20.65,42.77-19.9,55.3,6.64,97.33,5.16-29.49,37.6-14,41.29-53.82,9.58,46.45,7.24,101.74-56,101.74C315.75,239.15,289.94,203.76,304,152.15Z"/><path class="cls-35" d="M259.64,161.84c-6.31,23.15-2.63,32.48,6.94,42.58-9.45-29.79,23.8-31.52,2.19-77.81,35.55,31.77,63.48,115,14.46,116.4C240.87,244.26,234.78,200.74,259.64,161.84Z"/><path class="cls-36" d="M253,194.18c6.56,8.77,7.94,17.1,18.93,19.06-3.22-35.33,13.11-26.68,10.32-63.66,17.19,29.22,40.71,87,.08,90.92C265.55,242.13,245.65,229.41,253,194.18Z"/><path class="cls-37" d="M288.46,237.52c-14.16,8.34-33.87-8.44-32.22-31.9,5.76,10.56,14,17.78,22.29,16.4-5-12-3.28-27.54,9.15-48.93C278.81,195.41,318,220.07,288.46,237.52Z"/><line class="cls-24" x1="426.74" y1="278.26" x2="478.44" y2="226.55"/><line class="cls-24" x1="483.48" y1="278.2" x2="506.66" y2="255.02"/><path class="cls-10" d="M451.26,212.52c-.75-4.15-3.55-13-17.23-23.63-14.43-11.29-32.2-17.08-55.52-23.4-35.81-9.72-62-1.33-74.34,11.3-7.89,8.05-15.79,17.43-15.79,36.54,0,0-.71,10,.27,16,.63,3.84,4.23,16.19,19.21,20.73s40.84,5.34,55.17,2.75,31.91-7.77,54.05-6.15,31.76-5.52,33.06-10.21C451.89,230.14,452.12,217.25,451.26,212.52Z"/><path class="cls-3" d="M389.88,247.84c.44-4.82,1.44-16.39,1.44-20.41,0-5.14-.74-11.25-3.92-15.16s-3.42-7.59-6.85-4.16-4.89,5.87-6.84,6.36-5.38-.25-8.81,1.95-3.42,3.43-1,6.36,6.12,3.43,6.85,9.3c.67,5.37.39,15.21.34,19.27C376.86,250.15,383.1,248.83,389.88,247.84Z"/><path class="cls-38" d="M328.82,172.52c-5.71,8-7.21,23.14.37,29.5s16.17,12.72,22.78,7.34c0,0-1.42,4.37-4.36,5.11,0,0,10.15,4.33,14.06-.25,2.49-2.91,6.41-3.42,9.59-4.89s6.36-3.18,5.63-6.6-1.47-4.89-1.72-7.58-3.18-4.89-7.82-6.85S361.23,192,354.87,193a30.18,30.18,0,0,0,7.59-8.81c2.93-5.38,2.44-5.87,4.4-7.83s4.64-8.3,2.21-13.43a102,102,0,0,0-27-1.59A38.81,38.81,0,0,0,328.82,172.52Z"/><path class="cls-3" d="M363.35,234.14c0-3-1.14-7.44-4.32-9.4s-6.36-2-11.74-2.93a26.18,26.18,0,0,1-12.23-6.12c-2.93-2.44-5.38-7.58-7.09-6.36s-3.18,3.18-3.18,9.3-1.22,9,1,12.47a15.43,15.43,0,0,1,2.93,9.29c0,2.73-.1,10.28-.14,13.27,12.45,1.12,25.87.83,34.83-.78C363.38,248.87,363.35,236.67,363.35,234.14Z"/><path class="cls-39" d="M295.93,217.65c3.91-2.2,8.32-8.81,9.05-12.48s-.73-8.07-.73-8.07,5.38,7.1,9.53,5.63,4.41-6.61,4.65-11.74a35.53,35.53,0,0,1,4.65-15.41c2.35-3.76,4.32-11.22,4.47-11.79-10.35,2.85-18.44,7.6-23.79,13.09-7.89,8.09-15.38,17-15.38,36.16,0,0,0,.18,0,.5C289.27,214.92,292.59,219.53,295.93,217.65Z"/><path class="cls-3" d="M426.29,227.67c-.49-3.42-3.18-8.31-6.85-11.25s-4.4-1.22-9.78-2.69-10.76-4.15-12.47-4.15-4.9-.74-3.18,2.93,3.66,4.4,3.42,13.94c-.19,7.33.1,16.56.25,20.46a119.59,119.59,0,0,1,19.86-.23c2.82.21,5.43.27,7.85.22C425.73,242.74,426.69,230.51,426.29,227.67Z"/><path class="cls-3" d="M321.12,234c0-2.93-1.71-3.91-1.47-9.53s3.18-14.19-1.46-15.17-6.85-1.22-10,2.94-7.34,7.82-7.58,14.92c-.22,6.32,1.46,14.82,1.83,20.41a31.16,31.16,0,0,0,5.91,2.5,85.58,85.58,0,0,0,12.31,2.62C320.75,248.83,321.12,236.5,321.12,234Z"/><path class="cls-40" d="M371.11,251.34c5.75-1.2,12-2.52,18.77-3.5.39-4.36,1.25-14.21,1.41-19-7.45,1-14.24,2.46-20.47,3.75C371.42,238,371.16,247.38,371.11,251.34Z"/><path class="cls-41" d="M290.85,216.48a24.45,24.45,0,0,1-1.9-6c-.18-1.11-.32-2.36-.43-3.67a62.59,62.59,0,0,0-.31,6.31v.17A15.57,15.57,0,0,0,290.85,216.48Z"/><path class="cls-41" d="M451.77,216.81c-.09-1.48-.21-2.79-.37-3.8a32.56,32.56,0,0,1-.85,4.62,5.61,5.61,0,0,1-.42,1.05A7.59,7.59,0,0,0,451.77,216.81Z"/><path class="cls-40" d="M321.12,234v0a88.63,88.63,0,0,1-12.95-2.72,29.69,29.69,0,0,1-7.6-3.5c-.1,6.3,1.51,14.51,1.85,19.93a31,31,0,0,0,5.75,2.41,88.56,88.56,0,0,0,12.46,2.64C320.75,248.88,321.12,236.5,321.12,234Z"/><path class="cls-40" d="M426.32,228a81.86,81.86,0,0,1-8.86-.18,119.72,119.72,0,0,0-20.06.25c-.12,7,.15,15.2.28,18.81a119.77,119.77,0,0,1,19.78-.22q4.28.3,7.93.21C425.72,242.91,426.62,231.4,426.32,228Z"/><path class="cls-40" d="M363.35,234.14V234c-9.14,1.66-23,1.92-35.65.72a14.53,14.53,0,0,1,1,5.64c0,2.73-.1,10.31-.14,13.28,12.47,1.11,25.89.82,34.82-.8h0C363.38,248.84,363.35,236.67,363.35,234.14Z"/><path class="cls-42" d="M433.87,210.31c-5.38-2.69-9.78-2.93-14.18-6.6S407,198.82,407,198.82s6.36-1.72,9.29-1,6.85-1,2.94-3.18-5.63-7.34-5.63-11.5c0,0,3.18,7.1,7.09,8.07,3.27.82,6.55-4.11,8-5.5h0s.22-.22.49-.46c-13.43-8.93-29.72-14.53-50.16-20.1-1.93-.53-3.84-1-5.73-1.41.08.4,1.13,6.38-.76,11.34-2,5.14-4.15,7.83-2.2,9.3s8.07.73,10.52,2.44,5.38,1.47,8.07,1.47,4.65,3.42,4.65,3.42a11.13,11.13,0,0,0-8.56-1c-4.65,1.47-5.38,6.61-3.92,8.08s6.85,5.62,12.48,5.13,11.25,2.45,15.65,4.4,7.34.49,10,3.43,5.62,7.58,10.51,10.51,10.52,1.47,11.25-1.71S439.25,213,433.87,210.31Z"/><path class="cls-3" d="M441.21,195a74.76,74.76,0,0,0-6.56-5.77l-.67-.5-.21.14c-1.19.9-8.5,6.51-8.95,9.2-.49,2.94,2.94,3.91,6.36,2.69s6.35-5.3,10-5.76Z"/><path class="cls-3" d="M451.38,212.43c-.56-3.12-2-8.55-8.43-15.59h0s-4.42,2-4.42,4.66.73,4.4,3.91,7.33,4.4,4.41,4.16,7.83,2.73,4,5.24.07A41.45,41.45,0,0,0,451.38,212.43Z"/><rect class="cls-43" x="202.41" y="275.53" width="334.28" height="13.03" rx="2.93"/><g class="cls-44"><path d="M435.16,28.78c-129.94-36-250.19,32-296.25,139.34-15.79,30.36-19.83,83-19.83,83s20.13-44.94,60.8-85.35c6.65-6.6,25.74-29.49,55.73-40.25,0,.1,0,.21,0,.31a104.25,104.25,0,0,0,4.06,14.62,63.89,63.89,0,0,0,6.81,13.21,61.81,61.81,0,0,1-2-14.16,95.73,95.73,0,0,1,1-14c.57-3.82,1.33-7.6,2.24-11.32,4.54-10.71,13.74-28.77,27.4-38.61C295.37,61,305.29,60.17,310.35,64.62s6.07,19.84,4.86,33.4a134.27,134.27,0,0,1-2.2,14.79c-1,3.94-2.26,7.85-3.69,11.7a97,97,0,0,1-5.94,12.72,61,61,0,0,1-8.58,11.43,64.06,64.06,0,0,0,12.35-8.27,104.62,104.62,0,0,0,10.61-10.85c1.81-2.17,3.55-4.41,5.22-6.7,7.59.27,17.19,1.2,24.41,3.92,14,5.26,26.92,10.73,48.58,28.13,0,0-4.25-5.83-8.43-11.37-4.42-5.85-4.53-12.71-1.89-19s18.21-35,47.56-35.62c0,0,8.5,6.88,6.68,23.68s-7.08,28.34-12.75,36.23c-2.41,3.35-5.36,7.25-8,10.63a11.17,11.17,0,0,0,1.2,14.93c6.82,6.46,19,17.75,22.49,27,0,0-3.58,17.64-19,38.49s-31.58,27.93-31.58,27.93,34.47-3.92,56.27-32c21.29-27.39,46.11-55.45,44.13-127.92,0,0,15.92,19.71,15.38,73.41s-5.13,70.17-5.67,77.72,4.32,15.66,3,28.88c-1,9.51-2.08,22.51-2.63,29.06a8.6,8.6,0,0,0,2.68,7l10.63,10a17.14,17.14,0,0,1,4,19.26l-17.84,41.44a23.67,23.67,0,0,1-14.42,13.17c-18.46,6-59.27,17.47-101.7,17.47-57.49,0-85-15.11-105-29.14,0,0,16.19,22.4,65,36.7,18.42,5.39,41.45,8,63,9.21,20.83,1.14,25,30.08,5.36,37a147.56,147.56,0,0,1-42.72,8.53c-60.72,2.7-91.75-.54-151.39-33.46-22.58-12.46-41-29.41-55.12-45.66A245.56,245.56,0,0,0,365,510.92c157.39,0,280.25-147.86,237.25-312.25A239.12,239.12,0,0,0,435.16,28.78Z"/><path d="M447.56,372.91S464.63,349,443,343.63C425.75,339.35,394.29,372,394.29,372S442.52,346.33,447.56,372.91Z"/><path d="M281.18,256.28s-3.14,19.91,6.29,28.3,28.31,5.24,33.55,1.05C321,285.63,295.92,282.23,281.18,256.28Z"/></g></g></g></svg>