<svg id="Layer_1" data-name="Layer 1" xmlns="http://www.w3.org/2000/svg" viewBox="0 0 800 600"><defs><style>.cls-1{opacity:0.05;}</style></defs><path d="M73.84,517.81v43.87h22v11H62.82V517.81Z"/><path d="M102.8,517.81h11v54.82h-11Z"/><path d="M155.84,517.68v11h-22v11.05h16.53v11H133.8v22h-11v-55Z"/><path d="M195.82,517.68v11h-22v11.05h16.53v11H173.78v11h22v11H162.76v-55Z"/><path d="M218,561.84c3,0,6.4-2.53,6.4-5.57,0-5-6.72-5.71-10.51-7-6.68-2.28-12.58-7.76-12.58-15.23a16.72,16.72,0,0,1,33.28-2.31L223.67,534a5.56,5.56,0,0,0-11.12,0c0,4.93,6.25,6.25,10.06,7.38,6.91,2,13,7.26,13,14.89,0,9.25-8.29,16.71-17.52,16.71-8.48,0-16.14-6.22-17.39-14.38l10.94-2.33c0,3.06,3.33,5.55,6.42,5.55Z"/><path d="M278.53,517.81v10.92H265.06v43.9H254v-43.9h-13.5V517.81Z"/><path d="M295.86,517.81l10,19,10-19h12.48l-17,31.32v23.5H300.38v-23.5l-17-31.32Z"/><path d="M346.28,517.81v43.87h22v11H335.26V517.81Z"/><path d="M408.29,517.68v11h-22v11.05h16.53v11H386.25v11h22v11H375.24v-55Z"/><path d="M451.93,517.81v43.87h22v11H440.91V517.81Z"/><path d="M524,525.57a27.64,27.64,0,1,1-19.65-8.2A26.81,26.81,0,0,1,524,525.57Zm-31.45,7.82a16.25,16.25,0,0,0-4.9,11.8,16.73,16.73,0,1,0,4.9-11.8Z"/><path d="M623.22,548.11V517.68h11v56.07l-33-31.49v30.43h-11v-56Z"/><path d="M669,517.47a28,28,0,0,1,19.69,8.13l-7.86,7.85a16.22,16.22,0,0,0-11.76-4.93,15.94,15.94,0,0,0-11.77,4.93,16.66,16.66,0,0,0,0,23.6,15.88,15.88,0,0,0,11.77,4.9,16.64,16.64,0,0,0,15-9.59H668.46V541.85h28.16c.78,10.25-2.58,17.68-8,23.06A26.93,26.93,0,0,1,669,573a27.79,27.79,0,0,1-27.78-27.78,27,27,0,0,1,8.16-19.68,26.55,26.55,0,0,1,19.62-8.2Z"/><path d="M736.7,517.68v11h-22v11.05h16.53v11H714.66v11h22v11H703.65v-55Z"/><path d="M580,519.59l1.35-1.74H535.18l1.35,1.75c.13.17,13.45,17.43,15.42,20.45,1.84,2.83,2.61,5.58,2.61,15.3a31.66,31.66,0,0,1-.67,7.26,6.1,6.1,0,0,1-2.53,3.61c-2.19,1.47-6.23,4.16-7.31,4.75l-3.77,2h36l-3.78-2c-1.15-.62-5.18-3.33-7.31-4.76a6.08,6.08,0,0,1-2.51-3.56,31,31,0,0,1-.69-7.3c0-9.72.77-12.47,2.62-15.3C566.59,537,579.91,519.77,580,519.59Zm-19.31,18.89a16.3,16.3,0,0,0-2.44,6.13,16.46,16.46,0,0,0-2.44-6.13c-1.22-1.87-12.24-16.5-12.24-16.5a43.4,43.4,0,0,0,5.48.11c.58,0,.93,0,.93,0,4-.13,8.09-.3,12.2,1.12,3,1,5.7,2.27,8,2.66C570.22,525.85,561.62,537.12,560.73,538.48Z"/><path d="M373.36,421.12c-14.26,0-28.33-1.69-37.66-4.53-18.15-5.52-21.55-21-22-24-1-6.27-.83-16.29-.8-17.42,0-20.61,8-30.49,16.83-39.59,10.79-11.06,28.86-17.41,49.59-17.41a120.43,120.43,0,0,1,31.48,4.44c24.24,6.61,43.53,13.48,58.9,25.55,16.09,12.64,17.89,22.64,18.48,25.92.88,4.94,1.12,19.09-.87,26.27-1.35,4.86-9.35,13.09-30.8,13.09-2.14,0-4.38-.09-6.66-.26-2.83-.2-5.71-.31-8.57-.31-14.3,0-26.61,2.57-37.47,4.83-3.32.69-6.38,1.33-9.35,1.87A122.38,122.38,0,0,1,373.36,421.12Zm-14.27-5c4.85.41,9.8.61,14.74.61a124.56,124.56,0,0,0,19.43-1.35c0-4.82,0-16.15,0-18.62,0-3.21-1.24-7.21-4-8.92-2.31-1.42-4.6-1.77-8.06-2.3-1.14-.17-2.4-.36-3.79-.61a28.14,28.14,0,0,1-13.17-6.57,26.51,26.51,0,0,1-3.37-3.72c-.83-1.06-2.23-2.82-2.76-2.85-1.41,1-2.9,2.6-2.9,8.85,0,1.9-.11,3.51-.21,4.92-.23,3.28-.36,5.27,1.07,7.5a17.09,17.09,0,0,1,3.21,10.19C359.23,405.87,359.14,412.57,359.09,416.15Zm-27.21-6a30.64,30.64,0,0,0,5.46,2.26,87.14,87.14,0,0,0,11.53,2.52c.17-5.48.48-16,.48-18.25a8.56,8.56,0,0,0-.57-2.85,17.91,17.91,0,0,1-.95-7.11c.07-1.56.33-3.34.58-5.06.79-5.33,1.15-9.15-1.31-9.67a21.51,21.51,0,0,0-4.12-.6c-1.73,0-3.21.55-5.3,3.28-.57.75-1.17,1.48-1.77,2.21-2.8,3.41-5.7,6.94-5.9,12.72a92.13,92.13,0,0,0,1.09,13.69C331.42,405.76,331.72,408.11,331.88,410.15Zm82.56-40.82c-.16,0-.63.11-1.64,1.12s-2.06,2.16-2.87,3.07c-1.77,2-3,3.38-4.71,3.8a12.77,12.77,0,0,1-2.44.26,12.2,12.2,0,0,0-6.41,1.64c-1.51,1-2.25,1.7-2.34,2.29s.38,1.43,1.55,2.84a14.72,14.72,0,0,0,2.42,2.17c2,1.58,4.34,3.36,4.92,8,.62,4.92.47,13.25.39,18.22v.69c5.54-1.15,11.26-2.34,17.56-3.28.47-5.35,1.41-16.4,1.41-20.33,0-6.9-1.29-12-3.84-15.13a30,30,0,0,1-2.2-3.18C415.57,370.44,414.88,369.33,414.44,369.33Zm27.32,39.16c2.95,0,5.92.11,8.83.33,2.17.16,4.3.24,6.34.24h.82c.38-4.7,1.25-16.17.86-18.84-.44-3.09-2.95-8-6.75-11a6.63,6.63,0,0,0-4.76-1.81,22.62,22.62,0,0,1-5-.8,80.73,80.73,0,0,1-7.83-2.7,24.68,24.68,0,0,0-4.86-1.58l-.85,0c-.29,0-.6,0-.9,0-.89,0-1,.17-1,.17s-.16.34.39,1.51c.36.77.73,1.41,1.09,2,1.43,2.46,2.77,4.79,2.56,12.9-.18,7,.07,15.78.22,20.13C434.58,408.65,438.16,408.49,441.76,408.49Zm-14.89-44.12c5,0,9.88,2.23,13.81,4l1.54.69a16.26,16.26,0,0,0,4.79,1.21c2.11.29,4.1.56,6,2.59.74.8,1.48,1.71,2.27,2.67,2.25,2.76,4.8,5.89,8.43,8.07a10.17,10.17,0,0,0,5.25,1.51c2.55,0,4.59-1.09,4.95-2.65.63-2.73-1.51-6.89-6.84-9.56a49.21,49.21,0,0,0-5.88-2.37c-3.12-1.1-6.07-2.13-9-4.61-4.3-3.58-12.63-4.85-12.71-4.86l-4.13.35c.19-.05,6.39-4.43,12-3.55.82.13,1.55.08,2.13.22a5.18,5.18,0,0,0,1.26.15,3.15,3.15,0,0,0,2.26-.64h0a3,3,0,0,0-1.2-1c-4.69-2.64-6.05-11.55-6.05-15.81l1.56,3.78c.87,1.93,3.8,5.9,6.74,6.63a1.88,1.88,0,0,0,.53.07c2,0,4.31-2.67,5.68-4.27l.46-.52,0,0,.33-.33c-13.81-8.92-30.33-14.49-50.78-20.07-1.45-.39-2.93-.77-4.5-1.13a24.35,24.35,0,0,1-1.05,10.84c-.56,1.48-1.14,2.76-1.65,3.88-1.34,3-1.74,4-1,4.62s2.68.76,4.54,1c2.38.24,4.83.49,6.36,1.56,1.79,1.25,3.9,1.36,5.92,1.36l1.89,0c3.34,0,7,7.63,7.1,7.8l-2.8-2.39a11,11,0,0,0-5.19-1.35,9.56,9.56,0,0,0-2.87.44,5.66,5.66,0,0,0-3.93,4.09,3,3,0,0,0,.27,2.63c1.41,1.42,6.2,5.09,11.29,5.09.29,0,.58,0,.87,0C425.94,364.39,426.41,364.37,426.87,364.37Zm49.81-5.1c-1.28.71-3.37,2.15-3.37,3.61,0,2.38.54,3.93,3.74,6.89,3.44,3.18,4.92,5,4.64,8.94a2.1,2.1,0,0,0,.34,1.63.57.57,0,0,0,.45.19c.56,0,1.57-.56,2.63-2.1a38.13,38.13,0,0,0-.43-4C484.08,371.09,482.6,366,476.68,359.27ZM317.33,375.09c1.35,2,3.35,4,5.14,4a2.49,2.49,0,0,0,1.22-.33c3.75-2.11,8.2-8.7,8.91-12.28s-.71-7.83-.73-7.87l-1.22-3.46c1.2,1.58,7.91,8.19,10.84,8.19a2.76,2.76,0,0,0,.91-.15c3.68-1.3,3.91-6.16,4.16-11.3a37.82,37.82,0,0,1,5-16.49c1.72-2.76,3.29-7.66,4-10.25C346.27,328,338.5,332.39,333,338c-8.59,8.81-15.7,17.66-15.7,36.87Zm63,1.06a22.14,22.14,0,0,0,6.35,1.12c2.33,0,4-.61,5.08-1.83,2-2.33,4.7-3.28,7.31-4.19,1.06-.37,2.05-.71,3-1.14,3.84-1.78,5.82-3.22,5.28-5.75-.29-1.37-.59-2.46-.86-3.41a24.24,24.24,0,0,1-.93-4.58c-.2-2.15-2.73-4.27-7.53-6.28a3.83,3.83,0,0,0-1.54-.35c-1.28,0-2.38.82-3.78,1.87a23.16,23.16,0,0,1-7.09,3.37l-2.48.45s6.42-5.75,9.32-11.06c1.21-2.22,1.85-3.62,2.32-4.64a10.11,10.11,0,0,1,2.43-3.72c1.87-1.88,4.2-7.66,2.3-12.36a109.44,109.44,0,0,0-19.67-1.85c-2.5,0-5,.09-7.41.29a39.14,39.14,0,0,0-13.22,11.27c-5.86,8.19-6.91,23.32.22,29.29,5.47,4.6,11.77,9.5,17.21,9.5a7.92,7.92,0,0,0,5.17-1.88l2.64-2.15-1,3.24A12.1,12.1,0,0,1,380.29,376.15Zm87.29-25.28c-4,3-8.23,6.94-8.51,8.62a1.57,1.57,0,0,0,.28,1.36,3.2,3.2,0,0,0,2.41.81,7.87,7.87,0,0,0,2.59-.48,16.85,16.85,0,0,0,4.19-2.64,19.67,19.67,0,0,1,4.59-2.92c-1.65-1.56-3.48-3.13-5.46-4.69Z"/><path d="M521.7,388c-.5.71-1.05,1.39-1.59,2.07q-.61.75-1.26,1.47c-.32.36-.65.72-1,1.07s-.69.71-1,1.05-.84.79-1.27,1.17-.75.66-1.14,1c-.62.51-1.25,1-1.9,1.46-.3.22-.62.44-.93.65-.57.38-1.14.75-1.73,1.11l-.83.5a44.14,44.14,0,0,1-9.31,4l-8.4,8.4-3.93,3.93L461.24,442l-21.41-21.41q-3.84.07-7.5.36l23.38,23.39-50.73,0,22.92-22.93c-3.14.35-6.19.79-9.15,1.29L399.42,442,386,428.52c-2.34.21-4.81.38-7.38.48l15.27,15.27-44.41,0L364.67,429q-3.78-.13-7.46-.4L343.87,442l-30-30a27.21,27.21,0,0,1-7.28.58l4.31,4.3L285.81,442l-17.65-17.65L283.44,409a38.61,38.61,0,0,1-15.72-11.52,17,17,0,0,1-1-1.63l-14.44,14.67-21.11,21.06-16.6,16.5,1.31,3.33,11.52,28.44H573.09l11.52-28.44.81-2.71ZM248.29,444.19l15.94-15.93,15.95,15.95Zm43.14,0,23.41-23.41,23.43,23.44Zm175.33.1,24.55-24.55,24.59,24.58Zm28.48-28.48,13.14-13.14,26.15,26.15L521.39,442Zm31.63,28.52,11.59-11.58,11.59,11.59Z"/><path d="M54.65,54.31V69H25.25V83.71h22V98.37h-22v29.35H10.55V54.31Z"/><path d="M78.28,54.49V113h29.4v14.61H63.58V54.49Z"/><path d="M229.35,129.26l-33-74.77h15.56l17.38,40.07,17.42-40.07h15.74Z"/><path d="M325.26,64.84A35.83,35.83,0,0,1,336.2,91.11a37.11,37.11,0,0,1-37.16,37,37,37,0,0,1-37.12-37,36,36,0,0,1,10.89-26.27,36.93,36.93,0,0,1,52.45,0Zm-42,10.43A21.69,21.69,0,0,0,276.76,91a22.28,22.28,0,1,0,38-15.75,22.2,22.2,0,0,0-31.45,0Z"/><path d="M389.41,98.73V54.49H404.2V98.78a29.58,29.58,0,0,1-59.16,0V54.49h14.79V98.73a14.79,14.79,0,0,0,29.58,0Z"/><path d="M415.86,54.49h23.86a26.86,26.86,0,0,1,19.15,7.45c4.45,4.45,7.07,8.51,7.07,16.6v1.91a23.71,23.71,0,0,1-4.62,13.93,16.74,16.74,0,0,1-8.76,6.76l17,26.49h-18l-21-32.35v32.35H415.9ZM450.79,79a9.9,9.9,0,0,0-2.9-7c-1.91-1.85-5.53-2.9-9.08-2.9h-8.26V89.25h5.68v0h4.9C446.48,89.29,450.79,84.57,450.79,79Z"/><path d="M520.34,54.49V86.84l18.73-32.35h17L534.4,91.65l25.14,36H541.66L520.34,97v30.67H505.68V54.49Z"/><path d="M568.47,54.49h14.7v73.14h-14.7Z"/><path d="M638.88,94.92V54.31h14.74v74.82l-44.1-42v40.6h-14.7V53Z"/><path d="M699.67,54a37.4,37.4,0,0,1,26.27,10.84L715.46,75.37a21.62,21.62,0,0,0-15.7-6.58,21.23,21.23,0,0,0-15.7,6.58,22.23,22.23,0,0,0,0,31.48,21.21,21.21,0,0,0,15.7,6.54,22.18,22.18,0,0,0,20-12.8H698.94v-14h37.57c1,13.67-3.44,23.59-10.66,30.76a35.92,35.92,0,0,1-26.23,10.85,35.45,35.45,0,0,1-26.17-10.85,35.55,35.55,0,0,1-10.89-26.22,36,36,0,0,1,10.89-26.27,35.39,35.39,0,0,1,26.17-10.93Z"/><path d="M766,113.23c4.06,0,8.54-3.37,8.54-7.43,0-6.67-9-7.61-14-9.36-8.92-3-16.79-10.36-16.79-20.32A22.31,22.31,0,0,1,788.1,73l-14.6,3.08a7.42,7.42,0,0,0-14.84,0c0,6.58,8.34,8.34,13.42,9.85,9.23,2.66,17.37,9.69,17.37,19.87,0,12.33-11.07,22.29-23.38,22.29-11.31,0-21.54-8.29-23.2-19.18l14.59-3.11c0,4.08,4.44,7.41,8.57,7.41Z"/><path d="M158.13,80.45a15.47,15.47,0,0,0,3.78.46c3.87,0,7.15-1.37,9-3.77s2.24-5.66,1.18-9.66c-.82-3-3.69-4.87-7.68-4.87a13.6,13.6,0,0,0-8.69,3.1,9.58,9.58,0,0,0-2.91,9.2A7.28,7.28,0,0,0,158.13,80.45Z"/><path d="M195.1,93.43c-2.79-14-11.16-31.6-21-38.17s-21.81-4.77-38.8,16.11c0,0-11.16,14.61-13.95,29.82s.92,24.75,13.19,24.75c21.3,0,25-9.42,33-9.84,11.16-.6,16,11,22.57,5.66C196.29,116.67,197.89,107.45,195.1,93.43ZM133.76,82.38a141.2,141.2,0,0,1,11.69-15.59c7.2-6.76,13.46-10.08,19.09-10.08a14.69,14.69,0,0,1,6.78,1.69c6.77,3.44,12.36,12.77,14.19,19.8s.86,11.54-3.08,14a3.48,3.48,0,0,1-1.93.59h0a10.43,10.43,0,0,1-4.11-1.4A18.9,18.9,0,0,0,167.78,89h-.63A15.93,15.93,0,0,0,161,90.81c-3.45,1.54-7.75,3.46-16.95,3.46-4.66,0-9-2.1-10.7-5.22A6.27,6.27,0,0,1,133.76,82.38Zm19.91,30.2c-1.65,2.67-3.22,5.19-4.72,6.21-2.32,1.57-6.63,2.5-11.53,2.5a33.86,33.86,0,0,1-7.26-.75c-5.51-1.25-6.42-8.84-5.53-15,.85-5.9,1.27-8.33,3.08-9.35a1.69,1.69,0,0,1,.85-.17,8.27,8.27,0,0,1,3,.79c.51.25,1.12.61,1.8,1,2.75,1.61,6.51,3.81,10.75,3.81h.35a36.49,36.49,0,0,0,18-5.62,7.52,7.52,0,0,1,4.06-1.43A3.5,3.5,0,0,1,170,96.94c.2,1.12.34,1.86-6.49,4.83C159.22,103.64,156.27,108.39,153.67,112.58Zm38.09-7.89c-.13,5.12-2.12,10-4.74,11.5a3,3,0,0,1-1.6.41c-2,0-4.6-1.55-6.66-2.8l-1.06-.64c-2.19-1.29-4.82-2.6-7.66-2.6a9.2,9.2,0,0,0-3.93.89,10.25,10.25,0,0,1-3.87,1.13,1.29,1.29,0,0,1-1-.3c-.09-.12-.37-.64,0-2.12,1.05-3.81,5.81-5.54,6.42-5.74,4.86-.8,6.43-2.93,7.57-4.48.9-1.21,1.39-1.87,3.18-1.87a12.09,12.09,0,0,1,2.42.3,5.31,5.31,0,0,0,1,.11c2,0,3.18-1.26,4.23-2.38s1.78-1.83,3-1.83l.36,0C190.37,94.39,191.91,98.51,191.76,104.69Z"/><path d="M567.39,48.71l16.52-5.91a4.44,4.44,0,0,0,2.69-5.68L583.35,28l-4.47,5.81-10.2-7.59-2.77,12.22-7.31-1.13L561.71,46A4.45,4.45,0,0,0,567.39,48.71Z"/><g class="cls-1"><path d="M484.06,17C328.38-26.11,184.31,55.32,129.13,183.92c-18.92,36.38-23.76,99.43-23.76,99.43s24.12-53.85,72.84-102.26c8-7.91,30.84-35.33,66.77-48.22,0,.12,0,.24.07.37a122.79,122.79,0,0,0,4.86,17.51,76.1,76.1,0,0,0,8.16,15.83,73.62,73.62,0,0,1-2.39-17,116.8,116.8,0,0,1,1.13-16.78c.69-4.58,1.6-9.1,2.69-13.56C264.94,106.45,276,84.81,292.33,73c24.25-17.46,36.13-18.43,42.2-13.09s7.27,23.76,5.82,40a161.31,161.31,0,0,1-2.64,17.72c-1.25,4.72-2.7,9.4-4.42,14a115.57,115.57,0,0,1-7.11,15.24,74.1,74.1,0,0,1-10.28,13.7,77,77,0,0,0,14.79-9.92,126,126,0,0,0,12.72-13c2.16-2.6,4.24-5.29,6.25-8,9.09.32,20.59,1.43,29.24,4.69,16.73,6.31,32.25,12.86,58.2,33.71,0,0-5.08-7-10.09-13.62-5.3-7-5.43-15.24-2.28-22.75s21.83-42,57-42.68c0,0,10.19,8.24,8,28.37s-8.48,33.95-15.27,43.41c-2.89,4-6.43,8.68-9.54,12.73a13.38,13.38,0,0,0,1.43,17.89c8.17,7.74,22.8,21.27,27,32.38,0,0-4.29,21.14-22.72,46.12s-37.83,33.46-37.83,33.46,41.29-4.69,67.41-38.31c25.5-32.82,55.25-66.44,52.87-153.26,0,0,19.07,23.61,18.43,88s-6.15,84.06-6.79,93.12,5.17,18.75,3.55,34.59c-1.16,11.4-2.49,27-3.15,34.82a10.31,10.31,0,0,0,3.21,8.35l12.73,12a20.51,20.51,0,0,1,4.8,23.07l-21.37,49.66a28.34,28.34,0,0,1-17.28,15.77c-22.12,7.2-71,20.94-121.85,20.94-68.87,0-101.85-18.11-125.77-34.92,0,0,19.4,26.83,77.92,44,22.07,6.46,49.66,9.62,75.47,11,24.95,1.38,30,36,6.42,44.38a177.31,177.31,0,0,1-51.18,10.23c-72.75,3.23-109.93-.65-181.38-40.1-27.05-14.93-49.09-35.23-66-54.7A294.23,294.23,0,0,0,400,594.63c188.57,0,335.76-177.14,284.24-374.1C658.48,122,582.16,44.15,484.06,17Z"/><path d="M498.92,429.29s20.44-28.66-5.44-35.08c-20.69-5.13-58.39,34-58.39,34S492.87,397.44,498.92,429.29Z"/><path d="M299.58,289.55s-3.77,23.86,7.53,33.91,33.92,6.28,40.2,1.26C347.31,324.72,317.24,320.64,299.58,289.55Z"/></g><path d="M513,315.37c5.7,24.2.12,31.2-11.39,40.57,20.65-30.6-17.08-45.55,20.65-81.86-19,2.85-34.66,12.43-46.65,25.1-.06.07-.12.13-.17.2-.78.95-1.49,1.95-2.25,2.93l-1.11,1.49-1,1.55c-.67,1-1.37,2.08-2,3.14l-1.83,3.27-.93,1.65-.8,1.7-1.61,3.44c-1,2.32-1.85,4.71-2.8,7.1.46-2.5.82-5,1.37-7.57l.93-3.75.47-1.88.6-1.85,1.21-3.72c.46-1.22,1-2.42,1.45-3.64l.74-1.83.85-1.78c.58-1.18,1.13-2.38,1.75-3.55.45-.85.94-1.68,1.43-2.51-6.86-38.77-25.05-75.71-42.52-89.23.2.37.38.73.57,1.09-.31-.25-.62-.52-.93-.76,20.34,37.56,11,65.19-2.06,86.2l-.16.13c16.37-29.26,4-65.71-23.2-94.63C393.34,184.52,380,174,363.68,165.1l.64.89-1-.57c42.84,57.64-17.31,63-19.26,127.59-2.15-20.06-14.08-28.17-5.2-61.44-13.63,21-23,40.11-28.72,57.45a77.76,77.76,0,0,1,3.68,10.77c.33,1.29.59,2.59.88,3.87l.41,1.93.29,2c.19,1.3.4,2.59.56,3.88l.31,3.89.15,1.94,0,1.94,0,3.87c0,2.57-.29,5.13-.43,7.67-.36-2.54-.62-5.06-1.06-7.55l-.77-3.72-.39-1.84-.51-1.82-1-3.61c-.39-1.18-.83-2.35-1.24-3.52l-.63-1.75-.74-1.7c-.5-1.13-1-2.27-1.5-3.38-.8-1.64-1.67-3.23-2.58-4.8a112.69,112.69,0,0,0-14.69-16.3c16,47-16,46.36-6.16,78.26l-.1.13c-10.2-10.84-9.72-30.39-6-43.75-27,42.27-18.27,92.67,27.75,91.32a38.92,38.92,0,0,0,6.14-.65,36.79,36.79,0,0,1-4.77-12.51c-1.07-6.6-.92-16.37-.87-18.46a70.64,70.64,0,0,1,1-12.07c.05-.28.1-.56.16-.85s.07-.4.11-.6c.14-.71.28-1.41.44-2.1v0a51.45,51.45,0,0,1,1.86-6.14c.1-.28.21-.56.31-.83a2.6,2.6,0,0,1,.1-.25l.39-1c.16-.37.34-.71.5-1.07l.47-1c.26-.54.53-1.07.8-1.59s.65-1.21,1-1.8l.36-.61c3.16-5.3,9.14-12,10.12-13,.65-.71,2.27-2.31,3-3a55.55,55.55,0,0,1,11.07-7.57l.81-.42,1.27-.64c10.84-5.4,24.18-8.37,38.67-8.37a126.43,126.43,0,0,1,33.06,4.65c24.94,6.8,44.86,13.93,61,26.63a75.13,75.13,0,0,1,11.81,11.35c7.48,8.78,8.68,15.45,9.16,18.12,1,5.41,1.12,18.12-.41,26.1C524.88,393.29,535.93,359.44,513,315.37Z"/></svg>