<svg id="Layer_1" data-name="Layer 1" xmlns="http://www.w3.org/2000/svg" viewBox="0 0 800 600"><defs><style>.cls-1{opacity:0.05;}</style></defs><g class="cls-1"><path d="M484.06,17C328.38-26.11,184.31,55.32,129.13,183.92c-18.92,36.38-23.76,99.43-23.76,99.43s24.12-53.85,72.84-102.26c8-7.91,30.84-35.33,66.77-48.22,0,.12,0,.24.07.37a122.79,122.79,0,0,0,4.86,17.51,76.1,76.1,0,0,0,8.16,15.83,73.62,73.62,0,0,1-2.39-17,116.8,116.8,0,0,1,1.13-16.78c.69-4.58,1.6-9.1,2.69-13.56C264.94,106.45,276,84.81,292.33,73c24.25-17.46,36.13-18.43,42.2-13.09s7.27,23.76,5.82,40a161.31,161.31,0,0,1-2.64,17.72c-1.25,4.72-2.7,9.4-4.42,14a115.57,115.57,0,0,1-7.11,15.24,74.1,74.1,0,0,1-10.28,13.7,77,77,0,0,0,14.79-9.92,126,126,0,0,0,12.72-13c2.16-2.6,4.24-5.29,6.25-8,9.09.32,20.59,1.43,29.24,4.69,16.73,6.31,32.25,12.86,58.2,33.71,0,0-5.08-7-10.09-13.62-5.3-7-5.43-15.24-2.28-22.75s21.83-42,57-42.68c0,0,10.19,8.24,8,28.37s-8.48,33.95-15.27,43.41c-2.89,4-6.43,8.68-9.54,12.73a13.38,13.38,0,0,0,1.43,17.89c8.17,7.74,22.8,21.27,27,32.38,0,0-4.29,21.14-22.72,46.12s-37.83,33.46-37.83,33.46,41.29-4.69,67.41-38.31c25.5-32.82,55.25-66.44,52.87-153.26,0,0,19.07,23.61,18.43,88s-6.15,84.06-6.79,93.12,5.17,18.75,3.55,34.59c-1.16,11.4-2.49,27-3.15,34.82a10.31,10.31,0,0,0,3.21,8.35l12.73,12a20.51,20.51,0,0,1,4.8,23.07l-21.37,49.66a28.34,28.34,0,0,1-17.28,15.77c-22.12,7.2-71,20.94-121.85,20.94-68.87,0-101.85-18.11-125.77-34.92,0,0,19.4,26.83,77.92,44,22.07,6.46,49.66,9.62,75.47,11,24.95,1.38,30,36,6.42,44.38a177.31,177.31,0,0,1-51.18,10.23c-72.75,3.23-109.93-.65-181.38-40.1-27.05-14.93-49.09-35.23-66-54.7A294.23,294.23,0,0,0,400,594.63c188.57,0,335.76-177.14,284.24-374.1C658.48,122,582.16,44.15,484.06,17Z"/><path d="M498.92,429.29s20.44-28.66-5.44-35.08c-20.69-5.13-58.39,34-58.39,34S492.87,397.44,498.92,429.29Z"/><path d="M299.58,289.55s-3.77,23.86,7.53,33.91,33.92,6.28,40.2,1.26C347.31,324.72,317.24,320.64,299.58,289.55Z"/></g><path d="M103.25,483.92v39.93h20.06v10H93.22v-49.9Z"/><path d="M129.62,483.92h10v49.9h-10Z"/><path d="M177.91,483.79v10H157.84v10.06h15v10h-15v20h-10v-50.1Z"/><path d="M214.31,483.79v10H194.24v10.06h15v10h-15v10.07h20.07v10h-30.1v-50.1Z"/><path d="M234.52,524c2.77,0,5.83-2.3,5.83-5.07,0-4.56-6.12-5.19-9.57-6.39-6.08-2.07-11.46-7.07-11.46-13.87a15.23,15.23,0,0,1,30.31-2.1l-10,2.1a5.07,5.07,0,0,0-10.13,0c0,4.5,5.69,5.7,9.16,6.73,6.3,1.81,11.85,6.61,11.85,13.56,0,8.41-7.55,15.21-16,15.21-7.72,0-14.7-5.66-15.84-13.09l10-2.12c0,2.78,3,5,5.85,5Z"/><path d="M289.61,483.92v9.93H277.35v40H267.29v-40H255v-9.93Z"/><path d="M305.4,483.92l9.1,17.3,9.1-17.3H335l-15.48,28.51v21.39h-10V512.43l-15.45-28.51Z"/><path d="M351.3,483.92v39.93h20.06v10H341.27v-49.9Z"/><path d="M407.76,483.79v10H387.7v10.06h15.05v10H387.7v10.07h20.06v10H377.67v-50.1Z"/><path d="M447.5,483.92v39.93h20.06v10H437.47v-49.9Z"/><path d="M513.12,491a25.17,25.17,0,1,1-17.89-7.47A24.39,24.39,0,0,1,513.12,491Zm-28.63,7.12a15.18,15.18,0,0,0,21.45,21.48,15.18,15.18,0,1,0-21.45-21.48Z"/><path d="M603.46,511.5V483.79h10.06v51.06l-30.1-28.67v27.71h-10v-51Z"/><path d="M645.15,483.61a25.49,25.49,0,0,1,17.93,7.4l-7.16,7.15a14.71,14.71,0,0,0-10.71-4.49,14.46,14.46,0,0,0-10.71,4.49,15.16,15.16,0,0,0,0,21.48,14.44,14.44,0,0,0,10.71,4.46,15.15,15.15,0,0,0,13.69-8.73H644.65V505.8h25.64c.71,9.33-2.35,16.1-7.28,21a24.51,24.51,0,0,1-17.89,7.4,25.33,25.33,0,0,1-25.3-25.3A24.53,24.53,0,0,1,627.26,491a24.14,24.14,0,0,1,17.86-7.47Z"/><path d="M706.78,483.79v10H686.72v10.06h15v10h-15v10.07h20.06v10H676.69v-50.1Z"/><path d="M564.15,485.54l1.22-1.59H523.3l1.23,1.59c.12.16,12.24,15.88,14,18.63,1.68,2.57,2.39,5.08,2.39,13.93a28.48,28.48,0,0,1-.62,6.6A5.49,5.49,0,0,1,538,528c-2,1.34-5.68,3.79-6.66,4.32l-3.43,1.86h32.8l-3.44-1.86c-1-.56-4.72-3-6.66-4.33a5.51,5.51,0,0,1-2.28-3.24,28,28,0,0,1-.63-6.64c0-8.85.7-11.36,2.38-13.93C551.9,501.42,564,485.7,564.15,485.54Zm-17.59,17.2a14.88,14.88,0,0,0-2.22,5.58,14.88,14.88,0,0,0-2.22-5.58c-1.11-1.7-11.15-15-11.15-15a37.77,37.77,0,0,0,5,.1c.52,0,.84,0,.84,0,3.64-.12,7.36-.27,11.11,1,2.76,1,5.19,2.07,7.28,2.42C555.2,491.23,547.37,501.5,546.56,502.74Z"/><path d="M85.15,382.81v13.36H58.35v13.44h20.1V423H58.35v26.76H45V382.81Z"/><path d="M106.7,383v53.36h26.8v13.32H93.3V383Z"/><path d="M244.43,451.14,214.36,383h14.19l15.84,36.52L260.27,383h14.35Z"/><path d="M331.86,392.4a33.64,33.64,0,1,1-23.9-10A32.65,32.65,0,0,1,331.86,392.4Zm-38.26,9.52a20.28,20.28,0,0,0,28.67,28.7,20.28,20.28,0,1,0-28.67-28.7Z"/><path d="M390.34,423.3V383h13.49v40.37a27,27,0,0,1-53.94,0V383h13.49V423.3a13.48,13.48,0,0,0,27,0Z"/><path d="M414.45,383h21.76a24.51,24.51,0,0,1,17.46,6.79c4.06,4.05,6.45,7.76,6.45,15.13v1.74a21.59,21.59,0,0,1-4.22,12.7,15.18,15.18,0,0,1-8,6.16l15.51,24.16H447.05L427.9,420.16v29.49H414.5Zm31.85,22.34a9,9,0,0,0-2.64-6.41c-1.74-1.69-5-2.65-8.28-2.65h-7.52v18.41H433v0h4.46C442.38,414.7,446.3,410.39,446.3,405.31Z"/><path d="M509.71,383v29.49L526.79,383h15.47l-19.73,33.88,22.91,32.8H529.15l-19.44-28v28H496.35V383Z"/><path d="M553.59,383H567v66.68h-13.4Z"/><path d="M617.78,419.83v-37h13.44V451L591,412.71v37H577.61V381.57Z"/><path d="M673.2,382.56a34.07,34.07,0,0,1,23.95,9.88L687.59,402a19.7,19.7,0,0,0-14.31-6A19.34,19.34,0,0,0,659,402a20.26,20.26,0,0,0,0,28.7,19.36,19.36,0,0,0,14.31,6A20.23,20.23,0,0,0,691.56,425h-19V412.22h34.24c1,12.46-3.13,21.5-9.72,28a32.72,32.72,0,0,1-23.9,9.88,33.82,33.82,0,0,1-33.8-33.79,32.83,32.83,0,0,1,9.93-24,32.32,32.32,0,0,1,23.87-10Z"/><path d="M733.63,436.52c3.7,0,7.79-3.07,7.79-6.77,0-6.09-8.17-6.94-12.78-8.54-8.13-2.77-15.31-9.44-15.31-18.52a20.35,20.35,0,0,1,40.49-2.81l-13.31,2.81a6.77,6.77,0,0,0-13.53,0c0,6,7.6,7.6,12.23,9,8.42,2.43,15.84,8.84,15.84,18.12,0,11.24-10.09,20.32-21.32,20.32-10.31,0-19.63-7.56-21.15-17.49l13.31-2.83c0,3.72,4,6.75,7.8,6.75Z"/><path d="M179.5,406.63a13.8,13.8,0,0,0,3.44.43c3.53,0,6.52-1.26,8.2-3.44s2-5.16,1.07-8.81c-.74-2.78-3.36-4.44-7-4.44a12.39,12.39,0,0,0-7.92,2.82,8.74,8.74,0,0,0-2.65,8.39A6.63,6.63,0,0,0,179.5,406.63Z"/><path d="M213.2,418.47c-2.54-12.78-10.17-28.82-19.19-34.8s-19.88-4.35-35.36,14.68c0,0-10.18,13.32-12.72,27.19s.84,22.56,12,22.56c19.42,0,22.8-8.58,30.05-9,10.18-.54,14.57,10.06,20.58,5.17C214.28,439.65,215.74,431.25,213.2,418.47ZM157.28,408.4a128.29,128.29,0,0,1,10.66-14.21c6.56-6.17,12.27-9.2,17.4-9.2a13.41,13.41,0,0,1,6.18,1.55c6.17,3.13,11.27,11.63,12.94,18s.79,10.53-2.81,12.77a3.21,3.21,0,0,1-1.76.54h0a9.38,9.38,0,0,1-3.75-1.28,17.15,17.15,0,0,0-7.85-2.2h-.57a14.59,14.59,0,0,0-5.57,1.66c-3.15,1.4-7.06,3.16-15.45,3.16-4.25,0-8.18-1.92-9.76-4.77A5.7,5.7,0,0,1,157.28,408.4Zm18.15,27.53c-1.51,2.43-2.93,4.73-4.3,5.66-2.11,1.43-6,2.28-10.52,2.28a30.55,30.55,0,0,1-6.61-.69c-5-1.13-5.86-8.05-5.05-13.63.78-5.38,1.16-7.6,2.81-8.53a1.64,1.64,0,0,1,.77-.16,7.53,7.53,0,0,1,2.75.72c.47.24,1,.56,1.64.93,2.51,1.46,5.94,3.47,9.81,3.47H167a33.44,33.44,0,0,0,16.38-5.13,6.8,6.8,0,0,1,3.7-1.3,3.2,3.2,0,0,1,3.21,2.12c.18,1,.3,1.69-5.92,4.4C180.49,427.78,177.8,432.11,175.43,435.93Zm34.72-7.2c-.11,4.67-1.93,9.08-4.32,10.49a2.79,2.79,0,0,1-1.45.37c-1.86,0-4.2-1.41-6.08-2.55-.33-.2-.65-.4-1-.58a14,14,0,0,0-7-2.38,8.5,8.5,0,0,0-3.58.81,9.07,9.07,0,0,1-3.53,1,1.12,1.12,0,0,1-.87-.27c-.09-.11-.34-.58,0-1.93,1-3.47,5.29-5.05,5.85-5.23,4.42-.74,5.86-2.67,6.9-4.08.82-1.11,1.27-1.72,2.89-1.72a11.18,11.18,0,0,1,2.21.28,4.45,4.45,0,0,0,1,.1c1.81,0,2.89-1.15,3.85-2.17s1.62-1.66,2.72-1.66h.33C208.89,419.34,210.29,423.1,210.15,428.73Z"/><path d="M552.6,377.7l15.07-5.39a4.06,4.06,0,0,0,2.45-5.18l-3-8.29-4.08,5.3-9.3-6.92-2.53,11.15-6.66-1,2.83,7.92A4.06,4.06,0,0,0,552.6,377.7Z"/><path d="M375.71,279.09c-13,0-25.82-1.55-34.33-4.13-16.54-5-19.64-19.13-20.09-21.9-.93-5.72-.75-14.86-.73-15.88,0-18.79,7.26-27.79,15.35-36.09,9.83-10.09,26.31-15.87,45.2-15.87a109.37,109.37,0,0,1,28.7,4.05c22.09,6,39.68,12.29,53.69,23.29,14.67,11.52,16.31,20.63,16.84,23.62.81,4.51,1,17.41-.79,23.95-1.22,4.43-8.52,11.93-28.07,11.93-2,0-4-.08-6.07-.23-2.58-.19-5.21-.28-7.81-.28-13,0-24.26,2.33-34.17,4.4-3,.63-5.81,1.21-8.51,1.7A111.46,111.46,0,0,1,375.71,279.09Zm-13-4.54c4.41.37,8.93.56,13.43.56a113.7,113.7,0,0,0,17.71-1.23c0-4.4,0-14.73,0-17,0-2.92-1.13-6.57-3.66-8.13-2.1-1.29-4.19-1.61-7.34-2.09-1.05-.16-2.19-.33-3.46-.56a25.58,25.58,0,0,1-12-6,23.56,23.56,0,0,1-3.07-3.39c-.77-1-2-2.57-2.52-2.6-1.29.92-2.64,2.37-2.64,8.07,0,1.74-.1,3.19-.19,4.48-.21,3-.34,4.8,1,6.84a15.59,15.59,0,0,1,2.92,9.29C362.83,265.18,362.75,271.29,362.71,274.55Zm-24.81-5.47a28.09,28.09,0,0,0,5,2.06,78.24,78.24,0,0,0,10.52,2.3c.15-5,.43-14.56.43-16.64a7.81,7.81,0,0,0-.52-2.59,16.35,16.35,0,0,1-.87-6.48c.06-1.43.3-3,.53-4.62.72-4.86,1-8.34-1.2-8.81a19.5,19.5,0,0,0-3.75-.55c-1.57,0-2.93.5-4.83,3-.52.68-1.07,1.34-1.62,2-2.55,3.11-5.19,6.32-5.37,11.59a84.82,84.82,0,0,0,1,12.48C337.48,265.08,337.75,267.22,337.9,269.08Zm75.26-37.21c-.14,0-.57.1-1.49,1s-1.88,2-2.62,2.8c-1.61,1.79-2.77,3.08-4.29,3.46a10.81,10.81,0,0,1-2.23.24,11.23,11.23,0,0,0-5.84,1.5c-1.37.88-2.05,1.54-2.13,2.08s.34,1.3,1.41,2.59a14,14,0,0,0,2.21,2c1.85,1.43,3.95,3.06,4.48,7.28.56,4.49.43,12.08.36,16.61l0,.63c5.06-1.05,10.28-2.13,16-3,.44-4.88,1.29-14.94,1.29-18.53,0-6.29-1.18-10.93-3.5-13.79a27,27,0,0,1-2-2.9C414.19,232.88,413.56,231.87,413.16,231.87Zm24.91,35.7c2.69,0,5.39.1,8,.3,2,.14,3.93.22,5.79.22h.74c.35-4.28,1.14-14.74.79-17.17a18,18,0,0,0-6.15-10.07,6.09,6.09,0,0,0-4.35-1.66,20.58,20.58,0,0,1-4.59-.72c-2.53-.69-5.08-1.67-7.14-2.46a21.83,21.83,0,0,0-4.43-1.45l-.77,0-.82,0c-.81,0-.95.16-.95.16s-.14.32.36,1.38c.32.7.66,1.29,1,1.86,1.3,2.24,2.52,4.36,2.34,11.75-.17,6.39.06,14.39.2,18.36C431.52,267.71,434.79,267.57,438.07,267.57ZM424.5,227.35c4.53,0,9,2,12.58,3.66l1.41.64a15.29,15.29,0,0,0,4.37,1.1c1.92.26,3.73.5,5.43,2.36.67.73,1.34,1.56,2.06,2.43,2.06,2.52,4.38,5.38,7.69,7.36a9.26,9.26,0,0,0,4.78,1.37c2.33,0,4.19-1,4.52-2.41.58-2.49-1.38-6.28-6.23-8.71a43.87,43.87,0,0,0-5.36-2.16,24.48,24.48,0,0,1-8.25-4.21c-3.92-3.27-11.52-4.42-11.6-4.43l-3.76.32c.17,0,5.83-4,11-3.23.75.11,1.42.06,1.95.2a4.77,4.77,0,0,0,1.15.13,2.87,2.87,0,0,0,2.06-.59h0a2.88,2.88,0,0,0-1.1-.88c-4.28-2.4-5.51-10.53-5.51-14.41l1.42,3.45c.79,1.75,3.47,5.37,6.15,6a1.86,1.86,0,0,0,.48.06c1.82,0,3.92-2.43,5.18-3.89l.41-.47,0,0,.3-.3c-12.59-8.13-27.65-13.21-46.3-18.29-1.31-.36-2.66-.7-4.09-1a22.12,22.12,0,0,1-1,9.89c-.51,1.35-1,2.51-1.5,3.54-1.22,2.69-1.59,3.68-.89,4.2s2.45.7,4.14.88c2.17.22,4.4.45,5.8,1.42a9,9,0,0,0,5.39,1.24h1.73c3,0,6.38,6.95,6.47,7.1l-2.56-2.18a9.86,9.86,0,0,0-4.72-1.23,8.85,8.85,0,0,0-2.62.4,5.17,5.17,0,0,0-3.58,3.74,2.79,2.79,0,0,0,.24,2.39c1.29,1.29,5.65,4.64,10.29,4.64a7.14,7.14,0,0,0,.8,0C423.64,227.37,424.07,227.35,424.5,227.35Zm45.4-4.64c-1.17.63-3.08,1.95-3.08,3.29,0,2.16.5,3.58,3.42,6.27,3.14,2.9,4.48,4.55,4.23,8.15a1.93,1.93,0,0,0,.31,1.49.51.51,0,0,0,.4.17c.52,0,1.44-.51,2.41-1.91a35.62,35.62,0,0,0-.4-3.67C476.65,233.48,475.3,228.79,469.9,222.71ZM324.64,237.12c1.23,1.82,3.05,3.67,4.69,3.67a2.26,2.26,0,0,0,1.11-.3c3.41-1.92,7.47-7.94,8.12-11.2a16.73,16.73,0,0,0-.66-7.17L336.78,219c1.09,1.43,7.21,7.46,9.88,7.46a2.3,2.3,0,0,0,.83-.14c3.36-1.18,3.57-5.61,3.79-10.3a34.68,34.68,0,0,1,4.54-15c1.58-2.52,3-7,3.69-9.35-8.49,2.56-15.57,6.59-20.56,11.7-7.83,8-14.31,16.1-14.31,33.61Zm57.39,1a20.41,20.41,0,0,0,5.79,1c2.13,0,3.68-.56,4.63-1.67,1.82-2.12,4.28-3,6.67-3.82,1-.33,1.87-.65,2.72-1,3.5-1.62,5.31-2.93,4.82-5.23-.27-1.26-.55-2.25-.79-3.12a22,22,0,0,1-.85-4.17c-.18-2-2.49-3.89-6.86-5.73a3.66,3.66,0,0,0-1.41-.32c-1.16,0-2.17.75-3.44,1.7a21,21,0,0,1-6.47,3.08l-2.26.42c.05,0,5.86-5.25,8.5-10.09,1.1-2,1.69-3.3,2.11-4.23a9.27,9.27,0,0,1,2.22-3.39c1.71-1.71,3.83-7,2.09-11.27a99.79,99.79,0,0,0-17.92-1.69c-2.28,0-4.55.09-6.76.27a35.63,35.63,0,0,0-12.05,10.27c-5.34,7.47-6.3,21.26.2,26.7,5,4.19,10.73,8.66,15.69,8.66a7.2,7.2,0,0,0,4.71-1.71l2.41-2-1,2.95A11,11,0,0,1,382,238.09ZM461.61,215c-3.61,2.76-7.51,6.33-7.77,7.86a1.45,1.45,0,0,0,.27,1.24,2.85,2.85,0,0,0,2.19.74,7,7,0,0,0,2.36-.44,14.9,14.9,0,0,0,3.82-2.41,17.71,17.71,0,0,1,4.19-2.65c-1.51-1.43-3.18-2.86-5-4.28Z"/><path d="M510.94,248.84c-.46.66-.95,1.27-1.45,1.89-.37.46-.76.9-1.15,1.34s-.59.66-.89,1-.63.65-1,1-.76.72-1.16,1.07-.68.61-1,.9c-.56.46-1.14.9-1.73,1.33l-.85.59c-.51.35-1,.69-1.57,1l-.76.46a40.37,40.37,0,0,1-8.49,3.66l-7.65,7.66-3.58,3.58-23.83,23.83-19.52-19.52c-2.33.05-4.62.15-6.84.33l21.32,21.32-46.25,0,20.9-20.9c-2.87.32-5.65.73-8.34,1.18l-17.63,17.62-12.26-12.26c-2.14.19-4.39.34-6.73.44l13.92,13.92-40.48,0,13.87-13.87c-2.29-.07-4.57-.19-6.8-.36l-12.16,12.16-27.34-27.33a25.08,25.08,0,0,1-6.63.53l3.92,3.92L295.9,298.09,279.81,282l13.94-13.93a35.13,35.13,0,0,1-14.33-10.5,14.47,14.47,0,0,1-.91-1.49l-13.16,13.37-19.25,19.2-15.13,15,1.2,3,10.5,25.92H557.78l10.51-25.92.74-2.47ZM261.71,300.11l14.52-14.52,14.54,14.54Zm39.32,0,21.34-21.33,21.36,21.36Zm159.83.1,22.38-22.39,22.41,22.41Zm26-26,12-12,23.83,23.84-12,12Zm28.84,26,10.55-10.56,10.58,10.57Z"/><path d="M503,182.68c5.19,22.07.11,28.44-10.38,37,18.82-27.9-15.57-41.53,18.82-74.62-17.28,2.59-31.6,11.32-42.52,22.87l-.17.19c-.7.87-1.35,1.78-2,2.67l-1,1.36-.92,1.41c-.62.95-1.26,1.89-1.86,2.86l-1.67,3-.84,1.51-.73,1.55-1.47,3.13c-.92,2.11-1.69,4.3-2.55,6.47.42-2.28.75-4.6,1.25-6.89l.85-3.42.43-1.72.54-1.69,1.1-3.38c.42-1.11.88-2.21,1.32-3.32l.68-1.67.77-1.62c.53-1.08,1-2.18,1.6-3.24.41-.77.86-1.53,1.3-2.29-6.25-35.34-22.83-69-38.75-81.34.18.33.34.67.52,1-.29-.24-.57-.48-.86-.7C445,116,436.49,141.2,424.55,160.35l-.15.12c14.92-26.68,3.63-59.9-21.15-86.26-9.32-10.81-21.48-20.4-36.36-28.51l.59.81c-.31-.17-.62-.35-.93-.51,39.06,52.54-15.78,57.46-17.56,116.3-1.95-18.29-12.82-25.68-4.74-56-12.42,19.09-20.94,36.56-26.17,52.36a72.43,72.43,0,0,1,3.35,9.82c.31,1.17.54,2.36.8,3.53l.38,1.76.26,1.78c.17,1.18.37,2.35.52,3.53l.28,3.55.13,1.77,0,1.77,0,3.52c-.05,2.35-.27,4.68-.4,7-.33-2.32-.56-4.62-1-6.89l-.7-3.39-.36-1.68-.46-1.65-.93-3.29c-.36-1.09-.76-2.15-1.14-3.22l-.57-1.59-.67-1.55c-.46-1-.88-2.07-1.37-3.08-.73-1.5-1.52-2.95-2.36-4.37a101.9,101.9,0,0,0-13.38-14.86c14.59,42.8-14.6,42.26-5.62,71.34l-.09.11c-9.3-9.88-8.86-27.7-5.49-39.87-24.62,38.53-16.66,84.47,25.29,83.24a37,37,0,0,0,5.59-.59,33.53,33.53,0,0,1-4.34-11.41c-1-6-.84-14.92-.8-16.82a65.84,65.84,0,0,1,.9-11c0-.26.09-.51.14-.77s.07-.37.1-.55c.13-.65.26-1.29.41-1.91v0a47.22,47.22,0,0,1,1.69-5.6l.28-.75.09-.23.36-.94c.15-.33.31-.64.46-1s.28-.63.43-.93c.24-.49.48-1,.73-1.45s.59-1.11.89-1.64l.33-.56A90.39,90.39,0,0,1,331.14,198c.59-.65,2.07-2.11,2.73-2.71a50.61,50.61,0,0,1,10.1-6.89c.24-.14.49-.26.73-.39l1.16-.58c9.89-4.93,22-7.63,35.25-7.63A115.2,115.2,0,0,1,411.25,184c22.73,6.2,40.9,12.7,55.63,24.27a68.41,68.41,0,0,1,10.77,10.35c6.81,8,7.91,14.08,8.35,16.52.89,4.93,1,16.51-.38,23.79C513.83,253.71,523.91,222.85,503,182.68Z"/></svg>