<svg xmlns="http://www.w3.org/2000/svg" viewBox="0 0 730 530"><defs><style>.cls-1{isolation:isolate;}.cls-2{fill:none;}.cls-3{opacity:0.05;}.cls-4{font-size:91px;font-family:SofiaProBold, Sofia Pro;}.cls-5{letter-spacing:0.04em;}.cls-6{letter-spacing:0.01em;}.cls-7{letter-spacing:-0.02em;}.cls-8{font-size:82px;font-family:Billgates;}.cls-9{letter-spacing:-0.03em;}.cls-10{fill:#a91b25;}.cls-11{mix-blend-mode:screen;}</style></defs><g class="cls-1"><g id="Layer_1" data-name="Layer 1"><path d="M310.44,177.17c8.43-8.65,22.47-13.61,38.52-13.61a91.86,91.86,0,0,1,24.12,3.4c18,4.91,32.43,10,44.07,18.9,5.4-37.48-13.71-86.13-31.76-100.09,15,27.71,11,54.26-4,64.08,10.39-38.68-5.2-71.58-43.29-92.37,31.75,42.72-15,45.61-13.92,96-.23-17.43-10.91-22.11-4-48.08-26,40-30.53,70.92-21.79,92.27C300.48,188.18,305.41,182.33,310.44,177.17Z"/><path d="M310.44,177.17a39.51,39.51,0,0,1,11-7.78c-5.67-8.66-9.48-18.83-8.79-29.36-5.32,15.26-7.63,29.64-6.79,42.25C307.32,180.45,308.87,178.78,310.44,177.17Z"/><path d="M372.37,166.78l.71.18c14.53,4,26.73,8.07,37,14.16.57-18-4-37.78-9.7-53.79C402.75,159.18,383.48,153.51,372.37,166.78Z"/><path d="M331.22,165.78A69.28,69.28,0,0,1,349,163.56a90.48,90.48,0,0,1,21.63,2.76c7.3-26.52,6.24-65.65-15.22-83.44C367.34,111.89,331.6,132.16,331.22,165.78Z"/><path d="M288.36,137.26a77.06,77.06,0,0,1,7.43,7.7c4.12-12.19,10.81-26.05,21-41.75a46.46,46.46,0,0,1,12.07-12.85c-2,5.18-4.85,16.07-4.85,16.07-3.08,11.54-2.46,18.44-.9,24.42,3.16-10.4,8.29-18.29,12.74-25.14,9.28-14.28,15.42-23.72-1-45.84a89.46,89.46,0,0,0-7.05-7.37A36.26,36.26,0,0,1,339.74,56c19.75,10.77,34,22.61,41.77,39.23a75.12,75.12,0,0,1,6.65,39.46c4.51-11.6,3.59-28.81-6.29-47,0,0-3.1-6.51-7.21-10.62,0,0,9.59,5.19,13.41,8.52,12.94,10,26.17,35,31.57,62.09a62,62,0,0,1,29.59-15.32c.07-20.77.4-47.18-5.71-62.4-8.06-20.08-56.94-23.18-76.67-23.18h-2.38c-19.73,0-68.61,3.1-76.67,23.18-6.09,15.17-5.78,41.46-5.71,62.2Z"/><path d="M242.92,245.77l16-11.89L243.68,249c.21.88.41,1.74.62,2.59l26-26.75a27.7,27.7,0,0,1-3.07-4.48c-7.69-14-4.64-35,8-54.72.58-1,1.11-2,1.61-2.86-9.59.29-29.66,4.15-39.12,20.81-4.44,7.8-2.73,23.13.5,37.65C239.44,229.64,241.15,238.05,242.92,245.77Z"/><path d="M263.12,258.92c14.79,2,44,4.07,101.35,4.07h2.38c57.33,0,86.57-2.11,101.35-4.07Z"/><polygon class="cls-2" points="493.49 258.92 236.51 258.92 335.99 158.16 390.25 153.98 493.49 258.92"/><path d="M452.47,218a28.71,28.71,0,0,1-10.67,8.93l39.8,39.8,10.88-7.76Z"/><path d="M270,224.5l-33.45,34.42,10.87,7.76,33.9-33.89A27.77,27.77,0,0,1,270,224.5Z"/><g class="cls-3"><path d="M435.16,28.78c-129.94-36-250.19,32-296.25,139.34-15.79,30.36-19.83,83-19.83,83s20.13-44.94,60.8-85.35c6.65-6.6,25.74-29.49,55.73-40.25,0,.1,0,.21,0,.31a104.25,104.25,0,0,0,4.06,14.62,63.89,63.89,0,0,0,6.81,13.21,61.81,61.81,0,0,1-2-14.16,95.73,95.73,0,0,1,1-14c.57-3.82,1.33-7.6,2.24-11.32,4.54-10.71,13.74-28.77,27.4-38.61C295.37,61,305.29,60.17,310.35,64.62s6.07,19.84,4.86,33.4a134.27,134.27,0,0,1-2.2,14.79c-1,3.94-2.26,7.85-3.69,11.7a97,97,0,0,1-5.94,12.72,61,61,0,0,1-8.58,11.43,64.06,64.06,0,0,0,12.35-8.27,104.62,104.62,0,0,0,10.61-10.85c1.81-2.17,3.55-4.41,5.22-6.7,7.59.27,17.19,1.2,24.41,3.92,14,5.26,26.92,10.73,48.58,28.13,0,0-4.25-5.83-8.43-11.37-4.42-5.85-4.53-12.71-1.89-19s18.21-35,47.56-35.62c0,0,8.5,6.88,6.68,23.68s-7.08,28.34-12.75,36.23c-2.41,3.35-5.36,7.25-8,10.63a11.17,11.17,0,0,0,1.2,14.93c6.82,6.46,19,17.75,22.49,27,0,0-3.58,17.64-19,38.49s-31.58,27.93-31.58,27.93,34.47-3.92,56.27-32c21.29-27.39,46.11-55.45,44.13-127.92,0,0,15.92,19.71,15.38,73.41s-5.13,70.17-5.67,77.72,4.32,15.66,3,28.88c-1,9.51-2.08,22.51-2.63,29.06a8.6,8.6,0,0,0,2.68,7l10.63,10a17.14,17.14,0,0,1,4,19.26l-17.84,41.44a23.67,23.67,0,0,1-14.42,13.17c-18.46,6-59.27,17.47-101.7,17.47-57.49,0-85-15.11-105-29.14,0,0,16.19,22.4,65,36.7,18.42,5.39,41.45,8,63,9.21,20.83,1.14,25,30.08,5.36,37a147.56,147.56,0,0,1-42.72,8.53c-60.72,2.7-91.75-.54-151.39-33.46-22.58-12.46-41-29.41-55.12-45.66A245.56,245.56,0,0,0,365,510.92c157.39,0,280.25-147.86,237.25-312.25A239.12,239.12,0,0,0,435.16,28.78Z"/><path d="M447.56,372.91S464.63,349,443,343.63C425.75,339.35,394.29,372,394.29,372S442.52,346.33,447.56,372.91Z"/><path d="M281.18,256.28s-3.14,19.91,6.29,28.3,28.31,5.24,33.55,1.05C321,285.63,295.92,282.23,281.18,256.28Z"/></g><text class="cls-4" transform="translate(19.39 411.8)">F<tspan class="cls-5" x="48.96" y="0">L</tspan><tspan class="cls-6" x="99.01" y="0">A</tspan><tspan class="cls-7" x="159.43" y="0">V</tspan><tspan x="210.94" y="0">OUR KINGS</tspan><tspan class="cls-8"><tspan x="100.07" y="74">Lif</tspan><tspan class="cls-9" x="198.79" y="74">e</tspan><tspan x="225.36" y="74">style Lounge</tspan></tspan></text><path d="M506.26,341.75,519.62,337a3.59,3.59,0,0,0,2.17-4.59L519.16,325l-3.61,4.7-8.25-6.13-2.23,9.87-5.91-.91,2.51,7A3.59,3.59,0,0,0,506.26,341.75Z"/><path d="M380.91,235.1c.33-3.76,1.11-12.79,1.11-15.93,0-4-.57-8.79-3-11.84s-2.68-5.92-5.35-3.25-3.82,4.58-5.35,5-4.2-.19-6.87,1.53-2.67,2.68-.76,5,4.77,2.67,5.34,7.25c.53,4.2.31,11.88.26,15.05C370.74,236.91,375.61,235.87,380.91,235.1Z"/><path d="M333.23,176.29c-4.46,6.24-5.63,18.07.29,23s12.63,9.94,17.78,5.74c0,0-1.11,3.41-3.4,4,0,0,7.92,3.38,11-.19,1.94-2.27,5-2.67,7.49-3.82s5-2.48,4.39-5.15-1.15-3.82-1.34-5.92-2.48-3.82-6.11-5.35-4.77,2.87-9.74,3.63a23.41,23.41,0,0,0,5.92-6.87c2.29-4.21,1.91-4.59,3.44-6.12s3.62-6.48,1.72-10.48a79.7,79.7,0,0,0-21.08-1.25A30.4,30.4,0,0,0,333.23,176.29Z"/><path d="M360.19,224.4c0-2.37-.89-5.81-3.37-7.34s-5-1.52-9.17-2.29A20.4,20.4,0,0,1,338.1,210c-2.29-1.91-4.2-5.92-5.53-5s-2.49,2.49-2.49,7.26-.95,7.07.77,9.74a12,12,0,0,1,2.29,7.26c0,2.12-.08,8-.12,10.35,9.73.88,20.21.65,27.2-.6C360.21,235.91,360.19,226.38,360.19,224.4Z"/><path d="M307.55,211.53c3.05-1.72,6.49-6.88,7.06-9.74a14.38,14.38,0,0,0-.57-6.3s4.2,5.53,7.45,4.39,3.44-5.16,3.63-9.17a27.74,27.74,0,0,1,3.63-12c1.83-2.94,3.37-8.76,3.49-9.2-8.09,2.22-14.4,5.93-18.58,10.21-6.16,6.32-12,13.25-12,28.24,0,0,0,.14,0,.39C302.35,209.4,304.94,213,307.55,211.53Z"/><path d="M409.33,219.36a15.52,15.52,0,0,0-5.35-8.79c-2.86-2.29-3.43-.95-7.63-2.1s-8.41-3.24-9.74-3.24-3.82-.58-2.49,2.29S387,211,386.8,218.4c-.15,5.72.08,12.93.19,16a93.58,93.58,0,0,1,15.51-.17q3.3.24,6.13.16C408.9,231.12,409.65,221.57,409.33,219.36Z"/><path d="M327.22,224.32c0-2.29-1.34-3-1.15-7.45s2.48-11.07-1.14-11.84-5.35-.95-7.83,2.3-5.73,6.11-5.92,11.64c-.17,4.94,1.14,11.58,1.43,15.94a23.49,23.49,0,0,0,4.61,2,68,68,0,0,0,9.61,2C326.93,235.87,327.22,226.25,327.22,224.32Z"/><path class="cls-10" d="M303.58,210.62a19.23,19.23,0,0,1-1.48-4.69c-.15-.86-.25-1.84-.34-2.86-.15,1.54-.24,3.17-.24,4.92v.14A12.14,12.14,0,0,0,303.58,210.62Z"/><path class="cls-10" d="M429.23,210.87c-.07-1.15-.17-2.17-.29-3a24.74,24.74,0,0,1-.67,3.6,4.2,4.2,0,0,1-.32.82A6,6,0,0,0,429.23,210.87Z"/><path d="M415.25,205.8c-4.2-2.1-7.64-2.29-11.07-5.16s-9.93-3.82-9.93-3.82,5-1.33,7.25-.76,5.35-.76,2.29-2.48-4.39-5.73-4.39-9c0,0,2.48,5.54,5.54,6.3,2.55.64,5.11-3.21,6.23-4.29h0s.17-.18.38-.36c-10.49-7-23.2-11.34-39.16-15.69-1.52-.42-3-.78-4.48-1.11a18.59,18.59,0,0,1-.59,8.86c-1.53,4-3.25,6.11-1.72,7.26s6.3.57,8.21,1.91,4.2,1.14,6.3,1.14,3.63,2.68,3.63,2.68a8.66,8.66,0,0,0-6.68-.77c-3.63,1.15-4.2,5.16-3.06,6.3s5.35,4.4,9.74,4,8.79,1.91,12.22,3.44,5.73.38,7.83,2.67,4.4,5.92,8.21,8.22,8.22,1.14,8.79-1.34S419.45,207.9,415.25,205.8Z"/><path d="M421,193.85a58.6,58.6,0,0,0-5.12-4.5l-.52-.39-.17.11c-.92.7-6.63,5.07-7,7.18-.39,2.29,2.29,3.06,5,2.1s5-4.14,7.82-4.49Z"/><path d="M428.92,207.45c-.44-2.43-1.56-6.67-6.58-12.17h0s-3.45,1.53-3.45,3.63.57,3.44,3.05,5.73,3.44,3.44,3.25,6.11,2.13,3.1,4.09.06A30.65,30.65,0,0,0,428.92,207.45Z"/><path d="M298,235.33l3.1,3.1L283,256.48l-21.88-21.87-2.83,2.82,21.88,21.88-1.22,1.22,2.83,2.83,22.11-22.11,18.06,18.06-.59.59,2.83,2.82,15.55-15.55c-1.81-.06-3.6-.15-5.37-.28l-9.6,9.6-21.57-21.58A20,20,0,0,1,298,235.33Z"/><path d="M378.65,242.57l-13.91,13.92-9.68-9.69c-1.69.16-3.46.27-5.31.35l12.16,12.16-.81.81,2.83,2.83,21.3-21.3C383,241.9,380.78,242.22,378.65,242.57Z"/><path d="M471.3,237.69l-18.8,18.8-18.81-18.82,19.55-19.55-.52-.51A29.36,29.36,0,0,1,436.9,228.8l-6,6L428,237.67l-18.81,18.82-15.41-15.41c-1.84,0-3.64.12-5.4.26l18,18-.84.85,2.83,2.82,22.48-22.48,18.81,18.81-.86.87,2.82,2.82,22.49-22.48Z"/><polygon points="492.54 258.21 250.19 258.07 258.87 233.88 243.68 249.03 231.74 260.9 232.68 263.3 240.97 283.76 489.7 283.76 497.99 263.3 498.26 260.86 492.54 258.21"/><path d="M479.16,283.57a34.14,34.14,0,0,0,.19-4.81c0-.26,0-.52,0-.77l.22.66s1.53-4.85,3.65-12.53l6.37,17.45h.16L499,261.26l-11.55-11.44-16-15.94,16.78,12.51c1.82-7.89,3.58-16.53,4.9-25.12,3.23-14.52,4.94-29.85.51-37.65-9.87-17.36-31.24-20.83-40.28-20.83-3,0-3.85-7-4.09-17.33-5.88,7.88-5.93,13.92-4.89,20.14l2.74-7.84c10.57,20.32,14.5,45.29,6.69,58.15a30.41,30.41,0,0,1-2.3,3.27L490,258.92H479.36l-2.9,9.95,1.59,4.94c-3.56-5.05-13.63-6.69-24.25-3.56-6.82,2-12.38,5.56-15.55,9.48-4.25.84-12.27,2.7-12.27,2.7l1.19,1.14Z"/><path d="M477.68,287.48H431.21c3.29,3.21,7.19,7.09,8.78,9,1.19,1.47,1.57,4.72,1.68,7.13a5.47,5.47,0,0,0,0,2.95c1.5,4.88,10.06,6.74,19.14,4.16,7.17-2,12.49-6.25,13.68-10.34h.06s-.13-3.56,2.46-10.79C477.3,288.81,477.51,288.13,477.68,287.48Z"/><path d="M252.24,277a8.23,8.23,0,0,0,0,1.72,34.34,34.34,0,0,0,.21,4.81h52.11c.73-.71,1.19-1.14,1.19-1.14s-8.22-1.9-12.43-2.73c-3.18-3.9-8.73-7.44-15.53-9.45C266.6,267,256,268.94,253,274.61l1.84-5.74-2.9-9.95h-5.82c3,11.72,5.59,19.73,5.59,19.73Z"/><path d="M253.88,287.48c.17.65.38,1.33.64,2.06,2.59,7.23,2.46,10.79,2.46,10.79H257c1.19,4.09,6.51,8.3,13.68,10.34,9.08,2.58,17.64.72,19.14-4.16a5.47,5.47,0,0,0,0-2.95,17.56,17.56,0,0,1,1.24-6.42c.18-.24.38-.48.58-.71,1.58-1.87,5.49-5.75,8.77-9Z"/><path class="cls-11" d="M406.56,179.13a143.89,143.89,0,0,0-3.27-30.44c-1.33,14.33-7.41,19.51-14,23.16A121.28,121.28,0,0,1,406.56,179.13Z"/><path class="cls-11" d="M342.17,163.87c2.21-.2,4.48-.31,6.79-.31a86.34,86.34,0,0,1,14.89,1.33c1.71-15.62,12.93-27.45,1.91-50.26C368.64,129.44,347,142.08,342.17,163.87Z"/><path class="cls-11" d="M310.44,177.17a35.9,35.9,0,0,1,5.38-4.51,34.71,34.71,0,0,1-2.59-12.42,83,83,0,0,0-2.84,17Z"/><path d="M297.92,221.52a91.78,91.78,0,0,1-.63-13.42c0-16.09,6.5-24.1,13.15-30.93l.11-.11c-5.95-14.23-15-28-24.86-36.82,16.92,36.24-9.11,37.59-1.72,60.92-7.49-7.9-10.37-15.21-5.43-33.34-19.46,30.46-14.7,64.53,18.47,63.56a28.39,28.39,0,0,0,4.71-.52A24.59,24.59,0,0,1,297.92,221.52Z"/><path d="M297.92,221.52a91.78,91.78,0,0,1-.63-13.42c0-13.49,4.57-21.3,10-27.49a168.85,168.85,0,0,0-11-22.39c2.18,29-10.61,22.18-8.08,49.85-8.6-1.54-9.69-8.06-14.83-14.93-5.77,27.59,9.81,37.55,23,36.27a28.46,28.46,0,0,0,4.1-.69A24.52,24.52,0,0,1,297.92,221.52Z"/><path d="M297.92,221.52a91.78,91.78,0,0,1-.63-13.42,41.52,41.52,0,0,1,3.66-18c-1.56-4.51-2.2-9-.45-13.42-9.74,16.75-11.11,28.92-7.17,38.31-6.51,1.08-12.94-4.57-17.45-12.84-1.25,17.72,13.07,30.56,24,25.59A23.83,23.83,0,0,1,297.92,221.52Z"/><path d="M446,165.55c4.11,17.45.08,22.49-8.21,29.25,14.88-22.06-12.31-32.84,14.88-59-24.2,3.63-41.08,22.47-48.67,42a78.2,78.2,0,0,1,14,8.66c12.61,9.91,14,17.92,14.52,20.55a66.56,66.56,0,0,1-.29,18.81C454.5,221.71,462.46,197.31,446,165.55Z"/><path d="M418,186.47c7,5.48,10.53,10.38,12.4,14.11,11-25.45-10.64-29.52,8.91-57.6-13.18,7-24.83,21.82-31.12,37A74.25,74.25,0,0,1,418,186.47Z"/><path d="M431.21,202.43a22,22,0,0,1,1.28,4.59,67.32,67.32,0,0,1,0,17c8.95-3.74,15.54-14.86,16.41-33.15C442.18,196.3,439.24,202.3,431.21,202.43Z"/><path class="cls-11" d="M418,186.47a53.37,53.37,0,0,1,8.69,8.41c.51-5.33,0-13.11-1.4-28.32-1.21,6.78-4.72,13.16-8.3,19.15C417.29,186,417.64,186.21,418,186.47Z"/><path class="cls-11" d="M432.8,209.49a75.09,75.09,0,0,1,.14,9.4A24.56,24.56,0,0,0,446,201,19,19,0,0,1,432.8,209.49Z"/><path d="M427.08,228l.28-.39a2.27,2.27,0,0,0,.22-.32,4.91,4.91,0,0,0,.25-.44l.13-.25a4.81,4.81,0,0,0,.24-.66c.09-.3.16-.62.24-.95l.06-.3c.06-.25.11-.51.16-.77s0-.21,0-.32c.07-.36.13-.73.18-1.12a.15.15,0,0,0,0-.07c.05-.36.1-.74.15-1.12,0-.13,0-.26,0-.39,0-.29.07-.59.1-.9l0-.39c0-.41.08-.83.11-1.25,0-.06,0-.13,0-.19,0-.37.05-.73.07-1.1l0-.47c0-.25,0-1,0-1.29-2.47,2-9.13,5.78-15.2,4.37a.37.37,0,0,0-.47.34l-1.09,14.22c.48-.06.95-.13,1.4-.21.24,0,.47-.07.7-.12.45-.08.88-.17,1.3-.26l.65-.15c.41-.1.8-.2,1.18-.31l.6-.17,1.07-.35.56-.2.95-.38.52-.22c.29-.13.57-.26.84-.4l.47-.24c.25-.14.5-.27.73-.41s.3-.19.44-.28.43-.27.62-.41l.4-.3.52-.4.36-.33.41-.39a3.49,3.49,0,0,0,.32-.35Z"/></g></g></svg>