<svg id="Layer_1" data-name="Layer 1" xmlns="http://www.w3.org/2000/svg" viewBox="0 0 730 530"><defs><style>.cls-1{opacity:0.05;}</style></defs><path d="M166.22,54c-1.26-4.73-9-4.29-12.66-1.07s-3.22,9.87,1.71,11.16S168.79,63.65,166.22,54Z"/><path d="M65.2,42.31V55H39.67v12.8H58.82V80.56H39.67V106H26.91V42.31Z"/><path d="M85.71,42.47V93.28h25.52V106H73V42.47Z"/><path d="M216.86,107.38,188.23,42.47h13.51l15.08,34.78L232,42.47h13.66Z"/><path d="M300.12,51.45a31.09,31.09,0,0,1,9.49,22.81,32.21,32.21,0,0,1-32.26,32.14,32.14,32.14,0,0,1-32.21-32.14,31.27,31.27,0,0,1,9.45-22.81,32,32,0,0,1,45.53,0Zm-36.43,9.06a19.28,19.28,0,0,0,0,27.33,19.36,19.36,0,0,0,33-13.66,19.43,19.43,0,0,0-19.34-19.34A18.44,18.44,0,0,0,263.69,60.51Z"/><path d="M355.81,80.87V42.47h12.84V80.91a25.68,25.68,0,1,1-51.36,0V42.47h12.84v38.4a12.84,12.84,0,0,0,25.68,0Z"/><path d="M378.76,42.47h20.72a23.3,23.3,0,0,1,16.62,6.46c3.87,3.87,6.15,7.39,6.15,14.42V65a20.53,20.53,0,0,1-4,12.09,14.49,14.49,0,0,1-7.6,5.87l14.77,23H409.8L391.56,77.88V106H378.8Zm30.33,21.27a8.55,8.55,0,0,0-2.52-6.1c-1.66-1.61-4.8-2.53-7.88-2.53h-7.16V72.64h4.92v0h4.25C405.35,72.68,409.09,68.58,409.09,63.74Z"/><path d="M469.47,42.47V70.55l16.26-28.08h14.73L481.68,74.73,503.5,106H488L469.47,79.34V106H456.74V42.47Z"/><path d="M511.25,42.47H524V106H511.25Z"/><path d="M572.37,77.56V42.31h12.8v65L546.89,70.79V106H534.13V41.13Z"/><path d="M625.15,42.08A32.44,32.44,0,0,1,648,51.49l-9.1,9.1a18.76,18.76,0,0,0-13.63-5.71,18.4,18.4,0,0,0-13.62,5.71,19.3,19.3,0,0,0,0,27.33,18.41,18.41,0,0,0,13.62,5.67,19.25,19.25,0,0,0,17.41-11.1H624.52V70.32h32.61c.91,11.86-3,20.48-9.26,26.7a31.15,31.15,0,0,1-22.76,9.41A30.78,30.78,0,0,1,602.38,97a30.87,30.87,0,0,1-9.45-22.76,31.27,31.27,0,0,1,9.45-22.81A30.76,30.76,0,0,1,625.11,42Z"/><path d="M682.69,93.46c3.53,0,7.42-2.92,7.42-6.45,0-5.79-7.78-6.6-12.17-8.12-7.74-2.64-14.58-9-14.58-17.64a19.37,19.37,0,0,1,38.55-2.68l-12.67,2.68a6.44,6.44,0,1,0-12.88,0c0,5.71,7.24,7.24,11.65,8.55,8,2.31,15.08,8.41,15.08,17.25,0,10.71-9.61,19.35-20.3,19.35-9.82,0-18.7-7.2-20.14-16.65l12.67-2.7c0,3.54,3.85,6.43,7.43,6.43Z"/><path d="M187.13,76.27c-2.43-12.16-9.69-27.44-18.27-33.13-7.45-4.94-16.22-4.42-28,7.62-.36.34-.72.7-1.08,1.07l-1.07,1.08A87.63,87.63,0,0,0,132,60.34S122.26,73,119.84,86.23s.8,21.49,11.45,21.49c18.49,0,21.71-8.18,28.62-8.55,9.68-.51,13.86,9.58,19.59,4.92A13.58,13.58,0,0,0,181,102.6a13.76,13.76,0,0,0,1.08-1.08,13.5,13.5,0,0,0,1.07-1.07C188.22,96,189.47,88.07,187.13,76.27ZM133.06,66.18a123.1,123.1,0,0,1,10.25-13.66C153.65,42.79,160.9,42,166.91,45S178,56.27,179.72,62.81s.72,10.83-3.09,13.2c-4,2.5-6.94-2.92-13.73-2.64-4.84.2-7.09,4.59-20.05,4.59C135.38,78,129.29,72.25,133.06,66.18ZM147.6,99.07c-3.59,2.43-11.41,2.94-17.06,1.66s-6.3-8.81-5.54-14,1.13-7.67,3.15-8.81c1.47-.83,4.24.51,4.24.51,2.28,1.15,6.3,4.22,10.75,4.09a30.87,30.87,0,0,0,15.1-4.73c4.67-3.06,7.71-.38,8,1.41s-.33,2.68-6.19,5.23S151.18,96.65,147.6,99.07Zm37.58-13c-.12,4.6-1.91,9.2-4.59,10.78s-6.37-1-9.06-2.63-5.81-3-9.17-1.45-6.59,1.85-5.48-2.23,6.27-5.66,6.27-5.66c8.16-1.31,4.36-6.83,11.85-5.26,3.45.73,3.8-3.94,7.38-3.55C184.28,76.28,185.29,81.47,185.18,86.07Z"/><path d="M165.71,54.36c-1.2-4.47-8.52-4.06-12-1a6.26,6.26,0,0,0-1,1.12c3.63-2.61,10.25-2.76,11.38,1.47.82,3.08.44,5.3-.6,6.85C165.63,61.35,166.86,58.7,165.71,54.36Z"/><path d="M27.77,431v45.38h22.8v11.33H16.37V431Z"/><path d="M57.73,431h11.4v56.71H57.73Z"/><path d="M112.61,430.9v11.36H89.81v11.43h17.1v11.37H89.81v22.76H78.41V430.9Z"/><path d="M154,430.9v11.36H131.18v11.43h17.09v11.37H131.18v11.43H154v11.33H119.78V430.9Z"/><path d="M177,476.59c3.15,0,6.62-2.62,6.62-5.77,0-5.17-6.95-5.9-10.87-7.26-6.92-2.35-13-8-13-15.75a17.3,17.3,0,0,1,34.43-2.39l-11.31,2.39a5.76,5.76,0,0,0-11.51,0c0,5.11,6.47,6.47,10.41,7.64,7.15,2.06,13.46,7.52,13.46,15.41,0,9.57-8.58,17.29-18.13,17.29-8.77,0-16.7-6.43-18-14.88l11.32-2.41c0,3.17,3.44,5.75,6.64,5.75Z"/><path d="M239.56,431v11.29H225.62v45.42H214.19V442.33h-14V431Z"/><path d="M257.49,431l10.34,19.66L278.18,431h12.91l-17.59,32.4v24.31H262.17V463.44L244.61,431Z"/><path d="M309.66,431v45.38h22.8v11.33h-34.2V431Z"/><path d="M373.82,430.9v11.36H351v11.43h17.1v11.37H351v11.43h22.8v11.33h-34.2V430.9Z"/><path d="M419,431v45.38h22.8v11.33h-34.2V431Z"/><path d="M493.56,439.06a28.63,28.63,0,1,1-20.34-8.48A27.77,27.77,0,0,1,493.56,439.06ZM461,447.15a17.25,17.25,0,0,0,24.38,24.42A17.25,17.25,0,1,0,461,447.15Z"/><path d="M596.21,462.38V430.9h11.44v58l-34.2-32.58v31.49h-11.4v-58Z"/><path d="M643.59,430.68A29,29,0,0,1,664,439.09l-8.12,8.13a16.79,16.79,0,0,0-12.18-5.1,16.46,16.46,0,0,0-12.17,5.1,17.24,17.24,0,0,0,0,24.42,16.43,16.43,0,0,0,12.17,5.06,17.2,17.2,0,0,0,15.55-9.92H643V455.91h29.13c.81,10.6-2.67,18.3-8.27,23.86a27.86,27.86,0,0,1-20.33,8.4,28.76,28.76,0,0,1-28.75-28.74,27.89,27.89,0,0,1,8.45-20.37,27.48,27.48,0,0,1,20.3-8.48Z"/><path d="M713.63,430.9v11.36h-22.8v11.43h17.1v11.37h-17.1v11.43h22.8v11.33h-34.2V430.9Z"/><path d="M551.54,432.88l1.39-1.81H505.12l1.39,1.81c.14.18,13.92,18,16,21.17,1.91,2.92,2.7,5.77,2.7,15.83a33,33,0,0,1-.69,7.51,6.27,6.27,0,0,1-2.62,3.73c-2.26,1.52-6.45,4.31-7.56,4.91l-3.91,2.11h37.28L543.76,486c-1.19-.64-5.37-3.44-7.57-4.92a6.29,6.29,0,0,1-2.6-3.68,32.28,32.28,0,0,1-.71-7.55c0-10.06.8-12.91,2.71-15.83C537.62,450.92,551.4,433.06,551.54,432.88Zm-20,19.54a16.92,16.92,0,0,0-2.52,6.35,16.8,16.8,0,0,0-2.52-6.34c-1.26-1.94-12.67-17.08-12.67-17.08a44.49,44.49,0,0,0,5.67.12l1,0c4.13-.13,8.37-.31,12.62,1.16,3.15,1.09,5.91,2.35,8.28,2.75C541.37,439.35,532.47,451,531.55,452.42Z"/><g class="cls-1"><path d="M435.16,28.78c-129.94-36-250.19,32-296.25,139.34-15.79,30.36-19.83,83-19.83,83s20.13-44.94,60.8-85.35c6.65-6.6,25.74-29.49,55.73-40.25,0,.1,0,.21,0,.31a104.25,104.25,0,0,0,4.06,14.62,63.89,63.89,0,0,0,6.81,13.21,61.81,61.81,0,0,1-2-14.16,95.73,95.73,0,0,1,1-14c.57-3.82,1.33-7.6,2.24-11.32,4.54-10.71,13.74-28.77,27.4-38.61C295.37,61,305.29,60.17,310.35,64.62s6.07,19.84,4.86,33.4a134.27,134.27,0,0,1-2.2,14.79c-1,3.94-2.26,7.85-3.69,11.7a97,97,0,0,1-5.94,12.72,61,61,0,0,1-8.58,11.43,64.06,64.06,0,0,0,12.35-8.27,104.62,104.62,0,0,0,10.61-10.85c1.81-2.17,3.55-4.41,5.22-6.7,7.59.27,17.19,1.2,24.41,3.92,14,5.26,26.92,10.73,48.58,28.13,0,0-4.25-5.83-8.43-11.37-4.42-5.85-4.53-12.71-1.89-19s18.21-35,47.56-35.62c0,0,8.5,6.88,6.68,23.68s-7.08,28.34-12.75,36.23c-2.41,3.35-5.36,7.25-8,10.63a11.17,11.17,0,0,0,1.2,14.93c6.82,6.46,19,17.75,22.49,27,0,0-3.58,17.64-19,38.49s-31.58,27.93-31.58,27.93,34.47-3.92,56.27-32c21.29-27.39,46.11-55.45,44.13-127.92,0,0,15.92,19.71,15.38,73.41s-5.13,70.17-5.67,77.72,4.32,15.66,3,28.88c-1,9.51-2.08,22.51-2.63,29.06a8.6,8.6,0,0,0,2.68,7l10.63,10a17.14,17.14,0,0,1,4,19.26l-17.84,41.44a23.67,23.67,0,0,1-14.42,13.17c-18.46,6-59.27,17.47-101.7,17.47-57.49,0-85-15.11-105-29.14,0,0,16.19,22.4,65,36.7,18.42,5.39,41.45,8,63,9.21,20.83,1.14,25,30.08,5.36,37a147.56,147.56,0,0,1-42.72,8.53c-60.72,2.7-91.75-.54-151.39-33.46-22.58-12.46-41-29.41-55.12-45.66A245.56,245.56,0,0,0,365,510.92c157.39,0,280.25-147.86,237.25-312.25A239.12,239.12,0,0,0,435.16,28.78Z"/><path d="M447.56,372.91S464.63,349,443,343.63C425.75,339.35,394.29,372,394.29,372S442.52,346.33,447.56,372.91Z"/><path d="M281.18,256.28s-3.14,19.91,6.29,28.3,28.31,5.24,33.55,1.05C321,285.63,295.92,282.23,281.18,256.28Z"/></g><path d="M370.28,155.7l0,0Z"/><path d="M527.14,376.06,480,328.62a36.35,36.35,0,0,1-6.42,7.47l22.34,22.33L478.7,375.58c0-.05-.07-.09-.11-.14l-23.11-23.11,11.85-11.84a41,41,0,0,1-10.83,4.23l-30.8,30.85-19.33-19.34c-2.15,0-4.26.15-6.29.31l19.23,19.22H378.79l19-19q-3.9.39-7.57,1l-17.9,17.86L359.87,363.1c-2,.18-4.05.31-6.21.4l12.27,12.26H325.42l12.42-12.4c-2.09-.13-4.14-.28-6.15-.47L319,375.57l-23.88-23.88h-.06c-1.23.13-2.36.21-3.46.25h-1.85c-.64,0-1.26,0-1.89-.06l-21.71,21.71-16.28-16.28,13.47-13.47a34,34,0,0,1-6.86-7.1l-39.58,40v.4a3.35,3.35,0,0,0-.72,2.09v5.33a3.42,3.42,0,0,0,3.43,3.43H525.75a3.42,3.42,0,0,0,3.43-3.43h0V379.2A3.43,3.43,0,0,0,527.14,376.06Zm-13.91-.3H485.16l14-14Zm-61-20.12,20.12,20.12H432.1Zm-160.6-.9,21,21h-42Zm-29.92,21H231.46l15.11-15.11Z"/><path d="M391,349.88c.41-4.49,1.34-15.34,1.34-19.11,0-4.81-.69-10.54-3.66-14.2s-3.21-7.1-6.42-3.89-4.57,5.5-6.4,6-5-.24-8.25,1.79-3.21,3.21-.9,5.95,5.72,3.21,6.42,8.7c.63,5,.36,14.24.31,18.05C378.79,352.05,384.64,350.81,391,349.88Z"/><path d="M333.82,279.36c-5.39,7.48-6.75,21.67.34,27.61s15.18,11.92,21.33,6.89c0,0-1.33,4.08-4.08,4.78,0,0,9.51,4.05,13.17-.24,2.33-2.69,6-3.2,9-4.57s5.95-3,5.26-6.19-1.37-4.57-1.6-7.1-3-4.58-7.33-6.4-5.72,3.43-11.68,4.34a28.21,28.21,0,0,0,7.1-8.24c2.75-5,2.29-5.5,4.12-7.32s4.35-7.78,2.07-12.58a95.27,95.27,0,0,0-25.28-1.49A36.16,36.16,0,0,0,333.82,279.36Z"/><path d="M366.15,337.05c0-2.85-1.06-7-4-8.8s-5.94-1.8-11-2.74a24.59,24.59,0,0,1-11.46-5.72c-2.74-2.3-5-7.1-6.64-6s-3,3-3,8.69-1.15,8.48.9,11.68a14.63,14.63,0,0,1,2.75,8.71c0,2.55-.1,9.62-.14,12.41,11.68,1.06,24.26.79,32.61-.72C366.18,350.84,366.15,339.42,366.15,337.05Z"/><path d="M303,321.58c3.67-2.06,7.79-8.24,8.48-11.68a17.44,17.44,0,0,0-.69-7.55s5,6.64,8.93,5.26,4.13-6.18,4.35-11a33.23,33.23,0,0,1,4.36-14.42c2.2-3.52,4-10.51,4.18-11-9.69,2.7-17.26,7.11-22.27,12.25C303,291,296,299.29,296,317.27v.47C296.79,319.06,299.93,323.38,303,321.58Z"/><path d="M425.08,331a18.65,18.65,0,0,0-6.42-10.53c-3.43-2.75-4.12-1.15-9.13-2.48s-10.08-3.89-11.68-3.89-4.58-.68-3,2.75,3.44,4.12,3.2,13c-.17,6.86.1,15.51.24,19.15a113.14,113.14,0,0,1,18.59-.21c2.64.2,5.09.25,7.35.2C424.56,345.1,425.46,333.65,425.08,331Z"/><path d="M326.62,337c0-2.75-1.61-3.66-1.38-8.93s3-13.27-1.37-14.19-6.42-1.15-9.39,2.74-6.87,7.33-7.1,14c-.2,5.92,1.37,13.88,1.72,19.11a28.24,28.24,0,0,0,5.52,2.34,81,81,0,0,0,11.53,2.46C326.27,350.81,326.62,339.26,326.62,337Z"/><path d="M432.18,314.75c-5-2.53-9.17-2.75-13.28-6.19S407,304,407,304s5.95-1.61,8.7-.9,6.41-.89,2.75-3-5.27-6.86-5.27-10.78c0,0,3,6.64,6.64,7.56,3.05.76,6.13-3.86,7.48-5.15h0s.21-.21.46-.43c-12.58-8.37-27.85-13.6-47-18.82-1.8-.5-3.59-.9-5.39-1.32.06.37,1.05,6-.72,10.61-1.8,4.81-3.89,7.34-2.06,8.71s7.56.68,9.88,2.29,5,1.38,7.56,1.38,4.35,3.19,4.35,3.19a10.39,10.39,0,0,0-8-.89c-4.34,1.37-5,6.19-3.66,7.56s6.41,5.26,11.68,4.81,10.54,2.29,14.66,4.12,6.86.46,9.39,3.2,5.26,7.1,9.88,9.88,9.88,1.37,10.53-1.6S437.22,317.26,432.18,314.75Z"/><path d="M439,300.42A68.23,68.23,0,0,0,432.9,295l-.62-.47-.19.12c-1.12.85-8,6.1-8.39,8.62-.45,2.75,2.75,3.67,6,2.52s5.94-5,9.38-5.39Z"/><path d="M448.56,316.72c-.52-2.92-1.87-8-7.88-14.59h0s-4.14,1.84-4.14,4.36.69,4.12,3.67,6.87,4.12,4.12,3.89,7.32,2.56,3.71,4.9.07A36.24,36.24,0,0,0,448.56,316.72Z"/><path d="M469.72,266.54c4.91,20.86.1,26.89-9.81,35,17.79-26.37-14.72-39.26,17.79-70.55-17.65,2.64-32,12.06-42.63,24.26-4.78-35.94-21.63-71.64-37.73-84.12,18,33.14,13.11,64.89-4.84,76.63,12.44-46.25-6.21-85.6-51.77-110.45,38,51.08-18,54.53-16.64,114.79-.28-20.84-13-26.43-4.76-57.5-13.89,21.37-22.66,40.58-27.17,57.58A99.25,99.25,0,0,0,278,236.24c20.23,43.33-10.9,44.91-2.06,72.84-9-9.45-12.39-18.19-6.49-39.86-23.28,36.42-17.57,77.17,22.09,76a24.88,24.88,0,0,0,2.92-.22,34.12,34.12,0,0,1-2.23-4,58.41,58.41,0,0,1-2.43-6.5s-11.41-1.1-17.68-15.88c4.49,5,9.73,7.82,15,6.95,0,0-.16-6.74.45-14.05S290.45,301,290.45,301a21.56,21.56,0,0,1,.3-14.71A34.27,34.27,0,0,0,292,264.62c2,2.6,4.58,6.72,4.88,14.33a109.66,109.66,0,0,1-.11,11,65,65,0,0,1,8.51-10.62c-.72-3.9-3.77-23.66,3.19-44.27,0,0,.61,9.46,3.66,15.1A62.94,62.94,0,0,1,318,269.75,67.62,67.62,0,0,1,338.56,263l.53-.08c4-50.37,32.1-40.79,31-73.27,12.71,25.61,7.78,52-2.22,73.33,2,.31,4,.66,4,.66A106,106,0,0,1,382.27,266c7.72,2.09,15.1,4.19,22.12,6.61,6.89-4.35,12.86-10.92,14.28-26.26a175.52,175.52,0,0,1,3.9,33.89,90.2,90.2,0,0,1,11,6.65c5.62-6.11,10.2-12.49,11.38-19.17,1.5,15.73,2.11,24.82,1.85,31.1,4.56,5.39,7.36,11,8.37,16.57a32,32,0,0,1,.37,3.38,22.93,22.93,0,0,0,14.15-9.88c-1.36,7.35-6.82,13.18-14,17.33a75,75,0,0,1-1.15,12.15C480.21,332.75,489.12,303.9,469.72,266.54Z"/><path d="M446.14,341.43c.11-.16.2-.3.31-.44l.25-.35c.1-.17.18-.34.27-.51s.11-.18.15-.27a6.61,6.61,0,0,0,.28-.74c.09-.33.18-.69.26-1.06a1.28,1.28,0,0,1,.07-.34c.06-.28.11-.57.17-.9a2.14,2.14,0,0,1,.06-.35c.07-.41.15-.83.21-1.26v-.08l.16-1.26.05-.43c0-.33.08-.67.1-1a1.32,1.32,0,0,1,0-.44c0-.46.08-.89.11-1.4v-.21c0-.42.06-.83.08-1.23v-.52a6.85,6.85,0,0,1,0-.9c-2.69,2.92-9.28,4.7-15.7,3.59-1-.17-1.84.85-1.93,1.86L430,348.35l1.57-.23.78-.13c.5-.09,1-.19,1.45-.3l.73-.16,1.33-.35.66-.2c.42-.13.82-.25,1.21-.39l.62-.22,1.07-.42.57-.26a6.3,6.3,0,0,0,.9-.44c.25-.15.36-.18.53-.27l.83-.46.48-.31c.24-.15.48-.3.69-.46s.31-.22.45-.34l.59-.45.39-.36c.16-.15.33-.29.47-.44s.24-.26.36-.39S446,341.56,446.14,341.43Z"/></svg>