<svg id="Layer_1" data-name="Layer 1" xmlns="http://www.w3.org/2000/svg" viewBox="0 0 800 530"><defs><style>.cls-1{opacity:0.05;}</style></defs><path d="M177.58,30.26c-1.41-5.29-10.09-4.8-14.17-1.2s-3.6,11,1.92,12.48S180.46,41.06,177.58,30.26Z"/><path d="M64.54,17.19V31.43H36V45.75H57.4V60H36V88.5H21.7V17.19Z"/><path d="M87.5,17.37V74.22h28.55V88.41H73.22v-71Z"/><path d="M234.24,90l-32-72.63h15.12L234.2,56.28l16.92-38.91h15.29Z"/><path d="M327.4,27.42A34.78,34.78,0,0,1,338,52.93,34.59,34.59,0,0,1,327.4,78.41a36.17,36.17,0,0,1-50.94,0,34.74,34.74,0,0,1-10.58-25.48,35,35,0,0,1,10.58-25.51,35.85,35.85,0,0,1,50.94,0ZM286.64,37.55a21.05,21.05,0,0,0-6.35,15.3,21.64,21.64,0,0,0,43.28,0,20.87,20.87,0,0,0-6.39-15.3,21.56,21.56,0,0,0-30.54,0Z"/><path d="M389.71,60.34v-43h14.37v43a28.74,28.74,0,0,1-57.47,0v-43H361v43a14.37,14.37,0,0,0,28.73,0Z"/><path d="M415.4,17.37h23.18a26.1,26.1,0,0,1,18.6,7.23c4.32,4.32,6.87,8.27,6.87,16.13v1.85a23,23,0,0,1-4.49,13.53,16.15,16.15,0,0,1-8.51,6.56l16.53,25.74H450.13L429.72,57V88.41H415.44Zm33.94,23.8a9.58,9.58,0,0,0-2.83-6.83c-1.85-1.8-5.37-2.82-8.81-2.82h-8V51.13h5.51v0H440C445.15,51.17,449.34,46.58,449.34,41.17Z"/><path d="M516.89,17.37V48.79l18.2-31.42h16.48l-21,36.09L555,88.41H537.6L516.89,58.62V88.41H502.66v-71Z"/><path d="M563.64,17.37h14.28v71H563.64Z"/><path d="M632,56.64V17.19h14.32V89.87L603.52,49.06V88.5H589.24V15.87Z"/><path d="M691.09,16.93A36.27,36.27,0,0,1,716.6,27.46L706.42,37.64a21,21,0,0,0-15.25-6.39,20.61,20.61,0,0,0-15.24,6.39,20.81,20.81,0,0,0-6.35,15.29,20.82,20.82,0,0,0,6.35,15.3,20.59,20.59,0,0,0,15.24,6.34,21.55,21.55,0,0,0,19.48-12.43H690.38V48.53h36.49c1,13.27-3.34,22.91-10.36,29.88A34.89,34.89,0,0,1,691,88.94a34.48,34.48,0,0,1-25.43-10.53A34.56,34.56,0,0,1,655,52.93a35,35,0,0,1,10.57-25.51A34.43,34.43,0,0,1,691,16.8Z"/><path d="M755.48,74.43c3.94,0,8.29-3.28,8.29-7.22,0-6.49-8.7-7.39-13.61-9.1-8.67-3-16.32-10.06-16.32-19.73a21.68,21.68,0,0,1,43.14-3l-14.18,3a7.21,7.21,0,0,0-14.41,0c0,6.4,8.1,8.1,13,9.57,9,2.58,16.88,9.41,16.88,19.3,0,12-10.76,21.66-22.72,21.66-11,0-20.92-8.06-22.53-18.64l14.17-3c0,4,4.31,7.2,8.32,7.2Z"/><path d="M201,55.19c-2.71-13.61-10.84-30.7-20.44-37.07-8.33-5.53-18.14-5-31.36,8.52l-1.2,1.2c-.4.39-.81.8-1.21,1.21a98.31,98.31,0,0,0-7.53,8.32s-10.83,14.19-13.54,29,.89,24,12.8,24c20.69,0,24.3-9.14,32-9.56,10.84-.57,15.52,10.72,21.93,5.51a15.16,15.16,0,0,0,1.72-1.68,15.23,15.23,0,0,0,1.21-1.2q.63-.57,1.2-1.2C202.2,77.2,203.6,68.39,201,55.19ZM140.48,43.9a136.55,136.55,0,0,1,11.46-15.29c11.57-10.88,19.68-11.81,26.42-8.39s12.42,12.59,14.32,19.9.81,12.12-3.45,14.78c-4.49,2.8-7.77-3.27-15.36-3-5.42.22-7.94,5.13-22.45,5.13C143.07,57.07,136.26,50.69,140.48,43.9Zm16.26,36.8c-4,2.72-12.76,3.29-19.08,1.86s-7-9.86-6.2-15.72S132.73,58.26,135,57c1.64-.93,4.74.57,4.74.57,2.56,1.29,7.05,4.72,12,4.57a34.45,34.45,0,0,0,16.89-5.29c5.23-3.43,8.63-.42,9,1.58s-.37,3-6.93,5.86S160.75,78,156.74,80.7Zm42-14.55c-.13,5.15-2.13,10.3-5.13,12.07s-7.13-1.18-10.14-3-6.5-3.38-10.26-1.62-7.38,2.06-6.13-2.5,7-6.32,7-6.32c9.13-1.48,4.88-7.65,13.26-5.89,3.87.81,4.26-4.41,8.26-4C197.79,55.2,198.91,61,198.79,66.15Z"/><path d="M177,30.67c-1.33-5-9.53-4.54-13.39-1.13a7.31,7.31,0,0,0-1.11,1.25c4.06-2.91,11.47-3.08,12.73,1.65.92,3.45.49,5.93-.67,7.67C176.92,38.49,178.3,35.53,177,30.67Z"/><path d="M22.86,450.44V501.2H48.35v12.67H10.11V450.44Z"/><path d="M56.37,450.44H69.12v63.43H56.37Z"/><path d="M117.74,450.28V463H92.24v12.79h19.13v12.71H92.24V514H79.49V450.28Z"/><path d="M164,450.28V463H138.5v12.79h19.13v12.71H138.5v12.79H164V514H125.76V450.28Z"/><path d="M189.69,501.38c3.52,0,7.41-2.92,7.41-6.45,0-5.79-7.77-6.59-12.16-8.11-7.73-2.64-14.56-9-14.56-17.63a19.35,19.35,0,0,1,38.51-2.67l-12.66,2.67a6.44,6.44,0,0,0-12.87,0c0,5.72,7.24,7.24,11.64,8.55,8,2.3,15.07,8.4,15.07,17.23,0,10.7-9.6,19.34-20.28,19.34-9.81,0-18.68-7.2-20.12-16.64l12.65-2.7c0,3.54,3.85,6.43,7.43,6.43Z"/><path d="M259.71,450.44v12.63H244.13v50.8H231.34v-50.8H215.72V450.44Z"/><path d="M279.77,450.44l11.56,22,11.57-22h14.44l-19.67,36.24v27.19H285V486.68l-19.63-36.24Z"/><path d="M338.11,450.44V501.2H363.6v12.67H325.36V450.44Z"/><path d="M409.87,450.28V463h-25.5v12.79h19.12v12.71H384.37v12.79h25.5V514H371.62V450.28Z"/><path d="M460.37,450.44V501.2h25.5v12.67H447.62V450.44Z"/><path d="M543.77,459.41A32,32,0,1,1,521,449.93,31.07,31.07,0,0,1,543.77,459.41Zm-36.4,9a19.3,19.3,0,0,0,0,27.31,19.33,19.33,0,1,0,0-27.31Z"/><path d="M658.57,485.5V450.28h12.79v64.88l-38.24-36.43V514H620.37V449.1Z"/><path d="M711.56,450.05a32.39,32.39,0,0,1,22.78,9.4l-9.08,9.09a18.75,18.75,0,0,0-13.62-5.71A18.39,18.39,0,0,0,698,468.54a19.28,19.28,0,0,0,0,27.31,18.4,18.4,0,0,0,13.61,5.66A19.24,19.24,0,0,0,729,490.42h-18.1V478.26h32.58c.91,11.85-3,20.46-9.24,26.67a31.18,31.18,0,0,1-22.75,9.41,32.18,32.18,0,0,1-32.14-32.15,31.19,31.19,0,0,1,9.44-22.78,30.72,30.72,0,0,1,22.7-9.48Z"/><path d="M789.89,450.28V463h-25.5v12.79h19.13v12.71H764.39v12.79h25.5V514H751.65V450.28Z"/><path d="M608.62,452.5l1.55-2H556.7l1.56,2c.16.2,15.56,20.18,17.84,23.67,2.14,3.28,3,6.46,3,17.71a36.42,36.42,0,0,1-.78,8.4,7,7,0,0,1-2.93,4.17c-2.53,1.7-7.21,4.82-8.46,5.5l-4.36,2.35h41.68L599.91,512c-1.33-.72-6-3.85-8.46-5.51a7,7,0,0,1-2.9-4.11,35.36,35.36,0,0,1-.8-8.45c0-11.25.89-14.43,3-17.71C593.05,472.68,608.46,452.7,608.62,452.5Zm-22.35,21.86a18.75,18.75,0,0,0-2.83,7.09,18.74,18.74,0,0,0-2.82-7.09c-1.41-2.16-14.17-19.1-14.17-19.1a49.6,49.6,0,0,0,6.35.13c.67,0,1.07,0,1.07,0,4.62-.15,9.36-.34,14.12,1.3,3.52,1.22,6.6,2.63,9.26,3.08C597.25,459.74,587.29,472.78,586.27,474.36Z"/><path d="M565.62,373.87,515,323a39.16,39.16,0,0,1-6.88,8l23.95,24-18.39,18.39-.13-.15-24.77-24.77,12.71-12.71a43.94,43.94,0,0,1-11.63,4.54l-33.08,33.08-20.73-20.73c-2.31.05-4.57.15-6.77.32l20.62,20.62H406.49l20.4-20.39c-2.78.27-5.49.62-8.12,1l-19.15,19.15L386.25,360q-3.18.28-6.66.43l13.15,13.15H349.3l13.32-13.31q-3.36-.18-6.59-.5l-13.6,13.6-25.61-25.61h-.06c-1.32.15-2.54.23-3.72.27l-2,0c-.68,0-1.35,0-2-.06l-23.28,23.28L268.29,353.8l14.47-14.47a36.4,36.4,0,0,1-7.36-7.61l-42.46,42.84,0,.44a3.64,3.64,0,0,0-.78,2.23V383a3.68,3.68,0,0,0,3.68,3.68H564.14a3.68,3.68,0,0,0,3.68-3.68v-5.73A3.68,3.68,0,0,0,565.62,373.87Zm-14.91-.32h-30.1l15-15.05ZM485.28,352l21.58,21.58H463.7Zm-172.23-.92,22.5,22.5h-45ZM281,373.55H248.54l16.21-16.21Z"/><path d="M504,256.42c5.27,22.37.11,28.83-10.52,37.5,19.08-28.29-15.79-42.11,19.08-75.66-18.92,2.83-34.35,12.93-45.72,26.05-5.12-38.55-23.19-76.82-40.5-90.21,19.25,35.53,14.07,69.59-5.18,82.17,13.33-49.6-6.67-91.79-55.52-118.44,40.71,54.78-19.25,58.48-17.85,123.1-.3-22.34-14-28.35-5.1-61.66-14.9,22.91-24.3,43.51-29.14,61.74a106.86,106.86,0,0,0-15.06-17c21.69,46.47-11.69,48.21-2.21,78.12-9.61-10.14-13.3-19.51-7-42.76-25,39.07-18.85,82.76,23.68,81.51,1.09,0,2.13-.12,3.14-.23a33.72,33.72,0,0,1-2.39-4.31,59.82,59.82,0,0,1-2.61-7s-12.24-1.19-19-17c4.83,5.36,10.45,8.4,16.11,7.46,0,0-.17-7.22.49-15.07s3-11.28,3-11.28a23.13,23.13,0,0,1,.33-15.78c2.71-6.69,3.59-15.69,1.31-23.22,2.12,2.78,4.9,7.2,5.23,15.37a117.35,117.35,0,0,1-.12,11.82,70,70,0,0,1,9.13-11.43c-.77-4.19-4.05-25.37,3.41-47.48,0,0,.66,10.14,3.93,16.19a67.44,67.44,0,0,1,6.31,21,72.21,72.21,0,0,1,22.05-7.24l.58-.09c4.23-54,34.41-43.73,33.19-78.57,13.62,27.47,8.33,55.75-2.39,78.64,2.2.33,4.27.71,4.27.71,3.7.68,7.44,1.52,11.23,2.55,8.27,2.25,16.2,4.5,23.72,7.09,7.38-4.66,13.8-11.71,15.32-28.16a188.36,188.36,0,0,1,4.18,36.34,96,96,0,0,1,11.79,7.14c6-6.55,10.93-13.41,12.21-20.56,1.61,16.87,2.26,26.61,2,33.35,4.88,5.8,7.89,11.74,9,17.77a33.15,33.15,0,0,1,.41,3.62A24.59,24.59,0,0,0,504,301.81c-1.46,7.89-7.32,14.14-15,18.59a81.46,81.46,0,0,1-1.23,13C515.3,327.42,524.85,296.48,504,256.42Z"/><g class="cls-1"><path d="M470.16,28.78c-129.94-36-250.19,32-296.25,139.34-15.79,30.36-19.83,83-19.83,83s20.13-44.94,60.8-85.35c6.65-6.6,25.74-29.49,55.73-40.25,0,.1,0,.21.05.31a104.25,104.25,0,0,0,4.06,14.62,63.89,63.89,0,0,0,6.81,13.21,61.81,61.81,0,0,1-2-14.16,95.73,95.73,0,0,1,.95-14c.57-3.82,1.33-7.6,2.24-11.32,4.54-10.71,13.74-28.77,27.4-38.61C330.37,61,340.29,60.17,345.35,64.62s6.07,19.84,4.86,33.4a134.27,134.27,0,0,1-2.2,14.79c-1,3.94-2.26,7.85-3.69,11.7a97,97,0,0,1-5.94,12.72,61,61,0,0,1-8.58,11.43,64.06,64.06,0,0,0,12.35-8.27,104.62,104.62,0,0,0,10.61-10.85c1.81-2.17,3.55-4.41,5.22-6.7,7.59.27,17.19,1.2,24.41,3.92,14,5.26,26.92,10.73,48.58,28.13,0,0-4.25-5.83-8.43-11.37-4.42-5.85-4.53-12.71-1.89-19s18.21-35,47.56-35.62c0,0,8.5,6.88,6.68,23.68s-7.08,28.34-12.75,36.23c-2.41,3.35-5.36,7.25-8,10.63a11.17,11.17,0,0,0,1.2,14.93c6.82,6.46,19,17.75,22.49,27,0,0-3.58,17.64-19,38.49s-31.58,27.93-31.58,27.93,34.47-3.92,56.27-32c21.29-27.39,46.11-55.45,44.13-127.92,0,0,15.92,19.71,15.38,73.41s-5.13,70.17-5.67,77.72,4.32,15.66,3,28.88c-1,9.51-2.08,22.51-2.63,29.06a8.6,8.6,0,0,0,2.68,7l10.63,10a17.14,17.14,0,0,1,4,19.26l-17.84,41.44a23.67,23.67,0,0,1-14.42,13.17c-18.46,6-59.27,17.47-101.7,17.47-57.49,0-85-15.11-105-29.14,0,0,16.19,22.4,65,36.7,18.42,5.39,41.45,8,63,9.21,20.83,1.14,25,30.08,5.36,37a147.56,147.56,0,0,1-42.72,8.53c-60.72,2.7-91.75-.54-151.39-33.46-22.58-12.46-41-29.41-55.12-45.66A245.56,245.56,0,0,0,400,510.92c157.39,0,280.25-147.86,237.25-312.25A239.12,239.12,0,0,0,470.16,28.78Z"/><path d="M482.56,372.91S499.63,349,478,343.63C460.75,339.35,429.29,372,429.29,372S477.52,346.33,482.56,372.91Z"/><path d="M316.18,256.28s-3.14,19.91,6.29,28.3,28.31,5.24,33.55,1.05C356,285.63,330.92,282.23,316.18,256.28Z"/></g><path d="M481.7,317.2c0-.19,0-.38,0-.56,0-.44,0-.87,0-1.28a37.08,37.08,0,0,0-.44-5c-.54-3-2.2-8.56-8.34-15.48h0c-.56-.63-1.15-1.27-1.78-1.92h0a72.6,72.6,0,0,0-7.18-6.41c-.78-.61-1.57-1.2-2.37-1.78s-1.55-1.09-2.33-1.62h0C445.59,274,429.11,268.7,408.14,263c-1.68-.46-3.33-.86-5-1.24h-.05c-1.31-.31-4-.87-4.1-.88h0a110.06,110.06,0,0,0-18.39-2.09h-.18c-.76,0-1.53,0-2.29,0l-1,0-1.13,0c-.93,0-1.85.05-2.76.1l-1.11.07q-1.34.09-2.64.21l-1.09.12c-.85.09-1.69.2-2.52.32l-1.07.16c-.81.13-1.61.26-2.4.41l-1.05.21c-.77.16-1.53.33-2.27.51l-1,.25c-.73.18-1.44.38-2.15.58l-1,.3c-.68.21-1.35.43-2,.66l-1,.34c-.64.24-1.27.48-1.89.73l-1,.39c-.6.25-1.18.52-1.77.78l-.93.44c-.57.27-1.11.55-1.65.84l-.9.47c-.53.29-1,.59-1.53.89l-.87.51L340,269l-.81.54c-.46.33-.9.66-1.34,1l-.73.55c-.46.37-.89.74-1.32,1.12l-.59.5c-.6.55-1.19,1.1-1.74,1.67-7.92,8.11-15.86,17.56-15.86,36.82,0,0-.1,1.42-.17,3.51,0,.69-.05,1.47-.06,2.28,0,.41,0,.83,0,1.26,0,.86,0,1.75,0,2.65s.06,1.8.11,2.68a36.16,36.16,0,0,0,.39,3.71c.08.48.2,1.1.39,1.82a27,27,0,0,0,18.91,19.07c.67.2,1.37.4,2.08.58l.62.16,1.64.4.65.15,1.9.4.42.08a154.19,154.19,0,0,0,28.26,2.47A116.32,116.32,0,0,0,392.58,351c2.67-.48,5.46-1.06,8.37-1.66h0c5.87-1.22,12.23-2.56,19.16-3.51,1.05-.15,2.13-.29,3.21-.41l.67-.08c1.1-.13,2.22-.24,3.36-.34,3.52-.31,7.18-.5,11-.5q4.14,0,8.5.31c2.19.16,4.27.23,6.22.23.84,0,1.63,0,2.43-.05h.24l2-.11,1-.07c.63-.05,1.24-.12,1.84-.19l.9-.1c.59-.08,1.15-.17,1.7-.26.29,0,.57-.09.84-.15.54-.09,1.06-.2,1.56-.31l.78-.18,1.43-.37.72-.21,1.28-.42.67-.24,1.15-.45.61-.27,1-.48.57-.3c.3-.16.6-.32.88-.49l.52-.33c.26-.16.51-.32.75-.49l.48-.36c.21-.16.42-.32.62-.49l.43-.39c.17-.15.35-.31.5-.46l.38-.43.39-.43c.12-.16.22-.31.33-.47l.27-.38a4.74,4.74,0,0,0,.29-.54c.05-.09.12-.2.16-.29a6.12,6.12,0,0,0,.3-.8c.1-.36.19-.74.28-1.14,0-.12.05-.24.08-.36l.18-.93c0-.12.05-.25.07-.38.08-.43.15-.88.22-1.34a.28.28,0,0,1,0-.09c.06-.44.12-.89.17-1.35l.06-.47c0-.35.07-.71.11-1.08,0-.15,0-.31,0-.46.05-.5.09-1,.13-1.51a1.85,1.85,0,0,0,0-.23c0-.44.06-.88.09-1.32l0-.56c0-.35,0-.7,0-1l0-.56c0-.49,0-1,0-1.47v-.39c0-.37,0-.74,0-1.11v-.59C481.7,317.8,481.7,317.5,481.7,317.2Zm-101.49,3.34c-19.83,4.47-49.38,4.72-54.42-12.58a30.54,30.54,0,0,1,6.92-25.16c10.07-11.64,26.11-18.24,33.66-16s7.86,7.23,8.18,15.72,6.6,13.84,10.69,17.93S397.67,316.61,380.21,320.54Zm3.52-32.35c-3.27-6-3.6-16.39.66-19.74s15.7-2.61,21.92,0,6.18,6.3,4.91,8.19c-3.28,4.85-7.2,3.36-10.15,7.45a35.87,35.87,0,0,0-4.25,6.71C394.53,295.27,387,294.15,383.73,288.19Zm84.23,27c-5.38,3.48-20.24.63-26.25-.63a43.58,43.58,0,0,0-17.71.94c-9.81,2.53-17.71-.63-21.51-5.69s-1.26-15.5,5.38-22.77,20.55-9.49,29.09-7.59,20.24,7,28.47,16.45S473.33,311.7,468,315.18Z"/></svg>