<svg id="Layer_1" data-name="Layer 1" xmlns="http://www.w3.org/2000/svg" viewBox="0 0 800 600"><defs><style>.cls-1{opacity:0.05;}</style></defs><path d="M73.84,517.81v43.87h22v11H62.82V517.81Z"/><path d="M102.8,517.81h11v54.82h-11Z"/><path d="M155.84,517.68v11h-22v11.05h16.53v11H133.8v22h-11v-55Z"/><path d="M195.82,517.68v11h-22v11.05h16.53v11H173.78v11h22v11H162.76v-55Z"/><path d="M218,561.84c3,0,6.4-2.53,6.4-5.57,0-5-6.72-5.71-10.51-7-6.68-2.28-12.58-7.76-12.58-15.23a16.72,16.72,0,0,1,33.28-2.31L223.67,534a5.56,5.56,0,0,0-11.12,0c0,4.93,6.25,6.25,10.06,7.38,6.91,2,13,7.26,13,14.89,0,9.25-8.29,16.71-17.52,16.71-8.48,0-16.14-6.22-17.39-14.38l10.94-2.33c0,3.06,3.33,5.55,6.42,5.55Z"/><path d="M278.53,517.81v10.92H265.06v43.9H254v-43.9h-13.5V517.81Z"/><path d="M295.86,517.81l10,19,10-19h12.48l-17,31.32v23.5H300.38v-23.5l-17-31.32Z"/><path d="M346.28,517.81v43.87h22v11H335.26V517.81Z"/><path d="M408.29,517.68v11h-22v11.05h16.53v11H386.25v11h22v11H375.24v-55Z"/><path d="M451.93,517.81v43.87h22v11H440.91V517.81Z"/><path d="M524,525.57a27.64,27.64,0,1,1-19.65-8.2A26.81,26.81,0,0,1,524,525.57Zm-31.45,7.82a16.25,16.25,0,0,0-4.9,11.8,16.73,16.73,0,1,0,4.9-11.8Z"/><path d="M623.22,548.11V517.68h11v56.07l-33-31.49v30.43h-11v-56Z"/><path d="M669,517.47a28,28,0,0,1,19.69,8.13l-7.86,7.85a16.22,16.22,0,0,0-11.76-4.93,15.94,15.94,0,0,0-11.77,4.93,16.66,16.66,0,0,0,0,23.6,15.88,15.88,0,0,0,11.77,4.9,16.64,16.64,0,0,0,15-9.59H668.46V541.85h28.16c.78,10.25-2.58,17.68-8,23.06A26.93,26.93,0,0,1,669,573a27.79,27.79,0,0,1-27.78-27.78,27,27,0,0,1,8.16-19.68,26.55,26.55,0,0,1,19.62-8.2Z"/><path d="M736.7,517.68v11h-22v11.05h16.53v11H714.66v11h22v11H703.65v-55Z"/><path d="M580,519.59l1.35-1.74H535.18l1.35,1.75c.13.17,13.45,17.43,15.42,20.45,1.84,2.83,2.61,5.58,2.61,15.3a31.66,31.66,0,0,1-.67,7.26,6.1,6.1,0,0,1-2.53,3.61c-2.19,1.47-6.23,4.16-7.31,4.75l-3.77,2h36l-3.78-2c-1.15-.62-5.18-3.33-7.31-4.76a6.08,6.08,0,0,1-2.51-3.56,31,31,0,0,1-.69-7.3c0-9.72.77-12.47,2.62-15.3C566.59,537,579.91,519.77,580,519.59Zm-19.31,18.89a16.3,16.3,0,0,0-2.44,6.13,16.46,16.46,0,0,0-2.44-6.13c-1.22-1.87-12.24-16.5-12.24-16.5a43.4,43.4,0,0,0,5.48.11c.58,0,.93,0,.93,0,4-.13,8.09-.3,12.2,1.12,3,1,5.7,2.27,8,2.66C570.22,525.85,561.62,537.12,560.73,538.48Z"/><path d="M521.7,388c-.5.71-1.05,1.39-1.59,2.07q-.61.75-1.26,1.47c-.32.36-.65.72-1,1.07s-.69.71-1,1.05-.84.79-1.27,1.17-.75.66-1.14,1c-.62.51-1.25,1-1.9,1.46-.3.22-.62.44-.93.65-.57.38-1.14.75-1.73,1.11l-.83.5a44.14,44.14,0,0,1-9.31,4l-8.4,8.4-3.93,3.93L461.24,442l-21.41-21.41q-3.84.07-7.5.36l23.38,23.39-50.73,0,22.92-22.93c-3.14.35-6.19.79-9.15,1.29L399.42,442,386,428.52c-2.34.21-4.81.38-7.38.48l15.27,15.27-44.41,0L364.67,429q-3.78-.13-7.46-.4L343.87,442l-30-30a27.21,27.21,0,0,1-7.28.58l4.31,4.3L285.81,442l-17.65-17.65L283.44,409a38.61,38.61,0,0,1-15.72-11.52,17,17,0,0,1-1-1.63l-14.44,14.67-21.11,21.06-16.6,16.5,1.31,3.33,11.52,28.44H573.09l11.52-28.44.81-2.71ZM248.29,444.19l15.94-15.93,15.95,15.95Zm43.14,0,23.41-23.41,23.43,23.44Zm175.33.1,24.55-24.55,24.59,24.58Zm28.48-28.48,13.14-13.14,26.15,26.15L521.39,442Zm31.63,28.52,11.59-11.58,11.59,11.59Z"/><path d="M54.65,54.31V69H25.25V83.71h22V98.37h-22v29.35H10.55V54.31Z"/><path d="M78.28,54.49V113h29.4v14.61H63.58V54.49Z"/><path d="M229.35,129.26l-33-74.77h15.56l17.38,40.07,17.42-40.07h15.74Z"/><path d="M325.26,64.84A35.83,35.83,0,0,1,336.2,91.11a37.11,37.11,0,0,1-37.16,37,37,37,0,0,1-37.12-37,36,36,0,0,1,10.89-26.27,36.93,36.93,0,0,1,52.45,0Zm-42,10.43A21.69,21.69,0,0,0,276.76,91a22.28,22.28,0,1,0,38-15.75,22.2,22.2,0,0,0-31.45,0Z"/><path d="M389.41,98.73V54.49H404.2V98.78a29.58,29.58,0,0,1-59.16,0V54.49h14.79V98.73a14.79,14.79,0,0,0,29.58,0Z"/><path d="M415.86,54.49h23.86a26.86,26.86,0,0,1,19.15,7.45c4.45,4.45,7.07,8.51,7.07,16.6v1.91a23.71,23.71,0,0,1-4.62,13.93,16.74,16.74,0,0,1-8.76,6.76l17,26.49h-18l-21-32.35v32.35H415.9ZM450.79,79a9.9,9.9,0,0,0-2.9-7c-1.91-1.85-5.53-2.9-9.08-2.9h-8.26V89.25h5.68v0h4.9C446.48,89.29,450.79,84.57,450.79,79Z"/><path d="M520.34,54.49V86.84l18.73-32.35h17L534.4,91.65l25.14,36H541.66L520.34,97v30.67H505.68V54.49Z"/><path d="M568.47,54.49h14.7v73.14h-14.7Z"/><path d="M638.88,94.92V54.31h14.74v74.82l-44.1-42v40.6h-14.7V53Z"/><path d="M699.67,54a37.4,37.4,0,0,1,26.27,10.84L715.46,75.37a21.62,21.62,0,0,0-15.7-6.58,21.23,21.23,0,0,0-15.7,6.58,22.23,22.23,0,0,0,0,31.48,21.21,21.21,0,0,0,15.7,6.54,22.18,22.18,0,0,0,20-12.8H698.94v-14h37.57c1,13.67-3.44,23.59-10.66,30.76a35.92,35.92,0,0,1-26.23,10.85,35.45,35.45,0,0,1-26.17-10.85,35.55,35.55,0,0,1-10.89-26.22,36,36,0,0,1,10.89-26.27,35.39,35.39,0,0,1,26.17-10.93Z"/><path d="M766,113.23c4.06,0,8.54-3.37,8.54-7.43,0-6.67-9-7.61-14-9.36-8.92-3-16.79-10.36-16.79-20.32A22.31,22.31,0,0,1,788.1,73l-14.6,3.08a7.42,7.42,0,0,0-14.84,0c0,6.58,8.34,8.34,13.42,9.85,9.23,2.66,17.37,9.69,17.37,19.87,0,12.33-11.07,22.29-23.38,22.29-11.31,0-21.54-8.29-23.2-19.18l14.59-3.11c0,4.08,4.44,7.41,8.57,7.41Z"/><path d="M158.13,80.45a15.47,15.47,0,0,0,3.78.46c3.87,0,7.15-1.37,9-3.77s2.24-5.66,1.18-9.66c-.82-3-3.69-4.87-7.68-4.87a13.6,13.6,0,0,0-8.69,3.1,9.58,9.58,0,0,0-2.91,9.2A7.28,7.28,0,0,0,158.13,80.45Z"/><path d="M195.1,93.43c-2.79-14-11.16-31.6-21-38.17s-21.81-4.77-38.8,16.11c0,0-11.16,14.61-13.95,29.82s.92,24.75,13.19,24.75c21.3,0,25-9.42,33-9.84,11.16-.6,16,11,22.57,5.66C196.29,116.67,197.89,107.45,195.1,93.43ZM133.76,82.38a141.2,141.2,0,0,1,11.69-15.59c7.2-6.76,13.46-10.08,19.09-10.08a14.69,14.69,0,0,1,6.78,1.69c6.77,3.44,12.36,12.77,14.19,19.8s.86,11.54-3.08,14a3.48,3.48,0,0,1-1.93.59h0a10.43,10.43,0,0,1-4.11-1.4A18.9,18.9,0,0,0,167.78,89h-.63A15.93,15.93,0,0,0,161,90.81c-3.45,1.54-7.75,3.46-16.95,3.46-4.66,0-9-2.1-10.7-5.22A6.27,6.27,0,0,1,133.76,82.38Zm19.91,30.2c-1.65,2.67-3.22,5.19-4.72,6.21-2.32,1.57-6.63,2.5-11.53,2.5a33.86,33.86,0,0,1-7.26-.75c-5.51-1.25-6.42-8.84-5.53-15,.85-5.9,1.27-8.33,3.08-9.35a1.69,1.69,0,0,1,.85-.17,8.27,8.27,0,0,1,3,.79c.51.25,1.12.61,1.8,1,2.75,1.61,6.51,3.81,10.75,3.81h.35a36.49,36.49,0,0,0,18-5.62,7.52,7.52,0,0,1,4.06-1.43A3.5,3.5,0,0,1,170,96.94c.2,1.12.34,1.86-6.49,4.83C159.22,103.64,156.27,108.39,153.67,112.58Zm38.09-7.89c-.13,5.12-2.12,10-4.74,11.5a3,3,0,0,1-1.6.41c-2,0-4.6-1.55-6.66-2.8l-1.06-.64c-2.19-1.29-4.82-2.6-7.66-2.6a9.2,9.2,0,0,0-3.93.89,10.25,10.25,0,0,1-3.87,1.13,1.29,1.29,0,0,1-1-.3c-.09-.12-.37-.64,0-2.12,1.05-3.81,5.81-5.54,6.42-5.74,4.86-.8,6.43-2.93,7.57-4.48.9-1.21,1.39-1.87,3.18-1.87a12.09,12.09,0,0,1,2.42.3,5.31,5.31,0,0,0,1,.11c2,0,3.18-1.26,4.23-2.38s1.78-1.83,3-1.83l.36,0C190.37,94.39,191.91,98.51,191.76,104.69Z"/><path d="M567.39,48.71l16.52-5.91a4.44,4.44,0,0,0,2.69-5.68L583.35,28l-4.47,5.81-10.2-7.59-2.77,12.22-7.31-1.13L561.71,46A4.45,4.45,0,0,0,567.39,48.71Z"/><g class="cls-1"><path d="M484.06,17C328.38-26.11,184.31,55.32,129.13,183.92c-18.92,36.38-23.76,99.43-23.76,99.43s24.12-53.85,72.84-102.26c8-7.91,30.84-35.33,66.77-48.22,0,.12,0,.24.07.37a122.79,122.79,0,0,0,4.86,17.51,76.1,76.1,0,0,0,8.16,15.83,73.62,73.62,0,0,1-2.39-17,116.8,116.8,0,0,1,1.13-16.78c.69-4.58,1.6-9.1,2.69-13.56C264.94,106.45,276,84.81,292.33,73c24.25-17.46,36.13-18.43,42.2-13.09s7.27,23.76,5.82,40a161.31,161.31,0,0,1-2.64,17.72c-1.25,4.72-2.7,9.4-4.42,14a115.57,115.57,0,0,1-7.11,15.24,74.1,74.1,0,0,1-10.28,13.7,77,77,0,0,0,14.79-9.92,126,126,0,0,0,12.72-13c2.16-2.6,4.24-5.29,6.25-8,9.09.32,20.59,1.43,29.24,4.69,16.73,6.31,32.25,12.86,58.2,33.71,0,0-5.08-7-10.09-13.62-5.3-7-5.43-15.24-2.28-22.75s21.83-42,57-42.68c0,0,10.19,8.24,8,28.37s-8.48,33.95-15.27,43.41c-2.89,4-6.43,8.68-9.54,12.73a13.38,13.38,0,0,0,1.43,17.89c8.17,7.74,22.8,21.27,27,32.38,0,0-4.29,21.14-22.72,46.12s-37.83,33.46-37.83,33.46,41.29-4.69,67.41-38.31c25.5-32.82,55.25-66.44,52.87-153.26,0,0,19.07,23.61,18.43,88s-6.15,84.06-6.79,93.12,5.17,18.75,3.55,34.59c-1.16,11.4-2.49,27-3.15,34.82a10.31,10.31,0,0,0,3.21,8.35l12.73,12a20.51,20.51,0,0,1,4.8,23.07l-21.37,49.66a28.34,28.34,0,0,1-17.28,15.77c-22.12,7.2-71,20.94-121.85,20.94-68.87,0-101.85-18.11-125.77-34.92,0,0,19.4,26.83,77.92,44,22.07,6.46,49.66,9.62,75.47,11,24.95,1.38,30,36,6.42,44.38a177.31,177.31,0,0,1-51.18,10.23c-72.75,3.23-109.93-.65-181.38-40.1-27.05-14.93-49.09-35.23-66-54.7A294.23,294.23,0,0,0,400,594.63c188.57,0,335.76-177.14,284.24-374.1C658.48,122,582.16,44.15,484.06,17Z"/><path d="M498.92,429.29s20.44-28.66-5.44-35.08c-20.69-5.13-58.39,34-58.39,34S492.87,397.44,498.92,429.29Z"/><path d="M299.58,289.55s-3.77,23.86,7.53,33.91,33.92,6.28,40.2,1.26C347.31,324.72,317.24,320.64,299.58,289.55Z"/></g><path d="M513,315.37c5.7,24.2.12,31.2-11.39,40.57,20.65-30.6-17.08-45.55,20.65-81.86-20.48,3.07-37.16,14-49.47,28.2-5.53-41.71-25.09-83.12-43.81-97.61,20.82,38.45,15.22,75.29-5.61,88.91,14.42-53.67-7.21-99.32-60.07-128.16,44.05,59.27-20.83,63.28-19.31,133.2-.32-24.18-15.13-30.67-5.52-66.72C322.35,256.7,312.19,279,307,298.72a116.06,116.06,0,0,0-16.3-18.47c23.47,50.29-12.65,52.16-2.39,84.52-10.39-11-14.39-21.1-7.54-46.25-27,42.26-20.39,89.53,25.63,88.18,1.16,0,2.28-.11,3.36-.23-.29-.45-.57-.89-.83-1.32a36,36,0,0,1-3.73-8.89c-.23-.87-.41-1.71-.54-2.5-.21-1.34-.38-2.9-.49-4.66-.06-1-.1-2.12-.13-3.19s0-2.09,0-3.1c0-.5,0-1,0-1.46,0-1,0-1.85.07-2.65.07-2,.16-3.43.19-3.92.05-23,9.5-34.62,19.17-44.53.68-.7,1.41-1.4,2.18-2.09l.54-.47.2-.17c.56-.48,1.08-.93,1.63-1.37l.63-.48.4-.3c.5-.38,1-.76,1.51-1.13l.69-.46.43-.29c.53-.36,1.06-.71,1.62-1.06.25-.16.5-.3.75-.45l.31-.18c.61-.37,1.22-.73,1.86-1.08.24-.14.5-.27.75-.4l.33-.17c.67-.35,1.33-.69,2-1l.82-.39.31-.14c.7-.32,1.41-.64,2.14-.94l.91-.37.25-.1c.74-.3,1.5-.59,2.27-.87l.95-.33.24-.08c.79-.28,1.59-.54,2.41-.79l1.07-.32.15,0c.84-.24,1.69-.48,2.56-.7l1.07-.26.15,0c.89-.21,1.79-.41,2.71-.6l1.24-.24c.94-.18,1.88-.35,2.85-.5l1.25-.19c1-.14,2-.26,3-.37l1.28-.14c1-.1,2.06-.18,3.11-.25l1.31-.08q1.6-.09,3.24-.12h.28l1,0h1.18l2.27,0,.82,0h0a125.87,125.87,0,0,1,13,1.07l-.12-.36,8.36,1.73c.07,0,3.12.64,4.64,1l.12,0c2.16.5,4,1,5.74,1.43,25.65,7,43.47,13,58.66,23.28.93.62,1.84,1.25,2.74,1.91s1.94,1.42,2.8,2.1a85.31,85.31,0,0,1,8.54,7.62c.75.77,1.47,1.55,2.15,2.31,5.8,6.55,9.34,13.2,10.52,19.77a46.55,46.55,0,0,1,.56,6.26c0,.49,0,1,0,1.52v2.44c0,.41,0,1.7,0,1.7,0,.6,0,1.18-.05,1.75,0,0-.06,1.46-.08,1.86l0,.66c0,.52-.12,1.85-.12,1.85,0,.56-.09,1.16-.14,1.75l-.05.51c-.05.47-.09.9-.14,1.33l-.06.55c-.07.55-.14,1.1-.21,1.62l0,.14c-.06.43-.14.86-.21,1.28C525.54,391.14,535.2,358.05,513,315.37Z"/><path d="M492.93,381.66c0-.21,0-.43,0-.64,0-.49,0-1,0-1.43a43.27,43.27,0,0,0-.48-5.56c-.61-3.4-2.47-9.58-9.34-17.33h0c-.62-.7-1.29-1.41-2-2.14h0a79.83,79.83,0,0,0-8-7.18c-.87-.68-1.76-1.34-2.66-2s-1.72-1.22-2.6-1.81h0c-15.25-10.29-33.7-16.2-57.17-22.59-1.88-.51-3.73-1-5.56-1.39H405c-1.46-.34-4.51-1-4.58-1h0a122.72,122.72,0,0,0-20.59-2.34h-.19c-.86,0-1.73,0-2.57,0l-1.12,0-1.26,0c-1.05,0-2.08.06-3.09.11l-1.24.08c-1,.06-2,.14-3,.24l-1.22.13c-1,.1-1.89.22-2.82.35l-1.2.18c-.91.15-1.8.3-2.69.47l-1.17.23q-1.29.27-2.55.57l-1.15.28c-.82.2-1.62.43-2.41.65l-1.13.34c-.77.23-1.52.48-2.26.74l-1.11.38c-.72.26-1.42.53-2.12.81l-1.08.44c-.67.28-1.33.58-2,.88l-1.05.48c-.63.3-1.24.62-1.84.94l-1,.53c-.59.32-1.15.66-1.71,1-.32.19-.66.38-1,.58-.55.34-1.07.69-1.59,1l-.91.61c-.52.37-1,.75-1.5,1.12l-.82.62c-.51.41-1,.83-1.47,1.25-.22.18-.45.37-.66.56-.68.61-1.33,1.24-1.95,1.87-8.87,9.08-17.75,19.66-17.75,41.21,0,0-.11,1.59-.2,3.92,0,.78-.05,1.65-.06,2.56,0,.46,0,.93,0,1.41,0,1,0,2,0,3s.06,2,.12,3a41,41,0,0,0,.44,4.15c.09.54.23,1.23.44,2a30.2,30.2,0,0,0,21.16,21.34c.75.23,1.53.45,2.33.66l.69.17c.6.16,1.22.31,1.84.45l.73.17,2.12.45.47.09A172.48,172.48,0,0,0,371,421.09a131,131,0,0,0,22.22-1.65c3-.55,6.11-1.19,9.36-1.87h.05c6.56-1.36,13.69-2.85,21.44-3.93l3.6-.46.75-.08c1.23-.14,2.48-.27,3.75-.38,3.95-.35,8-.56,12.31-.56,3.08,0,6.25.11,9.51.35,2.46.18,4.78.26,7,.26.94,0,1.83,0,2.72-.06h0l.27,0c.76,0,1.49-.07,2.22-.12l1.09-.07c.71-.06,1.39-.14,2.06-.21l1-.12,1.91-.29.93-.16c.6-.11,1.18-.23,1.75-.36l.87-.2c.55-.13,1.08-.27,1.6-.41l.8-.24c.5-.15,1-.3,1.44-.46l.75-.27c.44-.17.87-.33,1.28-.51l.69-.3c.39-.17.78-.35,1.14-.53l.63-.34c.34-.18.68-.36,1-.55l.58-.36c.29-.19.58-.37.84-.56s.36-.26.54-.4.48-.36.69-.55.33-.28.49-.43l.56-.52.43-.48c.14-.16.3-.32.43-.49a6.15,6.15,0,0,0,.37-.52c.1-.14.22-.29.3-.43s.23-.4.33-.59.13-.23.18-.34a6.92,6.92,0,0,0,.33-.89c.11-.4.21-.83.31-1.27l.09-.41c.07-.33.14-.68.2-1,0-.14.06-.28.08-.42.09-.49.17-1,.24-1.51,0,0,0-.06,0-.09.07-.5.13-1,.19-1.51l.06-.53c.05-.39.09-.8.13-1.2,0-.18,0-.35.05-.53.05-.56.1-1.12.14-1.68,0-.09,0-.18,0-.26l.09-1.48,0-.63.06-1.16c0-.21,0-.42,0-.63,0-.55,0-1.1.05-1.64v-.44c0-.41,0-.83,0-1.24v-.66C492.94,382.32,492.93,382,492.93,381.66Zm-113.59,3.73c-22.19,5-55.27,5.28-60.9-14.08a34.15,34.15,0,0,1,7.75-28.16c11.26-13,29.21-20.42,37.66-17.95s8.8,8.09,9.15,17.6,7.4,15.49,12,20.06S398.88,381,379.34,385.39Zm3.94-36.2c-3.66-6.67-4-18.35.74-22.1s17.57-2.92,24.53,0,6.93,7.06,5.5,9.17c-3.67,5.42-8.06,3.75-11.36,8.34a40.15,40.15,0,0,0-4.76,7.51C395.37,357.11,387,355.86,383.28,349.19Zm94.27,30.2c-6,3.89-22.66.71-29.38-.71a48.9,48.9,0,0,0-19.82,1.06c-11,2.84-19.82-.7-24.07-6.37s-1.42-17.34,6-25.48,23-10.62,32.56-8.5,22.65,7.79,31.86,18.41S483.57,375.5,477.55,379.39Z"/><path d="M371.38,352.64a28.73,28.73,0,0,1-4.89-13.73c-.37-7.52-2.25-7.9-6-8.09s-7.33,1.88-8.08,3-.94,4.51,2.25,2.63,1.88-2.82,4.14-2.44,2.45-.57,3.58.38-.19,3,1.12,5.64,2.64,2.82,2.64,7,3,9.21,4.7,9.59S373.08,355.65,371.38,352.64Z"/><path d="M327.28,351.14a18.1,18.1,0,0,0-3.72,13.43c1,8.16,1.76,10.27,6.07,13.69s5.06,3.67,8.41,4.74c2.85.91,6.13,1,5-2.12-.88-2.45-4.8-.51-7.93-3.94s-5.48-3.42-6.85-4.74-2.94-7.11-2.94-9.74,1.57-4.21,2.94-6.06,4.3-2.89,3.13-5.79S328.65,349.56,327.28,351.14Z"/><path d="M476.13,373.15s-2.45-9.1-12.09-17.35-12.5-10-19.29-10.72-7.6-.44-11.15.76c-3,1-6.91,5.2-1.93,5.4s5-4.08,11-2.54,10.8,1.39,12.33,3.32c2.93,3.72,7.26,4.45,10.14,7.33s3.51,5.73,4.56,8.72.14,6.21,4.14,8.56S476.89,375.84,476.13,373.15Z"/><path d="M332.18,367.67s-.78,2.74,1.57,3.53a14.23,14.23,0,0,1,5.87,4.4c1.27,1.56,4.21,1.17,6.55,2.35s2,4.5,3.62,5.57,9.3,1.08,14.48.59,14.87-.88,17.12-2.64,2.06-3.43-.88-2.94S379,382,375,381.76s-9-1.56-12.32-.68-7.14,1.46-8.81-.79-2.93-4.5-5.77-4.59-6.06-.1-6.75-2.45-1.47-3.52-3.72-3.72S333.85,365.23,332.18,367.67Z"/><path d="M410.15,357.5s-3.72,6.26-1,10.57a15.55,15.55,0,0,0,10,7.23c3.92,1,7.63-2.15,12.13-3.32s9.39-1.37,12.72.59,5.48,1.17,5.87-.79-2-4.5-4.7-3.71-6.84.39-10-.4-3.33-.58-6.66,1.57-5.67,4.89-8,2.54-4.11-3.52-6.26-3.91-4.89-3.52-3.13-4.89S414.65,355.15,410.15,357.5Z"/><path d="M416.61,349.28s-3.33,2-2.15,4.7,2.54,3.91,1,6.26-3.32,2.74-1.17,4.3,4.11-1.56,4.11-3.32a26.1,26.1,0,0,0-.2-6.65c-.58-2.74.59-2.94,2.74-4.7s9.79-4.89,6.07-4.3S417.39,348.5,416.61,349.28Z"/><path d="M402.33,338.33s2.54-2.55,4.3-3.13,2.74-2-.2-3.53a17.63,17.63,0,0,0-9.58-1.95c-3.52.19-5.28-1.76-8.22,1.17s-1.76,5.68-.78,5.68,2.93-2.16,3.13-3.14,3.13-1.76,4.69-1a13,13,0,0,0,5.48,1c1.76,0,3.92-1,2.55.59s-5.68,2.94-4.5,4.7S400.37,339.5,402.33,338.33Z"/></svg>