<svg id="Layer_1" data-name="Layer 1" xmlns="http://www.w3.org/2000/svg" viewBox="0 0 730 530"><defs><style>.cls-1{opacity:0.05;}</style></defs><g class="cls-1"><path d="M435.16,28.78c-129.94-36-250.19,32-296.25,139.34-15.79,30.36-19.83,83-19.83,83s20.13-44.94,60.8-85.35c6.65-6.6,25.74-29.49,55.73-40.25,0,.1,0,.21,0,.31a104.25,104.25,0,0,0,4.06,14.62,63.89,63.89,0,0,0,6.81,13.21,61.81,61.81,0,0,1-2-14.16,95.73,95.73,0,0,1,1-14c.57-3.82,1.33-7.6,2.24-11.32,4.54-10.71,13.74-28.77,27.4-38.61C295.37,61,305.29,60.17,310.35,64.62s6.07,19.84,4.86,33.4a134.27,134.27,0,0,1-2.2,14.79c-1,3.94-2.26,7.85-3.69,11.7a97,97,0,0,1-5.94,12.72,61,61,0,0,1-8.58,11.43,64.06,64.06,0,0,0,12.35-8.27,104.62,104.62,0,0,0,10.61-10.85c1.81-2.17,3.55-4.41,5.22-6.7,7.59.27,17.19,1.2,24.41,3.92,14,5.26,26.92,10.73,48.58,28.13,0,0-4.25-5.83-8.43-11.37-4.42-5.85-4.53-12.71-1.89-19s18.21-35,47.56-35.62c0,0,8.5,6.88,6.68,23.68s-7.08,28.34-12.75,36.23c-2.41,3.35-5.36,7.25-8,10.63a11.17,11.17,0,0,0,1.2,14.93c6.82,6.46,19,17.75,22.49,27,0,0-3.58,17.64-19,38.49s-31.58,27.93-31.58,27.93,34.47-3.92,56.27-32c21.29-27.39,46.11-55.45,44.13-127.92,0,0,15.92,19.71,15.38,73.41s-5.13,70.17-5.67,77.72,4.32,15.66,3,28.88c-1,9.51-2.08,22.51-2.63,29.06a8.6,8.6,0,0,0,2.68,7l10.63,10a17.14,17.14,0,0,1,4,19.26l-17.84,41.44a23.67,23.67,0,0,1-14.42,13.17c-18.46,6-59.27,17.47-101.7,17.47-57.49,0-85-15.11-105-29.14,0,0,16.19,22.4,65,36.7,18.42,5.39,41.45,8,63,9.21,20.83,1.14,25,30.08,5.36,37a147.56,147.56,0,0,1-42.72,8.53c-60.72,2.7-91.75-.54-151.39-33.46-22.58-12.46-41-29.41-55.12-45.66A245.56,245.56,0,0,0,365,510.92c157.39,0,280.25-147.86,237.25-312.25A239.12,239.12,0,0,0,435.16,28.78Z"/><path d="M447.56,372.91S464.63,349,443,343.63C425.75,339.35,394.29,372,394.29,372S442.52,346.33,447.56,372.91Z"/><path d="M281.18,256.28s-3.14,19.91,6.29,28.3,28.31,5.24,33.55,1.05C321,285.63,295.92,282.23,281.18,256.28Z"/></g><path d="M59.45,16.21v13h-26v13h19.5v13H33.44v26h-13V16.21Z"/><path d="M80.36,16.37V68.16h26V81.08h-39V16.37Z"/><path d="M214,82.53,184.84,16.37h13.77L214,51.82l15.41-35.45h13.93Z"/><path d="M298.87,25.53a31.68,31.68,0,0,1,9.68,23.24A31.48,31.48,0,0,1,298.87,72a33,33,0,0,1-46.4,0,31.63,31.63,0,0,1-9.63-23.2,31.83,31.83,0,0,1,9.63-23.24,32.64,32.64,0,0,1,46.4,0Zm-37.13,9.23a19.68,19.68,0,0,0,0,27.86,19.73,19.73,0,0,0,33.64-13.93,19,19,0,0,0-5.82-13.93,19.63,19.63,0,0,0-27.82,0Z"/><path d="M355.63,55.51V16.37h13.09V55.55a26.18,26.18,0,0,1-52.35,0V16.37h13.09V55.51a13.09,13.09,0,0,0,26.17,0Z"/><path d="M379,16.37h21.11A23.73,23.73,0,0,1,417.08,23c3.94,3.94,6.26,7.53,6.26,14.69v1.69a20.92,20.92,0,0,1-4.09,12.32,14.73,14.73,0,0,1-7.75,6l15.06,23.44h-15.9L392.07,52.46V81.08h-13Zm30.91,21.68a8.75,8.75,0,0,0-2.57-6.22c-1.69-1.64-4.89-2.57-8-2.57H392V47.12h5v0h4.34C406.13,47.16,409.94,43,409.94,38.05Z"/><path d="M471.47,16.37V45l16.58-28.63h15L483.91,49.25l22.24,31.83H490.34L471.47,54V81.08h-13V16.37Z"/><path d="M514.05,16.37h13V81.08h-13Z"/><path d="M576.35,52.14V16.21h13v66.2l-39-37.17V81.16h-13V15Z"/><path d="M630.13,16a33,33,0,0,1,23.25,9.6l-9.28,9.27A19.12,19.12,0,0,0,630.21,29a18.76,18.76,0,0,0-13.88,5.82,19,19,0,0,0-5.78,13.93,19,19,0,0,0,5.78,13.93,18.78,18.78,0,0,0,13.88,5.78A19.66,19.66,0,0,0,648,57.16H629.49V44.75h33.24c.92,12.1-3,20.88-9.43,27.22a31.78,31.78,0,0,1-23.21,9.59A31.39,31.39,0,0,1,606.93,72a31.46,31.46,0,0,1-9.63-23.2,31.83,31.83,0,0,1,9.63-23.24,31.35,31.35,0,0,1,23.16-9.68Z"/><path d="M688.79,68.34c3.59,0,7.55-3,7.55-6.57,0-5.91-7.93-6.73-12.4-8.28-7.89-2.69-14.86-9.17-14.86-18a19.74,19.74,0,0,1,39.29-2.73l-12.91,2.73a6.57,6.57,0,0,0-13.13,0c0,5.83,7.38,7.38,11.87,8.71,8.17,2.36,15.37,8.58,15.37,17.59,0,10.91-9.79,19.72-20.69,19.72-10,0-19-7.34-20.53-17l12.92-2.75c0,3.61,3.92,6.55,7.57,6.55Z"/><path d="M183.72,50.83c-2.47-12.4-9.88-28-18.63-33.77-7.58-5-16.52-4.51-28.56,7.76-.36.35-.73.72-1.09,1.09s-.73.73-1.1,1.1a91.38,91.38,0,0,0-6.86,7.58S117.61,47.52,115.14,61s.82,21.9,11.67,21.9c18.84,0,22.13-8.33,29.16-8.71,9.87-.52,14.14,9.76,20,5a13.36,13.36,0,0,0,1.57-1.53,12.58,12.58,0,0,0,1.1-1.09,14.27,14.27,0,0,0,1.1-1.1C184.83,70.87,186.11,62.85,183.72,50.83Zm-55.1-10.29a124.2,124.2,0,0,1,10.44-13.92C149.59,16.7,157,15.85,163.12,19s11.32,11.47,13,18.13.73,11-3.15,13.46c-4.09,2.55-7.07-3-14-2.69-4.94.2-7.24,4.67-20.44,4.67C131,52.54,124.77,46.73,128.62,40.54Zm14.81,33.52c-3.66,2.48-11.63,3-17.38,1.69s-6.42-9-5.65-14.32,1.15-7.81,3.21-9c1.5-.84,4.32.52,4.32.52,2.32,1.17,6.42,4.3,11,4.17a31.44,31.44,0,0,0,15.39-4.82c4.76-3.12,7.86-.39,8.19,1.43s-.33,2.74-6.31,5.34S147.08,71.59,143.43,74.06Zm38.3-13.25c-.12,4.69-1.94,9.38-4.68,11s-6.49-1.08-9.23-2.68-5.92-3.09-9.34-1.48-6.73,1.88-5.59-2.28,6.39-5.76,6.39-5.76c8.31-1.34,4.44-7,12.08-5.36,3.52.74,3.87-4,7.52-3.62C180.82,50.83,181.84,56.12,181.73,60.81Z"/><path d="M162.41,28.11c-1.29-4.82-9.19-4.37-12.91-1.09s-3.28,10.06,1.75,11.37S165,38,162.41,28.11Z"/><path d="M161.88,28.49c-1.21-4.55-8.68-4.13-12.19-1a6.88,6.88,0,0,0-1,1.14c3.7-2.66,10.45-2.81,11.6,1.51.84,3.13.45,5.4-.61,7C161.81,35.61,163.06,32.92,161.88,28.49Z"/><path d="M76.45,118.57v38.84H96v9.69H66.7V118.57Z"/><path d="M102.09,118.57h9.75V167.1h-9.75Z"/><path d="M149,118.45v9.73h-19.5V138h14.63v9.72H129.54v19.48h-9.76V118.45Z"/><path d="M184.44,118.45v9.73H164.93V138h14.63v9.72H164.93v9.79h19.51v9.69H155.18V118.45Z"/><path d="M204.09,157.55c2.7,0,5.67-2.24,5.67-4.93,0-4.43-5.95-5.05-9.3-6.22-5.92-2-11.14-6.87-11.14-13.48a14.8,14.8,0,0,1,29.46-2l-9.68,2a4.93,4.93,0,0,0-9.85,0c0,4.37,5.54,5.54,8.91,6.54,6.12,1.76,11.52,6.43,11.52,13.18,0,8.19-7.34,14.8-15.51,14.8-7.51,0-14.29-5.51-15.4-12.73l9.69-2.07c0,2.71,2.94,4.92,5.68,4.92Z"/><path d="M257.67,118.57v9.67H245.74V167.1H236V128.24H224v-9.67Z"/><path d="M273,118.57l8.85,16.83,8.85-16.83h11.05L286.71,146.3v20.8H277V146.3l-15-27.73Z"/><path d="M317.65,118.57v38.84h19.5v9.69H307.89V118.57Z"/><path d="M372.55,118.45v9.73H353V138h14.63v9.72H353v9.79h19.51v9.69H343.29V118.45Z"/><path d="M411.19,118.57v38.84H430.7v9.69H401.43V118.57Z"/><path d="M475,125.44a24.48,24.48,0,1,1-17.4-7.26A23.77,23.77,0,0,1,475,125.44Zm-27.85,6.92A14.76,14.76,0,0,0,468,153.25a14.76,14.76,0,1,0-20.86-20.89Z"/><path d="M562.83,145.4V118.45h9.79v49.64l-29.26-27.87v26.94H533.6V117.55Z"/><path d="M603.37,118.27a24.78,24.78,0,0,1,17.44,7.2l-7,6.95a14.34,14.34,0,0,0-10.42-4.36A14.08,14.08,0,0,0,593,132.42a14.74,14.74,0,0,0,0,20.89,14.07,14.07,0,0,0,10.41,4.34,14.72,14.72,0,0,0,13.31-8.49H602.89v-9.3h24.93c.69,9.07-2.28,15.65-7.08,20.41a23.83,23.83,0,0,1-17.4,7.19,24.6,24.6,0,0,1-24.59-24.59A23.88,23.88,0,0,1,586,125.44a23.51,23.51,0,0,1,17.37-7.26Z"/><path d="M663.3,118.45v9.73H643.8V138h14.63v9.72H643.8v9.79h19.5v9.69H634V118.45Z"/><path d="M524.61,120.15l1.19-1.54H484.89l1.19,1.54c.12.15,11.91,15.44,13.65,18.11,1.64,2.51,2.32,4.94,2.32,13.55a28,28,0,0,1-.59,6.42,5.44,5.44,0,0,1-2.25,3.2c-1.93,1.3-5.51,3.69-6.47,4.2l-3.34,1.8h31.9l-3.35-1.8c-1-.55-4.59-2.94-6.47-4.21a5.4,5.4,0,0,1-2.22-3.15,27.39,27.39,0,0,1-.61-6.46c0-8.61.68-11,2.31-13.55C512.7,135.59,524.49,120.3,524.61,120.15Zm-17.1,16.72a14.63,14.63,0,0,0-2.16,5.43,14.46,14.46,0,0,0-2.16-5.43c-1.08-1.65-10.84-14.61-10.84-14.61a37.37,37.37,0,0,0,4.86.1c.51,0,.82,0,.82,0,3.53-.11,7.16-.26,10.8,1a55.39,55.39,0,0,0,7.08,2.35S508.3,135.67,507.51,136.87Z"/><path d="M449.38,408.74l0-.05Z"/><path d="M551.54,501.56l-57-57.31a43.84,43.84,0,0,1-7.75,9l27,27L493.08,501c-.05-.05-.09-.12-.14-.17L465,472.9l14.31-14.31a49.29,49.29,0,0,1-13.09,5.11L429,501,405.64,477.6c-2.59.06-5.14.17-7.62.37l23.23,23.23H372.32l23-23q-4.71.47-9.15,1.16L364.57,501l-15.06-15.07c-2.38.22-4.89.38-7.5.49l14.82,14.82H307.9l15-15c-2.51-.15-5-.34-7.42-.57L300.16,501l-28.85-28.85h-.06c-1.49.17-2.86.27-4.19.31l-2.23,0c-.77,0-1.53,0-2.29-.06l-26.22,26.22L216.66,479,233,462.65a41.11,41.11,0,0,1-8.29-8.57l-47.82,48.25,0,.49a4.11,4.11,0,0,0-.87,2.52v6.45a4.14,4.14,0,0,0,4.14,4.14H549.87a4.14,4.14,0,0,0,4.14-4.14v-6.45A4.14,4.14,0,0,0,551.54,501.56Zm-16.8-.36h-33.9l16.95-16.95Zm-73.69-24.31,24.3,24.31H436.74Zm-194-1,25.34,25.34H241.73ZM230.92,501.2H194.41l18.25-18.26Z"/><path d="M387.1,469.93c.49-5.45,1.62-18.53,1.62-23.08,0-5.81-.83-12.72-4.43-17.15s-3.87-8.57-7.74-4.7-5.53,6.64-7.74,7.19-6.09-.28-10,2.21-3.87,3.88-1.11,7.2,6.92,3.87,7.75,10.51c.76,6.08.43,17.2.38,21.79C372.37,472.55,379.43,471.05,387.1,469.93Z"/><path d="M318,384.76c-6.45,9-8.15,26.16.42,33.35s18.29,14.39,25.76,8.31c0,0-1.61,4.94-4.92,5.77,0,0,11.47,4.9,15.9-.28,2.81-3.29,7.24-3.87,10.84-5.53s7.19-3.59,6.36-7.46-1.66-5.54-1.94-8.58-3.59-5.53-8.85-7.74-6.91,4.15-14.1,5.25a34,34,0,0,0,8.57-10c3.32-6.09,2.77-6.64,5-8.86s5.25-9.38,2.5-15.19a115.64,115.64,0,0,0-30.54-1.8A44.07,44.07,0,0,0,318,384.76Z"/><path d="M357.1,454.44c0-3.44-1.29-8.42-4.89-10.63s-7.19-2.21-13.28-3.32a29.54,29.54,0,0,1-13.82-6.92c-3.32-2.76-6.09-8.57-8-7.19s-3.59,3.6-3.59,10.51-1.38,10.24,1.11,14.11,3.31,6.64,3.31,10.51c0,3.08-.11,11.63-.16,15,14.09,1.27,29.26.94,39.39-.88C357.13,471.1,357.1,457.3,357.1,454.44Z"/><path d="M280.85,435.79c4.43-2.49,9.41-10,10.24-14.11s-.83-9.13-.83-9.13,6.08,8,10.78,6.37,5-7.47,5.26-13.28a40.11,40.11,0,0,1,5.25-17.42c2.66-4.26,4.89-12.69,5.06-13.33-11.71,3.21-20.86,8.59-26.9,14.79-8.92,9.15-17.4,19.18-17.4,40.9,0,0,0,.2,0,.56C273.32,432.71,277.07,437.91,280.85,435.79Z"/><path d="M428.27,447.13c-.55-3.88-3.6-9.41-7.74-12.73s-5-1.38-11.07-3-12.17-4.7-14.1-4.7-5.53-.83-3.6,3.32,4.15,5,3.87,15.76c-.21,8.29.12,18.73.29,23.14a135.43,135.43,0,0,1,22.45-.26c3.19.23,6.14.3,8.88.24C427.64,464.16,428.73,450.33,428.27,447.13Z"/><path d="M309.34,454.32c0-3.32-1.94-4.43-1.66-10.79s3.6-16-1.66-17.15-7.74-1.38-11.34,3.32-8.3,8.85-8.57,16.87c-.25,7.15,1.66,16.76,2.07,23.08a33.8,33.8,0,0,0,6.68,2.83,97.67,97.67,0,0,0,13.92,3C308.92,471.05,309.34,457.11,309.34,454.32Z"/><path d="M436.84,427.49c-6.08-3-11.06-3.32-16-7.47s-14.38-5.53-14.38-5.53,7.19-1.94,10.51-1.11,7.74-1.1,3.32-3.59-6.36-8.3-6.36-13c0,0,3.59,8,8,9.13,3.69.92,7.41-4.66,9-6.23h0s.25-.25.55-.52c-15.19-10.1-33.6-16.43-56.72-22.73-2.19-.6-4.35-1.12-6.48-1.6.09.46,1.28,7.22-.86,12.83-2.21,5.81-4.7,8.85-2.49,10.51s9.13.83,11.9,2.77,6.08,1.66,9.12,1.66,5.26,3.87,5.26,3.87a12.54,12.54,0,0,0-9.68-1.11c-5.26,1.66-6.09,7.47-4.43,9.13s7.75,6.36,14.11,5.81,12.72,2.76,17.7,5,8.3.55,11.34,3.87,6.36,8.57,11.89,11.89,11.9,1.66,12.73-1.93S442.93,430.53,436.84,427.49Z"/><path d="M445.14,410.19a81.6,81.6,0,0,0-7.42-6.52c-.24-.2-.5-.38-.75-.57l-.24.16c-1.34,1-9.61,7.35-10.12,10.4-.55,3.32,3.32,4.43,7.19,3s7.18-6,11.33-6.51Z"/><path d="M456.64,429.89c-.63-3.53-2.26-9.67-9.52-17.63h0s-5,2.22-5,5.26.83,5,4.42,8.3,5,5,4.71,8.85,3.09,4.48,5.92.08A44.47,44.47,0,0,0,456.64,429.89Z"/><path d="M482.15,369.27c5.93,25.19.12,32.48-11.86,42.23,21.49-31.86-17.78-47.42,21.49-85.21-21.31,3.19-38.68,14.56-51.49,29.34-5.77-43.42-26.12-86.52-45.61-101.6,21.68,40,15.84,78.37-5.84,92.55,15-55.86-7.5-103.39-62.53-133.41,45.86,61.7-21.68,65.87-20.1,138.65-.34-25.16-15.75-31.92-5.75-69.44-16.78,25.8-27.36,49-32.82,69.54a119.94,119.94,0,0,0-17-19.21c24.43,52.34-13.17,54.29-2.49,88-10.82-11.42-15-22-7.84-48.16-28.12,44-21.23,93.21,26.67,91.8,1.23,0,2.4-.13,3.54-.26a36.75,36.75,0,0,1-2.69-4.85,68.26,68.26,0,0,1-2.95-7.84s-13.78-1.34-21.36-19.19c5.45,6,11.77,9.46,18.15,8.4,0,0-.19-8.13.54-17s3.41-12.71,3.41-12.71a26,26,0,0,1,.37-17.77c3.05-7.53,4.05-17.68,1.47-26.15,2.4,3.13,5.53,8.1,5.9,17.31.29,7.46-.13,13.31-.13,13.31a78.5,78.5,0,0,1,10.27-12.87c-.86-4.72-4.56-28.57,3.85-53.48,0,0,.74,11.42,4.42,18.24,3.39,6.27,6.62,17.69,7.11,23.63A81.45,81.45,0,0,1,323.76,365l.65-.1c4.76-60.83,38.76-49.26,37.38-88.5,15.34,30.94,9.38,62.79-2.69,88.58,2.48.37,4.8.79,4.8.79,4.17.77,8.39,1.72,12.65,2.88,9.32,2.53,18.25,5.07,26.73,8,8.31-5.25,15.53-13.19,17.25-31.72a213,213,0,0,1,4.71,40.93,109.33,109.33,0,0,1,13.28,8c6.79-7.38,12.31-15.1,13.75-23.16,1.81,19,2.54,30,2.23,37.57,5.5,6.53,8.88,13.22,10.1,20a37.67,37.67,0,0,1,.46,4.09c6.13-1.35,12.28-5,17.09-12-1.65,8.88-8.25,15.91-16.92,20.93A90.92,90.92,0,0,1,463.84,456C494.87,449.24,505.61,414.39,482.15,369.27Z"/><path d="M453.7,459.72a5.82,5.82,0,0,0,.38-.53c.1-.14.22-.29.31-.43s.22-.4.32-.6.13-.22.18-.33a6.2,6.2,0,0,0,.33-.9c.12-.4.22-.83.32-1.28l.09-.41c.07-.34.14-.68.2-1,0-.15.06-.28.08-.43.09-.49.17-1,.25-1.51a.31.31,0,0,1,0-.1c.07-.5.14-1,.2-1.52l.06-.53.12-1.21.06-.53c.05-.56.09-1.12.14-1.69,0-.09,0-.18,0-.27,0-.49.07-1,.1-1.48l0-.63c0-.35,0-.7.05-1.05-3.2,3.53-11.21,5.67-19,4.34-1.21-.2-2.22,1-2.31,2.24l-1.38,18.34,1.89-.29.95-.16c.6-.11,1.18-.23,1.75-.36l.88-.2c.55-.13,1.08-.27,1.6-.42l.81-.23c.5-.16,1-.31,1.45-.47l.75-.27,1.3-.51.69-.3,1.14-.54.64-.34c.34-.18.68-.36,1-.55s.4-.25.59-.37.58-.37.84-.56.36-.27.54-.4.48-.36.7-.55.33-.29.49-.44.39-.35.56-.52.29-.32.43-.48S453.57,459.88,453.7,459.72Z"/></svg>