<svg id="Layer_1" data-name="Layer 1" xmlns="http://www.w3.org/2000/svg" viewBox="0 0 730 530"><defs><style>.cls-1{opacity:0.05;}.cls-2{font-size:91px;font-family:SofiaProSemiBold, Sofia Pro;}.cls-3{letter-spacing:-0.03em;}.cls-4{letter-spacing:-0.02em;}.cls-5{font-size:82px;font-family:Billgates;}.cls-6{letter-spacing:-0.03em;}</style></defs><path d="M386.85,251.93c.41-4.57,1.36-15.53,1.36-19.34,0-4.86-.7-10.65-3.71-14.36s-3.24-7.18-6.48-3.94-4.64,5.56-6.49,6-5.1-.23-8.34,1.86-3.24,3.24-.93,6,5.79,3.24,6.49,8.8c.64,5.1.37,14.41.32,18.26C374.52,254.12,380.43,252.86,386.85,251.93Z"/><path d="M329,180.58c-5.41,7.57-6.83,21.92.35,27.94s15.32,12,21.58,7c0,0-1.35,4.14-4.13,4.83,0,0,9.62,4.1,13.32-.24,2.35-2.75,6.07-3.23,9.08-4.62s6-3,5.33-6.26-1.39-4.63-1.62-7.18-3-4.63-7.41-6.48-5.8,3.47-11.82,4.4a28.59,28.59,0,0,0,7.18-8.34c2.78-5.1,2.32-5.56,4.17-7.42s4.4-7.86,2.09-12.72a96.88,96.88,0,0,0-25.57-1.51A36.81,36.81,0,0,0,329,180.58Z"/><path d="M361.72,239c0-2.88-1.08-7-4.09-8.91s-6-1.85-11.12-2.78a24.67,24.67,0,0,1-11.58-5.79c-2.78-2.31-5.1-7.18-6.72-6s-3,3-3,8.8-1.16,8.57.92,11.82a14.58,14.58,0,0,1,2.78,8.8c0,2.58-.09,9.74-.13,12.57,11.79,1.06,24.5.78,33-.74C361.75,252.9,361.72,241.35,361.72,239Z"/><path d="M297.86,223.33c3.71-2.09,7.88-8.34,8.57-11.82a17.53,17.53,0,0,0-.69-7.64s5.09,6.71,9,5.32,4.17-6.25,4.4-11.12a33.73,33.73,0,0,1,4.4-14.59c2.23-3.56,4.1-10.63,4.24-11.16-9.8,2.69-17.47,7.19-22.53,12.39-7.47,7.66-14.58,16.06-14.58,34.25v.47C291.55,220.74,294.69,225.11,297.86,223.33Z"/><path d="M421.34,232.82a19,19,0,0,0-6.49-10.65c-3.48-2.78-4.17-1.16-9.27-2.55s-10.19-3.94-11.81-3.94-4.64-.69-3,2.78,3.47,4.17,3.24,13.2c-.18,6.94.1,15.69.24,19.38a113.56,113.56,0,0,1,18.81-.21c2.67.19,5.14.25,7.43.2C420.81,247.09,421.72,235.51,421.34,232.82Z"/><path d="M321.72,238.85c0-2.78-1.62-3.71-1.39-9s3-13.43-1.39-14.36-6.49-1.16-9.5,2.78-6.95,7.41-7.18,14.13c-.2,6,1.39,14,1.74,19.33a28.65,28.65,0,0,0,5.59,2.37,82.33,82.33,0,0,0,11.66,2.49C321.37,252.86,321.72,241.18,321.72,238.85Z"/><path d="M428.52,216.38c-5.1-2.55-9.27-2.78-13.44-6.26S403,205.49,403,205.49s6-1.62,8.81-.93,6.48-.93,2.78-3-5.33-7-5.33-10.89c0,0,3,6.72,6.72,7.65,3.09.77,6.2-3.9,7.56-5.22h0s.21-.21.47-.43c-12.73-8.46-28.15-13.76-47.51-19-1.84-.5-3.64-.94-5.43-1.34.07.39,1.07,6-.72,10.75-1.85,4.86-3.94,7.41-2.08,8.8s7.64.69,10,2.32,5.09,1.39,7.64,1.39,4.4,3.24,4.4,3.24a10.47,10.47,0,0,0-8.1-.93c-4.41,1.39-5.1,6.26-3.71,7.65s6.49,5.33,11.81,4.86,10.66,2.32,14.83,4.17,6.95.47,9.5,3.25,5.33,7.18,10,10,10,1.39,10.66-1.62S433.61,218.92,428.52,216.38Z"/><path d="M435.46,201.89a68,68,0,0,0-6.21-5.47c-.2-.16-.42-.31-.63-.47l-.2.13c-1.12.85-8.05,6.16-8.47,8.71-.47,2.78,2.78,3.71,6,2.55s6-5,9.49-5.45Z"/><path d="M445.1,218.38c-.53-2.95-1.89-8.09-8-14.76h0s-4.19,1.87-4.19,4.42.69,4.17,3.71,7,4.17,4.17,3.93,7.41,2.59,3.75,5,.06A38.74,38.74,0,0,0,445.1,218.38Z"/><path d="M442.64,243.37c.12-.15.21-.29.32-.44s.18-.24.25-.36a5,5,0,0,0,.27-.5c0-.1.11-.19.15-.28a5,5,0,0,0,.28-.76c.1-.33.18-.69.27-1.07,0-.11.05-.22.07-.34.06-.28.12-.57.17-.88,0-.11.05-.23.07-.35.07-.41.14-.83.2-1.27a.25.25,0,0,0,0-.08c.06-.42.12-.84.17-1.28,0-.14,0-.29.05-.43,0-.34.07-.68.11-1,0-.15,0-.3,0-.44l.12-1.43c0-.07,0-.14,0-.21,0-.42.06-.83.08-1.25l0-.52c0-.3,0-.59,0-.88-2.68,2.95-9.39,4.75-15.89,3.63-1-.17-1.86.85-1.94,1.88l-1.15,15.36,1.59-.24.79-.14q.75-.13,1.47-.3l.73-.17c.46-.11.91-.22,1.34-.35l.68-.19c.42-.13.83-.26,1.22-.4l.62-.22c.38-.14.74-.28,1.09-.43l.58-.25,1-.45L438,247c.29-.16.57-.31.83-.47l.49-.31c.25-.15.49-.31.71-.46l.45-.34L441,245l.4-.37c.17-.15.33-.29.48-.44s.24-.27.36-.4S442.53,243.51,442.64,243.37Z"/><path d="M486.76,200.92a61.49,61.49,0,0,1,.19,8c5.21,7.08,8.06,14.74,8.06,22.72a34.83,34.83,0,0,1-2.55,13l-10.86-15c-.53,1-1.11,1.92-1.72,2.84L490,249.33H470.33l-2.82-5a40.42,40.42,0,0,1-3.86,2l1.45,3H454.66l-4.47,1a18.37,18.37,0,0,1-2.58,2.77h19.31l7,14.34a106.82,106.82,0,0,1-17.76,10.93l-9.95-24.11a27,27,0,0,1-3.81,2.36l7.87,22.28H429.42l-5-17.83c-1.57.11-3.2.18-4.92.18h0l-.92,0,3.88,17.67H398.78l-2.71-17.8c-1.85.15-3.66.34-5.43.56l1.65,17.24H368l-.36-13.08-5.23,1-.33,12H338.72l1-10.44c-1.82,0-3.64-.07-5.44-.14l-1.61,10.58H309.52l2.87-13c-1.89-.37-3.68-.79-5.34-1.23l-4,14.27H280l8-22.56-.83.09c-1.28.14-2.47.23-3.64.27h-.45l-9,21.78a107.74,107.74,0,0,1-17.79-10.9l6.88-14.15a39.05,39.05,0,0,1-7.65-4.07H239.81l-.17-.31,6-10c-.45-.7-.88-1.41-1.28-2.14-.21-.4-.42-.8-.62-1.21l-6.35,8.44a34.81,34.81,0,0,1-2.38-12.5,35.64,35.64,0,0,1,3.92-16,66.25,66.25,0,0,1,.51-10.15c-6.18,8.19-9.42,17-9.42,26.14a39.61,39.61,0,0,0,3.43,16c.36,3.13,1.13,7.7,2.6,14.4,4.23,19.21,17.09,36.3,23.93,40.53s15-1.46,16.28-2.76a64.68,64.68,0,0,0,4.6-6.62s25.51,11.18,54.33,14.11a277.53,277.53,0,0,0,67.23-1.8c13.51-1.95,37.76-8,41.83-9.92s5-2.39,5-2.39.52,2.71,5.9,6.94,10.41,5.05,16.44.33a60.13,60.13,0,0,0,17.58-23.93,123.29,123.29,0,0,0,7.46-29A39.79,39.79,0,0,0,500,231.63C500,220.79,495.43,210.35,486.76,200.92ZM257.82,253.07l-6,10.75a60.2,60.2,0,0,1-9.64-10.75Zm185.66,30.8q-5.55,2.11-11.55,3.95l-1.11-3.95Zm-50.72,0,1.12,11.69a251.59,251.59,0,0,1-25.42,1.61l-.37-13.3Zm-84.33,0h23.48l-1.66,10.94A219.38,219.38,0,0,1,307,290.3Zm-6.8,0-1.3,4.62q-7.2-2.08-13.81-4.62Zm35.49,11.8,1.12-11.8h23.67l-.37,13.3C353.18,297.06,345,296.55,337.12,295.67Zm64.05-1.06-1.63-10.74h24l1.31,5.95A217.53,217.53,0,0,1,401.17,294.61Zm71.27-41.54h15.42a60.05,60.05,0,0,1-9.46,10.59Z"/><g class="cls-1"><path d="M435.16,28.78c-129.94-36-250.19,32-296.25,139.34-15.79,30.36-19.83,83-19.83,83s20.13-44.94,60.8-85.35c6.65-6.6,25.74-29.49,55.73-40.25,0,.1,0,.21,0,.31a104.25,104.25,0,0,0,4.06,14.62,63.89,63.89,0,0,0,6.81,13.21,61.81,61.81,0,0,1-2-14.16,95.73,95.73,0,0,1,1-14c.57-3.82,1.33-7.6,2.24-11.32,4.54-10.71,13.74-28.77,27.4-38.61C295.37,61,305.29,60.17,310.35,64.62s6.07,19.84,4.86,33.4a134.27,134.27,0,0,1-2.2,14.79c-1,3.94-2.26,7.85-3.69,11.7a97,97,0,0,1-5.94,12.72,61,61,0,0,1-8.58,11.43,64.06,64.06,0,0,0,12.35-8.27,104.62,104.62,0,0,0,10.61-10.85c1.81-2.17,3.55-4.41,5.22-6.7,7.59.27,17.19,1.2,24.41,3.92,14,5.26,26.92,10.73,48.58,28.13,0,0-4.25-5.83-8.43-11.37-4.42-5.85-4.53-12.71-1.89-19s18.21-35,47.56-35.62c0,0,8.5,6.88,6.68,23.68s-7.08,28.34-12.75,36.23c-2.41,3.35-5.36,7.25-8,10.63a11.17,11.17,0,0,0,1.2,14.93c6.82,6.46,19,17.75,22.49,27,0,0-3.58,17.64-19,38.49s-31.58,27.93-31.58,27.93,34.47-3.92,56.27-32c21.29-27.39,46.11-55.45,44.13-127.92,0,0,15.92,19.71,15.38,73.41s-5.13,70.17-5.67,77.72,4.32,15.66,3,28.88c-1,9.51-2.08,22.51-2.63,29.06a8.6,8.6,0,0,0,2.68,7l10.63,10a17.14,17.14,0,0,1,4,19.26l-17.84,41.44a23.67,23.67,0,0,1-14.42,13.17c-18.46,6-59.27,17.47-101.7,17.47-57.49,0-85-15.11-105-29.14,0,0,16.19,22.4,65,36.7,18.42,5.39,41.45,8,63,9.21,20.83,1.14,25,30.08,5.36,37a147.56,147.56,0,0,1-42.72,8.53c-60.72,2.7-91.75-.54-151.39-33.46-22.58-12.46-41-29.41-55.12-45.66A245.56,245.56,0,0,0,365,510.92c157.39,0,280.25-147.86,237.25-312.25A239.12,239.12,0,0,0,435.16,28.78Z"/><path d="M447.56,372.91S464.63,349,443,343.63C425.75,339.35,394.29,372,394.29,372S442.52,346.33,447.56,372.91Z"/><path d="M281.18,256.28s-3.14,19.91,6.29,28.3,28.31,5.24,33.55,1.05C321,285.63,295.92,282.23,281.18,256.28Z"/></g><path d="M470.1,163.52c5.12,21.72.1,28-10.22,36.42,18.53-27.48-15.34-40.9,18.53-73.49C460,129.21,445.05,139,434,151.75c-5-37.44-22.53-74.61-39.34-87.61,18.7,34.51,13.66,67.59-5,79.81,12.94-48.17-6.47-89.15-53.92-115,39.54,53.21-18.7,56.8-17.34,119.56-.29-21.7-13.58-27.53-4.95-59.88-14.48,22.25-23.6,42.26-28.3,60A104.35,104.35,0,0,0,270.5,132c21.07,45.14-11.36,46.82-2.15,75.87-9.33-9.84-12.91-18.94-6.76-41.52-24.25,37.94-18.31,80.37,23,79.16,1.06,0,2.07-.11,3.05-.22a33,33,0,0,1-2.32-4.19,57.44,57.44,0,0,1-2.54-6.76s-11.89-1.15-18.42-16.55c4.7,5.21,10.15,8.16,15.65,7.24,0,0-.17-7,.47-14.63s2.94-10.95,2.94-10.95a22.43,22.43,0,0,1,.31-15.33A35.63,35.63,0,0,0,285,161.56c2.06,2.7,4.76,7,5.08,14.93.25,6.43-.11,11.48-.11,11.48a66.9,66.9,0,0,1,8.86-11.11c-.75-4.07-3.94-24.63,3.32-46.11,0,0,.63,9.85,3.81,15.72a65.77,65.77,0,0,1,6.13,20.38,70.38,70.38,0,0,1,21.41-7l.56-.09c4.11-52.45,33.43-42.48,32.24-76.31,13.23,26.68,8.09,54.14-2.32,76.38,2.14.32,4.15.68,4.15.68q5.39,1,10.9,2.48c8,2.19,15.74,4.37,23,6.89,7.16-4.53,13.39-11.37,14.87-27.35a183.81,183.81,0,0,1,4.07,35.3,95.17,95.17,0,0,1,11.45,6.92c5.85-6.35,10.61-13,11.85-20,1.56,16.39,2.19,25.84,1.93,32.39,4.74,5.63,7.66,11.41,8.71,17.26a34.15,34.15,0,0,1,.4,3.52,23.94,23.94,0,0,0,14.73-10.33c-1.42,7.66-7.11,13.72-14.59,18a78.1,78.1,0,0,1-1.2,12.67C481.07,232.47,490.33,202.43,470.1,163.52Z"/><text class="cls-2" transform="translate(24.8 411.8)">FL<tspan class="cls-3" x="94.64" y="0">A</tspan><tspan class="cls-4" x="150.97" y="0">V</tspan><tspan x="201.84" y="0">OUR KINGS</tspan><tspan class="cls-5"><tspan x="94.66" y="74">Lif</tspan><tspan class="cls-6" x="193.38" y="74">e</tspan><tspan x="219.95" y="74">style Lounge</tspan></tspan></text><path d="M501.3,341.75,514.66,337a3.59,3.59,0,0,0,2.17-4.59L514.21,325l-3.62,4.7-8.24-6.13-2.24,9.87-5.9-.91,2.5,7A3.59,3.59,0,0,0,501.3,341.75Z"/></svg>