<svg xmlns="http://www.w3.org/2000/svg" xmlns:xlink="http://www.w3.org/1999/xlink" viewBox="0 0 800 600"><defs><style>.cls-1{isolation:isolate;}.cls-2{fill:url(#linear-gradient);}.cls-12,.cls-14,.cls-15,.cls-18,.cls-3,.cls-6,.cls-9{mix-blend-mode:screen;}.cls-3{fill:url(#linear-gradient-2);}.cls-4{fill:url(#linear-gradient-3);}.cls-5{fill:url(#linear-gradient-4);}.cls-6{fill:url(#linear-gradient-5);}.cls-7{fill:url(#linear-gradient-6);}.cls-8{fill:url(#linear-gradient-7);}.cls-9{fill:url(#linear-gradient-8);}.cls-10{fill:url(#linear-gradient-9);}.cls-11{fill:url(#linear-gradient-10);}.cls-12{fill:url(#linear-gradient-11);}.cls-13{fill:#953208;}.cls-14{fill:url(#linear-gradient-12);}.cls-15{fill:url(#linear-gradient-13);}.cls-16{fill:#661a00;}.cls-17{fill:#a91b25;}.cls-18{fill:url(#linear-gradient-14);}.cls-19{opacity:0.05;}</style><linearGradient id="linear-gradient" x1="556.56" y1="548.66" x2="556.56" y2="520.18" gradientUnits="userSpaceOnUse"><stop offset="0" stop-color="#ed2f24"/><stop offset="1" stop-color="#fced09"/></linearGradient><linearGradient id="linear-gradient-2" x1="391.03" y1="221.29" x2="391.03" y2="382.74" gradientUnits="userSpaceOnUse"><stop offset="0"/><stop offset="1" stop-color="#f4831f"/></linearGradient><linearGradient id="linear-gradient-3" x1="571.1" y1="305.44" x2="586.44" y2="402.03" gradientTransform="matrix(-1, 0, 0, 1, 1066.83, 0)" xlink:href="#linear-gradient"/><linearGradient id="linear-gradient-4" x1="545.34" y1="283.93" x2="596.15" y2="388.03" gradientTransform="matrix(-1, 0, 0, 1, 1066.83, 0)" xlink:href="#linear-gradient"/><linearGradient id="linear-gradient-5" x1="564.23" y1="312.6" x2="586.15" y2="387.32" gradientTransform="matrix(-1, 0, 0, 1, 1066.83, 0)" xlink:href="#linear-gradient-2"/><linearGradient id="linear-gradient-6" x1="373.81" y1="230.91" x2="402.65" y2="412.55" xlink:href="#linear-gradient"/><linearGradient id="linear-gradient-7" x1="390.96" y1="188.43" x2="390.96" y2="389.97" xlink:href="#linear-gradient"/><linearGradient id="linear-gradient-8" x1="391.65" y1="221.74" x2="391.65" y2="382.74" xlink:href="#linear-gradient-2"/><linearGradient id="linear-gradient-9" x1="311.49" y1="319.22" x2="326.11" y2="411.26" gradientTransform="translate(83.78 -71.87) rotate(14.54)" xlink:href="#linear-gradient"/><linearGradient id="linear-gradient-10" x1="290.38" y1="311.12" x2="333.44" y2="399.34" gradientTransform="translate(83.78 -71.87) rotate(14.54)" xlink:href="#linear-gradient"/><linearGradient id="linear-gradient-11" x1="307.17" y1="327.59" x2="328.34" y2="399.76" gradientTransform="translate(83.78 -71.87) rotate(14.54)" xlink:href="#linear-gradient-2"/><linearGradient id="linear-gradient-12" x1="380.87" y1="323.21" x2="380.87" y2="371.02" gradientUnits="userSpaceOnUse"><stop offset="0" stop-color="#f4831f"/><stop offset="1" stop-color="#be222d" stop-opacity="0"/></linearGradient><linearGradient id="linear-gradient-13" x1="331.34" y1="358.88" x2="349.41" y2="330.73" gradientUnits="userSpaceOnUse"><stop offset="0" stop-color="#be222d" stop-opacity="0"/><stop offset="1" stop-color="#f4831f"/></linearGradient><linearGradient id="linear-gradient-14" x1="412.95" y1="322.07" x2="443.18" y2="360.07" xlink:href="#linear-gradient-12"/></defs><g class="cls-1"><g id="Layer_1" data-name="Layer 1"><path class="cls-2" d="M558.25,548.66s3.11-8.46,4.8-9.87,10.43-14.66,10.43-14.66l-9-4-24.81.28,13.53,18.33Z"/><path d="M73.84,517.81v43.87h22v11H62.82V517.81Z"/><path d="M102.8,517.81h11v54.82h-11Z"/><path d="M155.84,517.68v11h-22v11.05h16.53v11H133.8v22h-11v-55Z"/><path d="M195.82,517.68v11h-22v11.05h16.53v11H173.78v11h22v11H162.76v-55Z"/><path d="M218,561.84c3,0,6.4-2.53,6.4-5.57,0-5-6.72-5.71-10.51-7-6.68-2.28-12.58-7.76-12.58-15.23a16.72,16.72,0,0,1,33.28-2.31L223.67,534a5.56,5.56,0,0,0-11.12,0c0,4.93,6.25,6.25,10.06,7.38,6.91,2,13,7.26,13,14.89,0,9.25-8.29,16.71-17.52,16.71-8.48,0-16.14-6.22-17.39-14.38l10.94-2.33c0,3.06,3.33,5.55,6.42,5.55Z"/><path d="M278.53,517.81v10.92H265.06v43.9H254v-43.9h-13.5V517.81Z"/><path d="M295.86,517.81l10,19,10-19h12.48l-17,31.32v23.5H300.38v-23.5l-17-31.32Z"/><path d="M346.28,517.81v43.87h22v11H335.26V517.81Z"/><path d="M408.29,517.68v11h-22v11.05h16.53v11H386.25v11h22v11H375.24v-55Z"/><path d="M451.93,517.81v43.87h22v11H440.91V517.81Z"/><path d="M524,525.57a27.64,27.64,0,1,1-19.65-8.2A26.81,26.81,0,0,1,524,525.57Zm-31.45,7.82a16.25,16.25,0,0,0-4.9,11.8,16.73,16.73,0,1,0,4.9-11.8Z"/><path d="M623.22,548.11V517.68h11v56.07l-33-31.49v30.43h-11v-56Z"/><path d="M669,517.47a28,28,0,0,1,19.69,8.13l-7.86,7.85a16.22,16.22,0,0,0-11.76-4.93,15.94,15.94,0,0,0-11.77,4.93,16.66,16.66,0,0,0,0,23.6,15.88,15.88,0,0,0,11.77,4.9,16.64,16.64,0,0,0,15-9.59H668.46V541.85h28.16c.78,10.25-2.58,17.68-8,23.06A26.93,26.93,0,0,1,669,573a27.79,27.79,0,0,1-27.78-27.78,27,27,0,0,1,8.16-19.68,26.55,26.55,0,0,1,19.62-8.2Z"/><path d="M736.7,517.68v11h-22v11.05h16.53v11H714.66v11h22v11H703.65v-55Z"/><path d="M580,519.59l1.35-1.74H535.18l1.35,1.75c.13.17,13.45,17.43,15.42,20.45,1.84,2.83,2.61,5.58,2.61,15.3a31.66,31.66,0,0,1-.67,7.26,6.1,6.1,0,0,1-2.53,3.61c-2.19,1.47-6.23,4.16-7.31,4.75l-3.77,2h36l-3.78-2c-1.15-.62-5.18-3.33-7.31-4.76a6.08,6.08,0,0,1-2.51-3.56,31,31,0,0,1-.69-7.3c0-9.72.77-12.47,2.62-15.3C566.59,537,579.91,519.77,580,519.59Zm-19.31,18.89a16.3,16.3,0,0,0-2.44,6.13,16.46,16.46,0,0,0-2.44-6.13c-1.22-1.87-12.24-16.5-12.24-16.5a43.4,43.4,0,0,0,5.48.11c.58,0,.93,0,.93,0,4-.13,8.09-.3,12.2,1.12,3,1,5.7,2.27,8,2.66C570.22,525.85,561.62,537.12,560.73,538.48Z"/><path class="cls-3" d="M453.51,291.4c-4,43.42-39.39,26.54-45,58.7-28.94-45.83,15.28-59.5-7.23-106.13,5.63,28.94-56.09,51.92-25.73,112.56-14.47,1.6-46.64-16.08-47.44-49a125.81,125.81,0,0,0-3,14.44c1.71,2.87,3.37,5.77,4.94,8.73L325,333c-.26-.64-.56-1.27-.83-1.91-2.5,43.17,24.4,71.25,68.28,71.25C461.41,402.35,464,342.06,453.51,291.4Z"/><path class="cls-4" d="M513.23,315.08c5.7,24.23.12,31.23-11.4,40.62,20.66-30.64-17.1-45.61,20.66-81.95C451.24,284.44,425.63,390.1,472,398.49,518.93,407,541,368.52,513.23,315.08Z"/><path class="cls-5" d="M517.33,350.31c-10,8-13.93,16.91-26.87,15.92,17.78-37.61-14.28-42.6,13.51-82.5-39.19,20.66-68.58,91.71-36.34,109.73C491.85,407,515.34,392.1,517.33,350.31Z"/><path class="cls-6" d="M465.59,386.13c13.5,13.5,42.66,5,47.64-21.88-9.26,13.54-23.76,13.92-32.72,9.94,6.57-14.48,8-15.92,4-57.71C479.52,344.34,446.68,367.22,465.59,386.13Z"/><path class="cls-7" d="M338.52,231.53c-9.62,36.08,5.2,42.58,5.53,66.78-1.52-70,63.42-74,19.32-133.33,52.92,28.86,74.57,74.57,60.14,128.28,20.84-13.63,26.46-50.51,5.61-89,42.49,32.87,89.29,204.26-32.87,203.65C316.47,407.52,264,346.18,338.52,231.53Z"/><path class="cls-8" d="M328.09,279.63c-1.6,24.45,14.26,47.5,30.47,61.74C335.31,278,406.91,247.5,387.42,200.26c32.88,27.26,31.28,90.6,17.65,126.68,12.82-32.07,48.64-14.17,44.9-64.95,19.77,55.06,29.11,142.72-53.72,142.72C324.09,404.71,304,348.59,328.09,279.63Z"/><path class="cls-9" d="M328.9,307.7c.8,32.87,32.87,50.51,47.3,48.9-30.27-60.47,31.27-83.38,25.66-112.24,22.45,46.5-21.65,60.13,7.21,105.83C414.69,318.12,450,335,454,291.66,464.4,342.17,461.84,402.3,393,402.3,341.73,402.3,313.66,363.82,328.9,307.7Z"/><path class="cls-10" d="M280.71,318.23c-6.85,25.18-2.86,35.33,7.55,46.3-10.28-32.39,25.88-34.27,2.38-84.61,38.66,34.55,69,125,15.72,126.58C260.3,407.86,253.68,360.54,280.71,318.23Z"/><path class="cls-11" d="M273.52,353.39c7.14,9.55,8.64,18.6,20.59,20.74-3.5-38.43,14.25-29,11.22-69.24,18.69,31.78,44.27,94.6.09,98.88C287.14,405.54,265.5,391.71,273.52,353.39Z"/><path class="cls-12" d="M312.05,400.52c-15.39,9.08-36.83-9.17-35-34.68,6.26,11.49,15.19,19.33,24.24,17.83-5.47-13-3.57-29.94,9.95-53.21C301.56,354.73,344.22,381.56,312.05,400.52Z"/><path d="M373.36,422c-14.43,0-28.71-1.73-38.2-4.61-19.19-5.84-22.8-22.26-23.32-25.49-1-6.41-.85-16.62-.83-17.76,0-21.27,8.21-31.45,17.36-40.83,11.13-11.42,29.69-18,50.9-18a121.53,121.53,0,0,1,32,4.51c24.46,6.66,43.94,13.61,59.56,25.87,16.64,13.07,18.53,23.59,19.15,27,1,5.7,1.1,19.89-.9,27.09s-12.84,14.44-32.58,14.44c-2.19,0-4.48-.09-6.79-.26-2.77-.2-5.61-.3-8.44-.3-14.11,0-26.33,2.54-37.11,4.79l-.15,0c-3.22.67-6.26,1.3-9.23,1.84A124.15,124.15,0,0,1,373.36,422Z"/><path d="M485.18,373.59c-.77-4.32-3.17-12.93-17.37-24.09-15-11.78-33.61-18.41-57.84-25-37.21-10.14-65.28-1-78.13,12.17-8.2,8.4-16,17.62-16,37.57,0,0-.25,10.64.77,16.86.65,4,4.39,16.9,19.95,21.63s42.43,5.58,57.32,2.88S427,407.48,450,409.17s33-5.76,34.35-10.65C486.2,392,486.07,378.54,485.18,373.59Z"/><path class="cls-13" d="M421.78,410c.45-5,1.49-17,1.49-21.2,0-5.34-.76-11.69-4.06-15.76s-3.56-7.87-7.12-4.32-5.08,6.1-7.11,6.61-5.59-.25-9.15,2-3.56,3.56-1,6.61,6.36,3.56,7.12,9.65c.7,5.59.4,15.81.35,20C408.25,412.42,414.73,411.05,421.78,410Z"/><path class="cls-13" d="M358.35,331.77c-5.94,8.3-7.49,24,.38,30.65s16.8,13.22,23.66,7.63c0,0-1.47,4.53-4.52,5.3,0,0,10.54,4.5,14.61-.26,2.58-3,6.65-3.55,10-5.08s6.6-3.3,5.84-6.86-1.52-5.08-1.78-7.87-3.3-5.08-8.13-7.12S392,352,385.41,353a31.26,31.26,0,0,0,7.88-9.15c3-5.58,2.54-6.09,4.57-8.13s4.82-8.62,2.3-13.95a106.32,106.32,0,0,0-28.06-1.66A40.45,40.45,0,0,0,358.35,331.77Z"/><path class="cls-14" d="M386.64,373.5a14,14,0,0,1-1.58-.1,15.94,15.94,0,0,0,.92-2.19l2.45-8.56L380,367.12a5.13,5.13,0,0,1-3.42,1.25h0c-4.89,0-11.75-5.75-15.43-8.84-6-5-4.82-18.46.25-25.56a36.83,36.83,0,0,1,11.76-10.16c2.17-.16,4.39-.24,6.62-.24a106.1,106.1,0,0,1,17.49,1.51,11.12,11.12,0,0,1-2.08,8,12.9,12.9,0,0,0-3,4.53c-.45,1-1.07,2.33-2.23,4.46a59.63,59.63,0,0,1-6.41,9.16L376.11,359c3.93-.6,16.35-4.8,18.21-6.18a7.37,7.37,0,0,1,2.12-1.32,1.35,1.35,0,0,1,.47.13c5.63,2.37,5.83,4,5.84,4a26.36,26.36,0,0,0,1,5.07c.27,1,.55,2,.82,3.26.13.57-1,1.39-3.73,2.64-.81.37-1.75.7-2.74,1-2.68.94-6,2.11-8.51,5C389,373.35,387.66,373.5,386.64,373.5Z"/><path class="cls-13" d="M394.22,395.79c0-3.16-1.18-7.74-4.49-9.77s-6.6-2-12.19-3a27.16,27.16,0,0,1-12.71-6.35c-3.05-2.54-5.59-7.88-7.36-6.61s-3.31,3.31-3.31,9.66-1.27,9.4,1,13a16,16,0,0,1,3.05,9.65c0,2.83-.11,10.68-.15,13.78,12.94,1.17,26.87.87,36.18-.81C394.25,411.09,394.22,398.42,394.22,395.79Z"/><path class="cls-13" d="M324.18,378.65c4.07-2.28,8.64-9.14,9.4-12.95s-.76-8.39-.76-8.39,5.59,7.37,9.91,5.84,4.57-6.86,4.83-12.19a36.87,36.87,0,0,1,4.82-16c2.45-3.91,4.49-11.65,4.65-12.24-10.75,3-19.16,7.89-24.71,13.59-8.2,8.4-16,17.62-16,37.57,0,0,0,.18,0,.51C317.26,375.82,320.71,380.61,324.18,378.65Z"/><path class="cls-15" d="M322.41,375.32a6.63,6.63,0,0,1-2.3-2.11c.18-17.74,6.86-26,14.91-34.28a46.14,46.14,0,0,1,16.17-10.31,26.55,26.55,0,0,1-2,4.33,40.27,40.27,0,0,0-5.4,17.83c-.23,4.76-.53,8.19-2.32,8.82-1.1,0-3.85-2.23-5.65-4.57l-6.58,3.47a15.27,15.27,0,0,1,.64,6.45C329.32,367.8,325.38,373.59,322.41,375.32Z"/><path class="cls-13" d="M459.6,389.07c-.5-3.56-3.3-8.64-7.11-11.69s-4.57-1.27-10.16-2.79-11.18-4.32-13-4.32-5.08-.76-3.3,3.05,3.81,4.57,3.55,14.48c-.19,7.61.11,17.2.26,21.25a124.49,124.49,0,0,1,20.63-.24c2.93.22,5.64.28,8.16.23C459,404.72,460,392,459.6,389.07Z"/><path class="cls-13" d="M350.35,395.68c0-3.05-1.78-4.07-1.52-9.91S352.13,371,347.3,370s-7.11-1.27-10.41,3.05-7.63,8.13-7.88,15.5c-.23,6.57,1.52,15.4,1.91,21.2a31,31,0,0,0,6.13,2.6,90,90,0,0,0,12.79,2.73C350,411.05,350.35,398.24,350.35,395.68Z"/><path d="M365.24,329a17.17,17.17,0,0,0-3.06,3.87,23.2,23.2,0,0,0-2.06,4.4,31.62,31.62,0,0,0-1.6,9.52,22.45,22.45,0,0,0,1.5,9.4,19.37,19.37,0,0,0,5.74,7.8,15.55,15.55,0,0,1-7.16-7.15,19.85,19.85,0,0,1-1.7-4.93,25.11,25.11,0,0,1-.38-5.18,26.35,26.35,0,0,1,2.16-10,19.34,19.34,0,0,1,2.7-4.39A13.24,13.24,0,0,1,365.24,329Z"/><path d="M358.78,374.87a26.91,26.91,0,0,0,6.45,6.58,19,19,0,0,0,4,2,31.91,31.91,0,0,0,4.36,1.34c1.48.39,3,.68,4.52.93.76.13,1.52.25,2.29.34l1.15.14.57.07.67.1a9.87,9.87,0,0,1,4.38,2.39,8.48,8.48,0,0,1,2.65,4,9.81,9.81,0,0,0-3.25-3.22,9.94,9.94,0,0,0-4-1.63l-.5,0h-.6l-1.2-.06c-.8-.05-1.6-.13-2.39-.22a44.66,44.66,0,0,1-4.73-.86,21.93,21.93,0,0,1-8.81-4.09A18.79,18.79,0,0,1,358.78,374.87Z"/><path class="cls-16" d="M402.28,413.65c6-1.24,12.46-2.61,19.5-3.63.41-4.53,1.29-14.76,1.46-19.78-7.73,1.05-14.79,2.56-21.26,3.9C402.61,399.81,402.33,409.54,402.28,413.65Z"/><path class="cls-17" d="M486.08,377.78c-.1-1.53-.23-2.89-.39-3.94a34.73,34.73,0,0,1-.88,4.79,6.07,6.07,0,0,1-.44,1.09A7.81,7.81,0,0,0,486.08,377.78Z"/><path class="cls-16" d="M350.35,395.68v-.05a91.42,91.42,0,0,1-13.45-2.83,30.71,30.71,0,0,1-7.9-3.63c-.11,6.54,1.57,15.07,1.92,20.7a31.51,31.51,0,0,0,6,2.5,90.27,90.27,0,0,0,12.94,2.74C350,411.1,350.35,398.24,350.35,395.68Z"/><path class="cls-16" d="M459.64,389.45a83.17,83.17,0,0,1-9.2-.19,125.92,125.92,0,0,0-20.85.26c-.12,7.28.15,15.79.29,19.54a124.78,124.78,0,0,1,20.56-.23c2.95.22,5.69.28,8.23.22C459,404.9,460,392.94,459.64,389.45Z"/><path class="cls-16" d="M394.22,395.79v-.11c-9.5,1.71-23.84,2-37,.74a15.07,15.07,0,0,1,1,5.86c0,2.83-.11,10.7-.15,13.8,12.95,1.15,26.89.84,36.17-.84h0C394.25,411.06,394.22,398.41,394.22,395.79Z"/><path class="cls-13" d="M467.48,371c-5.59-2.79-10.16-3-14.74-6.86s-13.21-5.08-13.21-5.08,6.61-1.78,9.66-1,7.11-1,3.05-3.3-5.85-7.62-5.85-11.94c0,0,3.3,7.37,7.37,8.38,3.39.85,6.8-4.27,8.29-5.72h0s.23-.24.51-.48c-14-9.28-30.88-15.09-52.11-20.88-2-.55-4-1-5.95-1.47.08.42,1.17,6.63-.79,11.78-2,5.34-4.32,8.13-2.29,9.66s8.38.76,10.93,2.54,5.59,1.52,8.38,1.52,4.83,3.56,4.83,3.56a11.55,11.55,0,0,0-8.9-1c-4.82,1.53-5.58,6.86-4.06,8.39s7.11,5.84,13,5.33S437.24,367,441.82,369s7.62.51,10.42,3.56,5.84,7.87,10.92,10.92,10.93,1.52,11.69-1.78S473.07,373.83,467.48,371Z"/><path class="cls-18" d="M468.91,381.36a7.61,7.61,0,0,1-3.81-1.11c-3.22-1.93-5.61-4.87-7.72-7.45-.76-.94-1.49-1.83-2.23-2.65a48.87,48.87,0,0,0,5.09,2,47.29,47.29,0,0,1,5.55,2.23c4.23,2.12,5.58,5.11,5.4,6.35a3.56,3.56,0,0,1-2.28.61Zm-18.52-14.24a20.72,20.72,0,0,0-3-.58,13.62,13.62,0,0,1-4-1l-1.51-.68c-4.19-1.9-9.39-4.27-15-4.27-.54,0-1.09,0-1.64.07-.21,0-.42,0-.63,0-3.75,0-7.52-2.68-8.93-3.9a2.88,2.88,0,0,1,2.13-2.49,6.7,6.7,0,0,1,2.05-.31,8.2,8.2,0,0,1,3.75.95l12.26,7.25-7-12.34c-.32-.56-3.26-5.46-8.1-5.46h-1.9c-1.91,0-3.3-.14-4.32-.85-2.12-1.48-4.94-1.77-7.66-2.05-.59-.06-1.33-.14-2-.23.2-.47.44-1,.65-1.45.49-1.1,1.12-2.47,1.71-4a24.33,24.33,0,0,0,1.41-8.24l.82.22c15.15,4.13,28.11,8.25,39.34,13.73l-6.18,1.33a20,20,0,0,0,3.46,11.32,43.32,43.32,0,0,0-7.53,1.3l.43,7.37c2.12.32,8.29,1.7,11.35,4.25Zm4.17-19.6c-1.06-.4-2.95-2.76-4.26-5.27,2.21,1.12,4.34,2.29,6.42,3.53A7.17,7.17,0,0,1,454.56,347.52Z"/><path class="cls-13" d="M475.1,355.14a77.73,77.73,0,0,0-6.81-6l-.69-.51a1.35,1.35,0,0,0-.22.14c-1.24.93-8.83,6.76-9.3,9.56-.51,3.05,3.05,4.06,6.6,2.79s6.6-5.5,10.41-6Z"/><path class="cls-13" d="M485.66,373.23c-.58-3.24-2.07-8.88-8.74-16.19h0s-4.59,2-4.59,4.83.76,4.58,4.06,7.63,4.58,4.57,4.32,8.13,2.84,4.11,5.44.07A41.66,41.66,0,0,0,485.66,373.23Z"/><path d="M472.44,377.34a3.77,3.77,0,0,1,.49,1.68,2.73,2.73,0,0,1-.59,1.69,4.51,4.51,0,0,1-3.22,1.5,8.43,8.43,0,0,1-3.55-.59,15,15,0,0,1-3.11-1.75,29.57,29.57,0,0,1-5.18-4.81c-1.56-1.75-3-3.65-4.53-5.28a5.71,5.71,0,0,0-2.77-1.56c-1.08-.27-2.24-.36-3.41-.58a15.58,15.58,0,0,1-3.45-1c-1.1-.46-2.12-1-3.18-1.48a47.52,47.52,0,0,0-6.43-2.6,20.08,20.08,0,0,0-6.84-1,18.88,18.88,0,0,1,7,.58,46.43,46.43,0,0,1,6.61,2.37l3.2,1.37a14.65,14.65,0,0,0,3.27.89c1.12.19,2.29.27,3.48.55A7.55,7.55,0,0,1,452,368a6.71,6.71,0,0,1,1.5,1.13c1.67,1.75,3,3.63,4.52,5.38a31.43,31.43,0,0,0,5,4.76,15.25,15.25,0,0,0,2.89,1.79,7.86,7.86,0,0,0,3.27.68,4.15,4.15,0,0,0,3-1.16A2.87,2.87,0,0,0,472.44,377.34Z"/><path d="M521.7,388c-.5.71-1.05,1.39-1.59,2.07q-.61.75-1.26,1.47c-.32.36-.65.72-1,1.07s-.69.71-1,1.05-.84.79-1.27,1.17-.75.66-1.14,1c-.62.51-1.25,1-1.9,1.46-.3.22-.62.44-.93.65-.57.38-1.14.75-1.73,1.11l-.83.5a44.14,44.14,0,0,1-9.31,4l-8.4,8.4-3.93,3.93L461.24,442l-21.41-21.41q-3.84.07-7.5.36l23.38,23.39-50.73,0,22.92-22.93c-3.14.35-6.19.79-9.15,1.29L399.42,442,386,428.52c-2.34.21-4.81.38-7.38.48l15.27,15.27-44.41,0L364.67,429q-3.78-.13-7.46-.4L343.87,442l-30-30a27.21,27.21,0,0,1-7.28.58l4.31,4.3L285.81,442l-17.65-17.65L283.44,409a38.61,38.61,0,0,1-15.72-11.52,17,17,0,0,1-1-1.63l-14.44,14.67-21.11,21.06-16.6,16.5,1.31,3.33,11.52,28.44H573.09l11.52-28.44.81-2.71ZM248.29,444.19l15.94-15.93,15.95,15.95Zm43.14,0,23.41-23.41,23.43,23.44Zm175.33.1,24.55-24.55,24.59,24.58Zm28.48-28.48,13.14-13.14,26.15,26.15L521.39,442Zm31.63,28.52,11.59-11.58,11.59,11.59Z"/><path d="M54.65,54.31V69H25.25V83.71h22V98.37h-22v29.35H10.55V54.31Z"/><path d="M78.28,54.49V113h29.4v14.61H63.58V54.49Z"/><path d="M229.35,129.26l-33-74.77h15.56l17.38,40.07,17.42-40.07h15.74Z"/><path d="M325.26,64.84A35.83,35.83,0,0,1,336.2,91.11a37.11,37.11,0,0,1-37.16,37,37,37,0,0,1-37.12-37,36,36,0,0,1,10.89-26.27,36.93,36.93,0,0,1,52.45,0Zm-42,10.43A21.69,21.69,0,0,0,276.76,91a22.28,22.28,0,1,0,38-15.75,22.2,22.2,0,0,0-31.45,0Z"/><path d="M389.41,98.73V54.49H404.2V98.78a29.58,29.58,0,0,1-59.16,0V54.49h14.79V98.73a14.79,14.79,0,0,0,29.58,0Z"/><path d="M415.86,54.49h23.86a26.86,26.86,0,0,1,19.15,7.45c4.45,4.45,7.07,8.51,7.07,16.6v1.91a23.71,23.71,0,0,1-4.62,13.93,16.74,16.74,0,0,1-8.76,6.76l17,26.49h-18l-21-32.35v32.35H415.9ZM450.79,79a9.9,9.9,0,0,0-2.9-7c-1.91-1.85-5.53-2.9-9.08-2.9h-8.26V89.25h5.68v0h4.9C446.48,89.29,450.79,84.57,450.79,79Z"/><path d="M520.34,54.49V86.84l18.73-32.35h17L534.4,91.65l25.14,36H541.66L520.34,97v30.67H505.68V54.49Z"/><path d="M568.47,54.49h14.7v73.14h-14.7Z"/><path d="M638.88,94.92V54.31h14.74v74.82l-44.1-42v40.6h-14.7V53Z"/><path d="M699.67,54a37.4,37.4,0,0,1,26.27,10.84L715.46,75.37a21.62,21.62,0,0,0-15.7-6.58,21.23,21.23,0,0,0-15.7,6.58,22.23,22.23,0,0,0,0,31.48,21.21,21.21,0,0,0,15.7,6.54,22.18,22.18,0,0,0,20-12.8H698.94v-14h37.57c1,13.67-3.44,23.59-10.66,30.76a35.92,35.92,0,0,1-26.23,10.85,35.45,35.45,0,0,1-26.17-10.85,35.55,35.55,0,0,1-10.89-26.22,36,36,0,0,1,10.89-26.27,35.39,35.39,0,0,1,26.17-10.93Z"/><path d="M766,113.23c4.06,0,8.54-3.37,8.54-7.43,0-6.67-9-7.61-14-9.36-8.92-3-16.79-10.36-16.79-20.32A22.31,22.31,0,0,1,788.1,73l-14.6,3.08a7.42,7.42,0,0,0-14.84,0c0,6.58,8.34,8.34,13.42,9.85,9.23,2.66,17.37,9.69,17.37,19.87,0,12.33-11.07,22.29-23.38,22.29-11.31,0-21.54-8.29-23.2-19.18l14.59-3.11c0,4.08,4.44,7.41,8.57,7.41Z"/><path d="M195.1,93.43c-2.79-14-11.16-31.6-21-38.17s-21.81-4.77-38.8,16.11c0,0-11.16,14.61-13.95,29.82s.92,24.75,13.19,24.75c21.3,0,25-9.42,33-9.84,11.16-.6,16,11,22.57,5.66C196.29,116.67,197.89,107.45,195.1,93.43Z"/><path class="cls-13" d="M137.42,121.29a33.86,33.86,0,0,1-7.26-.75c-5.51-1.25-6.42-8.84-5.53-15,.85-5.9,1.27-8.33,3.08-9.35a1.69,1.69,0,0,1,.85-.17,8.27,8.27,0,0,1,3,.79c.51.25,1.12.61,1.8,1,2.75,1.61,6.51,3.81,10.75,3.81h.35a36.49,36.49,0,0,0,18-5.62,7.52,7.52,0,0,1,4.06-1.43A3.5,3.5,0,0,1,170,96.94c.2,1.12.34,1.86-6.49,4.83-4.3,1.87-7.25,6.62-9.85,10.81-1.65,2.67-3.22,5.19-4.72,6.21C146.63,120.36,142.32,121.29,137.42,121.29Z"/><path class="cls-13" d="M185.42,116.6c-2,0-4.6-1.55-6.66-2.8l-1.06-.64c-2.19-1.29-4.82-2.6-7.66-2.6a9.2,9.2,0,0,0-3.93.89,10.25,10.25,0,0,1-3.87,1.13,1.29,1.29,0,0,1-1-.3c-.09-.12-.37-.64,0-2.12,1.05-3.81,5.81-5.54,6.42-5.74,4.86-.8,6.43-2.93,7.57-4.48.9-1.21,1.39-1.87,3.18-1.87a12.09,12.09,0,0,1,2.42.3,5.31,5.31,0,0,0,1,.11c2,0,3.18-1.26,4.23-2.38s1.78-1.83,3-1.83l.36,0c.86.1,2.4,4.22,2.25,10.4-.13,5.12-2.12,10-4.74,11.5A3,3,0,0,1,185.42,116.6Z"/><path class="cls-13" d="M144.09,94.27c-4.66,0-9-2.1-10.7-5.22a6.27,6.27,0,0,1,.37-6.67,141.2,141.2,0,0,1,11.69-15.59c7.2-6.76,13.46-10.08,19.09-10.08a14.69,14.69,0,0,1,6.78,1.69c6.77,3.44,12.36,12.77,14.19,19.8s.86,11.54-3.08,14a3.48,3.48,0,0,1-1.93.59h0a10.43,10.43,0,0,1-4.11-1.4A18.9,18.9,0,0,0,167.78,89h-.63A15.93,15.93,0,0,0,161,90.81C157.59,92.35,153.29,94.27,144.09,94.27ZM164.4,62.61a13.6,13.6,0,0,0-8.69,3.1,9.58,9.58,0,0,0-2.91,9.2,7.28,7.28,0,0,0,5.33,5.54,15.47,15.47,0,0,0,3.78.46c3.87,0,7.15-1.37,9-3.77s2.24-5.66,1.18-9.66C171.26,64.43,168.39,62.61,164.4,62.61Z"/><path d="M567.39,48.71l16.52-5.91a4.44,4.44,0,0,0,2.69-5.68L583.35,28l-4.47,5.81-10.2-7.59-2.77,12.22-7.31-1.13L561.71,46A4.45,4.45,0,0,0,567.39,48.71Z"/><g class="cls-19"><path d="M484.06,17C328.38-26.11,184.31,55.32,129.13,183.92c-18.92,36.38-23.76,99.43-23.76,99.43s24.12-53.85,72.84-102.26c8-7.91,30.84-35.33,66.77-48.22,0,.12,0,.24.07.37a122.79,122.79,0,0,0,4.86,17.51,76.1,76.1,0,0,0,8.16,15.83,73.62,73.62,0,0,1-2.39-17,116.8,116.8,0,0,1,1.13-16.78c.69-4.58,1.6-9.1,2.69-13.56C264.94,106.45,276,84.81,292.33,73c24.25-17.46,36.13-18.43,42.2-13.09s7.27,23.76,5.82,40a161.31,161.31,0,0,1-2.64,17.72c-1.25,4.72-2.7,9.4-4.42,14a115.57,115.57,0,0,1-7.11,15.24,74.1,74.1,0,0,1-10.28,13.7,77,77,0,0,0,14.79-9.92,126,126,0,0,0,12.72-13c2.16-2.6,4.24-5.29,6.25-8,9.09.32,20.59,1.43,29.24,4.69,16.73,6.31,32.25,12.86,58.2,33.71,0,0-5.08-7-10.09-13.62-5.3-7-5.43-15.24-2.28-22.75s21.83-42,57-42.68c0,0,10.19,8.24,8,28.37s-8.48,33.95-15.27,43.41c-2.89,4-6.43,8.68-9.54,12.73a13.38,13.38,0,0,0,1.43,17.89c8.17,7.74,22.8,21.27,27,32.38,0,0-4.29,21.14-22.72,46.12s-37.83,33.46-37.83,33.46,41.29-4.69,67.41-38.31c25.5-32.82,55.25-66.44,52.87-153.26,0,0,19.07,23.61,18.43,88s-6.15,84.06-6.79,93.12,5.17,18.75,3.55,34.59c-1.16,11.4-2.49,27-3.15,34.82a10.31,10.31,0,0,0,3.21,8.35l12.73,12a20.51,20.51,0,0,1,4.8,23.07l-21.37,49.66a28.34,28.34,0,0,1-17.28,15.77c-22.12,7.2-71,20.94-121.85,20.94-68.87,0-101.85-18.11-125.77-34.92,0,0,19.4,26.83,77.92,44,22.07,6.46,49.66,9.62,75.47,11,24.95,1.38,30,36,6.42,44.38a177.31,177.31,0,0,1-51.18,10.23c-72.75,3.23-109.93-.65-181.38-40.1-27.05-14.93-49.09-35.23-66-54.7A294.23,294.23,0,0,0,400,594.63c188.57,0,335.76-177.14,284.24-374.1C658.48,122,582.16,44.15,484.06,17Z"/><path d="M498.92,429.29s20.44-28.66-5.44-35.08c-20.69-5.13-58.39,34-58.39,34S492.87,397.44,498.92,429.29Z"/><path d="M299.58,289.55s-3.77,23.86,7.53,33.91,33.92,6.28,40.2,1.26C347.31,324.72,317.24,320.64,299.58,289.55Z"/></g></g></g></svg>