<svg xmlns="http://www.w3.org/2000/svg" xmlns:xlink="http://www.w3.org/1999/xlink" viewBox="0 0 730 530"><defs><style>.cls-1{isolation:isolate;}.cls-2,.cls-3,.cls-37{fill:none;}.cls-2,.cls-3{stroke:#753523;stroke-linejoin:round;stroke-width:4px;}.cls-2{stroke-linecap:round;}.cls-4{fill:url(#linear-gradient);}.cls-10,.cls-13,.cls-16,.cls-5{mix-blend-mode:screen;}.cls-5{fill:url(#linear-gradient-2);}.cls-6{fill:url(#linear-gradient-3);}.cls-7{fill:url(#linear-gradient-4);}.cls-8{fill:url(#linear-gradient-5);}.cls-9{fill:url(#linear-gradient-6);}.cls-10{fill:url(#linear-gradient-7);}.cls-11{fill:url(#linear-gradient-8);}.cls-12{fill:url(#linear-gradient-9);}.cls-13{fill:url(#linear-gradient-10);}.cls-14{fill:url(#linear-gradient-11);}.cls-15{fill:url(#linear-gradient-12);}.cls-16{fill:url(#linear-gradient-13);}.cls-17{fill:#fad1c0;}.cls-18{fill:#be222d;}.cls-19{fill:url(#linear-gradient-14);}.cls-20{fill:url(#linear-gradient-15);}.cls-21{fill:#931b22;}.cls-22{fill:#a91b25;}.cls-23{fill:url(#linear-gradient-16);}.cls-24{fill:url(#linear-gradient-17);}.cls-25{fill:url(#linear-gradient-18);}.cls-26{fill:url(#linear-gradient-19);}.cls-27{fill:url(#linear-gradient-20);}.cls-28{fill:url(#linear-gradient-21);}.cls-29{fill:url(#linear-gradient-22);}.cls-30{fill:url(#linear-gradient-23);}.cls-31{fill:url(#linear-gradient-24);}.cls-32{fill:url(#linear-gradient-25);}.cls-33{fill:url(#linear-gradient-26);}.cls-34{fill:url(#linear-gradient-27);}.cls-35{fill:url(#linear-gradient-28);}.cls-36{fill:#fde9e2;}.cls-37{stroke:#fcf8c8;stroke-miterlimit:10;stroke-width:0.5px;}.cls-38{fill:url(#linear-gradient-29);}.cls-39{fill:url(#linear-gradient-30);}.cls-40{fill:url(#linear-gradient-31);}.cls-41{fill:url(#linear-gradient-32);}.cls-42{fill:url(#linear-gradient-33);}.cls-43{fill:url(#linear-gradient-34);}.cls-44{fill:url(#linear-gradient-35);}.cls-45{fill:url(#linear-gradient-36);}.cls-46{fill:url(#linear-gradient-37);}.cls-47{fill:url(#linear-gradient-38);}.cls-48{fill:url(#linear-gradient-39);}.cls-49{fill:url(#linear-gradient-40);}.cls-50{fill:url(#linear-gradient-41);}.cls-51{fill:url(#linear-gradient-42);}.cls-52{fill:url(#linear-gradient-43);}.cls-53{opacity:0.05;}</style><linearGradient id="linear-gradient" x1="409.08" y1="463.06" x2="401.7" y2="455.73" gradientTransform="matrix(-1, 0, 0, 1, 907.22, 0)" gradientUnits="userSpaceOnUse"><stop offset="0" stop-color="#753423"/><stop offset="0.54" stop-color="#b15c3a"/><stop offset="0.95" stop-color="#753423"/></linearGradient><linearGradient id="linear-gradient-2" x1="355.39" y1="271.1" x2="355.39" y2="439.53" gradientUnits="userSpaceOnUse"><stop offset="0"/><stop offset="1" stop-color="#f4831f"/></linearGradient><linearGradient id="linear-gradient-3" x1="214.61" y1="479.35" x2="207.3" y2="472.09" gradientTransform="matrix(1, 0, 0, 1, 0, 0)" xlink:href="#linear-gradient"/><linearGradient id="linear-gradient-4" x1="358.46" y1="371.75" x2="358.46" y2="497.08" gradientUnits="userSpaceOnUse"><stop offset="0" stop-color="#ed2f24" stop-opacity="0"/><stop offset="1" stop-color="#fced09"/></linearGradient><linearGradient id="linear-gradient-5" x1="532.21" y1="358.89" x2="548.21" y2="459.65" gradientTransform="matrix(-1, 0, 0, 1, 996.83, 0)" gradientUnits="userSpaceOnUse"><stop offset="0" stop-color="#ed2f24"/><stop offset="1" stop-color="#fced09"/></linearGradient><linearGradient id="linear-gradient-6" x1="505.33" y1="336.45" x2="558.34" y2="445.05" xlink:href="#linear-gradient-5"/><linearGradient id="linear-gradient-7" x1="525.04" y1="366.35" x2="547.91" y2="444.31" gradientTransform="matrix(-1, 0, 0, 1, 996.83, 0)" xlink:href="#linear-gradient-2"/><linearGradient id="linear-gradient-8" x1="337.42" y1="281.14" x2="367.52" y2="470.63" gradientTransform="matrix(1, 0, 0, 1, 0, 0)" xlink:href="#linear-gradient-5"/><linearGradient id="linear-gradient-9" x1="355.32" y1="236.82" x2="355.32" y2="447.07" gradientTransform="matrix(1, 0, 0, 1, 0, 0)" xlink:href="#linear-gradient-5"/><linearGradient id="linear-gradient-10" x1="356.04" y1="271.57" x2="356.04" y2="439.54" xlink:href="#linear-gradient-2"/><linearGradient id="linear-gradient-11" x1="294.58" y1="371.34" x2="309.83" y2="467.36" gradientTransform="translate(73.87 -64.21) rotate(14.54)" xlink:href="#linear-gradient-5"/><linearGradient id="linear-gradient-12" x1="272.56" y1="362.89" x2="317.48" y2="454.93" gradientTransform="translate(73.87 -64.21) rotate(14.54)" xlink:href="#linear-gradient-5"/><linearGradient id="linear-gradient-13" x1="290.07" y1="380.07" x2="312.16" y2="455.36" gradientTransform="translate(73.87 -64.21) rotate(14.54)" xlink:href="#linear-gradient-2"/><linearGradient id="linear-gradient-14" x1="343.38" y1="347.4" x2="343.38" y2="433.84" gradientUnits="userSpaceOnUse"><stop offset="0.27" stop-color="#f6b42c"/><stop offset="0.4" stop-color="#ed772d"/><stop offset="0.6" stop-color="#ed2f24"/><stop offset="1" stop-color="#be222d"/></linearGradient><linearGradient id="linear-gradient-15" x1="283.02" y1="423.72" x2="326.29" y2="356.3" gradientUnits="userSpaceOnUse"><stop offset="0" stop-color="#be222d"/><stop offset="0.4" stop-color="#ed2f24"/><stop offset="0.6" stop-color="#ed772d"/><stop offset="0.73" stop-color="#f6b42c"/></linearGradient><linearGradient id="linear-gradient-16" x1="351.42" y1="342.87" x2="427.28" y2="432.43" gradientUnits="userSpaceOnUse"><stop offset="0.27" stop-color="#f6b42c"/><stop offset="0.4" stop-color="#ed772d"/><stop offset="0.6" stop-color="#ed2f24"/><stop offset="0.98" stop-color="#be222d"/></linearGradient><linearGradient id="linear-gradient-17" x1="365" y1="516" x2="365" y2="501.22" gradientUnits="userSpaceOnUse"><stop offset="0" stop-color="#753423"/><stop offset="0.54" stop-color="#b15c3a"/><stop offset="1" stop-color="#753423"/></linearGradient><linearGradient id="linear-gradient-18" x1="41.16" y1="81.23" x2="41.16" y2="16.07" gradientTransform="matrix(1, 0, 0, 1, 0, 0)" xlink:href="#linear-gradient-5"/><linearGradient id="linear-gradient-19" x1="88.23" y1="81.15" x2="88.23" y2="16.23" gradientTransform="matrix(1, 0, 0, 1, 0, 0)" xlink:href="#linear-gradient-5"/><linearGradient id="linear-gradient-20" x1="215.87" y1="82.6" x2="215.87" y2="16.23" gradientTransform="matrix(1, 0, 0, 1, 0, 0)" xlink:href="#linear-gradient-5"/><linearGradient id="linear-gradient-21" x1="277.69" y1="81.6" x2="277.69" y2="15.71" gradientTransform="matrix(1, 0, 0, 1, 0, 0)" xlink:href="#linear-gradient-5"/><linearGradient id="linear-gradient-22" x1="344.76" y1="81.76" x2="344.76" y2="16.23" gradientTransform="matrix(1, 0, 0, 1, 0, 0)" xlink:href="#linear-gradient-5"/><linearGradient id="linear-gradient-23" x1="405.21" y1="81.15" x2="405.21" y2="16.23" gradientTransform="matrix(1, 0, 0, 1, 0, 0)" xlink:href="#linear-gradient-5"/><linearGradient id="linear-gradient-24" x1="485.01" y1="81.15" x2="485.01" y2="16.23" gradientTransform="matrix(1, 0, 0, 1, 0, 0)" xlink:href="#linear-gradient-5"/><linearGradient id="linear-gradient-25" x1="523.36" y1="81.15" x2="523.36" y2="16.23" gradientTransform="matrix(1, 0, 0, 1, 0, 0)" xlink:href="#linear-gradient-5"/><linearGradient id="linear-gradient-26" x1="566.33" y1="82.48" x2="566.33" y2="14.86" gradientTransform="matrix(1, 0, 0, 1, 0, 0)" xlink:href="#linear-gradient-5"/><linearGradient id="linear-gradient-27" x1="633.25" y1="81.64" x2="633.25" y2="15.71" gradientTransform="matrix(1, 0, 0, 1, 0, 0)" xlink:href="#linear-gradient-5"/><linearGradient id="linear-gradient-28" x1="692.32" y1="81.65" x2="692.32" y2="15.66" gradientTransform="matrix(1, 0, 0, 1, 0, 0)" xlink:href="#linear-gradient-5"/><linearGradient id="linear-gradient-29" x1="83.38" y1="166.27" x2="83.38" y2="117.77" gradientTransform="matrix(1, 0, 0, 1, 0, 0)" xlink:href="#linear-gradient-5"/><linearGradient id="linear-gradient-30" x1="109.01" y1="166.27" x2="109.01" y2="117.77" gradientTransform="matrix(1, 0, 0, 1, 0, 0)" xlink:href="#linear-gradient-5"/><linearGradient id="linear-gradient-31" x1="136.44" y1="166.33" x2="136.44" y2="117.65" gradientTransform="matrix(1, 0, 0, 1, 0, 0)" xlink:href="#linear-gradient-5"/><linearGradient id="linear-gradient-32" x1="171.82" y1="166.33" x2="171.82" y2="117.65" gradientTransform="matrix(1, 0, 0, 1, 0, 0)" xlink:href="#linear-gradient-5"/><linearGradient id="linear-gradient-33" x1="206.22" y1="166.64" x2="206.22" y2="117.34" gradientTransform="matrix(1, 0, 0, 1, 0, 0)" xlink:href="#linear-gradient-5"/><linearGradient id="linear-gradient-34" x1="242.81" y1="166.27" x2="242.81" y2="117.77" gradientTransform="matrix(1, 0, 0, 1, 0, 0)" xlink:href="#linear-gradient-5"/><linearGradient id="linear-gradient-35" x1="283.83" y1="166.27" x2="283.83" y2="117.77" gradientTransform="matrix(1, 0, 0, 1, 0, 0)" xlink:href="#linear-gradient-5"/><linearGradient id="linear-gradient-36" x1="324.46" y1="166.27" x2="324.46" y2="117.77" gradientTransform="matrix(1, 0, 0, 1, 0, 0)" xlink:href="#linear-gradient-5"/><linearGradient id="linear-gradient-37" x1="359.84" y1="166.33" x2="359.84" y2="117.65" gradientTransform="matrix(1, 0, 0, 1, 0, 0)" xlink:href="#linear-gradient-5"/><linearGradient id="linear-gradient-38" x1="417.96" y1="166.27" x2="417.96" y2="117.77" gradientTransform="matrix(1, 0, 0, 1, 0, 0)" xlink:href="#linear-gradient-5"/><linearGradient id="linear-gradient-39" x1="459.49" y1="166.6" x2="459.49" y2="117.38" gradientTransform="matrix(1, 0, 0, 1, 0, 0)" xlink:href="#linear-gradient-5"/><linearGradient id="linear-gradient-40" x1="554.94" y1="167.27" x2="554.94" y2="116.74" gradientTransform="matrix(1, 0, 0, 1, 0, 0)" xlink:href="#linear-gradient-5"/><linearGradient id="linear-gradient-41" x1="605.14" y1="166.63" x2="605.14" y2="117.38" gradientTransform="matrix(1, 0, 0, 1, 0, 0)" xlink:href="#linear-gradient-5"/><linearGradient id="linear-gradient-42" x1="650.46" y1="166.33" x2="650.46" y2="117.65" gradientTransform="matrix(1, 0, 0, 1, 0, 0)" xlink:href="#linear-gradient-5"/><linearGradient id="linear-gradient-43" x1="507.2" y1="166.61" x2="507.2" y2="117.8" gradientTransform="matrix(1, 0, 0, 1, 0, 0)" xlink:href="#linear-gradient-5"/></defs><g class="cls-1"><g id="Layer_1" data-name="Layer 1"><line class="cls-2" x1="388.26" y1="399.73" x2="491.35" y2="502.82"/><line class="cls-2" x1="363.48" y1="439.26" x2="428.11" y2="503.89"/><line class="cls-2" x1="234.22" y1="439.26" x2="299.47" y2="504.51"/><polygon class="cls-3" points="322.79 358 178.26 504.41 551.64 504.41 449.55 400.55 443.08 418.58 413.51 403.61 322.79 358"/><polygon class="cls-4" points="552.91 502.35 456.54 405.41 456.54 422.47 541.97 507.9 552.63 507.9 552.91 502.35"/><path class="cls-5" d="M420.58,344.24c-4.19,45.3-41.1,27.68-47,61.23-30.19-47.81,15.94-62.07-7.55-110.71,5.87,30.19-58.51,54.16-26.84,117.43-15.1,1.67-48.65-16.78-49.49-51.17a130.66,130.66,0,0,0-3.15,15.06c1.78,3,3.52,6,5.15,9.11l-5.27,2.47c-.27-.67-.58-1.33-.86-2C283,430.7,311.06,460,356.84,460,428.82,460,431.49,397.09,420.58,344.24Z"/><line class="cls-2" x1="298.85" y1="439.26" x2="363.96" y2="504.37"/><line class="cls-2" x1="365.2" y1="504.35" x2="417.74" y2="451.81"/><polygon class="cls-6" points="176.23 502.35 239.91 438.11 239.91 455.16 187.18 507.9 176.52 507.9 176.23 502.35"/><line class="cls-3" x1="209.77" y1="476.49" x2="237.78" y2="504.51"/><line class="cls-2" x1="300.62" y1="504.31" x2="353.12" y2="451.81"/><line class="cls-2" x1="234.31" y1="504.24" x2="317.74" y2="420.81"/><ellipse class="cls-7" cx="358.46" cy="444.07" rx="120.54" ry="46.91"/><path class="cls-8" d="M482.88,369c5.95,25.27.12,32.58-11.89,42.37,21.56-32-17.84-47.58,21.56-85.49C418.21,337,391.49,447.21,439.81,456,488.83,464.84,511.87,424.7,482.88,369Z"/><path class="cls-9" d="M487.16,405.69c-10.38,8.31-14.53,17.65-28,16.61,18.55-39.23-14.9-44.43,14.09-86.06-40.89,21.55-71.55,95.68-37.91,114.48C460.58,464.84,485.08,449.29,487.16,405.69Z"/><path class="cls-10" d="M433.18,443.07c14.09,14.09,44.51,5.2,49.7-22.83-9.66,14.12-24.79,14.52-34.13,10.37,6.85-15.1,8.3-16.61,4.15-60.21C447.71,399.47,413.46,423.34,433.18,443.07Z"/><path class="cls-11" d="M300.61,281.77c-10,37.65,5.43,44.43,5.77,69.68-1.59-73,66.17-77.2,20.16-139.1,55.2,30.11,77.79,77.79,62.74,133.83,21.74-14.22,27.6-52.69,5.85-92.85,44.33,34.3,93.15,213.11-34.29,212.47C277.6,465.38,222.82,401.39,300.61,281.77Z"/><path class="cls-12" d="M289.73,332c-1.67,25.51,14.88,49.56,31.79,64.41-24.26-66.08,50.44-97.93,30.11-147.22,34.3,28.44,32.63,94.52,18.41,132.17,13.38-33.46,50.74-14.78,46.84-67.76,20.63,57.44,30.37,148.89-56,148.89C285.55,462.45,264.64,403.9,289.73,332Z"/><path class="cls-13" d="M290.57,361.24c.83,34.3,34.3,52.7,49.35,51-31.58-63.1,32.63-87,26.77-117.11,23.42,48.51-22.58,62.73,7.53,110.41,5.86-33.46,42.66-15.89,46.84-61.06,10.87,52.7,8.21,115.43-63.57,115.43C304,459.94,274.68,419.79,290.57,361.24Z"/><path class="cls-14" d="M240.3,372.23c-7.15,26.27-3,36.86,7.87,48.31-10.71-33.8,27-35.76,2.49-88.27,40.33,36,72,130.42,16.4,132.05C219,465.74,212.1,416.37,240.3,372.23Z"/><path class="cls-15" d="M232.8,408.92c7.45,10,9,19.4,21.48,21.63-3.66-40.09,14.87-30.27,11.71-72.23,19.49,33.15,46.18,98.69.09,103.16C247,463.32,224.44,448.89,232.8,408.92Z"/><path class="cls-16" d="M273,458.09c-16.06,9.47-38.43-9.58-36.55-36.18,6.53,12,15.84,20.16,25.28,18.6C256,426.9,258,409.27,272.12,385,262.06,410.31,306.56,438.3,273,458.09Z"/><line class="cls-3" x1="429.88" y1="504.31" x2="488.53" y2="445.65"/><line class="cls-3" x1="494.25" y1="504.24" x2="520.55" y2="477.94"/><path class="cls-17" d="M457.7,429.72c-.85-4.7-4-14.68-19.55-26.8-16.38-12.81-36.53-19.37-63-26.55-40.63-11-70.3-1.51-84.34,12.82-8.95,9.14-17.91,19.77-17.91,41.45,0,0-.81,11.36.3,18.11.72,4.36,4.8,18.38,21.79,23.52s46.34,6.06,62.6,3.12,36.2-8.82,61.31-7,36-6.26,37.52-11.57C458.41,449.72,458.67,435.1,457.7,429.72Z"/><path class="cls-18" d="M388.06,469.8c.49-5.47,1.63-18.59,1.63-23.16,0-5.82-.83-12.76-4.44-17.2s-3.89-8.6-7.77-4.72-5.55,6.66-7.77,7.22-6.1-.28-10,2.22-3.88,3.88-1.11,7.21,6.94,3.89,7.77,10.55c.76,6.1.44,17.26.38,21.86C373.29,472.43,380.37,470.92,388.06,469.8Z"/><path class="cls-19" d="M318.78,384.35c-6.48,9.06-8.17,26.25.43,33.47s18.34,14.43,25.84,8.33c0,0-1.62,5-4.95,5.79,0,0,11.52,4.91,16-.29,2.82-3.29,7.27-3.87,10.87-5.54s7.22-3.61,6.39-7.49-1.67-5.55-1.95-8.6-3.6-5.55-8.87-7.77-6.94,4.16-14.16,5.27a34,34,0,0,0,8.61-10c3.33-6.1,2.77-6.66,5-8.88s5.26-9.41,2.51-15.24a115.55,115.55,0,0,0-30.64-1.8A44,44,0,0,0,318.78,384.35Z"/><path class="cls-18" d="M358,454.26c0-3.45-1.3-8.45-4.91-10.67s-7.21-2.22-13.32-3.33a29.74,29.74,0,0,1-13.87-6.93c-3.33-2.78-6.11-8.61-8.05-7.22s-3.6,3.61-3.6,10.55-1.39,10.26,1.11,14.15,3.33,6.66,3.33,10.54c0,3.09-.12,11.67-.17,15,14.13,1.27,29.35,1,39.52-.88C358,471,358,457.13,358,454.26Z"/><path class="cls-20" d="M281.47,435.55c4.44-2.5,9.44-10,10.27-14.16s-.83-9.15-.83-9.15,6.1,8,10.82,6.38,5-7.49,5.27-13.32a40.39,40.39,0,0,1,5.27-17.48c2.67-4.27,4.91-12.73,5.07-13.37-11.74,3.23-20.92,8.62-27,14.84-8.95,9.18-17.46,19.25-17.46,41,0,0,0,.2,0,.56C273.91,432.46,277.68,437.68,281.47,435.55Z"/><path class="cls-18" d="M429.37,446.92c-.56-3.88-3.61-9.43-7.77-12.76s-5-1.39-11.1-3.05-12.21-4.72-14.15-4.72-5.55-.83-3.61,3.33,4.16,5,3.88,15.81c-.21,8.31.12,18.79.29,23.21a136.37,136.37,0,0,1,22.53-.26c3.19.24,6.16.31,8.9.25C428.74,464,429.82,450.13,429.37,446.92Z"/><path class="cls-18" d="M310.05,454.14c0-3.33-1.94-4.44-1.66-10.83s3.61-16.09-1.67-17.2-7.77-1.39-11.37,3.33-8.33,8.88-8.6,16.93c-.25,7.17,1.66,16.81,2.08,23.15a33.75,33.75,0,0,0,6.7,2.84,98.23,98.23,0,0,0,14,3C309.63,470.92,310.05,456.93,310.05,454.14Z"/><path class="cls-21" d="M366.76,473.76c6.53-1.35,13.61-2.85,21.3-4,.45-4.95,1.41-16.12,1.59-21.6-8.44,1.15-16.14,2.8-23.21,4.26C367.12,458.65,366.82,469.28,366.76,473.76Z"/><path class="cls-22" d="M275.71,434.22a28.26,28.26,0,0,1-2.16-6.8c-.21-1.26-.36-2.68-.48-4.17a70.08,70.08,0,0,0-.35,7.16v.19A17.6,17.6,0,0,0,275.71,434.22Z"/><path class="cls-22" d="M458.28,434.6c-.11-1.68-.25-3.16-.42-4.31a36.67,36.67,0,0,1-1,5.23,6.53,6.53,0,0,1-.48,1.2A8.91,8.91,0,0,0,458.28,434.6Z"/><path class="cls-21" d="M310.05,454.14v-.06A99.39,99.39,0,0,1,295.36,451a33.38,33.38,0,0,1-8.62-4c-.12,7.14,1.7,16.46,2.1,22.61a34.53,34.53,0,0,0,6.52,2.73,98.74,98.74,0,0,0,14.13,3C309.63,471,310.05,456.94,310.05,454.14Z"/><path class="cls-21" d="M429.4,447.34a91.52,91.52,0,0,1-10-.21,136.87,136.87,0,0,0-22.76.28c-.13,8,.17,17.25.32,21.34a137.56,137.56,0,0,1,22.44-.25c3.23.24,6.22.31,9,.24C428.72,464.21,429.74,451.15,429.4,447.34Z"/><path class="cls-21" d="M358,454.26s0-.09,0-.12c-10.37,1.87-26,2.17-40.44.81a16.47,16.47,0,0,1,1.14,6.4c0,3.09-.12,11.69-.17,15.07,14.15,1.25,29.37.92,39.5-.92h0C358,470.94,358,457.13,358,454.26Z"/><path class="cls-23" d="M438,427.22c-6.11-3.05-11.1-3.33-16.1-7.49s-14.42-5.55-14.42-5.55,7.21-1.94,10.54-1.11,7.77-1.11,3.33-3.61-6.38-8.32-6.38-13c0,0,3.6,8.05,8,9.16,3.7.92,7.44-4.67,9.06-6.25h0s.26-.26.56-.53c-15.24-10.13-33.71-16.48-56.91-22.8-2.19-.6-4.36-1.13-6.49-1.6.08.46,1.28,7.24-.87,12.87-2.22,5.82-4.71,8.87-2.49,10.54s9.15.83,11.93,2.77,6.1,1.67,9.15,1.67,5.27,3.88,5.27,3.88a12.59,12.59,0,0,0-9.71-1.11c-5.27,1.67-6.1,7.5-4.44,9.16s7.77,6.38,14.15,5.83,12.77,2.77,17.76,5,8.33.56,11.38,3.89,6.38,8.6,11.93,11.93,11.93,1.66,12.76-1.94S444.07,430.27,438,427.22Z"/><path class="cls-18" d="M446.29,409.87a82,82,0,0,0-7.44-6.55c-.25-.19-.51-.37-.75-.57l-.24.16c-1.35,1-9.65,7.38-10.16,10.44-.55,3.33,3.33,4.44,7.22,3s7.2-6,11.36-6.53Z"/><path class="cls-18" d="M457.83,429.63c-.64-3.54-2.27-9.7-9.56-17.69h0s-5,2.23-5,5.28.83,5,4.44,8.33,5,5,4.72,8.88,3.1,4.49,5.94.07A47.34,47.34,0,0,0,457.83,429.63Z"/><rect class="cls-24" x="175.38" y="501.22" width="379.24" height="14.78" rx="2.93"/><path class="cls-18" d="M56.15,20.65v13H30.05V46.75H49.62v13H30.05V85.82H17V20.65Z"/><path class="cls-18" d="M77.12,20.81v52h26.1v13H64.08V20.81Z"/><path class="cls-18" d="M211.23,87.19,182,20.81h13.81l15.43,35.57,15.46-35.57h14Z"/><path class="cls-18" d="M296.36,30a31.76,31.76,0,0,1,9.71,23.32,31.52,31.52,0,0,1-9.71,23.27,32.95,32.95,0,0,1-56.22-23.27A31.92,31.92,0,0,1,249.81,30a32.75,32.75,0,0,1,46.55,0Zm-37.25,9.26a19.74,19.74,0,0,0,0,27.95,19.8,19.8,0,0,0,33.75-14,19.08,19.08,0,0,0-5.84-14,19.69,19.69,0,0,0-27.91,0Z"/><path class="cls-18" d="M353.31,60.08V20.81h13.13V60.12a26.26,26.26,0,1,1-52.52,0V20.81h13.13V60.08a13.13,13.13,0,0,0,26.26,0Z"/><path class="cls-18" d="M376.78,20.81H398a23.8,23.8,0,0,1,17,6.61c4,3.95,6.29,7.56,6.29,14.74v1.69a21,21,0,0,1-4.11,12.37,14.79,14.79,0,0,1-7.78,6l15.11,23.52h-16L389.87,57V85.74H376.82Zm31,21.75a8.79,8.79,0,0,0-2.57-6.24c-1.7-1.65-4.91-2.58-8.06-2.58h-7.33V51.66h5v0h4.35C404,51.7,407.79,47.51,407.79,42.56Z"/><path class="cls-18" d="M469.53,20.81V49.53l16.63-28.72h15.07L482,53.8l22.32,31.94H488.46L469.53,58.51V85.74h-13V20.81Z"/><path class="cls-18" d="M512.26,20.81h13V85.74h-13Z"/><path class="cls-18" d="M574.76,56.7V20.65h13.09V87.07L548.7,49.77v36H535.65V19.45Z"/><path class="cls-18" d="M628.72,20.41A33.18,33.18,0,0,1,652,30l-9.3,9.3A19.23,19.23,0,0,0,628.8,33.5a18.84,18.84,0,0,0-13.93,5.84,19.05,19.05,0,0,0-5.8,14,19,19,0,0,0,5.8,14,18.8,18.8,0,0,0,13.93,5.8,19.68,19.68,0,0,0,17.8-11.36H628.08V49.29h33.34c.93,12.13-3,20.94-9.46,27.3a31.88,31.88,0,0,1-23.28,9.63,31.48,31.48,0,0,1-23.24-9.63,31.56,31.56,0,0,1-9.66-23.27A32,32,0,0,1,605.44,30a31.46,31.46,0,0,1,23.24-9.71Z"/><path class="cls-18" d="M687.56,73c3.61,0,7.59-3,7.59-6.6,0-5.93-8-6.75-12.45-8.31-7.91-2.7-14.91-9.2-14.91-18a19.81,19.81,0,0,1,39.43-2.73l-13,2.73a6.59,6.59,0,0,0-13.17,0c0,5.85,7.4,7.41,11.91,8.74,8.19,2.37,15.42,8.61,15.42,17.65,0,11-9.83,19.79-20.76,19.79-10,0-19.12-7.37-20.59-17L680,66.44c0,3.62,3.94,6.57,7.6,6.57Z"/><path class="cls-18" d="M57.29,19.51v13H31.19V45.61H50.77v13H31.19V84.67h-13V19.51Z"/><path class="cls-18" d="M78.27,19.67v52h26.1v13H65.22V19.67Z"/><path class="cls-18" d="M212.38,86,183.1,19.67h13.81l15.43,35.56L227.8,19.67h14Z"/><path class="cls-18" d="M297.51,28.85a31.8,31.8,0,0,1,9.71,23.32,32.93,32.93,0,0,1-33,32.86,32.84,32.84,0,0,1-32.94-32.86A32,32,0,0,1,251,28.85a32.79,32.79,0,0,1,46.56,0Zm-37.25,9.26a19.21,19.21,0,0,0-5.8,14,19.78,19.78,0,0,0,39.55,0,19.11,19.11,0,0,0-5.84-14,19.69,19.69,0,0,0-27.91,0Z"/><path class="cls-18" d="M354.45,58.94V19.67h13.13V59a26.26,26.26,0,0,1-52.51,0V19.67h13.12V58.94a13.13,13.13,0,0,0,26.26,0Z"/><path class="cls-18" d="M377.93,19.67h21.18a23.87,23.87,0,0,1,17,6.6c3.95,4,6.28,7.56,6.28,14.74v1.7a21,21,0,0,1-4.11,12.36,14.77,14.77,0,0,1-7.77,6l15.1,23.52H409.66L391,55.88V84.59H378Zm31,21.75a8.77,8.77,0,0,0-2.58-6.25c-1.69-1.64-4.91-2.57-8.05-2.57H391V50.52h5v0h4.35C405.12,50.56,408.94,46.37,408.94,41.42Z"/><path class="cls-18" d="M470.68,19.67V48.38l16.63-28.71h15.06l-19.21,33,22.31,31.94H489.6L470.68,57.37V84.59h-13V19.67Z"/><path class="cls-18" d="M513.4,19.67h13.05V84.59H513.4Z"/><path class="cls-18" d="M575.9,55.55v-36H589V85.92L549.85,48.63v36H536.8V18.3Z"/><path class="cls-18" d="M629.87,19.27a33.13,33.13,0,0,1,23.31,9.62l-9.3,9.3A19.2,19.2,0,0,0,630,32.36,18.87,18.87,0,0,0,616,38.19a19.05,19.05,0,0,0-5.8,14,19.05,19.05,0,0,0,5.8,14A18.85,18.85,0,0,0,630,71.94a19.71,19.71,0,0,0,17.8-11.35H629.22V48.14h33.35c.93,12.14-3.06,20.94-9.47,27.31a31.86,31.86,0,0,1-23.27,9.62,31.47,31.47,0,0,1-23.24-9.62,31.54,31.54,0,0,1-9.67-23.28,31.93,31.93,0,0,1,9.67-23.32,31.44,31.44,0,0,1,23.24-9.7Z"/><path class="cls-18" d="M688.71,71.81c3.6,0,7.58-3,7.58-6.6,0-5.92-7.95-6.75-12.44-8.31-7.92-2.69-14.91-9.19-14.91-18a19.81,19.81,0,0,1,39.42-2.74l-13,2.74a6.59,6.59,0,0,0-13.18,0c0,5.84,7.41,7.4,11.92,8.74,8.19,2.36,15.41,8.6,15.41,17.64,0,10.95-9.82,19.79-20.75,19.79-10,0-19.12-7.36-20.6-17l13-2.76c0,3.63,3.94,6.58,7.6,6.58Z"/><path class="cls-18" d="M58.44,18.36v13H32.34V44.46H51.91v13H32.34V83.53H19.29V18.36Z"/><path class="cls-18" d="M79.42,18.52v52h26.09v13H66.37V18.52Z"/><path class="cls-18" d="M213.52,84.89,184.24,18.52h13.82l15.42,35.57L229,18.52h14Z"/><path class="cls-18" d="M298.66,27.71A31.78,31.78,0,0,1,308.36,51a31.56,31.56,0,0,1-9.7,23.28A33,33,0,0,1,242.43,51a32,32,0,0,1,9.67-23.31,32.76,32.76,0,0,1,46.56,0ZM261.4,37a19.74,19.74,0,0,0,0,28,19.8,19.8,0,0,0,33.75-14,19,19,0,0,0-5.84-14,19.69,19.69,0,0,0-27.91,0Z"/><path class="cls-18" d="M355.6,57.79V18.52h13.13V57.83a26.26,26.26,0,1,1-52.52,0V18.52h13.13V57.79a13.13,13.13,0,0,0,26.26,0Z"/><path class="cls-18" d="M379.07,18.52h21.19a23.8,23.8,0,0,1,17,6.61c4,3.95,6.29,7.56,6.29,14.74v1.69a21,21,0,0,1-4.11,12.36,14.82,14.82,0,0,1-7.77,6l15.1,23.52H410.81L392.16,54.73V83.45H379.11Zm31,21.75A8.76,8.76,0,0,0,407.51,34c-1.7-1.65-4.91-2.58-8.06-2.58h-7.33V49.37h5v0h4.35C406.26,49.41,410.09,45.22,410.09,40.27Z"/><path class="cls-18" d="M471.82,18.52V47.24l16.63-28.72h15.07l-19.21,33,22.31,31.94H490.75L471.82,56.22V83.45h-13V18.52Z"/><path class="cls-18" d="M514.55,18.52H527.6V83.45H514.55Z"/><path class="cls-18" d="M577.05,54.41v-36h13.09V84.77L551,47.48V83.53h-13V17.15Z"/><path class="cls-18" d="M631,18.12a33.18,33.18,0,0,1,23.32,9.63l-9.3,9.3a19.23,19.23,0,0,0-13.94-5.84,18.85,18.85,0,0,0-13.93,5.84,19,19,0,0,0-5.8,14,19.05,19.05,0,0,0,5.8,14,18.8,18.8,0,0,0,13.93,5.8,19.7,19.7,0,0,0,17.8-11.36H630.37V47h33.34c.93,12.13-3.05,20.94-9.46,27.3A31.88,31.88,0,0,1,631,83.93a31.5,31.5,0,0,1-23.24-9.63A31.57,31.57,0,0,1,598.07,51a31.94,31.94,0,0,1,9.66-23.31A31.46,31.46,0,0,1,631,18Z"/><path class="cls-18" d="M689.86,70.66c3.6,0,7.58-3,7.58-6.59,0-5.93-8-6.76-12.45-8.31-7.91-2.7-14.9-9.2-14.9-18A19.81,19.81,0,0,1,709.51,35l-13,2.74a6.59,6.59,0,0,0-13.17,0c0,5.85,7.4,7.4,11.91,8.74,8.19,2.37,15.42,8.61,15.42,17.65,0,10.94-9.83,19.79-20.76,19.79-10,0-19.12-7.37-20.59-17l12.95-2.75c0,3.62,3.94,6.57,7.61,6.57Z"/><path class="cls-18" d="M59.58,17.22v13H33.49V43.31H53.06v13H33.49V82.38h-13V17.22Z"/><path class="cls-18" d="M80.56,17.38v52h26.1v13H67.51V17.38Z"/><path class="cls-18" d="M214.67,83.75,185.39,17.38H199.2l15.43,35.56,15.46-35.56h14Z"/><path class="cls-18" d="M299.8,26.56a31.8,31.8,0,0,1,9.71,23.32,31.6,31.6,0,0,1-9.71,23.28,33.08,33.08,0,0,1-46.56,0,31.76,31.76,0,0,1-9.66-23.28,32,32,0,0,1,9.66-23.32,32.76,32.76,0,0,1,46.56,0Zm-37.25,9.26a19.21,19.21,0,0,0-5.8,14,19.78,19.78,0,0,0,39.55,0,19.09,19.09,0,0,0-5.84-14,19.69,19.69,0,0,0-27.91,0Z"/><path class="cls-18" d="M356.74,56.64V17.38h13.13V56.69a26.26,26.26,0,0,1-52.51,0V17.38h13.13V56.64a13.13,13.13,0,0,0,26.25,0Z"/><path class="cls-18" d="M380.22,17.38H401.4a23.87,23.87,0,0,1,17,6.6c4,4,6.28,7.56,6.28,14.74v1.69a21,21,0,0,1-4.11,12.37,14.77,14.77,0,0,1-7.77,6L427.9,82.3H412L393.31,53.58V82.3H380.26Zm31,21.75a8.77,8.77,0,0,0-2.58-6.25c-1.69-1.64-4.9-2.57-8-2.57h-7.33V48.23h5v0h4.35C407.41,48.27,411.23,44.07,411.23,39.13Z"/><path class="cls-18" d="M473,17.38V46.09L489.6,17.38h15.06l-19.21,33L507.76,82.3H491.9L473,55.07V82.3H460V17.38Z"/><path class="cls-18" d="M515.69,17.38h13V82.3h-13Z"/><path class="cls-18" d="M578.19,53.26v-36h13.09V83.63l-39.14-37.3V82.38h-13V16Z"/><path class="cls-18" d="M632.16,17a33.18,33.18,0,0,1,23.32,9.63l-9.31,9.3a19.19,19.19,0,0,0-13.93-5.84A18.88,18.88,0,0,0,618.3,35.9a19.09,19.09,0,0,0-5.8,14,19.05,19.05,0,0,0,5.8,14,18.82,18.82,0,0,0,13.94,5.8A19.7,19.7,0,0,0,650,58.3H631.51V45.85h33.35c.93,12.14-3.05,20.94-9.47,27.31a31.9,31.9,0,0,1-23.27,9.62,31.51,31.51,0,0,1-23.24-9.62,31.54,31.54,0,0,1-9.67-23.28,31.93,31.93,0,0,1,9.67-23.32,31.45,31.45,0,0,1,23.24-9.71Z"/><path class="cls-18" d="M691,69.52c3.6,0,7.58-3,7.58-6.6,0-5.92-8-6.75-12.44-8.31-7.92-2.7-14.91-9.19-14.91-18a19.81,19.81,0,0,1,39.42-2.74L697.7,36.58a6.59,6.59,0,0,0-13.18,0c0,5.84,7.41,7.4,11.92,8.74,8.19,2.36,15.41,8.6,15.41,17.64,0,11-9.82,19.79-20.75,19.79-10,0-19.12-7.36-20.6-17l13-2.76c0,3.62,3.94,6.58,7.6,6.58Z"/><path class="cls-25" d="M60.73,16.07v13H34.63V42.17H54.2v13H34.63V81.23H21.58V16.07Z"/><path class="cls-26" d="M81.71,16.23v52H107.8v13H68.66V16.23Z"/><path class="cls-27" d="M215.81,82.6,186.53,16.23h13.82l15.42,35.56,15.47-35.56h14Z"/><path class="cls-28" d="M301,25.41a31.82,31.82,0,0,1,9.7,23.32A31.57,31.57,0,0,1,301,72a33.05,33.05,0,0,1-46.56,0,31.74,31.74,0,0,1-9.67-23.28,32,32,0,0,1,9.67-23.32,32.79,32.79,0,0,1,46.56,0Zm-37.26,9.27a19.74,19.74,0,0,0,0,28,19.8,19.8,0,0,0,33.75-14,19,19,0,0,0-5.84-14,19.69,19.69,0,0,0-27.91,0Z"/><path class="cls-29" d="M357.89,55.5V16.23H371V55.54a26.26,26.26,0,1,1-52.52,0V16.23h13.13V55.5a13.13,13.13,0,0,0,26.26,0Z"/><path class="cls-30" d="M381.37,16.23h21.18a23.85,23.85,0,0,1,17,6.61c3.95,3.95,6.28,7.56,6.28,14.74v1.69a21,21,0,0,1-4.11,12.36,14.76,14.76,0,0,1-7.77,6l15.1,23.52H413.1L394.45,52.44V81.15h-13Zm31,21.75a8.76,8.76,0,0,0-2.58-6.24c-1.69-1.65-4.91-2.58-8.06-2.58h-7.33V47.08h5v0h4.35C408.55,47.12,412.38,42.93,412.38,38Z"/><path class="cls-31" d="M474.11,16.23V45l16.64-28.72h15.06l-19.21,33,22.31,31.93H493L474.11,53.93V81.15h-13V16.23Z"/><path class="cls-32" d="M516.84,16.23h13V81.15h-13Z"/><path class="cls-33" d="M579.34,52.12v-36h13.09V82.48L553.28,45.19v36h-13V14.86Z"/><path class="cls-34" d="M633.3,15.83a33.2,33.2,0,0,1,23.32,9.62l-9.3,9.31a19.21,19.21,0,0,0-13.94-5.84,18.85,18.85,0,0,0-13.93,5.84,19,19,0,0,0-5.8,14,19.05,19.05,0,0,0,5.8,14,18.85,18.85,0,0,0,13.93,5.8,19.7,19.7,0,0,0,17.8-11.36H632.66V44.71H666c.93,12.13-3,20.94-9.46,27.3a31.88,31.88,0,0,1-23.28,9.63A31.5,31.5,0,0,1,610,72a31.57,31.57,0,0,1-9.66-23.28A32,32,0,0,1,610,25.41a31.45,31.45,0,0,1,23.24-9.7Z"/><path class="cls-35" d="M692.15,68.37c3.6,0,7.58-3,7.58-6.59,0-5.93-8-6.76-12.45-8.31-7.91-2.7-14.9-9.2-14.9-18a19.81,19.81,0,0,1,39.42-2.74l-13,2.74a6.59,6.59,0,0,0-13.17,0c0,5.85,7.4,7.4,11.91,8.74C705.77,46.58,713,52.82,713,61.86c0,10.94-9.83,19.79-20.75,19.79-10,0-19.12-7.37-20.6-17l13-2.75c0,3.62,3.93,6.57,7.6,6.57Z"/><path class="cls-18" d="M129,34.51s-9.91,13-12.38,26.47.81,22,11.7,22c18.91,0,22.2-8.36,29.26-8.74,9.91-.53,14.18,9.8,20,5,5.55-4.52,7-12.7,4.5-25.15S172.2,26,163.43,20.21,144.07,16,129,34.51Z"/><path class="cls-18" d="M130.09,33.41s-9.91,13-12.38,26.47.81,22,11.7,22c18.91,0,22.2-8.36,29.26-8.74,9.91-.53,14.18,9.8,20,5,5.55-4.52,7-12.7,4.5-25.14s-9.91-28.06-18.68-33.89S145.17,14.88,130.09,33.41Z"/><path class="cls-18" d="M131.19,32.31s-9.91,13-12.38,26.47.81,22,11.7,22c18.91,0,22.2-8.36,29.26-8.74,9.91-.53,14.18,9.8,20,5,5.55-4.52,7-12.7,4.5-25.14S174.4,23.84,165.63,18,146.27,13.78,131.19,32.31Z"/><path class="cls-17" d="M132.29,31.21s-9.91,13-12.38,26.47.81,22,11.7,22c18.91,0,22.2-8.36,29.26-8.74,9.91-.53,14.18,9.8,20,5,5.55-4.52,7-12.7,4.5-25.14s-9.91-28.06-18.69-33.88S147.37,12.68,132.29,31.21Z"/><path class="cls-18" d="M140.6,26.51a125.59,125.59,0,0,0-10.47,14c-3.86,6.22,2.37,12.05,10,12.05,13.25,0,15.56-4.49,20.51-4.69,6.94-.29,9.94,5.26,14,2.7,3.89-2.43,4.89-6.82,3.15-13.5S170.89,22,164.74,18.83,151.17,16.56,140.6,26.51Z"/><path class="cls-18" d="M129.44,53s-2.84-1.37-4.34-.52c-2.06,1.17-2.44,3.66-3.22,9s-.11,13.06,5.67,14.37,13.77.78,17.44-1.7,6.77-12.41,12.77-15,6.66-3.53,6.33-5.36-3.44-4.57-8.22-1.43a31.63,31.63,0,0,1-15.44,4.83C135.88,57.26,131.77,54.13,129.44,53Z"/><path class="cls-18" d="M160.89,59.6s-5.26,1.61-6.41,5.78,2.18,3.9,5.61,2.29,6.63-.14,9.37,1.48,6.52,4.3,9.26,2.69,4.58-6.32,4.69-11-.91-10-2.86-10.22c-3.66-.4-4,4.38-7.54,3.63C165.35,52.61,169.23,58.26,160.89,59.6Z"/><path class="cls-36" d="M164,28c-1.29-4.83-9.22-4.39-12.95-1.1s-3.29,10.1,1.76,11.42S166.66,37.89,164,28Z"/><path class="cls-18" d="M163.5,28.39c-1.21-4.57-8.71-4.15-12.23-1a6.89,6.89,0,0,0-1,1.15c3.71-2.67,10.48-2.82,11.63,1.51.84,3.14.45,5.42-.61,7C163.43,35.53,164.69,32.83,163.5,28.39Z"/><path class="cls-37" d="M60.73,16.07v13H34.63V42.17H54.2v13H34.63V81.23H21.58V16.07Z"/><path class="cls-37" d="M81.71,16.23v52H107.8v13H68.66V16.23Z"/><path class="cls-37" d="M215.81,82.6,186.53,16.23h13.82l15.42,35.56,15.47-35.56h14Z"/><path class="cls-37" d="M301,25.41a31.82,31.82,0,0,1,9.7,23.32A31.57,31.57,0,0,1,301,72a33.05,33.05,0,0,1-46.56,0,31.74,31.74,0,0,1-9.67-23.28,32,32,0,0,1,9.67-23.32,32.79,32.79,0,0,1,46.56,0Zm-37.26,9.27a19.74,19.74,0,0,0,0,28,19.8,19.8,0,0,0,33.75-14,19,19,0,0,0-5.84-14,19.69,19.69,0,0,0-27.91,0Z"/><path class="cls-37" d="M357.89,55.5V16.23H371V55.54a26.26,26.26,0,1,1-52.52,0V16.23h13.13V55.5a13.13,13.13,0,0,0,26.26,0Z"/><path class="cls-37" d="M381.37,16.23h21.18a23.85,23.85,0,0,1,17,6.61c3.95,3.95,6.28,7.56,6.28,14.74v1.69a21,21,0,0,1-4.11,12.36,14.76,14.76,0,0,1-7.77,6l15.1,23.52H413.1L394.45,52.44V81.15h-13Zm31,21.75a8.76,8.76,0,0,0-2.58-6.24c-1.69-1.65-4.91-2.58-8.06-2.58h-7.33V47.08h5v0h4.35C408.55,47.12,412.38,42.93,412.38,38Z"/><path class="cls-37" d="M474.11,16.23V45l16.64-28.72h15.06l-19.21,33,22.31,31.93H493L474.11,53.93V81.15h-13V16.23Z"/><path class="cls-37" d="M516.84,16.23h13V81.15h-13Z"/><path class="cls-37" d="M579.34,52.12v-36h13.09V82.48L553.28,45.19v36h-13V14.86Z"/><path class="cls-37" d="M633.3,15.83a33.2,33.2,0,0,1,23.32,9.62l-9.3,9.31a19.21,19.21,0,0,0-13.94-5.84,18.85,18.85,0,0,0-13.93,5.84,19,19,0,0,0-5.8,14,19.05,19.05,0,0,0,5.8,14,18.85,18.85,0,0,0,13.93,5.8,19.7,19.7,0,0,0,17.8-11.36H632.66V44.71H666c.93,12.13-3,20.94-9.46,27.3a31.88,31.88,0,0,1-23.28,9.63A31.5,31.5,0,0,1,610,72a31.57,31.57,0,0,1-9.66-23.28A32,32,0,0,1,610,25.41a31.45,31.45,0,0,1,23.24-9.7Z"/><path class="cls-37" d="M692.15,68.37c3.6,0,7.58-3,7.58-6.59,0-5.93-8-6.76-12.45-8.31-7.91-2.7-14.9-9.2-14.9-18a19.81,19.81,0,0,1,39.42-2.74l-13,2.74a6.59,6.59,0,0,0-13.17,0c0,5.85,7.4,7.4,11.91,8.74C705.77,46.58,713,52.82,713,61.86c0,10.94-9.83,19.79-20.75,19.79-10,0-19.12-7.37-20.6-17l13-2.75c0,3.62,3.93,6.57,7.6,6.57Z"/><path class="cls-18" d="M74.67,121.6v38.82h19.5v9.69H64.92V121.6Z"/><path class="cls-18" d="M100.3,121.6h9.75v48.51H100.3Z"/><path class="cls-18" d="M147.23,121.48v9.72h-19.5V141h14.62v9.72H127.73v19.47H118V121.48Z"/><path class="cls-18" d="M182.61,121.48v9.72h-19.5V141h14.62v9.72H163.11v9.78h19.5v9.69H153.36V121.48Z"/><path class="cls-18" d="M202.25,160.56c2.7,0,5.67-2.24,5.67-4.93,0-4.43-5.95-5-9.3-6.21-5.91-2-11.14-6.87-11.14-13.48a14.8,14.8,0,0,1,29.46-2l-9.68,2a4.93,4.93,0,0,0-9.85,0c0,4.37,5.53,5.54,8.9,6.54,6.12,1.76,11.52,6.43,11.52,13.18,0,8.18-7.34,14.78-15.5,14.78-7.51,0-14.29-5.5-15.39-12.72l9.68-2.06c0,2.71,2.94,4.91,5.68,4.91Z"/><path class="cls-18" d="M255.8,121.6v9.66H243.88v38.85H234.1V131.26H222.16V121.6Z"/><path class="cls-18" d="M271.14,121.6,280,138.42l8.85-16.82h11l-15,27.71v20.8h-9.69v-20.8l-15-27.71Z"/><path class="cls-18" d="M315.75,121.6v38.82h19.5v9.69H306V121.6Z"/><path class="cls-18" d="M370.63,121.48v9.72h-19.5V141h14.62v9.72H351.13v9.78h19.5v9.69H341.38V121.48Z"/><path class="cls-18" d="M409.25,121.6v38.82h19.5v9.69H399.5V121.6Z"/><path class="cls-18" d="M473,128.46a24.49,24.49,0,1,1-17.39-7.25A23.78,23.78,0,0,1,473,128.46Zm-27.84,6.92a14.76,14.76,0,0,0,20.86,20.89,14.76,14.76,0,1,0-20.86-20.89Z"/><path class="cls-18" d="M560.82,148.41V121.48h9.78V171.1l-29.25-27.86v26.93H531.6V120.58Z"/><path class="cls-18" d="M601.34,121.3a24.81,24.81,0,0,1,17.43,7.19l-6.95,6.95a14.34,14.34,0,0,0-10.41-4.36A14.09,14.09,0,0,0,591,135.44a14.76,14.76,0,0,0,0,20.89,14.11,14.11,0,0,0,10.42,4.33,14.7,14.7,0,0,0,13.29-8.49H600.86v-9.29h24.92c.69,9.06-2.28,15.64-7.07,20.4a23.85,23.85,0,0,1-17.4,7.19,24.6,24.6,0,0,1-24.58-24.59A23.89,23.89,0,0,1,584,128.46a23.52,23.52,0,0,1,17.36-7.25Z"/><path class="cls-18" d="M661.25,121.48v9.72h-19.5V141h14.62v9.72H641.75v9.78h19.5v9.69H632V121.48Z"/><path class="cls-18" d="M522.62,123.18l1.19-1.55H482.92l1.19,1.55c.12.15,11.9,15.43,13.64,18.1,1.64,2.51,2.32,4.94,2.32,13.54a27.74,27.74,0,0,1-.6,6.42,5.38,5.38,0,0,1-2.24,3.2c-1.93,1.3-5.51,3.68-6.46,4.2l-3.34,1.8H519.3l-3.34-1.8c-1-.55-4.59-2.94-6.47-4.21a5.4,5.4,0,0,1-2.22-3.15,27.39,27.39,0,0,1-.61-6.46c0-8.6.68-11,2.32-13.54C510.72,138.61,522.5,123.33,522.62,123.18Zm-17.09,16.71a14.46,14.46,0,0,0-2.16,5.43,14.63,14.63,0,0,0-2.16-5.43c-1.08-1.65-10.84-14.6-10.84-14.6a37.41,37.41,0,0,0,4.86.1c.51,0,.82,0,.82,0,3.53-.11,7.15-.25,10.79,1a52.41,52.41,0,0,0,7.08,2.35S506.31,138.69,505.53,139.89Z"/><path class="cls-18" d="M75.63,120.64v38.82h19.5v9.69H65.88V120.64Z"/><path class="cls-18" d="M101.26,120.64H111v48.51h-9.74Z"/><path class="cls-18" d="M148.19,120.52v9.72h-19.5V140h14.62v9.72H128.69v19.47h-9.75V120.52Z"/><path class="cls-18" d="M183.57,120.52v9.72h-19.5V140h14.62v9.72H164.07v9.78h19.5v9.69H154.32V120.52Z"/><path class="cls-18" d="M203.21,159.6c2.69,0,5.67-2.24,5.67-4.93,0-4.43-5.95-5-9.3-6.21-5.92-2-11.14-6.87-11.14-13.47a14.8,14.8,0,0,1,29.45-2.05L208.21,135a4.92,4.92,0,0,0-9.84,0c0,4.36,5.53,5.53,8.9,6.53,6.12,1.76,11.52,6.43,11.52,13.18,0,8.18-7.34,14.79-15.5,14.79-7.51,0-14.29-5.51-15.39-12.73l9.68-2.06c0,2.71,2.94,4.91,5.68,4.91Z"/><path class="cls-18" d="M256.76,120.64v9.66H244.84v38.85h-9.78V130.3H223.12v-9.66Z"/><path class="cls-18" d="M272.09,120.64l8.85,16.82,8.85-16.82h11l-15,27.72v20.79H276.1V148.36l-15-27.72Z"/><path class="cls-18" d="M316.71,120.64v38.82h19.5v9.69H307V120.64Z"/><path class="cls-18" d="M371.59,120.52v9.72h-19.5V140h14.62v9.72H352.09v9.78h19.5v9.69H342.34V120.52Z"/><path class="cls-18" d="M410.21,120.64v38.82h19.5v9.69H400.46V120.64Z"/><path class="cls-18" d="M474,127.5a24.49,24.49,0,1,1-17.4-7.25A23.8,23.8,0,0,1,474,127.5Zm-27.84,6.92a14.76,14.76,0,0,0,0,20.89,14.78,14.78,0,1,0,0-20.89Z"/><path class="cls-18" d="M561.78,147.45V120.52h9.78v49.62l-29.25-27.86v26.93h-9.75V119.62Z"/><path class="cls-18" d="M602.3,120.34a24.81,24.81,0,0,1,17.43,7.19l-7,6.95a14.34,14.34,0,0,0-10.41-4.36,14.79,14.79,0,0,0,0,29.58,14.71,14.71,0,0,0,13.3-8.49H601.82v-9.29h24.92c.69,9.06-2.28,15.64-7.07,20.4a23.86,23.86,0,0,1-17.4,7.19,24.6,24.6,0,0,1-24.58-24.58,23.91,23.91,0,0,1,7.22-17.43,23.52,23.52,0,0,1,17.36-7.25Z"/><path class="cls-18" d="M662.2,120.52v9.72H642.71V140h14.62v9.72H642.71v9.78H662.2v9.69H633V120.52Z"/><path class="cls-18" d="M523.58,122.22l1.19-1.54H483.88l1.19,1.54c.12.15,11.9,15.43,13.64,18.1,1.63,2.51,2.32,4.94,2.32,13.54a27.74,27.74,0,0,1-.6,6.42,5.32,5.32,0,0,1-2.24,3.2c-1.93,1.3-5.51,3.68-6.47,4.2l-3.33,1.8h31.87l-3.34-1.8c-1-.55-4.59-2.94-6.47-4.21a5.34,5.34,0,0,1-2.22-3.15,27.32,27.32,0,0,1-.61-6.46c0-8.6.68-11,2.31-13.54C511.68,137.65,523.46,122.37,523.58,122.22Zm-17.1,16.72a14.33,14.33,0,0,0-2.15,5.42,14.51,14.51,0,0,0-2.16-5.42c-1.08-1.66-10.84-14.61-10.84-14.61a37.41,37.41,0,0,0,4.86.1c.51,0,.81,0,.81,0,3.54-.12,7.16-.26,10.8,1a52.41,52.41,0,0,0,7.08,2.35S507.27,137.73,506.48,138.94Z"/><path class="cls-18" d="M76.59,119.68V158.5H96.08v9.69H66.84V119.68Z"/><path class="cls-18" d="M102.21,119.68H112v48.51h-9.75Z"/><path class="cls-18" d="M149.15,119.56v9.72h-19.5v9.78h14.62v9.72H129.65v19.47H119.9V119.56Z"/><path class="cls-18" d="M184.52,119.56v9.72H165v9.78h14.62v9.72H165v9.78h19.49v9.69H155.28V119.56Z"/><path class="cls-18" d="M204.17,158.64c2.69,0,5.66-2.24,5.66-4.93,0-4.43-5.94-5-9.29-6.21-5.92-2-11.14-6.87-11.14-13.47A14.8,14.8,0,0,1,218.85,132L209.17,134a4.92,4.92,0,0,0-9.84,0c0,4.37,5.53,5.53,8.9,6.53,6.12,1.76,11.52,6.43,11.52,13.18,0,8.18-7.34,14.79-15.51,14.79-7.5,0-14.28-5.51-15.38-12.73l9.68-2.06c0,2.71,2.94,4.91,5.68,4.91Z"/><path class="cls-18" d="M257.72,119.68v9.66H245.8v38.85H236V129.34H224.08v-9.66Z"/><path class="cls-18" d="M273.05,119.68l8.85,16.82,8.85-16.82h11L286.74,147.4v20.79h-9.68V147.4l-15-27.72Z"/><path class="cls-18" d="M317.67,119.68V158.5h19.5v9.69H307.92V119.68Z"/><path class="cls-18" d="M372.54,119.56v9.72H353.05v9.78h14.62v9.72H353.05v9.78h19.49v9.69H343.3V119.56Z"/><path class="cls-18" d="M411.17,119.68V158.5h19.49v9.69H401.42V119.68Z"/><path class="cls-18" d="M474.94,126.54a24.48,24.48,0,1,1-17.39-7.25A23.77,23.77,0,0,1,474.94,126.54Zm-27.83,6.93A14.75,14.75,0,0,0,468,154.35a14.75,14.75,0,1,0-20.85-20.88Z"/><path class="cls-18" d="M562.74,146.49V119.56h9.78v49.62l-29.25-27.86v26.93h-9.75V118.66Z"/><path class="cls-18" d="M603.26,119.38a24.77,24.77,0,0,1,17.42,7.19l-6.95,7a14.35,14.35,0,0,0-10.41-4.37,14.79,14.79,0,0,0,0,29.58,14.71,14.71,0,0,0,13.3-8.48H602.78V141H627.7c.69,9.06-2.29,15.64-7.08,20.4a23.83,23.83,0,0,1-17.39,7.19A24.6,24.6,0,0,1,578.65,144a23.91,23.91,0,0,1,7.22-17.43,23.5,23.5,0,0,1,17.36-7.25Z"/><path class="cls-18" d="M663.16,119.56v9.72h-19.5v9.78h14.63v9.72H643.66v9.78h19.5v9.69H633.92V119.56Z"/><path class="cls-18" d="M524.54,121.26l1.19-1.54H484.84l1.19,1.54c.12.16,11.9,15.43,13.64,18.1,1.63,2.51,2.32,4.94,2.32,13.54a27.91,27.91,0,0,1-.6,6.43,5.37,5.37,0,0,1-2.24,3.19c-1.93,1.3-5.51,3.69-6.47,4.2l-3.34,1.8h31.88l-3.34-1.8c-1-.55-4.59-2.94-6.47-4.21a5.34,5.34,0,0,1-2.22-3.14,27.42,27.42,0,0,1-.61-6.47c0-8.6.68-11,2.31-13.54C512.63,136.69,524.42,121.42,524.54,121.26ZM507.44,138a14.51,14.51,0,0,0-2.16,5.42,14.33,14.33,0,0,0-2.15-5.42c-1.08-1.66-10.84-14.61-10.84-14.61a37.22,37.22,0,0,0,4.85.1c.52,0,.82,0,.82,0,3.54-.11,7.16-.26,10.8,1a52.41,52.41,0,0,0,7.08,2.35S508.23,136.77,507.44,138Z"/><path class="cls-18" d="M77.54,118.73v38.81H97v9.69H67.8v-48.5Z"/><path class="cls-18" d="M103.17,118.73h9.75v48.5h-9.75Z"/><path class="cls-18" d="M150.11,118.61v9.71h-19.5v9.78h14.62v9.72H130.61v19.47h-9.75V118.61Z"/><path class="cls-18" d="M185.48,118.61v9.71H166v9.78h14.63v9.72H166v9.78h19.5v9.69H156.24V118.61Z"/><path class="cls-18" d="M205.13,157.68c2.69,0,5.66-2.23,5.66-4.93,0-4.42-5.94-5-9.29-6.21-5.92-2-11.14-6.87-11.14-13.47a14.8,14.8,0,0,1,29.45-2l-9.68,2a4.92,4.92,0,0,0-9.84,0c0,4.37,5.53,5.53,8.9,6.53,6.12,1.77,11.52,6.43,11.52,13.18,0,8.18-7.34,14.79-15.51,14.79-7.5,0-14.28-5.5-15.39-12.73l9.68-2.06c0,2.71,2.95,4.92,5.68,4.92Z"/><path class="cls-18" d="M258.67,118.73v9.65H246.76v38.85H237V128.38H225v-9.65Z"/><path class="cls-18" d="M274,118.73l8.85,16.82,8.85-16.82h11L287.7,146.44v20.79H278V146.44l-15-27.71Z"/><path class="cls-18" d="M318.63,118.73v38.81h19.5v9.69H308.88v-48.5Z"/><path class="cls-18" d="M373.5,118.61v9.71H354v9.78h14.63v9.72H354v9.78h19.5v9.69H344.26V118.61Z"/><path class="cls-18" d="M412.13,118.73v38.81h19.49v9.69H402.38v-48.5Z"/><path class="cls-18" d="M475.9,125.59a24.46,24.46,0,1,1-17.39-7.26A23.73,23.73,0,0,1,475.9,125.59Zm-27.83,6.92a14.75,14.75,0,0,0,0,20.88,14.78,14.78,0,1,0,0-20.88Z"/><path class="cls-18" d="M563.7,145.54V118.61h9.78v49.61l-29.25-27.86v26.93h-9.75V117.7Z"/><path class="cls-18" d="M604.22,118.42a24.73,24.73,0,0,1,17.42,7.2l-6.95,6.95a14.35,14.35,0,0,0-10.41-4.37,14.79,14.79,0,0,0-10.41,25.25,14.06,14.06,0,0,0,10.41,4.33,14.73,14.73,0,0,0,13.3-8.48H603.74V140h24.91c.7,9.06-2.28,15.65-7.07,20.4a23.83,23.83,0,0,1-17.39,7.19A24.6,24.6,0,0,1,579.61,143a23.84,23.84,0,0,1,7.22-17.42,23.47,23.47,0,0,1,17.36-7.26Z"/><path class="cls-18" d="M664.12,118.61v9.71h-19.5v9.78h14.63v9.72H644.62v9.78h19.5v9.69H634.87V118.61Z"/><path class="cls-18" d="M525.49,120.3l1.19-1.54H485.79l1.2,1.54c.11.16,11.9,15.43,13.64,18.11,1.63,2.5,2.31,4.93,2.31,13.54a28,28,0,0,1-.59,6.42,5.37,5.37,0,0,1-2.24,3.19c-1.93,1.3-5.52,3.69-6.47,4.2l-3.34,1.8h31.88l-3.34-1.8c-1-.55-4.59-2.94-6.47-4.21a5.34,5.34,0,0,1-2.22-3.14,27.39,27.39,0,0,1-.61-6.46c0-8.61.68-11,2.31-13.54C513.59,135.73,525.38,120.46,525.49,120.3ZM508.4,137a14.51,14.51,0,0,0-2.16,5.42,14.34,14.34,0,0,0-2.16-5.42c-1.07-1.66-10.83-14.61-10.83-14.61a37.22,37.22,0,0,0,4.85.1c.52,0,.82,0,.82,0,3.54-.11,7.16-.26,10.8,1a53.86,53.86,0,0,0,7.08,2.35S509.19,135.81,508.4,137Z"/><path class="cls-38" d="M78.5,117.77v38.81H98v9.69H68.75v-48.5Z"/><path class="cls-39" d="M104.13,117.77h9.75v48.5h-9.75Z"/><path class="cls-40" d="M151.06,117.65v9.72H131.57v9.78h14.62v9.71H131.57v19.47h-9.75V117.65Z"/><path class="cls-41" d="M186.44,117.65v9.72h-19.5v9.78h14.63v9.71H166.94v9.78h19.5v9.69H157.19V117.65Z"/><path class="cls-42" d="M206.09,156.72c2.69,0,5.66-2.23,5.66-4.93,0-4.42-5.94-5-9.3-6.2-5.91-2-11.13-6.87-11.13-13.48a14.8,14.8,0,0,1,29.45-2l-9.68,2a4.92,4.92,0,0,0-9.84,0c0,4.37,5.53,5.53,8.9,6.53,6.12,1.77,11.52,6.43,11.52,13.18,0,8.18-7.34,14.79-15.51,14.79-7.5,0-14.28-5.5-15.39-12.73l9.68-2.06c0,2.71,3,4.92,5.68,4.92Z"/><path class="cls-43" d="M259.63,117.77v9.66H247.72v38.84h-9.78V127.43H226v-9.66Z"/><path class="cls-44" d="M275,117.77l8.85,16.82,8.84-16.82h11l-15,27.71v20.79H279V145.48l-15-27.71Z"/><path class="cls-45" d="M319.59,117.77v38.81h19.49v9.69H309.84v-48.5Z"/><path class="cls-46" d="M374.46,117.65v9.72H355v9.78h14.63v9.71H355v9.78h19.5v9.69H345.21V117.65Z"/><path class="cls-47" d="M413.08,117.77v38.81h19.5v9.69H403.33v-48.5Z"/><path class="cls-48" d="M476.86,124.63a24.48,24.48,0,1,1-17.39-7.25A23.72,23.72,0,0,1,476.86,124.63ZM449,131.55a14.75,14.75,0,0,0,0,20.88,14.77,14.77,0,1,0,0-20.88Z"/><path class="cls-49" d="M564.66,144.58V117.65h9.78v49.62L545.19,139.4v26.93h-9.75V116.74Z"/><path class="cls-50" d="M605.18,117.47a24.77,24.77,0,0,1,17.42,7.19l-7,7a14.34,14.34,0,0,0-10.41-4.36,14.08,14.08,0,0,0-10.41,4.36,14.75,14.75,0,0,0,0,20.88,14.06,14.06,0,0,0,10.41,4.33,14.71,14.71,0,0,0,13.3-8.48H604.7V139h24.91c.7,9.07-2.28,15.65-7.07,20.4a23.79,23.79,0,0,1-17.39,7.19,24.6,24.6,0,0,1-24.58-24.58,23.84,23.84,0,0,1,7.22-17.42,23.46,23.46,0,0,1,17.36-7.25Z"/><path class="cls-51" d="M665.08,117.65v9.72h-19.5v9.78h14.63v9.71H645.58v9.78h19.5v9.69H635.83V117.65Z"/><path class="cls-52" d="M526.45,119.34l1.19-1.54H486.75l1.19,1.54c.12.16,11.91,15.44,13.65,18.11,1.63,2.5,2.31,4.94,2.31,13.54a28,28,0,0,1-.59,6.42,5.37,5.37,0,0,1-2.24,3.19c-1.94,1.3-5.52,3.69-6.47,4.2l-3.34,1.81h31.88l-3.34-1.81c-1-.55-4.59-2.94-6.47-4.21a5.36,5.36,0,0,1-2.23-3.14,27.39,27.39,0,0,1-.61-6.46c0-8.6.69-11,2.32-13.54C514.55,134.78,526.33,119.5,526.45,119.34Zm-17.09,16.72a14.51,14.51,0,0,0-2.16,5.42,14.34,14.34,0,0,0-2.16-5.42c-1.08-1.65-10.83-14.61-10.83-14.61a35.54,35.54,0,0,0,4.85.1c.52,0,.82,0,.82,0,3.54-.11,7.16-.26,10.8,1a53.86,53.86,0,0,0,7.08,2.35S510.15,134.85,509.36,136.06Z"/><path class="cls-37" d="M78.5,117.77v38.81H98v9.69H68.75v-48.5Z"/><path class="cls-37" d="M104.13,117.77h9.75v48.5h-9.75Z"/><path class="cls-37" d="M151.06,117.65v9.72H131.57v9.78h14.62v9.71H131.57v19.47h-9.75V117.65Z"/><path class="cls-37" d="M186.44,117.65v9.72h-19.5v9.78h14.63v9.71H166.94v9.78h19.5v9.69H157.19V117.65Z"/><path class="cls-37" d="M206.09,156.72c2.69,0,5.66-2.23,5.66-4.93,0-4.42-5.94-5-9.3-6.2-5.91-2-11.13-6.87-11.13-13.48a14.8,14.8,0,0,1,29.45-2l-9.68,2a4.92,4.92,0,0,0-9.84,0c0,4.37,5.53,5.53,8.9,6.53,6.12,1.77,11.52,6.43,11.52,13.18,0,8.18-7.34,14.79-15.51,14.79-7.5,0-14.28-5.5-15.39-12.73l9.68-2.06c0,2.71,3,4.92,5.68,4.92Z"/><path class="cls-37" d="M259.63,117.77v9.66H247.72v38.84h-9.78V127.43H226v-9.66Z"/><path class="cls-37" d="M275,117.77l8.85,16.82,8.84-16.82h11l-15,27.71v20.79H279V145.48l-15-27.71Z"/><path class="cls-37" d="M319.59,117.77v38.81h19.49v9.69H309.84v-48.5Z"/><path class="cls-37" d="M374.46,117.65v9.72H355v9.78h14.63v9.71H355v9.78h19.5v9.69H345.21V117.65Z"/><path class="cls-37" d="M413.08,117.77v38.81h19.5v9.69H403.33v-48.5Z"/><path class="cls-37" d="M476.86,124.63a24.48,24.48,0,1,1-17.39-7.25A23.72,23.72,0,0,1,476.86,124.63ZM449,131.55a14.75,14.75,0,0,0,0,20.88,14.77,14.77,0,1,0,0-20.88Z"/><path class="cls-37" d="M564.66,144.58V117.65h9.78v49.62L545.19,139.4v26.93h-9.75V116.74Z"/><path class="cls-37" d="M605.18,117.47a24.77,24.77,0,0,1,17.42,7.19l-7,7a14.34,14.34,0,0,0-10.41-4.36,14.08,14.08,0,0,0-10.41,4.36,14.75,14.75,0,0,0,0,20.88,14.06,14.06,0,0,0,10.41,4.33,14.71,14.71,0,0,0,13.3-8.48H604.7V139h24.91c.7,9.07-2.28,15.65-7.07,20.4a23.79,23.79,0,0,1-17.39,7.19,24.6,24.6,0,0,1-24.58-24.58,23.84,23.84,0,0,1,7.22-17.42,23.46,23.46,0,0,1,17.36-7.25Z"/><path class="cls-37" d="M665.08,117.65v9.72h-19.5v9.78h14.63v9.71H645.58v9.78h19.5v9.69H635.83V117.65Z"/><path class="cls-37" d="M526.45,119.34l1.19-1.54H486.75l1.19,1.54c.12.16,11.91,15.44,13.65,18.11,1.63,2.5,2.31,4.94,2.31,13.54a28,28,0,0,1-.59,6.42,5.37,5.37,0,0,1-2.24,3.19c-1.94,1.3-5.52,3.69-6.47,4.2l-3.34,1.81h31.88l-3.34-1.81c-1-.55-4.59-2.94-6.47-4.21a5.36,5.36,0,0,1-2.23-3.14,27.39,27.39,0,0,1-.61-6.46c0-8.6.69-11,2.32-13.54C514.55,134.78,526.33,119.5,526.45,119.34Zm-17.09,16.72a14.51,14.51,0,0,0-2.16,5.42,14.34,14.34,0,0,0-2.16-5.42c-1.08-1.65-10.83-14.61-10.83-14.61a35.54,35.54,0,0,0,4.85.1c.52,0,.82,0,.82,0,3.54-.11,7.16-.26,10.8,1a53.86,53.86,0,0,0,7.08,2.35S510.15,134.85,509.36,136.06Z"/><g class="cls-53"><path d="M435.16,28.78c-129.94-36-250.19,32-296.25,139.34-15.79,30.36-19.83,83-19.83,83s20.13-44.94,60.8-85.35c6.65-6.6,25.74-29.49,55.73-40.25,0,.1,0,.21,0,.31a104.25,104.25,0,0,0,4.06,14.62,63.89,63.89,0,0,0,6.81,13.21,61.81,61.81,0,0,1-2-14.16,95.73,95.73,0,0,1,1-14c.57-3.82,1.33-7.6,2.24-11.32,4.54-10.71,13.74-28.77,27.4-38.61C295.37,61,305.29,60.17,310.35,64.62s6.07,19.84,4.86,33.4a134.27,134.27,0,0,1-2.2,14.79c-1,3.94-2.26,7.85-3.69,11.7a97,97,0,0,1-5.94,12.72,61,61,0,0,1-8.58,11.43,64.06,64.06,0,0,0,12.35-8.27,104.62,104.62,0,0,0,10.61-10.85c1.81-2.17,3.55-4.41,5.22-6.7,7.59.27,17.19,1.2,24.41,3.92,14,5.26,26.92,10.73,48.58,28.13,0,0-4.25-5.83-8.43-11.37-4.42-5.85-4.53-12.71-1.89-19s18.21-35,47.56-35.62c0,0,8.5,6.88,6.68,23.68s-7.08,28.34-12.75,36.23c-2.41,3.35-5.36,7.25-8,10.63a11.17,11.17,0,0,0,1.2,14.93c6.82,6.46,19,17.75,22.49,27,0,0-3.58,17.64-19,38.49s-31.58,27.93-31.58,27.93,34.47-3.92,56.27-32c21.29-27.39,46.11-55.45,44.13-127.92,0,0,15.92,19.71,15.38,73.41s-5.13,70.17-5.67,77.72,4.32,15.66,3,28.88c-1,9.51-2.08,22.51-2.63,29.06a8.6,8.6,0,0,0,2.68,7l10.63,10a17.14,17.14,0,0,1,4,19.26l-17.84,41.44a23.67,23.67,0,0,1-14.42,13.17c-18.46,6-59.27,17.47-101.7,17.47-57.49,0-85-15.11-105-29.14,0,0,16.19,22.4,65,36.7,18.42,5.39,41.45,8,63,9.21,20.83,1.14,25,30.08,5.36,37a147.56,147.56,0,0,1-42.72,8.53c-60.72,2.7-91.75-.54-151.39-33.46-22.58-12.46-41-29.41-55.12-45.66A245.56,245.56,0,0,0,365,510.92c157.39,0,280.25-147.86,237.25-312.25A239.12,239.12,0,0,0,435.16,28.78Z"/><path d="M447.56,372.91S464.63,349,443,343.63C425.75,339.35,394.29,372,394.29,372S442.52,346.33,447.56,372.91Z"/><path d="M281.18,256.28s-3.14,19.91,6.29,28.3,28.31,5.24,33.55,1.05C321,285.63,295.92,282.23,281.18,256.28Z"/></g></g></g></svg>