<svg id="Layer_1" data-name="Layer 1" xmlns="http://www.w3.org/2000/svg" xmlns:xlink="http://www.w3.org/1999/xlink" viewBox="0 0 800 530"><defs><style>.cls-1{fill:#be222d;}.cls-2{fill:url(#linear-gradient);}.cls-3{fill:url(#linear-gradient-2);}.cls-4{fill:url(#linear-gradient-3);}.cls-5{fill:url(#linear-gradient-4);}.cls-6{fill:url(#linear-gradient-5);}.cls-7{fill:url(#linear-gradient-6);}.cls-8{fill:url(#linear-gradient-7);}.cls-9{fill:url(#linear-gradient-8);}.cls-10{fill:url(#linear-gradient-9);}.cls-11{fill:url(#linear-gradient-10);}.cls-12{fill:url(#linear-gradient-11);}.cls-13{fill:url(#linear-gradient-12);}.cls-14{fill:#fad1c0;}.cls-15{fill:#fde9e2;}.cls-16{fill:none;stroke:#fcf8c8;stroke-miterlimit:10;stroke-width:0.5px;}.cls-17{fill:url(#linear-gradient-13);}.cls-18{fill:url(#linear-gradient-14);}.cls-19{fill:url(#linear-gradient-15);}.cls-20{fill:url(#linear-gradient-16);}.cls-21{fill:url(#linear-gradient-17);}.cls-22{fill:url(#linear-gradient-18);}.cls-23{fill:url(#linear-gradient-19);}.cls-24{fill:url(#linear-gradient-20);}.cls-25{fill:url(#linear-gradient-21);}.cls-26{fill:url(#linear-gradient-22);}.cls-27{fill:url(#linear-gradient-23);}.cls-28{fill:url(#linear-gradient-24);}.cls-29{fill:url(#linear-gradient-25);}.cls-30{fill:url(#linear-gradient-26);}.cls-31{fill:url(#linear-gradient-27);}.cls-32{opacity:0.05;}</style><linearGradient id="linear-gradient" x1="394.76" y1="356.37" x2="394.76" y2="124.88" gradientUnits="userSpaceOnUse"><stop offset="0" stop-color="#ed2f24"/><stop offset="1" stop-color="#fced09"/></linearGradient><linearGradient id="linear-gradient-2" x1="47.16" y1="86.77" x2="47.16" y2="15.77" xlink:href="#linear-gradient"/><linearGradient id="linear-gradient-3" x1="98.45" y1="86.68" x2="98.45" y2="15.95" xlink:href="#linear-gradient"/><linearGradient id="linear-gradient-4" x1="237.52" y1="88.26" x2="237.52" y2="15.95" xlink:href="#linear-gradient"/><linearGradient id="linear-gradient-5" x1="304.87" y1="87.16" x2="304.87" y2="15.38" xlink:href="#linear-gradient"/><linearGradient id="linear-gradient-6" x1="377.95" y1="87.34" x2="377.95" y2="15.95" xlink:href="#linear-gradient"/><linearGradient id="linear-gradient-7" x1="443.81" y1="86.68" x2="443.81" y2="15.95" xlink:href="#linear-gradient"/><linearGradient id="linear-gradient-8" x1="530.75" y1="86.68" x2="530.75" y2="15.95" xlink:href="#linear-gradient"/><linearGradient id="linear-gradient-9" x1="572.54" y1="86.68" x2="572.54" y2="15.95" xlink:href="#linear-gradient"/><linearGradient id="linear-gradient-10" x1="619.35" y1="88.13" x2="619.35" y2="14.45" xlink:href="#linear-gradient"/><linearGradient id="linear-gradient-11" x1="692.26" y1="87.21" x2="692.26" y2="15.38" xlink:href="#linear-gradient"/><linearGradient id="linear-gradient-12" x1="756.63" y1="87.22" x2="756.63" y2="15.32" xlink:href="#linear-gradient"/><linearGradient id="linear-gradient-13" x1="33.33" y1="510.29" x2="33.33" y2="447.14" xlink:href="#linear-gradient"/><linearGradient id="linear-gradient-14" x1="66.7" y1="510.29" x2="66.7" y2="447.14" xlink:href="#linear-gradient"/><linearGradient id="linear-gradient-15" x1="102.42" y1="510.37" x2="102.42" y2="446.98" xlink:href="#linear-gradient"/><linearGradient id="linear-gradient-16" x1="148.48" y1="510.37" x2="148.48" y2="446.98" xlink:href="#linear-gradient"/><linearGradient id="linear-gradient-17" x1="193.27" y1="510.77" x2="193.27" y2="446.58" xlink:href="#linear-gradient"/><linearGradient id="linear-gradient-18" x1="240.91" y1="510.29" x2="240.91" y2="447.14" xlink:href="#linear-gradient"/><linearGradient id="linear-gradient-19" x1="294.32" y1="510.29" x2="294.32" y2="447.14" xlink:href="#linear-gradient"/><linearGradient id="linear-gradient-20" x1="347.22" y1="510.29" x2="347.22" y2="447.14" xlink:href="#linear-gradient"/><linearGradient id="linear-gradient-21" x1="393.28" y1="510.37" x2="393.28" y2="446.98" xlink:href="#linear-gradient"/><linearGradient id="linear-gradient-22" x1="468.95" y1="510.29" x2="468.95" y2="447.14" xlink:href="#linear-gradient"/><linearGradient id="linear-gradient-23" x1="523.02" y1="510.72" x2="523.02" y2="446.63" xlink:href="#linear-gradient"/><linearGradient id="linear-gradient-24" x1="647.3" y1="511.59" x2="647.3" y2="445.81" xlink:href="#linear-gradient"/><linearGradient id="linear-gradient-25" x1="712.66" y1="510.76" x2="712.66" y2="446.63" xlink:href="#linear-gradient"/><linearGradient id="linear-gradient-26" x1="771.66" y1="510.37" x2="771.66" y2="446.98" xlink:href="#linear-gradient"/><linearGradient id="linear-gradient-27" x1="585.14" y1="510.73" x2="585.14" y2="447.18" xlink:href="#linear-gradient"/></defs><path d="M477.76,305.1l0,0Z"/><path class="cls-1" d="M571.91,390.64l-52.5-52.81a40.47,40.47,0,0,1-7.15,8.32L537.13,371,518,390.11c0-.06-.08-.11-.13-.16l-25.72-25.72,13.19-13.18a45.4,45.4,0,0,1-12.06,4.7L459,390.09l-21.52-21.52c-2.39.05-4.74.16-7,.34l21.41,21.4h-45.1l21.17-21.17q-4.34.44-8.43,1.07L399.6,390.09l-13.88-13.88c-2.19.2-4.5.35-6.91.45l13.66,13.65H347.38L361.2,376.5c-2.32-.14-4.61-.31-6.84-.52l-14.12,14.11-26.58-26.58h-.06c-1.37.15-2.63.24-3.86.28l-2.05,0c-.72,0-1.41,0-2.11-.06l-24.16,24.16-18.13-18.12,15-15a37.68,37.68,0,0,1-7.64-7.9L226.6,391.36l0,.45a3.75,3.75,0,0,0-.81,2.32v5.94a3.82,3.82,0,0,0,3.82,3.82H570.37a3.82,3.82,0,0,0,3.82-3.82v-5.94A3.83,3.83,0,0,0,571.91,390.64Zm-15.48-.33H525.19l15.62-15.62Zm-67.92-22.4,22.4,22.4H466.12Zm-178.76-1,23.36,23.35H286.39Zm-33.31,23.35H242.79l16.82-16.82Z"/><path class="cls-2" d="M508,268.73c5.47,23.22.11,29.93-10.92,38.92,19.8-29.36-16.39-43.7,19.8-78.53-19.64,2.94-35.65,13.42-47.45,27-5.32-40-24.08-79.74-42-93.63,20,36.88,14.6,72.23-5.38,85.29,13.84-51.48-6.92-95.28-57.63-122.94,42.27,56.86-20,60.7-18.52,127.77-.31-23.19-14.52-29.42-5.3-64-15.46,23.79-25.22,45.17-30.24,64.09A111,111,0,0,0,294.64,235c22.52,48.24-12.13,50-2.29,81.08-10-10.52-13.8-20.24-7.23-44.37-25.91,40.54-19.56,85.9,24.59,84.6,1.13,0,2.2-.12,3.25-.24a37.8,37.8,0,0,1-2.48-4.47,64.11,64.11,0,0,1-2.71-7.23s-12.7-1.23-19.68-17.68c5,5.56,10.84,8.71,16.72,7.74,0,0-.18-7.5.5-15.64s3.14-11.71,3.14-11.71a24,24,0,0,1,.34-16.38c2.81-6.94,3.73-16.29,1.36-24.1,2.2,2.89,5.09,7.47,5.43,15.95a122.61,122.61,0,0,1-.12,12.27A72.56,72.56,0,0,1,324.93,283c-.8-4.34-4.2-26.33,3.55-49.27,0,0,.68,10.52,4.07,16.8a70,70,0,0,1,6.55,21.78A75,75,0,0,1,362,264.79l.6-.09c4.39-56.06,35.72-45.4,34.45-81.56,14.14,28.51,8.65,57.86-2.48,81.63,2.28.34,4.43.73,4.43.73q5.76,1,11.66,2.65c8.59,2.33,16.81,4.67,24.62,7.36,7.67-4.84,14.32-12.15,15.9-29.23A196.37,196.37,0,0,1,455.52,284a100,100,0,0,1,12.23,7.41c6.26-6.8,11.35-13.91,12.67-21.34,1.67,17.51,2.35,27.62,2.06,34.62,5.07,6,8.19,12.19,9.31,18.44a35.34,35.34,0,0,1,.42,3.76,25.54,25.54,0,0,0,15.75-11c-1.52,8.19-7.6,14.67-15.59,19.29a83.78,83.78,0,0,1-1.28,13.53C519.68,342.43,529.59,310.32,508,268.73Z"/><path class="cls-1" d="M63.5,20.76V34.94H35.06V49.2H56.39V63.37H35.06V91.76H20.85v-71Z"/><path class="cls-1" d="M86.35,20.94v56.6h28.44V91.67H72.14V20.94Z"/><path class="cls-1" d="M232.46,93.25l-31.9-72.31h15.05l16.81,38.74,16.85-38.74H264.5Z"/><path class="cls-1" d="M325.22,30.94A34.65,34.65,0,0,1,335.8,56.35a35.9,35.9,0,0,1-35.94,35.81A35.83,35.83,0,0,1,264,56.35,34.79,34.79,0,0,1,274.5,30.94a35.71,35.71,0,0,1,50.72,0ZM284.63,41a21.5,21.5,0,0,0,0,30.45A21.57,21.57,0,0,0,321.4,56.26,20.76,20.76,0,0,0,315,41a21.45,21.45,0,0,0-30.41,0Z"/><path class="cls-1" d="M387.26,63.72V20.94h14.31V63.77a28.61,28.61,0,0,1-57.22,0V20.94h14.3V63.72a14.31,14.31,0,0,0,28.61,0Z"/><path class="cls-1" d="M412.84,20.94h23.08a26,26,0,0,1,18.52,7.2c4.3,4.3,6.84,8.23,6.84,16.06V46a22.9,22.9,0,0,1-4.47,13.47,16.15,16.15,0,0,1-8.47,6.54l16.45,25.62H447.42L427.1,60.39V91.67H412.88Zm33.79,23.69a9.57,9.57,0,0,0-2.81-6.8C442,36,438.47,35,435,35h-8V54.55h5.49v0h4.74C442.46,54.59,446.63,50,446.63,44.63Z"/><path class="cls-1" d="M513.89,20.94V52.23L532,20.94h16.41L527.49,56.88,551.8,91.67H534.51L513.89,62V91.67H499.71V20.94Z"/><path class="cls-1" d="M560.44,20.94h14.22V91.67H560.44Z"/><path class="cls-1" d="M628.54,60V20.76H642.8V93.12L600.15,52.49V91.76H585.93V19.45Z"/><path class="cls-1" d="M687.33,20.5A36.12,36.12,0,0,1,712.74,31L702.6,41.12a20.92,20.92,0,0,0-15.18-6.36,20.57,20.57,0,0,0-15.19,6.36,20.77,20.77,0,0,0-6.31,15.23,20.77,20.77,0,0,0,6.31,15.23,20.54,20.54,0,0,0,15.19,6.31,21.46,21.46,0,0,0,19.39-12.37H686.63V52H723c1,13.22-3.33,22.82-10.31,29.75A34.76,34.76,0,0,1,687.28,92.2,34.31,34.31,0,0,1,662,81.71a34.37,34.37,0,0,1-10.53-25.36A34.82,34.82,0,0,1,662,30.94a34.25,34.25,0,0,1,25.31-10.57Z"/><path class="cls-1" d="M751.44,77.75c3.93,0,8.26-3.26,8.26-7.19,0-6.46-8.67-7.36-13.56-9.05-8.62-2.94-16.24-10-16.24-19.65a21.58,21.58,0,0,1,43-3l-14.11,3a7.18,7.18,0,0,0-14.36,0c0,6.37,8.07,8.07,13,9.52,8.93,2.58,16.8,9.38,16.8,19.23,0,11.93-10.7,21.56-22.61,21.56-10.94,0-20.83-8-22.44-18.56l14.12-3c0,3.94,4.29,7.16,8.28,7.16Z"/><path class="cls-1" d="M64.74,19.52V33.69H36.31V48H57.64V62.12H36.31V90.51H22.09v-71Z"/><path class="cls-1" d="M87.6,19.69V76.3H116V90.42H73.38V19.69Z"/><path class="cls-1" d="M233.71,92l-31.9-72.31h15.05l16.81,38.75,16.85-38.75h15.22Z"/><path class="cls-1" d="M326.47,29.7A34.62,34.62,0,0,1,337,55.1a34.39,34.39,0,0,1-10.57,25.36,36,36,0,0,1-50.73,0A34.56,34.56,0,0,1,265.21,55.1a34.78,34.78,0,0,1,10.53-25.4,35.7,35.7,0,0,1,50.73,0ZM285.88,39.79a21.5,21.5,0,0,0,0,30.45A21.57,21.57,0,0,0,322.65,55a20.78,20.78,0,0,0-6.36-15.22,21.45,21.45,0,0,0-30.41,0Z"/><path class="cls-1" d="M388.51,62.47V19.69h14.3V62.52a28.61,28.61,0,0,1-57.22,0V19.69H359.9V62.47a14.31,14.31,0,0,0,28.61,0Z"/><path class="cls-1" d="M414.09,19.69h23.08a25.93,25.93,0,0,1,18.51,7.2c4.31,4.3,6.85,8.23,6.85,16.06v1.84a22.84,22.84,0,0,1-4.48,13.47,16.07,16.07,0,0,1-8.47,6.54L466,90.42H448.66L428.35,59.14V90.42H414.13Zm33.78,23.7a9.56,9.56,0,0,0-2.8-6.81c-1.85-1.79-5.35-2.8-8.78-2.8h-8V53.3h5.49v.05h4.74C443.71,53.35,447.87,48.78,447.87,43.39Z"/><path class="cls-1" d="M515.14,19.69V51l18.12-31.29h16.41L528.74,55.63l24.31,34.79H535.76L515.14,60.76V90.42H501V19.69Z"/><path class="cls-1" d="M561.69,19.69H575.9V90.42H561.69Z"/><path class="cls-1" d="M629.78,58.79V19.52H644V91.87L601.39,51.24V90.51H587.18V18.2Z"/><path class="cls-1" d="M688.58,19.25A36.1,36.1,0,0,1,714,29.74L703.85,39.88a20.89,20.89,0,0,0-15.19-6.37,20.53,20.53,0,0,0-15.18,6.37,20.74,20.74,0,0,0-6.32,15.22,20.77,20.77,0,0,0,6.32,15.23,20.54,20.54,0,0,0,15.18,6.32,21.47,21.47,0,0,0,19.4-12.38H687.87V50.71h36.34c1,13.22-3.33,22.82-10.31,29.75A34.72,34.72,0,0,1,688.53,91a34.31,34.31,0,0,1-25.32-10.49A34.37,34.37,0,0,1,652.68,55.1a34.78,34.78,0,0,1,10.53-25.4,34.29,34.29,0,0,1,25.32-10.58Z"/><path class="cls-1" d="M752.69,76.5c3.93,0,8.26-3.26,8.26-7.19,0-6.45-8.67-7.36-13.56-9.05-8.62-2.94-16.24-10-16.24-19.65a21.58,21.58,0,0,1,43-3l-14.12,3a7.18,7.18,0,0,0-14.35,0c0,6.37,8.07,8.07,13,9.53,8.93,2.57,16.8,9.37,16.8,19.22C775.41,81.33,764.7,91,752.8,91c-10.94,0-20.83-8-22.44-18.56l14.11-3c0,3.95,4.29,7.16,8.28,7.16Z"/><path class="cls-1" d="M66,18.27V32.44H37.56V46.7H58.88V60.87H37.56V89.26H23.34v-71Z"/><path class="cls-1" d="M88.85,18.44V75.05h28.43V89.18H74.63V18.44Z"/><path class="cls-1" d="M235,90.76l-31.9-72.32h15.05l16.81,38.75,16.85-38.75H267Z"/><path class="cls-1" d="M327.72,28.45a34.64,34.64,0,0,1,10.57,25.4,35.87,35.87,0,0,1-35.94,35.81,35.8,35.8,0,0,1-35.89-35.81A34.81,34.81,0,0,1,277,28.45a35.7,35.7,0,0,1,50.73,0ZM287.13,38.54a21.5,21.5,0,0,0,0,30.45A21.57,21.57,0,0,0,323.9,53.77a20.78,20.78,0,0,0-6.36-15.23,21.45,21.45,0,0,0-30.41,0Z"/><path class="cls-1" d="M389.76,61.23V18.44h14.3V61.27a28.61,28.61,0,0,1-57.22,0V18.44h14.31V61.23a14.31,14.31,0,0,0,28.61,0Z"/><path class="cls-1" d="M415.33,18.44h23.08a26,26,0,0,1,18.52,7.2c4.31,4.31,6.85,8.23,6.85,16.06v1.84A22.84,22.84,0,0,1,459.3,57a16.07,16.07,0,0,1-8.47,6.54l16.46,25.63H449.91L429.6,57.89V89.18H415.38Zm33.79,23.7a9.51,9.51,0,0,0-2.81-6.8c-1.84-1.8-5.34-2.81-8.77-2.81h-8V52.05H435v.05h4.74C445,52.1,449.12,47.53,449.12,42.14Z"/><path class="cls-1" d="M516.38,18.44V49.73l18.13-31.29h16.41L530,54.38l24.31,34.8H537L516.38,59.51V89.18H502.21V18.44Z"/><path class="cls-1" d="M562.94,18.44h14.21V89.18H562.94Z"/><path class="cls-1" d="M631,57.54V18.27h14.26V90.62L602.64,50V89.26H588.42V17Z"/><path class="cls-1" d="M689.83,18a36.16,36.16,0,0,1,25.4,10.49L705.1,38.63a21,21,0,0,0-15.19-6.36,20.53,20.53,0,0,0-15.18,6.36,20.76,20.76,0,0,0-6.32,15.22,20.77,20.77,0,0,0,6.32,15.23,20.53,20.53,0,0,0,15.18,6.32A21.45,21.45,0,0,0,709.31,63H689.12V49.47h36.34c1,13.22-3.33,22.81-10.32,29.75A34.73,34.73,0,0,1,689.78,89.7a34.34,34.34,0,0,1-25.32-10.48,34.41,34.41,0,0,1-10.53-25.37,34.81,34.81,0,0,1,10.53-25.4,34.26,34.26,0,0,1,25.32-10.58Z"/><path class="cls-1" d="M753.94,75.25c3.92,0,8.26-3.26,8.26-7.18,0-6.46-8.67-7.36-13.56-9.06C740,56.07,732.4,49,732.4,39.36a21.58,21.58,0,0,1,43-3l-14.12,3a7.18,7.18,0,0,0-14.35,0c0,6.37,8.07,8.07,13,9.53,8.92,2.57,16.8,9.37,16.8,19.22,0,11.93-10.71,21.56-22.61,21.56-10.95,0-20.84-8-22.45-18.56l14.12-3c0,3.95,4.29,7.17,8.28,7.17Z"/><path class="cls-1" d="M67.24,17V31.19H38.81V45.45H60.13V59.63H38.81V88H24.59V17Z"/><path class="cls-1" d="M90.1,17.19V73.8h28.43V87.93H75.88V17.19Z"/><path class="cls-1" d="M236.21,89.51l-31.9-72.32h15.05l16.8,38.75L253,17.19h15.23Z"/><path class="cls-1" d="M329,27.2a34.65,34.65,0,0,1,10.58,25.41A34.41,34.41,0,0,1,329,78a36,36,0,0,1-50.72,0,34.58,34.58,0,0,1-10.53-25.36A34.82,34.82,0,0,1,278.24,27.2a35.68,35.68,0,0,1,50.72,0ZM288.38,37.29a20.92,20.92,0,0,0-6.32,15.23,21.55,21.55,0,0,0,43.09,0,20.75,20.75,0,0,0-6.37-15.23,21.44,21.44,0,0,0-30.4,0Z"/><path class="cls-1" d="M391,60V17.19h14.3V60a28.61,28.61,0,0,1-57.22,0V17.19H362.4V60A14.31,14.31,0,0,0,391,60Z"/><path class="cls-1" d="M416.58,17.19h23.08a26,26,0,0,1,18.52,7.2c4.31,4.31,6.85,8.24,6.85,16.06v1.84a22.91,22.91,0,0,1-4.48,13.47,16.11,16.11,0,0,1-8.47,6.54l16.46,25.63H451.16L430.84,56.64V87.93H416.63Zm33.79,23.7a9.57,9.57,0,0,0-2.81-6.8c-1.84-1.8-5.35-2.81-8.77-2.81h-8V50.81h5.48v0H441C446.2,50.85,450.37,46.28,450.37,40.89Z"/><path class="cls-1" d="M517.63,17.19V48.48l18.12-31.29h16.42L531.23,53.13l24.31,34.8H538.26L517.63,58.27V87.93H503.46V17.19Z"/><path class="cls-1" d="M564.18,17.19H578.4V87.93H564.18Z"/><path class="cls-1" d="M632.28,56.29V17h14.26V89.38L603.89,48.74V88H589.67V15.7Z"/><path class="cls-1" d="M691.07,16.76a36.16,36.16,0,0,1,25.41,10.48L706.34,37.38A20.92,20.92,0,0,0,691.16,31,20.53,20.53,0,0,0,676,37.38a20.77,20.77,0,0,0-6.32,15.23A20.76,20.76,0,0,0,676,67.83a20.51,20.51,0,0,0,15.18,6.32,21.47,21.47,0,0,0,19.4-12.37H690.37V48.22H726.7c1,13.22-3.32,22.81-10.31,29.75A34.74,34.74,0,0,1,691,88.46,34.31,34.31,0,0,1,665.71,78a34.39,34.39,0,0,1-10.53-25.36A34.82,34.82,0,0,1,665.71,27.2,34.26,34.26,0,0,1,691,16.62Z"/><path class="cls-1" d="M755.19,74c3.92,0,8.26-3.26,8.26-7.18,0-6.46-8.67-7.36-13.56-9.06-8.63-2.94-16.24-10-16.24-19.65a21.58,21.58,0,0,1,43-3l-14.12,3a7.18,7.18,0,0,0-14.35,0c0,6.38,8.06,8.07,13,9.53,8.92,2.57,16.8,9.38,16.8,19.22,0,11.93-10.71,21.56-22.62,21.56-10.94,0-20.83-8-22.44-18.55l14.12-3c0,3.95,4.29,7.17,8.28,7.17Z"/><path class="cls-3" d="M68.49,15.77V29.94H40.06V44.21H61.38V58.38H40.06V86.77H25.84v-71Z"/><path class="cls-4" d="M91.35,16v56.6h28.43V86.68H77.13V16Z"/><path class="cls-5" d="M237.46,88.26,205.56,16h15.05l16.8,38.74L254.26,16h15.23Z"/><path class="cls-6" d="M330.21,26a34.65,34.65,0,0,1,10.58,25.41,34.41,34.41,0,0,1-10.58,25.36,36,36,0,0,1-50.72,0A34.56,34.56,0,0,1,269,51.36,34.82,34.82,0,0,1,279.49,26a35.71,35.71,0,0,1,50.72,0ZM289.62,36a21,21,0,0,0-6.31,15.23,21.55,21.55,0,0,0,43.09,0A20.81,20.81,0,0,0,320,36a21.45,21.45,0,0,0-30.41,0Z"/><path class="cls-7" d="M392.25,58.73V16h14.31V58.77a28.61,28.61,0,0,1-57.22,0V16h14.3V58.73a14.31,14.31,0,0,0,28.61,0Z"/><path class="cls-8" d="M417.83,16h23.08a26,26,0,0,1,18.52,7.19c4.3,4.31,6.84,8.24,6.84,16.06v1.85a22.94,22.94,0,0,1-4.47,13.47,16.14,16.14,0,0,1-8.47,6.53l16.45,25.63H452.41L432.09,55.39V86.68H417.87Zm33.79,23.69a9.57,9.57,0,0,0-2.81-6.8C447,31.05,443.46,30,440,30h-8V49.56h5.48v0h4.74C447.45,49.6,451.62,45,451.62,39.64Z"/><path class="cls-9" d="M518.88,16V47.23L537,16h16.41L532.48,51.88l24.31,34.8H539.5L518.88,57V86.68H504.71V16Z"/><path class="cls-10" d="M565.43,16h14.22V86.68H565.43Z"/><path class="cls-11" d="M633.53,55V15.77h14.26V88.13L605.14,47.5V86.77H590.92V14.45Z"/><path class="cls-12" d="M692.32,15.51A36.12,36.12,0,0,1,717.73,26L707.59,36.13a20.92,20.92,0,0,0-15.18-6.36,20.53,20.53,0,0,0-15.18,6.36,20.73,20.73,0,0,0-6.32,15.23,20.7,20.7,0,0,0,6.32,15.22,20.47,20.47,0,0,0,15.18,6.32A21.45,21.45,0,0,0,711.8,60.53H691.62V47H728c1,13.22-3.32,22.82-10.31,29.75a34.74,34.74,0,0,1-25.36,10.49A34.31,34.31,0,0,1,667,76.72a34.39,34.39,0,0,1-10.53-25.36A34.82,34.82,0,0,1,667,26a34.25,34.25,0,0,1,25.32-10.57Z"/><path class="cls-13" d="M756.43,72.76c3.93,0,8.26-3.26,8.26-7.19,0-6.46-8.66-7.36-13.55-9-8.63-2.94-16.25-10-16.25-19.66a21.58,21.58,0,0,1,43-3l-14.11,3a7.18,7.18,0,0,0-14.35,0c0,6.37,8.06,8.06,13,9.52,8.92,2.58,16.79,9.38,16.79,19.22,0,11.93-10.7,21.57-22.61,21.57-10.94,0-20.83-8-22.44-18.56l14.12-3c0,3.95,4.29,7.17,8.28,7.17Z"/><path class="cls-1" d="M142.86,35.86S132.07,50,129.37,64.7s.89,23.93,12.75,23.93c20.6,0,24.19-9.1,31.88-9.51,10.8-.58,15.45,10.67,21.83,5.48,6-4.93,7.6-13.85,4.91-27.4S190,26.63,180.38,20.29,159.29,15.67,142.86,35.86Z"/><path class="cls-1" d="M144.06,34.66S133.27,48.79,130.57,63.5s.89,23.94,12.75,23.94c20.6,0,24.19-9.11,31.88-9.52C186,77.34,190.65,88.59,197,83.4c6.05-4.93,7.6-13.84,4.9-27.4s-10.79-30.57-20.35-36.91S160.49,14.47,144.06,34.66Z"/><path class="cls-1" d="M145.25,33.46S134.46,47.59,131.77,62.3s.89,23.94,12.75,23.94c20.6,0,24.19-9.11,31.88-9.52,10.79-.58,15.45,10.67,21.83,5.48,6.05-4.93,7.6-13.84,4.9-27.4s-10.79-30.57-20.35-36.91S161.69,13.28,145.25,33.46Z"/><path class="cls-14" d="M146.45,32.26S135.66,46.4,133,61.1,133.85,85,145.72,85c20.6,0,24.19-9.11,31.88-9.52C188.39,75,193.05,86.19,199.42,81c6.06-4.92,7.61-13.84,4.91-27.39S193.54,23,184,16.69,162.88,12.08,146.45,32.26Z"/><path class="cls-1" d="M155.51,27.14A136.57,136.57,0,0,0,144.1,42.36c-4.2,6.77,2.58,13.12,10.9,13.12,14.44,0,16.95-4.89,22.34-5.11,7.56-.31,10.83,5.73,15.3,2.94,4.24-2.64,5.33-7.43,3.44-14.71s-7.57-16.41-14.27-19.82S167,16.3,155.51,27.14Z"/><path class="cls-1" d="M143.35,56s-3.09-1.49-4.72-.57c-2.25,1.28-2.66,4-3.51,9.82s-.12,14.23,6.17,15.66,15,.85,19-1.85,7.38-13.52,13.92-16.37,7.26-3.84,6.89-5.83-3.75-5-8.95-1.57a34.45,34.45,0,0,1-16.82,5.27C150.37,60.65,145.89,57.23,143.35,56Z"/><path class="cls-1" d="M177.61,63.2s-5.73,1.76-7,6.3,2.36,4.25,6.1,2.49S184,71.84,187,73.6s7.1,4.69,10.09,2.93,5-6.89,5.11-12-1-10.9-3.12-11.14c-4-.44-4.37,4.77-8.22,4C182.47,55.58,186.71,61.73,177.61,63.2Z"/><path class="cls-15" d="M181,28.78c-1.41-5.27-10-4.78-14.11-1.2s-3.59,11,1.91,12.44S183.91,39.54,181,28.78Z"/><path class="cls-1" d="M180.47,29.19c-1.33-5-9.5-4.52-13.34-1.13a7.2,7.2,0,0,0-1.1,1.25c4-2.9,11.41-3.07,12.67,1.65.91,3.42.49,5.9-.67,7.63C180.38,37,181.76,34,180.47,29.19Z"/><path class="cls-16" d="M68.49,15.77V29.94H40.06V44.21H61.38V58.38H40.06V86.77H25.84v-71Z"/><path class="cls-16" d="M91.35,16v56.6h28.43V86.68H77.13V16Z"/><path class="cls-16" d="M237.46,88.26,205.56,16h15.05l16.8,38.74L254.26,16h15.23Z"/><path class="cls-16" d="M330.21,26a34.65,34.65,0,0,1,10.58,25.41,34.41,34.41,0,0,1-10.58,25.36,36,36,0,0,1-50.72,0A34.56,34.56,0,0,1,269,51.36,34.82,34.82,0,0,1,279.49,26a35.71,35.71,0,0,1,50.72,0ZM289.62,36a21,21,0,0,0-6.31,15.23,21.55,21.55,0,0,0,43.09,0A20.81,20.81,0,0,0,320,36a21.45,21.45,0,0,0-30.41,0Z"/><path class="cls-16" d="M392.25,58.73V16h14.31V58.77a28.61,28.61,0,0,1-57.22,0V16h14.3V58.73a14.31,14.31,0,0,0,28.61,0Z"/><path class="cls-16" d="M417.83,16h23.08a26,26,0,0,1,18.52,7.19c4.3,4.31,6.84,8.24,6.84,16.06v1.85a22.94,22.94,0,0,1-4.47,13.47,16.14,16.14,0,0,1-8.47,6.53l16.45,25.63H452.41L432.09,55.39V86.68H417.87Zm33.79,23.69a9.57,9.57,0,0,0-2.81-6.8C447,31.05,443.46,30,440,30h-8V49.56h5.48v0h4.74C447.45,49.6,451.62,45,451.62,39.64Z"/><path class="cls-16" d="M518.88,16V47.23L537,16h16.41L532.48,51.88l24.31,34.8H539.5L518.88,57V86.68H504.71V16Z"/><path class="cls-16" d="M565.43,16h14.22V86.68H565.43Z"/><path class="cls-16" d="M633.53,55V15.77h14.26V88.13L605.14,47.5V86.77H590.92V14.45Z"/><path class="cls-16" d="M692.32,15.51A36.12,36.12,0,0,1,717.73,26L707.59,36.13a20.92,20.92,0,0,0-15.18-6.36,20.53,20.53,0,0,0-15.18,6.36,20.73,20.73,0,0,0-6.32,15.23,20.7,20.7,0,0,0,6.32,15.22,20.47,20.47,0,0,0,15.18,6.32A21.45,21.45,0,0,0,711.8,60.53H691.62V47H728c1,13.22-3.32,22.82-10.31,29.75a34.74,34.74,0,0,1-25.36,10.49A34.31,34.31,0,0,1,667,76.72a34.39,34.39,0,0,1-10.53-25.36A34.82,34.82,0,0,1,667,26a34.25,34.25,0,0,1,25.32-10.57Z"/><path class="cls-16" d="M756.43,72.76c3.93,0,8.26-3.26,8.26-7.19,0-6.46-8.66-7.36-13.55-9-8.63-2.94-16.25-10-16.25-19.66a21.58,21.58,0,0,1,43-3l-14.11,3a7.18,7.18,0,0,0-14.35,0c0,6.37,8.06,8.06,13,9.52,8.92,2.58,16.79,9.38,16.79,19.22,0,11.93-10.7,21.57-22.61,21.57-10.94,0-20.83-8-22.44-18.56l14.12-3c0,3.95,4.29,7.17,8.28,7.17Z"/><path class="cls-1" d="M22,452.13v50.54H47.38v12.62H9.3V452.13Z"/><path class="cls-1" d="M55.36,452.13H68.05v63.16H55.36Z"/><path class="cls-1" d="M116.47,452v12.65H91.08v12.73h19V490h-19v25.34H78.39V452Z"/><path class="cls-1" d="M162.53,452v12.65H137.14v12.73h19V490h-19v12.73h25.39v12.61H124.45V452Z"/><path class="cls-1" d="M188.11,502.85c3.5,0,7.37-2.91,7.37-6.41,0-5.77-7.74-6.57-12.1-8.09-7.7-2.62-14.5-8.94-14.5-17.54a19.26,19.26,0,0,1,38.34-2.66l-12.6,2.66a6.41,6.41,0,0,0-12.82,0c0,5.69,7.21,7.2,11.59,8.5,8,2.3,15,8.37,15,17.16,0,10.65-9.56,19.25-20.19,19.25-9.77,0-18.6-7.16-20-16.56l12.6-2.69c0,3.53,3.83,6.4,7.39,6.4Z"/><path class="cls-1" d="M257.82,452.13v12.58H242.31v50.58H229.58V464.71H214V452.13Z"/><path class="cls-1" d="M277.79,452.13,289.31,474l11.52-21.9H315.2l-19.58,36.09v27.07H283V488.22l-19.55-36.09Z"/><path class="cls-1" d="M335.88,452.13v50.54h25.39v12.62H323.19V452.13Z"/><path class="cls-1" d="M407.33,452v12.65H381.94v12.73h19V490h-19v12.73h25.39v12.61H369.25V452Z"/><path class="cls-1" d="M457.61,452.13v50.54H483v12.62H444.92V452.13Z"/><path class="cls-1" d="M540.65,461.07A31.86,31.86,0,1,1,518,451.62,30.93,30.93,0,0,1,540.65,461.07Zm-36.24,9a19.21,19.21,0,0,0,27.15,27.19,19.21,19.21,0,1,0-27.15-27.19Z"/><path class="cls-1" d="M655,487V452h12.73v64.6L629.61,480.3v35.06H616.92V450.8Z"/><path class="cls-1" d="M707.72,451.74a32.28,32.28,0,0,1,22.68,9.36l-9,9a18.7,18.7,0,0,0-13.55-5.68,18.37,18.37,0,0,0-13.56,5.68,19.21,19.21,0,0,0,0,27.19A18.34,18.34,0,0,0,707.8,503a19.17,19.17,0,0,0,17.31-11.05h-18V479.83h32.44c.9,11.8-3,20.37-9.21,26.56a31,31,0,0,1-22.64,9.37,32,32,0,0,1-32-32,31.07,31.07,0,0,1,9.4-22.68,30.59,30.59,0,0,1,22.61-9.45Z"/><path class="cls-1" d="M785.71,452v12.65H760.32v12.73h19V490h-19v12.73h25.39v12.61H747.63V452Z"/><path class="cls-1" d="M605.22,454.19l1.55-2H553.53l1.55,2c.15.2,15.5,20.09,17.76,23.57,2.13,3.26,3,6.43,3,17.63a36.08,36.08,0,0,1-.78,8.36,7,7,0,0,1-2.92,4.15c-2.51,1.69-7.17,4.8-8.41,5.47l-4.35,2.35h41.5l-4.35-2.35c-1.32-.71-6-3.83-8.42-5.48a7,7,0,0,1-2.9-4.09,35.7,35.7,0,0,1-.79-8.41c0-11.2.89-14.37,3-17.63C589.72,474.28,605.06,454.39,605.22,454.19ZM583,476a18.88,18.88,0,0,0-2.81,7.06,18.88,18.88,0,0,0-2.81-7.06c-1.4-2.15-14.11-19-14.11-19a49.21,49.21,0,0,0,6.32.13c.67,0,1.07,0,1.07,0,4.6-.14,9.32-.33,14.06,1.3,3.5,1.21,6.57,2.61,9.22,3.06C593.9,461.39,584,474.38,583,476Z"/><path class="cls-1" d="M23.24,450.89v50.53H48.63V514H10.55V450.89Z"/><path class="cls-1" d="M56.61,450.89H69.3V514H56.61Z"/><path class="cls-1" d="M117.71,450.73v12.65H92.33v12.74h19v12.65h-19v25.35H79.63V450.73Z"/><path class="cls-1" d="M163.77,450.73v12.65H138.39v12.74h19v12.65h-19V501.5h25.38v12.62H125.69V450.73Z"/><path class="cls-1" d="M189.36,501.61c3.5,0,7.37-2.92,7.37-6.42,0-5.77-7.74-6.57-12.11-8.08-7.7-2.63-14.5-8.95-14.5-17.55a19.27,19.27,0,0,1,38.35-2.66l-12.6,2.66a6.41,6.41,0,0,0-12.82,0c0,5.69,7.2,7.2,11.59,8.5,8,2.3,15,8.37,15,17.17,0,10.65-9.56,19.25-20.19,19.25-9.77,0-18.6-7.17-20-16.57l12.6-2.68c0,3.52,3.83,6.39,7.39,6.39Z"/><path class="cls-1" d="M259.07,450.89v12.57H243.56V514H230.82V463.46H215.27V450.89Z"/><path class="cls-1" d="M279,450.89l11.52,21.9,11.52-21.9h14.37L296.86,487V514H284.25V487L264.7,450.89Z"/><path class="cls-1" d="M337.13,450.89v50.53h25.38V514H324.43V450.89Z"/><path class="cls-1" d="M408.57,450.73v12.65H383.19v12.74h19v12.65h-19V501.5h25.38v12.62H370.49V450.73Z"/><path class="cls-1" d="M458.86,450.89v50.53h25.39V514H446.17V450.89Z"/><path class="cls-1" d="M541.9,459.82a31.88,31.88,0,1,1-22.65-9.44A30.93,30.93,0,0,1,541.9,459.82Zm-36.24,9A19.21,19.21,0,0,0,532.81,496a19.21,19.21,0,1,0-27.15-27.19Z"/><path class="cls-1" d="M656.21,485.79V450.73h12.73v64.6l-38.08-36.28v35.07h-12.7V449.55Z"/><path class="cls-1" d="M709,450.49a32.24,32.24,0,0,1,22.68,9.37l-9,9.05A18.67,18.67,0,0,0,709,463.23a18.31,18.31,0,0,0-13.55,5.68,19.21,19.21,0,0,0,0,27.19A18.32,18.32,0,0,0,709,501.74a19.15,19.15,0,0,0,17.32-11.05h-18V478.58h32.44c.9,11.81-3,20.37-9.21,26.57a31,31,0,0,1-22.64,9.36,32,32,0,0,1-32-32,31.07,31.07,0,0,1,9.4-22.68,30.58,30.58,0,0,1,22.61-9.44Z"/><path class="cls-1" d="M787,450.73v12.65H761.57v12.74h19v12.65h-19V501.5H787v12.62H748.88V450.73Z"/><path class="cls-1" d="M606.46,452.94l1.55-2H554.78l1.55,2c.15.2,15.49,20.09,17.76,23.57,2.13,3.26,3,6.43,3,17.63a36.08,36.08,0,0,1-.78,8.36,7,7,0,0,1-2.92,4.16c-2.51,1.69-7.18,4.8-8.42,5.47l-4.34,2.34h41.5l-4.35-2.34c-1.33-.72-6-3.83-8.42-5.49a7,7,0,0,1-2.9-4.09,35.7,35.7,0,0,1-.79-8.41c0-11.2.89-14.37,3-17.63C591,473,606.31,453.14,606.46,452.94ZM584.21,474.7a18.88,18.88,0,0,0-2.81,7.06,18.88,18.88,0,0,0-2.81-7.06c-1.4-2.15-14.11-19-14.11-19a47.45,47.45,0,0,0,6.32.14l1.07,0c4.6-.15,9.32-.34,14.06,1.29,3.5,1.21,6.57,2.61,9.22,3.06C595.15,460.14,585.24,473.13,584.21,474.7Z"/><path class="cls-1" d="M24.49,449.64v50.54H49.88v12.61H11.8V449.64Z"/><path class="cls-1" d="M57.86,449.64H70.55v63.15H57.86Z"/><path class="cls-1" d="M119,449.48v12.65H93.58v12.74h19v12.65h-19v25.35H80.88V449.48Z"/><path class="cls-1" d="M165,449.48v12.65H139.64v12.74h19v12.65h-19v12.73H165v12.62H126.94V449.48Z"/><path class="cls-1" d="M190.6,500.36c3.51,0,7.38-2.91,7.38-6.42,0-5.76-7.74-6.57-12.11-8.08-7.7-2.63-14.5-8.95-14.5-17.55a19.27,19.27,0,0,1,38.35-2.66l-12.6,2.66a6.41,6.41,0,0,0-12.82,0c0,5.69,7.2,7.2,11.59,8.51,8,2.29,15,8.37,15,17.16,0,10.65-9.56,19.25-20.19,19.25-9.77,0-18.6-7.17-20-16.57L183.27,494c0,3.52,3.83,6.39,7.39,6.39Z"/><path class="cls-1" d="M260.32,449.64v12.57H244.8v50.58H232.07V462.21H216.52V449.64Z"/><path class="cls-1" d="M280.29,449.64l11.52,21.9,11.51-21.9H317.7l-19.59,36.08v27.07H285.5V485.72L266,449.64Z"/><path class="cls-1" d="M338.38,449.64v50.54h25.38v12.61H325.68V449.64Z"/><path class="cls-1" d="M409.82,449.48v12.65H384.44v12.74h19v12.65h-19v12.73h25.38v12.62H371.74V449.48Z"/><path class="cls-1" d="M460.11,449.64v50.54h25.38v12.61H447.41V449.64Z"/><path class="cls-1" d="M543.15,458.57a31.88,31.88,0,1,1-22.65-9.44A30.94,30.94,0,0,1,543.15,458.57Zm-36.24,9a19.21,19.21,0,0,0,27.15,27.19,19.21,19.21,0,1,0-27.15-27.19Z"/><path class="cls-1" d="M657.45,484.54V449.48h12.74v64.6l-38.08-36.27v35.06h-12.7V448.31Z"/><path class="cls-1" d="M710.21,449.25a32.26,32.26,0,0,1,22.69,9.36l-9,9.05A18.67,18.67,0,0,0,710.29,462a18.31,18.31,0,0,0-13.55,5.68,19.21,19.21,0,0,0,0,27.19,18.31,18.31,0,0,0,13.55,5.64,19.17,19.17,0,0,0,17.32-11.05h-18v-12.1H742c.9,11.8-3,20.37-9.21,26.56a31,31,0,0,1-22.65,9.36,32,32,0,0,1-32-32,31.07,31.07,0,0,1,9.4-22.68,30.61,30.61,0,0,1,22.6-9.44Z"/><path class="cls-1" d="M788.2,449.48v12.65H762.82v12.74h19v12.65h-19v12.73H788.2v12.62H750.12V449.48Z"/><path class="cls-1" d="M607.71,451.69l1.55-2H556l1.56,2c.15.2,15.49,20.09,17.76,23.57,2.13,3.26,3,6.43,3,17.63a36.22,36.22,0,0,1-.77,8.36,7,7,0,0,1-2.92,4.16c-2.52,1.69-7.18,4.8-8.42,5.47l-4.35,2.34H603.4l-4.35-2.34c-1.33-.72-6-3.83-8.43-5.48a7,7,0,0,1-2.89-4.1,35.63,35.63,0,0,1-.79-8.41c0-11.2.88-14.37,3-17.63C592.22,471.78,607.56,451.89,607.71,451.69Zm-22.25,21.76a18.86,18.86,0,0,0-2.81,7.07,18.86,18.86,0,0,0-2.81-7.07c-1.41-2.15-14.11-19-14.11-19a49.13,49.13,0,0,0,6.32.13c.67,0,1.07,0,1.07,0,4.6-.15,9.32-.34,14,1.3,3.51,1.21,6.58,2.61,9.22,3.05C596.39,458.89,586.48,471.88,585.46,473.45Z"/><path class="cls-1" d="M25.74,448.39v50.54H51.12v12.61H13V448.39Z"/><path class="cls-1" d="M59.11,448.39H71.8v63.15H59.11Z"/><path class="cls-1" d="M120.21,448.23v12.66H94.82v12.73h19v12.65h-19v25.35H82.13V448.23Z"/><path class="cls-1" d="M166.27,448.23v12.66H140.88v12.73h19v12.65h-19V499h25.39v12.61H128.19V448.23Z"/><path class="cls-1" d="M191.85,499.11c3.51,0,7.38-2.91,7.38-6.42,0-5.76-7.74-6.57-12.11-8.08-7.7-2.62-14.5-8.95-14.5-17.55A19.27,19.27,0,0,1,211,464.4l-12.61,2.66a6.41,6.41,0,0,0-12.81,0c0,5.69,7.2,7.2,11.59,8.51,8,2.3,15,8.37,15,17.16,0,10.65-9.56,19.25-20.19,19.25-9.77,0-18.6-7.16-20-16.57l12.6-2.68c0,3.52,3.84,6.4,7.4,6.4Z"/><path class="cls-1" d="M261.57,448.39V461H246.05v50.58H233.32V461H217.77V448.39Z"/><path class="cls-1" d="M281.54,448.39l11.51,21.9,11.52-21.9H319l-19.59,36.08v27.07H286.75V484.47L267.2,448.39Z"/><path class="cls-1" d="M339.62,448.39v50.54H365v12.61H326.93V448.39Z"/><path class="cls-1" d="M411.07,448.23v12.66H385.68v12.73h19v12.65h-19V499h25.39v12.61H373V448.23Z"/><path class="cls-1" d="M461.36,448.39v50.54h25.38v12.61H448.66V448.39Z"/><path class="cls-1" d="M544.39,457.32a31.87,31.87,0,1,1-22.64-9.44A30.93,30.93,0,0,1,544.39,457.32Zm-36.23,9a18.73,18.73,0,0,0-5.65,13.6,19.27,19.27,0,1,0,5.65-13.6Z"/><path class="cls-1" d="M658.7,483.3V448.23h12.73v64.61l-38.08-36.28v35.06H620.66V447.06Z"/><path class="cls-1" d="M711.46,448a32.28,32.28,0,0,1,22.69,9.36l-9,9.05a18.67,18.67,0,0,0-13.56-5.68,19.26,19.26,0,0,0,0,38.51,19.17,19.17,0,0,0,17.32-11.05h-18v-12.1h32.44c.91,11.8-3,20.37-9.2,26.56A31,31,0,0,1,711.42,512a32,32,0,0,1-32-32,31.07,31.07,0,0,1,9.4-22.68,30.59,30.59,0,0,1,22.6-9.44Z"/><path class="cls-1" d="M789.45,448.23v12.66H764.07v12.73h19v12.65h-19V499h25.38v12.61H751.37V448.23Z"/><path class="cls-1" d="M609,450.44l1.55-2H557.27l1.55,2c.16.2,15.5,20.09,17.77,23.57,2.12,3.26,3,6.43,3,17.63a36.8,36.8,0,0,1-.77,8.36,7,7,0,0,1-2.92,4.16c-2.52,1.69-7.18,4.8-8.42,5.47L563.14,512h41.51l-4.35-2.35c-1.33-.72-6-3.83-8.43-5.48a7,7,0,0,1-2.89-4.1,35.5,35.5,0,0,1-.8-8.41c0-11.2.89-14.37,3-17.63C593.47,470.53,608.81,450.64,609,450.44Zm-22.25,21.77a18.59,18.59,0,0,0-2.81,7.06,18.75,18.75,0,0,0-2.81-7.06c-1.41-2.16-14.11-19-14.11-19a49.13,49.13,0,0,0,6.32.13c.67,0,1.06,0,1.06,0,4.61-.15,9.32-.34,14.06,1.3,3.51,1.21,6.58,2.61,9.22,3.06C597.64,457.65,587.73,470.64,586.71,472.21Z"/><path class="cls-17" d="M27,447.14v50.54H52.37v12.61H14.29V447.14Z"/><path class="cls-18" d="M60.35,447.14h12.7v63.15H60.35Z"/><path class="cls-19" d="M121.46,447v12.66H96.07v12.73h19V485h-19v25.35H83.38V447Z"/><path class="cls-20" d="M167.52,447v12.66H142.13v12.73h19V485h-19v12.74h25.39v12.61H129.44V447Z"/><path class="cls-21" d="M193.1,497.86c3.5,0,7.37-2.91,7.37-6.42,0-5.76-7.74-6.57-12.1-8.08-7.7-2.62-14.5-8.94-14.5-17.54a19.27,19.27,0,0,1,38.35-2.67l-12.61,2.67a6.41,6.41,0,0,0-12.81,0c0,5.69,7.2,7.21,11.59,8.51,8,2.3,15,8.37,15,17.16,0,10.65-9.55,19.25-20.18,19.25-9.77,0-18.6-7.16-20-16.57l12.6-2.68c0,3.53,3.83,6.4,7.4,6.4Z"/><path class="cls-22" d="M262.81,447.14v12.58H247.3v50.57H234.57V459.72H219V447.14Z"/><path class="cls-23" d="M282.78,447.14,294.3,469l11.52-21.9H320.2l-19.59,36.08v27.07H288V483.22l-19.55-36.08Z"/><path class="cls-24" d="M340.87,447.14v50.54h25.39v12.61H328.18V447.14Z"/><path class="cls-25" d="M412.32,447v12.66H386.93v12.73h19V485h-19v12.74h25.39v12.61H374.24V447Z"/><path class="cls-26" d="M462.6,447.14v50.54H488v12.61H449.91V447.14Z"/><path class="cls-27" d="M545.64,456.07A31.88,31.88,0,1,1,523,446.63,30.93,30.93,0,0,1,545.64,456.07Zm-36.24,9a18.72,18.72,0,0,0-5.64,13.6,19.26,19.26,0,1,0,5.64-13.6Z"/><path class="cls-28" d="M660,482.05V447h12.73v64.61L634.6,475.31v35.06H621.91V445.81Z"/><path class="cls-29" d="M712.71,446.75a32.23,32.23,0,0,1,22.68,9.36l-9,9.05a18.69,18.69,0,0,0-13.55-5.68,19.26,19.26,0,0,0,0,38.51,19.14,19.14,0,0,0,17.31-11.05h-18v-12.1h32.44c.9,11.8-3,20.37-9.21,26.56a31,31,0,0,1-22.64,9.36,32,32,0,0,1-32-32,31.08,31.08,0,0,1,9.41-22.69,30.59,30.59,0,0,1,22.6-9.44Z"/><path class="cls-30" d="M790.7,447v12.66H765.31v12.73h19V485h-19v12.74H790.7v12.61H752.62V447Z"/><path class="cls-31" d="M610.21,449.19l1.55-2H558.52l1.55,2c.16.19,15.5,20.09,17.77,23.56,2.12,3.26,3,6.43,3,17.63a36,36,0,0,1-.78,8.36,7,7,0,0,1-2.91,4.16c-2.52,1.69-7.18,4.8-8.42,5.47l-4.35,2.35h41.5l-4.35-2.35c-1.32-.71-6-3.83-8.42-5.48a6.92,6.92,0,0,1-2.89-4.09,35.66,35.66,0,0,1-.8-8.42c0-11.2.89-14.37,3-17.63C594.71,469.29,610.05,449.39,610.21,449.19ZM588,471a18.76,18.76,0,0,0-2.82,7.06,18.59,18.59,0,0,0-2.81-7.06c-1.4-2.16-14.1-19-14.1-19a49.13,49.13,0,0,0,6.32.13c.67,0,1.06,0,1.06,0,4.61-.15,9.32-.34,14.06,1.3,3.5,1.21,6.58,2.61,9.22,3.06C598.89,456.4,589,469.39,588,471Z"/><path class="cls-16" d="M27,447.14v50.54H52.37v12.61H14.29V447.14Z"/><path class="cls-16" d="M60.35,447.14h12.7v63.15H60.35Z"/><path class="cls-16" d="M121.46,447v12.66H96.07v12.73h19V485h-19v25.35H83.38V447Z"/><path class="cls-16" d="M167.52,447v12.66H142.13v12.73h19V485h-19v12.74h25.39v12.61H129.44V447Z"/><path class="cls-16" d="M193.1,497.86c3.5,0,7.37-2.91,7.37-6.42,0-5.76-7.74-6.57-12.1-8.08-7.7-2.62-14.5-8.94-14.5-17.54a19.27,19.27,0,0,1,38.35-2.67l-12.61,2.67a6.41,6.41,0,0,0-12.81,0c0,5.69,7.2,7.21,11.59,8.51,8,2.3,15,8.37,15,17.16,0,10.65-9.55,19.25-20.18,19.25-9.77,0-18.6-7.16-20-16.57l12.6-2.68c0,3.53,3.83,6.4,7.4,6.4Z"/><path class="cls-16" d="M262.81,447.14v12.58H247.3v50.57H234.57V459.72H219V447.14Z"/><path class="cls-16" d="M282.78,447.14,294.3,469l11.52-21.9H320.2l-19.59,36.08v27.07H288V483.22l-19.55-36.08Z"/><path class="cls-16" d="M340.87,447.14v50.54h25.39v12.61H328.18V447.14Z"/><path class="cls-16" d="M412.32,447v12.66H386.93v12.73h19V485h-19v12.74h25.39v12.61H374.24V447Z"/><path class="cls-16" d="M462.6,447.14v50.54H488v12.61H449.91V447.14Z"/><path class="cls-16" d="M545.64,456.07A31.88,31.88,0,1,1,523,446.63,30.93,30.93,0,0,1,545.64,456.07Zm-36.24,9a18.72,18.72,0,0,0-5.64,13.6,19.26,19.26,0,1,0,5.64-13.6Z"/><path class="cls-16" d="M660,482.05V447h12.73v64.61L634.6,475.31v35.06H621.91V445.81Z"/><path class="cls-16" d="M712.71,446.75a32.23,32.23,0,0,1,22.68,9.36l-9,9.05a18.69,18.69,0,0,0-13.55-5.68,19.26,19.26,0,0,0,0,38.51,19.14,19.14,0,0,0,17.31-11.05h-18v-12.1h32.44c.9,11.8-3,20.37-9.21,26.56a31,31,0,0,1-22.64,9.36,32,32,0,0,1-32-32,31.08,31.08,0,0,1,9.41-22.69,30.59,30.59,0,0,1,22.6-9.44Z"/><path class="cls-16" d="M790.7,447v12.66H765.31v12.73h19V485h-19v12.74H790.7v12.61H752.62V447Z"/><path class="cls-16" d="M610.21,449.19l1.55-2H558.52l1.55,2c.16.19,15.5,20.09,17.77,23.56,2.12,3.26,3,6.43,3,17.63a36,36,0,0,1-.78,8.36,7,7,0,0,1-2.91,4.16c-2.52,1.69-7.18,4.8-8.42,5.47l-4.35,2.35h41.5l-4.35-2.35c-1.32-.71-6-3.83-8.42-5.48a6.92,6.92,0,0,1-2.89-4.09,35.66,35.66,0,0,1-.8-8.42c0-11.2.89-14.37,3-17.63C594.71,469.29,610.05,449.39,610.21,449.19ZM588,471a18.76,18.76,0,0,0-2.82,7.06,18.59,18.59,0,0,0-2.81-7.06c-1.4-2.16-14.1-19-14.1-19a49.13,49.13,0,0,0,6.32.13c.67,0,1.06,0,1.06,0,4.61-.15,9.32-.34,14.06,1.3,3.5,1.21,6.58,2.61,9.22,3.06C598.89,456.4,589,469.39,588,471Z"/><g class="cls-32"><path d="M470.16,28.78c-129.94-36-250.19,32-296.25,139.34-15.79,30.36-19.83,83-19.83,83s20.13-44.94,60.8-85.35c6.65-6.6,25.74-29.49,55.73-40.25,0,.1,0,.21.05.31a104.25,104.25,0,0,0,4.06,14.62,63.89,63.89,0,0,0,6.81,13.21,61.81,61.81,0,0,1-2-14.16,95.73,95.73,0,0,1,.95-14c.57-3.82,1.33-7.6,2.24-11.32,4.54-10.71,13.74-28.77,27.4-38.61C330.37,61,340.29,60.17,345.35,64.62s6.07,19.84,4.86,33.4a134.27,134.27,0,0,1-2.2,14.79c-1,3.94-2.26,7.85-3.69,11.7a97,97,0,0,1-5.94,12.72,61,61,0,0,1-8.58,11.43,64.06,64.06,0,0,0,12.35-8.27,104.62,104.62,0,0,0,10.61-10.85c1.81-2.17,3.55-4.41,5.22-6.7,7.59.27,17.19,1.2,24.41,3.92,14,5.26,26.92,10.73,48.58,28.13,0,0-4.25-5.83-8.43-11.37-4.42-5.85-4.53-12.71-1.89-19s18.21-35,47.56-35.62c0,0,8.5,6.88,6.68,23.68s-7.08,28.34-12.75,36.23c-2.41,3.35-5.36,7.25-8,10.63a11.17,11.17,0,0,0,1.2,14.93c6.82,6.46,19,17.75,22.49,27,0,0-3.58,17.64-19,38.49s-31.58,27.93-31.58,27.93,34.47-3.92,56.27-32c21.29-27.39,46.11-55.45,44.13-127.92,0,0,15.92,19.71,15.38,73.41s-5.13,70.17-5.67,77.72,4.32,15.66,3,28.88c-1,9.51-2.08,22.51-2.63,29.06a8.6,8.6,0,0,0,2.68,7l10.63,10a17.14,17.14,0,0,1,4,19.26l-17.84,41.44a23.67,23.67,0,0,1-14.42,13.17c-18.46,6-59.27,17.47-101.7,17.47-57.49,0-85-15.11-105-29.14,0,0,16.19,22.4,65,36.7,18.42,5.39,41.45,8,63,9.21,20.83,1.14,25,30.08,5.36,37a147.56,147.56,0,0,1-42.72,8.53c-60.72,2.7-91.75-.54-151.39-33.46-22.58-12.46-41-29.41-55.12-45.66A245.56,245.56,0,0,0,400,510.92c157.39,0,280.25-147.86,237.25-312.25A239.12,239.12,0,0,0,470.16,28.78Z"/><path d="M482.56,372.91S499.63,349,478,343.63C460.75,339.35,429.29,372,429.29,372S477.52,346.33,482.56,372.91Z"/><path d="M316.18,256.28s-3.14,19.91,6.29,28.3,28.31,5.24,33.55,1.05C356,285.63,330.92,282.23,316.18,256.28Z"/></g><path class="cls-1" d="M485.08,332c0-.19,0-.39,0-.59,0-.45,0-.9,0-1.33a41.35,41.35,0,0,0-.45-5.16c-.57-3.16-2.3-8.91-8.68-16.11h0c-.57-.66-1.19-1.32-1.85-2h0a75.18,75.18,0,0,0-7.47-6.67c-.81-.63-1.63-1.25-2.47-1.85s-1.6-1.13-2.41-1.68h0c-14.19-9.57-31.34-15.06-53.15-21-1.75-.48-3.47-.9-5.17-1.29h-.05c-1.37-.32-4.2-.91-4.27-.92h0a114.27,114.27,0,0,0-19.14-2.18h-.18c-.8,0-1.6-.05-2.38-.05l-1.05,0-1.17,0c-1,0-1.93.05-2.87.1l-1.16.08c-.93.06-1.84.13-2.75.22l-1.13.12c-.89.1-1.76.21-2.62.33l-1.11.17c-.85.13-1.68.28-2.5.43l-1.09.22c-.81.16-1.59.34-2.37.52l-1.08.26c-.75.2-1.5.4-2.23.61l-1.05.31c-.72.22-1.41.45-2.11.69-.34.12-.69.23-1,.36-.67.24-1.32.49-2,.75l-1,.41c-.63.26-1.24.54-1.84.81l-1,.45c-.58.29-1.15.58-1.71.88l-.94.49c-.54.3-1.07.61-1.59.92-.3.18-.61.35-.9.54-.51.31-1,.64-1.47,1-.29.19-.58.37-.85.57-.48.34-.94.69-1.39,1l-.77.57c-.47.38-.92.77-1.36,1.16-.21.17-.42.34-.62.52-.63.57-1.24,1.15-1.81,1.74-8.25,8.44-16.5,18.27-16.5,38.31,0,0-.11,1.47-.18,3.65,0,.72-.05,1.52-.07,2.38,0,.42,0,.86,0,1.3,0,.9,0,1.82,0,2.76s.05,1.87.11,2.78a35.74,35.74,0,0,0,.41,3.86,18.71,18.71,0,0,0,.41,1.9,28.06,28.06,0,0,0,19.66,19.84c.7.21,1.43.41,2.18.61l.63.16,1.72.42.67.15,2,.42.43.08a160.21,160.21,0,0,0,29.4,2.58,121.1,121.1,0,0,0,20.66-1.54c2.77-.5,5.68-1.1,8.7-1.73h0c6.11-1.27,12.73-2.65,19.93-3.65,1.1-.16,2.22-.3,3.35-.43l.69-.08c1.15-.13,2.32-.25,3.49-.35,3.68-.32,7.48-.52,11.44-.52,2.87,0,5.82.1,8.85.32q3.42.26,6.47.25c.87,0,1.69,0,2.52-.06h0l.26,0c.7,0,1.38-.06,2.06-.11l1-.07c.66,0,1.29-.12,1.92-.19.31,0,.63-.07.94-.12l1.77-.26.87-.15,1.62-.33.81-.19c.51-.12,1-.25,1.48-.39l.75-.21c.46-.14.91-.29,1.34-.44.24-.08.47-.16.69-.25.42-.15.82-.31,1.2-.47l.64-.28c.36-.16.72-.32,1.06-.49l.59-.31c.31-.17.62-.34.91-.52l.55-.34.78-.51.49-.37c.23-.17.45-.34.65-.51l.45-.41c.18-.16.36-.32.52-.48s.27-.3.4-.44.28-.31.4-.46.24-.32.35-.48.2-.27.28-.4a5.09,5.09,0,0,0,.3-.56c.05-.1.12-.2.17-.3a6.57,6.57,0,0,0,.3-.84c.11-.37.2-.77.3-1.18,0-.12.05-.25.08-.37.06-.32.13-.64.19-1,0-.13,0-.26.07-.39.08-.46.16-.92.23-1.4a.25.25,0,0,1,0-.09l.18-1.41.06-.48c0-.37.08-.75.11-1.13,0-.16,0-.32.05-.48.05-.52.09-1,.13-1.57,0-.08,0-.16,0-.24,0-.46.06-.92.08-1.38l0-.58c0-.36,0-.72.05-1.08l0-.58c0-.52,0-1,0-1.53v-.41c0-.38,0-.77,0-1.15V333C485.09,332.66,485.08,332.35,485.08,332Zm-105.59,3.48c-20.63,4.64-51.37,4.91-56.61-13.09a31.77,31.77,0,0,1,7.2-26.18c10.47-12.11,27.16-19,35-16.69s8.18,7.53,8.5,16.36,6.88,14.4,11.13,18.65S397.65,331.43,379.49,335.52Zm3.67-33.66c-3.41-6.2-3.75-17.05.68-20.54s16.34-2.71,22.81,0,6.43,6.56,5.1,8.53c-3.4,5-7.49,3.48-10.55,7.75a36.85,36.85,0,0,0-4.42,7C394.39,309.23,386.56,308.06,383.16,301.86Zm87.62,28.08c-5.59,3.61-21.06.65-27.31-.66a45.38,45.38,0,0,0-18.42,1c-10.2,2.64-18.43-.65-22.38-5.92s-1.31-16.12,5.6-23.69,21.38-9.87,30.27-7.89,21.06,7.23,29.61,17.1S476.38,326.32,470.78,329.94Z"/></svg>