<svg xmlns="http://www.w3.org/2000/svg" xmlns:xlink="http://www.w3.org/1999/xlink" viewBox="0 0 800 600"><defs><style>.cls-1{isolation:isolate;}.cls-2{fill:#953208;}.cls-11,.cls-14,.cls-17,.cls-18,.cls-19,.cls-22,.cls-3,.cls-4,.cls-5,.cls-8{mix-blend-mode:screen;}.cls-3{fill:url(#linear-gradient);}.cls-4{fill:url(#linear-gradient-2);}.cls-5{fill:url(#linear-gradient-3);}.cls-6{fill:url(#linear-gradient-4);}.cls-7{opacity:0.05;}.cls-8{fill:url(#linear-gradient-5);}.cls-9{fill:url(#linear-gradient-6);}.cls-10{fill:url(#linear-gradient-7);}.cls-11{fill:url(#linear-gradient-8);}.cls-12{fill:url(#linear-gradient-9);}.cls-13{fill:url(#linear-gradient-10);}.cls-14{fill:url(#linear-gradient-11);}.cls-15{fill:url(#linear-gradient-12);}.cls-16{fill:url(#linear-gradient-13);}.cls-17{fill:url(#linear-gradient-14);}.cls-18{fill:url(#linear-gradient-15);}.cls-19{fill:url(#linear-gradient-16);}.cls-20{fill:#661a00;}.cls-21{fill:#a91b25;}.cls-22{fill:url(#linear-gradient-17);}</style><linearGradient id="linear-gradient" x1="158.23" y1="95.39" x2="203.28" y2="95.39" gradientUnits="userSpaceOnUse"><stop offset="0" stop-color="#be222d"/><stop offset="1" stop-color="#f4831f" stop-opacity="0"/></linearGradient><linearGradient id="linear-gradient-2" x1="150.7" y1="124.99" x2="188.21" y2="124.99" xlink:href="#linear-gradient"/><linearGradient id="linear-gradient-3" x1="184.57" y1="122.83" x2="208.16" y2="122.83" xlink:href="#linear-gradient"/><linearGradient id="linear-gradient-4" x1="543.13" y1="205.5" x2="543.13" y2="178.61" gradientUnits="userSpaceOnUse"><stop offset="0" stop-color="#ed2f24"/><stop offset="1" stop-color="#fced09"/></linearGradient><linearGradient id="linear-gradient-5" x1="391.82" y1="314.01" x2="391.82" y2="461.2" gradientUnits="userSpaceOnUse"><stop offset="0"/><stop offset="1" stop-color="#f4831f"/></linearGradient><linearGradient id="linear-gradient-6" x1="579.56" y1="390.73" x2="593.54" y2="478.78" gradientTransform="matrix(-1, 0, 0, 1, 1066.83, 0)" xlink:href="#linear-gradient-4"/><linearGradient id="linear-gradient-7" x1="556.07" y1="371.12" x2="602.39" y2="466.02" gradientTransform="matrix(-1, 0, 0, 1, 1066.83, 0)" xlink:href="#linear-gradient-4"/><linearGradient id="linear-gradient-8" x1="573.3" y1="397.25" x2="593.28" y2="465.37" gradientTransform="matrix(-1, 0, 0, 1, 1066.83, 0)" xlink:href="#linear-gradient-5"/><linearGradient id="linear-gradient-9" x1="376.12" y1="322.78" x2="402.42" y2="488.37" xlink:href="#linear-gradient-4"/><linearGradient id="linear-gradient-10" x1="391.76" y1="284.05" x2="391.76" y2="467.78" xlink:href="#linear-gradient-4"/><linearGradient id="linear-gradient-11" x1="392.39" y1="314.42" x2="392.39" y2="461.2" xlink:href="#linear-gradient-5"/><linearGradient id="linear-gradient-12" x1="340.78" y1="398.83" x2="354.11" y2="482.74" gradientTransform="translate(83.78 -71.87) rotate(14.54)" xlink:href="#linear-gradient-4"/><linearGradient id="linear-gradient-13" x1="321.54" y1="391.45" x2="360.8" y2="471.87" gradientTransform="translate(83.78 -71.87) rotate(14.54)" xlink:href="#linear-gradient-4"/><linearGradient id="linear-gradient-14" x1="336.84" y1="406.46" x2="356.15" y2="472.25" gradientTransform="translate(83.78 -71.87) rotate(14.54)" xlink:href="#linear-gradient-5"/><linearGradient id="linear-gradient-15" x1="382.56" y1="406.92" x2="382.56" y2="450.51" gradientUnits="userSpaceOnUse"><stop offset="0" stop-color="#f4831f"/><stop offset="1" stop-color="#be222d" stop-opacity="0"/></linearGradient><linearGradient id="linear-gradient-16" x1="337.41" y1="439.45" x2="353.88" y2="413.78" gradientUnits="userSpaceOnUse"><stop offset="0" stop-color="#be222d" stop-opacity="0"/><stop offset="1" stop-color="#f4831f"/></linearGradient><linearGradient id="linear-gradient-17" x1="411.81" y1="405.88" x2="439.36" y2="440.53" xlink:href="#linear-gradient-15"/></defs><g class="cls-1"><g id="Layer_1" data-name="Layer 1"><path class="cls-2" d="M166.7,113.52c-4.6,0-8.88-2.12-10.64-5.28a6.75,6.75,0,0,1,.37-7.09,127.16,127.16,0,0,1,10.76-14.34c6.84-6.44,12.75-9.54,18.15-9.54A14.46,14.46,0,0,1,192,78.92c6.43,3.27,11.72,12.07,13.44,18.69,1.81,7,.78,11.36-3.24,13.86a4.23,4.23,0,0,1-2.29.7,10,10,0,0,1-4.18-1.38,16.32,16.32,0,0,0-7.42-2.1h-.53a13.77,13.77,0,0,0-5.2,1.57C179.32,111.72,175.3,113.52,166.7,113.52Z"/><path class="cls-3" d="M166.7,110.52c-3.49,0-6.79-1.54-8-3.74a3.78,3.78,0,0,1,.29-4,124.82,124.82,0,0,1,10.37-13.84c6.19-5.8,11.42-8.62,16-8.62a11.42,11.42,0,0,1,5.28,1.33c5.44,2.76,10.32,10.69,11.9,16.76,1.86,7.15-.05,9.4-1.92,10.57a1.28,1.28,0,0,1-.71.24,8.68,8.68,0,0,1-2.87-1.08,19.17,19.17,0,0,0-8.73-2.4h-.65a16.38,16.38,0,0,0-6.31,1.83C178.2,108.93,174.66,110.52,166.7,110.52Z"/><path class="cls-2" d="M160.61,138.15a31.89,31.89,0,0,1-6.83-.71c-5.69-1.29-6.69-8.76-5.82-14.76.78-5.35,1.17-8,3.31-9.25a2.53,2.53,0,0,1,1.26-.29,8.78,8.78,0,0,1,3.19.82c.48.25,1,.57,1.66.93,2.45,1.44,5.75,3.37,9.35,3.37h.3a32.28,32.28,0,0,0,15.84-5,7.84,7.84,0,0,1,4.25-1.46,4.17,4.17,0,0,1,4.19,2.94c.35,1.91-.46,2.87-6.5,5.5-3.63,1.58-6.23,5.77-8.53,9.47-1.57,2.52-3.05,4.91-4.59,5.95C169.42,137.23,165.28,138.15,160.61,138.15Z"/><path class="cls-4" d="M160.61,135.15a28.37,28.37,0,0,1-6.17-.64c-4-.89-4-7.85-3.51-11.4s.91-6.25,1.67-7a5.79,5.79,0,0,1,1.82.52c.38.19.88.49,1.44.81,2.73,1.6,6.45,3.78,10.87,3.78h.34a35.42,35.42,0,0,0,17.44-5.45,5,5,0,0,1,2.61-1,1.57,1.57,0,0,1,1.09.38,29.41,29.41,0,0,1-4.6,2.31c-4.49,2-7.35,6.56-9.88,10.63-1.27,2-2.71,4.37-3.72,5.06C168.68,134.1,165.43,135.15,160.61,135.15Z"/><path class="cls-2" d="M204.38,133.87c-2.14,0-4.61-1.5-6.59-2.7l-1-.57a13.22,13.22,0,0,0-6.48-2.24,7.29,7.29,0,0,0-3.15.72,10.4,10.4,0,0,1-4,1.12,2,2,0,0,1-1.67-.66,3.27,3.27,0,0,1-.13-2.81c1.07-3.9,5.6-5.61,6.5-5.91l.07,0h.08c4-.67,5.27-2.34,6.27-3.69.84-1.14,1.57-2.12,3.69-2.12a11.77,11.77,0,0,1,2.42.3,3.81,3.81,0,0,0,.74.08c1.38,0,2.22-.9,3.12-1.85s1.86-2,3.45-2l.44,0c2,.22,3.05,5.62,2.93,10.5-.12,5.07-2.1,9.72-4.81,11.32A3.82,3.82,0,0,1,204.38,133.87Z"/><path class="cls-5" d="M204.38,130.87c-1.31,0-3.55-1.36-5-2.26l-1-.6a15.93,15.93,0,0,0-8-2.65,10.38,10.38,0,0,0-4.43,1,12.45,12.45,0,0,1-1.35.55,7.85,7.85,0,0,1,4.19-3.2c5.11-.92,6.92-3.36,8-4.83.67-.91.67-.91,1.28-.91a9.07,9.07,0,0,1,1.8.23,6.44,6.44,0,0,0,1.36.15,7.11,7.11,0,0,0,5.3-2.79c.34-.36.58-.61.76-.77a21.75,21.75,0,0,1,.88,7.17c-.1,4.35-1.77,7.9-3.33,8.81A.75.75,0,0,1,204.38,130.87Z"/><path class="cls-6" d="M544.73,205.5s2.93-8,4.52-9.32,9.85-13.84,9.85-13.84l-8.51-3.73-23.43.26,12.78,17.31Z"/><g class="cls-7"><path d="M484.06,17C328.38-26.11,184.31,55.32,129.13,183.92c-18.92,36.38-23.76,99.43-23.76,99.43s24.12-53.85,72.84-102.26c8-7.91,30.84-35.33,66.77-48.22,0,.12,0,.24.07.37a122.79,122.79,0,0,0,4.86,17.51,76.1,76.1,0,0,0,8.16,15.83,73.62,73.62,0,0,1-2.39-17,116.8,116.8,0,0,1,1.13-16.78c.69-4.58,1.6-9.1,2.69-13.56C264.94,106.45,276,84.81,292.33,73c24.25-17.46,36.13-18.43,42.2-13.09s7.27,23.76,5.82,40a161.31,161.31,0,0,1-2.64,17.72c-1.25,4.72-2.7,9.4-4.42,14a115.57,115.57,0,0,1-7.11,15.24,74.1,74.1,0,0,1-10.28,13.7,77,77,0,0,0,14.79-9.92,126,126,0,0,0,12.72-13c2.16-2.6,4.24-5.29,6.25-8,9.09.32,20.59,1.43,29.24,4.69,16.73,6.31,32.25,12.86,58.2,33.71,0,0-5.08-7-10.09-13.62-5.3-7-5.43-15.24-2.28-22.75s21.83-42,57-42.68c0,0,10.19,8.24,8,28.37s-8.48,33.95-15.27,43.41c-2.89,4-6.43,8.68-9.54,12.73a13.38,13.38,0,0,0,1.43,17.89c8.17,7.74,22.8,21.27,27,32.38,0,0-4.29,21.14-22.72,46.12s-37.83,33.46-37.83,33.46,41.29-4.69,67.41-38.31c25.5-32.82,55.25-66.44,52.87-153.26,0,0,19.07,23.61,18.43,88s-6.15,84.06-6.79,93.12,5.17,18.75,3.55,34.59c-1.16,11.4-2.49,27-3.15,34.82a10.31,10.31,0,0,0,3.21,8.35l12.73,12a20.51,20.51,0,0,1,4.8,23.07l-21.37,49.66a28.34,28.34,0,0,1-17.28,15.77c-22.12,7.2-71,20.94-121.85,20.94-68.87,0-101.85-18.11-125.77-34.92,0,0,19.4,26.83,77.92,44,22.07,6.46,49.66,9.62,75.47,11,24.95,1.38,30,36,6.42,44.38a177.31,177.31,0,0,1-51.18,10.23c-72.75,3.23-109.93-.65-181.38-40.1-27.05-14.93-49.09-35.23-66-54.7A294.23,294.23,0,0,0,400,594.63c188.57,0,335.76-177.14,284.24-374.1C658.48,122,582.16,44.15,484.06,17Z"/><path d="M498.92,429.29s20.44-28.66-5.44-35.08c-20.69-5.13-58.39,34-58.39,34S492.87,397.44,498.92,429.29Z"/><path d="M299.58,289.55s-3.77,23.86,7.53,33.91,33.92,6.28,40.2,1.26C347.31,324.72,317.24,320.64,299.58,289.55Z"/></g><path d="M103.25,177.2v39.93h20.06v10H93.22V177.2Z"/><path d="M129.62,177.2h10v49.9h-10Z"/><path d="M177.91,177.07v10H157.84v10.06h15v10h-15v20h-10V177.07Z"/><path d="M214.31,177.07v10H194.24v10.06h15v10h-15V217.2h20.07v10h-30.1V177.07Z"/><path d="M234.52,217.28c2.77,0,5.83-2.3,5.83-5.07,0-4.56-6.12-5.19-9.57-6.39-6.08-2.07-11.46-7.07-11.46-13.87a15.23,15.23,0,0,1,30.31-2.1l-10,2.1a5.07,5.07,0,0,0-10.13,0c0,4.5,5.69,5.7,9.16,6.72,6.3,1.82,11.85,6.62,11.85,13.57,0,8.41-7.55,15.21-16,15.21-7.72,0-14.7-5.66-15.84-13.09l10-2.12c0,2.78,3,5,5.85,5Z"/><path d="M289.61,177.2v9.93H277.35v40H267.29v-40H255V177.2Z"/><path d="M305.4,177.2l9.1,17.3,9.1-17.3H335l-15.48,28.51V227.1h-10V205.71L294.06,177.2Z"/><path d="M351.3,177.2v39.93h20.06v10H341.27V177.2Z"/><path d="M407.76,177.07v10H387.7v10.06h15.05v10H387.7V217.2h20.06v10H377.67V177.07Z"/><path d="M447.5,177.2v39.93h20.06v10H437.47V177.2Z"/><path d="M513.12,184.25a25.19,25.19,0,1,1-17.89-7.46A24.43,24.43,0,0,1,513.12,184.25Zm-28.63,7.13a15.18,15.18,0,0,0,21.45,21.48,15.18,15.18,0,1,0-21.45-21.48Z"/><path d="M603.46,204.78V177.07h10.06v51.05l-30.1-28.66v27.7h-10v-51Z"/><path d="M645.15,176.89a25.49,25.49,0,0,1,17.93,7.4l-7.16,7.15A14.71,14.71,0,0,0,645.21,187a14.46,14.46,0,0,0-10.71,4.49,15.16,15.16,0,0,0,0,21.48,14.44,14.44,0,0,0,10.71,4.46,15.15,15.15,0,0,0,13.69-8.73H644.65v-9.57h25.64c.71,9.33-2.35,16.1-7.28,21a24.5,24.5,0,0,1-17.89,7.39,25.32,25.32,0,0,1-25.3-25.29,24.56,24.56,0,0,1,7.44-17.93,24.17,24.17,0,0,1,17.86-7.46Z"/><path d="M706.78,177.07v10H686.72v10.06h15v10h-15V217.2h20.06v10H676.69V177.07Z"/><path d="M564.15,178.82l1.22-1.59H523.3l1.23,1.59c.12.16,12.24,15.88,14,18.62,1.68,2.58,2.39,5.09,2.39,13.94a28.48,28.48,0,0,1-.62,6.6,5.52,5.52,0,0,1-2.3,3.29c-2,1.33-5.68,3.79-6.66,4.32l-3.43,1.86h32.8l-3.44-1.86c-1-.56-4.72-3-6.66-4.33a5.54,5.54,0,0,1-2.28-3.24,28,28,0,0,1-.63-6.64c0-8.85.7-11.36,2.38-13.94C551.9,194.7,564,179,564.15,178.82ZM546.56,196a14.88,14.88,0,0,0-2.22,5.58,14.88,14.88,0,0,0-2.22-5.58C541,194.31,531,181,531,181a37.77,37.77,0,0,0,5,.1c.52,0,.84,0,.84,0,3.64-.12,7.36-.27,11.11,1,2.76,1,5.19,2.07,7.28,2.42C555.2,184.51,547.37,194.78,546.56,196Z"/><path d="M85.15,76.09V89.45H58.35v13.44h20.1v13.36H58.35V143H45V76.09Z"/><path d="M106.7,76.25v53.36h26.8v13.32H93.3V76.25Z"/><path d="M244.43,144.42,214.36,76.25h14.19l15.84,36.52,15.88-36.52h14.35Z"/><path d="M331.86,85.68a33.7,33.7,0,0,1,0,47.86,33.84,33.84,0,0,1-57.74-23.91,33.78,33.78,0,0,1,57.74-23.95ZM293.6,95.2a20.28,20.28,0,0,0,28.67,28.7,20.18,20.18,0,0,0,0-28.7,20.22,20.22,0,0,0-28.67,0Z"/><path d="M390.34,116.58V76.25h13.49v40.37a27,27,0,0,1-53.94,0V76.25h13.49v40.33a13.48,13.48,0,0,0,27,0Z"/><path d="M414.45,76.25h21.76A24.51,24.51,0,0,1,453.67,83c4.06,4.06,6.45,7.77,6.45,15.14v1.74a21.59,21.59,0,0,1-4.22,12.7,15.18,15.18,0,0,1-8,6.16l15.51,24.16H447.05L427.9,113.44v29.49H414.5ZM446.3,98.59a9,9,0,0,0-2.64-6.41c-1.74-1.69-5-2.65-8.28-2.65h-7.52v18.4H433v0h4.46C442.38,108,446.3,103.67,446.3,98.59Z"/><path d="M509.71,76.25v29.49l17.08-29.49h15.47l-19.73,33.88,22.91,32.8H529.15l-19.44-28v28H496.35V76.25Z"/><path d="M553.59,76.25H567v66.68h-13.4Z"/><path d="M617.78,113.11v-37h13.44v68.2L591,106v37H577.61V74.85Z"/><path d="M673.2,75.84a34.07,34.07,0,0,1,23.95,9.88l-9.56,9.56a19.7,19.7,0,0,0-14.31-6,19.34,19.34,0,0,0-14.31,6,20.26,20.26,0,0,0,0,28.7,19.36,19.36,0,0,0,14.31,6,20.23,20.23,0,0,0,18.28-11.66h-19V105.49h34.24c1,12.47-3.13,21.51-9.72,28.05a32.72,32.72,0,0,1-23.9,9.88,33.82,33.82,0,0,1-33.8-33.79,32.83,32.83,0,0,1,9.93-23.95,32.32,32.32,0,0,1,23.87-10Z"/><path d="M733.63,129.8c3.7,0,7.79-3.07,7.79-6.77,0-6.09-8.17-6.94-12.78-8.54-8.13-2.77-15.31-9.44-15.31-18.52a20.34,20.34,0,0,1,40.49-2.81L740.51,96A6.77,6.77,0,0,0,727,96c0,6,7.6,7.6,12.23,9,8.42,2.42,15.84,8.83,15.84,18.12,0,11.24-10.09,20.32-21.32,20.32-10.31,0-19.63-7.56-21.15-17.49l13.31-2.83c0,3.72,4,6.75,7.8,6.75Z"/><path d="M179.5,99.91a13.8,13.8,0,0,0,3.44.43c3.53,0,6.52-1.26,8.2-3.44s2-5.16,1.07-8.81c-.74-2.78-3.36-4.44-7-4.44a12.39,12.39,0,0,0-7.92,2.82,8.74,8.74,0,0,0-2.65,8.39A6.63,6.63,0,0,0,179.5,99.91Z"/><path d="M213.2,111.75C210.66,99,203,82.93,194,77s-19.88-4.35-35.36,14.68c0,0-10.18,13.32-12.72,27.19s.84,22.56,12,22.56c19.42,0,22.8-8.58,30.05-9,10.18-.54,14.57,10.06,20.58,5.17C214.28,132.93,215.74,124.53,213.2,111.75Zm-55.92-10.07a130,130,0,0,1,10.66-14.22c6.56-6.16,12.27-9.19,17.4-9.19a13.29,13.29,0,0,1,6.18,1.55c6.17,3.13,11.27,11.63,12.94,18s.79,10.52-2.81,12.76a3.14,3.14,0,0,1-1.76.55h0a9.54,9.54,0,0,1-3.75-1.28,17.15,17.15,0,0,0-7.85-2.2h-.57a14.59,14.59,0,0,0-5.57,1.66c-3.15,1.4-7.06,3.16-15.45,3.16-4.25,0-8.18-1.92-9.76-4.77A5.7,5.7,0,0,1,157.28,101.68Zm18.15,27.53c-1.51,2.43-2.93,4.73-4.3,5.66-2.11,1.43-6,2.28-10.52,2.28a30.55,30.55,0,0,1-6.61-.69c-5-1.13-5.86-8.05-5.05-13.63.78-5.38,1.16-7.6,2.81-8.53a1.52,1.52,0,0,1,.77-.16,7.53,7.53,0,0,1,2.75.72c.47.24,1,.56,1.64.93,2.51,1.46,5.94,3.47,9.81,3.47H167a33.32,33.32,0,0,0,16.38-5.12,6.8,6.8,0,0,1,3.7-1.3,3.2,3.2,0,0,1,3.21,2.12c.18,1,.3,1.69-5.92,4.4C180.49,121.06,177.8,125.39,175.43,129.21Zm34.72-7.2c-.11,4.67-1.93,9.08-4.32,10.49a2.79,2.79,0,0,1-1.45.37c-1.86,0-4.2-1.41-6.08-2.55-.33-.2-.65-.4-1-.58a14,14,0,0,0-7-2.38,8.35,8.35,0,0,0-3.58.81,9.07,9.07,0,0,1-3.53,1,1.16,1.16,0,0,1-.87-.27c-.09-.11-.34-.58,0-1.93,1-3.48,5.29-5,5.85-5.23,4.42-.74,5.86-2.67,6.9-4.08.82-1.11,1.27-1.72,2.89-1.72a10.47,10.47,0,0,1,2.21.28,5.2,5.2,0,0,0,1,.1c1.81,0,2.89-1.15,3.85-2.17s1.62-1.67,2.72-1.67l.33,0C208.89,112.62,210.29,116.38,210.15,122Z"/><path d="M552.6,71l15.07-5.39a4.06,4.06,0,0,0,2.45-5.18l-3-8.29-4.08,5.3-9.3-6.92-2.53,11.14-6.66-1,2.83,7.91A4.06,4.06,0,0,0,552.6,71Z"/><path class="cls-8" d="M448.79,377.93c-3.67,39.58-35.92,24.19-41.05,53.51-26.38-41.78,13.93-54.24-6.6-96.75C406.28,361.07,350,382,377.69,437.3c-13.19,1.47-42.51-14.66-43.24-44.71a112.94,112.94,0,0,0-2.76,13.16c1.56,2.62,3.07,5.26,4.5,8l-4.6,2.15c-.24-.58-.51-1.16-.76-1.74-2.28,39.36,22.25,65,62.25,65C456,479.08,458.32,424.11,448.79,377.93Z"/><path class="cls-9" d="M503.23,399.52c5.2,22.08.1,28.47-10.4,37,18.84-27.93-15.58-41.57,18.84-74.7-65,9.74-88.31,106.07-46.08,113.72C508.43,483.31,528.56,448.24,503.23,399.52Z"/><path class="cls-10" d="M507,431.63c-9.06,7.26-12.69,15.42-24.49,14.51,16.21-34.28-13-38.83,12.31-75.21-35.72,18.84-62.52,83.62-33.12,100C483.74,483.31,505.15,469.73,507,431.63Z"/><path class="cls-11" d="M459.8,464.28c12.31,12.32,38.89,4.55,43.43-19.94-8.45,12.34-21.66,12.69-29.83,9.06,6-13.2,7.26-14.51,3.63-52.61C472.49,426.19,442.56,447.05,459.8,464.28Z"/><path class="cls-12" d="M344,323.34c-8.77,32.89,4.74,38.82,5,60.88-1.39-63.8,57.82-67.46,17.62-121.55,48.24,26.32,68,68,54.82,117,19-12.43,24.12-46.05,5.12-81.14,38.74,30,81.4,186.22-30,185.66C323.85,483.79,276,427.87,344,323.34Z"/><path class="cls-13" d="M334.45,367.2c-1.47,22.29,13,43.3,27.77,56.28C341,365.74,406.3,337.9,388.54,294.83c30,24.86,28.5,82.6,16.08,115.5,11.69-29.24,44.34-12.92,40.93-59.21,18,50.19,26.54,130.11-49,130.11C330.79,481.23,312.52,430.06,334.45,367.2Z"/><path class="cls-14" d="M335.18,392.78c.73,30,30,46.05,43.12,44.59-27.6-55.13,28.51-76,23.39-102.33,20.47,42.39-19.73,54.82,6.58,96.48,5.12-29.24,37.28-13.88,40.94-53.36,9.5,46,7.17,100.87-55.56,100.87C346.88,479,321.29,444,335.18,392.78Z"/><path class="cls-15" d="M291.25,402.38c-6.25,23-2.61,32.21,6.88,42.22-9.37-29.53,23.6-31.24,2.17-77.14,35.24,31.5,62.94,114,14.33,115.4C272.64,484.1,266.6,441,291.25,402.38Z"/><path class="cls-16" d="M284.69,434.44c6.51,8.71,7.88,17,18.78,18.91-3.2-35,13-26.45,10.22-63.12,17,29,40.36,86.24.08,90.14C297.11,482,277.39,469.38,284.69,434.44Z"/><path class="cls-17" d="M319.82,477.41c-14,8.28-33.58-8.36-31.94-31.62,5.71,10.47,13.85,17.63,22.1,16.26-5-11.89-3.26-27.3,9.07-48.51C310.26,435.67,349.15,460.12,319.82,477.41Z"/><path d="M375.71,497c-13.15,0-26.17-1.57-34.82-4.2-17.5-5.33-20.79-20.3-21.27-23.24-.95-5.84-.77-15.15-.75-16.19,0-19.39,7.49-28.67,15.83-37.23,10.15-10.41,27.06-16.38,46.41-16.38a111,111,0,0,1,29.14,4.11c22.29,6.08,40.06,12.41,54.29,23.59,15.17,11.92,16.9,21.5,17.47,24.65.93,5.2,1,18.14-.83,24.7s-11.71,13.16-29.7,13.16c-2,0-4.08-.08-6.19-.23-2.53-.19-5.11-.28-7.69-.28-12.87,0-24,2.32-33.83,4.37l-.14,0c-2.94.61-5.71,1.18-8.41,1.68A114.07,114.07,0,0,1,375.71,497Z"/><path d="M477.66,452.86c-.71-3.95-2.89-11.79-15.84-22-13.68-10.74-30.64-16.79-52.73-22.81-33.92-9.25-59.51-.92-71.23,11.1-7.47,7.66-14.57,16.06-14.57,34.24,0,0-.23,9.71.69,15.38.6,3.65,4,15.41,18.19,19.72s38.69,5.09,52.26,2.62,30.22-7.4,51.18-5.85,30.08-5.26,31.32-9.71C478.58,469.62,478.47,457.36,477.66,452.86Z"/><path class="cls-2" d="M419.86,486.07c.41-4.57,1.36-15.52,1.36-19.33,0-4.87-.7-10.66-3.71-14.36s-3.24-7.19-6.49-3.94-4.63,5.56-6.48,6-5.1-.23-8.34,1.85-3.24,3.25-.93,6,5.79,3.24,6.49,8.8c.63,5.09.37,14.4.32,18.25C407.53,488.26,413.43,487,419.86,486.07Z"/><path class="cls-2" d="M362,414.73c-5.41,7.57-6.83,21.92.35,27.94s15.32,12.05,21.57,6.95c0,0-1.35,4.14-4.13,4.84,0,0,9.62,4.1,13.32-.24,2.35-2.75,6.07-3.23,9.08-4.62s6-3,5.33-6.26-1.39-4.63-1.62-7.18-3-4.63-7.41-6.48-5.8,3.47-11.82,4.4a28.59,28.59,0,0,0,7.18-8.34c2.78-5.1,2.32-5.56,4.17-7.41s4.4-7.87,2.09-12.73a96.88,96.88,0,0,0-25.57-1.51A36.81,36.81,0,0,0,362,414.73Z"/><path class="cls-18" d="M387.82,452.77a11.6,11.6,0,0,1-1.44-.09,15.81,15.81,0,0,0,.84-2l2.23-7.8L381.78,447a4.72,4.72,0,0,1-3.12,1.14h0c-4.46,0-10.71-5.25-14.07-8.06-5.44-4.56-4.4-16.83.23-23.31a33.57,33.57,0,0,1,10.72-9.26c2-.14,4-.22,6-.22a97,97,0,0,1,15.95,1.38,10.07,10.07,0,0,1-1.9,7.27,11.87,11.87,0,0,0-2.73,4.12c-.41.9-1,2.13-2,4.07a53,53,0,0,1-5.84,8.35l-6.8,7.12c3.59-.55,14.91-4.37,16.6-5.63a6.88,6.88,0,0,1,1.93-1.2,1.07,1.07,0,0,1,.43.11c5.13,2.17,5.32,3.62,5.32,3.63a24.06,24.06,0,0,0,.94,4.63c.24.87.49,1.78.75,3,.11.53-.94,1.27-3.41,2.41-.74.34-1.59.64-2.49,1-2.45.85-5.5,1.91-7.76,4.56A3.78,3.78,0,0,1,387.82,452.77Z"/><path class="cls-2" d="M394.73,473.09c0-2.88-1.08-7-4.09-8.9s-6-1.85-11.12-2.78a24.9,24.9,0,0,1-11.58-5.79c-2.78-2.32-5.1-7.18-6.72-6s-3,3-3,8.8-1.16,8.57.93,11.81a14.65,14.65,0,0,1,2.78,8.8c0,2.58-.1,9.74-.14,12.57,11.8,1.06,24.5.79,33-.74C394.76,487,394.73,475.49,394.73,473.09Z"/><path class="cls-2" d="M330.88,457.47c3.71-2.08,7.87-8.34,8.57-11.81a17.66,17.66,0,0,0-.7-7.65s5.1,6.72,9,5.33,4.17-6.25,4.4-11.12a33.6,33.6,0,0,1,4.4-14.59c2.23-3.56,4.09-10.62,4.23-11.16-9.8,2.69-17.46,7.19-22.53,12.39-7.47,7.66-14.57,16.06-14.57,34.25v.47C324.57,454.89,327.71,459.25,330.88,457.47Z"/><path class="cls-19" d="M329.26,454.43a5.91,5.91,0,0,1-2.09-1.92c.16-16.17,6.25-23.73,13.59-31.25a42,42,0,0,1,14.75-9.4,24.19,24.19,0,0,1-1.84,3.95,36.79,36.79,0,0,0-4.92,16.25c-.2,4.34-.47,7.46-2.11,8-1,0-3.51-2-5.15-4.17l-6,3.17a13.89,13.89,0,0,1,.59,5.88C335.56,447.58,332,452.86,329.26,454.43Z"/><path class="cls-2" d="M454.34,467a18.92,18.92,0,0,0-6.49-10.66c-3.47-2.78-4.17-1.15-9.26-2.54s-10.19-3.94-11.82-3.94-4.63-.7-3,2.78,3.48,4.17,3.25,13.2c-.18,6.94.1,15.68.23,19.37a114.66,114.66,0,0,1,18.81-.21c2.67.19,5.14.25,7.44.2C453.81,481.24,454.72,469.65,454.34,467Z"/><path class="cls-2" d="M354.74,473c0-2.78-1.62-3.71-1.39-9s3-13.44-1.39-14.36-6.49-1.16-9.5,2.78-6.95,7.41-7.18,14.12c-.21,6,1.39,14,1.74,19.33a28.39,28.39,0,0,0,5.59,2.37,80.66,80.66,0,0,0,11.66,2.49C354.38,487,354.74,475.33,354.74,473Z"/><path d="M368.31,412.22a19.39,19.39,0,0,0-4.6,7.56,29,29,0,0,0-1.44,8.66,20.73,20.73,0,0,0,1.34,8.55,18,18,0,0,0,5.17,7.13,14.12,14.12,0,0,1-6.59-6.48,18.42,18.42,0,0,1-1.57-4.51,23,23,0,0,1-.35-4.75,23.81,23.81,0,0,1,2-9.17,17.53,17.53,0,0,1,2.49-4A11.83,11.83,0,0,1,368.31,412.22Z"/><path d="M362.42,454a25.06,25.06,0,0,0,5.92,5.93,23.51,23.51,0,0,0,7.59,3.06c1.35.35,2.73.62,4.11.85.7.12,1.39.23,2.09.32l1,.12.53.07.61.1a9,9,0,0,1,4,2.21,7.64,7.64,0,0,1,2.39,3.68,9,9,0,0,0-3-2.9,8.89,8.89,0,0,0-3.67-1.45l-.45,0h-.55l-1.09-.06c-.73,0-1.46-.11-2.18-.19a40.1,40.1,0,0,1-4.33-.78,20,20,0,0,1-8.05-3.76A17,17,0,0,1,362.42,454Z"/><path class="cls-20" d="M402.08,489.38c5.45-1.13,11.35-2.38,17.78-3.31.37-4.13,1.18-13.46,1.33-18-7.05.95-13.48,2.33-19.38,3.55C402.38,476.76,402.12,485.63,402.08,489.38Z"/><path class="cls-21" d="M478.47,456.68c-.08-1.4-.2-2.64-.35-3.6a31,31,0,0,1-.8,4.37,5.79,5.79,0,0,1-.4,1A7.56,7.56,0,0,0,478.47,456.68Z"/><path class="cls-20" d="M354.74,473v-.05a81.85,81.85,0,0,1-12.27-2.57,28.38,28.38,0,0,1-7.2-3.31c-.1,6,1.43,13.74,1.76,18.87a28.6,28.6,0,0,0,5.44,2.28,82.44,82.44,0,0,0,11.8,2.5C354.38,487.05,354.74,475.33,354.74,473Z"/><path class="cls-20" d="M454.37,467.31a75.63,75.63,0,0,1-8.39-.17,114.74,114.74,0,0,0-19,.24c-.1,6.64.15,14.39.27,17.81A113.82,113.82,0,0,1,446,485c2.7.2,5.19.26,7.5.2C453.8,481.4,454.65,470.5,454.37,467.31Z"/><path class="cls-20" d="M394.73,473.09V473c-8.66,1.56-21.73,1.81-33.76.68a13.84,13.84,0,0,1,.95,5.34c0,2.59-.1,9.76-.14,12.58,11.81,1.05,24.52.77,33-.76h0C394.76,487,394.73,475.49,394.73,473.09Z"/><path class="cls-2" d="M461.52,450.52c-5.1-2.55-9.27-2.78-13.44-6.25s-12-4.63-12-4.63,6-1.63,8.8-.93,6.49-.93,2.78-3-5.33-6.95-5.33-10.89c0,0,3,6.72,6.72,7.65,3.09.77,6.2-3.9,7.56-5.22h0s.21-.22.46-.44c-12.72-8.46-28.15-13.76-47.5-19-1.84-.5-3.64-.94-5.43-1.34.07.39,1.07,6.05-.72,10.75-1.85,4.86-3.94,7.41-2.09,8.8s7.65.69,10,2.32,5.09,1.39,7.64,1.39,4.4,3.24,4.4,3.24a10.51,10.51,0,0,0-8.11-.93c-4.4,1.39-5.09,6.26-3.7,7.65S418,445,423.3,444.5s10.65,2.32,14.82,4.17,6.95.46,9.5,3.24,5.33,7.18,10,10,10,1.39,10.66-1.62S466.61,453.07,461.52,450.52Z"/><path class="cls-22" d="M462.83,459.94a6.83,6.83,0,0,1-3.48-1c-2.93-1.76-5.11-4.43-7-6.79-.69-.85-1.36-1.66-2-2.41a43,43,0,0,0,4.64,1.84,41.85,41.85,0,0,1,5.06,2c3.86,1.93,5.08,4.65,4.92,5.78a3.19,3.19,0,0,1-2.07.56Zm-16.89-13a17.78,17.78,0,0,0-2.74-.53,12.75,12.75,0,0,1-3.68-.9l-1.38-.63c-3.81-1.73-8.56-3.89-13.64-3.89q-.75,0-1.5.06a5.49,5.49,0,0,1-.58,0c-3.41,0-6.85-2.44-8.13-3.56a2.61,2.61,0,0,1,1.94-2.27,6.12,6.12,0,0,1,1.86-.28,7.38,7.38,0,0,1,3.42.87l11.18,6.6-6.4-11.25c-.3-.51-3-5-7.39-5h-1.73c-1.75,0-3-.13-3.94-.78-1.94-1.35-4.5-1.62-7-1.87-.53-.06-1.21-.12-1.8-.21.18-.42.4-.89.59-1.32.45-1,1-2.25,1.56-3.68a22.1,22.1,0,0,0,1.29-7.51l.74.2c13.82,3.77,25.63,7.52,35.87,12.52l-5.64,1.21A18.26,18.26,0,0,0,442,435.13a38,38,0,0,0-6.86,1.19l.39,6.72c1.93.29,7.55,1.54,10.34,3.87Zm3.8-17.87c-1-.36-2.69-2.52-3.88-4.8q3,1.51,5.85,3.21A6.63,6.63,0,0,1,449.74,429.09Z"/><path class="cls-2" d="M468.46,436a68,68,0,0,0-6.21-5.47l-.62-.47-.2.13c-1.13.85-8.06,6.16-8.48,8.71-.46,2.78,2.78,3.71,6,2.55s6-5,9.49-5.45Z"/><path class="cls-2" d="M478.1,452.53c-.53-2.95-1.89-8.09-8-14.76h0s-4.19,1.87-4.19,4.41.69,4.17,3.71,6.95,4.17,4.17,3.93,7.41,2.59,3.76,5,.07A38.74,38.74,0,0,0,478.1,452.53Z"/><path d="M466,456.28a3.25,3.25,0,0,1,.45,1.53,2.47,2.47,0,0,1-.53,1.55,4.15,4.15,0,0,1-2.95,1.37,7.78,7.78,0,0,1-3.24-.52,14.14,14.14,0,0,1-2.85-1.6c-3.59-2.48-6.07-6.17-8.86-9.19a5.05,5.05,0,0,0-2.51-1.42c-1-.24-2-.33-3.1-.53a14,14,0,0,1-3.15-.9c-1-.42-1.94-.9-2.9-1.35a41.82,41.82,0,0,0-5.86-2.38,18.48,18.48,0,0,0-6.22-1,17.25,17.25,0,0,1,6.35.5,42.54,42.54,0,0,1,6,2.16l2.92,1.25a13,13,0,0,0,3,.8c1,.18,2.09.25,3.18.5a6.73,6.73,0,0,1,1.6.6,6.13,6.13,0,0,1,1.38,1c1.52,1.6,2.73,3.32,4.12,4.91a28.91,28.91,0,0,0,4.51,4.34,13.36,13.36,0,0,0,2.63,1.63,7.23,7.23,0,0,0,3,.63,3.83,3.83,0,0,0,2.75-1A2.61,2.61,0,0,0,466,456.28Z"/><path d="M511,466c-.46.65-.95,1.27-1.45,1.88s-.76.9-1.15,1.34-.59.66-.89,1-.63.64-1,1-.76.71-1.16,1.06-.68.61-1,.9c-.56.46-1.14.9-1.73,1.33l-.85.59c-.51.35-1,.69-1.57,1l-.76.46a40.92,40.92,0,0,1-8.49,3.67l-7.65,7.65-3.59,3.58L455.83,515.2l-19.52-19.52c-2.33.05-4.62.15-6.84.33l21.32,21.32-46.25,0,20.9-20.9c-2.87.32-5.65.72-8.34,1.17L399.47,515.2,387.2,502.93c-2.13.2-4.38.35-6.72.44l13.92,13.92-40.48,0,13.87-13.87c-2.29-.08-4.57-.2-6.8-.36L348.82,515.2l-27.33-27.34a24.68,24.68,0,0,1-6.64.53l3.93,3.93L295.89,515.2,279.8,499.11l13.94-13.94a35.14,35.14,0,0,1-14.34-10.5,16,16,0,0,1-.9-1.48l-13.17,13.37-19.24,19.2L231,520.8l1.19,3,10.51,25.93H557.8l10.5-25.93.74-2.46ZM261.69,517.22l14.53-14.53,14.54,14.54Zm39.33,0,21.34-21.34,21.36,21.36Zm159.84.09L483.25,495l22.41,22.41Zm26-26,12-12,23.83,23.83-12,12Zm28.84,26,10.56-10.55,10.57,10.57Z"/></g></g></svg>