<svg xmlns="http://www.w3.org/2000/svg" xmlns:xlink="http://www.w3.org/1999/xlink" viewBox="0 0 800 600"><defs><style>.cls-1{isolation:isolate;}.cls-2{opacity:0.05;}.cls-3{fill:url(#linear-gradient);}.cls-10,.cls-13,.cls-15,.cls-16,.cls-19,.cls-4,.cls-7{mix-blend-mode:screen;}.cls-4{fill:url(#linear-gradient-2);}.cls-5{fill:url(#linear-gradient-3);}.cls-6{fill:url(#linear-gradient-4);}.cls-7{fill:url(#linear-gradient-5);}.cls-8{fill:url(#linear-gradient-6);}.cls-9{fill:url(#linear-gradient-7);}.cls-10{fill:url(#linear-gradient-8);}.cls-11{fill:url(#linear-gradient-9);}.cls-12{fill:url(#linear-gradient-10);}.cls-13{fill:url(#linear-gradient-11);}.cls-14{fill:#953208;}.cls-15{fill:url(#linear-gradient-12);}.cls-16{fill:url(#linear-gradient-13);}.cls-17{fill:#661a00;}.cls-18{fill:#a91b25;}.cls-19{fill:url(#linear-gradient-14);}</style><linearGradient id="linear-gradient" x1="542.77" y1="512" x2="542.77" y2="486.07" gradientUnits="userSpaceOnUse"><stop offset="0" stop-color="#ed2f24"/><stop offset="1" stop-color="#fced09"/></linearGradient><linearGradient id="linear-gradient-2" x1="391.82" y1="96.95" x2="391.82" y2="244.13" gradientUnits="userSpaceOnUse"><stop offset="0"/><stop offset="1" stop-color="#f4831f"/></linearGradient><linearGradient id="linear-gradient-3" x1="579.56" y1="173.66" x2="593.54" y2="261.72" gradientTransform="matrix(-1, 0, 0, 1, 1066.83, 0)" xlink:href="#linear-gradient"/><linearGradient id="linear-gradient-4" x1="556.07" y1="154.06" x2="602.39" y2="248.95" gradientTransform="matrix(-1, 0, 0, 1, 1066.83, 0)" xlink:href="#linear-gradient"/><linearGradient id="linear-gradient-5" x1="573.3" y1="180.19" x2="593.28" y2="248.31" gradientTransform="matrix(-1, 0, 0, 1, 1066.83, 0)" xlink:href="#linear-gradient-2"/><linearGradient id="linear-gradient-6" x1="376.12" y1="105.72" x2="402.42" y2="271.31" xlink:href="#linear-gradient"/><linearGradient id="linear-gradient-7" x1="391.76" y1="66.99" x2="391.76" y2="250.72" xlink:href="#linear-gradient"/><linearGradient id="linear-gradient-8" x1="392.39" y1="97.36" x2="392.39" y2="244.14" xlink:href="#linear-gradient-2"/><linearGradient id="linear-gradient-9" x1="286.3" y1="188.71" x2="299.63" y2="272.62" gradientTransform="translate(83.78 -71.87) rotate(14.54)" xlink:href="#linear-gradient"/><linearGradient id="linear-gradient-10" x1="267.06" y1="181.33" x2="306.32" y2="261.76" gradientTransform="translate(83.78 -71.87) rotate(14.54)" xlink:href="#linear-gradient"/><linearGradient id="linear-gradient-11" x1="282.36" y1="196.35" x2="301.67" y2="262.14" gradientTransform="translate(83.78 -71.87) rotate(14.54)" xlink:href="#linear-gradient-2"/><linearGradient id="linear-gradient-12" x1="382.56" y1="189.86" x2="382.56" y2="233.45" gradientUnits="userSpaceOnUse"><stop offset="0" stop-color="#f4831f"/><stop offset="1" stop-color="#be222d" stop-opacity="0"/></linearGradient><linearGradient id="linear-gradient-13" x1="337.41" y1="222.39" x2="353.88" y2="196.72" gradientUnits="userSpaceOnUse"><stop offset="0" stop-color="#be222d" stop-opacity="0"/><stop offset="1" stop-color="#f4831f"/></linearGradient><linearGradient id="linear-gradient-14" x1="411.81" y1="188.82" x2="439.36" y2="223.46" xlink:href="#linear-gradient-12"/></defs><g class="cls-1"><g id="Layer_1" data-name="Layer 1"><g class="cls-2"><path d="M484.06,17C328.38-26.11,184.31,55.32,129.13,183.92c-18.92,36.38-23.76,99.43-23.76,99.43s24.12-53.85,72.84-102.26c8-7.91,30.84-35.33,66.77-48.22,0,.12,0,.24.07.37a122.79,122.79,0,0,0,4.86,17.51,76.1,76.1,0,0,0,8.16,15.83,73.62,73.62,0,0,1-2.39-17,116.8,116.8,0,0,1,1.13-16.78c.69-4.58,1.6-9.1,2.69-13.56C264.94,106.45,276,84.81,292.33,73c24.25-17.46,36.13-18.43,42.2-13.09s7.27,23.76,5.82,40a161.31,161.31,0,0,1-2.64,17.72c-1.25,4.72-2.7,9.4-4.42,14a115.57,115.57,0,0,1-7.11,15.24,74.1,74.1,0,0,1-10.28,13.7,77,77,0,0,0,14.79-9.92,126,126,0,0,0,12.72-13c2.16-2.6,4.24-5.29,6.25-8,9.09.32,20.59,1.43,29.24,4.69,16.73,6.31,32.25,12.86,58.2,33.71,0,0-5.08-7-10.09-13.62-5.3-7-5.43-15.24-2.28-22.75s21.83-42,57-42.68c0,0,10.19,8.24,8,28.37s-8.48,33.95-15.27,43.41c-2.89,4-6.43,8.68-9.54,12.73a13.38,13.38,0,0,0,1.43,17.89c8.17,7.74,22.8,21.27,27,32.38,0,0-4.29,21.14-22.72,46.12s-37.83,33.46-37.83,33.46,41.29-4.69,67.41-38.31c25.5-32.82,55.25-66.44,52.87-153.26,0,0,19.07,23.61,18.43,88s-6.15,84.06-6.79,93.12,5.17,18.75,3.55,34.59c-1.16,11.4-2.49,27-3.15,34.82a10.31,10.31,0,0,0,3.21,8.35l12.73,12a20.51,20.51,0,0,1,4.8,23.07l-21.37,49.66a28.34,28.34,0,0,1-17.28,15.77c-22.12,7.2-71,20.94-121.85,20.94-68.87,0-101.85-18.11-125.77-34.92,0,0,19.4,26.83,77.92,44,22.07,6.46,49.66,9.62,75.47,11,24.95,1.38,30,36,6.42,44.38a177.31,177.31,0,0,1-51.18,10.23c-72.75,3.23-109.93-.65-181.38-40.1-27.05-14.93-49.09-35.23-66-54.7A294.23,294.23,0,0,0,400,594.63c188.57,0,335.76-177.14,284.24-374.1C658.48,122,582.16,44.15,484.06,17Z"/><path d="M498.92,429.29s20.44-28.66-5.44-35.08c-20.69-5.13-58.39,34-58.39,34S492.87,397.44,498.92,429.29Z"/><path d="M299.58,289.55s-3.77,23.86,7.53,33.91,33.92,6.28,40.2,1.26C347.31,324.72,317.24,320.64,299.58,289.55Z"/></g><path class="cls-3" d="M544.31,512s2.82-7.7,4.36-9,9.5-13.34,9.5-13.34l-8.21-3.6-22.59.26L539.69,503Z"/><path d="M103.25,483.92v39.93h20.06v10H93.22v-49.9Z"/><path d="M129.62,483.92h10v49.9h-10Z"/><path d="M177.91,483.79v10H157.84v10.06h15v10h-15v20h-10v-50.1Z"/><path d="M214.31,483.79v10H194.24v10.06h15v10h-15v10.07h20.07v10h-30.1v-50.1Z"/><path d="M234.52,524c2.77,0,5.83-2.3,5.83-5.07,0-4.56-6.12-5.19-9.57-6.39-6.08-2.07-11.46-7.07-11.46-13.87a15.23,15.23,0,0,1,30.31-2.1l-10,2.1a5.07,5.07,0,0,0-10.13,0c0,4.5,5.69,5.7,9.16,6.73,6.3,1.81,11.85,6.61,11.85,13.56,0,8.41-7.55,15.21-16,15.21-7.72,0-14.7-5.66-15.84-13.09l10-2.12c0,2.78,3,5,5.85,5Z"/><path d="M289.61,483.92v9.93H277.35v40H267.29v-40H255v-9.93Z"/><path d="M305.4,483.92l9.1,17.3,9.1-17.3H335l-15.48,28.51v21.39h-10V512.43l-15.45-28.51Z"/><path d="M351.3,483.92v39.93h20.06v10H341.27v-49.9Z"/><path d="M407.76,483.79v10H387.7v10.06h15.05v10H387.7v10.07h20.06v10H377.67v-50.1Z"/><path d="M447.5,483.92v39.93h20.06v10H437.47v-49.9Z"/><path d="M513.12,491a25.17,25.17,0,1,1-17.89-7.47A24.39,24.39,0,0,1,513.12,491Zm-28.63,7.12a15.18,15.18,0,0,0,21.45,21.48,15.18,15.18,0,1,0-21.45-21.48Z"/><path d="M603.46,511.5V483.79h10.06v51.06l-30.1-28.67v27.71h-10v-51Z"/><path d="M645.15,483.61a25.49,25.49,0,0,1,17.93,7.4l-7.16,7.15a14.71,14.71,0,0,0-10.71-4.49,14.46,14.46,0,0,0-10.71,4.49,15.16,15.16,0,0,0,0,21.48,14.44,14.44,0,0,0,10.71,4.46,15.15,15.15,0,0,0,13.69-8.73H644.65V505.8h25.64c.71,9.33-2.35,16.1-7.28,21a24.51,24.51,0,0,1-17.89,7.4,25.33,25.33,0,0,1-25.3-25.3A24.53,24.53,0,0,1,627.26,491a24.14,24.14,0,0,1,17.86-7.47Z"/><path d="M706.78,483.79v10H686.72v10.06h15v10h-15v10.07h20.06v10H676.69v-50.1Z"/><path d="M564.15,485.54l1.22-1.59H523.3l1.23,1.59c.12.16,12.24,15.88,14,18.63,1.68,2.57,2.39,5.08,2.39,13.93a28.48,28.48,0,0,1-.62,6.6A5.49,5.49,0,0,1,538,528c-2,1.34-5.68,3.79-6.66,4.32l-3.43,1.86h32.8l-3.44-1.86c-1-.56-4.72-3-6.66-4.33a5.51,5.51,0,0,1-2.28-3.24,28,28,0,0,1-.63-6.64c0-8.85.7-11.36,2.38-13.93C551.9,501.42,564,485.7,564.15,485.54Zm-17.59,17.2a14.88,14.88,0,0,0-2.22,5.58,14.88,14.88,0,0,0-2.22-5.58c-1.11-1.7-11.15-15-11.15-15a37.77,37.77,0,0,0,5,.1c.52,0,.84,0,.84,0,3.64-.12,7.36-.27,11.11,1,2.76,1,5.19,2.07,7.28,2.42C555.2,491.23,547.37,501.5,546.56,502.74Z"/><path class="cls-4" d="M448.79,160.87c-3.67,39.58-35.92,24.19-41.05,53.5-26.38-41.78,13.93-54.24-6.6-96.75C406.28,144,350,165,377.69,220.24c-13.19,1.46-42.51-14.66-43.24-44.71a112.94,112.94,0,0,0-2.76,13.16c1.56,2.61,3.07,5.26,4.5,8l-4.6,2.15c-.24-.58-.51-1.16-.76-1.74-2.28,39.36,22.25,65,62.25,65C456,262,458.32,207,448.79,160.87Z"/><path class="cls-5" d="M503.23,182.45c5.2,22.09.1,28.48-10.4,37,18.84-27.93-15.58-41.58,18.84-74.71-65,9.75-88.31,106.08-46.08,113.73C508.43,266.25,528.56,231.17,503.23,182.45Z"/><path class="cls-6" d="M507,214.57c-9.06,7.25-12.69,15.42-24.49,14.51,16.21-34.29-13-38.83,12.31-75.21-35.72,18.84-62.52,83.61-33.12,100C483.74,266.25,505.15,252.66,507,214.57Z"/><path class="cls-7" d="M459.8,247.22c12.31,12.31,38.89,4.55,43.43-19.94-8.45,12.34-21.66,12.69-29.83,9.06,6-13.2,7.26-14.52,3.63-52.62C472.49,209.13,442.56,230,459.8,247.22Z"/><path class="cls-8" d="M344,106.28c-8.77,32.89,4.74,38.82,5,60.88-1.39-63.8,57.82-67.46,17.62-121.55,48.24,26.31,68,68,54.82,117,19-12.42,24.12-46,5.12-81.13,38.74,30,81.4,186.22-30,185.66C323.85,266.72,276,210.81,344,106.28Z"/><path class="cls-9" d="M334.45,150.14c-1.47,22.28,13,43.3,27.77,56.28C341,148.67,406.3,120.84,388.54,77.77c30,24.85,28.5,82.6,16.08,115.49,11.69-29.24,44.34-12.91,40.93-59.2,18,50.19,26.54,130.1-49,130.1C330.79,264.16,312.52,213,334.45,150.14Z"/><path class="cls-10" d="M335.18,175.72c.73,30,30,46.05,43.12,44.59-27.6-55.14,28.51-76,23.39-102.34,20.47,42.4-19.73,54.82,6.58,96.49,5.12-29.24,37.28-13.89,40.94-53.36,9.5,46.05,7.17,100.87-55.56,100.87C346.88,262,321.29,226.89,335.18,175.72Z"/><path class="cls-11" d="M291.25,185.32c-6.25,23-2.61,32.21,6.88,42.22-9.37-29.54,23.6-31.25,2.17-77.14,35.24,31.5,62.94,114,14.33,115.4C272.64,267,266.6,223.89,291.25,185.32Z"/><path class="cls-12" d="M284.69,217.38c6.51,8.7,7.88,17,18.78,18.9-3.2-35,13-26.45,10.22-63.11,17,29,40.36,86.24.08,90.14C297.11,264.92,277.39,252.32,284.69,217.38Z"/><path class="cls-13" d="M319.82,260.35c-14,8.27-33.58-8.37-31.94-31.62,5.71,10.47,13.85,17.62,22.1,16.25-5-11.89-3.26-27.29,9.07-48.5C310.26,218.6,349.15,243.06,319.82,260.35Z"/><path d="M375.71,279.9c-13.15,0-26.17-1.57-34.82-4.21-17.5-5.32-20.79-20.29-21.27-23.23-.95-5.84-.77-15.15-.75-16.19,0-19.39,7.49-28.68,15.83-37.23,10.15-10.41,27.06-16.38,46.41-16.38a111,111,0,0,1,29.14,4.11c22.29,6.07,40.06,12.41,54.29,23.59,15.17,11.92,16.9,21.5,17.47,24.65.93,5.19,1,18.13-.83,24.69s-11.71,13.17-29.7,13.17c-2,0-4.08-.08-6.19-.23-2.53-.19-5.11-.28-7.69-.28-12.87,0-24,2.32-33.83,4.36l-.14,0c-2.94.61-5.71,1.19-8.41,1.68A113,113,0,0,1,375.71,279.9Z"/><path d="M477.66,235.79c-.71-3.94-2.89-11.78-15.84-22-13.68-10.73-30.64-16.78-52.73-22.8-33.92-9.25-59.51-.93-71.23,11.09-7.47,7.67-14.57,16.07-14.57,34.25,0,0-.23,9.71.69,15.37.6,3.65,4,15.41,18.19,19.73s38.69,5.08,52.26,2.62,30.22-7.4,51.18-5.86,30.08-5.25,31.32-9.71C478.58,252.55,478.47,240.3,477.66,235.79Z"/><path class="cls-14" d="M419.86,269c.41-4.57,1.36-15.53,1.36-19.34,0-4.86-.7-10.65-3.71-14.36s-3.24-7.18-6.49-3.94-4.63,5.56-6.48,6-5.1-.23-8.34,1.85-3.24,3.24-.93,6,5.79,3.25,6.49,8.8c.63,5.1.37,14.41.32,18.26C407.53,271.2,413.43,269.94,419.86,269Z"/><path class="cls-14" d="M362,197.67c-5.41,7.57-6.83,21.91.35,27.94s15.32,12,21.57,6.95c0,0-1.35,4.14-4.13,4.83,0,0,9.62,4.11,13.32-.23,2.35-2.75,6.07-3.24,9.08-4.63s6-3,5.33-6.25-1.39-4.63-1.62-7.18-3-4.63-7.41-6.49-5.8,3.48-11.82,4.4a28.47,28.47,0,0,0,7.18-8.33c2.78-5.1,2.32-5.56,4.17-7.42s4.4-7.86,2.09-12.72A96.88,96.88,0,0,0,374.57,187,36.81,36.81,0,0,0,362,197.67Z"/><path class="cls-15" d="M387.82,235.71a11.6,11.6,0,0,1-1.44-.09,15.81,15.81,0,0,0,.84-2l2.23-7.81-7.67,4.08a4.77,4.77,0,0,1-3.12,1.14h0c-4.46,0-10.71-5.25-14.07-8.07-5.44-4.55-4.4-16.82.23-23.3a33.57,33.57,0,0,1,10.72-9.26c2-.15,4-.22,6-.22a95.87,95.87,0,0,1,15.95,1.38,10,10,0,0,1-1.9,7.26,11.9,11.9,0,0,0-2.73,4.13c-.41.9-1,2.13-2,4.07a53.55,53.55,0,0,1-5.84,8.35l-6.8,7.12c3.59-.55,14.91-4.37,16.6-5.64a7.13,7.13,0,0,1,1.93-1.2,1.2,1.2,0,0,1,.43.12c5.13,2.16,5.32,3.61,5.32,3.63a23.79,23.79,0,0,0,.94,4.62c.24.88.49,1.79.75,3,.11.53-.94,1.27-3.41,2.41-.74.34-1.59.64-2.49,1-2.45.86-5.5,1.92-7.76,4.56A3.78,3.78,0,0,1,387.82,235.71Z"/><path class="cls-14" d="M394.73,256c0-2.88-1.08-7-4.09-8.9s-6-1.86-11.12-2.78a24.9,24.9,0,0,1-11.58-5.79c-2.78-2.32-5.1-7.19-6.72-6s-3,3-3,8.8-1.16,8.58.93,11.82a14.65,14.65,0,0,1,2.78,8.8c0,2.58-.1,9.74-.14,12.56,11.8,1.06,24.5.79,33-.73C394.76,270,394.73,258.43,394.73,256Z"/><path class="cls-14" d="M330.88,240.41c3.71-2.09,7.87-8.34,8.57-11.81a17.66,17.66,0,0,0-.7-7.65s5.1,6.72,9,5.33,4.17-6.26,4.4-11.12a33.56,33.56,0,0,1,4.4-14.59c2.23-3.57,4.09-10.63,4.23-11.16-9.8,2.69-17.46,7.19-22.53,12.39-7.47,7.66-14.57,16.06-14.57,34.24v.48C324.57,237.83,327.71,242.19,330.88,240.41Z"/><path class="cls-16" d="M329.26,237.37a6.13,6.13,0,0,1-2.09-1.92c.16-16.17,6.25-23.73,13.59-31.25a42.17,42.17,0,0,1,14.75-9.41,23.94,23.94,0,0,1-1.84,4A36.79,36.79,0,0,0,348.75,215c-.2,4.34-.47,7.46-2.11,8-1,0-3.51-2-5.15-4.17l-6,3.17a13.89,13.89,0,0,1,.59,5.88C335.56,230.51,332,235.79,329.26,237.37Z"/><path class="cls-14" d="M454.34,249.91a18.88,18.88,0,0,0-6.49-10.66c-3.47-2.78-4.17-1.16-9.26-2.55s-10.19-3.94-11.82-3.94-4.63-.69-3,2.78,3.48,4.17,3.25,13.21c-.18,6.93.1,15.68.23,19.37a113.52,113.52,0,0,1,18.81-.22c2.67.2,5.14.26,7.44.21C453.81,264.17,454.72,252.59,454.34,249.91Z"/><path class="cls-14" d="M354.74,255.93c0-2.78-1.62-3.71-1.39-9s3-13.43-1.39-14.36-6.49-1.16-9.5,2.78-6.95,7.41-7.18,14.13c-.21,6,1.39,14,1.74,19.33a28.39,28.39,0,0,0,5.59,2.37,82,82,0,0,0,11.66,2.49C354.38,269.94,354.74,258.26,354.74,255.93Z"/><path d="M368.31,195.16a19.39,19.39,0,0,0-4.6,7.56,28.84,28.84,0,0,0-1.44,8.66,20.65,20.65,0,0,0,1.34,8.54,18,18,0,0,0,5.17,7.14,14.14,14.14,0,0,1-6.59-6.49,18.28,18.28,0,0,1-1.57-4.51,22.89,22.89,0,0,1-.35-4.74,23.86,23.86,0,0,1,2-9.18,18,18,0,0,1,2.49-4A11.94,11.94,0,0,1,368.31,195.16Z"/><path d="M362.42,237a24.92,24.92,0,0,0,5.92,5.94,23.74,23.74,0,0,0,7.59,3.06c1.35.35,2.73.61,4.11.84.7.12,1.39.23,2.09.32l1,.13.53.06.61.1a9,9,0,0,1,4,2.22,7.64,7.64,0,0,1,2.39,3.68,9,9,0,0,0-3-2.91,9.17,9.17,0,0,0-3.67-1.45l-.45,0h-.55l-1.09,0c-.73-.05-1.46-.12-2.18-.19a42.71,42.71,0,0,1-4.33-.78,20.22,20.22,0,0,1-8.05-3.76A17,17,0,0,1,362.42,237Z"/><path class="cls-17" d="M402.08,272.31c5.45-1.13,11.35-2.38,17.78-3.3.37-4.14,1.18-13.46,1.33-18-7.05,1-13.48,2.33-19.38,3.55C402.38,259.7,402.12,268.57,402.08,272.31Z"/><path class="cls-18" d="M478.47,239.62c-.08-1.4-.2-2.64-.35-3.6a31,31,0,0,1-.8,4.37,6.13,6.13,0,0,1-.4,1A7.56,7.56,0,0,0,478.47,239.62Z"/><path class="cls-17" d="M354.74,255.93v-.05a83.12,83.12,0,0,1-12.27-2.57,28.38,28.38,0,0,1-7.2-3.31c-.1,6,1.43,13.74,1.76,18.87a28.6,28.6,0,0,0,5.44,2.28,82.44,82.44,0,0,0,11.8,2.5C354.38,270,354.74,258.27,354.74,255.93Z"/><path class="cls-17" d="M454.37,250.25a75.63,75.63,0,0,1-8.39-.17,113.71,113.71,0,0,0-19,.23c-.1,6.65.15,14.4.27,17.82a113.82,113.82,0,0,1,18.74-.21c2.7.2,5.19.25,7.5.2C453.8,264.34,454.65,253.43,454.37,250.25Z"/><path class="cls-17" d="M394.73,256v-.1c-8.66,1.56-21.73,1.81-33.76.68a13.78,13.78,0,0,1,.95,5.34c0,2.58-.1,9.76-.14,12.58,11.81,1,24.52.77,33-.77h0C394.76,270,394.73,258.42,394.73,256Z"/><path class="cls-14" d="M461.52,233.46c-5.1-2.55-9.27-2.78-13.44-6.25s-12-4.64-12-4.64,6-1.62,8.8-.92,6.49-.93,2.78-3-5.33-6.95-5.33-10.89c0,0,3,6.72,6.72,7.64,3.09.77,6.2-3.9,7.56-5.21h0l.46-.44c-12.72-8.46-28.15-13.75-47.5-19-1.84-.5-3.64-.94-5.43-1.34.07.39,1.07,6-.72,10.74-1.85,4.87-3.94,7.42-2.09,8.81s7.65.69,10,2.31,5.09,1.39,7.64,1.39,4.4,3.25,4.4,3.25a10.51,10.51,0,0,0-8.11-.93c-4.4,1.39-5.09,6.25-3.7,7.64s6.48,5.33,11.81,4.87,10.65,2.31,14.82,4.17,6.95.46,9.5,3.24,5.33,7.18,10,10,10,1.39,10.66-1.62S466.61,236,461.52,233.46Z"/><path class="cls-19" d="M462.83,242.87a6.92,6.92,0,0,1-3.48-1c-2.93-1.76-5.11-4.43-7-6.79-.69-.85-1.36-1.66-2-2.41a43,43,0,0,0,4.64,1.84,41.73,41.73,0,0,1,5.06,2c3.86,1.93,5.08,4.66,4.92,5.79a3.21,3.21,0,0,1-2.07.55Zm-16.89-13a17.7,17.7,0,0,0-2.74-.52,12.75,12.75,0,0,1-3.68-.9l-1.38-.63c-3.81-1.73-8.56-3.89-13.64-3.89q-.75,0-1.5.06a5.49,5.49,0,0,1-.58,0c-3.41,0-6.85-2.45-8.13-3.56a2.61,2.61,0,0,1,1.94-2.27,6.13,6.13,0,0,1,1.86-.29,7.38,7.38,0,0,1,3.42.87l11.18,6.61-6.4-11.25c-.3-.51-3-5-7.39-5l-1.73,0c-1.75,0-3-.13-3.94-.78-1.94-1.36-4.5-1.62-7-1.87-.53-.06-1.21-.13-1.8-.21.18-.43.4-.9.59-1.32.45-1,1-2.26,1.56-3.68a22.14,22.14,0,0,0,1.29-7.51l.74.2c13.82,3.76,25.63,7.52,35.87,12.52l-5.64,1.21A18.26,18.26,0,0,0,442,218.07a39.37,39.37,0,0,0-6.86,1.18l.39,6.73c1.93.28,7.55,1.54,10.34,3.87Zm3.8-17.87c-1-.36-2.69-2.51-3.88-4.8q3,1.53,5.85,3.22A6.4,6.4,0,0,1,449.74,212Z"/><path class="cls-14" d="M468.46,219a68,68,0,0,0-6.21-5.46c-.2-.17-.42-.32-.62-.48a2.43,2.43,0,0,0-.2.14c-1.13.84-8.06,6.15-8.48,8.71-.46,2.78,2.78,3.7,6,2.55s6-5,9.49-5.46Z"/><path class="cls-14" d="M478.1,235.47c-.53-3-1.89-8.1-8-14.76h0s-4.19,1.86-4.19,4.41.69,4.17,3.71,6.95,4.17,4.17,3.93,7.41,2.59,3.75,5,.07A38.16,38.16,0,0,0,478.1,235.47Z"/><path d="M466,239.21a3.32,3.32,0,0,1,.45,1.54,2.42,2.42,0,0,1-.53,1.54,4.12,4.12,0,0,1-2.95,1.38,7.63,7.63,0,0,1-3.24-.53,13.63,13.63,0,0,1-2.85-1.59c-3.59-2.48-6.07-6.17-8.86-9.2a5.11,5.11,0,0,0-2.51-1.41c-1-.25-2-.33-3.1-.53a14,14,0,0,1-3.15-.9c-1-.42-1.94-.9-2.9-1.35a43.12,43.12,0,0,0-5.86-2.39,18.23,18.23,0,0,0-6.22-1,17.25,17.25,0,0,1,6.35.5,42.54,42.54,0,0,1,6,2.16l2.92,1.24a13,13,0,0,0,3,.81c1,.17,2.09.24,3.18.5a7.16,7.16,0,0,1,1.6.59,6.17,6.17,0,0,1,1.38,1c1.52,1.6,2.73,3.32,4.12,4.91a28.91,28.91,0,0,0,4.51,4.34,13.85,13.85,0,0,0,2.63,1.63,7.23,7.23,0,0,0,3,.63,3.79,3.79,0,0,0,2.75-1A2.61,2.61,0,0,0,466,239.21Z"/><path d="M511,248.88c-.46.66-.95,1.27-1.45,1.89-.37.46-.76.9-1.15,1.34s-.59.66-.89,1-.63.65-1,1-.76.72-1.16,1.07-.68.61-1,.9c-.56.46-1.14.9-1.73,1.33l-.85.59c-.51.35-1,.69-1.57,1l-.76.46a40.37,40.37,0,0,1-8.49,3.66l-7.65,7.66-3.59,3.58-23.83,23.84-19.52-19.53c-2.33.05-4.62.15-6.84.33l21.32,21.32-46.25,0,20.9-20.91c-2.87.33-5.65.73-8.34,1.18l-17.63,17.63L387.2,285.87c-2.13.2-4.38.34-6.72.44l13.92,13.92-40.48,0,13.87-13.87c-2.29-.08-4.57-.2-6.8-.37l-12.17,12.17L321.49,270.8a25.2,25.2,0,0,1-6.64.53l3.93,3.92-22.89,22.89L279.8,282.05l13.94-13.94a35.23,35.23,0,0,1-14.34-10.5,15.74,15.74,0,0,1-.9-1.49l-13.17,13.37-19.24,19.2L231,303.74l1.19,3,10.51,25.93H557.8l10.5-25.93.74-2.47ZM261.69,300.15l14.53-14.52,14.54,14.54Zm39.33,0,21.34-21.34,21.36,21.36Zm159.84.09,22.39-22.39,22.41,22.42Zm26-26,12-12,23.83,23.84-12,12Zm28.84,26,10.56-10.56,10.57,10.57Z"/><path d="M191.24,395.07c-1.32-5-9.46-4.51-13.29-1.13s-3.38,10.37,1.8,11.72S194,405.21,191.24,395.07Z"/><path d="M85.15,382.81v13.36H58.35v13.44h20.1V423H58.35v26.76H45V382.81Z"/><path d="M106.7,383v53.36h26.8v13.32H93.3V383Z"/><path d="M244.43,451.14,214.36,383h14.19l15.84,36.52L260.27,383h14.35Z"/><path d="M331.86,392.4a33.64,33.64,0,1,1-23.9-10A32.65,32.65,0,0,1,331.86,392.4Zm-38.26,9.52a20.28,20.28,0,0,0,28.67,28.7,20.28,20.28,0,1,0-28.67-28.7Z"/><path d="M390.34,423.3V383h13.49v40.37a27,27,0,0,1-53.94,0V383h13.49V423.3a13.48,13.48,0,0,0,27,0Z"/><path d="M414.45,383h21.76a24.51,24.51,0,0,1,17.46,6.79c4.06,4.05,6.45,7.76,6.45,15.13v1.74a21.59,21.59,0,0,1-4.22,12.7,15.18,15.18,0,0,1-8,6.16l15.51,24.16H447.05L427.9,420.16v29.49H414.5Zm31.85,22.34a9,9,0,0,0-2.64-6.41c-1.74-1.69-5-2.65-8.28-2.65h-7.52v18.41H433v0h4.46C442.38,414.7,446.3,410.39,446.3,405.31Z"/><path d="M509.71,383v29.49L526.79,383h15.47l-19.73,33.88,22.91,32.8H529.15l-19.44-28v28H496.35V383Z"/><path d="M553.59,383H567v66.68h-13.4Z"/><path d="M617.78,419.83v-37h13.44V451L591,412.71v37H577.61V381.57Z"/><path d="M673.2,382.56a34.07,34.07,0,0,1,23.95,9.88L687.59,402a19.7,19.7,0,0,0-14.31-6A19.34,19.34,0,0,0,659,402a20.26,20.26,0,0,0,0,28.7,19.36,19.36,0,0,0,14.31,6A20.23,20.23,0,0,0,691.56,425h-19V412.22h34.24c1,12.46-3.13,21.5-9.72,28a32.72,32.72,0,0,1-23.9,9.88,33.82,33.82,0,0,1-33.8-33.79,32.83,32.83,0,0,1,9.93-24,32.32,32.32,0,0,1,23.87-10Z"/><path d="M733.63,436.52c3.7,0,7.79-3.07,7.79-6.77,0-6.09-8.17-6.94-12.78-8.54-8.13-2.77-15.31-9.44-15.31-18.52a20.35,20.35,0,0,1,40.49-2.81l-13.31,2.81a6.77,6.77,0,0,0-13.53,0c0,6,7.6,7.6,12.23,9,8.42,2.43,15.84,8.84,15.84,18.12,0,11.24-10.09,20.32-21.32,20.32-10.31,0-19.63-7.56-21.15-17.49l13.31-2.83c0,3.72,4,6.75,7.8,6.75Z"/><path d="M213.2,418.47c-2.54-12.78-10.17-28.82-19.19-34.8s-19.88-4.35-35.36,14.68c0,0-10.18,13.32-12.72,27.19s.84,22.56,12,22.56c19.42,0,22.8-8.58,30.05-9,10.18-.54,14.57,10.06,20.58,5.17C214.28,439.65,215.74,431.25,213.2,418.47Zm-33.45-12.81c-5.18-1.35-5.63-8.34-1.8-11.72s12-3.84,13.29,1.13C194,405.21,184.93,407,179.75,405.66Z"/><path class="cls-14" d="M160.61,443.87a30.55,30.55,0,0,1-6.61-.69c-5-1.13-5.86-8.05-5.05-13.63.78-5.38,1.16-7.6,2.81-8.53a1.64,1.64,0,0,1,.77-.16,7.53,7.53,0,0,1,2.75.72c.47.24,1,.56,1.64.93,2.51,1.46,5.94,3.47,9.81,3.47H167a33.44,33.44,0,0,0,16.38-5.13,6.8,6.8,0,0,1,3.7-1.3,3.2,3.2,0,0,1,3.21,2.12c.18,1,.3,1.69-5.92,4.4-3.92,1.71-6.61,6-9,9.86-1.51,2.43-2.93,4.73-4.3,5.66C169,443,165.08,443.87,160.61,443.87Z"/><path class="cls-14" d="M204.38,439.59c-1.86,0-4.2-1.41-6.08-2.55-.33-.2-.65-.4-1-.58a14,14,0,0,0-7-2.38,8.5,8.5,0,0,0-3.58.81,9.07,9.07,0,0,1-3.53,1,1.12,1.12,0,0,1-.87-.27c-.09-.11-.34-.58,0-1.93,1-3.47,5.29-5.05,5.85-5.23,4.42-.74,5.86-2.67,6.9-4.08.82-1.11,1.27-1.72,2.89-1.72a11.18,11.18,0,0,1,2.21.28,4.45,4.45,0,0,0,1,.1c1.81,0,2.89-1.15,3.85-2.17s1.62-1.66,2.72-1.66h.33c.78.09,2.18,3.85,2,9.48-.11,4.67-1.93,9.08-4.32,10.49A2.79,2.79,0,0,1,204.38,439.59Z"/><path class="cls-14" d="M166.7,419.24c-4.25,0-8.18-1.92-9.76-4.77a5.7,5.7,0,0,1,.34-6.07,128.29,128.29,0,0,1,10.66-14.21c6.56-6.17,12.27-9.2,17.4-9.2a13.41,13.41,0,0,1,6.18,1.55c6.17,3.13,11.27,11.63,12.94,18s.79,10.53-2.81,12.77a3.21,3.21,0,0,1-1.76.54h0a9.38,9.38,0,0,1-3.75-1.28,17.15,17.15,0,0,0-7.85-2.2h-.57a14.59,14.59,0,0,0-5.57,1.66C179,417.48,175.09,419.24,166.7,419.24Zm18.51-28.87a12.39,12.39,0,0,0-7.92,2.82,8.74,8.74,0,0,0-2.65,8.39,6.63,6.63,0,0,0,4.86,5.05,13.8,13.8,0,0,0,3.44.43c3.53,0,6.52-1.26,8.2-3.44s2-5.16,1.07-8.81C191.47,392,188.85,390.37,185.21,390.37Z"/><path d="M552.6,377.7l15.07-5.39a4.06,4.06,0,0,0,2.45-5.18l-3-8.29-4.08,5.3-9.3-6.92-2.53,11.15-6.66-1,2.83,7.92A4.06,4.06,0,0,0,552.6,377.7Z"/></g></g></svg>