<svg xmlns="http://www.w3.org/2000/svg" xmlns:xlink="http://www.w3.org/1999/xlink" viewBox="0 0 800 600"><defs><style>.cls-1{isolation:isolate;}.cls-2{fill:url(#linear-gradient);}.cls-12,.cls-15,.cls-16,.cls-17,.cls-3,.cls-6,.cls-9{mix-blend-mode:screen;}.cls-3{fill:url(#linear-gradient-2);}.cls-4{fill:url(#linear-gradient-3);}.cls-5{fill:url(#linear-gradient-4);}.cls-6{fill:url(#linear-gradient-5);}.cls-7{fill:url(#linear-gradient-6);}.cls-8{fill:url(#linear-gradient-7);}.cls-9{fill:url(#linear-gradient-8);}.cls-10{fill:url(#linear-gradient-9);}.cls-11{fill:url(#linear-gradient-10);}.cls-12{fill:url(#linear-gradient-11);}.cls-13{fill:#953208;}.cls-14{opacity:0.05;}.cls-15{fill:url(#linear-gradient-12);}.cls-16{fill:url(#linear-gradient-13);}.cls-17{fill:url(#linear-gradient-14);}</style><linearGradient id="linear-gradient" x1="556.56" y1="548.66" x2="556.56" y2="520.18" gradientUnits="userSpaceOnUse"><stop offset="0" stop-color="#ed2f24"/><stop offset="1" stop-color="#fced09"/></linearGradient><linearGradient id="linear-gradient-2" x1="391.03" y1="221.29" x2="391.03" y2="382.74" gradientUnits="userSpaceOnUse"><stop offset="0"/><stop offset="1" stop-color="#f4831f"/></linearGradient><linearGradient id="linear-gradient-3" x1="571.1" y1="305.44" x2="586.44" y2="402.03" gradientTransform="matrix(-1, 0, 0, 1, 1066.83, 0)" xlink:href="#linear-gradient"/><linearGradient id="linear-gradient-4" x1="545.34" y1="283.93" x2="596.15" y2="388.03" gradientTransform="matrix(-1, 0, 0, 1, 1066.83, 0)" xlink:href="#linear-gradient"/><linearGradient id="linear-gradient-5" x1="564.23" y1="312.6" x2="586.15" y2="387.32" gradientTransform="matrix(-1, 0, 0, 1, 1066.83, 0)" xlink:href="#linear-gradient-2"/><linearGradient id="linear-gradient-6" x1="373.81" y1="230.91" x2="402.65" y2="412.55" xlink:href="#linear-gradient"/><linearGradient id="linear-gradient-7" x1="390.96" y1="188.43" x2="390.96" y2="389.97" xlink:href="#linear-gradient"/><linearGradient id="linear-gradient-8" x1="391.65" y1="221.74" x2="391.65" y2="382.74" xlink:href="#linear-gradient-2"/><linearGradient id="linear-gradient-9" x1="311.49" y1="319.22" x2="326.11" y2="411.26" gradientTransform="translate(83.78 -71.87) rotate(14.54)" xlink:href="#linear-gradient"/><linearGradient id="linear-gradient-10" x1="290.38" y1="311.12" x2="333.44" y2="399.34" gradientTransform="translate(83.78 -71.87) rotate(14.54)" xlink:href="#linear-gradient"/><linearGradient id="linear-gradient-11" x1="307.17" y1="327.59" x2="328.34" y2="399.76" gradientTransform="translate(83.78 -71.87) rotate(14.54)" xlink:href="#linear-gradient-2"/><linearGradient id="linear-gradient-12" x1="354.58" y1="385.27" x2="354.58" y2="327.73" gradientUnits="userSpaceOnUse"><stop offset="0" stop-color="#be222d" stop-opacity="0"/><stop offset="1" stop-color="#f4831f"/></linearGradient><linearGradient id="linear-gradient-13" x1="397.65" y1="352.16" x2="397.65" y2="327.58" xlink:href="#linear-gradient-12"/><linearGradient id="linear-gradient-14" x1="442.1" y1="378.26" x2="442.1" y2="341.67" xlink:href="#linear-gradient-12"/></defs><g class="cls-1"><g id="Layer_1" data-name="Layer 1"><path class="cls-2" d="M558.25,548.66s3.11-8.46,4.8-9.87,10.43-14.66,10.43-14.66l-9-4-24.81.28,13.53,18.33Z"/><path d="M73.84,517.81v43.87h22v11H62.82V517.81Z"/><path d="M102.8,517.81h11v54.82h-11Z"/><path d="M155.84,517.68v11h-22v11.05h16.53v11H133.8v22h-11v-55Z"/><path d="M195.82,517.68v11h-22v11.05h16.53v11H173.78v11h22v11H162.76v-55Z"/><path d="M218,561.84c3,0,6.4-2.53,6.4-5.57,0-5-6.72-5.71-10.51-7-6.68-2.28-12.58-7.76-12.58-15.23a16.72,16.72,0,0,1,33.28-2.31L223.67,534a5.56,5.56,0,0,0-11.12,0c0,4.93,6.25,6.25,10.06,7.38,6.91,2,13,7.26,13,14.89,0,9.25-8.29,16.71-17.52,16.71-8.48,0-16.14-6.22-17.39-14.38l10.94-2.33c0,3.06,3.33,5.55,6.42,5.55Z"/><path d="M278.53,517.81v10.92H265.06v43.9H254v-43.9h-13.5V517.81Z"/><path d="M295.86,517.81l10,19,10-19h12.48l-17,31.32v23.5H300.38v-23.5l-17-31.32Z"/><path d="M346.28,517.81v43.87h22v11H335.26V517.81Z"/><path d="M408.29,517.68v11h-22v11.05h16.53v11H386.25v11h22v11H375.24v-55Z"/><path d="M451.93,517.81v43.87h22v11H440.91V517.81Z"/><path d="M524,525.57a27.64,27.64,0,1,1-19.65-8.2A26.81,26.81,0,0,1,524,525.57Zm-31.45,7.82a16.25,16.25,0,0,0-4.9,11.8,16.73,16.73,0,1,0,4.9-11.8Z"/><path d="M623.22,548.11V517.68h11v56.07l-33-31.49v30.43h-11v-56Z"/><path d="M669,517.47a28,28,0,0,1,19.69,8.13l-7.86,7.85a16.22,16.22,0,0,0-11.76-4.93,15.94,15.94,0,0,0-11.77,4.93,16.66,16.66,0,0,0,0,23.6,15.88,15.88,0,0,0,11.77,4.9,16.64,16.64,0,0,0,15-9.59H668.46V541.85h28.16c.78,10.25-2.58,17.68-8,23.06A26.93,26.93,0,0,1,669,573a27.79,27.79,0,0,1-27.78-27.78,27,27,0,0,1,8.16-19.68,26.55,26.55,0,0,1,19.62-8.2Z"/><path d="M736.7,517.68v11h-22v11.05h16.53v11H714.66v11h22v11H703.65v-55Z"/><path d="M580,519.59l1.35-1.74H535.18l1.35,1.75c.13.17,13.45,17.43,15.42,20.45,1.84,2.83,2.61,5.58,2.61,15.3a31.66,31.66,0,0,1-.67,7.26,6.1,6.1,0,0,1-2.53,3.61c-2.19,1.47-6.23,4.16-7.31,4.75l-3.77,2h36l-3.78-2c-1.15-.62-5.18-3.33-7.31-4.76a6.08,6.08,0,0,1-2.51-3.56,31,31,0,0,1-.69-7.3c0-9.72.77-12.47,2.62-15.3C566.59,537,579.91,519.77,580,519.59Zm-19.31,18.89a16.3,16.3,0,0,0-2.44,6.13,16.46,16.46,0,0,0-2.44-6.13c-1.22-1.87-12.24-16.5-12.24-16.5a43.4,43.4,0,0,0,5.48.11c.58,0,.93,0,.93,0,4-.13,8.09-.3,12.2,1.12,3,1,5.7,2.27,8,2.66C570.22,525.85,561.62,537.12,560.73,538.48Z"/><path class="cls-3" d="M453.51,291.4c-4,43.42-39.39,26.54-45,58.7-28.94-45.83,15.28-59.5-7.23-106.13,5.63,28.94-56.09,51.92-25.73,112.56-14.47,1.6-46.64-16.08-47.44-49a125.81,125.81,0,0,0-3,14.44c1.71,2.87,3.37,5.77,4.94,8.73L325,333c-.26-.64-.56-1.27-.83-1.91-2.5,43.17,24.4,71.25,68.28,71.25C461.41,402.35,464,342.06,453.51,291.4Z"/><path class="cls-4" d="M513.23,315.08c5.7,24.23.12,31.23-11.4,40.62,20.66-30.64-17.1-45.61,20.66-81.95C451.24,284.44,425.63,390.1,472,398.49,518.93,407,541,368.52,513.23,315.08Z"/><path class="cls-5" d="M517.33,350.31c-10,8-13.93,16.91-26.87,15.92,17.78-37.61-14.28-42.6,13.51-82.5-39.19,20.66-68.58,91.71-36.34,109.73C491.85,407,515.34,392.1,517.33,350.31Z"/><path class="cls-6" d="M465.59,386.13c13.5,13.5,42.66,5,47.64-21.88-9.26,13.54-23.76,13.92-32.72,9.94,6.57-14.48,8-15.92,4-57.71C479.52,344.34,446.68,367.22,465.59,386.13Z"/><path class="cls-7" d="M338.52,231.53c-9.62,36.08,5.2,42.58,5.53,66.78-1.52-70,63.42-74,19.32-133.33,52.92,28.86,74.57,74.57,60.14,128.28,20.84-13.63,26.46-50.51,5.61-89,42.49,32.87,89.29,204.26-32.87,203.65C316.47,407.52,264,346.18,338.52,231.53Z"/><path class="cls-8" d="M328.09,279.63c-1.6,24.45,14.26,47.5,30.47,61.74C335.31,278,406.91,247.5,387.42,200.26c32.88,27.26,31.28,90.6,17.65,126.68,12.82-32.07,48.64-14.17,44.9-64.95,19.77,55.06,29.11,142.72-53.72,142.72C324.09,404.71,304,348.59,328.09,279.63Z"/><path class="cls-9" d="M328.9,307.7c.8,32.87,32.87,50.51,47.3,48.9-30.27-60.47,31.27-83.38,25.66-112.24,22.45,46.5-21.65,60.13,7.21,105.83C414.69,318.12,450,335,454,291.66,464.4,342.17,461.84,402.3,393,402.3,341.73,402.3,313.66,363.82,328.9,307.7Z"/><path class="cls-10" d="M280.71,318.23c-6.85,25.18-2.86,35.33,7.55,46.3-10.28-32.39,25.88-34.27,2.38-84.61,38.66,34.55,69,125,15.72,126.58C260.3,407.86,253.68,360.54,280.71,318.23Z"/><path class="cls-11" d="M273.52,353.39c7.14,9.55,8.64,18.6,20.59,20.74-3.5-38.43,14.25-29,11.22-69.24,18.69,31.78,44.27,94.6.09,98.88C287.14,405.54,265.5,391.71,273.52,353.39Z"/><path class="cls-12" d="M312.05,400.52c-15.39,9.08-36.83-9.17-35-34.68,6.26,11.49,15.19,19.33,24.24,17.83-5.47-13-3.57-29.94,9.95-53.21C301.56,354.73,344.22,381.56,312.05,400.52Z"/><path d="M521.7,388c-.5.71-1.05,1.39-1.59,2.07q-.61.75-1.26,1.47c-.32.36-.65.72-1,1.07s-.69.71-1,1.05-.84.79-1.27,1.17-.75.66-1.14,1c-.62.51-1.25,1-1.9,1.46-.3.22-.62.44-.93.65-.57.38-1.14.75-1.73,1.11l-.83.5a44.14,44.14,0,0,1-9.31,4l-8.4,8.4-3.93,3.93L461.24,442l-21.41-21.41q-3.84.07-7.5.36l23.38,23.39-50.73,0,22.92-22.93c-3.14.35-6.19.79-9.15,1.29L399.42,442,386,428.52c-2.34.21-4.81.38-7.38.48l15.27,15.27-44.41,0L364.67,429q-3.78-.13-7.46-.4L343.87,442l-30-30a27.21,27.21,0,0,1-7.28.58l4.31,4.3L285.81,442l-17.65-17.65L283.44,409a38.61,38.61,0,0,1-15.72-11.52,17,17,0,0,1-1-1.63l-14.44,14.67-21.11,21.06-16.6,16.5,1.31,3.33,11.52,28.44H573.09l11.52-28.44.81-2.71ZM248.29,444.19l15.94-15.93,15.95,15.95Zm43.14,0,23.41-23.41,23.43,23.44Zm175.33.1,24.55-24.55,24.59,24.58Zm28.48-28.48,13.14-13.14,26.15,26.15L521.39,442Zm31.63,28.52,11.59-11.58,11.59,11.59Z"/><path d="M54.65,54.31V69H25.25V83.71h22V98.37h-22v29.35H10.55V54.31Z"/><path d="M78.28,54.49V113h29.4v14.61H63.58V54.49Z"/><path d="M229.35,129.26l-33-74.77h15.56l17.38,40.07,17.42-40.07h15.74Z"/><path d="M325.26,64.84A35.83,35.83,0,0,1,336.2,91.11a37.11,37.11,0,0,1-37.16,37,37,37,0,0,1-37.12-37,36,36,0,0,1,10.89-26.27,36.93,36.93,0,0,1,52.45,0Zm-42,10.43A21.69,21.69,0,0,0,276.76,91a22.28,22.28,0,1,0,38-15.75,22.2,22.2,0,0,0-31.45,0Z"/><path d="M389.41,98.73V54.49H404.2V98.78a29.58,29.58,0,0,1-59.16,0V54.49h14.79V98.73a14.79,14.79,0,0,0,29.58,0Z"/><path d="M415.86,54.49h23.86a26.86,26.86,0,0,1,19.15,7.45c4.45,4.45,7.07,8.51,7.07,16.6v1.91a23.71,23.71,0,0,1-4.62,13.93,16.74,16.74,0,0,1-8.76,6.76l17,26.49h-18l-21-32.35v32.35H415.9ZM450.79,79a9.9,9.9,0,0,0-2.9-7c-1.91-1.85-5.53-2.9-9.08-2.9h-8.26V89.25h5.68v0h4.9C446.48,89.29,450.79,84.57,450.79,79Z"/><path d="M520.34,54.49V86.84l18.73-32.35h17L534.4,91.65l25.14,36H541.66L520.34,97v30.67H505.68V54.49Z"/><path d="M568.47,54.49h14.7v73.14h-14.7Z"/><path d="M638.88,94.92V54.31h14.74v74.82l-44.1-42v40.6h-14.7V53Z"/><path d="M699.67,54a37.4,37.4,0,0,1,26.27,10.84L715.46,75.37a21.62,21.62,0,0,0-15.7-6.58,21.23,21.23,0,0,0-15.7,6.58,22.23,22.23,0,0,0,0,31.48,21.21,21.21,0,0,0,15.7,6.54,22.18,22.18,0,0,0,20-12.8H698.94v-14h37.57c1,13.67-3.44,23.59-10.66,30.76a35.92,35.92,0,0,1-26.23,10.85,35.45,35.45,0,0,1-26.17-10.85,35.55,35.55,0,0,1-10.89-26.22,36,36,0,0,1,10.89-26.27,35.39,35.39,0,0,1,26.17-10.93Z"/><path d="M766,113.23c4.06,0,8.54-3.37,8.54-7.43,0-6.67-9-7.61-14-9.36-8.92-3-16.79-10.36-16.79-20.32A22.31,22.31,0,0,1,788.1,73l-14.6,3.08a7.42,7.42,0,0,0-14.84,0c0,6.58,8.34,8.34,13.42,9.85,9.23,2.66,17.37,9.69,17.37,19.87,0,12.33-11.07,22.29-23.38,22.29-11.31,0-21.54-8.29-23.2-19.18l14.59-3.11c0,4.08,4.44,7.41,8.57,7.41Z"/><path d="M195.1,93.43c-2.79-14-11.16-31.6-21-38.17s-21.81-4.77-38.8,16.11c0,0-11.16,14.61-13.95,29.82s.92,24.75,13.19,24.75c21.3,0,25-9.42,33-9.84,11.16-.6,16,11,22.57,5.66C196.29,116.67,197.89,107.45,195.1,93.43Z"/><path class="cls-13" d="M137.42,121.29a33.86,33.86,0,0,1-7.26-.75c-5.51-1.25-6.42-8.84-5.53-15,.85-5.9,1.27-8.33,3.08-9.35a1.69,1.69,0,0,1,.85-.17,8.27,8.27,0,0,1,3,.79c.51.25,1.12.61,1.8,1,2.75,1.61,6.51,3.81,10.75,3.81h.35a36.49,36.49,0,0,0,18-5.62,7.52,7.52,0,0,1,4.06-1.43A3.5,3.5,0,0,1,170,96.94c.2,1.12.34,1.86-6.49,4.83-4.3,1.87-7.25,6.62-9.85,10.81-1.65,2.67-3.22,5.19-4.72,6.21C146.63,120.36,142.32,121.29,137.42,121.29Z"/><path class="cls-13" d="M185.42,116.6c-2,0-4.6-1.55-6.66-2.8l-1.06-.64c-2.19-1.29-4.82-2.6-7.66-2.6a9.2,9.2,0,0,0-3.93.89,10.25,10.25,0,0,1-3.87,1.13,1.29,1.29,0,0,1-1-.3c-.09-.12-.37-.64,0-2.12,1.05-3.81,5.81-5.54,6.42-5.74,4.86-.8,6.43-2.93,7.57-4.48.9-1.21,1.39-1.87,3.18-1.87a12.09,12.09,0,0,1,2.42.3,5.31,5.31,0,0,0,1,.11c2,0,3.18-1.26,4.23-2.38s1.78-1.83,3-1.83l.36,0c.86.1,2.4,4.22,2.25,10.4-.13,5.12-2.12,10-4.74,11.5A3,3,0,0,1,185.42,116.6Z"/><path class="cls-13" d="M144.09,94.27c-4.66,0-9-2.1-10.7-5.22a6.27,6.27,0,0,1,.37-6.67,141.2,141.2,0,0,1,11.69-15.59c7.2-6.76,13.46-10.08,19.09-10.08a14.69,14.69,0,0,1,6.78,1.69c6.77,3.44,12.36,12.77,14.19,19.8s.86,11.54-3.08,14a3.48,3.48,0,0,1-1.93.59h0a10.43,10.43,0,0,1-4.11-1.4A18.9,18.9,0,0,0,167.78,89h-.63A15.93,15.93,0,0,0,161,90.81C157.59,92.35,153.29,94.27,144.09,94.27ZM164.4,62.61a13.6,13.6,0,0,0-8.69,3.1,9.58,9.58,0,0,0-2.91,9.2,7.28,7.28,0,0,0,5.33,5.54,15.47,15.47,0,0,0,3.78.46c3.87,0,7.15-1.37,9-3.77s2.24-5.66,1.18-9.66C171.26,64.43,168.39,62.61,164.4,62.61Z"/><path d="M567.39,48.71l16.52-5.91a4.44,4.44,0,0,0,2.69-5.68L583.35,28l-4.47,5.81-10.2-7.59-2.77,12.22-7.31-1.13L561.71,46A4.45,4.45,0,0,0,567.39,48.71Z"/><g class="cls-14"><path d="M484.06,17C328.38-26.11,184.31,55.32,129.13,183.92c-18.92,36.38-23.76,99.43-23.76,99.43s24.12-53.85,72.84-102.26c8-7.91,30.84-35.33,66.77-48.22,0,.12,0,.24.07.37a122.79,122.79,0,0,0,4.86,17.51,76.1,76.1,0,0,0,8.16,15.83,73.62,73.62,0,0,1-2.39-17,116.8,116.8,0,0,1,1.13-16.78c.69-4.58,1.6-9.1,2.69-13.56C264.94,106.45,276,84.81,292.33,73c24.25-17.46,36.13-18.43,42.2-13.09s7.27,23.76,5.82,40a161.31,161.31,0,0,1-2.64,17.72c-1.25,4.72-2.7,9.4-4.42,14a115.57,115.57,0,0,1-7.11,15.24,74.1,74.1,0,0,1-10.28,13.7,77,77,0,0,0,14.79-9.92,126,126,0,0,0,12.72-13c2.16-2.6,4.24-5.29,6.25-8,9.09.32,20.59,1.43,29.24,4.69,16.73,6.31,32.25,12.86,58.2,33.71,0,0-5.08-7-10.09-13.62-5.3-7-5.43-15.24-2.28-22.75s21.83-42,57-42.68c0,0,10.19,8.24,8,28.37s-8.48,33.95-15.27,43.41c-2.89,4-6.43,8.68-9.54,12.73a13.38,13.38,0,0,0,1.43,17.89c8.17,7.74,22.8,21.27,27,32.38,0,0-4.29,21.14-22.72,46.12s-37.83,33.46-37.83,33.46,41.29-4.69,67.41-38.31c25.5-32.82,55.25-66.44,52.87-153.26,0,0,19.07,23.61,18.43,88s-6.15,84.06-6.79,93.12,5.17,18.75,3.55,34.59c-1.16,11.4-2.49,27-3.15,34.82a10.31,10.31,0,0,0,3.21,8.35l12.73,12a20.51,20.51,0,0,1,4.8,23.07l-21.37,49.66a28.34,28.34,0,0,1-17.28,15.77c-22.12,7.2-71,20.94-121.85,20.94-68.87,0-101.85-18.11-125.77-34.92,0,0,19.4,26.83,77.92,44,22.07,6.46,49.66,9.62,75.47,11,24.95,1.38,30,36,6.42,44.38a177.31,177.31,0,0,1-51.18,10.23c-72.75,3.23-109.93-.65-181.38-40.1-27.05-14.93-49.09-35.23-66-54.7A294.23,294.23,0,0,0,400,594.63c188.57,0,335.76-177.14,284.24-374.1C658.48,122,582.16,44.15,484.06,17Z"/><path d="M498.92,429.29s20.44-28.66-5.44-35.08c-20.69-5.13-58.39,34-58.39,34S492.87,397.44,498.92,429.29Z"/><path d="M299.58,289.55s-3.77,23.86,7.53,33.91,33.92,6.28,40.2,1.26C347.31,324.72,317.24,320.64,299.58,289.55Z"/></g><path class="cls-13" d="M354.18,390.27c-20.83,0-34.21-6.53-37.66-18.4l0-.1a36,36,0,0,1,8.18-29.93c10.74-12.41,26.3-19.11,35.49-19.11a15,15,0,0,1,4.25.55c10,2.91,10.25,10.2,10.59,19.44.29,7.85,5.72,13.16,10.07,17.43l1.32,1.3c1.46,1.46,8.63,9.12,6.47,16.57-1.31,4.53-5.71,7.67-13.08,9.32A119.85,119.85,0,0,1,354.18,390.27Z"/><path class="cls-15" d="M354.18,385.27c-10.64,0-29-1.91-32.83-14.7a30.92,30.92,0,0,1,7.1-25.46c9.42-10.88,23.51-17.38,31.71-17.38a10.05,10.05,0,0,1,2.85.35c6.22,1.81,6.63,5,7,14.83s6.83,16.18,11.56,20.81l1.28,1.27c2.3,2.3,6.35,7.69,5.21,11.64-1,3.29-5.63,5-9.38,5.84A115.41,115.41,0,0,1,354.18,385.27Z"/><path class="cls-13" d="M392.54,357.16c-4.35,0-8.67-2.75-11-7-4.1-7.48-4.46-20.13,1.25-24.63,3.08-2.43,8.13-2.94,11.82-2.94a41,41,0,0,1,14.73,2.66c4.93,2.08,6.64,4.75,7.2,6.64a6.48,6.48,0,0,1-.83,5.5,13.81,13.81,0,0,1-7,5.33,8.83,8.83,0,0,0-4.4,3.06l-.06.08-.06.07a38.61,38.61,0,0,0-4.49,7.1A7.72,7.72,0,0,1,392.54,357.16Z"/><path class="cls-16" d="M392.54,352.16a8,8,0,0,1-6.63-4.42c-3.21-5.86-3.23-15.77,0-18.29,1.49-1.17,4.75-1.87,8.73-1.87a35.43,35.43,0,0,1,12.79,2.28c3.42,1.43,4.18,2.89,4.35,3.44a1.5,1.5,0,0,1-.18,1.28,9.07,9.07,0,0,1-4.78,3.52,13.87,13.87,0,0,0-6.45,4.64,44.84,44.84,0,0,0-5.07,8A2.85,2.85,0,0,1,392.54,352.16Z"/><path class="cls-13" d="M468.12,383.26a103.16,103.16,0,0,1-20.36-2.62,38.86,38.86,0,0,0-6.63-.5,49.37,49.37,0,0,0-12.28,1.54,32.51,32.51,0,0,1-8.05,1.06c-7.51,0-14.29-3.05-18.12-8.17-4.84-6.45-2.08-19,6.14-28,6.65-7.29,18.62-9.87,26.84-9.87a35.33,35.33,0,0,1,7.63.77c4.78,1.06,21.25,5.57,32.94,19.05,5.68,6.55,8.22,12.28,7.54,17a10.62,10.62,0,0,1-5.14,7.55C476.36,382.54,472.92,383.26,468.12,383.26Z"/><path class="cls-17" d="M468.12,378.26a99.16,99.16,0,0,1-19.33-2.51,41.55,41.55,0,0,0-7.66-.61,54.18,54.18,0,0,0-13.53,1.7,27.24,27.24,0,0,1-6.8.9c-5.95,0-11.22-2.31-14.12-6.17s-1.11-14.06,5.83-21.66c5.56-6.08,15.94-8.24,23.15-8.24a30.6,30.6,0,0,1,6.55.65c4.39,1,19.56,5.12,30.24,17.44,5.84,6.74,6.69,10.82,6.37,13.06a5.78,5.78,0,0,1-2.9,4.05C475.12,377.39,473,378.26,468.12,378.26Z"/><path d="M492.93,381.66c0-.21,0-.43,0-.64,0-.49,0-1,0-1.43a43.27,43.27,0,0,0-.48-5.56c-.61-3.4-2.47-9.58-9.34-17.33h0c-.62-.7-1.29-1.41-2-2.14h0a79.83,79.83,0,0,0-8-7.18c-.87-.68-1.76-1.34-2.66-2s-1.72-1.22-2.6-1.81h0c-15.25-10.29-33.7-16.2-57.17-22.59-1.88-.51-3.73-1-5.56-1.39H405c-1.46-.34-4.51-1-4.58-1h0a122.72,122.72,0,0,0-20.59-2.34h-.19c-.86,0-1.73,0-2.57,0l-1.12,0-1.26,0c-1.05,0-2.08.06-3.09.11l-1.24.08c-1,.06-2,.14-3,.24l-1.22.13c-1,.1-1.89.22-2.82.35l-1.2.18c-.91.15-1.8.3-2.69.47l-1.17.23q-1.29.27-2.55.57l-1.15.28c-.82.2-1.62.43-2.41.65l-1.13.34c-.77.23-1.52.48-2.26.74l-1.11.38c-.72.26-1.42.53-2.12.81l-1.08.44c-.67.28-1.33.58-2,.88l-1.05.48c-.63.3-1.24.62-1.84.94l-1,.53c-.59.32-1.15.66-1.71,1-.32.19-.66.38-1,.58-.55.34-1.07.69-1.59,1l-.91.61c-.52.37-1,.75-1.5,1.12l-.82.62c-.51.41-1,.83-1.47,1.25-.22.18-.45.37-.66.56-.68.61-1.33,1.24-1.95,1.87-8.87,9.08-17.75,19.66-17.75,41.21,0,0-.11,1.59-.2,3.92,0,.78-.05,1.65-.06,2.56,0,.46,0,.93,0,1.41,0,1,0,2,0,3s.06,2,.12,3a41,41,0,0,0,.44,4.15c.09.54.23,1.23.44,2a30.2,30.2,0,0,0,21.16,21.34c.75.23,1.53.45,2.33.66l.69.17c.6.16,1.22.31,1.84.45l.73.17,2.12.45.47.09A172.48,172.48,0,0,0,371,421.09a131,131,0,0,0,22.22-1.65c3-.55,6.11-1.19,9.36-1.87h.05c6.56-1.36,13.69-2.85,21.44-3.93l3.6-.46.75-.08c1.23-.14,2.48-.27,3.75-.38,3.95-.35,8-.56,12.31-.56,3.08,0,6.25.11,9.51.35,2.46.18,4.78.26,7,.26.94,0,1.83,0,2.72-.06h0l.27,0c.76,0,1.49-.07,2.22-.12l1.09-.07c.71-.06,1.39-.14,2.06-.21l1-.12,1.91-.29.93-.16c.6-.11,1.18-.23,1.75-.36l.87-.2c.55-.13,1.08-.27,1.6-.41l.8-.24c.5-.15,1-.3,1.44-.46l.75-.27c.44-.17.87-.33,1.28-.51l.69-.3c.39-.17.78-.35,1.14-.53l.63-.34c.34-.18.68-.36,1-.55l.58-.36c.29-.19.58-.37.84-.56s.36-.26.54-.4.48-.36.69-.55.33-.28.49-.43l.56-.52.43-.48c.14-.16.3-.32.43-.49a6.15,6.15,0,0,0,.37-.52c.1-.14.22-.29.3-.43s.23-.4.33-.59.13-.23.18-.34a6.92,6.92,0,0,0,.33-.89c.11-.4.21-.83.31-1.27l.09-.41c.07-.33.14-.68.2-1,0-.14.06-.28.08-.42.09-.49.17-1,.24-1.51,0,0,0-.06,0-.09.07-.5.13-1,.19-1.51l.06-.53c.05-.39.09-.8.13-1.2,0-.18,0-.35.05-.53.05-.56.1-1.12.14-1.68,0-.09,0-.18,0-.26l.09-1.48,0-.63.06-1.16c0-.21,0-.42,0-.63,0-.55,0-1.1.05-1.64v-.44c0-.41,0-.83,0-1.24v-.66C492.94,382.32,492.93,382,492.93,381.66Zm-113.59,3.73c-22.19,5-55.27,5.28-60.9-14.08a34.15,34.15,0,0,1,7.75-28.16c11.26-13,29.21-20.42,37.66-17.95s8.8,8.09,9.15,17.6,7.4,15.49,12,20.06S398.88,381,379.34,385.39Zm3.94-36.2c-3.66-6.67-4-18.35.74-22.1s17.57-2.92,24.53,0,6.93,7.06,5.5,9.17c-3.67,5.42-8.06,3.75-11.36,8.34a40.15,40.15,0,0,0-4.76,7.51C395.37,357.11,387,355.86,383.28,349.19Zm94.27,30.2c-6,3.89-22.66.71-29.38-.71a48.9,48.9,0,0,0-19.82,1.06c-11,2.84-19.82-.7-24.07-6.37s-1.42-17.34,6-25.48,23-10.62,32.56-8.5,22.65,7.79,31.86,18.41S483.57,375.5,477.55,379.39Z"/><path d="M371.38,352.64a28.73,28.73,0,0,1-4.89-13.73c-.37-7.52-2.25-7.9-6-8.09s-7.33,1.88-8.08,3-.94,4.51,2.25,2.63,1.88-2.82,4.14-2.44,2.45-.57,3.58.38-.19,3,1.12,5.64,2.64,2.82,2.64,7,3,9.21,4.7,9.59S373.08,355.65,371.38,352.64Z"/><path d="M327.28,351.14a18.1,18.1,0,0,0-3.72,13.43c1,8.16,1.76,10.27,6.07,13.69s5.06,3.67,8.41,4.74c2.85.91,6.13,1,5-2.12-.88-2.45-4.8-.51-7.93-3.94s-5.48-3.42-6.85-4.74-2.94-7.11-2.94-9.74,1.57-4.21,2.94-6.06,4.3-2.89,3.13-5.79S328.65,349.56,327.28,351.14Z"/><path d="M476.13,373.15s-2.45-9.1-12.09-17.35-12.5-10-19.29-10.72-7.6-.44-11.15.76c-3,1-6.91,5.2-1.93,5.4s5-4.08,11-2.54,10.8,1.39,12.33,3.32c2.93,3.72,7.26,4.45,10.14,7.33s3.51,5.73,4.56,8.72.14,6.21,4.14,8.56S476.89,375.84,476.13,373.15Z"/><path d="M332.18,367.67s-.78,2.74,1.57,3.53a14.23,14.23,0,0,1,5.87,4.4c1.27,1.56,4.21,1.17,6.55,2.35s2,4.5,3.62,5.57,9.3,1.08,14.48.59,14.87-.88,17.12-2.64,2.06-3.43-.88-2.94S379,382,375,381.76s-9-1.56-12.32-.68-7.14,1.46-8.81-.79-2.93-4.5-5.77-4.59-6.06-.1-6.75-2.45-1.47-3.52-3.72-3.72S333.85,365.23,332.18,367.67Z"/><path d="M410.15,357.5s-3.72,6.26-1,10.57a15.55,15.55,0,0,0,10,7.23c3.92,1,7.63-2.15,12.13-3.32s9.39-1.37,12.72.59,5.48,1.17,5.87-.79-2-4.5-4.7-3.71-6.84.39-10-.4-3.33-.58-6.66,1.57-5.67,4.89-8,2.54-4.11-3.52-6.26-3.91-4.89-3.52-3.13-4.89S414.65,355.15,410.15,357.5Z"/><path d="M416.61,349.28s-3.33,2-2.15,4.7,2.54,3.91,1,6.26-3.32,2.74-1.17,4.3,4.11-1.56,4.11-3.32a26.1,26.1,0,0,0-.2-6.65c-.58-2.74.59-2.94,2.74-4.7s9.79-4.89,6.07-4.3S417.39,348.5,416.61,349.28Z"/><path d="M402.33,338.33s2.54-2.55,4.3-3.13,2.74-2-.2-3.53a17.63,17.63,0,0,0-9.58-1.95c-3.52.19-5.28-1.76-8.22,1.17s-1.76,5.68-.78,5.68,2.93-2.16,3.13-3.14,3.13-1.76,4.69-1a13,13,0,0,0,5.48,1c1.76,0,3.92-1,2.55.59s-5.68,2.94-4.5,4.7S400.37,339.5,402.33,338.33Z"/></g></g></svg>