<svg xmlns="http://www.w3.org/2000/svg" xmlns:xlink="http://www.w3.org/1999/xlink" viewBox="0 0 800 530"><defs><style>.cls-1{isolation:isolate;}.cls-2{fill:#be222d;}.cls-3{fill:url(#linear-gradient);}.cls-4{fill:url(#linear-gradient-2);}.cls-5{fill:url(#linear-gradient-3);}.cls-6{fill:url(#linear-gradient-4);}.cls-7{fill:url(#linear-gradient-5);}.cls-8{fill:url(#linear-gradient-6);}.cls-9{fill:url(#linear-gradient-7);}.cls-10{fill:url(#linear-gradient-8);}.cls-11{fill:url(#linear-gradient-9);}.cls-12{fill:url(#linear-gradient-10);}.cls-13{fill:url(#linear-gradient-11);}.cls-14{fill:#fad1c0;}.cls-15{fill:#fde9e2;}.cls-16,.cls-32,.cls-33{fill:none;}.cls-16{stroke:#fcf8c8;stroke-miterlimit:10;stroke-width:0.5px;}.cls-17{fill:url(#linear-gradient-12);}.cls-18{fill:url(#linear-gradient-13);}.cls-19{fill:url(#linear-gradient-14);}.cls-20{fill:url(#linear-gradient-15);}.cls-21{fill:url(#linear-gradient-16);}.cls-22{fill:url(#linear-gradient-17);}.cls-23{fill:url(#linear-gradient-18);}.cls-24{fill:url(#linear-gradient-19);}.cls-25{fill:url(#linear-gradient-20);}.cls-26{fill:url(#linear-gradient-21);}.cls-27{fill:url(#linear-gradient-22);}.cls-28{fill:url(#linear-gradient-23);}.cls-29{fill:url(#linear-gradient-24);}.cls-30{fill:url(#linear-gradient-25);}.cls-31{fill:url(#linear-gradient-26);}.cls-32,.cls-33{stroke:#753523;stroke-linejoin:round;stroke-width:4px;}.cls-32{stroke-linecap:round;}.cls-34{fill:url(#linear-gradient-27);}.cls-35,.cls-40,.cls-43,.cls-46{mix-blend-mode:screen;}.cls-35{fill:url(#linear-gradient-28);}.cls-36{fill:url(#linear-gradient-29);}.cls-37{fill:url(#linear-gradient-30);}.cls-38{fill:url(#linear-gradient-31);}.cls-39{fill:url(#linear-gradient-32);}.cls-40{fill:url(#linear-gradient-33);}.cls-41{fill:url(#linear-gradient-34);}.cls-42{fill:url(#linear-gradient-35);}.cls-43{fill:url(#linear-gradient-36);}.cls-44{fill:url(#linear-gradient-37);}.cls-45{fill:url(#linear-gradient-38);}.cls-46{fill:url(#linear-gradient-39);}.cls-47{fill:url(#linear-gradient-40);}.cls-48{fill:url(#linear-gradient-41);}.cls-49{fill:#931b22;}.cls-50{fill:#a91b25;}.cls-51{fill:url(#linear-gradient-42);}.cls-52{fill:url(#linear-gradient-43);}.cls-53{opacity:0.05;}</style><linearGradient id="linear-gradient" x1="42.96" y1="84.65" x2="42.96" y2="12.8" gradientUnits="userSpaceOnUse"><stop offset="0" stop-color="#ed2f24"/><stop offset="1" stop-color="#fced09"/></linearGradient><linearGradient id="linear-gradient-2" x1="94.86" y1="84.56" x2="94.86" y2="12.98" xlink:href="#linear-gradient"/><linearGradient id="linear-gradient-3" x1="235.59" y1="86.16" x2="235.59" y2="12.98" xlink:href="#linear-gradient"/><linearGradient id="linear-gradient-4" x1="303.74" y1="85.05" x2="303.74" y2="12.4" xlink:href="#linear-gradient"/><linearGradient id="linear-gradient-5" x1="377.69" y1="85.22" x2="377.69" y2="12.98" xlink:href="#linear-gradient"/><linearGradient id="linear-gradient-6" x1="444.33" y1="84.56" x2="444.33" y2="12.98" xlink:href="#linear-gradient"/><linearGradient id="linear-gradient-7" x1="532.31" y1="84.56" x2="532.31" y2="12.98" xlink:href="#linear-gradient"/><linearGradient id="linear-gradient-8" x1="574.59" y1="84.56" x2="574.59" y2="12.98" xlink:href="#linear-gradient"/><linearGradient id="linear-gradient-9" x1="621.97" y1="86.02" x2="621.97" y2="11.47" xlink:href="#linear-gradient"/><linearGradient id="linear-gradient-10" x1="695.74" y1="85.09" x2="695.74" y2="12.4" xlink:href="#linear-gradient"/><linearGradient id="linear-gradient-11" x1="760.87" y1="85.1" x2="760.87" y2="12.35" xlink:href="#linear-gradient"/><linearGradient id="linear-gradient-12" x1="28.97" y1="513.21" x2="28.97" y2="449.31" xlink:href="#linear-gradient"/><linearGradient id="linear-gradient-13" x1="62.73" y1="513.21" x2="62.73" y2="449.31" xlink:href="#linear-gradient"/><linearGradient id="linear-gradient-14" x1="98.88" y1="513.29" x2="98.88" y2="449.15" xlink:href="#linear-gradient"/><linearGradient id="linear-gradient-15" x1="145.48" y1="513.29" x2="145.48" y2="449.15" xlink:href="#linear-gradient"/><linearGradient id="linear-gradient-16" x1="190.81" y1="513.7" x2="190.81" y2="448.75" xlink:href="#linear-gradient"/><linearGradient id="linear-gradient-17" x1="239.02" y1="513.21" x2="239.02" y2="449.31" xlink:href="#linear-gradient"/><linearGradient id="linear-gradient-18" x1="293.06" y1="513.21" x2="293.06" y2="449.31" xlink:href="#linear-gradient"/><linearGradient id="linear-gradient-19" x1="346.59" y1="513.21" x2="346.59" y2="449.31" xlink:href="#linear-gradient"/><linearGradient id="linear-gradient-20" x1="393.2" y1="513.29" x2="393.2" y2="449.15" xlink:href="#linear-gradient"/><linearGradient id="linear-gradient-21" x1="469.77" y1="513.21" x2="469.77" y2="449.31" xlink:href="#linear-gradient"/><linearGradient id="linear-gradient-22" x1="524.48" y1="513.65" x2="524.48" y2="448.79" xlink:href="#linear-gradient"/><linearGradient id="linear-gradient-23" x1="650.24" y1="514.52" x2="650.24" y2="447.96" xlink:href="#linear-gradient"/><linearGradient id="linear-gradient-24" x1="716.38" y1="513.69" x2="716.38" y2="448.79" xlink:href="#linear-gradient"/><linearGradient id="linear-gradient-25" x1="776.09" y1="513.29" x2="776.09" y2="449.15" xlink:href="#linear-gradient"/><linearGradient id="linear-gradient-26" x1="587.34" y1="513.65" x2="587.34" y2="449.35" xlink:href="#linear-gradient"/><linearGradient id="linear-gradient-27" x1="454.34" y1="353.65" x2="447.53" y2="346.89" gradientTransform="matrix(-1, 0, 0, 1, 977.22, 0)" gradientUnits="userSpaceOnUse"><stop offset="0" stop-color="#753423"/><stop offset="0.54" stop-color="#b15c3a"/><stop offset="0.95" stop-color="#753423"/></linearGradient><linearGradient id="linear-gradient-28" x1="391.13" y1="176.48" x2="391.13" y2="331.94" gradientUnits="userSpaceOnUse"><stop offset="0"/><stop offset="1" stop-color="#f4831f"/></linearGradient><linearGradient id="linear-gradient-29" x1="261.19" y1="368.69" x2="254.45" y2="361.99" gradientTransform="matrix(1, 0, 0, 1, 0, 0)" xlink:href="#linear-gradient-27"/><linearGradient id="linear-gradient-30" x1="393.96" y1="269.38" x2="393.96" y2="385.06" gradientUnits="userSpaceOnUse"><stop offset="0" stop-color="#ed2f24" stop-opacity="0"/><stop offset="1" stop-color="#fced09"/></linearGradient><linearGradient id="linear-gradient-31" x1="574.88" y1="257.51" x2="589.65" y2="350.51" gradientTransform="matrix(-1, 0, 0, 1, 1066.83, 0)" xlink:href="#linear-gradient"/><linearGradient id="linear-gradient-32" x1="550.07" y1="236.8" x2="599" y2="337.03" gradientTransform="matrix(-1, 0, 0, 1, 1066.83, 0)" xlink:href="#linear-gradient"/><linearGradient id="linear-gradient-33" x1="568.27" y1="264.4" x2="589.37" y2="336.35" gradientTransform="matrix(-1, 0, 0, 1, 1066.83, 0)" xlink:href="#linear-gradient-28"/><linearGradient id="linear-gradient-34" x1="374.55" y1="185.74" x2="402.33" y2="360.64" xlink:href="#linear-gradient"/><linearGradient id="linear-gradient-35" x1="391.06" y1="144.84" x2="391.06" y2="338.9" xlink:href="#linear-gradient"/><linearGradient id="linear-gradient-36" x1="391.73" y1="176.91" x2="391.73" y2="331.94" xlink:href="#linear-gradient-28"/><linearGradient id="linear-gradient-37" x1="311.33" y1="270.52" x2="325.41" y2="359.15" gradientTransform="translate(74.99 -72.99) rotate(14.54)" xlink:href="#linear-gradient"/><linearGradient id="linear-gradient-38" x1="291.01" y1="262.72" x2="332.47" y2="347.67" gradientTransform="translate(74.99 -72.99) rotate(14.54)" xlink:href="#linear-gradient"/><linearGradient id="linear-gradient-39" x1="307.17" y1="278.58" x2="327.56" y2="348.07" gradientTransform="translate(74.99 -72.99) rotate(14.54)" xlink:href="#linear-gradient-28"/><linearGradient id="linear-gradient-40" x1="380.05" y1="246.9" x2="380.05" y2="326.69" gradientUnits="userSpaceOnUse"><stop offset="0.27" stop-color="#f6b42c"/><stop offset="0.4" stop-color="#ed772d"/><stop offset="0.6" stop-color="#ed2f24"/><stop offset="1" stop-color="#be222d"/></linearGradient><linearGradient id="linear-gradient-41" x1="324.34" y1="317.35" x2="364.27" y2="255.12" gradientUnits="userSpaceOnUse"><stop offset="0" stop-color="#be222d"/><stop offset="0.4" stop-color="#ed2f24"/><stop offset="0.6" stop-color="#ed772d"/><stop offset="0.73" stop-color="#f6b42c"/></linearGradient><linearGradient id="linear-gradient-42" x1="387.47" y1="242.72" x2="457.48" y2="325.39" gradientUnits="userSpaceOnUse"><stop offset="0.27" stop-color="#f6b42c"/><stop offset="0.4" stop-color="#ed772d"/><stop offset="0.6" stop-color="#ed2f24"/><stop offset="0.98" stop-color="#be222d"/></linearGradient><linearGradient id="linear-gradient-43" x1="400" y1="402.52" x2="400" y2="388.87" gradientUnits="userSpaceOnUse"><stop offset="0" stop-color="#753423"/><stop offset="0.54" stop-color="#b15c3a"/><stop offset="1" stop-color="#753423"/></linearGradient></defs><g class="cls-1"><g id="Layer_1" data-name="Layer 1"><path class="cls-2" d="M59.49,17.86V32.2H30.72V46.63H52.3V61H30.72V89.7H16.33V17.86Z"/><path class="cls-2" d="M82.62,18V75.31h28.77v14.3H68.23V18Z"/><path class="cls-2" d="M230.47,91.21,198.19,18h15.23l17,39.21L247.47,18h15.41Z"/><path class="cls-2" d="M324.33,28.16A35.06,35.06,0,0,1,335,53.87a34.82,34.82,0,0,1-10.7,25.66,36.44,36.44,0,0,1-51.33,0,35,35,0,0,1-10.66-25.66A35.24,35.24,0,0,1,273,28.16a36.13,36.13,0,0,1,51.33,0ZM283.26,38.37a21.21,21.21,0,0,0-6.4,15.41,21.81,21.81,0,0,0,43.61,0A21,21,0,0,0,314,38.37a21.72,21.72,0,0,0-30.77,0Z"/><path class="cls-2" d="M387.11,61.33V18h14.47V61.37a29,29,0,0,1-57.9,0V18h14.48v43.3a14.48,14.48,0,0,0,28.95,0Z"/><path class="cls-2" d="M413,18h23.36a26.23,26.23,0,0,1,18.73,7.29c4.36,4.35,6.93,8.33,6.93,16.25v1.86a23.14,23.14,0,0,1-4.53,13.63,16.27,16.27,0,0,1-8.57,6.62l16.65,25.93H448L427.42,58V89.61H413Zm34.19,24a9.68,9.68,0,0,0-2.84-6.88c-1.87-1.82-5.41-2.84-8.88-2.84h-8.08V52.05h5.55v0h4.79C443,52.09,447.18,47.47,447.18,42Z"/><path class="cls-2" d="M515.24,18V49.69L533.58,18h16.61L529,54.4l24.6,35.21h-17.5l-20.87-30v30H500.9V18Z"/><path class="cls-2" d="M562.35,18h14.39V89.61H562.35Z"/><path class="cls-2" d="M631.26,57.6V17.86h14.43V91.07L602.53,50V89.7H588.14V16.52Z"/><path class="cls-2" d="M690.75,17.59A36.58,36.58,0,0,1,716.46,28.2L706.2,38.46A21.17,21.17,0,0,0,690.84,32a20.78,20.78,0,0,0-15.36,6.44,21,21,0,0,0-6.4,15.41,21,21,0,0,0,6.4,15.4,20.72,20.72,0,0,0,15.36,6.4,21.71,21.71,0,0,0,19.62-12.52H690V49.43H726.8c1,13.37-3.36,23.08-10.43,30.1a35.16,35.16,0,0,1-25.66,10.61,34.72,34.72,0,0,1-25.62-10.61,34.78,34.78,0,0,1-10.66-25.66,35.2,35.2,0,0,1,10.66-25.71,34.63,34.63,0,0,1,25.62-10.7Z"/><path class="cls-2" d="M755.63,75.52c4,0,8.35-3.3,8.35-7.27,0-6.54-8.77-7.45-13.72-9.17-8.72-3-16.43-10.13-16.43-19.88a21.84,21.84,0,0,1,43.46-3L763,39.2a7.27,7.27,0,0,0-14.53,0c0,6.45,8.17,8.17,13.14,9.64,9,2.61,17,9.49,17,19.45,0,12.07-10.84,21.82-22.89,21.82-11.07,0-21.08-8.12-22.7-18.78l14.28-3c0,4,4.34,7.25,8.38,7.25Z"/><path class="cls-2" d="M60.75,16.59V30.93H32V45.37H53.56V59.71H32V88.44H17.59V16.59Z"/><path class="cls-2" d="M83.88,16.77V74.05h28.77v14.3H69.5V16.77Z"/><path class="cls-2" d="M231.73,89.94,199.45,16.77h15.23l17,39.21,17.05-39.21h15.41Z"/><path class="cls-2" d="M325.59,26.89a35.05,35.05,0,0,1,10.7,25.71,34.8,34.8,0,0,1-10.7,25.67,36.47,36.47,0,0,1-51.33,0A35,35,0,0,1,263.61,52.6a35.26,35.26,0,0,1,10.65-25.71,36.13,36.13,0,0,1,51.33,0ZM284.52,37.11a21.18,21.18,0,0,0-6.39,15.4,21.8,21.8,0,0,0,43.6,0,21,21,0,0,0-6.44-15.4,21.69,21.69,0,0,0-30.77,0Z"/><path class="cls-2" d="M388.37,60.06V16.77h14.48V60.11a29,29,0,0,1-57.9,0V16.77h14.47V60.06a14.48,14.48,0,0,0,28.95,0Z"/><path class="cls-2" d="M414.25,16.77h23.36a26.31,26.31,0,0,1,18.74,7.28c4.35,4.36,6.92,8.34,6.92,16.25v1.87a23.16,23.16,0,0,1-4.53,13.63,16.28,16.28,0,0,1-8.56,6.62l16.65,25.93H449.24L428.68,56.69V88.35H414.3Zm34.19,24a9.62,9.62,0,0,0-2.84-6.88c-1.87-1.82-5.41-2.85-8.88-2.85h-8.08V50.78h5.55v0H439C444.23,50.83,448.44,46.2,448.44,40.75Z"/><path class="cls-2" d="M516.51,16.77V48.43l18.33-31.66h16.61L530.27,53.14l24.6,35.21H537.38l-20.87-30v30H502.16V16.77Z"/><path class="cls-2" d="M563.61,16.77H578V88.35H563.61Z"/><path class="cls-2" d="M632.52,56.33V16.59H647V89.81L603.79,48.7V88.44H589.4V15.26Z"/><path class="cls-2" d="M692,16.33a36.58,36.58,0,0,1,25.71,10.61L707.46,37.2a21.13,21.13,0,0,0-15.36-6.44,20.74,20.74,0,0,0-15.36,6.44,21,21,0,0,0-6.4,15.4A21,21,0,0,0,676.74,68,20.75,20.75,0,0,0,692.1,74.4a21.73,21.73,0,0,0,19.63-12.52H691.3V48.16h36.77c1,13.38-3.37,23.09-10.44,30.11A35.16,35.16,0,0,1,692,88.88a34.72,34.72,0,0,1-25.62-10.61A34.79,34.79,0,0,1,655.69,52.6a35.23,35.23,0,0,1,10.66-25.71A34.67,34.67,0,0,1,692,16.19Z"/><path class="cls-2" d="M756.89,74.26c4,0,8.36-3.3,8.36-7.28,0-6.53-8.77-7.44-13.72-9.16-8.73-3-16.44-10.14-16.44-19.88a21.84,21.84,0,0,1,43.46-3l-14.28,3a7.26,7.26,0,0,0-14.52,0c0,6.45,8.16,8.16,13.13,9.64,9,2.6,17,9.49,17,19.45,0,12.07-10.83,21.82-22.88,21.82-11.07,0-21.08-8.12-22.71-18.78l14.28-3c0,4,4.35,7.25,8.38,7.25Z"/><path class="cls-2" d="M62,15.33V29.67H33.24V44.1H54.82V58.44H33.24V87.17H18.86V15.33Z"/><path class="cls-2" d="M85.14,15.51V72.79h28.78V87.08H70.76V15.51Z"/><path class="cls-2" d="M233,88.68,200.71,15.51h15.23l17,39.2L250,15.51h15.41Z"/><path class="cls-2" d="M326.86,25.63a35.06,35.06,0,0,1,10.7,25.71A34.82,34.82,0,0,1,326.86,77a36.44,36.44,0,0,1-51.33,0,35,35,0,0,1-10.66-25.66,35.2,35.2,0,0,1,10.66-25.71,36.13,36.13,0,0,1,51.33,0ZM285.78,35.84a21.22,21.22,0,0,0-6.39,15.41,21.8,21.8,0,0,0,43.6,0,21,21,0,0,0-6.44-15.41,21.72,21.72,0,0,0-30.77,0Z"/><path class="cls-2" d="M389.64,58.8V15.51h14.47V58.84a29,29,0,0,1-57.9,0V15.51h14.48V58.8a14.48,14.48,0,0,0,28.95,0Z"/><path class="cls-2" d="M415.52,15.51h23.35a26.29,26.29,0,0,1,18.74,7.28c4.36,4.36,6.93,8.33,6.93,16.25v1.87A23.18,23.18,0,0,1,460,54.54a16.33,16.33,0,0,1-8.57,6.61l16.65,25.93H450.51L430,55.42V87.08H415.56Zm34.19,24a9.67,9.67,0,0,0-2.85-6.88c-1.86-1.81-5.41-2.84-8.88-2.84H429.9V49.52h5.55v0h4.8C445.49,49.56,449.71,44.94,449.71,39.48Z"/><path class="cls-2" d="M517.77,15.51V47.17l18.34-31.66h16.6L531.53,51.87l24.6,35.21H538.64l-20.87-30v30H503.43V15.51Z"/><path class="cls-2" d="M564.88,15.51h14.38V87.08H564.88Z"/><path class="cls-2" d="M633.78,55.07V15.33h14.43V88.55L605.05,47.43V87.17H590.67V14Z"/><path class="cls-2" d="M693.28,15.06A36.5,36.5,0,0,1,719,25.68L708.73,35.93a21.17,21.17,0,0,0-15.37-6.44A20.8,20.8,0,0,0,678,35.93a21,21,0,0,0-6.39,15.41A21,21,0,0,0,678,66.75a20.78,20.78,0,0,0,15.36,6.39A21.71,21.71,0,0,0,713,60.62H692.57V46.9h36.76C730.35,60.28,726,70,718.9,77a35.15,35.15,0,0,1-25.67,10.62A34.72,34.72,0,0,1,667.61,77,34.79,34.79,0,0,1,657,51.34a35.23,35.23,0,0,1,10.65-25.71,34.7,34.7,0,0,1,25.62-10.7Z"/><path class="cls-2" d="M758.15,73c4,0,8.36-3.3,8.36-7.27,0-6.53-8.77-7.45-13.72-9.16-8.73-3-16.43-10.14-16.43-19.89a21.84,21.84,0,0,1,43.46-3l-14.29,3a7.26,7.26,0,0,0-14.52,0c0,6.44,8.16,8.16,13.13,9.64,9,2.6,17,9.48,17,19.45,0,12.07-10.83,21.81-22.88,21.81-11.07,0-21.08-8.11-22.71-18.77l14.29-3c0,4,4.34,7.25,8.38,7.25Z"/><path class="cls-2" d="M63.28,14.07V28.41H34.51V42.84H56.09V57.18H34.51V85.91H20.12V14.07Z"/><path class="cls-2" d="M86.41,14.24V71.52h28.77v14.3H72V14.24Z"/><path class="cls-2" d="M234.26,87.42,202,14.24h15.23l17,39.21,17-39.21h15.41Z"/><path class="cls-2" d="M328.12,24.37a35.06,35.06,0,0,1,10.7,25.71,34.82,34.82,0,0,1-10.7,25.66,36.44,36.44,0,0,1-51.33,0,35,35,0,0,1-10.66-25.66,35.24,35.24,0,0,1,10.66-25.71,36.13,36.13,0,0,1,51.33,0ZM287.05,34.58A21.17,21.17,0,0,0,280.65,50a21.81,21.81,0,0,0,43.61,0,21,21,0,0,0-6.44-15.41,21.72,21.72,0,0,0-30.77,0Z"/><path class="cls-2" d="M390.9,57.54V14.24h14.47V57.58a29,29,0,0,1-57.9,0V14.24H362v43.3a14.48,14.48,0,0,0,28.95,0Z"/><path class="cls-2" d="M416.78,14.24h23.36a26.25,26.25,0,0,1,18.73,7.29c4.36,4.35,6.93,8.33,6.93,16.25v1.86a23.14,23.14,0,0,1-4.53,13.63,16.27,16.27,0,0,1-8.57,6.62l16.65,25.93H451.77L431.21,54.16V85.82H416.82Zm34.19,24a9.68,9.68,0,0,0-2.84-6.88c-1.87-1.82-5.41-2.84-8.88-2.84h-8.08V48.26h5.55v0h4.79C446.75,48.3,451,43.68,451,38.22Z"/><path class="cls-2" d="M519,14.24V45.9l18.34-31.66H554L532.8,50.61l24.6,35.21H539.9L519,55.8v30H504.69V14.24Z"/><path class="cls-2" d="M566.14,14.24h14.38V85.82H566.14Z"/><path class="cls-2" d="M635.05,53.81V14.07h14.43V87.29L606.32,46.17V85.91H591.93V12.73Z"/><path class="cls-2" d="M694.54,13.8a36.58,36.58,0,0,1,25.71,10.61L710,34.67a21.17,21.17,0,0,0-15.36-6.44,20.82,20.82,0,0,0-15.37,6.44,21,21,0,0,0-6.39,15.41,21,21,0,0,0,6.39,15.4,20.76,20.76,0,0,0,15.37,6.4,21.71,21.71,0,0,0,19.62-12.52H693.83V45.64h36.76c1,13.37-3.36,23.08-10.43,30.1a35.14,35.14,0,0,1-25.67,10.61,34.71,34.71,0,0,1-25.62-10.61,34.79,34.79,0,0,1-10.65-25.66,35.23,35.23,0,0,1,10.65-25.71,34.66,34.66,0,0,1,25.62-10.7Z"/><path class="cls-2" d="M759.42,71.73c4,0,8.35-3.3,8.35-7.27,0-6.54-8.77-7.45-13.72-9.16-8.72-3-16.43-10.14-16.43-19.89a21.84,21.84,0,0,1,43.46-3l-14.28,3a7.27,7.27,0,0,0-14.53,0c0,6.45,8.17,8.17,13.14,9.64,9,2.61,17,9.49,17,19.45,0,12.07-10.84,21.82-22.89,21.82-11.07,0-21.08-8.12-22.7-18.78l14.28-3c0,4,4.34,7.25,8.38,7.25Z"/><path class="cls-3" d="M64.54,12.8V27.15H35.77V41.58H57.35V55.92H35.77V84.65H21.38V12.8Z"/><path class="cls-4" d="M87.67,13V70.26h28.77v14.3H73.28V13Z"/><path class="cls-5" d="M235.52,86.16,203.24,13h15.23l17,39.21L252.53,13h15.4Z"/><path class="cls-6" d="M329.38,23.11a35,35,0,0,1,10.7,25.7,34.8,34.8,0,0,1-10.7,25.67,36.44,36.44,0,0,1-51.33,0A35,35,0,0,1,267.4,48.81a35.22,35.22,0,0,1,10.65-25.7,36.11,36.11,0,0,1,51.33,0ZM288.31,33.32a21.19,21.19,0,0,0-6.39,15.4,21.8,21.8,0,0,0,43.6,0,21,21,0,0,0-6.44-15.4,21.69,21.69,0,0,0-30.77,0Z"/><path class="cls-7" d="M392.16,56.27V13h14.48V56.32a29,29,0,0,1-57.9,0V13h14.47V56.27a14.48,14.48,0,0,0,29,0Z"/><path class="cls-8" d="M418,13H441.4a26.31,26.31,0,0,1,18.74,7.28c4.35,4.36,6.92,8.34,6.92,16.25v1.87A23.16,23.16,0,0,1,462.53,52,16.27,16.27,0,0,1,454,58.63l16.65,25.93H453L432.47,52.9V84.56H418.09Zm34.19,24a9.62,9.62,0,0,0-2.84-6.88c-1.87-1.82-5.41-2.85-8.88-2.85h-8.08V47H438v0h4.79C448,47,452.23,42.41,452.23,37Z"/><path class="cls-9" d="M520.3,13V44.64L538.63,13h16.61L534.06,49.35l24.6,35.21h-17.5l-20.86-30v30H506V13Z"/><path class="cls-10" d="M567.4,13h14.39V84.56H567.4Z"/><path class="cls-11" d="M636.31,52.54V12.8h14.43V86L607.58,44.91V84.65H593.19V11.47Z"/><path class="cls-12" d="M695.8,12.54a36.58,36.58,0,0,1,25.71,10.61L711.25,33.41A21.13,21.13,0,0,0,695.89,27a20.74,20.74,0,0,0-15.36,6.44,21,21,0,0,0-6.4,15.4,21,21,0,0,0,6.4,15.41,20.76,20.76,0,0,0,15.36,6.4,21.74,21.74,0,0,0,19.63-12.53H695.09V44.37h36.77c1,13.38-3.37,23.09-10.44,30.11a35.16,35.16,0,0,1-25.66,10.61,34.72,34.72,0,0,1-25.62-10.61,34.79,34.79,0,0,1-10.66-25.67,35.19,35.19,0,0,1,10.66-25.7A34.64,34.64,0,0,1,695.76,12.4Z"/><path class="cls-13" d="M760.68,70.47c4,0,8.36-3.3,8.36-7.28,0-6.53-8.77-7.44-13.72-9.16-8.73-3-16.44-10.14-16.44-19.88a21.84,21.84,0,0,1,43.46-3l-14.28,3a7.26,7.26,0,0,0-14.52,0c0,6.45,8.16,8.16,13.13,9.64,9,2.6,17,9.49,17,19.45,0,12.07-10.83,21.82-22.88,21.82-11.08,0-21.08-8.12-22.71-18.78l14.28-3c0,4,4.35,7.25,8.38,7.25Z"/><path class="cls-2" d="M139.8,33.13s-10.92,14.3-13.65,29.18.9,24.22,12.9,24.22c20.85,0,24.48-9.21,32.26-9.63,10.92-.58,15.64,10.8,22.09,5.55,6.12-5,7.69-14,5-27.72s-10.92-30.94-20.59-37.36S156.42,12.7,139.8,33.13Z"/><path class="cls-2" d="M141,31.92s-10.92,14.3-13.65,29.18.9,24.22,12.9,24.22c20.85,0,24.48-9.21,32.27-9.63,10.91-.58,15.63,10.8,22.08,5.55,6.13-5,7.7-14,5-27.73S188.66,22.58,179,16.16,157.64,11.49,141,31.92Z"/><path class="cls-2" d="M142.22,30.71S131.3,45,128.57,59.89s.9,24.22,12.91,24.22c20.84,0,24.47-9.21,32.26-9.63,10.92-.58,15.63,10.8,22.08,5.54,6.13-5,7.7-14,5-27.72S189.87,21.37,180.19,15,158.85,10.28,142.22,30.71Z"/><path class="cls-14" d="M143.43,29.49s-10.92,14.3-13.65,29.19.9,24.22,12.91,24.22c20.84,0,24.48-9.22,32.26-9.63,10.92-.59,15.63,10.79,22.09,5.54,6.12-5,7.69-14,5-27.72s-10.92-30.93-20.6-37.36S160.06,9.07,143.43,29.49Z"/><path class="cls-2" d="M152.6,24.31a138.45,138.45,0,0,0-11.55,15.4c-4.25,6.85,2.62,13.28,11,13.28,14.61,0,17.16-5,22.61-5.18,7.65-.31,11,5.8,15.48,3,4.29-2.68,5.39-7.52,3.48-14.88S186,19.3,179.21,15.85,164.26,13.34,152.6,24.31Z"/><path class="cls-2" d="M140.29,53.46s-3.12-1.51-4.77-.57c-2.28,1.29-2.7,4-3.56,9.93s-.12,14.4,6.25,15.84,15.18.87,19.23-1.87,7.47-13.68,14.08-16.56,7.35-3.89,7-5.9-3.8-5-9.06-1.59a34.77,34.77,0,0,1-17,5.33C147.39,58.22,142.86,54.76,140.29,53.46Z"/><path class="cls-2" d="M175,60.8s-5.8,1.77-7.06,6.37,2.39,4.3,6.17,2.52,7.32-.15,10.34,1.63,7.19,4.75,10.21,3,5-7,5.17-12.16-1-11-3.15-11.27c-4-.44-4.43,4.83-8.32,4C179.88,53.09,184.17,59.31,175,60.8Z"/><path class="cls-15" d="M178.43,26c-1.42-5.33-10.16-4.84-14.28-1.21s-3.63,11.13,1.94,12.58S181.33,36.85,178.43,26Z"/><path class="cls-2" d="M177.85,26.38c-1.34-5-9.6-4.57-13.49-1.14a7.08,7.08,0,0,0-1.12,1.27c4.09-2.94,11.55-3.11,12.83,1.66.92,3.47.49,6-.68,7.72C177.77,34.26,179.16,31.28,177.85,26.38Z"/><path class="cls-16" d="M64.54,12.8V27.15H35.77V41.58H57.35V55.92H35.77V84.65H21.38V12.8Z"/><path class="cls-16" d="M87.67,13V70.26h28.77v14.3H73.28V13Z"/><path class="cls-16" d="M235.52,86.16,203.24,13h15.23l17,39.21L252.53,13h15.4Z"/><path class="cls-16" d="M329.38,23.11a35,35,0,0,1,10.7,25.7,34.8,34.8,0,0,1-10.7,25.67,36.44,36.44,0,0,1-51.33,0A35,35,0,0,1,267.4,48.81a35.22,35.22,0,0,1,10.65-25.7,36.11,36.11,0,0,1,51.33,0ZM288.31,33.32a21.19,21.19,0,0,0-6.39,15.4,21.8,21.8,0,0,0,43.6,0,21,21,0,0,0-6.44-15.4,21.69,21.69,0,0,0-30.77,0Z"/><path class="cls-16" d="M392.16,56.27V13h14.48V56.32a29,29,0,0,1-57.9,0V13h14.47V56.27a14.48,14.48,0,0,0,29,0Z"/><path class="cls-16" d="M418,13H441.4a26.31,26.31,0,0,1,18.74,7.28c4.35,4.36,6.92,8.34,6.92,16.25v1.87A23.16,23.16,0,0,1,462.53,52,16.27,16.27,0,0,1,454,58.63l16.65,25.93H453L432.47,52.9V84.56H418.09Zm34.19,24a9.62,9.62,0,0,0-2.84-6.88c-1.87-1.82-5.41-2.85-8.88-2.85h-8.08V47H438v0h4.79C448,47,452.23,42.41,452.23,37Z"/><path class="cls-16" d="M520.3,13V44.64L538.63,13h16.61L534.06,49.35l24.6,35.21h-17.5l-20.86-30v30H506V13Z"/><path class="cls-16" d="M567.4,13h14.39V84.56H567.4Z"/><path class="cls-16" d="M636.31,52.54V12.8h14.43V86L607.58,44.91V84.65H593.19V11.47Z"/><path class="cls-16" d="M695.8,12.54a36.58,36.58,0,0,1,25.71,10.61L711.25,33.41A21.13,21.13,0,0,0,695.89,27a20.74,20.74,0,0,0-15.36,6.44,21,21,0,0,0-6.4,15.4,21,21,0,0,0,6.4,15.41,20.76,20.76,0,0,0,15.36,6.4,21.74,21.74,0,0,0,19.63-12.53H695.09V44.37h36.77c1,13.38-3.37,23.09-10.44,30.11a35.16,35.16,0,0,1-25.66,10.61,34.72,34.72,0,0,1-25.62-10.61,34.79,34.79,0,0,1-10.66-25.67,35.19,35.19,0,0,1,10.66-25.7A34.64,34.64,0,0,1,695.76,12.4Z"/><path class="cls-16" d="M760.68,70.47c4,0,8.36-3.3,8.36-7.28,0-6.53-8.77-7.44-13.72-9.16-8.73-3-16.44-10.14-16.44-19.88a21.84,21.84,0,0,1,43.46-3l-14.28,3a7.26,7.26,0,0,0-14.52,0c0,6.45,8.16,8.16,13.13,9.64,9,2.6,17,9.49,17,19.45,0,12.07-10.83,21.82-22.88,21.82-11.08,0-21.08-8.12-22.71-18.78l14.28-3c0,4,4.35,7.25,8.38,7.25Z"/><path class="cls-2" d="M17.49,454.36V505.5H43.18v12.77H4.65V454.36Z"/><path class="cls-2" d="M51.26,454.36H64.1v63.91H51.26Z"/><path class="cls-2" d="M113.09,454.2V467H87.4v12.88h19.27V492.7H87.4v25.65H74.56V454.2Z"/><path class="cls-2" d="M159.7,454.2V467H134v12.88h19.27V492.7H134v12.88H159.7v12.77H121.17V454.2Z"/><path class="cls-2" d="M185.58,505.69c3.55,0,7.47-2.95,7.47-6.5,0-5.83-7.83-6.65-12.25-8.18-7.8-2.65-14.68-9.05-14.68-17.75a19.5,19.5,0,0,1,38.81-2.7l-12.76,2.7a6.48,6.48,0,1,0-13,0c0,5.75,7.28,7.29,11.72,8.6,8.07,2.33,15.18,8.47,15.18,17.37,0,10.78-9.67,19.48-20.43,19.48-9.88,0-18.82-7.25-20.27-16.77l12.75-2.71c0,3.57,3.88,6.47,7.48,6.47Z"/><path class="cls-2" d="M256.13,454.36v12.73h-15.7v51.18H227.55V467.09H211.81V454.36Z"/><path class="cls-2" d="M276.34,454.36,288,476.52l11.66-22.16H314.2l-19.83,36.51v27.4H281.61v-27.4l-19.78-36.51Z"/><path class="cls-2" d="M335.12,454.36V505.5H360.8v12.77H322.27V454.36Z"/><path class="cls-2" d="M407.41,454.2V467H381.73v12.88H401V492.7H381.73v12.88h25.68v12.77H368.88V454.2Z"/><path class="cls-2" d="M458.3,454.36V505.5H484v12.77H445.45V454.36Z"/><path class="cls-2" d="M542.32,463.4a32.26,32.26,0,1,1-22.91-9.55A31.3,31.3,0,0,1,542.32,463.4Zm-36.67,9.12A19.44,19.44,0,0,0,533.13,500a19.44,19.44,0,1,0-27.48-27.51Z"/><path class="cls-2" d="M658,489.68V454.2h12.89v65.37l-38.54-36.7v35.48H619.5V453Z"/><path class="cls-2" d="M711.38,454a32.61,32.61,0,0,1,23,9.47l-9.15,9.16a18.92,18.92,0,0,0-13.72-5.75A19.55,19.55,0,0,0,692,486.35a18.77,18.77,0,0,0,5.7,13.76,18.54,18.54,0,0,0,13.72,5.71A19.37,19.37,0,0,0,729,494.64H710.75V482.39h32.82c.92,11.94-3,20.61-9.31,26.88a31.41,31.41,0,0,1-22.92,9.47A32.42,32.42,0,0,1,679,486.35a31.44,31.44,0,0,1,9.52-23,30.94,30.94,0,0,1,22.87-9.55Z"/><path class="cls-2" d="M790.3,454.2V467H764.61v12.88h19.27V492.7H764.61v12.88H790.3v12.77H751.77V454.2Z"/><path class="cls-2" d="M607.66,456.44l1.57-2H555.36l1.57,2c.15.2,15.68,20.33,18,23.85,2.15,3.3,3.05,6.51,3.05,17.84a36.91,36.91,0,0,1-.78,8.46,7.1,7.1,0,0,1-3,4.21c-2.54,1.71-7.26,4.85-8.51,5.53l-4.4,2.38h42l-4.4-2.38c-1.34-.72-6-3.87-8.52-5.54a7.07,7.07,0,0,1-2.93-4.15,35.83,35.83,0,0,1-.8-8.51c0-11.33.89-14.54,3.05-17.84C592,476.77,607.5,456.64,607.66,456.44Zm-22.52,22a19.05,19.05,0,0,0-2.84,7.15,19.06,19.06,0,0,0-2.85-7.15c-1.42-2.18-14.27-19.24-14.27-19.24a50.26,50.26,0,0,0,6.39.13c.68,0,1.08,0,1.08,0,4.66-.15,9.43-.34,14.23,1.31,3.54,1.23,6.65,2.65,9.33,3.1C596.21,463.73,586.18,476.87,585.14,478.46Z"/><path class="cls-2" d="M18.76,453.1v51.14H44.44V517H5.91V453.1Z"/><path class="cls-2" d="M52.52,453.1H65.36V517H52.52Z"/><path class="cls-2" d="M114.35,452.94v12.8H88.66v12.89h19.27v12.8H88.66v25.65H75.82V452.94Z"/><path class="cls-2" d="M161,452.94v12.8H135.27v12.89h19.27v12.8H135.27v12.89H161v12.76H122.43V452.94Z"/><path class="cls-2" d="M186.85,504.42c3.54,0,7.46-2.94,7.46-6.49,0-5.83-7.83-6.65-12.25-8.18-7.79-2.66-14.67-9.05-14.67-17.75a19.5,19.5,0,0,1,38.8-2.7L193.44,472a6.49,6.49,0,0,0-13,0c0,5.76,7.29,7.29,11.73,8.61,8.06,2.33,15.17,8.47,15.17,17.37,0,10.77-9.67,19.48-20.43,19.48-9.88,0-18.82-7.25-20.27-16.77L179.42,498c0,3.56,3.88,6.47,7.49,6.47Z"/><path class="cls-2" d="M257.39,453.1v12.72h-15.7V517H228.81V465.82H213.07V453.1Z"/><path class="cls-2" d="M277.6,453.1l11.65,22.16,11.66-22.16h14.55l-19.82,36.51V517H282.87V489.61L263.09,453.1Z"/><path class="cls-2" d="M336.38,453.1v51.14h25.69V517H323.53V453.1Z"/><path class="cls-2" d="M408.68,452.94v12.8H383v12.89h19.26v12.8H383v12.89h25.69v12.76H370.14V452.94Z"/><path class="cls-2" d="M459.56,453.1v51.14h25.69V517H446.72V453.1Z"/><path class="cls-2" d="M543.59,462.14a32.24,32.24,0,1,1-22.92-9.56A31.29,31.29,0,0,1,543.59,462.14Zm-36.67,9.12a19.44,19.44,0,0,0,27.47,27.51,19.44,19.44,0,1,0-27.47-27.51Z"/><path class="cls-2" d="M659.26,488.42V452.94h12.88v65.37L633.61,481.6v35.48H620.76V451.75Z"/><path class="cls-2" d="M712.64,452.7a32.64,32.64,0,0,1,23,9.48l-9.16,9.15a18.89,18.89,0,0,0-13.72-5.74A18.55,18.55,0,0,0,699,471.33a19.43,19.43,0,0,0,0,27.52,18.54,18.54,0,0,0,13.71,5.71,19.41,19.41,0,0,0,17.53-11.18H712V481.13h32.82c.92,11.94-3,20.61-9.31,26.87a31.39,31.39,0,0,1-22.92,9.48,32.42,32.42,0,0,1-32.38-32.39,31.43,31.43,0,0,1,9.51-22.95,31,31,0,0,1,22.87-9.56Z"/><path class="cls-2" d="M791.56,452.94v12.8H765.87v12.89h19.27v12.8H765.87v12.89h25.69v12.76H753V452.94Z"/><path class="cls-2" d="M608.92,455.18l1.57-2H556.62l1.57,2c.16.2,15.68,20.33,18,23.85,2.16,3.3,3.05,6.5,3.05,17.84a37,37,0,0,1-.78,8.46,7.11,7.11,0,0,1-2.95,4.2c-2.55,1.71-7.27,4.86-8.52,5.54l-4.4,2.37h42l-4.41-2.37c-1.34-.73-6-3.88-8.52-5.55a7.06,7.06,0,0,1-2.93-4.14,36.38,36.38,0,0,1-.8-8.51c0-11.34.9-14.54,3.05-17.84C593.24,475.51,608.77,455.38,608.92,455.18Zm-22.52,22a19.05,19.05,0,0,0-2.84,7.15,19.05,19.05,0,0,0-2.84-7.15C579.3,475,566.44,458,566.44,458a48.58,48.58,0,0,0,6.4.14c.67,0,1.07,0,1.07,0,4.66-.15,9.44-.34,14.23,1.31,3.54,1.22,6.65,2.64,9.33,3.1C597.47,462.47,587.44,475.61,586.4,477.2Z"/><path class="cls-2" d="M20,451.84V503H45.71v12.76H7.17v-63.9Z"/><path class="cls-2" d="M53.78,451.84H66.63v63.9H53.78Z"/><path class="cls-2" d="M115.62,451.68v12.8H89.93v12.89h19.26v12.8H89.93v25.65H77.08V451.68Z"/><path class="cls-2" d="M162.23,451.68v12.8H136.54v12.89H155.8v12.8H136.54v12.88h25.69v12.77H123.69V451.68Z"/><path class="cls-2" d="M188.11,503.16c3.55,0,7.46-3,7.46-6.49,0-5.84-7.83-6.65-12.25-8.18-7.79-2.66-14.67-9.05-14.67-17.76a19.5,19.5,0,0,1,38.8-2.69l-12.75,2.69a6.49,6.49,0,0,0-13,0c0,5.76,7.29,7.29,11.73,8.61,8.06,2.32,15.18,8.47,15.18,17.36,0,10.78-9.68,19.48-20.43,19.48-9.89,0-18.82-7.25-20.28-16.76l12.76-2.72c0,3.57,3.87,6.48,7.48,6.48Z"/><path class="cls-2" d="M258.65,451.84v12.72H243v51.18H230.07V464.56H214.33V451.84Z"/><path class="cls-2" d="M278.86,451.84,290.52,474l11.65-22.16h14.55L296.9,488.35v27.39H284.13V488.35l-19.78-36.51Z"/><path class="cls-2" d="M337.64,451.84V503h25.69v12.76H324.8v-63.9Z"/><path class="cls-2" d="M409.94,451.68v12.8H384.25v12.89h19.27v12.8H384.25v12.88h25.69v12.77H371.41V451.68Z"/><path class="cls-2" d="M460.82,451.84V503h25.69v12.76H448v-63.9Z"/><path class="cls-2" d="M544.85,460.87a32.27,32.27,0,1,1-22.91-9.55A31.3,31.3,0,0,1,544.85,460.87ZM508.18,470a19,19,0,0,0-5.71,13.76,19.45,19.45,0,0,0,33.18,13.75,18.55,18.55,0,0,0,5.75-13.75A19.45,19.45,0,0,0,508.18,470Z"/><path class="cls-2" d="M660.52,487.16V451.68H673.4v65.37l-38.53-36.71v35.48H622V450.49Z"/><path class="cls-2" d="M713.91,451.44a32.67,32.67,0,0,1,23,9.47l-9.16,9.16A18.88,18.88,0,0,0,714,464.32a19.49,19.49,0,0,0,0,39,19.39,19.39,0,0,0,17.52-11.18H713.27V479.86H746.1c.91,11.95-3,20.62-9.32,26.88a31.38,31.38,0,0,1-22.91,9.48,32.42,32.42,0,0,1-32.39-32.39,31.47,31.47,0,0,1,9.51-23,31,31,0,0,1,22.88-9.55Z"/><path class="cls-2" d="M792.83,451.68v12.8H767.14v12.89H786.4v12.8H767.14v12.88h25.69v12.77H754.29V451.68Z"/><path class="cls-2" d="M610.19,453.91l1.56-2H557.88l1.57,2c.16.21,15.68,20.33,18,23.85,2.15,3.3,3.05,6.51,3.05,17.84a36.2,36.2,0,0,1-.79,8.46,7,7,0,0,1-3,4.21c-2.55,1.71-7.26,4.86-8.52,5.54l-4.4,2.37h42l-4.4-2.37c-1.34-.73-6-3.88-8.53-5.55a7.09,7.09,0,0,1-2.93-4.15,36.31,36.31,0,0,1-.8-8.51c0-11.33.9-14.54,3.05-17.84C594.51,474.24,610,454.12,610.19,453.91Zm-22.52,22a19,19,0,0,0-2.85,7.14,18.84,18.84,0,0,0-2.84-7.14c-1.42-2.18-14.28-19.25-14.28-19.25a48.62,48.62,0,0,0,6.4.14c.68,0,1.08,0,1.08,0,4.66-.14,9.43-.34,14.22,1.32,3.55,1.22,6.66,2.64,9.33,3.09C598.73,461.2,588.7,474.35,587.67,475.94Z"/><path class="cls-2" d="M21.28,450.57v51.14H47v12.77H8.44V450.57Z"/><path class="cls-2" d="M55.05,450.57H67.89v63.91H55.05Z"/><path class="cls-2" d="M116.88,450.41v12.81H91.19V476.1h19.27v12.81H91.19v25.65H78.35V450.41Z"/><path class="cls-2" d="M163.49,450.41v12.81H137.8V476.1h19.27v12.81H137.8v12.88h25.69v12.77H125V450.41Z"/><path class="cls-2" d="M189.37,501.9c3.55,0,7.46-2.95,7.46-6.5,0-5.83-7.83-6.64-12.25-8.18-7.79-2.65-14.67-9.05-14.67-17.75a19.5,19.5,0,0,1,38.81-2.69L196,469.47a6.48,6.48,0,0,0-13,0c0,5.75,7.28,7.29,11.72,8.6,8.07,2.33,15.18,8.47,15.18,17.37,0,10.78-9.67,19.48-20.43,19.48-9.89,0-18.82-7.25-20.27-16.76L182,495.48c0,3.57,3.88,6.47,7.48,6.47Z"/><path class="cls-2" d="M259.92,450.57V463.3h-15.7v51.18H231.34V463.3H215.6V450.57Z"/><path class="cls-2" d="M280.12,450.57l11.66,22.16,11.66-22.16H318l-19.82,36.51v27.4H285.4v-27.4l-19.78-36.51Z"/><path class="cls-2" d="M338.9,450.57v51.14h25.69v12.77H326.06V450.57Z"/><path class="cls-2" d="M411.2,450.41v12.81H385.51V476.1h19.27v12.81H385.51v12.88H411.2v12.77H372.67V450.41Z"/><path class="cls-2" d="M462.09,450.57v51.14h25.69v12.77H449.24V450.57Z"/><path class="cls-2" d="M546.11,459.61a32.26,32.26,0,1,1-22.91-9.55A31.3,31.3,0,0,1,546.11,459.61Zm-36.67,9.12a19.45,19.45,0,0,0,0,27.51,19.47,19.47,0,1,0,0-27.51Z"/><path class="cls-2" d="M661.78,485.89V450.41h12.89v65.38l-38.54-36.71v35.48H623.29V449.22Z"/><path class="cls-2" d="M715.17,450.18a32.61,32.61,0,0,1,23,9.47L729,468.81a18.92,18.92,0,0,0-13.72-5.75,18.57,18.57,0,0,0-13.72,5.75,19.42,19.42,0,0,0,0,27.51A18.54,18.54,0,0,0,715.25,502a19.39,19.39,0,0,0,17.52-11.18H714.54V478.6h32.82c.91,11.94-3,20.61-9.32,26.88A31.34,31.34,0,0,1,715.13,515a32.42,32.42,0,0,1-32.39-32.39,31.44,31.44,0,0,1,9.52-22.95,30.94,30.94,0,0,1,22.87-9.55Z"/><path class="cls-2" d="M794.09,450.41v12.81H768.4V476.1h19.27v12.81H768.4v12.88h25.69v12.77H755.56V450.41Z"/><path class="cls-2" d="M611.45,452.65l1.57-2H559.15l1.56,2c.16.2,15.69,20.33,18,23.85,2.15,3.3,3,6.51,3,17.84a36.91,36.91,0,0,1-.78,8.46,7.07,7.07,0,0,1-3,4.21c-2.54,1.71-7.26,4.85-8.52,5.53l-4.4,2.38h42l-4.4-2.38c-1.34-.72-6-3.87-8.52-5.54a7,7,0,0,1-2.93-4.15,35.7,35.7,0,0,1-.81-8.51c0-11.33.9-14.54,3.05-17.84C595.77,473,611.29,452.85,611.45,452.65Zm-22.52,22a18.89,18.89,0,0,0-2.84,7.15,19.06,19.06,0,0,0-2.85-7.15c-1.42-2.18-14.27-19.24-14.27-19.24a50.26,50.26,0,0,0,6.39.13c.68,0,1.08,0,1.08,0,4.66-.15,9.43-.34,14.23,1.31,3.54,1.23,6.65,2.65,9.33,3.1C600,459.94,590,473.08,588.93,474.67Z"/><path class="cls-17" d="M22.54,449.31v51.14H48.23v12.76H9.7v-63.9Z"/><path class="cls-18" d="M56.31,449.31H69.15v63.9H56.31Z"/><path class="cls-19" d="M118.14,449.15V462H92.45v12.88h19.27v12.8H92.45v25.65H79.61V449.15Z"/><path class="cls-20" d="M164.75,449.15V462H139.06v12.88h19.27v12.8H139.06v12.89h25.69v12.76H126.22V449.15Z"/><path class="cls-21" d="M190.64,500.63c3.54,0,7.46-2.94,7.46-6.49,0-5.83-7.83-6.65-12.25-8.18-7.79-2.65-14.67-9-14.67-17.75a19.5,19.5,0,0,1,38.8-2.7l-12.75,2.7a6.49,6.49,0,0,0-13,0c0,5.75,7.29,7.28,11.73,8.6,8.06,2.33,15.17,8.47,15.17,17.37,0,10.78-9.67,19.48-20.43,19.48-9.88,0-18.82-7.25-20.27-16.77l12.75-2.71c0,3.56,3.88,6.47,7.48,6.47Z"/><path class="cls-22" d="M261.18,449.31V462h-15.7v51.17H232.6V462H216.86V449.31Z"/><path class="cls-23" d="M281.39,449.31,293,471.47l11.66-22.16h14.55l-19.82,36.51v27.39H286.66V485.82l-19.78-36.51Z"/><path class="cls-24" d="M340.17,449.31v51.14h25.69v12.76H327.32v-63.9Z"/><path class="cls-25" d="M412.47,449.15V462H386.78v12.88H406v12.8H386.78v12.89h25.69v12.76H373.93V449.15Z"/><path class="cls-26" d="M463.35,449.31v51.14H489v12.76H450.51v-63.9Z"/><path class="cls-27" d="M547.38,458.35a32.24,32.24,0,1,1-22.92-9.56A31.29,31.29,0,0,1,547.38,458.35Zm-36.67,9.12A19.44,19.44,0,0,0,538.18,495a19.44,19.44,0,1,0-27.47-27.51Z"/><path class="cls-28" d="M663,484.63V449.15h12.89v65.37L637.4,477.81v35.48H624.55V448Z"/><path class="cls-29" d="M716.43,448.91a32.66,32.66,0,0,1,23,9.48l-9.16,9.16a18.88,18.88,0,0,0-13.72-5.75,18.52,18.52,0,0,0-13.71,5.75,19.47,19.47,0,0,0,13.71,33.22A19.38,19.38,0,0,0,734,489.59H715.8V477.34h32.82c.92,11.94-3,20.61-9.31,26.88a31.41,31.41,0,0,1-22.92,9.47A32.42,32.42,0,0,1,684,481.3a31.46,31.46,0,0,1,9.52-22.95,31,31,0,0,1,22.87-9.56Z"/><path class="cls-30" d="M795.35,449.15V462H769.66v12.88h19.27v12.8H769.66v12.89h25.69v12.76H756.82V449.15Z"/><path class="cls-31" d="M612.71,451.39l1.57-2H560.41l1.57,2c.15.2,15.68,20.33,18,23.85,2.15,3.3,3,6.5,3,17.84a37,37,0,0,1-.78,8.46,7.11,7.11,0,0,1-3,4.2c-2.55,1.71-7.27,4.86-8.52,5.54l-4.4,2.37h42l-4.41-2.37c-1.34-.72-6-3.88-8.52-5.55a7.06,7.06,0,0,1-2.93-4.14,36.38,36.38,0,0,1-.8-8.51c0-11.34.9-14.54,3-17.84C597,471.72,612.56,451.59,612.71,451.39Zm-22.52,22a19.05,19.05,0,0,0-2.84,7.15,19.22,19.22,0,0,0-2.84-7.15c-1.43-2.18-14.28-19.24-14.28-19.24a50.38,50.38,0,0,0,6.4.13c.67,0,1.07,0,1.07,0,4.66-.15,9.43-.34,14.23,1.31,3.54,1.23,6.65,2.64,9.33,3.1C601.26,458.68,591.23,471.82,590.19,473.41Z"/><path class="cls-16" d="M22.54,449.31v51.14H48.23v12.76H9.7v-63.9Z"/><path class="cls-16" d="M56.31,449.31H69.15v63.9H56.31Z"/><path class="cls-16" d="M118.14,449.15V462H92.45v12.88h19.27v12.8H92.45v25.65H79.61V449.15Z"/><path class="cls-16" d="M164.75,449.15V462H139.06v12.88h19.27v12.8H139.06v12.89h25.69v12.76H126.22V449.15Z"/><path class="cls-16" d="M190.64,500.63c3.54,0,7.46-2.94,7.46-6.49,0-5.83-7.83-6.65-12.25-8.18-7.79-2.65-14.67-9-14.67-17.75a19.5,19.5,0,0,1,38.8-2.7l-12.75,2.7a6.49,6.49,0,0,0-13,0c0,5.75,7.29,7.28,11.73,8.6,8.06,2.33,15.17,8.47,15.17,17.37,0,10.78-9.67,19.48-20.43,19.48-9.88,0-18.82-7.25-20.27-16.77l12.75-2.71c0,3.56,3.88,6.47,7.48,6.47Z"/><path class="cls-16" d="M261.18,449.31V462h-15.7v51.17H232.6V462H216.86V449.31Z"/><path class="cls-16" d="M281.39,449.31,293,471.47l11.66-22.16h14.55l-19.82,36.51v27.39H286.66V485.82l-19.78-36.51Z"/><path class="cls-16" d="M340.17,449.31v51.14h25.69v12.76H327.32v-63.9Z"/><path class="cls-16" d="M412.47,449.15V462H386.78v12.88H406v12.8H386.78v12.89h25.69v12.76H373.93V449.15Z"/><path class="cls-16" d="M463.35,449.31v51.14H489v12.76H450.51v-63.9Z"/><path class="cls-16" d="M547.38,458.35a32.24,32.24,0,1,1-22.92-9.56A31.29,31.29,0,0,1,547.38,458.35Zm-36.67,9.12A19.44,19.44,0,0,0,538.18,495a19.44,19.44,0,1,0-27.47-27.51Z"/><path class="cls-16" d="M663,484.63V449.15h12.89v65.37L637.4,477.81v35.48H624.55V448Z"/><path class="cls-16" d="M716.43,448.91a32.66,32.66,0,0,1,23,9.48l-9.16,9.16a18.88,18.88,0,0,0-13.72-5.75,18.52,18.52,0,0,0-13.71,5.75,19.47,19.47,0,0,0,13.71,33.22A19.38,19.38,0,0,0,734,489.59H715.8V477.34h32.82c.92,11.94-3,20.61-9.31,26.88a31.41,31.41,0,0,1-22.92,9.47A32.42,32.42,0,0,1,684,481.3a31.46,31.46,0,0,1,9.52-22.95,31,31,0,0,1,22.87-9.56Z"/><path class="cls-16" d="M795.35,449.15V462H769.66v12.88h19.27v12.8H769.66v12.89h25.69v12.76H756.82V449.15Z"/><path class="cls-16" d="M612.71,451.39l1.57-2H560.41l1.57,2c.15.2,15.68,20.33,18,23.85,2.15,3.3,3,6.5,3,17.84a37,37,0,0,1-.78,8.46,7.11,7.11,0,0,1-3,4.2c-2.55,1.71-7.27,4.86-8.52,5.54l-4.4,2.37h42l-4.41-2.37c-1.34-.72-6-3.88-8.52-5.55a7.06,7.06,0,0,1-2.93-4.14,36.38,36.38,0,0,1-.8-8.51c0-11.34.9-14.54,3-17.84C597,471.72,612.56,451.59,612.71,451.39Zm-22.52,22a19.05,19.05,0,0,0-2.84,7.15,19.22,19.22,0,0,0-2.84-7.15c-1.43-2.18-14.28-19.24-14.28-19.24a50.38,50.38,0,0,0,6.4.13c.67,0,1.07,0,1.07,0,4.66-.15,9.43-.34,14.23,1.31,3.54,1.23,6.65,2.64,9.33,3.1C601.26,458.68,591.23,471.82,590.19,473.41Z"/><line class="cls-32" x1="421.47" y1="295.21" x2="516.62" y2="390.35"/><line class="cls-32" x1="398.6" y1="331.68" x2="458.25" y2="391.34"/><line class="cls-32" x1="279.3" y1="331.68" x2="339.52" y2="391.91"/><polygon class="cls-33" points="361.05 256.68 227.64 391.82 572.27 391.82 478.04 295.96 472.07 312.6 444.78 298.79 361.05 256.68"/><polygon class="cls-34" points="573.44 389.92 484.49 300.45 484.49 316.19 563.34 395.04 573.18 395.04 573.44 389.92"/><path class="cls-35" d="M451.3,244c-3.87,41.81-37.93,25.55-43.35,56.51-27.87-44.12,14.71-57.29-7-102.19,5.42,27.87-54,50-24.77,108.39-13.94,1.55-44.91-15.49-45.68-47.23a120.7,120.7,0,0,0-2.91,13.9c1.65,2.77,3.25,5.56,4.75,8.41l-4.86,2.28c-.25-.62-.53-1.23-.79-1.84-2.41,41.57,23.49,68.61,65.74,68.61C458.9,350.83,461.36,292.76,451.3,244Z"/><line class="cls-32" x1="338.94" y1="331.68" x2="399.04" y2="391.78"/><line class="cls-32" x1="400.18" y1="391.77" x2="448.68" y2="343.27"/><polygon class="cls-36" points="225.77 389.92 284.55 330.62 284.55 346.37 235.87 395.04 226.03 395.04 225.77 389.92"/><line class="cls-33" x1="256.73" y1="366.05" x2="282.58" y2="391.91"/><line class="cls-32" x1="340.58" y1="391.73" x2="389.03" y2="343.27"/><line class="cls-32" x1="279.37" y1="391.66" x2="356.38" y2="314.65"/><ellipse class="cls-37" cx="393.96" cy="336.13" rx="111.25" ry="43.29"/><path class="cls-38" d="M508.8,266.79c5.49,23.33.11,30.07-11,39.11,19.9-29.51-16.46-43.91,19.9-78.91-68.61,10.3-93.27,112-48.67,120.12C514.29,355.3,535.56,318.25,508.8,266.79Z"/><path class="cls-39" d="M512.75,300.71c-9.58,7.66-13.41,16.29-25.87,15.33,17.12-36.22-13.76-41,13-79.44-37.73,19.9-66,88.31-35,105.67C488.22,355.3,510.83,341,512.75,300.71Z"/><path class="cls-40" d="M462.93,335.2c13,13,41.08,4.8,45.87-21.07-8.92,13-22.88,13.41-31.5,9.57,6.32-13.94,7.66-15.33,3.83-55.57C476.34,295,444.72,317,462.93,335.2Z"/><path class="cls-41" d="M340.57,186.33c-9.27,34.75,5,41,5.32,64.31-1.46-67.39,61.07-71.26,18.61-128.39,50.95,27.8,71.8,71.8,57.91,123.53,20.07-13.12,25.47-48.64,5.4-85.7,40.92,31.66,86,196.69-31.65,196.1C319.33,355.8,268.77,296.74,340.57,186.33Z"/><path class="cls-42" d="M330.53,232.66c-1.55,23.54,13.73,45.73,29.34,59.44-22.39-61,46.55-90.39,27.79-135.88,31.66,26.25,30.11,87.24,17,122,12.35-30.89,46.84-13.64,43.23-62.54,19.05,53,28,137.42-51.72,137.42C326.67,353.09,307.37,299.05,330.53,232.66Z"/><path class="cls-43" d="M331.3,259.68c.77,31.65,31.66,48.64,45.55,47.09C347.7,248.54,407,226.48,401.56,198.69c21.62,44.77-20.84,57.9,6.95,101.91,5.4-30.89,39.37-14.67,43.23-56.36,10,48.64,7.58,106.54-58.67,106.54C343.66,350.78,316.64,313.72,331.3,259.68Z"/><path class="cls-44" d="M284.91,269.82c-6.61,24.25-2.76,34,7.26,44.59-9.89-31.2,24.93-33,2.3-81.47,37.22,33.26,66.47,120.37,15.14,121.88C265.25,356.13,258.87,310.56,284.91,269.82Z"/><path class="cls-45" d="M278,303.68c6.88,9.19,8.32,17.91,19.83,20-3.38-37,13.72-27.94,10.8-66.67,18,30.6,42.63,91.09.09,95.21C291.1,353.9,270.26,340.58,278,303.68Z"/><path class="cls-46" d="M315.09,349.06c-14.83,8.75-35.48-8.83-33.74-33.39,6,11.06,14.63,18.61,23.34,17.17-5.27-12.56-3.44-28.84,9.58-51.24C305,305,346.06,330.8,315.09,349.06Z"/><line class="cls-33" x1="459.88" y1="391.73" x2="514.02" y2="337.58"/><line class="cls-33" x1="519.29" y1="391.66" x2="543.56" y2="367.39"/><path class="cls-14" d="M485.56,322.89c-.79-4.34-3.72-13.56-18-24.75-15.12-11.81-33.72-17.87-58.14-24.5-37.5-10.17-64.89-1.39-77.85,11.84-8.26,8.43-16.53,18.25-16.53,38.25,0,0-.74,10.49.28,16.72.66,4,4.43,17,20.12,21.7s42.77,5.6,57.77,2.89,33.41-8.14,56.59-6.45,33.26-5.78,34.62-10.68C486.22,341.34,486.45,327.85,485.56,322.89Z"/><path class="cls-2" d="M421.29,359.88c.45-5.05,1.5-17.16,1.5-21.38,0-5.37-.77-11.78-4.1-15.87s-3.59-7.94-7.17-4.36-5.12,6.15-7.17,6.66-5.64-.26-9.22,2.05-3.59,3.58-1,6.66,6.41,3.58,7.17,9.73c.71,5.63.41,15.93.35,20.18C407.65,362.3,414.18,360.91,421.29,359.88Z"/><path class="cls-47" d="M357.34,281c-6,8.36-7.54,24.23.39,30.88s16.94,13.33,23.85,7.69c0,0-1.48,4.58-4.56,5.35,0,0,10.63,4.53,14.73-.26,2.6-3,6.71-3.58,10-5.12s6.65-3.33,5.89-6.91-1.54-5.12-1.8-7.94-3.33-5.12-8.19-7.17-6.4,3.84-13.06,4.86a31.49,31.49,0,0,0,7.94-9.22c3.07-5.63,2.56-6.14,4.61-8.19s4.85-8.69,2.31-14.07a106.73,106.73,0,0,0-28.28-1.67A40.72,40.72,0,0,0,357.34,281Z"/><path class="cls-2" d="M393.51,345.53c0-3.18-1.2-7.79-4.53-9.84s-6.66-2.05-12.29-3.08a27.39,27.39,0,0,1-12.81-6.4c-3.07-2.56-5.63-7.94-7.42-6.66s-3.33,3.33-3.33,9.73-1.28,9.48,1,13.07a16.11,16.11,0,0,1,3.07,9.73c0,2.85-.1,10.76-.15,13.89,13.05,1.17,27.09.87,36.47-.82C393.54,361,393.51,348.18,393.51,345.53Z"/><path class="cls-48" d="M322.91,328.26c4.1-2.31,8.7-9.22,9.47-13.06s-.77-8.45-.77-8.45,5.64,7.42,10,5.89,4.61-6.92,4.87-12.3a37.15,37.15,0,0,1,4.86-16.13c2.47-3.94,4.53-11.75,4.68-12.34-10.83,3-19.3,7.95-24.9,13.7C322.85,294,315,303.33,315,323.43c0,0,0,.19,0,.53C315.93,325.41,319.41,330.23,322.91,328.26Z"/><path class="cls-2" d="M459.41,338.76c-.51-3.59-3.33-8.71-7.17-11.78s-4.61-1.28-10.25-2.82-11.26-4.35-13.06-4.35-5.12-.77-3.33,3.07,3.84,4.61,3.59,14.6c-.2,7.67.11,17.34.26,21.42a126.42,126.42,0,0,1,20.79-.24c3,.22,5.69.28,8.23.23C458.83,354.54,459.83,341.72,459.41,338.76Z"/><path class="cls-2" d="M349.29,345.42c0-3.07-1.8-4.1-1.54-10s3.33-14.85-1.54-15.88-7.17-1.28-10.5,3.08-7.68,8.19-7.94,15.62c-.22,6.61,1.54,15.52,1.93,21.37a31.9,31.9,0,0,0,6.18,2.62A91.12,91.12,0,0,0,348.77,365C348.89,360.91,349.29,348,349.29,345.42Z"/><path class="cls-49" d="M401.62,363.53c6-1.25,12.56-2.63,19.67-3.65.41-4.57,1.3-14.88,1.47-19.94-7.8,1.06-14.91,2.58-21.43,3.93C402,349.58,401.68,359.39,401.62,363.53Z"/><path class="cls-50" d="M317.59,327a26.08,26.08,0,0,1-2-6.28c-.19-1.16-.33-2.48-.44-3.85a65.36,65.36,0,0,0-.32,6.61v.18A16.19,16.19,0,0,0,317.59,327Z"/><path class="cls-50" d="M486.09,327.38c-.09-1.54-.22-2.91-.39-4a33.46,33.46,0,0,1-.89,4.84,6.46,6.46,0,0,1-.44,1.1A8,8,0,0,0,486.09,327.38Z"/><path class="cls-49" d="M349.29,345.42s0,0,0-.05a92.94,92.94,0,0,1-13.56-2.85,31.18,31.18,0,0,1-8-3.66c-.1,6.59,1.58,15.2,1.94,20.87a32.61,32.61,0,0,0,6,2.52,91.53,91.53,0,0,0,13,2.76C348.89,361,349.29,348,349.29,345.42Z"/><path class="cls-49" d="M459.44,339.14a82,82,0,0,1-9.27-.19,125.8,125.8,0,0,0-21,.26c-.11,7.35.16,15.92.3,19.7a125.6,125.6,0,0,1,20.72-.23q4.47.31,8.29.22C458.81,354.72,459.76,342.66,459.44,339.14Z"/><path class="cls-49" d="M393.51,345.53s0-.08,0-.11c-9.57,1.73-24,2-37.32.75a15.32,15.32,0,0,1,1,5.91c0,2.85-.1,10.78-.15,13.9,13.06,1.16,27.11.85,36.46-.84h0C393.54,360.93,393.51,348.18,393.51,345.53Z"/><path class="cls-51" d="M467.35,320.58c-5.64-2.82-10.25-3.08-14.86-6.92s-13.31-5.12-13.31-5.12,6.65-1.79,9.73-1,7.17-1,3.07-3.33-5.89-7.69-5.89-12c0,0,3.33,7.43,7.43,8.45,3.41.85,6.86-4.31,8.36-5.76h0s.23-.24.51-.49c-14.06-9.35-31.11-15.21-52.52-21-2-.55-4-1-6-1.48.08.43,1.18,6.69-.79,11.88-2.05,5.38-4.36,8.19-2.31,9.73s8.45.77,11,2.56,5.64,1.54,8.46,1.54,4.86,3.58,4.86,3.58a11.6,11.6,0,0,0-9-1c-4.87,1.54-5.64,6.91-4.1,8.45s7.17,5.89,13.06,5.38,11.78,2.56,16.39,4.61,7.68.51,10.5,3.58,5.89,7.94,11,11,11,1.53,11.78-1.8S473,323.39,467.35,320.58Z"/><path class="cls-2" d="M475,304.56a74.56,74.56,0,0,0-6.87-6l-.69-.53-.23.15c-1.24.94-8.9,6.81-9.37,9.63-.51,3.07,3.07,4.1,6.66,2.82s6.65-5.55,10.49-6Z"/><path class="cls-2" d="M485.68,322.8c-.59-3.27-2.09-8.95-8.82-16.32h0s-4.63,2.06-4.63,4.88.77,4.61,4.1,7.68,4.61,4.61,4.35,8.2,2.87,4.14,5.49.07A41.77,41.77,0,0,0,485.68,322.8Z"/><rect class="cls-52" x="224.98" y="388.87" width="350.03" height="13.64" rx="2.93"/><g class="cls-53"><path d="M470.16,28.78c-129.94-36-250.19,32-296.25,139.34-15.79,30.36-19.83,83-19.83,83s20.13-44.94,60.8-85.35c6.65-6.6,25.74-29.49,55.73-40.25,0,.1,0,.21.05.31a104.25,104.25,0,0,0,4.06,14.62,63.89,63.89,0,0,0,6.81,13.21,61.81,61.81,0,0,1-2-14.16,95.73,95.73,0,0,1,.95-14c.57-3.82,1.33-7.6,2.24-11.32,4.54-10.71,13.74-28.77,27.4-38.61C330.37,61,340.29,60.17,345.35,64.62s6.07,19.84,4.86,33.4a134.27,134.27,0,0,1-2.2,14.79c-1,3.94-2.26,7.85-3.69,11.7a97,97,0,0,1-5.94,12.72,61,61,0,0,1-8.58,11.43,64.06,64.06,0,0,0,12.35-8.27,104.62,104.62,0,0,0,10.61-10.85c1.81-2.17,3.55-4.41,5.22-6.7,7.59.27,17.19,1.2,24.41,3.92,14,5.26,26.92,10.73,48.58,28.13,0,0-4.25-5.83-8.43-11.37-4.42-5.85-4.53-12.71-1.89-19s18.21-35,47.56-35.62c0,0,8.5,6.88,6.68,23.68s-7.08,28.34-12.75,36.23c-2.41,3.35-5.36,7.25-8,10.63a11.17,11.17,0,0,0,1.2,14.93c6.82,6.46,19,17.75,22.49,27,0,0-3.58,17.64-19,38.49s-31.58,27.93-31.58,27.93,34.47-3.92,56.27-32c21.29-27.39,46.11-55.45,44.13-127.92,0,0,15.92,19.71,15.38,73.41s-5.13,70.17-5.67,77.72,4.32,15.66,3,28.88c-1,9.51-2.08,22.51-2.63,29.06a8.6,8.6,0,0,0,2.68,7l10.63,10a17.14,17.14,0,0,1,4,19.26l-17.84,41.44a23.67,23.67,0,0,1-14.42,13.17c-18.46,6-59.27,17.47-101.7,17.47-57.49,0-85-15.11-105-29.14,0,0,16.19,22.4,65,36.7,18.42,5.39,41.45,8,63,9.21,20.83,1.14,25,30.08,5.36,37a147.56,147.56,0,0,1-42.72,8.53c-60.72,2.7-91.75-.54-151.39-33.46-22.58-12.46-41-29.41-55.12-45.66A245.56,245.56,0,0,0,400,510.92c157.39,0,280.25-147.86,237.25-312.25A239.12,239.12,0,0,0,470.16,28.78Z"/><path d="M482.56,372.91S499.63,349,478,343.63C460.75,339.35,429.29,372,429.29,372S477.52,346.33,482.56,372.91Z"/><path d="M316.18,256.28s-3.14,19.91,6.29,28.3,28.31,5.24,33.55,1.05C356,285.63,330.92,282.23,316.18,256.28Z"/></g></g></g></svg>