<svg xmlns="http://www.w3.org/2000/svg" xmlns:xlink="http://www.w3.org/1999/xlink" viewBox="0 0 730 530"><defs><style>.cls-1{isolation:isolate;}.cls-11,.cls-13,.cls-14,.cls-17,.cls-2,.cls-5,.cls-8{mix-blend-mode:screen;}.cls-2{fill:url(#linear-gradient);}.cls-3{fill:url(#linear-gradient-2);}.cls-4{fill:url(#linear-gradient-3);}.cls-5{fill:url(#linear-gradient-4);}.cls-6{fill:url(#linear-gradient-5);}.cls-7{fill:url(#linear-gradient-6);}.cls-8{fill:url(#linear-gradient-7);}.cls-9{fill:url(#linear-gradient-8);}.cls-10{fill:url(#linear-gradient-9);}.cls-11{fill:url(#linear-gradient-10);}.cls-12{fill:#953208;}.cls-13{fill:url(#linear-gradient-11);}.cls-14{fill:url(#linear-gradient-12);}.cls-15{fill:#661a00;}.cls-16{fill:#a91b25;}.cls-17{fill:url(#linear-gradient-13);}.cls-18{opacity:0.05;}.cls-19{font-size:91px;font-family:SofiaProSemiBold, Sofia Pro;}.cls-20{letter-spacing:-0.03em;}.cls-21{letter-spacing:-0.02em;}.cls-22{font-size:82px;fill:#be222d;font-family:Billgates;}.cls-23{letter-spacing:-0.03em;}.cls-24{fill:#000;}</style><linearGradient id="linear-gradient" x1="360.98" y1="78.76" x2="360.98" y2="223.05" gradientUnits="userSpaceOnUse"><stop offset="0"/><stop offset="1" stop-color="#f4831f"/></linearGradient><linearGradient id="linear-gradient-2" x1="542.28" y1="153.97" x2="555.99" y2="240.29" gradientTransform="matrix(-1, 0, 0, 1, 996.83, 0)" gradientUnits="userSpaceOnUse"><stop offset="0" stop-color="#ed2f24"/><stop offset="1" stop-color="#fced09"/></linearGradient><linearGradient id="linear-gradient-3" x1="519.25" y1="134.75" x2="564.66" y2="227.78" xlink:href="#linear-gradient-2"/><linearGradient id="linear-gradient-4" x1="536.13" y1="160.37" x2="555.73" y2="227.15" gradientTransform="matrix(-1, 0, 0, 1, 996.83, 0)" xlink:href="#linear-gradient"/><linearGradient id="linear-gradient-5" x1="344.74" y1="82.02" x2="370.52" y2="244.35" gradientTransform="matrix(1, 0, 0, 1, 0, 0)" xlink:href="#linear-gradient-2"/><linearGradient id="linear-gradient-6" x1="360.92" y1="49.4" x2="360.92" y2="229.51" gradientTransform="matrix(1, 0, 0, 1, 0, 0)" xlink:href="#linear-gradient-2"/><linearGradient id="linear-gradient-7" x1="361.54" y1="79.17" x2="361.54" y2="223.06" xlink:href="#linear-gradient"/><linearGradient id="linear-gradient-8" x1="260.62" y1="166.93" x2="273.68" y2="249.19" gradientTransform="translate(73.87 -64.21) rotate(14.54)" xlink:href="#linear-gradient-2"/><linearGradient id="linear-gradient-9" x1="241.75" y1="159.69" x2="280.24" y2="238.53" gradientTransform="translate(73.87 -64.21) rotate(14.54)" xlink:href="#linear-gradient-2"/><linearGradient id="linear-gradient-10" x1="256.76" y1="174.41" x2="275.68" y2="238.91" gradientTransform="translate(73.87 -64.21) rotate(14.54)" xlink:href="#linear-gradient"/><linearGradient id="linear-gradient-11" x1="349.74" y1="172.32" x2="349.74" y2="215.54" gradientUnits="userSpaceOnUse"><stop offset="0" stop-color="#f4831f"/><stop offset="1" stop-color="#be222d" stop-opacity="0"/></linearGradient><linearGradient id="linear-gradient-12" x1="304.98" y1="204.57" x2="321.31" y2="179.12" gradientUnits="userSpaceOnUse"><stop offset="0" stop-color="#be222d" stop-opacity="0"/><stop offset="1" stop-color="#f4831f"/></linearGradient><linearGradient id="linear-gradient-13" x1="378.74" y1="171.29" x2="406.06" y2="205.64" xlink:href="#linear-gradient-11"/></defs><g class="cls-1"><g id="Layer_1" data-name="Layer 1"><path d="M486.76,200.92a61.49,61.49,0,0,1,.19,8c5.21,7.08,8.06,14.74,8.06,22.72a34.83,34.83,0,0,1-2.55,13l-10.86-15c-.53,1-1.11,1.92-1.72,2.84L490,249.33H470.33l-2.82-5a40.42,40.42,0,0,1-3.86,2l1.45,3H454.66l-4.47,1a18.37,18.37,0,0,1-2.58,2.77h19.31l7,14.34a106.82,106.82,0,0,1-17.76,10.93l-9.95-24.11a27,27,0,0,1-3.81,2.36l7.87,22.28H429.42l-5-17.83c-1.57.11-3.2.18-4.92.18h0l-.92,0,3.88,17.67H398.78l-2.71-17.8c-1.85.15-3.66.34-5.43.56l1.65,17.24H368l-.36-13.08-5.23,1-.33,12H338.72l1-10.44c-1.82,0-3.64-.07-5.44-.14l-1.61,10.58H309.52l2.87-13c-1.89-.37-3.68-.79-5.34-1.23l-4,14.27H280l8-22.56-.83.09c-1.28.14-2.47.23-3.64.27h-.45l-9,21.78a107.74,107.74,0,0,1-17.79-10.9l6.88-14.15a39.05,39.05,0,0,1-7.65-4.07H239.81l-.17-.31,6-10c-.45-.7-.88-1.41-1.28-2.14-.21-.4-.42-.8-.62-1.21l-6.35,8.44a34.81,34.81,0,0,1-2.38-12.5,35.64,35.64,0,0,1,3.92-16,66.25,66.25,0,0,1,.51-10.15c-6.18,8.19-9.42,17-9.42,26.14a39.61,39.61,0,0,0,3.43,16c.36,3.13,1.13,7.7,2.6,14.4,4.23,19.21,17.09,36.3,23.93,40.53s15-1.46,16.28-2.76a64.68,64.68,0,0,0,4.6-6.62s25.51,11.18,54.33,14.11a277.53,277.53,0,0,0,67.23-1.8c13.51-1.95,37.76-8,41.83-9.92s5-2.39,5-2.39.52,2.71,5.9,6.94,10.41,5.05,16.44.33a60.13,60.13,0,0,0,17.58-23.93,123.29,123.29,0,0,0,7.46-29A39.79,39.79,0,0,0,500,231.63C500,220.79,495.43,210.35,486.76,200.92ZM257.82,253.07l-6,10.75a60.2,60.2,0,0,1-9.64-10.75Zm185.66,30.8q-5.55,2.11-11.55,3.95l-1.11-3.95Zm-50.72,0,1.12,11.69a251.59,251.59,0,0,1-25.42,1.61l-.37-13.3Zm-84.33,0h23.48l-1.66,10.94A219.38,219.38,0,0,1,307,290.3Zm-6.8,0-1.3,4.62q-7.2-2.08-13.81-4.62Zm35.49,11.8,1.12-11.8h23.67l-.37,13.3C353.18,297.06,345,296.55,337.12,295.67Zm64.05-1.06-1.63-10.74h24l1.31,5.95A217.53,217.53,0,0,1,401.17,294.61Zm71.27-41.54h15.42a60.05,60.05,0,0,1-9.46,10.59Z"/><path class="cls-2" d="M416.83,141.43c-3.59,38.8-35.21,23.71-40.24,52.45-25.87-41,13.65-53.17-6.47-94.85,5,25.87-50.12,46.4-23,100.6-12.93,1.43-41.68-14.37-42.39-43.83a108.48,108.48,0,0,0-2.7,12.9c1.52,2.56,3,5.16,4.4,7.8l-4.51,2.11c-.23-.57-.49-1.13-.74-1.71-2.23,38.59,21.81,63.68,61,63.68C423.88,240.58,426.17,186.69,416.83,141.43Z"/><path class="cls-3" d="M470.2,162.59c5.1,21.65.1,27.91-10.19,36.29,18.47-27.38-15.28-40.75,18.47-73.23-63.69,9.55-86.58,104-45.18,111.48C475.3,244.74,495,210.35,470.2,162.59Z"/><path class="cls-4" d="M473.86,194.07c-8.89,7.11-12.45,15.12-24,14.23,15.89-33.62-12.77-38.07,12.07-73.73-35,18.46-61.29,82-32.48,98.07C451.09,244.74,472.08,231.42,473.86,194.07Z"/><path class="cls-5" d="M427.62,226.08c12.07,12.07,38.13,4.46,42.58-19.55C461.92,218.63,449,219,441,215.41c5.87-12.94,7.11-14.23,3.56-51.58C440.07,188.73,410.72,209.19,427.62,226.08Z"/><path class="cls-6" d="M314.05,87.91c-8.6,32.25,4.65,38.06,4.94,59.69C317.63,85,375.68,81.46,336.27,28.43c47.29,25.8,66.64,66.65,53.74,114.66,18.63-12.18,23.65-45.15,5-79.54,38,29.38,79.81,182.55-29.37,182C294.34,245.2,247.41,190.38,314.05,87.91Z"/><path class="cls-7" d="M304.73,130.91c-1.43,21.85,12.75,42.45,27.24,55.17-20.79-56.61,43.2-83.9,25.79-126.12,29.38,24.37,27.95,81,15.77,113.22,11.46-28.66,43.47-12.66,40.13-58,17.67,49.21,26,127.55-48,127.55C301.15,242.69,283.24,192.53,304.73,130.91Z"/><path class="cls-8" d="M305.45,156c.72,29.37,29.38,45.14,42.28,43.71-27.06-54,27.95-74.53,22.93-100.32,20.07,41.56-19.35,53.74,6.45,94.58,5-28.66,36.55-13.61,40.13-52.31,9.31,45.15,7,98.89-54.46,98.89C316.92,240.54,291.84,206.14,305.45,156Z"/><path class="cls-9" d="M262.39,165.4c-6.13,22.5-2.56,31.57,6.74,41.38-9.18-28.95,23.14-30.63,2.14-75.62,34.54,30.88,61.69,111.73,14,113.13C244.14,245.51,238.23,203.21,262.39,165.4Z"/><path class="cls-10" d="M256,196.83c6.38,8.53,7.73,16.62,18.41,18.53-3.14-34.34,12.73-25.93,10-61.88,16.71,28.4,39.56,84.55.08,88.37C268.13,243.44,248.8,231.08,256,196.83Z"/><path class="cls-11" d="M290.4,239c-13.76,8.11-32.92-8.2-31.31-31,5.6,10.27,13.57,17.28,21.66,15.94-4.89-11.66-3.19-26.76,8.89-47.56C281,198,319.15,222,290.4,239Z"/><path d="M343,260.59c-12.94,0-25.74-1.54-34.23-4.12-16.79-5.11-19.94-19.43-20.4-22.25-.95-5.86-.74-15.46-.73-15.87,0-18.86,7.29-27.91,15.41-36.24,9.87-10.13,26.39-15.94,45.3-15.94a109.19,109.19,0,0,1,28.63,4c22,6,39.5,12.24,53.48,23.22,14.75,11.58,16.4,20.8,16.95,23.83.91,5.06,1,17.66-.8,24-1.7,6.14-11.17,12.33-28.49,12.33h0c-1.95,0-4-.08-6.06-.23-2.54-.19-5.13-.28-7.7-.28-12.86,0-24,2.31-33.75,4.35-2.95.61-5.74,1.2-8.45,1.69A111.11,111.11,0,0,1,343,260.59Z"/><path d="M444,217.86c-.7-3.91-2.86-11.69-15.7-21.77-13.56-10.65-30.38-16.64-52.28-22.61-33.63-9.17-59-.92-70.62,11-7.4,7.59-14.44,15.93-14.44,34,0,0-.23,9.63.69,15.24.59,3.62,4,15.28,18,19.56s38.35,5,51.81,2.6,30-7.34,50.74-5.81,29.82-5.21,31.05-9.62C444.94,234.47,444.83,222.33,444,217.86Z"/><path class="cls-12" d="M386.72,250.79c.41-4.53,1.34-15.39,1.34-19.17,0-4.82-.68-10.56-3.67-14.24s-3.21-7.12-6.43-3.9-4.59,5.51-6.43,6-5-.23-8.27,1.84-3.21,3.21-.92,6,5.75,3.21,6.43,8.72c.64,5.05.37,14.29.32,18.1C374.49,253,380.35,251.71,386.72,250.79Z"/><path class="cls-12" d="M329.38,180.06c-5.36,7.5-6.77,21.73.35,27.7s15.19,12,21.39,6.9c0,0-1.34,4.1-4.09,4.79,0,0,9.53,4.06,13.2-.24,2.33-2.72,6-3.21,9-4.58s6-3,5.29-6.2-1.38-4.6-1.61-7.12-3-4.6-7.35-6.43-5.74,3.44-11.71,4.36A28.2,28.2,0,0,0,361,191c2.75-5.05,2.29-5.51,4.13-7.34s4.36-7.8,2.07-12.62a95.57,95.57,0,0,0-25.35-1.49A36.39,36.39,0,0,0,329.38,180.06Z"/><path class="cls-13" d="M355,217.78a13.91,13.91,0,0,1-1.44-.09,13.21,13.21,0,0,0,.84-2l2.21-7.73-7.6,4a4.72,4.72,0,0,1-3.1,1.14h0c-4.41,0-10.61-5.21-13.95-8-5.38-4.52-4.35-16.68.24-23.1a33.23,33.23,0,0,1,10.62-9.19c2-.14,4-.21,6-.21A96.53,96.53,0,0,1,364.58,174a10,10,0,0,1-1.89,7.21,11.57,11.57,0,0,0-2.7,4.09c-.41.89-1,2.11-2,4a52.75,52.75,0,0,1-5.79,8.28l-6.74,7.06c3.55-.55,14.78-4.33,16.46-5.59a6.86,6.86,0,0,1,1.91-1.19,1.2,1.2,0,0,1,.43.12c5.09,2.14,5.27,3.58,5.27,3.59a24.26,24.26,0,0,0,.93,4.59c.24.87.49,1.77.74,2.94.11.53-.93,1.26-3.37,2.39-.74.34-1.58.63-2.48.95-2.42.84-5.45,1.9-7.69,4.52A3.74,3.74,0,0,1,355,217.78Z"/><path class="cls-12" d="M361.81,237.92c0-2.85-1.07-7-4.06-8.83s-6-1.83-11-2.75a24.62,24.62,0,0,1-11.48-5.74c-2.76-2.3-5.06-7.12-6.66-6s-3,3-3,8.72-1.15,8.5.92,11.72a14.46,14.46,0,0,1,2.76,8.72c0,2.56-.1,9.66-.14,12.46,11.7,1.05,24.29.78,32.7-.73C361.84,251.75,361.81,240.3,361.81,237.92Z"/><path class="cls-12" d="M298.5,222.43c3.68-2.06,7.81-8.26,8.5-11.71a17.44,17.44,0,0,0-.69-7.58s5.05,6.66,9,5.29,4.13-6.2,4.36-11A33.41,33.41,0,0,1,324,182.94c2.21-3.54,4.06-10.54,4.2-11.07-9.72,2.67-17.31,7.13-22.33,12.28-7.41,7.6-14.45,15.93-14.45,34,0,0,0,.17,0,.47C292.25,219.88,295.37,224.2,298.5,222.43Z"/><path class="cls-14" d="M296.9,219.42a6,6,0,0,1-2.08-1.91c.17-16,6.2-23.52,13.48-31a41.74,41.74,0,0,1,14.62-9.32,23.46,23.46,0,0,1-1.82,3.92,36.37,36.37,0,0,0-4.87,16.11c-.21,4.31-.48,7.4-2.1,8-1,0-3.48-2-5.11-4.13l-5.94,3.14a13.86,13.86,0,0,1,.58,5.83C303.14,212.63,299.58,217.86,296.9,219.42Z"/><path class="cls-12" d="M420.9,231.85a18.68,18.68,0,0,0-6.43-10.56c-3.44-2.76-4.13-1.15-9.18-2.53s-10.11-3.9-11.71-3.9-4.6-.69-3,2.75,3.45,4.14,3.22,13.09c-.18,6.88.09,15.55.23,19.21a112.73,112.73,0,0,1,18.65-.21c2.64.19,5.1.25,7.37.2C420.38,246,421.28,234.51,420.9,231.85Z"/><path class="cls-12" d="M322.16,237.82c0-2.75-1.61-3.67-1.38-9s3-13.31-1.38-14.23-6.43-1.15-9.41,2.75-6.89,7.35-7.12,14c-.21,5.93,1.37,13.92,1.72,19.16a28,28,0,0,0,5.55,2.35,80.76,80.76,0,0,0,11.55,2.47C321.81,251.71,322.16,240.14,322.16,237.82Z"/><path d="M335.67,177.66a33,33,0,0,0-4.56,7.43,17.79,17.79,0,0,0-1.69,4.1c-.07.36-.17.73-.22,1.1s-.07.74-.08,1.11a12.88,12.88,0,0,0,.06,2.24,39.9,39.9,0,0,0,.67,4.33,24.83,24.83,0,0,0,1.37,4,21.69,21.69,0,0,0,4.91,7.11l-.09.18a12.58,12.58,0,0,1-6.76-6.4,15.94,15.94,0,0,1-1.19-9.28c.11-.76.21-1.52.35-2.28.07-.37.11-.75.16-1.13s.12-.75.18-1.13a29.72,29.72,0,0,1,.79-4.6,12.35,12.35,0,0,1,2.29-4.11,9.47,9.47,0,0,1,3.7-2.87Z"/><path d="M329.77,219a24.86,24.86,0,0,0,5.88,5.88,23.44,23.44,0,0,0,7.52,3c1.34.34,2.71.61,4.08.84.68.12,1.37.23,2.06.31l1,.13.52.06.61.1a9,9,0,0,1,4,2.2,7.69,7.69,0,0,1,2.36,3.65,9,9,0,0,0-3-2.87,9.14,9.14,0,0,0-3.64-1.44l-.45,0h-.54l-1.09,0c-.72-.05-1.44-.11-2.16-.19a41.92,41.92,0,0,1-4.29-.77,19.82,19.82,0,0,1-8-3.73A16.8,16.8,0,0,1,329.77,219Z"/><path class="cls-15" d="M369.09,254.07c5.4-1.12,11.26-2.36,17.63-3.28.37-4.1,1.17-13.34,1.32-17.88-7,1-13.37,2.31-19.22,3.52C369.39,241.56,369.14,250.35,369.09,254.07Z"/><path class="cls-16" d="M293.73,221.34a23.07,23.07,0,0,1-1.78-5.63c-.17-1-.31-2.22-.41-3.45-.18,1.86-.28,3.82-.28,5.93v.15A14.74,14.74,0,0,0,293.73,221.34Z"/><path class="cls-16" d="M444.83,221.65c-.08-1.39-.2-2.62-.35-3.57a30.54,30.54,0,0,1-.8,4.34,5.55,5.55,0,0,1-.39,1A7.4,7.4,0,0,0,444.83,221.65Z"/><path class="cls-15" d="M322.16,237.82v0A83.11,83.11,0,0,1,310,235.22a27.75,27.75,0,0,1-7.14-3.28c-.1,5.91,1.41,13.63,1.74,18.71a28.45,28.45,0,0,0,5.4,2.26,82.25,82.25,0,0,0,11.69,2.48C321.81,251.76,322.16,240.14,322.16,237.82Z"/><path class="cls-15" d="M420.94,232.19a74.35,74.35,0,0,1-8.32-.17,112.81,112.81,0,0,0-18.85.24c-.1,6.58.14,14.27.27,17.66a111.88,111.88,0,0,1,18.58-.21c2.67.2,5.14.25,7.44.2C420.37,246.16,421.22,235.35,420.94,232.19Z"/><path class="cls-15" d="M361.81,237.92v-.1c-8.59,1.55-21.55,1.8-33.47.67a13.82,13.82,0,0,1,.94,5.3c0,2.56-.1,9.68-.14,12.47,11.71,1,24.31.76,32.69-.76h0C361.84,251.73,361.81,240.3,361.81,237.92Z"/><path class="cls-12" d="M428,215.55c-5-2.53-9.18-2.76-13.32-6.2s-11.94-4.6-11.94-4.6,6-1.61,8.73-.92,6.43-.91,2.75-3S409,194,409,190.06c0,0,3,6.65,6.66,7.57,3.06.77,6.15-3.86,7.5-5.17h0l.46-.44c-12.61-8.38-27.9-13.63-47.09-18.87q-2.73-.74-5.38-1.32c.07.38,1.06,6-.72,10.65-1.84,4.82-3.9,7.35-2.06,8.72s7.57.69,9.87,2.3,5.05,1.38,7.58,1.38,4.36,3.21,4.36,3.21a10.45,10.45,0,0,0-8-.92c-4.36,1.38-5,6.2-3.67,7.58s6.43,5.28,11.71,4.82,10.56,2.3,14.7,4.14,6.89.46,9.41,3.21,5.29,7.12,9.88,9.88,9.87,1.38,10.56-1.61S433.07,218.07,428,215.55Z"/><path class="cls-17" d="M429.32,224.88a6.9,6.9,0,0,1-3.45-1c-2.91-1.75-5.07-4.4-7-6.74-.69-.84-1.34-1.65-2-2.39a43,43,0,0,0,4.6,1.82,43.53,43.53,0,0,1,5,2c3.82,1.92,5,4.62,4.88,5.74a3.19,3.19,0,0,1-2.06.55ZM412.58,212a17.7,17.7,0,0,0-2.72-.52,12.56,12.56,0,0,1-3.65-.9l-1.37-.61c-3.77-1.72-8.48-3.86-13.52-3.86-.49,0-1,0-1.48.06a5.72,5.72,0,0,1-.58,0c-3.38,0-6.79-2.42-8.06-3.52a2.56,2.56,0,0,1,1.92-2.25,6,6,0,0,1,1.85-.29,7.54,7.54,0,0,1,3.39.86l11.08,6.56-6.35-11.16c-.29-.5-2.94-4.93-7.32-4.93h-1.72a6.74,6.74,0,0,1-3.9-.77c-1.92-1.34-4.47-1.6-6.93-1.86-.53,0-1.2-.12-1.78-.2.18-.42.39-.89.58-1.31.45-1,1-2.24,1.55-3.65a21.69,21.69,0,0,0,1.27-7.45l.74.2c13.7,3.74,25.41,7.46,35.56,12.42l-5.59,1.2a18.12,18.12,0,0,0,3.13,10.23,39.22,39.22,0,0,0-6.8,1.17l.39,6.67c1.91.28,7.48,1.53,10.25,3.83Zm3.77-17.71c-1-.36-2.67-2.5-3.85-4.77q3,1.51,5.8,3.19A6.53,6.53,0,0,1,416.35,194.3Z"/><path class="cls-12" d="M434.91,201.18a68.22,68.22,0,0,0-6.16-5.42c-.2-.16-.42-.31-.62-.46l-.2.13c-1.12.84-8,6.1-8.4,8.63-.46,2.76,2.75,3.68,6,2.53s6-5,9.4-5.41Z"/><path class="cls-12" d="M444.46,217.54c-.53-2.93-1.88-8-7.91-14.64h0s-4.15,1.84-4.15,4.37.68,4.13,3.67,6.89,4.13,4.13,3.9,7.35,2.57,3.72,4.92.06A37.53,37.53,0,0,0,444.46,217.54Z"/><path d="M432.55,221.23a3.27,3.27,0,0,1,.5,1.54,2.46,2.46,0,0,1-.52,1.62,4.11,4.11,0,0,1-3,1.42,7.43,7.43,0,0,1-3.27-.55,11.67,11.67,0,0,1-2.77-1.71c-3.37-2.68-5.68-6.33-8.65-9.24a5.46,5.46,0,0,0-2.61-1.32c-1-.2-2-.27-3.1-.44a14.17,14.17,0,0,1-3.16-.83c-1-.41-1.94-.85-2.89-1.29-3.79-1.74-7.68-3.43-11.92-3.41v-.1a16.22,16.22,0,0,1,6.35.4,39,39,0,0,1,6,2.14l2.87,1.29a13.57,13.57,0,0,0,2.91.86c1,.19,2.07.29,3.13.58a6.76,6.76,0,0,1,1.55.64,5.53,5.53,0,0,1,1.29,1.06c.73.8,1.35,1.65,2,2.48s1.29,1.66,2,2.44a23.51,23.51,0,0,0,4.69,4.12,15.61,15.61,0,0,0,2.66,1.49,7.09,7.09,0,0,0,2.89.59,3.72,3.72,0,0,0,2.64-1,2.22,2.22,0,0,0,.58-1.28,3.37,3.37,0,0,0-.23-1.49Z"/><g class="cls-18"><path d="M435.16,28.78c-129.94-36-250.19,32-296.25,139.34-15.79,30.36-19.83,83-19.83,83s20.13-44.94,60.8-85.35c6.65-6.6,25.74-29.49,55.73-40.25,0,.1,0,.21,0,.31a104.25,104.25,0,0,0,4.06,14.62,63.89,63.89,0,0,0,6.81,13.21,61.81,61.81,0,0,1-2-14.16,95.73,95.73,0,0,1,1-14c.57-3.82,1.33-7.6,2.24-11.32,4.54-10.71,13.74-28.77,27.4-38.61C295.37,61,305.29,60.17,310.35,64.62s6.07,19.84,4.86,33.4a134.27,134.27,0,0,1-2.2,14.79c-1,3.94-2.26,7.85-3.69,11.7a97,97,0,0,1-5.94,12.72,61,61,0,0,1-8.58,11.43,64.06,64.06,0,0,0,12.35-8.27,104.62,104.62,0,0,0,10.61-10.85c1.81-2.17,3.55-4.41,5.22-6.7,7.59.27,17.19,1.2,24.41,3.92,14,5.26,26.92,10.73,48.58,28.13,0,0-4.25-5.83-8.43-11.37-4.42-5.85-4.53-12.71-1.89-19s18.21-35,47.56-35.62c0,0,8.5,6.88,6.68,23.68s-7.08,28.34-12.75,36.23c-2.41,3.35-5.36,7.25-8,10.63a11.17,11.17,0,0,0,1.2,14.93c6.82,6.46,19,17.75,22.49,27,0,0-3.58,17.64-19,38.49s-31.58,27.93-31.58,27.93,34.47-3.92,56.27-32c21.29-27.39,46.11-55.45,44.13-127.92,0,0,15.92,19.71,15.38,73.41s-5.13,70.17-5.67,77.72,4.32,15.66,3,28.88c-1,9.51-2.08,22.51-2.63,29.06a8.6,8.6,0,0,0,2.68,7l10.63,10a17.14,17.14,0,0,1,4,19.26l-17.84,41.44a23.67,23.67,0,0,1-14.42,13.17c-18.46,6-59.27,17.47-101.7,17.47-57.49,0-85-15.11-105-29.14,0,0,16.19,22.4,65,36.7,18.42,5.39,41.45,8,63,9.21,20.83,1.14,25,30.08,5.36,37a147.56,147.56,0,0,1-42.72,8.53c-60.72,2.7-91.75-.54-151.39-33.46-22.58-12.46-41-29.41-55.12-45.66A245.56,245.56,0,0,0,365,510.92c157.39,0,280.25-147.86,237.25-312.25A239.12,239.12,0,0,0,435.16,28.78Z"/><path d="M447.56,372.91S464.63,349,443,343.63C425.75,339.35,394.29,372,394.29,372S442.52,346.33,447.56,372.91Z"/><path d="M281.18,256.28s-3.14,19.91,6.29,28.3,28.31,5.24,33.55,1.05C321,285.63,295.92,282.23,281.18,256.28Z"/></g><text class="cls-19" transform="translate(24.8 411.8)">FL<tspan class="cls-20" x="94.64" y="0">A</tspan><tspan class="cls-21" x="150.97" y="0">V</tspan><tspan x="201.84" y="0">OUR KINGS</tspan><tspan class="cls-22"><tspan x="94.66" y="74">Lif</tspan><tspan class="cls-23" x="193.38" y="74">e</tspan><tspan x="219.95" y="74">style </tspan><tspan class="cls-24" x="368.86" y="74">Lounge</tspan></tspan></text><path d="M501.3,341.75,514.66,337a3.59,3.59,0,0,0,2.17-4.59L514.21,325l-3.62,4.7-8.24-6.13-2.24,9.87-5.9-.91,2.5,7A3.59,3.59,0,0,0,501.3,341.75Z"/></g></g></svg>