<svg xmlns="http://www.w3.org/2000/svg" xmlns:xlink="http://www.w3.org/1999/xlink" viewBox="0 0 730 530"><defs><style>.cls-1{isolation:isolate;}.cls-2{opacity:0.05;}.cls-3{font-size:91px;font-family:SofiaProBold, Sofia Pro;}.cls-4{letter-spacing:0.04em;}.cls-5{letter-spacing:0.01em;}.cls-6{letter-spacing:-0.02em;}.cls-7{font-size:82px;fill:#be222d;font-family:Billgates;}.cls-8{letter-spacing:-0.03em;}.cls-9{fill:#000;}.cls-10{fill:url(#radial-gradient);}.cls-11,.cls-12,.cls-13,.cls-14,.cls-15,.cls-16,.cls-17,.cls-18,.cls-19,.cls-20,.cls-21{fill:none;stroke-miterlimit:10;stroke-width:4px;}.cls-11{stroke:url(#linear-gradient);}.cls-12{stroke:url(#linear-gradient-2);}.cls-13{stroke:url(#linear-gradient-3);}.cls-14{stroke:url(#linear-gradient-4);}.cls-15{stroke:url(#linear-gradient-5);}.cls-16{stroke:url(#linear-gradient-6);}.cls-17{stroke:url(#linear-gradient-7);}.cls-18{stroke:url(#linear-gradient-8);}.cls-19{stroke:url(#linear-gradient-9);}.cls-20{stroke:url(#linear-gradient-10);}.cls-21{stroke:url(#linear-gradient-11);}.cls-22{fill:url(#linear-gradient-12);}.cls-23{fill:url(#linear-gradient-13);}.cls-24,.cls-27,.cls-30,.cls-32,.cls-33,.cls-36{mix-blend-mode:screen;}.cls-24{fill:url(#linear-gradient-14);}.cls-25{fill:url(#linear-gradient-15);}.cls-26{fill:url(#linear-gradient-16);}.cls-27{fill:url(#linear-gradient-17);}.cls-28{fill:url(#linear-gradient-18);}.cls-29{fill:url(#linear-gradient-19);}.cls-30{fill:url(#linear-gradient-20);}.cls-31{fill:#953208;}.cls-32{fill:url(#linear-gradient-21);}.cls-33{fill:url(#linear-gradient-22);}.cls-34{fill:#661a00;}.cls-35{fill:#a91b25;}.cls-36{fill:url(#linear-gradient-23);}</style><radialGradient id="radial-gradient" cx="365" cy="206.45" r="98.14" gradientUnits="userSpaceOnUse"><stop offset="0" stop-color="#fced09"/><stop offset="1" stop-color="#ed2f24"/></radialGradient><linearGradient id="linear-gradient" x1="340.5" y1="237.9" x2="343.32" y2="235.07" gradientUnits="userSpaceOnUse"><stop offset="0.1" stop-color="#2c2b2b"/><stop offset="0.5" stop-color="#525050"/><stop offset="0.94" stop-color="#232323"/></linearGradient><linearGradient id="linear-gradient-2" x1="300.57" y1="237.95" x2="303.4" y2="235.12" xlink:href="#linear-gradient"/><linearGradient id="linear-gradient-3" x1="381.83" y1="239.39" x2="384.66" y2="242.22" xlink:href="#linear-gradient"/><linearGradient id="linear-gradient-4" x1="341.88" y1="239.37" x2="344.71" y2="242.2" xlink:href="#linear-gradient"/><linearGradient id="linear-gradient-5" x1="310.8" y1="228.68" x2="313.62" y2="231.51" xlink:href="#linear-gradient"/><linearGradient id="linear-gradient-6" x1="269.76" y1="248.91" x2="272.59" y2="246.08" xlink:href="#linear-gradient"/><linearGradient id="linear-gradient-7" x1="384.81" y1="237.74" x2="387.64" y2="234.91" xlink:href="#linear-gradient"/><linearGradient id="linear-gradient-8" x1="414.12" y1="223.77" x2="416.95" y2="220.94" xlink:href="#linear-gradient"/><linearGradient id="linear-gradient-9" x1="429.34" y1="236.37" x2="432.17" y2="239.19" xlink:href="#linear-gradient"/><linearGradient id="linear-gradient-10" x1="461.44" y1="247.54" x2="464.27" y2="250.37" xlink:href="#linear-gradient"/><linearGradient id="linear-gradient-11" x1="231.73" y1="206.42" x2="498.26" y2="206.42" xlink:href="#linear-gradient"/><linearGradient id="linear-gradient-12" x1="563.48" y1="158.61" x2="574.53" y2="228.15" gradientTransform="matrix(-1, 0, 0, 1, 996.83, 0)" gradientUnits="userSpaceOnUse"><stop offset="0" stop-color="#ed2f24"/><stop offset="1" stop-color="#fced09"/></linearGradient><linearGradient id="linear-gradient-13" x1="544.93" y1="143.13" x2="581.51" y2="218.07" xlink:href="#linear-gradient-12"/><linearGradient id="linear-gradient-14" x1="558.54" y1="163.76" x2="574.32" y2="217.57" gradientTransform="matrix(-1, 0, 0, 1, 996.83, 0)" gradientUnits="userSpaceOnUse"><stop offset="0"/><stop offset="1" stop-color="#f4831f"/></linearGradient><linearGradient id="linear-gradient-15" x1="345.57" y1="104.96" x2="366.34" y2="235.73" gradientTransform="matrix(1, 0, 0, 1, 0, 0)" xlink:href="#linear-gradient-12"/><linearGradient id="linear-gradient-16" x1="357.92" y1="74.37" x2="357.92" y2="219.47" gradientTransform="matrix(1, 0, 0, 1, 0, 0)" xlink:href="#linear-gradient-12"/><linearGradient id="linear-gradient-17" x1="358.41" y1="98.35" x2="358.41" y2="214.27" gradientTransform="matrix(1, 0, 0, 1, 0, 0)" xlink:href="#linear-gradient-14"/><linearGradient id="linear-gradient-18" x1="272.88" y1="166.78" x2="283.4" y2="233.04" gradientTransform="translate(73.87 -64.21) rotate(14.54)" xlink:href="#linear-gradient-12"/><linearGradient id="linear-gradient-19" x1="257.68" y1="160.95" x2="288.68" y2="224.46" gradientTransform="translate(73.87 -64.21) rotate(14.54)" xlink:href="#linear-gradient-12"/><linearGradient id="linear-gradient-20" x1="269.76" y1="172.8" x2="285.01" y2="224.76" gradientTransform="translate(73.87 -64.21) rotate(14.54)" xlink:href="#linear-gradient-14"/><linearGradient id="linear-gradient-21" x1="350.15" y1="169.85" x2="350.15" y2="205.79" gradientUnits="userSpaceOnUse"><stop offset="0" stop-color="#f4831f"/><stop offset="1" stop-color="#be222d" stop-opacity="0"/></linearGradient><linearGradient id="linear-gradient-22" x1="312.93" y1="196.67" x2="326.51" y2="175.51" gradientUnits="userSpaceOnUse"><stop offset="0" stop-color="#be222d" stop-opacity="0"/><stop offset="1" stop-color="#f4831f"/></linearGradient><linearGradient id="linear-gradient-23" x1="374.27" y1="169" x2="396.99" y2="197.56" xlink:href="#linear-gradient-21"/></defs><g class="cls-1"><g id="Layer_1" data-name="Layer 1"><g class="cls-2"><path d="M435.16,28.78c-129.94-36-250.19,32-296.25,139.34-15.79,30.36-19.83,83-19.83,83s20.13-44.94,60.8-85.35c6.65-6.6,25.74-29.49,55.73-40.25,0,.1,0,.21,0,.31a104.25,104.25,0,0,0,4.06,14.62,63.89,63.89,0,0,0,6.81,13.21,61.81,61.81,0,0,1-2-14.16,95.73,95.73,0,0,1,1-14c.57-3.82,1.33-7.6,2.24-11.32,4.54-10.71,13.74-28.77,27.4-38.61C295.37,61,305.29,60.17,310.35,64.62s6.07,19.84,4.86,33.4a134.27,134.27,0,0,1-2.2,14.79c-1,3.94-2.26,7.85-3.69,11.7a97,97,0,0,1-5.94,12.72,61,61,0,0,1-8.58,11.43,64.06,64.06,0,0,0,12.35-8.27,104.62,104.62,0,0,0,10.61-10.85c1.81-2.17,3.55-4.41,5.22-6.7,7.59.27,17.19,1.2,24.41,3.92,14,5.26,26.92,10.73,48.58,28.13,0,0-4.25-5.83-8.43-11.37-4.42-5.85-4.53-12.71-1.89-19s18.21-35,47.56-35.62c0,0,8.5,6.88,6.68,23.68s-7.08,28.34-12.75,36.23c-2.41,3.35-5.36,7.25-8,10.63a11.17,11.17,0,0,0,1.2,14.93c6.82,6.46,19,17.75,22.49,27,0,0-3.58,17.64-19,38.49s-31.58,27.93-31.58,27.93,34.47-3.92,56.27-32c21.29-27.39,46.11-55.45,44.13-127.92,0,0,15.92,19.71,15.38,73.41s-5.13,70.17-5.67,77.72,4.32,15.66,3,28.88c-1,9.51-2.08,22.51-2.63,29.06a8.6,8.6,0,0,0,2.68,7l10.63,10a17.14,17.14,0,0,1,4,19.26l-17.84,41.44a23.67,23.67,0,0,1-14.42,13.17c-18.46,6-59.27,17.47-101.7,17.47-57.49,0-85-15.11-105-29.14,0,0,16.19,22.4,65,36.7,18.42,5.39,41.45,8,63,9.21,20.83,1.14,25,30.08,5.36,37a147.56,147.56,0,0,1-42.72,8.53c-60.72,2.7-91.75-.54-151.39-33.46-22.58-12.46-41-29.41-55.12-45.66A245.56,245.56,0,0,0,365,510.92c157.39,0,280.25-147.86,237.25-312.25A239.12,239.12,0,0,0,435.16,28.78Z"/><path d="M447.56,372.91S464.63,349,443,343.63C425.75,339.35,394.29,372,394.29,372S442.52,346.33,447.56,372.91Z"/><path d="M281.18,256.28s-3.14,19.91,6.29,28.3,28.31,5.24,33.55,1.05C321,285.63,295.92,282.23,281.18,256.28Z"/></g><text class="cls-3" transform="translate(19.39 411.8)">F<tspan class="cls-4" x="48.96" y="0">L</tspan><tspan class="cls-5" x="99.01" y="0">A</tspan><tspan class="cls-6" x="159.43" y="0">V</tspan><tspan x="210.94" y="0">OUR KINGS</tspan><tspan class="cls-7"><tspan x="100.07" y="74">Lif</tspan><tspan class="cls-8" x="198.79" y="74">e</tspan><tspan x="225.36" y="74">style</tspan><tspan class="cls-9" x="349.84" y="74" xml:space="preserve"> Lounge</tspan></tspan></text><path d="M506.26,341.75,519.62,337a3.59,3.59,0,0,0,2.17-4.59L519.16,325l-3.61,4.7-8.25-6.13-2.23,9.87-5.91-.91,2.51,7A3.59,3.59,0,0,0,506.26,341.75Z"/><path d="M493.67,183.62c-9.87-17.36-31.24-20.83-40.28-20.83s1.29-65.06-9.87-92.85c-8.06-20.08-56.94-23.18-76.67-23.18h-2.38c-19.73,0-68.61,3.1-76.67,23.18-11.16,27.79-.82,92.85-9.87,92.85s-30.41,3.47-40.27,20.83c-4.44,7.8-2.73,23.13.5,37.65,1.28,8.37,3,16.78,4.76,24.5l16-11.89L243.68,249c4,16.87,8,29.62,8,29.62l.51-1.61a8.23,8.23,0,0,0,0,1.72,34.57,34.57,0,0,0,.22,4.95l32.92.05-31.49,3.65c.18.68.39,1.37.66,2.13,2.59,7.23,2.46,10.79,2.46,10.79H257c1.19,4.09,6.51,8.3,13.68,10.34,9.08,2.58,17.64.72,19.14-4.16a5.47,5.47,0,0,0,0-2.95,17.56,17.56,0,0,1,1.24-6.42c.18-.24.38-.48.58-.71,3-3.48,14-14,14-14s-8.22-1.9-12.43-2.73c-3.18-3.9-8.73-7.44-15.53-9.45C266.6,267,256,268.94,253,274.61l1.84-5.74-3.53-12.11c7.45,2.05,32.52,6.23,113.14,6.23h2.38c80.63,0,105.69-4.18,113.14-6.23l-3.53,12.11,1.59,4.94c-3.56-5.05-13.63-6.69-24.25-3.56-6.82,2-12.38,5.56-15.55,9.48-4.25.84-12.27,2.7-12.27,2.7s11,10.53,14,14c1.19,1.47,1.57,4.72,1.68,7.13a5.47,5.47,0,0,0,0,2.95c1.5,4.88,10.06,6.74,19.14,4.16,7.17-2,12.49-6.25,13.68-10.34h.06s-.13-3.56,2.46-10.79c.28-.78.5-1.5.68-2.19l-30.18-3.59h31.6a33.7,33.7,0,0,0,.21-5c0-.26,0-.52,0-.77l.22.66s3.92-12.36,7.85-28.83l-16-15.94,16.78,12.51c1.82-7.89,3.58-16.53,4.9-25.12C496.39,206.75,498.1,191.42,493.67,183.62Z"/><polygon class="cls-10" points="493.49 258.92 236.51 258.92 335.99 158.16 390.25 153.98 493.49 258.92"/><polygon points="247.39 266.68 295 219.07 277.65 216.6 236.51 258.92 247.39 266.68"/><polygon points="481.6 266.68 433.99 219.07 443.15 208.4 492.48 258.92 481.6 266.68"/><line class="cls-11" x1="319.5" y1="214.08" x2="364.32" y2="258.89"/><line class="cls-12" x1="279.53" y1="214.08" x2="324.44" y2="258.99"/><line class="cls-13" x1="365.17" y1="258.88" x2="401.33" y2="222.72"/><line class="cls-14" x1="325.23" y1="258.85" x2="361.36" y2="222.72"/><line class="cls-15" x1="283.5" y1="258.8" x2="340.92" y2="201.38"/><line class="cls-16" x1="259.7" y1="236.02" x2="282.65" y2="258.97"/><line class="cls-17" x1="363.99" y1="214.08" x2="408.47" y2="258.56"/><line class="cls-18" x1="380.07" y1="186.88" x2="451.01" y2="257.83"/><line class="cls-19" x1="409.68" y1="258.85" x2="451.82" y2="216.71"/><line class="cls-20" x1="453.01" y1="258.81" x2="472.71" y2="239.1"/><polygon points="492.54 258.21 238.63 258.07 231.74 260.9 232.68 263.3 240.97 283.76 489.7 283.76 497.99 263.3 498.26 260.86 492.54 258.21"/><polygon class="cls-21" points="493.49 258.92 236.51 258.92 335.99 158.16 390.25 153.98 493.49 258.92"/><path class="cls-22" d="M446,165.55c4.11,17.45.08,22.49-8.21,29.25,14.88-22.06-12.31-32.84,14.88-59-51.3,7.69-69.74,83.77-36.39,89.81C450.06,231.73,466,204,446,165.55Z"/><path class="cls-23" d="M448.9,190.91c-7.16,5.74-10,12.19-19.34,11.47,12.8-27.08-10.29-30.67,9.72-59.4-28.21,14.88-49.38,66-26.16,79C430.56,231.73,447.47,221,448.9,190.91Z"/><path class="cls-24" d="M411.65,216.71c9.72,9.72,30.72,3.58,34.3-15.76-6.67,9.75-17.11,10-23.56,7.16,4.73-10.42,5.73-11.46,2.87-41.55C421.68,186.62,398,203.09,411.65,216.71Z"/><path class="cls-25" d="M320.16,105.4c-6.93,26,3.75,30.65,4,48.08-1.09-50.39,45.67-53.28,13.92-96,38.09,20.79,53.68,53.69,43.29,92.37,15-9.82,19-36.37,4-64.08,30.6,23.67,64.29,147.07-23.67,146.63C304.28,232.11,266.47,188,320.16,105.4Z"/><path class="cls-26" d="M312.65,140c-1.15,17.6,10.27,34.2,21.94,44.45-16.74-45.6,34.81-67.59,20.78-101.6,23.67,19.63,22.52,65.23,12.7,91.21,9.24-23.09,35-10.2,32.33-46.76,14.24,39.64,21,102.76-38.68,102.76C309.77,230.09,295.34,189.68,312.65,140Z"/><path class="cls-27" d="M313.23,160.24c.58,23.66,23.67,36.36,34.06,35.21-21.8-43.54,22.52-60,18.47-80.82,16.17,33.48-15.58,43.3,5.2,76.2,4-23.09,29.44-11,32.33-42.14,7.5,36.37,5.66,79.66-43.88,79.66C322.47,228.35,302.27,200.64,313.23,160.24Z"/><path class="cls-28" d="M278.54,167.82c-4.94,18.13-2.06,25.44,5.43,33.34-7.39-23.33,18.64-24.68,1.72-60.92,27.83,24.88,49.7,90,11.32,91.14C263.84,232.35,259.08,198.28,278.54,167.82Z"/><path class="cls-29" d="M273.36,193.14c5.14,6.87,6.23,13.39,14.83,14.93-2.53-27.67,10.26-20.89,8.08-49.85,13.45,22.88,31.87,68.11.06,71.19C283.17,230.69,267.59,220.73,273.36,193.14Z"/><path class="cls-30" d="M301.11,227.07c-11.09,6.54-26.53-6.61-25.23-25,4.51,8.27,10.94,13.92,17.45,12.84-3.94-9.39-2.57-21.56,7.17-38.31C293.55,194.1,324.27,213.42,301.11,227.07Z"/><path d="M289.32,143.41a105.26,105.26,0,0,1,14.07,15.29,127.88,127.88,0,0,1,11.26,17.65l-3.62,1.7a125,125,0,0,0-9.29-18.22A103.86,103.86,0,0,0,289.32,143.41Z"/><path d="M416.19,189.17a1.44,1.44,0,0,0-.27.17l0,0s0,.06,0,0a.69.69,0,0,1,.11-.13c.09-.17.2-.32.3-.52l.28-.67c.09-.22.15-.5.23-.74a13,13,0,0,0,.4-1.58,14.74,14.74,0,0,0,.29-1.66l.24-1.7.14-1.73c.12-1.15.14-2.33.19-3.5.12-4.69,0-9.43-.36-14.16l-.25-3.56-.33-3.55-.33-3.55-.41-3.54c-.51-4.74-1.2-9.45-1.84-14.18,1,4.67,2,9.33,2.83,14l.66,3.52.58,3.53.58,3.54.5,3.56c.67,4.74,1.16,9.51,1.37,14.35,0,1.21.1,2.42.06,3.65l0,1.84-.12,1.85a17.39,17.39,0,0,1-.2,1.88,14.76,14.76,0,0,1-.34,1.91c-.08.33-.13.65-.24,1l-.34,1c-.14.34-.33.71-.51,1.07l-.41.6a2.37,2.37,0,0,1-.32.34l-.18.18a2.89,2.89,0,0,1-.45.3Z"/><path d="M344.51,243.26c-10.77,0-21.41-1.29-28.47-3.43a23.66,23.66,0,0,1-17-18.5,91.66,91.66,0,0,1-.6-13.2c0-15.69,6-23.21,12.81-30.13,8.21-8.43,21.94-13.26,37.67-13.26a90.83,90.83,0,0,1,23.81,3.36c18.28,5,32.84,10.17,44.47,19.3,12.26,9.64,13.64,17.3,14.09,19.82.75,4.21.81,14.69-.66,20-1.42,5.11-9.29,10.25-23.69,10.25h0c-1.61,0-3.31-.06-5-.19-2.11-.15-4.26-.23-6.4-.23-10.69,0-19.92,1.92-28.06,3.62-2.45.51-4.78,1-7,1.4A92.4,92.4,0,0,1,344.51,243.26Z"/><path d="M428.56,207.72c-.59-3.25-2.39-9.72-13.06-18.1-11.28-8.85-25.26-13.84-43.47-18.8-28-7.63-49.07-.77-58.73,9.14-6.16,6.32-12,13.25-12,28.24a90.18,90.18,0,0,0,.57,12.67,20.91,20.91,0,0,0,15,16.26c11.7,3.56,31.89,4.2,43.08,2.16s24.91-6.09,42.2-4.82,24.79-4.34,25.81-8C429.32,221.54,429.22,211.44,428.56,207.72Z"/><path class="cls-31" d="M380.91,235.1c.33-3.76,1.11-12.79,1.11-15.93,0-4-.57-8.79-3-11.84s-2.68-5.92-5.35-3.25-3.82,4.58-5.35,5-4.2-.19-6.87,1.53-2.67,2.68-.76,5,4.77,2.67,5.34,7.25c.53,4.2.31,11.88.26,15.05C370.74,236.91,375.61,235.87,380.91,235.1Z"/><path class="cls-31" d="M333.23,176.29c-4.46,6.24-5.63,18.07.29,23s12.63,9.94,17.78,5.74c0,0-1.11,3.41-3.4,4,0,0,7.92,3.38,11-.19,1.94-2.27,5-2.67,7.49-3.82s5-2.48,4.39-5.15-1.15-3.82-1.34-5.92-2.48-3.82-6.11-5.35-4.77,2.87-9.74,3.63a23.41,23.41,0,0,0,5.92-6.87c2.29-4.21,1.91-4.59,3.44-6.12s3.62-6.48,1.72-10.48a79.7,79.7,0,0,0-21.08-1.25A30.4,30.4,0,0,0,333.23,176.29Z"/><path class="cls-32" d="M354.49,207.65a9.61,9.61,0,0,1-1.19-.07,11.43,11.43,0,0,0,.7-1.65l1.84-6.43-6.33,3.36a3.89,3.89,0,0,1-2.57.94h0c-3.67,0-8.83-4.32-11.6-6.65-4.48-3.75-3.62-13.87.19-19.21a27.61,27.61,0,0,1,8.84-7.64c1.63-.11,3.3-.17,5-.17a79.92,79.92,0,0,1,13.15,1.13,8.28,8.28,0,0,1-1.57,6,9.82,9.82,0,0,0-2.24,3.4c-.34.75-.81,1.76-1.68,3.36a44.38,44.38,0,0,1-4.81,6.88l-5.61,5.87c2.95-.45,12.29-3.6,13.68-4.64a5.61,5.61,0,0,1,1.6-1,.9.9,0,0,1,.35.09c4.23,1.79,4.39,3,4.39,3a19.8,19.8,0,0,0,.77,3.82c.2.72.41,1.47.62,2.44.09.44-.78,1.05-2.81,2-.61.28-1.31.53-2.06.79a13.71,13.71,0,0,0-6.39,3.76A3.15,3.15,0,0,1,354.49,207.65Z"/><path class="cls-31" d="M360.19,224.4c0-2.37-.89-5.81-3.37-7.34s-5-1.52-9.17-2.29A20.4,20.4,0,0,1,338.1,210c-2.29-1.91-4.2-5.92-5.53-5s-2.49,2.49-2.49,7.26-.95,7.07.77,9.74a12,12,0,0,1,2.29,7.26c0,2.12-.08,8-.12,10.35,9.73.88,20.21.65,27.2-.6C360.21,235.91,360.19,226.38,360.19,224.4Z"/><path class="cls-31" d="M307.55,211.53c3.05-1.72,6.49-6.88,7.06-9.74a14.38,14.38,0,0,0-.57-6.3s4.2,5.53,7.45,4.39,3.44-5.16,3.63-9.17a27.74,27.74,0,0,1,3.63-12c1.83-2.94,3.37-8.76,3.49-9.2-8.09,2.22-14.4,5.93-18.58,10.21-6.16,6.32-12,13.25-12,28.24,0,0,0,.14,0,.39C302.35,209.4,304.94,213,307.55,211.53Z"/><path class="cls-33" d="M306.22,209a4.83,4.83,0,0,1-1.73-1.58c.13-13.33,5.15-19.56,11.2-25.77a34.85,34.85,0,0,1,12.16-7.75,19,19,0,0,1-1.51,3.26,30.28,30.28,0,0,0-4,13.4c-.17,3.58-.4,6.15-1.74,6.63-.83,0-2.9-1.68-4.25-3.44l-4.95,2.61a11.5,11.5,0,0,1,.49,4.85C311.41,203.37,308.45,207.72,306.22,209Z"/><path class="cls-31" d="M409.33,219.36a15.52,15.52,0,0,0-5.35-8.79c-2.86-2.29-3.43-.95-7.63-2.1s-8.41-3.24-9.74-3.24-3.82-.58-2.49,2.29S387,211,386.8,218.4c-.15,5.72.08,12.93.19,16a93.58,93.58,0,0,1,15.51-.17q3.3.24,6.13.16C408.9,231.12,409.65,221.57,409.33,219.36Z"/><path class="cls-31" d="M327.22,224.32c0-2.29-1.34-3-1.15-7.45s2.48-11.07-1.14-11.84-5.35-.95-7.83,2.3-5.73,6.11-5.92,11.64c-.17,4.94,1.14,11.58,1.43,15.94a23.49,23.49,0,0,0,4.61,2,68,68,0,0,0,9.61,2C326.93,235.87,327.22,226.25,327.22,224.32Z"/><path d="M338.46,174.31a35.34,35.34,0,0,0-3.67,6.22,14.25,14.25,0,0,0-1.48,3.36,8.15,8.15,0,0,0-.25,1.84,9.7,9.7,0,0,0,.09,1.86c.14,1.23.39,2.41.62,3.57a23,23,0,0,0,1.15,3.3,19.78,19.78,0,0,0,3.93,6l-.1.17a10.13,10.13,0,0,1-5.77-5.26,12.9,12.9,0,0,1-.92-7.79c.1-.64.21-1.27.33-1.9l.28-1.89a26.1,26.1,0,0,1,.58-3.86,7.72,7.72,0,0,1,.79-1.82,10.07,10.07,0,0,1,1.14-1.62,7.45,7.45,0,0,1,3.18-2.33Z"/><path d="M333.55,208.69a22,22,0,0,0,5,4.78,19.88,19.88,0,0,0,6.22,2.46c1.11.29,2.24.51,3.38.7.56.11,1.13.2,1.7.28l.86.11.43.06.52.09a7.42,7.42,0,0,1,3.34,1.89,6.18,6.18,0,0,1,1.91,3.1,7.51,7.51,0,0,0-2.51-2.32,7.33,7.33,0,0,0-3-1.13l-.35,0h-.46l-.91,0c-.6,0-1.2-.08-1.8-.14a34.19,34.19,0,0,1-3.59-.64,16.23,16.23,0,0,1-6.67-3.16A13.58,13.58,0,0,1,333.55,208.69Z"/><path class="cls-34" d="M366.24,237.83c4.5-.93,9.37-2,14.67-2.73.3-3.4,1-11.09,1.09-14.86-5.81.79-11.11,1.92-16,2.93A142.21,142.21,0,0,1,366.24,237.83Z"/><path class="cls-35" d="M303.58,210.62a19.23,19.23,0,0,1-1.48-4.69c-.15-.86-.25-1.84-.34-2.86-.15,1.54-.24,3.17-.24,4.92v.14A12.14,12.14,0,0,0,303.58,210.62Z"/><path class="cls-35" d="M429.23,210.87c-.07-1.15-.17-2.17-.29-3a24.74,24.74,0,0,1-.67,3.6,4.2,4.2,0,0,1-.32.82A6,6,0,0,0,429.23,210.87Z"/><path class="cls-34" d="M327.22,224.32v0a67.92,67.92,0,0,1-10.12-2.12,23.24,23.24,0,0,1-5.93-2.73c-.08,4.92,1.18,11.33,1.45,15.56a23.56,23.56,0,0,0,4.48,1.88,67.78,67.78,0,0,0,9.73,2.06C326.93,235.91,327.22,226.25,327.22,224.32Z"/><path class="cls-34" d="M409.36,219.64a63.33,63.33,0,0,1-6.92-.14,94.33,94.33,0,0,0-15.67.19c-.09,5.48.12,11.87.22,14.69a92.87,92.87,0,0,1,15.45-.17q3.33.24,6.19.16C408.89,231.25,409.59,222.27,409.36,219.64Z"/><path class="cls-34" d="M360.19,224.4v-.08c-7.14,1.29-17.92,1.5-27.83.56a11.44,11.44,0,0,1,.78,4.41c0,2.13-.08,8-.12,10.36,9.74.87,20.22.64,27.19-.62h0C360.21,235.88,360.19,226.38,360.19,224.4Z"/><path class="cls-31" d="M415.25,205.8c-4.2-2.1-7.64-2.29-11.07-5.16s-9.93-3.82-9.93-3.82,5-1.33,7.25-.76,5.35-.76,2.29-2.48-4.39-5.73-4.39-9c0,0,2.48,5.54,5.54,6.3,2.55.64,5.11-3.21,6.23-4.29h0s.17-.18.38-.36c-10.49-7-23.2-11.34-39.16-15.69-1.52-.42-3-.78-4.48-1.11a18.59,18.59,0,0,1-.59,8.86c-1.53,4-3.25,6.11-1.72,7.26s6.3.57,8.21,1.91,4.2,1.14,6.3,1.14,3.63,2.68,3.63,2.68a8.66,8.66,0,0,0-6.68-.77c-3.63,1.15-4.2,5.16-3.06,6.3s5.35,4.4,9.74,4,8.79,1.91,12.22,3.44,5.73.38,7.83,2.67,4.4,5.92,8.21,8.22,8.22,1.14,8.79-1.34S419.45,207.9,415.25,205.8Z"/><path class="cls-36" d="M416.33,213.56a5.7,5.7,0,0,1-2.87-.84,23.62,23.62,0,0,1-5.8-5.59c-.57-.71-1.12-1.37-1.68-2a36.13,36.13,0,0,0,3.83,1.51,36.37,36.37,0,0,1,4.17,1.68c3.18,1.59,4.19,3.84,4.06,4.77a2.66,2.66,0,0,1-1.71.46Zm-13.92-10.7a14.84,14.84,0,0,0-2.26-.43,10.34,10.34,0,0,1-3-.75l-1.14-.51c-3.15-1.43-7.06-3.21-11.25-3.21-.41,0-.82,0-1.23,0l-.48,0c-2.82,0-5.65-2-6.71-2.93a2.18,2.18,0,0,1,1.6-1.88,5.32,5.32,0,0,1,1.54-.23,6.06,6.06,0,0,1,2.82.72l9.21,5.45-5.28-9.28c-.24-.42-2.45-4.1-6.09-4.1h-1.42a5.56,5.56,0,0,1-3.25-.65c-1.59-1.11-3.71-1.33-5.76-1.54-.44,0-1-.1-1.48-.17.15-.35.32-.74.48-1.09.37-.83.84-1.86,1.29-3a18.11,18.11,0,0,0,1.06-6.19l.61.16c11.39,3.11,21.13,6.2,29.57,10.32l-4.64,1a15.06,15.06,0,0,0,2.6,8.51,31.65,31.65,0,0,0-5.66,1l.32,5.54c1.59.24,6.23,1.27,8.53,3.19Zm3.13-14.73c-.8-.3-2.21-2.08-3.2-4,1.66.84,3.26,1.72,4.82,2.65A5.24,5.24,0,0,1,405.54,188.13Z"/><path class="cls-31" d="M421,193.85a58.6,58.6,0,0,0-5.12-4.5l-.52-.39-.17.11c-.92.7-6.63,5.07-7,7.18-.39,2.29,2.29,3.06,5,2.1s5-4.14,7.82-4.49Z"/><path class="cls-31" d="M428.92,207.45c-.44-2.43-1.56-6.67-6.58-12.17h0s-3.45,1.53-3.45,3.63.57,3.44,3.05,5.73,3.44,3.44,3.25,6.11,2.13,3.1,4.09.06A30.65,30.65,0,0,0,428.92,207.45Z"/><path d="M419,210.52a2.59,2.59,0,0,1,.44,1.29,2,2,0,0,1-.43,1.37,3.47,3.47,0,0,1-2.54,1.22,6.12,6.12,0,0,1-2.75-.46,9.26,9.26,0,0,1-2.31-1.44c-2.79-2.26-4.7-5.3-7.19-7.69a4.46,4.46,0,0,0-2.16-1.07c-.81-.16-1.68-.21-2.57-.35a11.68,11.68,0,0,1-2.64-.69c-.84-.34-1.62-.71-2.42-1.07-3.14-1.46-6.34-2.87-9.87-2.91v-.1a13.14,13.14,0,0,1,5.29.28,29.85,29.85,0,0,1,5,1.76l2.38,1.07a11.3,11.3,0,0,0,2.4.72c.83.16,1.72.24,2.61.49a6.15,6.15,0,0,1,1.3.54,5,5,0,0,1,1.08.9c.6.68,1.11,1.39,1.64,2.09s1.08,1.38,1.66,2a19.42,19.42,0,0,0,3.92,3.39,8.26,8.26,0,0,0,4.57,1.71,3,3,0,0,0,2.16-.77,1.92,1.92,0,0,0,.5-1,3,3,0,0,0-.18-1.24Z"/></g></g></svg>