<svg id="Layer_1" data-name="Layer 1" xmlns="http://www.w3.org/2000/svg" viewBox="0 0 800 250"><defs><style>.cls-1{opacity:0.05;}</style></defs><path d="M406.45,151.46l0,0Z"/><g class="cls-1"><path d="M436.34,10.55c-63-17.43-121.22,15.5-143.53,67.51-7.66,14.71-9.61,40.21-9.61,40.21a154.37,154.37,0,0,1,29.46-41.36c3.21-3.2,12.46-14.28,27-19.5,0,.05,0,.1,0,.15a49.38,49.38,0,0,0,2,7.08,31.28,31.28,0,0,0,3.3,6.41,30.19,30.19,0,0,1-1-6.87,47.67,47.67,0,0,1,.46-6.78c.28-1.85.65-3.68,1.09-5.48,2.2-5.19,6.66-14,13.28-18.71,9.8-7.06,14.61-7.45,17.06-5.3s2.94,9.61,2.35,16.18a66.3,66.3,0,0,1-1.06,7.17c-.51,1.91-1.1,3.8-1.79,5.67a46.45,46.45,0,0,1-2.88,6.16,29.67,29.67,0,0,1-4.15,5.54,31,31,0,0,0,6-4,50,50,0,0,0,5.14-5.25c.88-1,1.72-2.14,2.53-3.25A40,40,0,0,1,393.82,58c6.76,2.55,13,5.2,23.53,13.63,0,0-2.05-2.83-4.08-5.51a9,9,0,0,1-.92-9.2c1.28-3,8.83-17,23-17.26,0,0,4.12,3.34,3.23,11.48s-3.43,13.72-6.18,17.55c-1.16,1.62-2.59,3.51-3.85,5.15a5.4,5.4,0,0,0,.58,7.23c3.3,3.13,9.22,8.6,10.89,13.1,0,0-1.73,8.55-9.18,18.65s-15.3,13.53-15.3,13.53,16.7-1.9,27.26-15.49c10.31-13.27,22.34-26.87,21.38-62,0,0,7.71,9.54,7.45,35.57s-2.48,34-2.74,37.65,2.09,7.59,1.43,14c-.47,4.61-1,10.91-1.27,14.08a4.16,4.16,0,0,0,1.3,3.38l5.15,4.84a8.31,8.31,0,0,1,1.94,9.33l-8.65,20.08a11.42,11.42,0,0,1-7,6.38c-8.95,2.91-28.72,8.47-49.28,8.47-27.85,0-41.19-7.32-50.86-14.12,0,0,7.84,10.85,31.51,17.78,8.92,2.61,20.08,3.89,30.52,4.46,10.09.56,12.12,14.58,2.59,18a71.37,71.37,0,0,1-20.69,4.13c-29.42,1.31-44.46-.26-73.36-16.21a100.61,100.61,0,0,1-26.7-22.12,119,119,0,0,0,96.76,49.61c76.26,0,135.78-71.64,114.95-151.29A115.83,115.83,0,0,0,436.34,10.55Z"/><path d="M442.35,177.29s8.27-11.6-2.2-14.19c-8.37-2.08-23.61,13.73-23.61,13.73S439.91,164.41,442.35,177.29Z"/><path d="M361.74,120.77s-1.53,9.65,3,13.72S378.5,137,381,135A28.53,28.53,0,0,1,361.74,120.77Z"/></g><g class="cls-1"><path d="M176.91,10.55C114-6.88,55.69,26.05,33.37,78.06c-7.65,14.71-9.61,40.21-9.61,40.21A154.64,154.64,0,0,1,53.22,76.91c3.22-3.2,12.47-14.28,27-19.5l0,.15a50.68,50.68,0,0,0,2,7.08,31.28,31.28,0,0,0,3.3,6.41,30.17,30.17,0,0,1-1-6.87A46.25,46.25,0,0,1,85,57.4c.27-1.85.64-3.68,1.08-5.48,2.2-5.19,6.66-14,13.28-18.71,9.81-7.06,14.61-7.45,17.06-5.3s2.95,9.61,2.36,16.18a66.12,66.12,0,0,1-1.07,7.17q-.75,2.87-1.78,5.67a47.75,47.75,0,0,1-2.88,6.16,29.3,29.3,0,0,1-4.16,5.54,30.66,30.66,0,0,0,6-4A50.11,50.11,0,0,0,120,59.37c.87-1,1.71-2.14,2.53-3.25A40,40,0,0,1,134.38,58c6.77,2.55,13,5.2,23.54,13.63,0,0-2.06-2.83-4.09-5.51a9,9,0,0,1-.91-9.2c1.27-3,8.82-17,23-17.26,0,0,4.12,3.34,3.24,11.48S175.77,64.88,173,68.71c-1.17,1.62-2.6,3.51-3.86,5.15a5.4,5.4,0,0,0,.58,7.23c3.3,3.13,9.22,8.6,10.9,13.1,0,0-1.74,8.55-9.19,18.65s-15.3,13.53-15.3,13.53,16.7-1.9,27.26-15.49c10.32-13.27,22.35-26.87,21.38-62,0,0,7.72,9.54,7.46,35.57s-2.49,34-2.75,37.65,2.09,7.59,1.44,14c-.47,4.61-1,10.91-1.27,14.08a4.16,4.16,0,0,0,1.29,3.38l5.15,4.84a8.29,8.29,0,0,1,1.94,9.33l-8.64,20.08a11.46,11.46,0,0,1-7,6.38c-8.94,2.91-28.72,8.47-49.28,8.47-27.85,0-41.18-7.32-50.86-14.12,0,0,7.85,10.85,31.51,17.78,8.93,2.61,20.09,3.89,30.52,4.46,10.1.56,12.13,14.58,2.6,18a71.51,71.51,0,0,1-20.7,4.13c-29.42,1.31-44.45-.26-73.35-16.21a100.51,100.51,0,0,1-26.71-22.12,119,119,0,0,0,96.76,49.61c76.26,0,135.79-71.64,115-151.29A115.84,115.84,0,0,0,176.91,10.55Z"/><path d="M182.92,177.29s8.26-11.6-2.2-14.19c-8.37-2.08-23.62,13.73-23.62,13.73S180.47,164.41,182.92,177.29Z"/><path d="M102.3,120.77s-1.52,9.65,3,13.72,13.71,2.54,16.25.51A28.53,28.53,0,0,1,102.3,120.77Z"/></g><g class="cls-1"><path d="M691.08,10.55c-63-17.43-121.22,15.5-143.54,67.51-7.65,14.71-9.61,40.21-9.61,40.21a154.64,154.64,0,0,1,29.46-41.36c3.22-3.2,12.47-14.28,27-19.5,0,.05,0,.1,0,.15a49.38,49.38,0,0,0,2,7.08,30.79,30.79,0,0,0,3.3,6.41,29.64,29.64,0,0,1-1-6.87,46.25,46.25,0,0,1,.46-6.78c.28-1.85.65-3.68,1.09-5.48,2.2-5.19,6.66-14,13.27-18.71,9.81-7.06,14.62-7.45,17.07-5.3s2.94,9.61,2.35,16.18a66.3,66.3,0,0,1-1.06,7.17c-.51,1.91-1.1,3.8-1.79,5.67a46.45,46.45,0,0,1-2.88,6.16,29.3,29.3,0,0,1-4.16,5.54,30.72,30.72,0,0,0,6-4,50,50,0,0,0,5.14-5.25c.88-1,1.72-2.14,2.53-3.25A40,40,0,0,1,648.56,58c6.76,2.55,13,5.2,23.53,13.63,0,0-2.05-2.83-4.08-5.51a9,9,0,0,1-.92-9.2c1.27-3,8.83-17,23-17.26,0,0,4.11,3.34,3.23,11.48s-3.43,13.72-6.18,17.55c-1.16,1.62-2.59,3.51-3.85,5.15a5.4,5.4,0,0,0,.58,7.23c3.3,3.13,9.22,8.6,10.89,13.1,0,0-1.73,8.55-9.19,18.65s-15.29,13.53-15.29,13.53,16.7-1.9,27.26-15.49C707.9,97.61,719.93,84,719,48.9c0,0,7.71,9.54,7.45,35.57s-2.48,34-2.75,37.65,2.1,7.59,1.44,14c-.47,4.61-1,10.91-1.27,14.08a4.13,4.13,0,0,0,1.3,3.38l5.15,4.84a8.31,8.31,0,0,1,1.94,9.33l-8.65,20.08a11.42,11.42,0,0,1-7,6.38c-9,2.91-28.72,8.47-49.28,8.47-27.85,0-41.19-7.32-50.87-14.12,0,0,7.85,10.85,31.52,17.78,8.92,2.61,20.08,3.89,30.52,4.46,10.09.56,12.12,14.58,2.59,18a71.51,71.51,0,0,1-20.69,4.13c-29.42,1.31-44.46-.26-73.36-16.21a100.45,100.45,0,0,1-26.7-22.12,119,119,0,0,0,96.76,49.61c76.26,0,135.78-71.64,114.95-151.29A115.83,115.83,0,0,0,691.08,10.55Z"/><path d="M697.09,177.29s8.27-11.6-2.2-14.19c-8.37-2.08-23.61,13.73-23.61,13.73S694.65,164.41,697.09,177.29Z"/><path d="M616.48,120.77s-1.53,9.65,3,13.72,13.72,2.54,16.26.51A28.53,28.53,0,0,1,616.48,120.77Z"/></g><path d="M36.05,30.73v9.58H16.84v9.63H31.25v9.58H16.84V78.7H7.23v-48Z"/><path d="M51.49,30.85V69.09H70.7v9.55H41.89V30.85Z"/><path d="M150.21,79.71,128.66,30.85h10.17L150.18,57l11.39-26.18h10.28Z"/><path d="M212.88,37.61A23.41,23.41,0,0,1,220,54.77,24.26,24.26,0,0,1,195.74,79a24.21,24.21,0,0,1-24.25-24.2,23.52,23.52,0,0,1,7.12-17.16,24.11,24.11,0,0,1,34.27,0Zm-27.42,6.82a14.52,14.52,0,0,0,0,20.57A14.57,14.57,0,0,0,210.3,54.71a14.63,14.63,0,0,0-14.56-14.55A13.86,13.86,0,0,0,185.46,44.43Z"/><path d="M254.8,59.75V30.85h9.66V59.78a19.33,19.33,0,0,1-38.66,0V30.85h9.67v28.9a9.67,9.67,0,0,0,19.33,0Z"/><path d="M272.08,30.85h15.59a17.55,17.55,0,0,1,12.51,4.86c2.91,2.91,4.63,5.56,4.63,10.85v1.25a15.45,15.45,0,0,1-3,9.1,10.87,10.87,0,0,1-5.72,4.42l11.12,17.31H295.44L281.71,57.5V78.64h-9.6Zm22.83,16a6.5,6.5,0,0,0-1.9-4.6,9,9,0,0,0-5.93-1.89h-5.4V53.56h3.71v0h3.2A6.58,6.58,0,0,0,294.91,46.86Z"/><path d="M340.35,30.85V52l12.24-21.14h11.09L349.54,55.13,366,78.64H354.28l-13.93-20v20h-9.58V30.85Z"/><path d="M371.8,30.85h9.61V78.64H371.8Z"/><path d="M417.81,57.26V30.73h9.64V79.62L398.63,52.17V78.7H389V29.84Z"/><path d="M457.53,30.55a24.41,24.41,0,0,1,17.17,7.09l-6.85,6.85a14.1,14.1,0,0,0-10.26-4.3,13.84,13.84,0,0,0-10.25,4.3,14.52,14.52,0,0,0,0,20.57,13.82,13.82,0,0,0,10.25,4.27A14.52,14.52,0,0,0,470.7,61H457.06V51.81h24.55c.68,8.93-2.25,15.41-7,20.1A23.49,23.49,0,0,1,457.5,79a23.18,23.18,0,0,1-17.1-7.09,23.21,23.21,0,0,1-7.12-17.14,23.48,23.48,0,0,1,7.12-17.16,23.15,23.15,0,0,1,17.1-7.15Z"/><path d="M500.85,69.23c2.65,0,5.58-2.2,5.58-4.85,0-4.37-5.85-5-9.16-6.12-5.83-2-11-6.77-11-13.28a14.58,14.58,0,0,1,29-2l-9.54,2a4.85,4.85,0,0,0-9.7,0c0,4.31,5.45,5.45,8.77,6.44,6,1.74,11.35,6.33,11.35,13C516.2,72.49,509,79,500.92,79c-7.39,0-14.07-5.42-15.16-12.54l9.54-2c0,2.67,2.9,4.84,5.59,4.84Z"/><path d="M127.83,56.29c-1.82-9.15-7.29-20.65-13.75-24.94C108.47,27.64,101.87,28,93,37.09l-.81.8-.81.82A65,65,0,0,0,86.3,44.3S79,53.85,77.18,63.79,77.79,80,85.8,80c13.92,0,16.34-6.15,21.54-6.43,7.29-.39,10.44,7.21,14.75,3.7a10.23,10.23,0,0,0,1.16-1.12,10.32,10.32,0,0,0,.81-.81c.28-.26.56-.53.81-.81C128.66,71.1,129.6,65.17,127.83,56.29Zm-40.69-7.6a92.57,92.57,0,0,1,7.71-10.28c7.78-7.32,13.24-7.95,17.77-5.65s8.36,8.48,9.63,13.4.55,8.15-2.32,9.93c-3,1.89-5.22-2.19-10.33-2-3.65.15-5.35,3.45-15.1,3.45C88.88,57.56,84.3,53.27,87.14,48.69ZM98.07,73.45c-2.69,1.83-8.58,2.22-12.83,1.25s-4.74-6.63-4.17-10.57.85-5.78,2.37-6.64c1.1-.62,3.19.39,3.19.39,1.71.86,4.74,3.17,8.09,3.08a23.32,23.32,0,0,0,11.37-3.56c3.51-2.31,5.8-.29,6,1.06s-.25,2-4.66,3.94S100.77,71.63,98.07,73.45Zm28.29-9.79c-.08,3.47-1.43,6.93-3.45,8.12s-4.8-.79-6.82-2-4.37-2.27-6.9-1.09-5,1.39-4.12-1.68,4.71-4.26,4.71-4.26c6.14-1,3.28-5.14,8.92-4,2.6.55,2.86-3,5.56-2.67C125.69,56.3,126.45,60.2,126.36,63.66Z"/><path d="M112.09,39.52c-1-3.56-6.78-3.23-9.53-.81s-2.42,7.43,1.29,8.4S114,46.79,112.09,39.52Z"/><path d="M111.71,39.8c-.9-3.37-6.42-3.06-9-.77a5.44,5.44,0,0,0-.75.85c2.73-2,7.71-2.07,8.56,1.11.62,2.32.33,4-.45,5.16C111.65,45.06,112.58,43.07,111.71,39.8Z"/><path d="M15.56,106.45v33.13H32.2v8.27h-25v-41.4Z"/><path d="M37.43,106.45h8.32v41.4H37.43Z"/><path d="M77.49,106.34v8.3H60.85V123H73.33v8.29H60.85V147.9H52.53V106.34Z"/><path d="M107.69,106.34v8.3H91V123h12.48v8.29H91v8.35h16.65v8.27h-25V106.34Z"/><path d="M124.45,139.7c2.3,0,4.84-1.91,4.84-4.21,0-3.78-5.07-4.31-7.94-5.3-5-1.72-9.5-5.86-9.5-11.5A12.63,12.63,0,0,1,137,116.94l-8.27,1.75a4.2,4.2,0,0,0-8.4,0c0,3.73,4.72,4.72,7.6,5.58,5.22,1.51,9.83,5.49,9.83,11.25,0,7-6.26,12.62-13.23,12.62-6.41,0-12.2-4.7-13.14-10.86l8.26-1.76c0,2.31,2.52,4.19,4.85,4.19Z"/><path d="M170.16,106.45v8.24H160v33.16h-8.35V114.69h-10.2v-8.24Z"/><path d="M183.25,106.45l7.55,14.35,7.55-14.35h9.43L194.93,130.1v17.75h-8.27V130.1l-12.81-23.65Z"/><path d="M221.33,106.45v33.13H238v8.27H213v-41.4Z"/><path d="M268.17,106.34v8.3H251.53V123H264v8.29H251.53v8.35h16.64v8.27h-25V106.34Z"/><path d="M301.13,106.45v33.13h16.65v8.27h-25v-41.4Z"/><path d="M355.57,112.3a20.9,20.9,0,1,1-14.84-6.19A20.26,20.26,0,0,1,355.57,112.3Zm-23.76,5.91a12.27,12.27,0,0,0-3.69,8.91,12.62,12.62,0,1,0,3.69-8.91Z"/><path d="M430.51,129.33v-23h8.34v42.35l-25-23.78v23h-8.32V105.57Z"/><path d="M465.1,106.19A21.13,21.13,0,0,1,480,112.33L474,118.26a12.23,12.23,0,0,0-8.88-3.72,12.62,12.62,0,0,0,0,25.24,12.55,12.55,0,0,0,11.35-7.24H464.68V124.6H486c.59,7.74-1.95,13.36-6,17.42a20.31,20.31,0,0,1-14.84,6.13,21,21,0,0,1-21-21,20.36,20.36,0,0,1,6.16-14.87,20,20,0,0,1,14.82-6.19Z"/><path d="M516.22,106.34v8.3H499.58V123h12.48v8.29H499.58v8.35h16.64v8.27h-25V106.34Z"/><path d="M397.9,107.79l1-1.32H364l1,1.32c.1.13,10.16,13.17,11.65,15.45s2,4.22,2,11.56a23.35,23.35,0,0,1-.51,5.48,4.59,4.59,0,0,1-1.91,2.73c-1.65,1.1-4.71,3.14-5.52,3.58l-2.85,1.54h27.21l-2.85-1.54c-.87-.47-3.92-2.51-5.52-3.59a4.53,4.53,0,0,1-1.9-2.69,23.39,23.39,0,0,1-.52-5.51c0-7.34.58-9.42,2-11.56S397.8,107.92,397.9,107.79Zm-14.59,14.27a12.26,12.26,0,0,0-1.84,4.63,12.27,12.27,0,0,0-1.85-4.63c-.92-1.41-9.24-12.47-9.24-12.47a31.64,31.64,0,0,0,4.14.09c.44,0,.7,0,.7,0,3-.1,6.11-.22,9.21.85a45.5,45.5,0,0,0,6.05,2S384,121,383.31,122.06Z"/><path d="M715.49,157.63l0,0Z"/><path d="M790.94,226.18l-42.08-42.32a32.07,32.07,0,0,1-5.72,6.66l19.93,19.93-15.31,15.3-.1-.12L727.06,205l10.56-10.57a36.46,36.46,0,0,1-9.67,3.77l-27.52,27.52-17.24-17.25c-1.92,0-3.8.13-5.63.28l17.15,17.15H658.57l17-17q-3.48.35-6.76.86l-15.93,15.93-11.12-11.12c-1.76.16-3.61.28-5.54.36l10.94,10.94H611l11.07-11.07c-1.86-.11-3.69-.25-5.48-.42l-11.31,11.31L584,204.44h-.05c-1.1.12-2.11.19-3.1.22-.55,0-1.1,0-1.64,0s-1.13,0-1.69,0L558.14,224l-14.53-14.52,12-12a30.43,30.43,0,0,1-6.13-6.33L514.2,226.76l0,.36a3,3,0,0,0-.65,1.86v4.76a3.06,3.06,0,0,0,3.07,3.06H789.7a3.06,3.06,0,0,0,3.07-3.06V229A3.08,3.08,0,0,0,790.94,226.18Zm-12.41-.26h-25L766,213.4ZM724.11,208l17.95,17.95h-35.9Zm-143.27-.77,18.72,18.72H562.13Zm-26.69,18.72h-27l13.48-13.48Z"/><path d="M739.69,128.48c4.38,18.61.09,24-8.76,31.19,15.88-23.53-13.13-35,15.88-62.93-15.74,2.36-28.57,10.76-38,21.67-4.26-32.07-19.3-63.9-33.69-75,16,29.56,11.7,57.89-4.31,68.35,11.09-41.25-5.55-76.35-46.18-98.52,33.86,45.57-16,48.65-14.85,102.4C609.5,97,598.12,92,605.51,64.31c-12.4,19.06-20.22,36.2-24.24,51.36a89.07,89.07,0,0,0-12.53-14.19c18,38.66-9.73,40.1-1.84,65-8-8.43-11.06-16.22-5.79-35.56-20.77,32.49-15.68,68.84,19.7,67.8.9,0,1.77-.1,2.61-.19a29.08,29.08,0,0,1-2-3.58,50.8,50.8,0,0,1-2.17-5.8s-10.18-1-15.78-14.17c4,4.46,8.69,7,13.41,6.2,0,0-.15-6,.4-12.53s2.51-9.38,2.51-9.38a19.29,19.29,0,0,1,.27-13.13,30.45,30.45,0,0,0,1.09-19.31c1.77,2.31,4.08,6,4.36,12.78a96.17,96.17,0,0,1-.1,9.83,58.34,58.34,0,0,1,7.59-9.51c-.64-3.48-3.37-21.1,2.84-39.49,0,0,.55,8.43,3.27,13.47a56.28,56.28,0,0,1,5.25,17.45,59.76,59.76,0,0,1,18.34-6l.48-.08c3.52-44.93,28.63-36.38,27.61-65.36,11.33,22.85,6.93,46.37-2,65.42,1.83.27,3.55.58,3.55.58,3.08.57,6.2,1.27,9.34,2.13,6.89,1.87,13.48,3.74,19.74,5.9,6.14-3.88,11.47-9.74,12.74-23.43a156.74,156.74,0,0,1,3.48,30.23,80.24,80.24,0,0,1,9.81,5.94c5-5.45,9.09-11.15,10.15-17.11,1.34,14,1.88,22.14,1.65,27.75,4.06,4.82,6.56,9.77,7.46,14.78a29.34,29.34,0,0,1,.34,3,20.46,20.46,0,0,0,12.62-8.85c-1.22,6.57-6.09,11.76-12.49,15.46a68.92,68.92,0,0,1-1,10.85C749.08,187.54,757,161.81,739.69,128.48Z"/><path d="M721.34,179.16v-.47c0-.37,0-.73,0-1.07a31.82,31.82,0,0,0-.36-4.14c-.46-2.53-1.84-7.13-7-12.91h0c-.46-.52-1-1-1.48-1.59h0a60.65,60.65,0,0,0-6-5.35c-.65-.51-1.31-1-2-1.48s-1.29-.91-1.94-1.35h0c-11.36-7.66-25.1-12.06-42.58-16.82-1.4-.38-2.77-.72-4.14-1h0c-1.09-.26-3.36-.73-3.42-.74h0a90.9,90.9,0,0,0-15.32-1.75H637l-1.91,0h-.84l-.94,0c-.77,0-1.54,0-2.3.09l-.92,0c-.75.05-1.48.11-2.21.18l-.9.1c-.71.08-1.41.17-2.11.27l-.88.13c-.68.1-1.35.22-2,.35l-.87.17c-.64.13-1.27.27-1.9.42l-.86.21c-.61.15-1.2.32-1.79.49l-.84.24-1.69.56-.82.28-1.58.61-.8.32c-.51.21-1,.43-1.48.66l-.78.36c-.47.22-.92.46-1.37.69l-.76.4c-.43.24-.85.49-1.27.74-.24.14-.49.28-.72.43-.41.25-.79.51-1.18.78l-.68.45c-.39.27-.75.55-1.12.83l-.61.46c-.38.31-.73.62-1.09.93l-.5.42c-.5.46-1,.92-1.45,1.39-6.6,6.77-13.22,14.64-13.22,30.69,0,0-.08,1.18-.14,2.93,0,.58,0,1.22,0,1.9,0,.34,0,.69,0,1,0,.72,0,1.46,0,2.21s0,1.49.09,2.23a30.21,30.21,0,0,0,.33,3.09c.06.4.17.92.32,1.52A22.55,22.55,0,0,0,600.87,205c.56.17,1.15.33,1.74.49l.51.13,1.37.34.55.12,1.58.33.34.07a129,129,0,0,0,23.56,2.06,96.76,96.76,0,0,0,16.55-1.23c2.22-.4,4.55-.88,7-1.38h0c4.89-1,10.2-2.13,16-2.93l2.68-.34.56-.06c.92-.11,1.85-.2,2.79-.29,2.95-.25,6-.41,9.17-.41q3.45,0,7.08.25c1.83.14,3.56.2,5.19.2.69,0,1.36,0,2,0h.2c.57,0,1.11-.05,1.65-.09.28,0,.55,0,.82-.06q.78-.06,1.53-.15l.75-.09c.49-.06,1-.14,1.42-.21l.7-.12,1.3-.27.65-.15,1.19-.31.6-.17,1.07-.35.55-.2c.33-.12.66-.25,1-.38l.52-.22c.29-.13.57-.26.84-.4a5.19,5.19,0,0,0,.47-.25c.26-.13.51-.27.74-.41l.43-.27.63-.41.4-.3.52-.41.36-.32.41-.39c.12-.12.22-.24.32-.36s.23-.24.32-.36a4.73,4.73,0,0,0,.28-.39,3.71,3.71,0,0,0,.23-.32c.09-.15.16-.29.24-.44l.13-.25a5.47,5.47,0,0,0,.25-.66c.08-.3.16-.62.23-.95,0-.1,0-.2.07-.3q.08-.37.15-.78l.06-.31.18-1.12a.22.22,0,0,1,0-.08c0-.36.1-.74.14-1.12,0-.13,0-.26,0-.39l.09-.9c0-.13,0-.26,0-.39,0-.42.07-.83.1-1.26,0-.06,0-.13,0-.19,0-.37.05-.73.07-1.1,0-.16,0-.31,0-.46,0-.3,0-.58,0-.87s0-.31,0-.47l0-1.22c0-.11,0-.22,0-.33,0-.31,0-.62,0-.92v-.5C721.35,179.65,721.35,179.4,721.34,179.16Zm-84.59,2.78c-16.52,3.72-41.15,3.93-45.35-10.49a25.44,25.44,0,0,1,5.77-21c8.39-9.7,21.76-15.2,28.05-13.37s6.55,6,6.81,13.11,5.51,11.54,8.92,14.94S651.3,178.66,636.75,181.94Zm2.94-27c-2.73-5-3-13.66.55-16.46s13.09-2.17,18.27,0,5.15,5.26,4.09,6.83c-2.73,4-6,2.8-8.46,6.21a30.22,30.22,0,0,0-3.54,5.59C648.69,160.88,642.42,160,639.69,155Zm70.2,22.49c-4.48,2.9-16.87.53-21.88-.53a36.37,36.37,0,0,0-14.76.79c-8.17,2.11-14.76-.52-17.93-4.74s-1.05-12.92,4.49-19,17.13-7.91,24.25-6.33,16.87,5.8,23.72,13.71S714.37,174.57,709.89,177.47Z"/></svg>