<svg xmlns="http://www.w3.org/2000/svg" xmlns:xlink="http://www.w3.org/1999/xlink" viewBox="0 0 841.89 595.28"><defs><style>.cls-1{isolation:isolate;}.cls-2{fill:url(#linear-gradient);}.cls-3{fill:#010101;}.cls-10,.cls-13,.cls-15,.cls-16,.cls-19,.cls-4,.cls-7{mix-blend-mode:screen;}.cls-4{fill:url(#linear-gradient-2);}.cls-5{fill:url(#linear-gradient-3);}.cls-6{fill:url(#linear-gradient-4);}.cls-7{fill:url(#linear-gradient-5);}.cls-8{fill:url(#linear-gradient-6);}.cls-9{fill:url(#linear-gradient-7);}.cls-10{fill:url(#linear-gradient-8);}.cls-11{fill:url(#linear-gradient-9);}.cls-12{fill:url(#linear-gradient-10);}.cls-13{fill:url(#linear-gradient-11);}.cls-14{fill:#95351f;}.cls-15{fill:url(#linear-gradient-12);}.cls-16{fill:url(#linear-gradient-13);}.cls-17{fill:#651f0d;}.cls-18{fill:#a91f25;}.cls-19{fill:url(#linear-gradient-14);}.cls-20{opacity:0.05;}</style><linearGradient id="linear-gradient" x1="566.03" y1="522.12" x2="566.03" y2="495.77" gradientUnits="userSpaceOnUse"><stop offset="0" stop-color="#ed3326"/><stop offset="1" stop-color="#faed14"/></linearGradient><linearGradient id="linear-gradient-2" x1="412.77" y1="223.62" x2="412.77" y2="370.81" gradientUnits="userSpaceOnUse"><stop offset="0" stop-color="#010101"/><stop offset="1" stop-color="#f48420"/></linearGradient><linearGradient id="linear-gradient-3" x1="600.61" y1="300.34" x2="614.6" y2="388.39" gradientTransform="matrix(-1, 0, 0, 1, 1108.83, 0)" xlink:href="#linear-gradient"/><linearGradient id="linear-gradient-4" x1="577.13" y1="280.73" x2="623.45" y2="375.63" gradientTransform="matrix(-1, 0, 0, 1, 1108.83, 0)" xlink:href="#linear-gradient"/><linearGradient id="linear-gradient-5" x1="594.35" y1="306.86" x2="614.34" y2="374.99" gradientTransform="matrix(-1, 0, 0, 1, 1108.83, 0)" xlink:href="#linear-gradient-2"/><linearGradient id="linear-gradient-6" x1="397.06" y1="232.39" x2="423.36" y2="397.98" xlink:href="#linear-gradient"/><linearGradient id="linear-gradient-7" x1="412.7" y1="193.67" x2="412.7" y2="377.4" xlink:href="#linear-gradient"/><linearGradient id="linear-gradient-8" x1="413.33" y1="224.03" x2="413.33" y2="370.81" xlink:href="#linear-gradient-2"/><linearGradient id="linear-gradient-9" x1="339.55" y1="311.28" x2="352.87" y2="395.19" gradientTransform="translate(83.95 -77.21) rotate(14.54)" xlink:href="#linear-gradient"/><linearGradient id="linear-gradient-10" x1="320.3" y1="303.9" x2="359.56" y2="384.33" gradientTransform="translate(83.95 -77.21) rotate(14.54)" xlink:href="#linear-gradient"/><linearGradient id="linear-gradient-11" x1="335.61" y1="318.92" x2="354.91" y2="384.71" gradientTransform="translate(83.95 -77.21) rotate(14.54)" xlink:href="#linear-gradient-2"/><linearGradient id="linear-gradient-12" x1="403.5" y1="316.53" x2="403.5" y2="360.13" gradientUnits="userSpaceOnUse"><stop offset="0" stop-color="#f48420"/><stop offset="1" stop-color="#be242e" stop-opacity="0"/></linearGradient><linearGradient id="linear-gradient-13" x1="358.35" y1="349.06" x2="374.82" y2="323.39" gradientUnits="userSpaceOnUse"><stop offset="0" stop-color="#be242e" stop-opacity="0"/><stop offset="1" stop-color="#f48420"/></linearGradient><linearGradient id="linear-gradient-14" x1="432.75" y1="315.5" x2="460.31" y2="350.14" xlink:href="#linear-gradient-12"/></defs><g class="cls-1"><g id="Layer_1" data-name="Layer 1"><path class="cls-2" d="M567.6,522.12s2.87-7.83,4.43-9.13,9.65-13.57,9.65-13.57l-8.34-3.65-23,.26,12.52,17Z"/><path class="cls-3" d="M119.37,493.58v40.58h20.39V544.3H109.18V493.58Z"/><path class="cls-3" d="M146.17,493.58h10.19V544.3H146.17Z"/><path class="cls-3" d="M195.24,493.45v10.16H174.86v10.23h15.29V524H174.86v20.36h-10.2V493.45Z"/><path class="cls-3" d="M232.24,493.45v10.16H211.85v10.23h15.29V524H211.85v10.23h20.39v10.13H201.65V493.45Z"/><path class="cls-3" d="M252.78,534.31c2.81,0,5.92-2.34,5.92-5.15,0-4.63-6.21-5.28-9.72-6.49-6.18-2.11-11.65-7.19-11.65-14.1a15.48,15.48,0,0,1,30.8-2.13L258,508.57a5.15,5.15,0,0,0-10.29,0c0,4.56,5.78,5.78,9.3,6.83,6.4,1.84,12.05,6.72,12.05,13.78,0,8.55-7.68,15.46-16.21,15.46-7.85,0-14.94-5.75-16.09-13.31l10.12-2.15c0,2.83,3.07,5.14,5.94,5.14Z"/><path class="cls-3" d="M308.77,493.58v10.1H296.31V544.3H286.08V503.68H273.59v-10.1Z"/><path class="cls-3" d="M324.8,493.58l9.25,17.58,9.25-17.58h11.55l-15.73,29V544.3H329V522.55l-15.7-29Z"/><path class="cls-3" d="M371.45,493.58v40.58h20.39V544.3H361.26V493.58Z"/><path class="cls-3" d="M428.83,493.45v10.16H408.45v10.23h15.29V524H408.45v10.23h20.38v10.13H398.25V493.45Z"/><path class="cls-3" d="M469.22,493.58v40.58h20.39V544.3H459V493.58Z"/><path class="cls-3" d="M535.91,500.75a25.62,25.62,0,1,1-18.19-7.58A24.87,24.87,0,0,1,535.91,500.75ZM506.8,508a15.43,15.43,0,0,0,21.81,21.83A15.43,15.43,0,1,0,506.8,508Z"/><path class="cls-3" d="M627.71,521.61V493.45h10.22v51.88L607.35,516.2v28.16h-10.2V492.51Z"/><path class="cls-3" d="M670.08,493.26a25.88,25.88,0,0,1,18.21,7.52L681,508.05a15,15,0,0,0-10.89-4.56A15.52,15.52,0,0,0,654.72,519a14.9,14.9,0,0,0,4.53,10.92,14.72,14.72,0,0,0,10.89,4.53,15.39,15.39,0,0,0,13.91-8.88H669.57v-9.72h26c.73,9.48-2.38,16.36-7.39,21.33a24.88,24.88,0,0,1-18.18,7.52A25.73,25.73,0,0,1,644.34,519a25,25,0,0,1,7.55-18.22,24.58,24.58,0,0,1,18.16-7.58Z"/><path class="cls-3" d="M732.71,493.45v10.16H712.32v10.23h15.29V524H712.32v10.23h20.39v10.13H702.13V493.45Z"/><path class="cls-3" d="M587.76,495.23l1.24-1.62H546.25l1.24,1.62c.13.16,12.45,16.13,14.27,18.93,1.71,2.61,2.42,5.16,2.42,14.15a29.52,29.52,0,0,1-.62,6.72,5.6,5.6,0,0,1-2.35,3.34c-2,1.35-5.76,3.85-6.76,4.39L551,544.64h33.33l-3.49-1.88c-1.06-.58-4.8-3.08-6.77-4.4a5.64,5.64,0,0,1-2.32-3.29,28.87,28.87,0,0,1-.64-6.76c0-9,.72-11.54,2.42-14.15C575.31,511.36,587.63,495.39,587.76,495.23ZM569.89,512.7a15,15,0,0,0-2.26,5.68,15.18,15.18,0,0,0-2.26-5.68C564.24,511,554,497.43,554,497.43a39,39,0,0,0,5.08.11c.54,0,.85,0,.85,0,3.7-.12,7.49-.27,11.29,1,2.82,1,5.28,2.1,7.41,2.46C578.67,501,570.71,511.44,569.89,512.7Z"/><path class="cls-4" d="M469.73,287.54c-3.66,39.58-35.91,24.19-41,53.51-26.39-41.78,13.92-54.24-6.6-96.75,5.13,26.38-51.13,47.33-23.46,102.61-13.19,1.47-42.51-14.66-43.24-44.71a111.24,111.24,0,0,0-2.75,13.16c1.55,2.62,3.07,5.26,4.49,8l-4.6,2.16c-.24-.59-.51-1.16-.75-1.75-2.28,39.36,22.24,65,62.25,65C476.93,388.69,479.26,333.72,469.73,287.54Z"/><path class="cls-5" d="M524.17,309.13c5.2,22.08.11,28.47-10.39,37,18.84-27.93-15.59-41.57,18.84-74.7-65,9.74-88.31,106.07-46.08,113.72C529.37,392.93,549.51,357.85,524.17,309.13Z"/><path class="cls-6" d="M527.91,341.24c-9.07,7.26-12.7,15.42-24.49,14.52,16.21-34.29-13-38.84,12.31-75.22-35.73,18.84-62.53,83.62-33.13,100C504.69,392.93,526.09,379.34,527.91,341.24Z"/><path class="cls-7" d="M480.74,373.9c12.31,12.31,38.9,4.54,43.43-19.95-8.44,12.34-21.66,12.69-29.82,9.06,6-13.19,7.25-14.51,3.63-52.61C493.44,335.8,463.51,356.66,480.74,373.9Z"/><path class="cls-8" d="M364.89,233c-8.77,32.9,4.75,38.82,5,60.89-1.38-63.81,57.83-67.46,17.62-121.56,48.24,26.32,68,68,54.83,117,19-12.43,24.12-46.05,5.11-81.14,38.74,30,81.4,186.22-30,185.66C344.79,393.4,296.92,337.48,364.89,233Z"/><path class="cls-9" d="M355.39,276.81c-1.46,22.29,13,43.3,27.78,56.28-21.2-57.74,44.07-85.58,26.31-128.64,30,24.85,28.51,82.59,16.08,115.49,11.7-29.24,44.35-12.92,40.94-59.21,18,50.19,26.54,130.11-49,130.11C351.74,390.84,333.46,339.67,355.39,276.81Z"/><path class="cls-10" d="M356.12,302.4c.73,30,30,46,43.13,44.58-27.6-55.13,28.51-76,23.39-102.33,20.47,42.39-19.74,54.82,6.58,96.48,5.12-29.23,37.28-13.88,40.93-53.35,9.5,46.05,7.18,100.87-55.55,100.87C367.82,388.65,342.24,353.56,356.12,302.4Z"/><path class="cls-11" d="M312.2,312c-6.26,22.95-2.61,32.2,6.87,42.21-9.36-29.53,23.6-31.24,2.18-77.13,35.24,31.49,62.93,114,14.33,115.39C293.58,393.71,287.55,350.57,312.2,312Z"/><path class="cls-12" d="M305.64,344.06c6.51,8.7,7.88,16.95,18.77,18.9-3.2-35,13-26.45,10.23-63.12,17,29,40.35,86.24.08,90.14C318.05,391.6,298.33,379,305.64,344.06Z"/><path class="cls-13" d="M340.77,387c-14,8.28-33.58-8.36-31.94-31.61,5.71,10.47,13.85,17.62,22.09,16.25-5-11.89-3.25-27.3,9.08-48.51C331.2,345.28,370.1,369.73,340.77,387Z"/><path class="cls-3" d="M396.66,406.57c-13.15,0-26.17-1.57-34.83-4.2-17.5-5.33-20.78-20.29-21.26-23.24-.95-5.84-.77-15.14-.75-16.19,0-19.39,7.48-28.67,15.82-37.22,10.15-10.42,27.07-16.39,46.41-16.39a111.39,111.39,0,0,1,29.14,4.11c22.3,6.08,40.06,12.42,54.3,23.6,15.17,11.91,16.89,21.5,17.46,24.65.93,5.19,1,18.13-.82,24.69s-11.71,13.16-29.7,13.16c-2,0-4.08-.07-6.2-.23-2.52-.19-5.11-.28-7.69-.28-12.87,0-24,2.32-33.83,4.37l-.14,0c-2.93.61-5.71,1.19-8.41,1.68A112.94,112.94,0,0,1,396.66,406.57Z"/><path class="cls-3" d="M498.6,362.47c-.7-3.94-2.89-11.79-15.84-22-13.67-10.74-30.64-16.79-52.73-22.81-33.92-9.24-59.51-.92-71.23,11.1-7.47,7.66-14.57,16.06-14.57,34.25,0,0-.23,9.7.7,15.37.59,3.65,4,15.41,18.19,19.72s38.68,5.09,52.25,2.62,30.22-7.39,51.19-5.85,30.08-5.26,31.31-9.71C499.53,379.23,499.41,367,498.6,362.47Z"/><path class="cls-14" d="M440.8,395.68c.41-4.57,1.36-15.52,1.36-19.33,0-4.87-.69-10.66-3.71-14.36s-3.24-7.18-6.48-3.94-4.63,5.56-6.49,6-5.09-.23-8.34,1.85-3.24,3.25-.92,6,5.79,3.24,6.48,8.8c.64,5.09.37,14.41.32,18.25C428.47,397.87,434.38,396.61,440.8,395.68Z"/><path class="cls-14" d="M383,324.35c-5.41,7.56-6.83,21.91.35,27.93s15.32,12.05,21.57,7c0,0-1.34,4.13-4.12,4.83,0,0,9.61,4.1,13.32-.24,2.35-2.75,6.07-3.23,9.08-4.62s6-3,5.32-6.26-1.39-4.63-1.62-7.18-3-4.63-7.41-6.48-5.79,3.47-11.81,4.4a28.43,28.43,0,0,0,7.18-8.34c2.78-5.1,2.31-5.56,4.17-7.41s4.39-7.86,2.09-12.73a96.5,96.5,0,0,0-25.58-1.5A36.65,36.65,0,0,0,383,324.35Z"/><path class="cls-15" d="M408.76,362.39a11.75,11.75,0,0,1-1.44-.1,12.76,12.76,0,0,0,.84-2l2.24-7.8-7.68,4.07a4.68,4.68,0,0,1-3.12,1.14h0c-4.45,0-10.71-5.24-14.07-8.06-5.43-4.56-4.39-16.83.24-23.3a33.4,33.4,0,0,1,10.71-9.27c2-.14,4-.21,6-.21a97,97,0,0,1,16,1.37,10.12,10.12,0,0,1-1.9,7.27,11.67,11.67,0,0,0-2.73,4.13c-.41.89-1,2.13-2,4.06a54.68,54.68,0,0,1-5.84,8.36l-6.81,7.12c3.59-.56,14.91-4.38,16.61-5.64a6.61,6.61,0,0,1,1.93-1.2,1.31,1.31,0,0,1,.43.12c5.13,2.16,5.32,3.61,5.32,3.62a24.88,24.88,0,0,0,.93,4.63c.25.88.5,1.78.75,3,.11.53-.94,1.28-3.4,2.42-.74.34-1.59.63-2.5,1-2.45.85-5.5,1.92-7.76,4.56A3.77,3.77,0,0,1,408.76,362.39Z"/><path class="cls-14" d="M415.68,382.7c0-2.88-1.08-7.05-4.1-8.9s-6-1.85-11.11-2.78a24.71,24.71,0,0,1-11.58-5.79c-2.78-2.32-5.1-7.18-6.72-6s-3,3-3,8.8-1.16,8.57.92,11.81a14.6,14.6,0,0,1,2.78,8.8c0,2.58-.09,9.74-.13,12.57,11.79,1.06,24.5.79,33-.74C415.7,396.66,415.68,385.1,415.68,382.7Z"/><path class="cls-14" d="M351.82,367.08c3.71-2.08,7.88-8.34,8.57-11.81a17.53,17.53,0,0,0-.69-7.64s5.1,6.71,9,5.32,4.17-6.25,4.4-11.11a33.74,33.74,0,0,1,4.41-14.6c2.22-3.56,4.09-10.62,4.23-11.16-9.8,2.69-17.47,7.19-22.53,12.39-7.47,7.66-14.57,16.06-14.57,34.25,0,0,0,.17,0,.47C345.51,364.5,348.66,368.86,351.82,367.08Z"/><path class="cls-16" d="M350.21,364.05a6.09,6.09,0,0,1-2.1-1.93c.17-16.17,6.26-23.73,13.59-31.25a42.24,42.24,0,0,1,14.75-9.4,23.84,23.84,0,0,1-1.83,3.95,36.87,36.87,0,0,0-4.92,16.25c-.21,4.35-.48,7.47-2.11,8-1,0-3.52-2-5.16-4.17l-6,3.17a14,14,0,0,1,.58,5.89C356.5,357.19,352.91,362.47,350.21,364.05Z"/><path class="cls-14" d="M475.28,376.58c-.46-3.24-3-7.88-6.48-10.66s-4.17-1.15-9.27-2.54-10.19-3.94-11.81-3.94-4.63-.7-3,2.78,3.47,4.17,3.24,13.2c-.18,6.94.1,15.68.24,19.38a113.52,113.52,0,0,1,18.81-.22,73.62,73.62,0,0,0,7.43.2C474.76,390.85,475.67,379.26,475.28,376.58Z"/><path class="cls-14" d="M375.68,382.6c0-2.78-1.62-3.7-1.39-9s3-13.44-1.39-14.36-6.48-1.16-9.49,2.78-7,7.41-7.18,14.13c-.21,6,1.38,14,1.73,19.33a29.38,29.38,0,0,0,5.6,2.37,82.09,82.09,0,0,0,11.66,2.48C375.33,396.61,375.68,384.94,375.68,382.6Z"/><path class="cls-3" d="M389.26,321.83a19.19,19.19,0,0,0-4.6,7.57,29.16,29.16,0,0,0-1.45,8.65,20.71,20.71,0,0,0,1.35,8.55,18.05,18.05,0,0,0,5.17,7.14,14.1,14.1,0,0,1-6.59-6.49,18,18,0,0,1-1.57-4.51,23,23,0,0,1-.35-4.74,23.85,23.85,0,0,1,2-9.18,17.53,17.53,0,0,1,2.49-4A12.14,12.14,0,0,1,389.26,321.83Z"/><path class="cls-3" d="M383.36,363.64a25.25,25.25,0,0,0,5.92,5.93,23.48,23.48,0,0,0,7.6,3.06c1.35.35,2.72.62,4.11.85.69.12,1.39.23,2.08.32l1.05.13.52.06.62.1a9.06,9.06,0,0,1,4,2.21,7.74,7.74,0,0,1,2.38,3.68,10.31,10.31,0,0,0-6.65-4.35l-.45,0H404l-1.1-.06c-.73,0-1.45-.11-2.18-.19a39.93,39.93,0,0,1-4.32-.78,19.83,19.83,0,0,1-8-3.76A16.92,16.92,0,0,1,383.36,363.64Z"/><path class="cls-17" d="M423,399c5.45-1.13,11.36-2.38,17.78-3.31.37-4.13,1.18-13.46,1.33-18-7.05,1-13.48,2.33-19.38,3.55C423.32,386.37,423.07,395.24,423,399Z"/><path class="cls-18" d="M499.42,366.29c-.09-1.4-.21-2.64-.35-3.6a30.65,30.65,0,0,1-.81,4.37,4.85,4.85,0,0,1-.4,1A7.35,7.35,0,0,0,499.42,366.29Z"/><path class="cls-17" d="M375.68,382.6v0A83.18,83.18,0,0,1,363.42,380a28.06,28.06,0,0,1-7.2-3.31c-.1,6,1.42,13.74,1.75,18.87a28.33,28.33,0,0,0,5.45,2.28,82,82,0,0,0,11.79,2.5C375.33,396.66,375.68,384.94,375.68,382.6Z"/><path class="cls-17" d="M475.32,376.93a75.73,75.73,0,0,1-8.39-.18,114.71,114.71,0,0,0-19,.24c-.11,6.64.14,14.4.27,17.81a113.82,113.82,0,0,1,18.74-.21c2.69.2,5.19.26,7.5.21C474.74,391,475.6,380.11,475.32,376.93Z"/><path class="cls-17" d="M415.68,382.7s0-.07,0-.1c-8.65,1.57-21.73,1.81-33.75.68a13.84,13.84,0,0,1,.94,5.34c0,2.59-.09,9.76-.13,12.58,11.81,1.05,24.51.77,33-.76h0C415.7,396.63,415.68,385.1,415.68,382.7Z"/><path class="cls-14" d="M482.46,360.13c-5.09-2.54-9.26-2.78-13.43-6.25s-12-4.63-12-4.63,6-1.62,8.81-.93,6.48-.93,2.78-3-5.33-6.95-5.33-10.89c0,0,3,6.72,6.72,7.65,3.08.77,6.2-3.9,7.56-5.22h0s.21-.22.47-.44c-12.73-8.46-28.15-13.76-47.51-19-1.83-.5-3.64-.93-5.42-1.33.07.38,1.06,6-.73,10.74-1.85,4.86-3.93,7.41-2.08,8.8s7.64.7,10,2.32,5.1,1.39,7.64,1.39,4.4,3.24,4.4,3.24a10.47,10.47,0,0,0-8.1-.93c-4.4,1.39-5.1,6.26-3.71,7.65s6.49,5.33,11.81,4.86,10.66,2.32,14.83,4.17,6.95.46,9.5,3.24,5.32,7.18,10,10,10,1.39,10.65-1.62S487.56,362.68,482.46,360.13Z"/><path class="cls-19" d="M483.77,369.55a6.94,6.94,0,0,1-3.48-1c-2.93-1.76-5.11-4.44-7-6.79-.7-.86-1.36-1.67-2-2.41a44.53,44.53,0,0,0,4.64,1.83,42.64,42.64,0,0,1,5.07,2c3.85,1.93,5.08,4.65,4.92,5.79a3.31,3.31,0,0,1-2.08.55Zm-16.89-13a19.2,19.2,0,0,0-2.73-.53,12.36,12.36,0,0,1-3.68-.9l-1.38-.62c-3.82-1.74-8.56-3.9-13.65-3.9-.49,0-1,0-1.49.07l-.58,0c-3.42,0-6.85-2.44-8.14-3.56a2.62,2.62,0,0,1,1.94-2.27,6.18,6.18,0,0,1,1.87-.28,7.48,7.48,0,0,1,3.42.87l11.18,6.61-6.41-11.26c-.29-.5-3-5-7.39-5h-1.73a6.81,6.81,0,0,1-3.94-.78c-1.93-1.35-4.5-1.61-7-1.87-.54,0-1.21-.12-1.8-.21.18-.42.39-.89.58-1.32.46-1,1-2.25,1.57-3.68a22.08,22.08,0,0,0,1.28-7.51l.75.2c13.81,3.77,25.62,7.53,35.86,12.52l-5.63,1.21A18.28,18.28,0,0,0,463,344.75a39.37,39.37,0,0,0-6.86,1.18l.39,6.72c1.93.29,7.56,1.55,10.35,3.87Zm3.81-17.87c-1-.36-2.69-2.52-3.89-4.8q3,1.52,5.85,3.21A6.45,6.45,0,0,1,470.69,338.7Z"/><path class="cls-14" d="M489.41,345.65a68,68,0,0,0-6.21-5.47l-.63-.47-.2.13c-1.12.85-8.05,6.16-8.48,8.71-.46,2.78,2.78,3.71,6,2.55s6-5,9.48-5.45Z"/><path class="cls-14" d="M499,362.14c-.53-2.95-1.89-8.09-8-14.76h0s-4.19,1.87-4.19,4.42.7,4.16,3.71,6.94,4.17,4.17,3.94,7.42,2.59,3.75,5,.06A38.36,38.36,0,0,0,499,362.14Z"/><path class="cls-3" d="M487,365.89a3.37,3.37,0,0,1,.46,1.53,2.57,2.57,0,0,1-.53,1.55,4.14,4.14,0,0,1-3,1.38,7.83,7.83,0,0,1-3.25-.53,13.72,13.72,0,0,1-2.85-1.6c-3.58-2.47-6.06-6.17-8.85-9.19a5.21,5.21,0,0,0-2.51-1.42c-1-.24-2-.33-3.11-.52a14.54,14.54,0,0,1-3.15-.91c-1-.42-1.93-.9-2.9-1.35a44.82,44.82,0,0,0-5.85-2.38,18.25,18.25,0,0,0-6.23-1,17.11,17.11,0,0,1,6.36.5,42.37,42.37,0,0,1,6,2.15l2.92,1.25a13.74,13.74,0,0,0,3,.81c1,.17,2.09.24,3.18.49a7,7,0,0,1,1.61.6,6.37,6.37,0,0,1,1.38,1c1.52,1.6,2.72,3.32,4.12,4.91a28.91,28.91,0,0,0,4.51,4.34A13.29,13.29,0,0,0,481,369.2a7.11,7.11,0,0,0,3,.63,3.82,3.82,0,0,0,2.76-1A2.61,2.61,0,0,0,487,365.89Z"/><path class="cls-3" d="M531.9,375.56c-.46.65-1,1.27-1.46,1.88-.37.46-.75.91-1.14,1.34s-.59.66-.9,1l-.95,1c-.38.36-.77.72-1.16,1.06s-.69.61-1,.9c-.57.46-1.14.91-1.73,1.33l-.85.59c-.52.35-1,.69-1.58,1l-.75.45a40.39,40.39,0,0,1-8.49,3.67l-7.66,7.65L500.61,401l-23.83,23.83-19.53-19.52c-2.32,0-4.61.15-6.83.33l21.32,21.32-46.26,0,20.9-20.9c-2.86.32-5.64.72-8.34,1.17l-17.62,17.63-12.27-12.27c-2.13.2-4.38.35-6.73.44l13.92,13.93-40.48,0L388.74,413q-3.45-.12-6.81-.36l-12.16,12.16-27.34-27.34a24.56,24.56,0,0,1-6.63.53l3.92,3.93-22.88,22.88-16.09-16.09,13.93-13.93a35.16,35.16,0,0,1-14.33-10.51,14.72,14.72,0,0,1-.91-1.48l-13.16,13.37L267,415.37l-15.13,15,1.2,3,10.5,25.92H578.74l10.51-25.92L590,431ZM282.64,426.83l14.52-14.53,14.55,14.55Zm39.32,0,21.34-21.34,21.37,21.37Zm159.85.09,22.38-22.38L526.6,427Zm26-26,12-12,23.84,23.83-12,12Zm28.83,26,10.56-10.56L557.74,427Z"/><path class="cls-3" d="M106.1,75.52V88.88H79.3v13.45H99.4v13.36H79.3v26.76H65.9V75.52Z"/><path class="cls-3" d="M127.64,75.69v53.36h26.81v13.32H114.24V75.69Z"/><path class="cls-3" d="M265.37,143.86,235.3,75.69h14.19l15.84,36.52,15.88-36.52h14.36Z"/><path class="cls-3" d="M352.81,85.12a33.7,33.7,0,0,1,0,47.86,33.83,33.83,0,0,1-57.74-23.91,33.78,33.78,0,0,1,57.74-23.95Zm-38.26,9.51a20.27,20.27,0,0,0,0,28.71,20.28,20.28,0,1,0,28.66-28.71,20.23,20.23,0,0,0-28.66,0Z"/><path class="cls-3" d="M411.29,116V75.69h13.48v40.37a27,27,0,1,1-53.93,0V75.69h13.48V116a13.49,13.49,0,0,0,27,0Z"/><path class="cls-3" d="M435.4,75.69h21.76a24.48,24.48,0,0,1,17.45,6.78c4.06,4.06,6.45,7.77,6.45,15.14v1.74a21.54,21.54,0,0,1-4.22,12.7,15.14,15.14,0,0,1-8,6.16l15.51,24.16H468l-19.15-29.5v29.5h-13.4ZM467.25,98a9,9,0,0,0-2.65-6.42c-1.74-1.69-5-2.64-8.27-2.64H448.8v18.4H454v0h4.47C463.32,107.42,467.25,103.11,467.25,98Z"/><path class="cls-3" d="M530.65,75.69v29.49l17.08-29.49H563.2l-19.73,33.88,22.92,32.8h-16.3l-19.44-28v28H517.29V75.69Z"/><path class="cls-3" d="M574.53,75.69h13.4v66.68h-13.4Z"/><path class="cls-3" d="M638.72,112.54v-37h13.44v68.21L612,105.43v37h-13.4V74.28Z"/><path class="cls-3" d="M694.14,75.28a34,34,0,0,1,24,9.88l-9.55,9.56a19.73,19.73,0,0,0-14.31-6A20.4,20.4,0,0,0,674,109.07a20.33,20.33,0,0,0,20.27,20.31,20.24,20.24,0,0,0,18.28-11.67h-19V104.93h34.25c.95,12.46-3.14,21.51-9.72,28a32.76,32.76,0,0,1-23.91,9.88,33.82,33.82,0,0,1-33.79-33.79,32.81,32.81,0,0,1,9.93-23.95,32.3,32.3,0,0,1,23.86-10Z"/><path class="cls-3" d="M754.58,129.24c3.7,0,7.78-3.07,7.78-6.77,0-6.09-8.17-6.94-12.78-8.54-8.13-2.77-15.31-9.44-15.31-18.52a20.34,20.34,0,0,1,40.49-2.81l-13.31,2.81a6.77,6.77,0,0,0-13.53,0c0,6,7.61,7.6,12.24,9,8.41,2.42,15.83,8.83,15.83,18.12,0,11.24-10.09,20.32-21.31,20.32-10.32,0-19.64-7.56-21.15-17.49l13.3-2.83c0,3.72,4,6.75,7.81,6.75Z"/><path class="cls-3" d="M234.15,111.19C231.6,98.41,224,82.37,215,76.39S195.08,72,179.59,91.07c0,0-10.17,13.32-12.71,27.19s.83,22.56,12,22.56c19.42,0,22.8-8.58,30-9,10.17-.54,14.56,10.06,20.57,5.16C235.23,132.37,236.69,124,234.15,111.19Z"/><path class="cls-14" d="M181.56,136.59a30.57,30.57,0,0,1-6.62-.69c-5-1.13-5.85-8.05-5-13.64.78-5.37,1.16-7.59,2.81-8.53a1.62,1.62,0,0,1,.77-.15,7.65,7.65,0,0,1,2.75.72c.46.24,1,.56,1.64.92,2.5,1.47,5.93,3.48,9.8,3.48H188a33.29,33.29,0,0,0,16.38-5.12,6.85,6.85,0,0,1,3.7-1.31,3.19,3.19,0,0,1,3.21,2.13c.19,1,.31,1.69-5.92,4.4-3.91,1.71-6.6,6-9,9.86-1.51,2.43-2.94,4.73-4.31,5.65C190,135.74,186,136.59,181.56,136.59Z"/><path class="cls-14" d="M225.32,132.31c-1.86,0-4.19-1.42-6.07-2.55l-1-.59a14.2,14.2,0,0,0-7-2.37,8.32,8.32,0,0,0-3.58.81,9.29,9.29,0,0,1-3.53,1,1.17,1.17,0,0,1-.88-.27c-.08-.11-.33-.58,0-1.94,1-3.47,5.3-5,5.85-5.22,4.43-.74,5.86-2.67,6.91-4.09.81-1.1,1.26-1.71,2.89-1.71a10.63,10.63,0,0,1,2.21.28,5.18,5.18,0,0,0,.94.1c1.82,0,2.9-1.15,3.85-2.17s1.62-1.67,2.72-1.67l.33,0c.78.09,2.19,3.85,2,9.48-.11,4.67-1.93,9.08-4.32,10.49A2.83,2.83,0,0,1,225.32,132.31Z"/><path class="cls-14" d="M187.65,112c-4.26,0-8.18-1.92-9.77-4.77a5.74,5.74,0,0,1,.34-6.08A130.51,130.51,0,0,1,188.88,86.9c6.56-6.16,12.27-9.19,17.4-9.19a13.4,13.4,0,0,1,6.19,1.54c6.17,3.14,11.27,11.64,12.93,18s.79,10.52-2.8,12.76a3.28,3.28,0,0,1-1.77.55h0a9.55,9.55,0,0,1-3.74-1.28,17.15,17.15,0,0,0-7.85-2.2h-.57a14.46,14.46,0,0,0-5.58,1.66C200,110.2,196,112,187.65,112Zm18.51-28.87a12.42,12.42,0,0,0-7.93,2.82,8.76,8.76,0,0,0-2.65,8.39,6.63,6.63,0,0,0,4.86,5,13.8,13.8,0,0,0,3.44.42c3.54,0,6.52-1.25,8.2-3.44s2-5.15,1.08-8.8C212.41,84.75,209.8,83.09,206.16,83.09Z"/><path class="cls-3" d="M573.55,70.41,588.61,65a4,4,0,0,0,2.45-5.18l-3-8.29L584,56.86l-9.3-6.92L572.2,61.08l-6.66-1L568.37,68A4,4,0,0,0,573.55,70.41Z"/><g class="cls-20"><path class="cls-3" d="M503.33,20.24C350.75-22,209.53,57.81,155.44,183.86c-18.54,35.66-23.29,97.46-23.29,97.46s23.64-52.78,71.4-100.24c7.81-7.75,30.23-34.62,65.45-47.26l.06.36a121,121,0,0,0,4.77,17.17,75.09,75.09,0,0,0,8,15.52,71.85,71.85,0,0,1-2.34-16.63,112.35,112.35,0,0,1,1.11-16.45c.67-4.49,1.56-8.92,2.63-13.29,5.34-12.58,16.14-33.79,32.18-45.34,23.77-17.11,35.42-18.06,41.36-12.83s7.13,23.29,5.7,39.21a157.84,157.84,0,0,1-2.58,17.37c-1.22,4.63-2.65,9.22-4.33,13.74a113.58,113.58,0,0,1-7,14.94A72.43,72.43,0,0,1,338.51,161,75.63,75.63,0,0,0,353,151.3a122,122,0,0,0,12.46-12.74c2.13-2.55,4.16-5.18,6.13-7.87,8.92.32,20.18,1.41,28.67,4.61,16.4,6.18,31.61,12.59,57,33,0,0-5-6.85-9.89-13.35-5.2-6.87-5.32-14.93-2.23-22.3s21.39-41.12,55.86-41.83c0,0,10,8.08,7.84,27.81s-8.32,33.27-15,42.54c-2.83,3.94-6.3,8.52-9.36,12.49A13.11,13.11,0,0,0,486,191.22c8,7.59,22.35,20.85,26.41,31.74,0,0-4.2,20.72-22.27,45.2S453,301,453,301s40.48-4.61,66.08-37.56c25-32.17,54.15-65.13,51.82-150.22,0,0,18.69,23.14,18.06,86.2s-6,82.4-6.65,91.28,5.07,18.38,3.48,33.91c-1.14,11.16-2.44,26.43-3.08,34.12a10.08,10.08,0,0,0,3.14,8.19l12.48,11.73a20.11,20.11,0,0,1,4.7,22.61l-20.95,48.68a27.82,27.82,0,0,1-16.93,15.46c-21.69,7.05-69.61,20.52-119.44,20.52-67.5,0-99.83-17.75-123.28-34.23,0,0,19,26.3,76.38,43.1,21.63,6.34,48.68,9.43,74,10.82,24.45,1.34,29.38,35.32,6.28,43.49a173.62,173.62,0,0,1-50.15,10c-71.31,3.16-107.76-.64-177.79-39.3-26.51-14.64-48.11-34.54-64.73-53.62A288.42,288.42,0,0,0,421,586.43c184.83,0,329.1-173.64,278.6-366.69C674.3,123.21,599.5,46.87,503.33,20.24Z"/><path class="cls-3" d="M517.9,424.36s20-28.09-5.33-34.38c-20.28-5-57.23,33.28-57.23,33.28S512,393.15,517.9,424.36Z"/><path class="cls-3" d="M322.51,287.39s-3.69,23.39,7.39,33.24,33.24,6.16,39.4,1.23C369.3,321.86,339.82,317.87,322.51,287.39Z"/></g></g></g></svg>