<svg xmlns="http://www.w3.org/2000/svg" xmlns:xlink="http://www.w3.org/1999/xlink" viewBox="0 0 841.89 595.28"><defs><style>.cls-1{isolation:isolate;}.cls-2{fill:#010101;}.cls-10,.cls-13,.cls-3,.cls-7{mix-blend-mode:screen;}.cls-3{fill:url(#linear-gradient);}.cls-4{fill:url(#linear-gradient-2);}.cls-5{fill:url(#linear-gradient-3);}.cls-6{fill:url(#linear-gradient-4);}.cls-7{fill:url(#linear-gradient-5);}.cls-8{fill:url(#linear-gradient-6);}.cls-9{fill:url(#linear-gradient-7);}.cls-10{fill:url(#linear-gradient-8);}.cls-11{fill:url(#linear-gradient-9);}.cls-12{fill:url(#linear-gradient-10);}.cls-13{fill:url(#linear-gradient-11);}.cls-14{fill:#f9d2c1;}.cls-15{fill:#be242e;}.cls-16{fill:url(#linear-gradient-12);}.cls-17{fill:url(#linear-gradient-13);}.cls-18{fill:#941d22;}.cls-19{fill:#a91f25;}.cls-20{fill:url(#linear-gradient-14);}.cls-21{fill:url(#linear-gradient-15);}.cls-22{fill:#95351f;}.cls-23{opacity:0.05;}</style><linearGradient id="linear-gradient" x1="413.2" y1="115.89" x2="413.2" y2="275.12" gradientUnits="userSpaceOnUse"><stop offset="0" stop-color="#010101"/><stop offset="1" stop-color="#f48420"/></linearGradient><linearGradient id="linear-gradient-2" x1="416.1" y1="211.04" x2="416.1" y2="329.52" gradientUnits="userSpaceOnUse"><stop offset="0" stop-color="#ed3326" stop-opacity="0"/><stop offset="1" stop-color="#faed14"/></linearGradient><linearGradient id="linear-gradient-3" x1="592.38" y1="198.88" x2="607.5" y2="294.14" gradientTransform="matrix(-1, 0, 0, 1, 1108.83, 0)" gradientUnits="userSpaceOnUse"><stop offset="0" stop-color="#ed3326"/><stop offset="1" stop-color="#faed14"/></linearGradient><linearGradient id="linear-gradient-4" x1="566.97" y1="177.67" x2="617.07" y2="280.33" xlink:href="#linear-gradient-3"/><linearGradient id="linear-gradient-5" x1="585.6" y1="205.94" x2="607.22" y2="279.63" gradientTransform="matrix(-1, 0, 0, 1, 1108.83, 0)" xlink:href="#linear-gradient"/><linearGradient id="linear-gradient-6" x1="396.21" y1="125.38" x2="424.66" y2="304.51" gradientTransform="matrix(1, 0, 0, 1, 0, 0)" xlink:href="#linear-gradient-3"/><linearGradient id="linear-gradient-7" x1="413.13" y1="83.49" x2="413.13" y2="282.24" gradientTransform="matrix(1, 0, 0, 1, 0, 0)" xlink:href="#linear-gradient-3"/><linearGradient id="linear-gradient-8" x1="413.81" y1="116.34" x2="413.81" y2="275.12" xlink:href="#linear-gradient"/><linearGradient id="linear-gradient-9" x1="308.49" y1="215.28" x2="322.91" y2="306.06" gradientTransform="translate(83.95 -77.21) rotate(14.54)" xlink:href="#linear-gradient-3"/><linearGradient id="linear-gradient-10" x1="287.67" y1="207.3" x2="330.14" y2="294.3" gradientTransform="translate(83.95 -77.21) rotate(14.54)" xlink:href="#linear-gradient-3"/><linearGradient id="linear-gradient-11" x1="304.23" y1="223.54" x2="325.11" y2="294.71" gradientTransform="translate(83.95 -77.21) rotate(14.54)" xlink:href="#linear-gradient"/><linearGradient id="linear-gradient-12" x1="401.85" y1="188.02" x2="401.85" y2="269.74" gradientUnits="userSpaceOnUse"><stop offset="0.27" stop-color="#f6b429"/><stop offset="0.4" stop-color="#ed782c"/><stop offset="0.6" stop-color="#ed3326"/><stop offset="1" stop-color="#be242e"/></linearGradient><linearGradient id="linear-gradient-13" x1="344.79" y1="260.17" x2="385.69" y2="196.43" gradientUnits="userSpaceOnUse"><stop offset="0" stop-color="#be242e"/><stop offset="0.4" stop-color="#ed3326"/><stop offset="0.6" stop-color="#ed782c"/><stop offset="0.73" stop-color="#f6b429"/></linearGradient><linearGradient id="linear-gradient-14" x1="409.45" y1="183.74" x2="481.16" y2="268.41" gradientUnits="userSpaceOnUse"><stop offset="0.27" stop-color="#f6b429"/><stop offset="0.4" stop-color="#ed782c"/><stop offset="0.6" stop-color="#ed3326"/><stop offset="0.98" stop-color="#be242e"/></linearGradient><linearGradient id="linear-gradient-15" x1="571.47" y1="509.53" x2="571.47" y2="483.19" gradientTransform="matrix(1, 0, 0, 1, 0, 0)" xlink:href="#linear-gradient-3"/></defs><g class="cls-1"><g id="Layer_1" data-name="Layer 1"><path class="cls-2" d="M570.94,313.05l-3.24-3.24-24,24a2.13,2.13,0,0,0-.36-.49l-26.73-26.73,24.07-24.07-3.24-3.24-24.07,24.07-67.48-67.48a2.29,2.29,0,0,0-3.24,3.24l67.48,67.48L483,333.74l-27.3-27.3,18.09-18.09a2.29,2.29,0,1,0-3.24-3.25l-18.1,18.1-30-30a2.29,2.29,0,0,0-3.24,3.25l30,30-27.31,27.3-27.3-27.3,18.1-18.09a2.29,2.29,0,1,0-3.24-3.25l-18.1,18.1-28.14-28.14,16-16a2.29,2.29,0,1,0-3.24-3.24l-16.87,16.87a2.42,2.42,0,0,0-1,.57,2.31,2.31,0,0,0-.57,1l-28.14,28.15-29.13-29.14a2.29,2.29,0,1,0-3.24,3.25l29.13,29.13-25.92,25.91-23.09-23.09-3.24,3.25,23.1,23.1a2.28,2.28,0,0,0,1.71,3.79,2.33,2.33,0,0,0,1.51-.57l.16.16,3.24-3.24-.15-.15,25.92-25.92,29.31,29.31a2.27,2.27,0,0,0,1.62.67,2.24,2.24,0,0,0,.92-.2h.16A2.25,2.25,0,0,0,363,338l28.29-28.29L419.67,338a2.34,2.34,0,0,0,1.63.67,2.49,2.49,0,0,0,.6-.09,2.78,2.78,0,0,0,.57.07,2.29,2.29,0,0,0,1.62-.67l28.33-28.33,27.9,27.9a2.33,2.33,0,0,0,1.62.67,2.29,2.29,0,0,0,1.62-.67,2.25,2.25,0,0,0,.51-.77l1.16,1.16,28.14-28.14,26.73,26.73a2.27,2.27,0,0,0,3.24,0,2.24,2.24,0,0,0,.54-.86l2.2,2.21ZM360.79,333.74l-28.14-28.13,27.3-27.3,28.14,28.13Z"/><polygon class="cls-2" points="599.92 334.5 508.82 242.86 508.82 258.99 589.57 339.74 599.65 339.74 599.92 334.5"/><path class="cls-3" d="M474.82,185c-4,42.82-38.85,26.17-44.4,57.88-28.54-45.2,15.07-58.68-7.14-104.66,5.56,28.54-55.31,51.2-25.37,111-14.27,1.58-46-15.86-46.78-48.37a122.21,122.21,0,0,0-3,14.23c1.68,2.84,3.32,5.7,4.87,8.62l-5,2.33c-.26-.64-.55-1.26-.82-1.89-2.46,42.58,24.07,70.27,67.34,70.27C482.61,294.46,485.13,235,474.82,185Z"/><polygon class="cls-2" points="243.84 334.5 304.03 273.77 304.03 289.89 254.18 339.74 244.1 339.74 243.84 334.5"/><ellipse class="cls-4" cx="416.1" cy="279.41" rx="113.95" ry="44.34"/><path class="cls-5" d="M533.72,208.39c5.62,23.89.11,30.8-11.25,40.05,20.38-30.21-16.86-45,20.38-80.81-70.27,10.54-95.53,114.75-49.85,123C539.34,299,561.12,261.1,533.72,208.39Z"/><path class="cls-6" d="M537.76,243.13C528,251,524,259.81,511.26,258.83c17.54-37.09-14.08-42,13.32-81.36-38.65,20.38-67.64,90.45-35.83,108.22C512.64,299,535.79,284.34,537.76,243.13Z"/><path class="cls-7" d="M486.73,278.46c13.32,13.32,42.08,4.91,47-21.58-9.14,13.35-23.44,13.73-32.27,9.8,6.48-14.27,7.85-15.7,3.93-56.91C500.47,237.24,468.09,259.81,486.73,278.46Z"/><path class="cls-8" d="M361.41,126c-9.49,35.58,5.13,42,5.45,65.86-1.5-69,62.55-73,19.06-131.49,52.19,28.46,73.54,73.53,59.31,126.51,20.56-13.44,26.09-49.81,5.53-87.77,41.91,32.42,88.06,201.45-32.41,200.85C339.66,299.55,287.87,239.06,361.41,126Z"/><path class="cls-9" d="M351.13,173.43c-1.58,24.11,14.06,46.85,30.05,60.89-22.93-62.47,47.68-92.58,28.46-139.17C442.06,122,440.48,184.5,427,220.08c12.65-31.63,48-14,44.28-64.05,19.51,54.3,28.72,140.75-53,140.75C347.18,296.78,327.41,241.43,351.13,173.43Z"/><path class="cls-10" d="M351.92,201.11c.79,32.42,32.42,49.81,46.65,48.23-29.85-59.64,30.84-82.23,25.31-110.7C446,184.5,402.53,197.94,431,243c5.53-31.62,40.32-15,44.28-57.72,10.27,49.82,7.76,109.12-60.1,109.12C364.58,294.41,336.9,256.46,351.92,201.11Z"/><path class="cls-11" d="M304.4,211.49c-6.76,24.84-2.82,34.84,7.44,45.67-10.13-32,25.53-33.8,2.36-83.44,38.12,34.07,68.08,123.29,15.5,124.83C284.27,299.89,277.74,253.22,304.4,211.49Z"/><path class="cls-12" d="M297.31,246.18c7,9.41,8.52,18.33,20.31,20.44-3.46-37.89,14.05-28.61,11.06-68.28,18.43,31.34,43.66,93.3.09,97.52C310.74,297.61,289.4,284,297.31,246.18Z"/><path class="cls-13" d="M335.31,292.66c-15.18,8.95-36.33-9.05-34.55-34.21,6.18,11.33,15,19.07,23.9,17.59-5.39-12.87-3.52-29.54,9.82-52.48C325,247.5,367,274,335.31,292.66Z"/><path class="cls-14" d="M509.91,265.84c-.8-4.44-3.81-13.88-18.48-25.34-15.48-12.1-34.53-18.31-59.54-25.09C393.48,205,365.43,214,352.16,227.53c-8.46,8.64-16.93,18.69-16.93,39.18,0,0-.77,10.74.28,17.12.68,4.12,4.54,17.37,20.6,22.23s43.81,5.73,59.17,3,34.22-8.34,58-6.6,34.06-5.92,35.46-10.94C510.58,284.75,510.83,270.92,509.91,265.84Z"/><path class="cls-15" d="M444.08,303.73c.47-5.17,1.54-17.57,1.54-21.89,0-5.51-.79-12.07-4.2-16.26s-3.67-8.13-7.34-4.46-5.25,6.29-7.35,6.82-5.77-.26-9.44,2.1-3.67,3.67-1.05,6.82,6.56,3.67,7.35,10c.72,5.77.41,16.32.35,20.67C430.12,306.21,436.81,304.79,444.08,303.73Z"/><path class="cls-16" d="M378.59,223c-6.12,8.57-7.73,24.82.4,31.64s17.35,13.64,24.43,7.87c0,0-1.53,4.69-4.67,5.48,0,0,10.88,4.64,15.08-.27,2.66-3.12,6.87-3.67,10.28-5.24s6.82-3.41,6-7.08-1.57-5.25-1.83-8.13-3.41-5.25-8.4-7.35-6.55,3.94-13.37,5a32.38,32.38,0,0,0,8.13-9.45c3.15-5.77,2.62-6.29,4.72-8.39s5-8.9,2.37-14.41a109.86,109.86,0,0,0-29-1.71A41.65,41.65,0,0,0,378.59,223Z"/><path class="cls-15" d="M415.63,289c0-3.27-1.22-8-4.63-10.09s-6.82-2.09-12.59-3.14a28.09,28.09,0,0,1-13.12-6.56c-3.15-2.62-5.77-8.13-7.61-6.82s-3.41,3.41-3.41,10-1.31,9.7,1.05,13.37,3.15,6.3,3.15,10c0,2.92-.11,11-.16,14.23,13.36,1.2,27.75.89,37.36-.84C415.66,304.84,415.63,291.75,415.63,289Z"/><path class="cls-17" d="M343.32,271.35c4.2-2.36,8.92-9.44,9.71-13.38s-.79-8.65-.79-8.65,5.77,7.6,10.23,6,4.72-7.08,5-12.59a38.15,38.15,0,0,1,5-16.53c2.52-4,4.63-12,4.79-12.64-11.1,3-19.78,8.15-25.51,14-8.46,8.68-16.5,18.19-16.5,38.79,0,0,0,.19,0,.53C336.18,268.43,339.74,273.36,343.32,271.35Z"/><path class="cls-15" d="M483.13,282.1c-.53-3.67-3.41-8.92-7.35-12.06s-4.72-1.31-10.49-2.89-11.54-4.46-13.38-4.46-5.24-.78-3.41,3.15,3.94,4.72,3.68,15c-.21,7.86.11,17.76.27,21.94a129.11,129.11,0,0,1,21.29-.25c3,.23,5.83.29,8.42.24C482.53,298.26,483.56,285.14,483.13,282.1Z"/><path class="cls-15" d="M370.34,288.92c0-3.15-1.84-4.19-1.57-10.23s3.41-15.21-1.58-16.26-7.34-1.31-10.75,3.15-7.87,8.39-8.13,16c-.24,6.78,1.57,15.89,2,21.89a32.57,32.57,0,0,0,6.33,2.68,92.15,92.15,0,0,0,13.2,2.81C369.94,304.79,370.34,291.57,370.34,288.92Z"/><path class="cls-18" d="M423.94,307.48c6.18-1.28,12.87-2.7,20.14-3.75.42-4.68,1.34-15.24,1.51-20.42-8,1.09-15.27,2.64-21.95,4C424.29,293.19,424,303.23,423.94,307.48Z"/><path class="cls-19" d="M337.87,270.1a26.79,26.79,0,0,1-2-6.44c-.19-1.18-.34-2.53-.46-3.93-.2,2.12-.32,4.36-.32,6.76v.19A17.12,17.12,0,0,0,337.87,270.1Z"/><path class="cls-19" d="M510.46,270.45c-.1-1.58-.23-3-.4-4.08a36.66,36.66,0,0,1-.91,5,6.39,6.39,0,0,1-.45,1.12A8.31,8.31,0,0,0,510.46,270.45Z"/><path class="cls-18" d="M370.34,288.92v-.05A94.06,94.06,0,0,1,356.45,286a32.2,32.2,0,0,1-8.15-3.75c-.11,6.75,1.61,15.56,2,21.37a33,33,0,0,0,6.17,2.58A93.59,93.59,0,0,0,369.81,309C369.94,304.84,370.34,291.57,370.34,288.92Z"/><path class="cls-18" d="M483.16,282.49a86.19,86.19,0,0,1-9.5-.19,128.52,128.52,0,0,0-21.52.27c-.12,7.52.16,16.3.31,20.17a129.29,129.29,0,0,1,21.21-.24c3.06.22,5.88.29,8.5.23C482.52,298.44,483.48,286.1,483.16,282.49Z"/><path class="cls-18" d="M415.63,289v-.12c-9.81,1.77-24.61,2.05-38.23.77a15.64,15.64,0,0,1,1.07,6.05c0,2.93-.11,11.05-.16,14.24,13.38,1.19,27.77.88,37.35-.86h0C415.66,304.8,415.63,291.75,415.63,289Z"/><path class="cls-20" d="M491.26,263.48c-5.77-2.89-10.49-3.15-15.21-7.08s-13.64-5.25-13.64-5.25,6.82-1.83,10-1.05,7.35-1,3.15-3.41-6-7.87-6-12.33c0,0,3.41,7.61,7.6,8.66,3.5.87,7-4.42,8.57-5.9h0s.24-.24.53-.5C471.77,227,454.3,221,432.38,215.06c-2.08-.57-4.12-1.07-6.14-1.52.08.44,1.21,6.85-.82,12.17-2.1,5.51-4.46,8.39-2.36,10s8.66.78,11.28,2.62,5.77,1.57,8.66,1.57,5,3.67,5,3.67a11.89,11.89,0,0,0-9.18-1c-5,1.57-5.77,7.08-4.2,8.65s7.35,6,13.38,5.51,12.07,2.62,16.79,4.72,7.87.53,10.75,3.67,6,8.13,11.28,11.28,11.28,1.58,12.07-1.83S497,266.36,491.26,263.48Z"/><path class="cls-15" d="M499.12,247.07a78.43,78.43,0,0,0-7-6.19l-.71-.53-.23.15c-1.27,1-9.11,7-9.6,9.86-.52,3.15,3.15,4.2,6.82,2.89s6.81-5.68,10.75-6.18Z"/><path class="cls-15" d="M510,265.75c-.6-3.34-2.14-9.16-9-16.71h0s-4.75,2.11-4.75,5,.79,4.72,4.2,7.87,4.72,4.72,4.46,8.39,2.93,4.25,5.61.07A41.12,41.12,0,0,0,510,265.75Z"/><rect class="cls-2" x="243.03" y="333.43" width="358.5" height="13.97" rx="2.93"/><path class="cls-21" d="M573,509.53s2.87-7.82,4.44-9.13,9.65-13.56,9.65-13.56l-8.35-3.65-23,.26,12.53,16.95Z"/><path class="cls-2" d="M210,397c-1.34-5-9.57-4.56-13.44-1.14s-3.42,10.48,1.82,11.85S212.7,407.27,210,397Z"/><path class="cls-2" d="M102.75,384.63v13.5H75.66v13.59H96v13.5H75.66v27H62.12V384.63Z"/><path class="cls-2" d="M124.52,384.79v53.93h27.09v13.46H111V384.79Z"/><path class="cls-2" d="M263.72,453.68l-30.39-68.89h14.34l16,36.92,16.05-36.92h14.5Z"/><path class="cls-2" d="M352.08,394.33a34,34,0,1,1-24.16-10.08A33,33,0,0,1,352.08,394.33Zm-38.66,9.61a20.48,20.48,0,0,0,0,29,20.53,20.53,0,1,0,0-29Z"/><path class="cls-2" d="M411.19,425.55V384.79h13.62v40.8a27.26,27.26,0,0,1-54.51,0v-40.8h13.63v40.76a13.63,13.63,0,0,0,27.26,0Z"/><path class="cls-2" d="M435.55,384.79h22a24.76,24.76,0,0,1,17.64,6.86c4.1,4.1,6.52,7.85,6.52,15.3v1.76a21.81,21.81,0,0,1-4.26,12.83,15.39,15.39,0,0,1-8.07,6.23l15.68,24.41H468.49l-19.35-29.81v29.81H435.59Zm32.19,22.58a9.12,9.12,0,0,0-2.67-6.48c-1.76-1.71-5.1-2.68-8.36-2.68H449.1v18.61h5.22v0h4.52C463.77,416.86,467.74,412.5,467.74,407.37Z"/><path class="cls-2" d="M531.82,384.79V414.6l17.26-29.81h15.64L544.78,419l23.16,33.15H551.47l-19.65-28.26v28.26h-13.5V384.79Z"/><path class="cls-2" d="M576.17,384.79h13.54v67.39H576.17Z"/><path class="cls-2" d="M641,422V384.63h13.58v68.93L614,414.85v37.41H600.45V383.37Z"/><path class="cls-2" d="M697.05,384.38a34.39,34.39,0,0,1,24.2,10L711.6,404A19.94,19.94,0,0,0,697.13,398,19.56,19.56,0,0,0,682.67,404a20.48,20.48,0,0,0,0,29,19.52,19.52,0,0,0,14.46,6,20.45,20.45,0,0,0,18.48-11.78H696.38V414.35H731c1,12.59-3.17,21.73-9.82,28.34a33.1,33.1,0,0,1-24.16,10,34.19,34.19,0,0,1-34.16-34.15,33.15,33.15,0,0,1,10-24.2A32.62,32.62,0,0,1,697,384.25Z"/><path class="cls-2" d="M758.13,438.91c3.74,0,7.87-3.1,7.87-6.84,0-6.15-8.26-7-12.92-8.63-8.22-2.8-15.47-9.54-15.47-18.72a20.56,20.56,0,0,1,40.91-2.84l-13.44,2.84a6.84,6.84,0,0,0-13.68,0c0,6.07,7.69,7.69,12.37,9.08,8.5,2.45,16,8.93,16,18.31,0,11.36-10.2,20.54-21.54,20.54-10.42,0-19.85-7.64-21.38-17.68l13.45-2.86c0,3.76,4.09,6.83,7.89,6.83Z"/><path class="cls-2" d="M232.16,420.67c-2.57-12.91-10.28-29.12-19.39-35.17s-20.09-4.39-35.75,14.84c0,0-10.28,13.46-12.85,27.47s.85,22.81,12.15,22.81c19.63,0,23.05-8.68,30.37-9.07,10.28-.55,14.72,10.17,20.8,5.22C233.25,442.08,234.73,433.58,232.16,420.67Zm-33.81-12.94c-5.24-1.37-5.69-8.43-1.82-11.85S208.63,392,210,397C212.7,407.27,203.59,409.09,198.35,407.73Z"/><path class="cls-22" d="M179,446.34a31.14,31.14,0,0,1-6.68-.69c-5.08-1.15-5.92-8.15-5.1-13.79.78-5.43,1.17-7.67,2.84-8.62a1.66,1.66,0,0,1,.78-.15,7.43,7.43,0,0,1,2.77.73c.47.23,1,.56,1.66.93,2.53,1.48,6,3.51,9.91,3.51h.32a33.79,33.79,0,0,0,16.55-5.19,7,7,0,0,1,3.74-1.31A3.22,3.22,0,0,1,209,423.9c.19,1,.31,1.71-6,4.45-4,1.73-6.67,6.1-9.07,10-1.53,2.46-3,4.79-4.35,5.72C187.5,445.48,183.53,446.34,179,446.34Z"/><path class="cls-22" d="M223.24,442c-1.88,0-4.24-1.43-6.14-2.58-.33-.21-.66-.41-1-.59a14.22,14.22,0,0,0-7.05-2.4,8.33,8.33,0,0,0-3.62.82,9.32,9.32,0,0,1-3.57,1A1.17,1.17,0,0,1,201,438c-.09-.12-.34-.59,0-2,1-3.51,5.35-5.1,5.91-5.29,4.47-.74,5.92-2.69,7-4.12.82-1.12,1.28-1.73,2.92-1.73a10.72,10.72,0,0,1,2.23.28,5.4,5.4,0,0,0,1,.1c1.83,0,2.92-1.16,3.89-2.19s1.64-1.69,2.75-1.69l.33,0c.79.09,2.21,3.89,2.07,9.58-.12,4.72-2,9.18-4.37,10.6A2.85,2.85,0,0,1,223.24,442Z"/><path class="cls-22" d="M185.16,421.45c-4.3,0-8.26-1.94-9.86-4.82a5.78,5.78,0,0,1,.34-6.14,130.79,130.79,0,0,1,10.77-14.36c6.63-6.23,12.41-9.3,17.59-9.3a13.43,13.43,0,0,1,6.25,1.57c6.24,3.17,11.39,11.76,13.07,18.23s.8,10.64-2.83,12.9a3.23,3.23,0,0,1-1.79.55h0a9.63,9.63,0,0,1-3.78-1.29,17.33,17.33,0,0,0-7.93-2.22h-.58a14.66,14.66,0,0,0-5.63,1.67C197.6,419.67,193.64,421.45,185.16,421.45Zm18.71-29.18a12.53,12.53,0,0,0-8,2.85,8.86,8.86,0,0,0-2.68,8.48,6.69,6.69,0,0,0,4.92,5.1,13.58,13.58,0,0,0,3.47.43c3.57,0,6.59-1.26,8.29-3.47s2.07-5.21,1.09-8.9C210.2,394,207.55,392.27,203.87,392.27Z"/><path class="cls-2" d="M575.17,379.46,590.4,374a4.09,4.09,0,0,0,2.47-5.23l-3-8.38-4.12,5.35-9.4-7L573.81,370l-6.73-1,2.85,8A4.1,4.1,0,0,0,575.17,379.46Z"/><path class="cls-2" d="M108.06,481.22v42.11h21.15v10.51H97.48V481.22Z"/><path class="cls-2" d="M135.87,481.22h10.57v52.62H135.87Z"/><path class="cls-2" d="M186.78,481.09v10.54H165.63v10.61H181.5v10.55H165.63v21.12H155.05V481.09Z"/><path class="cls-2" d="M225.17,481.09v10.54H204v10.61h15.87v10.55H204V523.4h21.16v10.51H193.43V481.09Z"/><path class="cls-2" d="M246.48,523.48c2.92,0,6.15-2.42,6.15-5.34,0-4.81-6.45-5.48-10.09-6.74-6.42-2.19-12.08-7.45-12.08-14.62a16.05,16.05,0,0,1,32-2.22l-10.5,2.22a5.34,5.34,0,0,0-10.68,0c0,4.74,6,6,9.66,7.09,6.64,1.91,12.5,7,12.5,14.3,0,8.87-8,16-16.83,16-8.14,0-15.5-6-16.69-13.81l10.5-2.23c0,2.94,3.19,5.33,6.16,5.33Z"/><path class="cls-2" d="M304.58,481.22V491.7H291.65v42.14H281V491.7h-13V481.22Z"/><path class="cls-2" d="M321.22,481.22l9.59,18.25,9.6-18.25h12l-16.32,30.06v22.56H325.56V511.28l-16.29-30.06Z"/><path class="cls-2" d="M369.62,481.22v42.11h21.16v10.51H359V481.22Z"/><path class="cls-2" d="M429.16,481.09v10.54H408v10.61h15.87v10.55H408V523.4h21.16v10.51H397.43V481.09Z"/><path class="cls-2" d="M471.06,481.22v42.11h21.15v10.51H460.48V481.22Z"/><path class="cls-2" d="M540.26,488.66a26.56,26.56,0,1,1-18.87-7.87A25.8,25.8,0,0,1,540.26,488.66Zm-30.2,7.51a16,16,0,0,0,22.62,22.66,16,16,0,1,0-22.62-22.66Z"/><path class="cls-2" d="M635.51,510.31V481.09h10.61v53.83l-31.73-30.23v29.22H603.81v-53.8Z"/><path class="cls-2" d="M679.47,480.89a26.87,26.87,0,0,1,18.9,7.8l-7.54,7.54a15.57,15.57,0,0,0-11.29-4.73,15.3,15.3,0,0,0-11.3,4.73,16,16,0,0,0,0,22.66,15.29,15.29,0,0,0,11.3,4.7,16,16,0,0,0,14.43-9.2H679V504.3h27c.75,9.83-2.47,17-7.67,22.13a25.87,25.87,0,0,1-18.87,7.8,26.68,26.68,0,0,1-26.67-26.67,25.91,25.91,0,0,1,7.83-18.9,25.52,25.52,0,0,1,18.84-7.87Z"/><path class="cls-2" d="M744.46,481.09v10.54H723.31v10.61h15.86v10.55H723.31V523.4h21.15v10.51H712.73V481.09Z"/><path class="cls-2" d="M594.06,482.93l1.29-1.68H551l1.29,1.68c.13.17,12.91,16.74,14.8,19.64,1.77,2.72,2.51,5.36,2.51,14.69a30.26,30.26,0,0,1-.64,7,5.88,5.88,0,0,1-2.43,3.46c-2.1,1.41-6,4-7,4.56l-3.62,2h34.58l-3.62-2c-1.11-.6-5-3.19-7-4.57a5.77,5.77,0,0,1-2.41-3.41,29.64,29.64,0,0,1-.66-7c0-9.33.74-12,2.51-14.69C581.15,499.67,593.93,483.1,594.06,482.93Zm-18.54,18.13a15.66,15.66,0,0,0-2.35,5.89,15.66,15.66,0,0,0-2.34-5.89c-1.17-1.79-11.75-15.84-11.75-15.84a41.75,41.75,0,0,0,5.26.11l.89,0c3.84-.12,7.77-.28,11.71,1.08,2.92,1,5.48,2.18,7.69,2.55C584.63,488.93,576.37,499.76,575.52,501.06Z"/><g class="cls-23"><path class="cls-2" d="M503.33,20.24C350.75-22,209.53,57.81,155.44,183.86c-18.54,35.66-23.29,97.46-23.29,97.46s23.64-52.78,71.4-100.24c7.81-7.75,30.23-34.62,65.45-47.26l.06.36a121,121,0,0,0,4.77,17.17,75.09,75.09,0,0,0,8,15.52,71.85,71.85,0,0,1-2.34-16.63,112.35,112.35,0,0,1,1.11-16.45c.67-4.49,1.56-8.92,2.63-13.29,5.34-12.58,16.14-33.79,32.18-45.34,23.77-17.11,35.42-18.06,41.36-12.83s7.13,23.29,5.7,39.21a157.84,157.84,0,0,1-2.58,17.37c-1.22,4.63-2.65,9.22-4.33,13.74a113.58,113.58,0,0,1-7,14.94A72.43,72.43,0,0,1,338.51,161,75.63,75.63,0,0,0,353,151.3a122,122,0,0,0,12.46-12.74c2.13-2.55,4.16-5.18,6.13-7.87,8.92.32,20.18,1.41,28.67,4.61,16.4,6.18,31.61,12.59,57,33,0,0-5-6.85-9.89-13.35-5.2-6.87-5.32-14.93-2.23-22.3s21.39-41.12,55.86-41.83c0,0,10,8.08,7.84,27.81s-8.32,33.27-15,42.54c-2.83,3.94-6.3,8.52-9.36,12.49A13.11,13.11,0,0,0,486,191.22c8,7.59,22.35,20.85,26.41,31.74,0,0-4.2,20.72-22.27,45.2S453,301,453,301s40.48-4.61,66.08-37.56c25-32.17,54.15-65.13,51.82-150.22,0,0,18.69,23.14,18.06,86.2s-6,82.4-6.65,91.28,5.07,18.38,3.48,33.91c-1.14,11.16-2.44,26.43-3.08,34.12a10.08,10.08,0,0,0,3.14,8.19l12.48,11.73a20.11,20.11,0,0,1,4.7,22.61l-20.95,48.68a27.82,27.82,0,0,1-16.93,15.46c-21.69,7.05-69.61,20.52-119.44,20.52-67.5,0-99.83-17.75-123.28-34.23,0,0,19,26.3,76.38,43.1,21.63,6.34,48.68,9.43,74,10.82,24.45,1.34,29.38,35.32,6.28,43.49a173.62,173.62,0,0,1-50.15,10c-71.31,3.16-107.76-.64-177.79-39.3-26.51-14.64-48.11-34.54-64.73-53.62A288.42,288.42,0,0,0,421,586.43c184.83,0,329.1-173.64,278.6-366.69C674.3,123.21,599.5,46.87,503.33,20.24Z"/><path class="cls-2" d="M517.9,424.36s20-28.09-5.33-34.38c-20.28-5-57.23,33.28-57.23,33.28S512,393.15,517.9,424.36Z"/><path class="cls-2" d="M322.51,287.39s-3.69,23.39,7.39,33.24,33.24,6.16,39.4,1.23C369.3,321.86,339.82,317.87,322.51,287.39Z"/></g></g></g></svg>