<svg id="Layer_1" data-name="Layer 1" xmlns="http://www.w3.org/2000/svg" viewBox="0 0 841.89 595.28"><defs><style>.cls-1{opacity:0.05;}.cls-2{fill:#010101;}</style></defs><g class="cls-1"><path class="cls-2" d="M503.33,20.24C350.75-22,209.53,57.81,155.44,183.86c-18.54,35.66-23.29,97.46-23.29,97.46s23.64-52.78,71.4-100.24c7.81-7.75,30.23-34.62,65.45-47.26l.06.36a121,121,0,0,0,4.77,17.17,75.09,75.09,0,0,0,8,15.52,71.85,71.85,0,0,1-2.34-16.63,112.35,112.35,0,0,1,1.11-16.45c.67-4.49,1.56-8.92,2.63-13.29,5.34-12.58,16.14-33.79,32.18-45.34,23.77-17.11,35.42-18.06,41.36-12.83s7.13,23.29,5.7,39.21a157.84,157.84,0,0,1-2.58,17.37c-1.22,4.63-2.65,9.22-4.33,13.74a113.58,113.58,0,0,1-7,14.94A72.43,72.43,0,0,1,338.51,161,75.63,75.63,0,0,0,353,151.3a122,122,0,0,0,12.46-12.74c2.13-2.55,4.16-5.18,6.13-7.87,8.92.32,20.18,1.41,28.67,4.61,16.4,6.18,31.61,12.59,57,33,0,0-5-6.85-9.89-13.35-5.2-6.87-5.32-14.93-2.23-22.3s21.39-41.12,55.86-41.83c0,0,10,8.08,7.84,27.81s-8.32,33.27-15,42.54c-2.83,3.94-6.3,8.52-9.36,12.49A13.11,13.11,0,0,0,486,191.22c8,7.59,22.35,20.85,26.41,31.74,0,0-4.2,20.72-22.27,45.2S453,301,453,301s40.48-4.61,66.08-37.56c25-32.17,54.15-65.13,51.82-150.22,0,0,18.69,23.14,18.06,86.2s-6,82.4-6.65,91.28,5.07,18.38,3.48,33.91c-1.14,11.16-2.44,26.43-3.08,34.12a10.08,10.08,0,0,0,3.14,8.19l12.48,11.73a20.11,20.11,0,0,1,4.7,22.61l-20.95,48.68a27.82,27.82,0,0,1-16.93,15.46c-21.69,7.05-69.61,20.52-119.44,20.52-67.5,0-99.83-17.75-123.28-34.23,0,0,19,26.3,76.38,43.1,21.63,6.34,48.68,9.43,74,10.82,24.45,1.34,29.38,35.32,6.28,43.49a173.62,173.62,0,0,1-50.15,10c-71.31,3.16-107.76-.64-177.79-39.3-26.51-14.64-48.11-34.54-64.73-53.62A288.42,288.42,0,0,0,421,586.43c184.83,0,329.1-173.64,278.6-366.69C674.3,123.21,599.5,46.87,503.33,20.24Z"/><path class="cls-2" d="M517.9,424.36s20-28.09-5.33-34.38c-20.28-5-57.23,33.28-57.23,33.28S512,393.15,517.9,424.36Z"/><path class="cls-2" d="M322.51,287.39s-3.69,23.39,7.39,33.24,33.24,6.16,39.4,1.23C369.3,321.86,339.82,317.87,322.51,287.39Z"/></g><path class="cls-2" d="M210,396.52c-1.34-5-9.57-4.55-13.44-1.14s-3.42,10.48,1.82,11.85S212.73,406.77,210,396.52Z"/><path class="cls-2" d="M102.79,384.13v13.5H75.71v13.59H96v13.5H75.71v27H62.17V384.13Z"/><path class="cls-2" d="M124.56,384.3v53.92h27.09v13.45H111V384.3Z"/><path class="cls-2" d="M263.74,453.18,233.35,384.3h14.34l16,36.91,16.05-36.91h14.5Z"/><path class="cls-2" d="M352.09,393.83a34,34,0,1,1-24.16-10.07A33,33,0,0,1,352.09,393.83Zm-38.66,9.61a20.5,20.5,0,0,0,29,29,20.5,20.5,0,1,0-29-29Z"/><path class="cls-2" d="M411.19,425.05V384.3h13.62v40.79a27.25,27.25,0,1,1-54.5,0V384.3h13.63v40.75a13.63,13.63,0,0,0,27.25,0Z"/><path class="cls-2" d="M435.55,384.3h22a24.73,24.73,0,0,1,17.63,6.85c4.11,4.11,6.52,7.85,6.52,15.3v1.76A21.81,21.81,0,0,1,477.43,421a15.39,15.39,0,0,1-8.07,6.23L485,451.67H468.49l-19.35-29.8v29.8H435.59Zm32.18,22.57a9.12,9.12,0,0,0-2.67-6.48c-1.76-1.71-5.09-2.67-8.36-2.67h-7.61v18.59h5.23v.05h4.51C463.77,416.36,467.73,412,467.73,406.87Z"/><path class="cls-2" d="M531.8,384.3v29.8l17.27-29.8H564.7l-19.94,34.23,23.16,33.14H551.45L531.8,423.42v28.25H518.3V384.3Z"/><path class="cls-2" d="M576.15,384.3h13.54v67.37H576.15Z"/><path class="cls-2" d="M641,421.54V384.13h13.58v68.92L614,414.35v37.41H600.42V382.88Z"/><path class="cls-2" d="M697,383.88a34.39,34.39,0,0,1,24.2,10l-9.65,9.66a19.9,19.9,0,0,0-14.46-6.07A20.62,20.62,0,0,0,676.62,418a19.77,19.77,0,0,0,6,14.5,19.57,19.57,0,0,0,14.47,6,20.44,20.44,0,0,0,18.47-11.79H696.34V413.85H731c1,12.59-3.17,21.73-9.82,28.34a33.1,33.1,0,0,1-24.16,10A34.18,34.18,0,0,1,662.82,418a33.18,33.18,0,0,1,10-24.2A32.63,32.63,0,0,1,697,383.76Z"/><path class="cls-2" d="M758.08,438.41c3.74,0,7.87-3.11,7.87-6.84,0-6.16-8.26-7-12.92-8.63-8.21-2.8-15.47-9.54-15.47-18.72a20.56,20.56,0,0,1,40.92-2.84L765,404.22a6.84,6.84,0,0,0-13.67,0c0,6.07,7.68,7.69,12.36,9.08,8.5,2.45,16,8.93,16,18.31,0,11.36-10.19,20.53-21.54,20.53-10.42,0-19.84-7.64-21.37-17.67l13.45-2.86c0,3.76,4.08,6.82,7.88,6.82Z"/><path class="cls-2" d="M232.18,420.17c-2.56-12.91-10.27-29.12-19.38-35.16-7.9-5.24-17.21-4.69-29.75,8.08l-1.14,1.14-1.14,1.14a95.8,95.8,0,0,0-7.14,7.89s-10.28,13.47-12.85,27.48.85,22.8,12.15,22.8c19.62,0,23-8.68,30.37-9.07,10.28-.55,14.72,10.16,20.79,5.22a14.51,14.51,0,0,0,1.64-1.59,113448732916823.78,113448732916823.78,0,0,1,2.28-2.28C233.35,441.05,234.68,432.69,232.18,420.17Zm-57.37-10.71A130.42,130.42,0,0,1,185.69,395c11-10.32,18.66-11.21,25.05-8s11.78,11.95,13.58,18.88.77,11.49-3.27,14c-4.26,2.66-7.37-3.1-14.57-2.8-5.14.21-7.53,4.87-21.29,4.87C177.27,422,170.81,415.9,174.81,409.46Zm15.43,34.91c-3.81,2.57-12.11,3.11-18.1,1.76s-6.69-9.36-5.88-14.91,1.2-8.14,3.34-9.36c1.56-.88,4.5.55,4.5.55,2.42,1.22,6.68,4.47,11.41,4.33a32.71,32.71,0,0,0,16-5c5-3.26,8.19-.41,8.53,1.49s-.34,2.85-6.57,5.56S194,441.79,190.24,444.37Zm39.87-13.81c-.11,4.89-2,9.77-4.86,11.45s-6.76-1.12-9.61-2.79-6.17-3.21-9.73-1.54-7,1.95-5.82-2.37,6.65-6,6.65-6c8.66-1.4,4.63-7.26,12.58-5.58,3.66.77,4-4.19,7.83-3.77C229.17,420.18,230.23,425.68,230.11,430.56Z"/><path class="cls-2" d="M209.45,396.91c-1.26-4.74-9-4.3-12.7-1.07A6.94,6.94,0,0,0,195.7,397c3.85-2.77,10.88-2.92,12.07,1.57.87,3.26.47,5.62-.64,7.26C209.37,404.33,210.68,401.52,209.45,396.91Z"/><path class="cls-2" d="M108.1,480.76v42.11h21.16v10.51H97.53V480.76Z"/><path class="cls-2" d="M135.91,480.76h10.58v52.62H135.91Z"/><path class="cls-2" d="M186.83,480.63v10.54H165.67v10.61h15.87v10.55H165.67v21.12H155.1V480.63Z"/><path class="cls-2" d="M225.21,480.63v10.54H204.06v10.61h15.86v10.55H204.06v10.61h21.15v10.51H193.48V480.63Z"/><path class="cls-2" d="M246.53,523c2.92,0,6.14-2.42,6.14-5.34,0-4.81-6.45-5.48-10.09-6.74-6.41-2.19-12.08-7.46-12.08-14.62a16.06,16.06,0,0,1,32-2.22L252,496.32a5.34,5.34,0,0,0-10.68,0c0,4.74,6,6,9.66,7.09,6.64,1.91,12.5,7,12.5,14.3,0,8.87-8,16-16.82,16-8.14,0-15.5-6-16.7-13.81l10.5-2.23c0,2.94,3.2,5.33,6.16,5.33Z"/><path class="cls-2" d="M304.62,480.76v10.48H291.69v42.14H281.08V491.24h-13V480.76Z"/><path class="cls-2" d="M321.26,480.76l9.6,18.25,9.6-18.25h12l-16.33,30.06v22.56H325.6V510.82l-16.29-30.06Z"/><path class="cls-2" d="M369.66,480.76v42.11h21.16v10.51H359.09V480.76Z"/><path class="cls-2" d="M429.2,480.63v10.54H408.05v10.61h15.86v10.55H408.05v10.61H429.2v10.51H397.47V480.63Z"/><path class="cls-2" d="M471.1,480.76v42.11h21.16v10.51H460.53V480.76Z"/><path class="cls-2" d="M540.3,488.2a26.56,26.56,0,1,1-18.87-7.87A25.77,25.77,0,0,1,540.3,488.2Zm-30.2,7.51a16,16,0,0,0,0,22.66,16,16,0,1,0,0-22.66Z"/><path class="cls-2" d="M635.55,509.84V480.63h10.61v53.83l-31.73-30.23v29.22H603.85v-53.8Z"/><path class="cls-2" d="M679.52,480.43a26.89,26.89,0,0,1,18.9,7.8l-7.54,7.54a15.59,15.59,0,0,0-11.3-4.73,16,16,0,0,0,0,32.09,16,16,0,0,0,14.43-9.2H679V503.84h27c.75,9.83-2.48,17-7.68,22.13a25.83,25.83,0,0,1-18.87,7.8,26.7,26.7,0,0,1-26.67-26.67,25.89,25.89,0,0,1,7.84-18.9,25.51,25.51,0,0,1,18.83-7.87Z"/><path class="cls-2" d="M744.51,480.63v10.54H723.35v10.61h15.87v10.55H723.35v10.61h21.16v10.51H712.77V480.63Z"/><path class="cls-2" d="M594.1,482.47l1.29-1.68H551l1.29,1.68c.13.17,12.92,16.74,14.81,19.64,1.77,2.71,2.51,5.36,2.51,14.69a30.12,30.12,0,0,1-.65,7,5.79,5.79,0,0,1-2.43,3.46c-2.1,1.41-6,4-7,4.56l-3.63,2h34.59l-3.63-2c-1.1-.6-5-3.19-7-4.57a5.85,5.85,0,0,1-2.41-3.41,29.64,29.64,0,0,1-.66-7c0-9.33.74-12,2.51-14.69C581.19,499.21,594,482.64,594.1,482.47ZM575.56,500.6a15.66,15.66,0,0,0-2.34,5.89,15.82,15.82,0,0,0-2.34-5.89c-1.18-1.79-11.76-15.84-11.76-15.84a42,42,0,0,0,5.27.11l.88,0c3.84-.12,7.77-.28,11.72,1.08,2.92,1,5.48,2.18,7.68,2.55C584.67,488.47,576.41,499.3,575.56,500.6Z"/><path class="cls-2" d="M502.29,245.83l0,0Z"/><path class="cls-2" d="M598.94,333.65,545,279.43a41.42,41.42,0,0,1-7.33,8.54l25.53,25.53-19.6,19.6c0-.06-.09-.12-.14-.17l-26.39-26.39L530.65,293a46.72,46.72,0,0,1-12.39,4.83L483,333.08,460.91,311c-2.45.05-4.86.16-7.2.35l22,22h-46.3l21.74-21.73c-3,.29-5.86.66-8.66,1.09l-20.4,20.41-14.25-14.25c-2.25.21-4.63.36-7.1.46l14,14H368.44l14.19-14.18c-2.38-.14-4.73-.32-7-.54l-14.49,14.49-27.29-27.29h-.07c-1.4.16-2.7.25-4,.29l-2.1,0c-.74,0-1.45,0-2.17-.06l-24.8,24.81-18.61-18.61,15.42-15.42a38.72,38.72,0,0,1-7.85-8.11l-45.24,45.65,0,.47a3.88,3.88,0,0,0-.83,2.38v6.1a3.92,3.92,0,0,0,3.92,3.92h349.8a3.91,3.91,0,0,0,3.92-3.92v-6.1A3.91,3.91,0,0,0,598.94,333.65Zm-15.89-.34H551l16-16Zm-69.72-23,23,23h-46Zm-183.52-1,24,24h-48Zm-34.2,24H261.07L278.34,316Z"/><path class="cls-2" d="M533.29,208.49c5.62,23.84.12,30.73-11.21,40,20.33-30.14-16.83-44.86,20.33-80.62-20.16,3-36.6,13.78-48.71,27.76-5.46-41.08-24.72-81.86-43.16-96.12,20.51,37.86,15,74.15-5.52,87.56,14.2-52.85-7.1-97.82-59.16-126.21,43.38,58.37-20.51,62.31-19,131.17-.31-23.81-14.9-30.2-5.44-65.7-15.87,24.41-25.89,46.37-31,65.79A113.71,113.71,0,0,0,314.3,173.9c23.12,49.53-12.45,51.37-2.35,83.25-10.23-10.8-14.16-20.79-7.42-45.56-26.6,41.63-20.08,88.18,25.24,86.85,1.16,0,2.27-.12,3.34-.25a37.47,37.47,0,0,1-2.54-4.58,64.83,64.83,0,0,1-2.79-7.42s-13-1.27-20.2-18.16c5.14,5.71,11.12,9,17.16,8,0,0-.18-7.69.52-16.06s3.22-12,3.22-12a24.6,24.6,0,0,1,.35-16.81c2.89-7.13,3.83-16.73,1.39-24.74,2.27,3,5.23,7.67,5.58,16.38a125.47,125.47,0,0,1-.12,12.59,73.6,73.6,0,0,1,9.72-12.18c-.82-4.47-4.32-27,3.64-50.59,0,0,.7,10.8,4.18,17.25A71.91,71.91,0,0,1,360,212.16a77.08,77.08,0,0,1,23.49-7.71l.62-.1c4.5-57.55,36.67-46.6,35.37-83.72,14.51,29.27,8.87,59.4-2.55,83.8,2.34.35,4.55.75,4.55.75q5.91,1.08,12,2.72c8.82,2.4,17.26,4.8,25.28,7.56,7.87-5,14.7-12.48,16.32-30a200.34,200.34,0,0,1,4.46,38.72,105.49,105.49,0,0,1,12.57,7.6c6.42-7,11.64-14.28,13-21.9,1.71,18,2.41,28.35,2.12,35.54,5.2,6.18,8.4,12.51,9.55,18.93a36.66,36.66,0,0,1,.44,3.86,26.24,26.24,0,0,0,16.16-11.33c-1.55,8.4-7.8,15.05-16,19.8A88.2,88.2,0,0,1,516,290.56C545.33,284.15,555.49,251.19,533.29,208.49Z"/><path class="cls-2" d="M443.37,303.73c.46-5.16,1.53-17.53,1.53-21.84,0-5.49-.78-12-4.18-16.22s-3.67-8.11-7.33-4.45-5.23,6.28-7.33,6.8-5.75-.26-9.42,2.1-3.66,3.66-1,6.8,6.54,3.66,7.32,9.94c.72,5.76.42,16.28.36,20.63C429.44,306.21,436.11,304.79,443.37,303.73Z"/><path class="cls-2" d="M378,223.15c-6.11,8.54-7.71,24.75.4,31.56s17.3,13.61,24.36,7.85c0,0-1.52,4.68-4.66,5.46,0,0,10.86,4.64,15.05-.27,2.66-3.1,6.85-3.65,10.26-5.22s6.8-3.4,6-7.07-1.57-5.23-1.83-8.11-3.4-5.23-8.37-7.32-6.54,3.92-13.35,5a32.23,32.23,0,0,0,8.12-9.42c3.14-5.76,2.61-6.28,4.71-8.38s5-8.88,2.36-14.37a108.87,108.87,0,0,0-28.89-1.7A41.33,41.33,0,0,0,378,223.15Z"/><path class="cls-2" d="M415,289.07c0-3.25-1.23-8-4.63-10.06s-6.8-2.09-12.56-3.14a27.92,27.92,0,0,1-13.08-6.54c-3.14-2.61-5.76-8.11-7.59-6.8s-3.4,3.4-3.4,9.94-1.31,9.68,1,13.35,3.14,6.28,3.14,9.94c0,2.91-.11,11-.16,14.19,13.33,1.2,27.68.9,37.27-.83C415,304.83,415,291.78,415,289.07Z"/><path class="cls-2" d="M342.85,271.43c4.19-2.36,8.9-9.42,9.68-13.35s-.78-8.63-.78-8.63,5.76,7.58,10.2,6,4.71-7.06,5-12.56a38,38,0,0,1,5-16.48c2.51-4,4.62-12,4.78-12.61-11.07,3-19.73,8.13-25.45,14-8.44,8.65-16.46,18.14-16.46,38.69,0,0,0,.19,0,.53C335.72,268.51,339.28,273.44,342.85,271.43Z"/><path class="cls-2" d="M482.32,282.15c-.52-3.66-3.4-8.89-7.33-12s-4.71-1.31-10.46-2.88-11.52-4.45-13.35-4.45-5.23-.78-3.4,3.14,3.93,4.71,3.66,14.92c-.2,7.83.12,17.71.27,21.88a128.67,128.67,0,0,1,21.25-.24c3,.22,5.81.29,8.4.23C481.73,298.27,482.75,285.18,482.32,282.15Z"/><path class="cls-2" d="M369.8,289c0-3.14-1.83-4.19-1.57-10.21s3.41-15.17-1.57-16.22-7.32-1.31-10.72,3.14-7.85,8.37-8.12,16c-.23,6.76,1.57,15.86,2,21.84a32.46,32.46,0,0,0,6.32,2.67A91.4,91.4,0,0,0,369.28,309C369.41,304.79,369.8,291.59,369.8,289Z"/><path class="cls-2" d="M490.43,263.58c-5.75-2.88-10.46-3.14-15.17-7.07s-13.61-5.23-13.61-5.23,6.8-1.83,9.94-1.05,7.33-1,3.14-3.4-6-7.85-6-12.3c0,0,3.41,7.59,7.59,8.64,3.49.87,7-4.41,8.54-5.89h0s.23-.24.52-.5c-14.37-9.55-31.79-15.54-53.66-21.5-2.08-.56-4.11-1.06-6.13-1.51.08.43,1.21,6.83-.82,12.14-2.09,5.49-4.44,8.37-2.35,9.94s8.63.78,11.25,2.62,5.76,1.57,8.64,1.57,5,3.66,5,3.66a11.87,11.87,0,0,0-9.16-1.05c-5,1.57-5.76,7.07-4.19,8.64s7.33,6,13.35,5.49,12,2.62,16.74,4.71,7.85.53,10.73,3.67,6,8.11,11.25,11.25,11.26,1.57,12-1.83S496.19,266.45,490.43,263.58Z"/><path class="cls-2" d="M498.28,247.21a76.68,76.68,0,0,0-7-6.17c-.23-.19-.47-.36-.71-.54l-.22.15c-1.27,1-9.1,7-9.58,9.84-.52,3.14,3.14,4.19,6.8,2.88s6.8-5.67,10.72-6.16Z"/><path class="cls-2" d="M509.16,265.84c-.6-3.33-2.13-9.14-9-16.67h0s-4.74,2.11-4.74,5,.79,4.71,4.19,7.85,4.71,4.71,4.45,8.37,2.92,4.24,5.6.07A41.16,41.16,0,0,0,509.16,265.84Z"/><path class="cls-2" d="M506.38,294.07c.14-.17.24-.33.36-.5s.2-.27.29-.41.21-.38.31-.57l.17-.31a6.8,6.8,0,0,0,.31-.85c.11-.38.2-.79.3-1.21,0-.13.05-.26.08-.39.07-.32.14-.65.2-1,0-.13.05-.26.07-.4.08-.47.16-.94.23-1.43,0,0,0-.07,0-.1.06-.46.12-1,.18-1.43l.06-.5.12-1.15c0-.17,0-.33.05-.5.05-.53.09-1.06.13-1.6,0-.09,0-.17,0-.25l.09-1.41,0-.59c0-.33,0-.66,0-1-3,3.34-10.6,5.36-17.94,4.11-1.14-.2-2.11,1-2.19,2.12L488,302.06c.61-.08,1.2-.17,1.79-.27l.89-.15,1.66-.34.83-.19c.52-.13,1-.26,1.52-.4l.77-.22c.47-.14.92-.29,1.37-.45l.7-.25,1.23-.48.66-.29c.37-.17.73-.33,1.08-.51l.6-.31c.32-.18.64-.35.94-.53s.37-.23.55-.35.55-.35.8-.52l.51-.39c.23-.17.46-.34.66-.51s.31-.28.46-.42.37-.33.54-.5l.41-.45C506.11,294.38,506.26,294.22,506.38,294.07Z"/></svg>