<svg id="Layer_1" data-name="Layer 1" xmlns="http://www.w3.org/2000/svg" viewBox="0 0 841.89 595.28"><defs><style>.cls-1{opacity:0.05;}.cls-2{fill:#010101;}</style></defs><g class="cls-1"><path class="cls-2" d="M503.33,20.24C350.75-22,209.53,57.81,155.44,183.86c-18.54,35.66-23.29,97.46-23.29,97.46s23.64-52.78,71.4-100.24c7.81-7.75,30.23-34.62,65.45-47.26l.06.36a121,121,0,0,0,4.77,17.17,75.09,75.09,0,0,0,8,15.52,71.85,71.85,0,0,1-2.34-16.63,112.35,112.35,0,0,1,1.11-16.45c.67-4.49,1.56-8.92,2.63-13.29,5.34-12.58,16.14-33.79,32.18-45.34,23.77-17.11,35.42-18.06,41.36-12.83s7.13,23.29,5.7,39.21a157.84,157.84,0,0,1-2.58,17.37c-1.22,4.63-2.65,9.22-4.33,13.74a113.58,113.58,0,0,1-7,14.94A72.43,72.43,0,0,1,338.51,161,75.63,75.63,0,0,0,353,151.3a122,122,0,0,0,12.46-12.74c2.13-2.55,4.16-5.18,6.13-7.87,8.92.32,20.18,1.41,28.67,4.61,16.4,6.18,31.61,12.59,57,33,0,0-5-6.85-9.89-13.35-5.2-6.87-5.32-14.93-2.23-22.3s21.39-41.12,55.86-41.83c0,0,10,8.08,7.84,27.81s-8.32,33.27-15,42.54c-2.83,3.94-6.3,8.52-9.36,12.49A13.11,13.11,0,0,0,486,191.22c8,7.59,22.35,20.85,26.41,31.74,0,0-4.2,20.72-22.27,45.2S453,301,453,301s40.48-4.61,66.08-37.56c25-32.17,54.15-65.13,51.82-150.22,0,0,18.69,23.14,18.06,86.2s-6,82.4-6.65,91.28,5.07,18.38,3.48,33.91c-1.14,11.16-2.44,26.43-3.08,34.12a10.08,10.08,0,0,0,3.14,8.19l12.48,11.73a20.11,20.11,0,0,1,4.7,22.61l-20.95,48.68a27.82,27.82,0,0,1-16.93,15.46c-21.69,7.05-69.61,20.52-119.44,20.52-67.5,0-99.83-17.75-123.28-34.23,0,0,19,26.3,76.38,43.1,21.63,6.34,48.68,9.43,74,10.82,24.45,1.34,29.38,35.32,6.28,43.49a173.62,173.62,0,0,1-50.15,10c-71.31,3.16-107.76-.64-177.79-39.3-26.51-14.64-48.11-34.54-64.73-53.62A288.42,288.42,0,0,0,421,586.43c184.83,0,329.1-173.64,278.6-366.69C674.3,123.21,599.5,46.87,503.33,20.24Z"/><path class="cls-2" d="M517.9,424.36s20-28.09-5.33-34.38c-20.28-5-57.23,33.28-57.23,33.28S512,393.15,517.9,424.36Z"/><path class="cls-2" d="M322.51,287.39s-3.69,23.39,7.39,33.24,33.24,6.16,39.4,1.23C369.3,321.86,339.82,317.87,322.51,287.39Z"/></g><path class="cls-2" d="M210.81,88c-1.33-5-9.53-4.54-13.38-1.13S194,97.25,199.24,98.61,213.54,98.16,210.81,88Z"/><path class="cls-2" d="M104,75.61V89.06H77v13.53H97.28V116H77V143H63.55V75.61Z"/><path class="cls-2" d="M125.71,75.78v53.7h27v13.41H112.22V75.78Z"/><path class="cls-2" d="M264.35,144.39,234.08,75.78h14.28l15.95,36.76,16-36.76h14.45Z"/><path class="cls-2" d="M352.36,85.27a33.93,33.93,0,0,1,0,48.17,34.06,34.06,0,0,1-58.12-24.07,34,34,0,0,1,58.12-24.1Zm-38.51,9.57a20.4,20.4,0,0,0,0,28.9,20.42,20.42,0,1,0,28.85-28.9,20.36,20.36,0,0,0-28.85,0Z"/><path class="cls-2" d="M411.23,116.37V75.78H424.8v40.63a27.15,27.15,0,0,1-54.29,0V75.78h13.57v40.59a13.58,13.58,0,0,0,27.15,0Z"/><path class="cls-2" d="M435.49,75.78h21.9A24.65,24.65,0,0,1,475,82.6c4.09,4.09,6.5,7.82,6.5,15.24v1.75a21.72,21.72,0,0,1-4.25,12.78,15.3,15.3,0,0,1-8,6.21l15.61,24.31H468.3L449,113.21v29.68H435.54Zm32.06,22.48a9.06,9.06,0,0,0-2.66-6.46c-1.75-1.7-5.07-2.66-8.33-2.66H449v18.53h5.21v0h4.5C463.6,107.71,467.55,103.37,467.55,98.26Z"/><path class="cls-2" d="M531.38,75.78v29.68l17.19-29.68h15.57l-19.86,34.09,23.07,33H550.94l-19.56-28.14v28.14H517.93V75.78Z"/><path class="cls-2" d="M575.55,75.78H589v67.11H575.55Z"/><path class="cls-2" d="M640.16,112.87V75.61h13.53v68.65l-40.47-38.55V143H599.73V74.36Z"/><path class="cls-2" d="M696,75.36a34.24,34.24,0,0,1,24.1,10l-9.62,9.62a19.82,19.82,0,0,0-14.4-6,19.47,19.47,0,0,0-14.41,6,20.41,20.41,0,0,0,0,28.89,19.47,19.47,0,0,0,14.41,6,20.36,20.36,0,0,0,18.4-11.74H695.28V105.21h34.47c1,12.54-3.15,21.65-9.78,28.23a33,33,0,0,1-24.07,9.95,34,34,0,0,1-34-34,33,33,0,0,1,10-24.1,32.51,32.51,0,0,1,24-10Z"/><path class="cls-2" d="M756.78,129.68c3.72,0,7.84-3.1,7.84-6.82,0-6.13-8.23-7-12.87-8.59-8.18-2.79-15.41-9.51-15.41-18.65a20.48,20.48,0,0,1,40.75-2.83L763.7,95.62a6.81,6.81,0,0,0-13.62,0c0,6,7.65,7.66,12.32,9,8.47,2.44,15.94,8.9,15.94,18.24,0,11.32-10.16,20.46-21.46,20.46-10.38,0-19.77-7.61-21.29-17.61L749,122.94c0,3.75,4.07,6.8,7.86,6.8Z"/><path class="cls-2" d="M232.91,111.51c-2.56-12.86-10.23-29-19.31-35-7.87-5.22-17.14-4.67-29.63,8l-1.13,1.14-1.14,1.14a91.78,91.78,0,0,0-7.11,7.86s-10.24,13.41-12.8,27.36.84,22.71,12.1,22.71c19.55,0,23-8.64,30.25-9,10.24-.54,14.66,10.13,20.71,5.2a13.52,13.52,0,0,0,1.63-1.58,365.17,365.17,0,0,0,2.28-2.27C234.08,132.3,235.4,124,232.91,111.51Zm-57.14-10.67A128.61,128.61,0,0,1,186.6,86.4c10.92-10.29,18.59-11.17,25-7.93s11.74,11.9,13.53,18.8.77,11.45-3.26,14c-4.24,2.64-7.34-3.09-14.51-2.79-5.12.21-7.5,4.85-21.2,4.85C178.22,113.29,171.78,107.26,175.77,100.84Zm15.36,34.77c-3.79,2.57-12.06,3.11-18,1.76s-6.66-9.32-5.86-14.86,1.2-8.11,3.33-9.32c1.55-.87,4.48.54,4.48.54,2.41,1.22,6.66,4.46,11.37,4.33a32.73,32.73,0,0,0,16-5c4.94-3.24,8.15-.41,8.5,1.49s-.35,2.83-6.55,5.53S194.92,133,191.13,135.61Zm39.72-13.75c-.12,4.87-2,9.73-4.84,11.4s-6.74-1.11-9.58-2.78-6.15-3.2-9.69-1.53-7,2-5.79-2.36,6.62-6,6.62-6c8.62-1.39,4.61-7.23,12.53-5.56,3.65.77,4-4.17,7.8-3.75C229.91,111.52,231,117,230.85,121.86Z"/><path class="cls-2" d="M210.27,88.34c-1.26-4.72-9-4.29-12.65-1.07a6.94,6.94,0,0,0-1.05,1.19c3.84-2.76,10.83-2.92,12,1.56.86,3.25.46,5.6-.64,7.24C210.19,95.73,211.5,92.93,210.27,88.34Z"/><path class="cls-2" d="M108.17,468.17V510.3h21.16v10.52H97.59V468.17Z"/><path class="cls-2" d="M136,468.17h10.58v52.65H136Z"/><path class="cls-2" d="M186.92,468v10.55H165.76V489.2h15.87v10.55H165.76v21.13H155.18V468Z"/><path class="cls-2" d="M225.32,468v10.55H204.15V489.2H220v10.55H204.15v10.62h21.17v10.51H193.57V468Z"/><path class="cls-2" d="M246.64,510.45c2.92,0,6.15-2.42,6.15-5.35,0-4.8-6.45-5.47-10.09-6.73-6.42-2.19-12.09-7.46-12.09-14.63a16.06,16.06,0,0,1,32-2.22l-10.51,2.22a5.34,5.34,0,0,0-10.68,0c0,4.74,6,6,9.66,7.09,6.64,1.92,12.5,7,12.5,14.31,0,8.88-8,16.05-16.83,16.05-8.14,0-15.5-6-16.7-13.82l10.5-2.23c0,2.94,3.2,5.33,6.17,5.33Z"/><path class="cls-2" d="M304.76,468.17v10.49H291.82v42.16H281.21V478.66h-13V468.17Z"/><path class="cls-2" d="M321.4,468.17l9.6,18.26,9.6-18.26h12l-16.33,30.08v22.57H325.75V498.25l-16.3-30.08Z"/><path class="cls-2" d="M369.82,468.17V510.3H391v10.52H359.24V468.17Z"/><path class="cls-2" d="M429.38,468v10.55H408.22V489.2h15.87v10.55H408.22v10.62h21.16v10.51H397.64V468Z"/><path class="cls-2" d="M471.3,468.17V510.3h21.16v10.52H460.72V468.17Z"/><path class="cls-2" d="M540.52,475.62a26.57,26.57,0,1,1-18.87-7.87A25.78,25.78,0,0,1,540.52,475.62Zm-30.21,7.51a15.61,15.61,0,0,0-4.7,11.33,16,16,0,1,0,4.7-11.33Z"/><path class="cls-2" d="M635.81,497.27V468h10.61v53.85l-31.74-30.24v29.23H604.1V467.06Z"/><path class="cls-2" d="M679.79,467.85a26.9,26.9,0,0,1,18.91,7.8l-7.54,7.54a15.59,15.59,0,0,0-11.3-4.73,15.3,15.3,0,0,0-11.3,4.73,16,16,0,0,0,0,22.67,15.27,15.27,0,0,0,11.3,4.7,16,16,0,0,0,14.43-9.21h-15V491.26h27c.75,9.84-2.48,17-7.68,22.14a25.8,25.8,0,0,1-18.87,7.81,26.7,26.7,0,0,1-26.68-26.68,25.92,25.92,0,0,1,7.83-18.91,25.52,25.52,0,0,1,18.85-7.87Z"/><path class="cls-2" d="M744.8,468v10.55H723.64V489.2h15.87v10.55H723.64v10.62H744.8v10.51H713.06V468Z"/><path class="cls-2" d="M594.35,469.88l1.29-1.67H551.26l1.29,1.67c.13.17,12.92,16.75,14.81,19.65,1.77,2.72,2.51,5.36,2.51,14.7a30.85,30.85,0,0,1-.64,7,5.82,5.82,0,0,1-2.44,3.46c-2.09,1.41-6,4-7,4.56l-3.62,2h34.6l-3.63-2c-1.1-.59-5-3.19-7-4.57a5.78,5.78,0,0,1-2.41-3.41,29.64,29.64,0,0,1-.66-7c0-9.34.74-12,2.51-14.7C581.43,486.63,594.22,470.05,594.35,469.88ZM575.79,488a15.7,15.7,0,0,0-2.34,5.88,15.54,15.54,0,0,0-2.34-5.88c-1.17-1.8-11.76-15.86-11.76-15.86a40.14,40.14,0,0,0,5.27.11c.56,0,.89,0,.89,0,3.83-.13,7.77-.28,11.71,1.08,2.92,1,5.49,2.18,7.69,2.55C584.91,475.89,576.65,486.72,575.79,488Z"/><path class="cls-2" d="M426.37,190.81l-.05-.05Z"/><path class="cls-2" d="M583.22,411.16l-47.16-47.44a36.71,36.71,0,0,1-6.43,7.47L552,393.52l-17.19,17.17c0-.06-.07-.1-.12-.15l-23.1-23.1,11.85-11.85a40.92,40.92,0,0,1-10.84,4.23l-30.79,30.85-19.34-19.34c-2.15.05-4.26.15-6.29.31l19.24,19.23H434.88l19-19q-3.9.39-7.57,1l-17.91,17.86L416,398.2q-3,.27-6.21.4L422,410.87H381.51l12.41-12.41c-2.08-.13-4.14-.28-6.14-.47l-12.69,12.68-23.88-23.88h0c-1.23.13-2.36.21-3.47.25h-1.84c-.65,0-1.27,0-1.9-.05l-21.7,21.7L306,392.41l13.48-13.47a34,34,0,0,1-6.87-7.1l-39.57,40v.4a3.38,3.38,0,0,0-.73,2.09v5.33a3.44,3.44,0,0,0,3.43,3.44H581.84a3.44,3.44,0,0,0,3.43-3.44h0V414.3A3.44,3.44,0,0,0,583.22,411.16Zm-13.9-.29H541.25l14-14Zm-61-20.13,20.12,20.13H488.18Zm-160.6-.9,21,21h-42Zm-29.92,21H287.55l15.11-15.11Z"/><path class="cls-2" d="M447.08,385c.4-4.49,1.34-15.34,1.34-19.11,0-4.81-.69-10.53-3.67-14.2s-3.2-7.1-6.41-3.89-4.57,5.5-6.41,6-5-.24-8.24,1.79-3.21,3.21-.9,6,5.72,3.21,6.41,8.71c.63,5,.36,14.24.32,18.05C434.88,387.15,440.73,385.91,447.08,385Z"/><path class="cls-2" d="M389.91,314.46c-5.39,7.48-6.76,21.67.34,27.62S405.42,354,411.58,349c0,0-1.33,4.09-4.08,4.78,0,0,9.5,4.05,13.17-.24,2.32-2.69,6-3.19,9-4.57s6-3,5.27-6.19-1.38-4.57-1.6-7.1-3-4.58-7.33-6.4-5.73,3.43-11.68,4.35a28.2,28.2,0,0,0,7.09-8.25c2.75-5,2.3-5.5,4.13-7.32s4.35-7.78,2.06-12.58A95.25,95.25,0,0,0,402.31,304,36.14,36.14,0,0,0,389.91,314.46Z"/><path class="cls-2" d="M422.24,372.15c0-2.84-1.07-7-4.05-8.8s-5.95-1.8-11-2.74a24.46,24.46,0,0,1-11.45-5.72c-2.74-2.29-5-7.1-6.64-5.95s-3,3-3,8.7-1.15,8.47.9,11.68a14.51,14.51,0,0,1,2.75,8.7c0,2.55-.1,9.62-.13,12.42,11.68,1.05,24.25.78,32.61-.73C422.27,385.94,422.24,374.53,422.24,372.15Z"/><path class="cls-2" d="M359.11,356.68c3.67-2.05,7.79-8.23,8.47-11.68a17.34,17.34,0,0,0-.68-7.55s5,6.64,8.93,5.26,4.12-6.18,4.35-11a33.35,33.35,0,0,1,4.35-14.43c2.21-3.52,4.05-10.5,4.18-11-9.68,2.69-17.26,7.1-22.27,12.24-7.38,7.57-14.37,15.88-14.37,33.86v.47C352.88,354.16,356,358.48,359.11,356.68Z"/><path class="cls-2" d="M481.17,366.1c-.46-3.21-3-7.78-6.42-10.53s-4.12-1.15-9.14-2.48-10.08-3.89-11.67-3.89-4.59-.68-3,2.75,3.44,4.12,3.21,13.05c-.17,6.86.1,15.51.23,19.16a112.18,112.18,0,0,1,18.6-.22c2.63.2,5.09.25,7.35.2C480.64,380.2,481.54,368.75,481.17,366.1Z"/><path class="cls-2" d="M382.7,372.06c0-2.75-1.61-3.67-1.37-8.93s3-13.28-1.38-14.2-6.41-1.15-9.39,2.74-6.87,7.33-7.09,14c-.21,5.92,1.36,13.88,1.71,19.11a28,28,0,0,0,5.53,2.34,81,81,0,0,0,11.53,2.46C382.35,385.91,382.7,374.36,382.7,372.06Z"/><path class="cls-2" d="M488.26,349.85c-5-2.53-9.16-2.75-13.28-6.19s-11.91-4.58-11.91-4.58,6-1.6,8.71-.89,6.4-.9,2.75-3-5.28-6.86-5.28-10.78c0,0,3,6.64,6.65,7.56,3.05.76,6.13-3.86,7.48-5.15h0s.2-.21.45-.43C471.26,318,456,312.8,436.88,307.58c-1.8-.5-3.6-.9-5.4-1.32.07.37,1.06,6-.71,10.62-1.8,4.8-3.89,7.33-2.06,8.7s7.55.68,9.88,2.29,5,1.38,7.56,1.38,4.34,3.2,4.34,3.2a10.33,10.33,0,0,0-8-.9c-4.35,1.37-5,6.19-3.66,7.56s6.41,5.27,11.67,4.81S461,346.21,465.16,348s6.86.46,9.38,3.2,5.27,7.11,9.89,9.88,9.88,1.38,10.53-1.6S493.3,352.36,488.26,349.85Z"/><path class="cls-2" d="M495.13,335.52a68.23,68.23,0,0,0-6.14-5.39l-.62-.47-.2.13c-1.11.84-8,6.09-8.38,8.61-.46,2.75,2.75,3.67,6,2.52s5.94-5,9.38-5.39Z"/><path class="cls-2" d="M504.65,351.82c-.52-2.92-1.87-8-7.88-14.59h0s-4.14,1.85-4.14,4.36.69,4.12,3.66,6.87,4.13,4.12,3.89,7.33,2.56,3.71,4.91.06A36.5,36.5,0,0,0,504.65,351.82Z"/><path class="cls-2" d="M525.81,301.64c4.91,20.86.1,26.89-9.81,35,17.78-26.37-14.73-39.25,17.78-70.55-17.64,2.65-32,12.06-42.62,24.26-4.78-35.93-21.64-71.64-37.74-84.12,18,33.14,13.12,64.9-4.83,76.63,12.43-46.25-6.22-85.6-51.77-110.45,38,51.08-18,54.53-16.64,114.79-.28-20.84-13.05-26.43-4.76-57.5-13.89,21.37-22.66,40.58-27.17,57.58a99.74,99.74,0,0,0-14.12-15.9c20.23,43.34-10.9,44.92-2.06,72.84-9-9.45-12.4-18.19-6.5-39.86-23.27,36.42-17.57,77.17,22.1,76a24.71,24.71,0,0,0,2.91-.22,33.27,33.27,0,0,1-2.22-4,57.73,57.73,0,0,1-2.44-6.5s-11.41-1.1-17.68-15.88c4.49,5,9.74,7.83,15,7,0,0-.16-6.73.45-14.05s2.82-10.52,2.82-10.52a21.56,21.56,0,0,1,.31-14.71,34.32,34.32,0,0,0,1.22-21.65c2,2.59,4.57,6.71,4.88,14.33a109.49,109.49,0,0,1-.11,11,65,65,0,0,1,8.51-10.62c-.72-3.9-3.77-23.65,3.19-44.26,0,0,.61,9.45,3.65,15.09a62.75,62.75,0,0,1,5.89,19.57,67.31,67.31,0,0,1,20.57-6.76l.54-.08c3.94-50.36,32.09-40.79,30.95-73.27,12.7,25.61,7.77,52-2.23,73.33,2.05.31,4,.66,4,.66a106.88,106.88,0,0,1,10.48,2.38c7.71,2.09,15.1,4.19,22.12,6.61,6.89-4.35,12.86-10.91,14.28-26.26a176.31,176.31,0,0,1,3.9,33.89,89,89,0,0,1,11,6.66c5.62-6.11,10.19-12.5,11.38-19.18,1.5,15.73,2.11,24.82,1.85,31.11,4.55,5.39,7.36,10.95,8.36,16.56a29.62,29.62,0,0,1,.38,3.38A23,23,0,0,0,525.77,344c-1.37,7.36-6.83,13.18-14,17.33a73.93,73.93,0,0,1-1.15,12.15C536.3,367.85,545.2,339,525.81,301.64Z"/><path class="cls-2" d="M502.22,376.53c.12-.15.21-.3.32-.44l.25-.35c.1-.17.18-.33.27-.5a2.28,2.28,0,0,0,.14-.28,5.1,5.1,0,0,0,.28-.74c.09-.33.18-.69.26-1.06a2.05,2.05,0,0,1,.07-.34c.07-.28.12-.57.17-.9a2.17,2.17,0,0,1,.07-.35c.07-.41.14-.83.2-1.26v-.08l.17-1.26.05-.43c0-.33.07-.67.1-1a1.57,1.57,0,0,1,0-.44c.05-.47.08-.9.12-1.41v-.21c0-.41,0-.83.07-1.23v-.52a5.49,5.49,0,0,1,.05-.9c-2.7,2.92-9.28,4.7-15.71,3.59-1-.17-1.84.85-1.92,1.86l-1.13,15.18,1.56-.24.78-.13c.51-.09,1-.19,1.46-.3l.73-.16,1.33-.35.66-.2c.41-.12.82-.25,1.2-.39l.62-.22c.37-.13.73-.28,1.07-.42l.58-.25c.32-.15.65-.29.9-.44a4.81,4.81,0,0,1,.53-.28l.82-.46.49-.31c.23-.15.47-.3.69-.46s.31-.22.45-.34l.58-.44.4-.37.47-.43.36-.4C501.88,376.74,502.12,376.66,502.22,376.53Z"/></svg>