<svg xmlns="http://www.w3.org/2000/svg" xmlns:xlink="http://www.w3.org/1999/xlink" viewBox="0 0 841.89 595.28"><defs><style>.cls-1{isolation:isolate;}.cls-2{fill:#010101;}.cls-10,.cls-13,.cls-3,.cls-7{mix-blend-mode:screen;}.cls-3{fill:url(#linear-gradient);}.cls-4{fill:url(#linear-gradient-2);}.cls-5{fill:url(#linear-gradient-3);}.cls-6{fill:url(#linear-gradient-4);}.cls-7{fill:url(#linear-gradient-5);}.cls-8{fill:url(#linear-gradient-6);}.cls-9{fill:url(#linear-gradient-7);}.cls-10{fill:url(#linear-gradient-8);}.cls-11{fill:url(#linear-gradient-9);}.cls-12{fill:url(#linear-gradient-10);}.cls-13{fill:url(#linear-gradient-11);}.cls-14{fill:url(#linear-gradient-12);}.cls-15{fill:#be242e;}.cls-16{fill:url(#linear-gradient-13);}.cls-17{fill:url(#linear-gradient-14);}.cls-18{fill:#941d22;}.cls-19{fill:#a91f25;}.cls-20{fill:url(#linear-gradient-15);}.cls-21{fill:#95351f;}.cls-22{opacity:0.05;}</style><linearGradient id="linear-gradient" x1="413.02" y1="231.74" x2="413.02" y2="370.65" gradientUnits="userSpaceOnUse"><stop offset="0" stop-color="#010101"/><stop offset="1" stop-color="#f48420"/></linearGradient><linearGradient id="linear-gradient-2" x1="415.55" y1="314.75" x2="415.55" y2="418.12" gradientUnits="userSpaceOnUse"><stop offset="0" stop-color="#ed3326" stop-opacity="0"/><stop offset="1" stop-color="#faed14"/></linearGradient><linearGradient id="linear-gradient-3" x1="605.72" y1="304.15" x2="618.92" y2="387.25" gradientTransform="matrix(-1, 0, 0, 1, 1108.83, 0)" gradientUnits="userSpaceOnUse"><stop offset="0" stop-color="#ed3326"/><stop offset="1" stop-color="#faed14"/></linearGradient><linearGradient id="linear-gradient-4" x1="583.56" y1="285.64" x2="627.27" y2="375.2" xlink:href="#linear-gradient-3"/><linearGradient id="linear-gradient-5" x1="599.81" y1="310.3" x2="618.67" y2="374.6" gradientTransform="matrix(-1, 0, 0, 1, 1108.83, 0)" xlink:href="#linear-gradient"/><linearGradient id="linear-gradient-6" x1="398.2" y1="240.02" x2="423.02" y2="396.3" gradientTransform="matrix(1, 0, 0, 1, 0, 0)" xlink:href="#linear-gradient-3"/><linearGradient id="linear-gradient-7" x1="412.96" y1="203.47" x2="412.96" y2="376.87" gradientTransform="matrix(1, 0, 0, 1, 0, 0)" xlink:href="#linear-gradient-3"/><linearGradient id="linear-gradient-8" x1="413.55" y1="232.13" x2="413.55" y2="370.66" xlink:href="#linear-gradient"/><linearGradient id="linear-gradient-9" x1="344.88" y1="313.31" x2="357.46" y2="392.51" gradientTransform="translate(83.95 -77.21) rotate(14.54)" xlink:href="#linear-gradient-3"/><linearGradient id="linear-gradient-10" x1="326.72" y1="306.34" x2="363.77" y2="382.25" gradientTransform="translate(83.95 -77.21) rotate(14.54)" xlink:href="#linear-gradient-3"/><linearGradient id="linear-gradient-11" x1="341.16" y1="320.51" x2="359.38" y2="382.61" gradientTransform="translate(83.95 -77.21) rotate(14.54)" xlink:href="#linear-gradient"/><linearGradient id="linear-gradient-12" x1="421.3" y1="401.6" x2="421.3" y2="314.6" gradientTransform="matrix(1, 0, 0, 1, 0, 0)" xlink:href="#linear-gradient-3"/><linearGradient id="linear-gradient-13" x1="403.12" y1="294.67" x2="403.12" y2="365.96" gradientUnits="userSpaceOnUse"><stop offset="0.27" stop-color="#f6b429"/><stop offset="0.4" stop-color="#ed782c"/><stop offset="0.6" stop-color="#ed3326"/><stop offset="1" stop-color="#be242e"/></linearGradient><linearGradient id="linear-gradient-14" x1="353.34" y1="357.62" x2="389.02" y2="302.01" gradientUnits="userSpaceOnUse"><stop offset="0" stop-color="#be242e"/><stop offset="0.4" stop-color="#ed3326"/><stop offset="0.6" stop-color="#ed782c"/><stop offset="0.73" stop-color="#f6b429"/></linearGradient><linearGradient id="linear-gradient-15" x1="409.75" y1="290.94" x2="472.31" y2="364.8" gradientUnits="userSpaceOnUse"><stop offset="0.27" stop-color="#f6b429"/><stop offset="0.4" stop-color="#ed782c"/><stop offset="0.6" stop-color="#ed3326"/><stop offset="0.98" stop-color="#be242e"/></linearGradient></defs><g class="cls-1"><g id="Layer_1" data-name="Layer 1"><path class="cls-2" d="M550.64,403.75l-2.82-2.83-20.94,20.94a2.12,2.12,0,0,0-.32-.42l-23.32-23.33,21-21-2.83-2.82-21,21-58.87-58.87a2,2,0,0,0-2.82,2.83l58.87,58.86-23.69,23.7L450.07,398l15.79-15.78a2,2,0,1,0-2.83-2.83l-15.79,15.78L421.1,369a2,2,0,1,0-2.82,2.83L444.41,398l-23.82,23.83L396.77,398l15.79-15.79a2,2,0,0,0-2.83-2.83l-15.79,15.79-24.55-24.55,14-14a2,2,0,0,0-2.83-2.82l-14.72,14.71a2.09,2.09,0,0,0-.86.5,2,2,0,0,0-.5.87l-24.55,24.55L314.5,369a2,2,0,0,0-2.83,2.83l25.42,25.42-22.61,22.61-20.15-20.15-2.82,2.83,20.15,20.16a2,2,0,0,0,2.81,2.81l.14.14,2.83-2.83-.13-.13,22.61-22.61,25.57,25.57a2,2,0,0,0,1.41.58,2.06,2.06,0,0,0,.81-.17h.14a2,2,0,0,0,1.41-.59l24.68-24.68,24.73,24.73a2,2,0,0,0,1.41.59,1.81,1.81,0,0,1,1,0,2,2,0,0,0,1.41-.59l24.72-24.72,24.34,24.34a2,2,0,0,0,1.42.59,2,2,0,0,0,1.41-.59,2,2,0,0,0,.44-.67l1,1,24.55-24.55,23.33,23.33a2,2,0,0,0,2.82,0,2,2,0,0,0,.47-.76l1.93,1.93ZM367.29,421.81l-24.54-24.55,23.82-23.82L391.11,398Z"/><polygon class="cls-2" points="575.93 422.47 496.44 342.51 496.44 356.58 566.9 427.04 575.69 427.04 575.93 422.47"/><path class="cls-3" d="M466.79,292.07c-3.46,37.35-33.9,22.83-38.74,50.5-24.91-39.44,13.14-51.2-6.23-91.32,4.84,24.91-48.26,44.67-22.14,96.85-12.45,1.38-40.12-13.83-40.81-42.2a106.4,106.4,0,0,0-2.6,12.42c1.47,2.47,2.9,5,4.24,7.52l-4.34,2c-.22-.55-.48-1.09-.71-1.64-2.15,37.14,21,61.3,58.75,61.3C473.58,387.53,475.78,335.65,466.79,292.07Z"/><polygon class="cls-2" points="265.26 422.47 317.78 369.48 317.78 383.55 274.29 427.04 265.5 427.04 265.26 422.47"/><ellipse class="cls-4" cx="415.55" cy="374.4" rx="99.41" ry="38.69"/><path class="cls-5" d="M518.17,312.44c4.91,20.85.1,26.87-9.81,34.95,17.78-26.37-14.72-39.24,17.78-70.51-61.31,9.2-83.35,100.11-43.5,107.33C523.08,391.53,542.08,358.42,518.17,312.44Z"/><path class="cls-6" d="M521.69,342.75c-8.56,6.85-12,14.55-23.11,13.7,15.3-32.36-12.29-36.65,11.62-71-33.72,17.78-59,78.92-31.27,94.42C499.77,391.53,520,378.71,521.69,342.75Z"/><path class="cls-7" d="M477.18,373.57c11.61,11.62,36.71,4.29,41-18.83-8,11.65-20.45,12-28.15,8.56,5.65-12.46,6.84-13.7,3.42-49.66C489.16,337.61,460.91,357.3,477.18,373.57Z"/><path class="cls-8" d="M367.84,240.55c-8.28,31,4.48,36.63,4.76,57.46-1.31-60.22,54.57-63.67,16.63-114.72,45.52,24.83,64.16,64.16,51.74,110.38,17.93-11.73,22.76-43.47,4.82-76.58,36.57,28.29,76.83,175.76-28.28,175.23C348.87,392,303.68,339.2,367.84,240.55Z"/><path class="cls-9" d="M358.87,281.94c-1.38,21,12.27,40.87,26.22,53.12-20-54.5,41.59-80.77,24.83-121.42,28.29,23.46,26.91,78,15.18,109,11-27.59,41.85-12.19,38.63-55.88,17,47.37,25,122.8-46.22,122.8C355.42,389.56,338.17,341.27,358.87,281.94Z"/><path class="cls-10" d="M359.56,306.09c.69,28.28,28.29,43.46,40.7,42.08-26.05-52,26.91-71.75,22.08-96.58,19.32,40-18.63,51.73,6.21,91.06,4.83-27.6,35.18-13.11,38.63-50.36,9,43.46,6.77,95.2-52.43,95.2C370.6,387.49,346.45,354.38,359.56,306.09Z"/><path class="cls-11" d="M318.1,315.15c-5.9,21.66-2.46,30.39,6.49,39.84-8.84-27.87,22.27-29.49,2.06-72.8C359.9,311.92,386,389.75,340.17,391.1,300.54,392.27,294.84,351.55,318.1,315.15Z"/><path class="cls-12" d="M311.91,345.41c6.15,8.21,7.44,16,17.72,17.83-3-33.06,12.26-25,9.65-59.57,16.08,27.35,38.09,81.4.08,85.08C323.63,390.28,305,378.38,311.91,345.41Z"/><path class="cls-13" d="M345.07,386c-13.25,7.81-31.7-7.9-30.15-29.84,5.39,9.88,13.07,16.63,20.86,15.34-4.71-11.22-3.08-25.77,8.56-45.79C336,346.56,372.75,369.64,345.07,386Z"/><path class="cls-14" d="M497.4,362.57c-.7-3.88-3.33-12.11-16.12-22.11-13.51-10.56-30.13-16-51.95-21.9-33.52-9.09-58-1.24-69.56,10.58-7.38,7.53-14.78,16.31-14.78,34.18,0,0-.66,9.37.25,14.94.59,3.59,4,15.15,18,19.4s38.22,5,51.62,2.57,29.85-7.27,50.57-5.76,29.72-5.16,30.94-9.54C498,379.06,498.2,367,497.4,362.57Z"/><path class="cls-15" d="M440,395.62c.4-4.51,1.34-15.33,1.34-19.1,0-4.8-.69-10.53-3.67-14.19s-3.2-7.09-6.4-3.89-4.58,5.5-6.41,5.95-5-.23-8.24,1.83-3.2,3.21-.91,5.95,5.72,3.21,6.4,8.7c.63,5,.37,14.23.32,18C427.78,397.78,433.62,396.54,440,395.62Z"/><path class="cls-16" d="M382.83,325.15c-5.34,7.47-6.75,21.64.35,27.59s15.13,11.91,21.31,6.88c0,0-1.33,4.08-4.08,4.77,0,0,9.5,4.05,13.16-.23,2.32-2.72,6-3.2,9-4.57s5.95-3,5.26-6.18-1.37-4.58-1.6-7.1-3-4.57-7.32-6.4-5.72,3.43-11.67,4.34A28,28,0,0,0,414.3,336c2.75-5,2.29-5.5,4.12-7.33s4.34-7.76,2.07-12.57a95.85,95.85,0,0,0-25.27-1.49A36.4,36.4,0,0,0,382.83,325.15Z"/><path class="cls-15" d="M415.14,382.8c0-2.85-1.07-7-4-8.8s-6-1.83-11-2.74a24.55,24.55,0,0,1-11.44-5.72c-2.74-2.29-5-7.1-6.63-6s-3,3-3,8.69-1.14,8.47.92,11.67a14.47,14.47,0,0,1,2.74,8.7c0,2.55-.09,9.62-.13,12.41,11.65,1.05,24.2.78,32.59-.73C415.17,396.59,415.14,385.17,415.14,382.8Z"/><path class="cls-17" d="M352.06,367.37c3.66-2.06,7.78-8.24,8.46-11.67a17.34,17.34,0,0,0-.68-7.55s5,6.63,8.92,5.26,4.12-6.18,4.35-11A33.23,33.23,0,0,1,377.46,328c2.2-3.52,4-10.5,4.18-11-9.68,2.66-17.25,7.11-22.26,12.24C352,336.79,345,345.09,345,363.06c0,0,0,.17,0,.46C345.82,364.82,348.93,369.13,352.06,367.37Z"/><path class="cls-15" d="M474,376.75a18.66,18.66,0,0,0-6.41-10.53c-3.43-2.74-4.12-1.14-9.15-2.51s-10.07-3.89-11.67-3.89-4.58-.69-3,2.74,3.44,4.12,3.21,13.05c-.18,6.85.09,15.49.23,19.14a112.94,112.94,0,0,1,18.58-.22,72.07,72.07,0,0,0,7.35.2C473.51,390.85,474.41,379.4,474,376.75Z"/><path class="cls-15" d="M375.63,382.7c0-2.75-1.6-3.66-1.37-8.92s3-13.28-1.38-14.19-6.41-1.15-9.38,2.74-6.87,7.33-7.09,14c-.21,5.92,1.37,13.87,1.71,19.1a28.65,28.65,0,0,0,5.53,2.34,81.75,81.75,0,0,0,11.52,2.46C375.28,396.54,375.63,385,375.63,382.7Z"/><path class="cls-18" d="M422.4,398.89c5.38-1.12,11.22-2.35,17.57-3.27.36-4.08,1.16-13.29,1.31-17.81-7,.94-13.32,2.3-19.15,3.51C422.69,386.42,422.44,395.19,422.4,398.89Z"/><path class="cls-19" d="M347.3,366.28a23.35,23.35,0,0,1-1.78-5.62c-.17-1-.3-2.21-.4-3.43-.18,1.85-.28,3.8-.28,5.9v.16A14.53,14.53,0,0,0,347.3,366.28Z"/><path class="cls-19" d="M497.87,366.59c-.08-1.39-.2-2.61-.34-3.56a30.22,30.22,0,0,1-.8,4.32,5.26,5.26,0,0,1-.39,1A7.1,7.1,0,0,0,497.87,366.59Z"/><path class="cls-18" d="M375.63,382.7v0a82.86,82.86,0,0,1-12.12-2.55,27.67,27.67,0,0,1-7.11-3.27c-.1,5.89,1.41,13.58,1.73,18.65a29.19,29.19,0,0,0,5.38,2.25,82.15,82.15,0,0,0,11.66,2.47C375.28,396.59,375.63,385,375.63,382.7Z"/><path class="cls-18" d="M474.06,377.09a73.86,73.86,0,0,1-8.29-.17,113,113,0,0,0-18.77.23c-.11,6.57.14,14.23.26,17.6a112.18,112.18,0,0,1,18.51-.2c2.67.19,5.13.25,7.42.2C473.5,391,474.34,380.24,474.06,377.09Z"/><path class="cls-18" d="M415.14,382.8v-.1c-8.55,1.55-21.47,1.79-33.35.67a13.72,13.72,0,0,1,.93,5.28c0,2.55-.09,9.64-.13,12.42,11.66,1,24.22.77,32.58-.75h0C415.17,396.56,415.14,385.17,415.14,382.8Z"/><path class="cls-20" d="M481.12,360.5c-5-2.51-9.15-2.74-13.27-6.18s-11.9-4.57-11.9-4.57,5.95-1.6,8.7-.92,6.41-.91,2.74-3-5.26-6.87-5.26-10.76c0,0,3,6.64,6.64,7.55,3.05.77,6.13-3.85,7.47-5.15h0l.46-.44c-12.57-8.35-27.81-13.59-46.93-18.8-1.82-.5-3.6-.93-5.36-1.32.07.38,1.05,6-.72,10.61-1.83,4.81-3.89,7.32-2.05,8.7s7.55.68,9.84,2.28,5,1.38,7.55,1.38,4.35,3.2,4.35,3.2a10.37,10.37,0,0,0-8-.91c-4.35,1.37-5,6.17-3.67,7.55s6.41,5.26,11.68,4.8,10.52,2.29,14.64,4.12,6.87.46,9.38,3.21,5.27,7.09,9.84,9.84,9.84,1.37,10.53-1.61S486.16,363,481.12,360.5Z"/><path class="cls-15" d="M488,346.19a67.78,67.78,0,0,0-6.14-5.4l-.62-.47-.2.13c-1.11.84-7.95,6.09-8.37,8.61-.46,2.75,2.74,3.66,5.95,2.52s5.94-5,9.37-5.39Z"/><path class="cls-15" d="M497.5,362.49c-.52-2.92-1.86-8-7.88-14.59h0s-4.14,1.84-4.14,4.35.69,4.12,3.66,6.87,4.12,4.12,3.89,7.32,2.56,3.71,4.9.07A34.92,34.92,0,0,0,497.5,362.49Z"/><rect class="cls-2" x="264.56" y="421.53" width="312.78" height="12.19" rx="2.93"/><path class="cls-2" d="M110.22,483.12v42.11h21.15v10.52H99.64V483.12Z"/><path class="cls-2" d="M138,483.12H148.6v52.63H138Z"/><path class="cls-2" d="M188.94,483v10.54H167.79v10.61h15.86v10.55H167.79v21.12H157.21V483Z"/><path class="cls-2" d="M227.32,483v10.54H206.17v10.61H222v10.55H206.17V525.3h21.15v10.51H195.59V483Z"/><path class="cls-2" d="M248.64,525.39c2.92,0,6.15-2.43,6.15-5.35,0-4.81-6.45-5.48-10.09-6.74-6.42-2.18-12.09-7.45-12.09-14.62a16.06,16.06,0,0,1,32-2.22l-10.5,2.22a5.34,5.34,0,0,0-10.68,0c0,4.74,6,6,9.66,7.09,6.64,1.92,12.49,7,12.49,14.3,0,8.88-8,16-16.82,16-8.14,0-15.5-6-16.7-13.8l10.51-2.24c0,2.94,3.19,5.33,6.16,5.33Z"/><path class="cls-2" d="M306.73,483.12V493.6H293.81v42.15H283.2V493.6h-13V483.12Z"/><path class="cls-2" d="M323.37,483.12l9.6,18.25,9.6-18.25h12l-16.32,30.07v22.56H327.72V513.19l-16.29-30.07Z"/><path class="cls-2" d="M371.78,483.12v42.11h21.15v10.52H361.2V483.12Z"/><path class="cls-2" d="M431.32,483v10.54H410.16v10.61H426v10.55H410.16V525.3h21.16v10.51H399.58V483Z"/><path class="cls-2" d="M473.22,483.12v42.11h21.15v10.52H462.64V483.12Z"/><path class="cls-2" d="M542.41,490.56a26.57,26.57,0,1,1-18.87-7.86A25.78,25.78,0,0,1,542.41,490.56Zm-30.19,7.51a16,16,0,0,0,0,22.66,16,16,0,1,0,0-22.66Z"/><path class="cls-2" d="M637.67,512.21V483h10.61v53.83l-31.74-30.23v29.22H606V482Z"/><path class="cls-2" d="M681.63,482.79a26.84,26.84,0,0,1,18.9,7.81L693,498.14a15.54,15.54,0,0,0-11.29-4.74,15.27,15.27,0,0,0-11.3,4.74,16,16,0,0,0,0,22.65,15.26,15.26,0,0,0,11.3,4.71,16,16,0,0,0,14.43-9.21h-15V506.2h27c.75,9.84-2.48,17-7.67,22.14a25.87,25.87,0,0,1-18.87,7.8,26.68,26.68,0,0,1-26.67-26.67,25.92,25.92,0,0,1,7.83-18.91,25.51,25.51,0,0,1,18.84-7.86Z"/><path class="cls-2" d="M746.62,483v10.54H725.47v10.61h15.86v10.55H725.47V525.3h21.15v10.51H714.89V483Z"/><path class="cls-2" d="M596.22,484.83l1.29-1.67H553.15l1.29,1.67c.13.17,12.91,16.74,14.8,19.64,1.77,2.72,2.51,5.36,2.51,14.69a30.78,30.78,0,0,1-.64,7,5.82,5.82,0,0,1-2.44,3.46c-2.09,1.41-6,4-7,4.56l-3.62,2h34.58l-3.62-2c-1.11-.59-5-3.19-7-4.56a5.79,5.79,0,0,1-2.41-3.42,29.44,29.44,0,0,1-.67-7c0-9.33.74-12,2.52-14.69C583.3,501.57,596.09,485,596.22,484.83ZM577.67,503a15.77,15.77,0,0,0-2.34,5.88A15.61,15.61,0,0,0,573,503c-1.17-1.8-11.76-15.85-11.76-15.85a40.14,40.14,0,0,0,5.27.11c.56,0,.89,0,.89,0,3.83-.12,7.76-.28,11.71,1.09,2.92,1,5.48,2.17,7.69,2.54C586.79,490.83,578.53,501.66,577.67,503Z"/><path class="cls-2" d="M209.58,96.77c-1.34-5-9.58-4.56-13.46-1.14s-3.42,10.5,1.83,11.86S212.32,107,209.58,96.77Z"/><path class="cls-2" d="M102.17,84.35V97.88H75v13.61H95.39V125H75v27.09H61.46V84.35Z"/><path class="cls-2" d="M124,84.52v54h27.14V152h-40.7V84.52Z"/><path class="cls-2" d="M263.43,153.54,233,84.52h14.36l16,37,16.08-37H294Z"/><path class="cls-2" d="M352,94.07a34.13,34.13,0,0,1,0,48.45,34.26,34.26,0,0,1-58.46-24.2A34.2,34.2,0,0,1,352,94.07Zm-38.74,9.63a20.53,20.53,0,0,0,0,29.07,20.54,20.54,0,1,0,29-29.07,20.47,20.47,0,0,0-29,0Z"/><path class="cls-2" d="M411.17,125.35V84.52h13.65V125.4a27.31,27.31,0,0,1-54.61,0V84.52h13.65v40.83a13.66,13.66,0,0,0,27.31,0Z"/><path class="cls-2" d="M435.58,84.52h22a24.8,24.8,0,0,1,17.67,6.87c4.11,4.11,6.53,7.86,6.53,15.33v1.76a21.81,21.81,0,0,1-4.27,12.85,15.38,15.38,0,0,1-8.08,6.24L485.16,152H468.58l-19.39-29.86V152H435.62Zm32.25,22.62a9.18,9.18,0,0,0-2.68-6.5C463.38,98.93,460,98,456.77,98h-7.62V116.6h5.23v0h4.53C463.85,116.64,467.83,112.28,467.83,107.14Z"/><path class="cls-2" d="M532,84.52v29.86l17.3-29.86H565l-20,34.3L568.2,152H551.7L532,123.72V152H518.49V84.52Z"/><path class="cls-2" d="M576.45,84.52H590V152H576.45Z"/><path class="cls-2" d="M641.44,121.84V84.35h13.61v69.06l-40.7-38.78v37.48H600.78v-69Z"/><path class="cls-2" d="M697.55,84.1a34.47,34.47,0,0,1,24.25,10l-9.67,9.68a20,20,0,0,0-14.49-6.08,19.59,19.59,0,0,0-14.49,6.08,20.52,20.52,0,0,0,0,29.06,19.57,19.57,0,0,0,14.49,6,20.49,20.49,0,0,0,18.51-11.81H696.88V114.13h34.68c1,12.62-3.18,21.78-9.84,28.39a33.14,33.14,0,0,1-24.21,10,34.24,34.24,0,0,1-34.21-34.21,33.23,33.23,0,0,1,10.05-24.25A32.68,32.68,0,0,1,697.51,84Z"/><path class="cls-2" d="M758.74,138.74c3.75,0,7.89-3.11,7.89-6.86,0-6.16-8.28-7-12.94-8.64-8.24-2.81-15.51-9.56-15.51-18.76a20.6,20.6,0,0,1,41-2.84l-13.48,2.84a6.85,6.85,0,0,0-13.69,0c0,6.08,7.69,7.69,12.38,9.09,8.52,2.45,16,8.94,16,18.34,0,11.39-10.22,20.58-21.59,20.58-10.44,0-19.88-7.66-21.41-17.71L750.9,132c0,3.77,4.1,6.84,7.9,6.84Z"/><path class="cls-2" d="M231.81,120.46c-2.57-12.93-10.29-29.17-19.42-35.23s-20.13-4.4-35.81,14.87c0,0-10.3,13.48-12.88,27.52s.85,22.84,12.18,22.84c19.66,0,23.08-8.69,30.42-9.08,10.3-.55,14.75,10.19,20.83,5.23C232.91,141.91,234.39,133.4,231.81,120.46Zm-33.86-13c-5.25-1.36-5.71-8.44-1.83-11.86s12.12-3.89,13.46,1.14C212.32,107,203.19,108.86,198,107.49Z"/><path class="cls-21" d="M178.57,146.18a30.69,30.69,0,0,1-6.7-.7c-5.08-1.15-5.93-8.15-5.11-13.8.79-5.45,1.18-7.69,2.85-8.64a1.65,1.65,0,0,1,.78-.16,7.69,7.69,0,0,1,2.78.73c.47.24,1,.57,1.66.94,2.54,1.48,6,3.52,9.93,3.52h.32a33.68,33.68,0,0,0,16.58-5.19,7,7,0,0,1,3.74-1.32,3.22,3.22,0,0,1,3.25,2.15c.19,1,.32,1.71-6,4.46-4,1.73-6.68,6.11-9.09,10-1.52,2.46-3,4.79-4.35,5.73C187.08,145.32,183.1,146.18,178.57,146.18Z"/><path class="cls-21" d="M222.88,141.85c-1.89,0-4.25-1.44-6.15-2.59l-1-.59a14.29,14.29,0,0,0-7.07-2.4,8.55,8.55,0,0,0-3.63.82,9.27,9.27,0,0,1-3.57,1,1.13,1.13,0,0,1-.88-.27c-.09-.11-.34-.59,0-2,1-3.51,5.36-5.11,5.92-5.29,4.48-.75,5.93-2.71,7-4.14.83-1.12,1.28-1.73,2.93-1.73a10.72,10.72,0,0,1,2.23.28,5.4,5.4,0,0,0,1,.1c1.84,0,2.93-1.17,3.9-2.19s1.64-1.69,2.75-1.69a2,2,0,0,1,.34,0c.79.08,2.21,3.89,2.07,9.59-.12,4.73-2,9.2-4.38,10.62A2.85,2.85,0,0,1,222.88,141.85Z"/><path class="cls-21" d="M184.73,121.24c-4.3,0-8.28-1.94-9.88-4.82a5.8,5.8,0,0,1,.34-6.16A129.29,129.29,0,0,1,186,95.88c6.64-6.25,12.42-9.32,17.61-9.32a13.6,13.6,0,0,1,6.26,1.57c6.25,3.17,11.41,11.78,13.1,18.27s.8,10.66-2.84,12.92a3.22,3.22,0,0,1-1.78.55h0a9.67,9.67,0,0,1-3.79-1.29,17.34,17.34,0,0,0-7.94-2.23H206a15,15,0,0,0-5.65,1.68C197.19,119.47,193.22,121.24,184.73,121.24ZM203.47,92a12.59,12.59,0,0,0-8,2.86,8.87,8.87,0,0,0-2.68,8.5,6.68,6.68,0,0,0,4.92,5.1,13.66,13.66,0,0,0,3.48.44c3.58,0,6.61-1.27,8.31-3.49s2.07-5.22,1.08-8.91C209.81,93.69,207.16,92,203.47,92Z"/><path class="cls-2" d="M575.45,79.18l15.25-5.45a4.11,4.11,0,0,0,2.49-5.25l-3-8.39-4.13,5.36-9.42-7-2.55,11.28-6.75-1,2.87,8A4.1,4.1,0,0,0,575.45,79.18Z"/><g class="cls-22"><path class="cls-2" d="M503.33,20.24C350.75-22,209.53,57.81,155.44,183.86c-18.54,35.66-23.29,97.46-23.29,97.46s23.64-52.78,71.4-100.24c7.81-7.75,30.23-34.62,65.45-47.26l.06.36a121,121,0,0,0,4.77,17.17,75.09,75.09,0,0,0,8,15.52,71.85,71.85,0,0,1-2.34-16.63,112.35,112.35,0,0,1,1.11-16.45c.67-4.49,1.56-8.92,2.63-13.29,5.34-12.58,16.14-33.79,32.18-45.34,23.77-17.11,35.42-18.06,41.36-12.83s7.13,23.29,5.7,39.21a157.84,157.84,0,0,1-2.58,17.37c-1.22,4.63-2.65,9.22-4.33,13.74a113.58,113.58,0,0,1-7,14.94A72.43,72.43,0,0,1,338.51,161,75.63,75.63,0,0,0,353,151.3a122,122,0,0,0,12.46-12.74c2.13-2.55,4.16-5.18,6.13-7.87,8.92.32,20.18,1.41,28.67,4.61,16.4,6.18,31.61,12.59,57,33,0,0-5-6.85-9.89-13.35-5.2-6.87-5.32-14.93-2.23-22.3s21.39-41.12,55.86-41.83c0,0,10,8.08,7.84,27.81s-8.32,33.27-15,42.54c-2.83,3.94-6.3,8.52-9.36,12.49A13.11,13.11,0,0,0,486,191.22c8,7.59,22.35,20.85,26.41,31.74,0,0-4.2,20.72-22.27,45.2S453,301,453,301s40.48-4.61,66.08-37.56c25-32.17,54.15-65.13,51.82-150.22,0,0,18.69,23.14,18.06,86.2s-6,82.4-6.65,91.28,5.07,18.38,3.48,33.91c-1.14,11.16-2.44,26.43-3.08,34.12a10.08,10.08,0,0,0,3.14,8.19l12.48,11.73a20.11,20.11,0,0,1,4.7,22.61l-20.95,48.68a27.82,27.82,0,0,1-16.93,15.46c-21.69,7.05-69.61,20.52-119.44,20.52-67.5,0-99.83-17.75-123.28-34.23,0,0,19,26.3,76.38,43.1,21.63,6.34,48.68,9.43,74,10.82,24.45,1.34,29.38,35.32,6.28,43.49a173.62,173.62,0,0,1-50.15,10c-71.31,3.16-107.76-.64-177.79-39.3-26.51-14.64-48.11-34.54-64.73-53.62A288.42,288.42,0,0,0,421,586.43c184.83,0,329.1-173.64,278.6-366.69C674.3,123.21,599.5,46.87,503.33,20.24Z"/><path class="cls-2" d="M517.9,424.36s20-28.09-5.33-34.38c-20.28-5-57.23,33.28-57.23,33.28S512,393.15,517.9,424.36Z"/><path class="cls-2" d="M322.51,287.39s-3.69,23.39,7.39,33.24,33.24,6.16,39.4,1.23C369.3,321.86,339.82,317.87,322.51,287.39Z"/></g></g></g></svg>