<svg xmlns="http://www.w3.org/2000/svg" xmlns:xlink="http://www.w3.org/1999/xlink" viewBox="0 0 841.89 595.28"><defs><style>.cls-1{isolation:isolate;}.cls-2{fill:#010101;}.cls-3{fill:#be242e;}.cls-4{fill:url(#radial-gradient);}.cls-10,.cls-11,.cls-12,.cls-13,.cls-14,.cls-15,.cls-5,.cls-6,.cls-7,.cls-8,.cls-9{fill:none;stroke-miterlimit:10;stroke-width:4px;}.cls-5{stroke:url(#linear-gradient);}.cls-6{stroke:url(#linear-gradient-2);}.cls-7{stroke:url(#linear-gradient-3);}.cls-8{stroke:url(#linear-gradient-4);}.cls-9{stroke:url(#linear-gradient-5);}.cls-10{stroke:url(#linear-gradient-6);}.cls-11{stroke:url(#linear-gradient-7);}.cls-12{stroke:url(#linear-gradient-8);}.cls-13{stroke:url(#linear-gradient-9);}.cls-14{stroke:url(#linear-gradient-10);}.cls-15{stroke:url(#linear-gradient-11);}.cls-16{fill:url(#linear-gradient-12);}.cls-17{fill:url(#linear-gradient-13);}.cls-18,.cls-21,.cls-24,.cls-26,.cls-27,.cls-30{mix-blend-mode:screen;}.cls-18{fill:url(#linear-gradient-14);}.cls-19{fill:url(#linear-gradient-15);}.cls-20{fill:url(#linear-gradient-16);}.cls-21{fill:url(#linear-gradient-17);}.cls-22{fill:url(#linear-gradient-18);}.cls-23{fill:url(#linear-gradient-19);}.cls-24{fill:url(#linear-gradient-20);}.cls-25{fill:#95351f;}.cls-26{fill:url(#linear-gradient-21);}.cls-27{fill:url(#linear-gradient-22);}.cls-28{fill:#651f0d;}.cls-29{fill:#a91f25;}.cls-30{fill:url(#linear-gradient-23);}.cls-31{opacity:0.05;}</style><radialGradient id="radial-gradient" cx="419.07" cy="223.28" r="98.14" gradientUnits="userSpaceOnUse"><stop offset="0" stop-color="#faed14"/><stop offset="1" stop-color="#ed3326"/></radialGradient><linearGradient id="linear-gradient" x1="394.57" y1="254.73" x2="397.4" y2="251.9" gradientUnits="userSpaceOnUse"><stop offset="0.1" stop-color="#2d2b2b"/><stop offset="0.5" stop-color="#535151"/><stop offset="0.94" stop-color="#232323"/></linearGradient><linearGradient id="linear-gradient-2" x1="354.64" y1="254.77" x2="357.47" y2="251.95" xlink:href="#linear-gradient"/><linearGradient id="linear-gradient-3" x1="435.91" y1="256.21" x2="438.74" y2="259.04" xlink:href="#linear-gradient"/><linearGradient id="linear-gradient-4" x1="395.95" y1="256.2" x2="398.78" y2="259.03" xlink:href="#linear-gradient"/><linearGradient id="linear-gradient-5" x1="364.87" y1="245.5" x2="367.7" y2="248.33" xlink:href="#linear-gradient"/><linearGradient id="linear-gradient-6" x1="323.83" y1="265.74" x2="326.66" y2="262.91" xlink:href="#linear-gradient"/><linearGradient id="linear-gradient-7" x1="438.89" y1="254.56" x2="441.71" y2="251.73" xlink:href="#linear-gradient"/><linearGradient id="linear-gradient-8" x1="468.2" y1="240.59" x2="471.03" y2="237.77" xlink:href="#linear-gradient"/><linearGradient id="linear-gradient-9" x1="483.41" y1="253.19" x2="486.24" y2="256.02" xlink:href="#linear-gradient"/><linearGradient id="linear-gradient-10" x1="515.52" y1="264.37" x2="518.34" y2="267.19" xlink:href="#linear-gradient"/><linearGradient id="linear-gradient-11" x1="285.8" y1="223.24" x2="552.33" y2="223.24" xlink:href="#linear-gradient"/><linearGradient id="linear-gradient-12" x1="621.41" y1="175.44" x2="632.45" y2="244.98" gradientTransform="matrix(-1, 0, 0, 1, 1108.83, 0)" gradientUnits="userSpaceOnUse"><stop offset="0" stop-color="#ed3326"/><stop offset="1" stop-color="#faed14"/></linearGradient><linearGradient id="linear-gradient-13" x1="602.86" y1="159.96" x2="639.44" y2="234.9" xlink:href="#linear-gradient-12"/><linearGradient id="linear-gradient-14" x1="616.46" y1="180.59" x2="632.25" y2="234.39" gradientTransform="matrix(-1, 0, 0, 1, 1108.83, 0)" gradientUnits="userSpaceOnUse"><stop offset="0" stop-color="#010101"/><stop offset="1" stop-color="#f48420"/></linearGradient><linearGradient id="linear-gradient-15" x1="399.64" y1="121.78" x2="420.41" y2="252.56" gradientTransform="matrix(1, 0, 0, 1, 0, 0)" xlink:href="#linear-gradient-12"/><linearGradient id="linear-gradient-16" x1="411.99" y1="91.2" x2="411.99" y2="236.3" gradientTransform="matrix(1, 0, 0, 1, 0, 0)" xlink:href="#linear-gradient-12"/><linearGradient id="linear-gradient-17" x1="412.49" y1="115.18" x2="412.49" y2="231.1" gradientTransform="matrix(1, 0, 0, 1, 0, 0)" xlink:href="#linear-gradient-14"/><linearGradient id="linear-gradient-18" x1="322.95" y1="184.6" x2="333.48" y2="250.87" gradientTransform="translate(83.95 -77.21) rotate(14.54)" xlink:href="#linear-gradient-12"/><linearGradient id="linear-gradient-19" x1="307.75" y1="178.77" x2="338.76" y2="242.29" gradientTransform="translate(83.95 -77.21) rotate(14.54)" xlink:href="#linear-gradient-12"/><linearGradient id="linear-gradient-20" x1="319.84" y1="190.63" x2="335.08" y2="242.59" gradientTransform="translate(83.95 -77.21) rotate(14.54)" xlink:href="#linear-gradient-14"/><linearGradient id="linear-gradient-21" x1="404.23" y1="186.68" x2="404.23" y2="222.62" gradientUnits="userSpaceOnUse"><stop offset="0" stop-color="#f48420"/><stop offset="1" stop-color="#be242e" stop-opacity="0"/></linearGradient><linearGradient id="linear-gradient-22" x1="367" y1="213.5" x2="380.58" y2="192.33" gradientUnits="userSpaceOnUse"><stop offset="0" stop-color="#be242e" stop-opacity="0"/><stop offset="1" stop-color="#f48420"/></linearGradient><linearGradient id="linear-gradient-23" x1="428.34" y1="185.82" x2="451.06" y2="214.38" xlink:href="#linear-gradient-21"/></defs><g class="cls-1"><g id="Layer_1" data-name="Layer 1"><path class="cls-2" d="M308.5,304.17l-.57.07c.18.67.39,1.37.66,2.12,2.6,7.24,2.46,10.8,2.46,10.8h.06c1.19,4.08,6.51,8.29,13.69,10.34,9.07,2.58,17.64.72,19.13-4.16a5.37,5.37,0,0,0,0-3A17.77,17.77,0,0,1,345.2,314l.58-.72c1.6-1.88,5.6-5.85,8.91-9.09Z"/><path class="cls-2" d="M547.74,200.45c-9.87-17.36-31.24-20.83-40.28-20.83s1.29-65.07-9.86-92.85c-8.07-20.09-57-23.18-76.68-23.18h-2.38c-19.73,0-68.61,3.09-76.67,23.18-11.16,27.78-.82,92.85-9.86,92.85s-30.42,3.47-40.28,20.83c-4.43,7.79-2.73,23.12.5,37.64,1.29,8.37,3,16.79,4.76,24.51l15.95-11.89-15.19,15.15c4,16.86,8.05,29.62,8.05,29.62l.51-1.61a8.14,8.14,0,0,0,0,1.71,35.9,35.9,0,0,0,.22,4.94h52l1.33-1.27s-8.22-1.9-12.43-2.72c-3.18-3.91-8.73-7.44-15.53-9.45-11.16-3.3-21.73-1.32-24.74,4.36l1.84-5.75-3.53-12.1c7.45,2.05,32.52,6.23,113.14,6.23h2.38c80.63,0,105.69-4.18,113.14-6.23l-3.52,12.1,1.58,4.95c-3.55-5.05-13.63-6.7-24.25-3.56-6.81,2-12.37,5.56-15.55,9.48-4.25.84-12.27,2.69-12.27,2.69l1.33,1.27h51.84a34.3,34.3,0,0,0,.2-4.94,6.45,6.45,0,0,0,0-.76l.21.66s3.92-12.36,7.86-28.84l-16-15.93,16.78,12.5c1.82-7.88,3.59-16.52,4.91-25.12C550.46,223.57,552.17,208.24,547.74,200.45Z"/><path class="cls-2" d="M531.79,304.17H485.15c3.31,3.24,7.31,7.21,8.91,9.09,1.19,1.48,1.57,4.72,1.69,7.14a5.28,5.28,0,0,0,0,3c1.49,4.88,10.06,6.74,19.13,4.16,7.17-2.05,12.5-6.26,13.68-10.34h.07s-.14-3.56,2.46-10.8C531.39,305.59,531.61,304.87,531.79,304.17Z"/><path class="cls-2" d="M80.83,428.63v-62.7h39.22v11.74H94.21V392h20.47V403.6H94.21v25Z"/><path class="cls-2" d="M129.79,428.63v-62.7h13.38v51h23.47v11.74Z"/><path class="cls-2" d="M213.32,413.8H191.67l-5.55,14.83h-14.2l23.3-62.7h14.46l23.21,62.7h-14ZM196,402.24h13L202.4,380.4Z"/><path class="cls-2" d="M234.35,365.93h13.83l11.19,41.13,11.1-41.13H284.4l-19.11,62.7H253.46Z"/><path class="cls-2" d="M288.13,397.42a31.35,31.35,0,0,1,9.23-22.8,31.75,31.75,0,0,1,45.14,0,32.59,32.59,0,0,1-.05,45.5,31.69,31.69,0,0,1-45.09,0A31.22,31.22,0,0,1,288.13,397.42ZM306.78,384a19.52,19.52,0,0,0,0,26.89,18.35,18.35,0,0,0,26.25,0A19.32,19.32,0,0,0,333,384a18.29,18.29,0,0,0-26.25,0Z"/><path class="cls-2" d="M379,414a11.06,11.06,0,0,0,15.2-.05,10.12,10.12,0,0,0,3.23-7.69V365.93h13.37v40.31q0,10.38-7.09,16.84a24.53,24.53,0,0,1-17.11,6.46,24.82,24.82,0,0,1-17.2-6.46q-7.2-6.46-7.19-16.84V365.93h13.56v40.31A10.06,10.06,0,0,0,379,414Z"/><path class="cls-2" d="M455.75,406.43l15.56,22.2h-16l-14-21.66h-3v21.66H424.9v-62.7h25.66q10,0,15.42,6.05a22.2,22.2,0,0,1,1.41,27.26A18.54,18.54,0,0,1,455.75,406.43Zm-5.83-28.76H438.27v17.65h11.29a7,7,0,0,0,5.78-2.73,9.66,9.66,0,0,0,2.13-6.09,10,10,0,0,0-2-6.05A6.51,6.51,0,0,0,449.92,377.67Z"/><path class="cls-2" d="M525.27,397l29.39,31.67H537.37l-18.84-21.29v21.29H505.07v-62.7h13.46V386.5l14.84-20.57H549Z"/><path class="cls-2" d="M560.48,365.93h13.29v62.7H560.48Z"/><path class="cls-2" d="M635.56,365.93v62.7H623.64L601.8,390.68v37.95H588.51v-62.7h12.2l21.47,37.49V365.93Z"/><path class="cls-2" d="M702.35,375.49,692.52,384a18.09,18.09,0,0,0-27.07-.55,20.85,20.85,0,0,0,0,28.08,17.48,17.48,0,0,0,13.28,5.87,19,19,0,0,0,10.29-3.05q4.81-3,4.91-7.78H677.15V395.69h32.21q0,17-8.24,25.43t-22.34,8.42a32,32,0,0,1-32.12-32.12,31.21,31.21,0,0,1,9.33-22.8,30.84,30.84,0,0,1,22.79-9.42A32.18,32.18,0,0,1,692,367.93,29,29,0,0,1,702.35,375.49Z"/><path class="cls-2" d="M715.73,410.25h13.38a7.52,7.52,0,0,0,2.64,5.37,9.78,9.78,0,0,0,6.73,2.18,10.93,10.93,0,0,0,6.6-1.82,5.9,5.9,0,0,0,2.59-4.82,5.54,5.54,0,0,0-1.5-4.1q-1.59-1.72-6-3L732.56,402q-16.18-5-16.19-18a16.88,16.88,0,0,1,6.18-13.51,23,23,0,0,1,15.38-5.24q9.29,0,15.25,5.19t6,14H745.85a6.74,6.74,0,0,0-2.09-5.14,8.51,8.51,0,0,0-6-1.95,9.19,9.19,0,0,0-5.82,1.77,5.47,5.47,0,0,0-2.28,4.51q0,4.46,6.74,6.37l7.46,2.36q17.65,5.1,17.2,18.93a16.64,16.64,0,0,1-3.46,10.24,19.1,19.1,0,0,1-8.33,6.23,29.79,29.79,0,0,1-10.78,1.91q-10.2,0-16.47-5.41A17.59,17.59,0,0,1,715.73,410.25Z"/><path class="cls-3" d="M214.45,455.15a85.84,85.84,0,0,0-7,9.51,132.67,132.67,0,0,0-6.69,11.77q-3.15,6.27-5.78,12.87a123,123,0,0,0-4.34,12.84q3.77-1.15,7.7-2.22c2.63-.71,5.14-1.32,7.55-1.84a63.36,63.36,0,0,1,6.72-1.11,18.32,18.32,0,0,1,5.25.08,12.19,12.19,0,0,1,3.69,1.36,10.4,10.4,0,0,1,2.75,2.25,7.91,7.91,0,0,1,1.56,2.87,7,7,0,0,1,.2,3,3,3,0,0,1-.62,1.1,5.27,5.27,0,0,1-.94.9,3,3,0,0,1-.94.5.47.47,0,0,1-.62-.29,2.11,2.11,0,0,1,0-.9,3.21,3.21,0,0,0,0-1.4,10.49,10.49,0,0,0-5.28-.69,66.29,66.29,0,0,0-8.12,1c-3,.55-6.23,1.2-9.6,2s-6.63,1.46-9.8,2.09-6.06,1.12-8.69,1.48a21.35,21.35,0,0,1-6.23.12,2.43,2.43,0,0,1-1.68-1,5.94,5.94,0,0,1-.9-1.84,4.61,4.61,0,0,1-.21-1.72c.06-.49.17-.74.33-.74a11.88,11.88,0,0,0,4.06-.78q3.15-.94,7.67-2.34c-.11-.43-.22-.86-.33-1.27a12.33,12.33,0,0,1-.29-1.47,13,13,0,0,1-.08-2.18c0-.87.12-2,.29-3.36a56.58,56.58,0,0,1,2.46-10.58,94.49,94.49,0,0,1,4.75-11.8A97.13,97.13,0,0,1,198,461.63a78,78,0,0,1,8.2-10.41,51.47,51.47,0,0,1,9.26-7.88,26.76,26.76,0,0,1,10-4.1,10.91,10.91,0,0,1,5.91.7,11.74,11.74,0,0,1,5,3.77,13.7,13.7,0,0,1,2.62,6.28,14.85,14.85,0,0,1-1.19,8.11,28.65,28.65,0,0,1-4,7.06,24.14,24.14,0,0,1-4.8,4.63,21.31,21.31,0,0,1-5,2.66,19.59,19.59,0,0,1-4.55,1.15,16,16,0,0,1-3.61.08,4.93,4.93,0,0,1-2-.49q-.9-.57-.9-1t1.23-1.11a31.62,31.62,0,0,0,5.62-3.81,43.66,43.66,0,0,0,4.87-4.84,54.19,54.19,0,0,0,4-5.21,36,36,0,0,0,2.83-4.92,16.38,16.38,0,0,0,1.35-3.93,2.8,2.8,0,0,0-.28-2.3,3.69,3.69,0,0,0-2.63-.94,10.27,10.27,0,0,0-4.1.94,24,24,0,0,0-5.25,3.2A42.76,42.76,0,0,0,214.45,455.15Z"/><path class="cls-3" d="M238.06,499.1c0,.17.14.28.41.33a4,4,0,0,0,.86.08c.3,0,.59,0,.86,0s.41.13.41.29a1.92,1.92,0,0,1-.28,1.19,6.83,6.83,0,0,1-.91,1.31,10.5,10.5,0,0,1-1.1,1.11,2.25,2.25,0,0,1-1.07.57,3.46,3.46,0,0,1-2.13-.45,8,8,0,0,1-2.34-1.84,9.11,9.11,0,0,1-1.76-3,8.65,8.65,0,0,1-.41-4,31.35,31.35,0,0,1,1.23-5.38,72.39,72.39,0,0,1,2.54-6.92A74.71,74.71,0,0,1,238,475a47.73,47.73,0,0,1,4.63-6.85,2.89,2.89,0,0,1,2.34,0,6.71,6.71,0,0,1,2.13,1.43,5.47,5.47,0,0,1,1.35,2.14,2.26,2.26,0,0,1-.08,2c-.22.5-.64,1.43-1.27,2.79s-1.34,2.94-2.13,4.72-1.63,3.66-2.5,5.65-1.65,3.86-2.34,5.58-1.23,3.2-1.64,4.43A4.9,4.9,0,0,0,238.06,499.1Zm11.32-45.92a3.29,3.29,0,0,1,2.42-.32,7.54,7.54,0,0,1,3,1.19,6.19,6.19,0,0,1,2.17,2.33,3.09,3.09,0,0,1-.24,3.12c-.28.38-.69.91-1.23,1.6a17.16,17.16,0,0,1-1.93,2,13.07,13.07,0,0,1-2.42,1.68,5.19,5.19,0,0,1-2.79.61,3.41,3.41,0,0,1-1.88-.94,3.35,3.35,0,0,1-1-2.09,8,8,0,0,1,.17-2.75,14.19,14.19,0,0,1,.94-2.87,12.86,12.86,0,0,1,1.35-2.34A3.53,3.53,0,0,1,249.38,453.18Z"/><path class="cls-3" d="M278,468.85c.44-.28.78-.24,1,.12a1,1,0,0,1,0,1.19,13,13,0,0,1-3,2.66,17.33,17.33,0,0,1-3.32,1.64,16.6,16.6,0,0,1-3.36.86c-1.12.17-2.12.28-3,.33a27.15,27.15,0,0,1,.7,5.54,72.15,72.15,0,0,1-.13,7.25c-.16,2.63-.44,5.39-.82,8.29s-.87,5.71-1.47,8.44-1.29,5.34-2.05,7.83a42.78,42.78,0,0,1-2.5,6.44,15,15,0,0,1-2.92,4.18,3.82,3.82,0,0,1-3.28,1.23,6.14,6.14,0,0,1-2.41-.65,10.28,10.28,0,0,1-2.83-2,12,12,0,0,1-2.38-3.37,11.58,11.58,0,0,1-1.07-4.79,25,25,0,0,1,.45-7A93.7,93.7,0,0,1,248,496.85q1.65-5.62,4.06-12t5.37-12.71a4.4,4.4,0,0,1-.61-2.59,2.4,2.4,0,0,1,1.19-1.92,2.17,2.17,0,0,1,1.55-.09q2.22-4.66,4.35-8.85t3.81-7.38q1.68-3.19,2.79-5.13a24.06,24.06,0,0,1,1.27-2.09,2,2,0,0,1,2.05-.37,7,7,0,0,1,2.46,1.27,9.8,9.8,0,0,1,1.89,1.93c.49.68.63,1.22.41,1.6-.44.77-1,1.86-1.81,3.28s-1.61,3-2.54,4.88l-3,5.94q-1.65,3.21-3.28,6.48a34,34,0,0,0,3.65.13c1.23,0,2.31-.07,3.24-.13C275.89,469,277,469,278,468.85Zm-15.66,11.48c-.6,1.14-1.39,2.84-2.38,5.08s-2,4.69-3,7.34-2,5.38-2.91,8.2-1.68,5.4-2.25,7.75a25.49,25.49,0,0,0-.87,5.9c0,1.59.41,2.49,1.23,2.71.28.11.73-.29,1.36-1.19a24.27,24.27,0,0,0,2-3.81c.74-1.64,1.51-3.61,2.33-5.91a72.18,72.18,0,0,0,2.22-7.62c.65-2.79,1.19-5.74,1.6-8.86A73.47,73.47,0,0,0,262.33,480.33Z"/><path class="cls-3" d="M301.53,477.46a11.68,11.68,0,0,1-3.28,6.1,27.2,27.2,0,0,1-5.82,4.51,36.21,36.21,0,0,1-6.32,2.92,23.07,23.07,0,0,1-4.84,1.23,8.8,8.8,0,0,0-.16,3.36,2.56,2.56,0,0,0,1.39,2.21,4.73,4.73,0,0,0,3,0,24,24,0,0,0,4.22-1.47,35.54,35.54,0,0,0,4.67-2.55,50.8,50.8,0,0,0,4.35-3.07c.82-.77,1.39-1.15,1.72-1.15s.51.21.54.62a4.41,4.41,0,0,1-.25,1.51c-.19.61-.37,1.1-.53,1.48s-.82,1.38-1.64,2.66a20.81,20.81,0,0,1-3.28,3.86,19.43,19.43,0,0,1-4.84,3.28,11.4,11.4,0,0,1-6.4.94A9,9,0,0,1,281,503a12.5,12.5,0,0,1-3.45-2.38,13.79,13.79,0,0,1-2.79-3.89,13.22,13.22,0,0,1-1.23-5.46,23.23,23.23,0,0,1,2.14-9,36.09,36.09,0,0,1,4.71-7.71,27.07,27.07,0,0,1,5.86-5.5,11.9,11.9,0,0,1,5.66-2.25,8.62,8.62,0,0,1,4.59.86,9.42,9.42,0,0,1,4.92,6.15A8,8,0,0,1,301.53,477.46ZM296,473a1.94,1.94,0,0,0-2,.08,11.32,11.32,0,0,0-2.59,1.76,33.65,33.65,0,0,0-2.83,2.87,41.17,41.17,0,0,0-2.74,3.49,39.85,39.85,0,0,0-2.22,3.48,17,17,0,0,0-1.35,2.91,19.86,19.86,0,0,0,5.49-3.19,37.3,37.3,0,0,0,4.88-4.6,21,21,0,0,0,3.08-4.34C296.44,474.18,296.53,473.36,296,473Z"/><path class="cls-3" d="M314,493.36c-1.15-1.85-2.39-3.89-3.73-6.1a21.84,21.84,0,0,1-2.75-7.1,9.83,9.83,0,0,1,.5-6,10.6,10.6,0,0,1,3.32-4.19,13.2,13.2,0,0,1,4.88-2.29,13.56,13.56,0,0,1,5.33-.25,4.69,4.69,0,0,1,2.95,1.31,5.49,5.49,0,0,1,1.31,2.5,9.15,9.15,0,0,1,.17,3,11,11,0,0,1-.58,2.58c-.16.27-.67.12-1.52-.45s-1.79-1.19-2.82-1.85a14.87,14.87,0,0,0-3.12-1.51,1.93,1.93,0,0,0-2.38.53c-.55.77-.05,2.57,1.48,5.41.49.88,1.1,1.86,1.84,2.95s1.45,2.22,2.13,3.37a30.76,30.76,0,0,1,1.77,3.4,9.27,9.27,0,0,1,.82,3.07,11.73,11.73,0,0,1-1.07,4.84,14,14,0,0,1-2.91,4.22,14.26,14.26,0,0,1-4.35,3,13.19,13.19,0,0,1-5.37,1.1,10.19,10.19,0,0,1-5.74-1.68,9.74,9.74,0,0,1-3.4-4.06,12.12,12.12,0,0,1-1-5.37,12.45,12.45,0,0,1,1.48-5.53c.6-1.1,1.13-1.61,1.6-1.56s.72.63.78,1.72a7.68,7.68,0,0,0,.9,3.32,16.41,16.41,0,0,0,2.26,3.45,12.92,12.92,0,0,0,2.91,2.58,4.62,4.62,0,0,0,3,.82,2.16,2.16,0,0,0,1.93-1.72A4.44,4.44,0,0,0,314,493.36Z"/><path class="cls-3" d="M333.67,501.4a.68.68,0,0,0,.49.37,7.71,7.71,0,0,0,.86.2l.87.17c.27.05.41.16.41.33a1.6,1.6,0,0,1-.33,1.1,7.71,7.71,0,0,1-1,1.19,8.26,8.26,0,0,1-1.18,1,3.07,3.07,0,0,1-1.11.49,2.83,2.83,0,0,1-1.85-.33,5.11,5.11,0,0,1-1.72-1.56,8.24,8.24,0,0,1-1.23-2.75,15.07,15.07,0,0,1-.45-3.89,32.67,32.67,0,0,1,1-6.77,79.67,79.67,0,0,1,2.38-7.87q1.49-4.14,3.49-8.57t4.22-8.85a11.93,11.93,0,0,1-2.13-.58,3.27,3.27,0,0,1-1.52-1,2.64,2.64,0,0,1-.53-1.23,3.44,3.44,0,0,1,0-1.11,5.52,5.52,0,0,1,.16-.74c.17-.65,1-1.17,2.42-1.55a29.36,29.36,0,0,1,5.29-.82q2.37-4.44,4.55-7.88a54.59,54.59,0,0,1,3.73-5.33,3,3,0,0,1,2.46.09,7.77,7.77,0,0,1,2.46,1.59,6.18,6.18,0,0,1,1.52,2.22,1.6,1.6,0,0,1-.21,1.84,16.71,16.71,0,0,0-1.55,2.34c-.77,1.29-1.67,2.88-2.71,4.8,2,0,3.84,0,5.45.08s2.78.08,3.49.08a1.24,1.24,0,0,1,.82.37c.27.25.19.78-.25,1.6a8.42,8.42,0,0,1-2.42,2.87,12.79,12.79,0,0,1-3.4,1.84,18.49,18.49,0,0,1-3.94,1,28.56,28.56,0,0,1-3.93.29q-1.81,3.6-3.73,7.5c-1.29,2.6-2.5,5.15-3.65,7.67s-2.23,4.92-3.24,7.21-1.85,4.35-2.5,6.15-1.14,3.28-1.44,4.43S333.4,501.18,333.67,501.4Z"/><path class="cls-3" d="M373.69,469.91a2.74,2.74,0,0,1,2.25-.61,11.6,11.6,0,0,1,3,.65,9.86,9.86,0,0,1,2.51,1.31c.68.53.91.95.69,1.28a13.85,13.85,0,0,0-1.68,2.78q-1,2.06-2.58,5.54l-3.77,8.4q-2.22,4.92-5.42,11.4a113.71,113.71,0,0,1-8.4,14.35,54.69,54.69,0,0,1-9.51,10.74,25.59,25.59,0,0,1-10.25,5.5,15.48,15.48,0,0,1-10.7-1.31,9.66,9.66,0,0,1-4.76-4.31,5.49,5.49,0,0,1-.16-5,4.84,4.84,0,0,1,1.35-1.93,4,4,0,0,1,1.43-.78,1.75,1.75,0,0,1,1.07,0c.27.11.38.25.33.41a7.36,7.36,0,0,0-.86,3.49,6,6,0,0,0,.78,3,5,5,0,0,0,2.13,2,5.89,5.89,0,0,0,3.2.53,12.15,12.15,0,0,0,5.94-2.09,31.57,31.57,0,0,0,6.81-6.07,69.4,69.4,0,0,0,7.25-10.25,116.27,116.27,0,0,0,7.22-14.64c-.82,1-1.68,2.05-2.58,3s-1.77,1.86-2.58,2.62-1.58,1.41-2.26,1.93a3.79,3.79,0,0,1-1.68.86,5.43,5.43,0,0,1-2.91-.53,9.93,9.93,0,0,1-2.83-2,10.68,10.68,0,0,1-2.13-3,7.57,7.57,0,0,1-.74-3.69,14.69,14.69,0,0,1,1.06-5.12,47.63,47.63,0,0,1,2.63-5.74q1.56-2.91,3.36-5.7t3.44-5c1.1-1.45,2-2.62,2.79-3.53s1.23-1.35,1.4-1.35a4.34,4.34,0,0,1,2.37.53,7.15,7.15,0,0,1,2,1.52,5.94,5.94,0,0,1,1.19,1.84,1.55,1.55,0,0,1,0,1.44c-.54.82-1.24,1.93-2.09,3.32s-1.75,2.91-2.7,4.55-1.9,3.31-2.83,5-1.73,3.24-2.38,4.64a27.07,27.07,0,0,0-1.44,3.56c-.3,1-.28,1.56,0,1.73.33.32,1,.12,2.05-.62a29.28,29.28,0,0,0,3.65-3.2q2.1-2.08,4.51-4.79c1.62-1.81,3.16-3.61,4.64-5.42q1.4-2.87,2.46-4.83c.71-1.32,1.31-2.38,1.8-3.2l1.19-2Z"/><path class="cls-3" d="M385.33,499.84c.05.17.22.28.49.33a4.74,4.74,0,0,0,.86.08c.3,0,.59,0,.86,0s.41.13.41.29a1.82,1.82,0,0,1-.32,1.19,8.2,8.2,0,0,1-1,1.31,11.19,11.19,0,0,1-1.19,1.11,2.47,2.47,0,0,1-1.1.57,2.68,2.68,0,0,1-1.85-.37,4.81,4.81,0,0,1-1.68-1.68,9.92,9.92,0,0,1-1.19-2.87,12,12,0,0,1-.29-3.93,34.17,34.17,0,0,1,1.6-8q1.44-4.68,3.61-9.88t4.88-10.62q2.7-5.42,5.41-10.17c1.81-3.17,3.51-6,5.13-8.57a67.42,67.42,0,0,1,4.06-5.86,3,3,0,0,1,2.46.08,7.91,7.91,0,0,1,2.46,1.6,6,6,0,0,1,1.51,2.22,1.61,1.61,0,0,1-.2,1.84,20.79,20.79,0,0,0-1.93,2.87q-1.44,2.39-3.4,5.94t-4.35,8q-2.37,4.47-4.67,9.06t-4.43,9c-1.42,2.93-2.64,5.56-3.65,7.91a58.11,58.11,0,0,0-2.21,5.83C385.15,498.67,385.06,499.57,385.33,499.84Z"/><path class="cls-3" d="M423.3,477.46a11.75,11.75,0,0,1-3.28,6.1,27.25,27.25,0,0,1-5.83,4.51,35.79,35.79,0,0,1-6.31,2.92,23.07,23.07,0,0,1-4.84,1.23,8.61,8.61,0,0,0-.16,3.36,2.56,2.56,0,0,0,1.39,2.21,4.71,4.71,0,0,0,3,0,23.83,23.83,0,0,0,4.23-1.47,36.19,36.19,0,0,0,4.67-2.55,50.8,50.8,0,0,0,4.35-3.07c.82-.77,1.39-1.15,1.72-1.15s.5.21.53.62a4.14,4.14,0,0,1-.24,1.51c-.2.61-.37,1.1-.54,1.48s-.82,1.38-1.64,2.66a20.43,20.43,0,0,1-3.28,3.86,19.37,19.37,0,0,1-4.83,3.28,11.41,11.41,0,0,1-6.4.94,9,9,0,0,1-3.12-.9,12.6,12.6,0,0,1-3.44-2.38,13.79,13.79,0,0,1-2.79-3.89,13.06,13.06,0,0,1-1.23-5.46,23.4,23.4,0,0,1,2.13-9,36.53,36.53,0,0,1,4.72-7.71,26.84,26.84,0,0,1,5.86-5.5,11.87,11.87,0,0,1,5.66-2.25,8.62,8.62,0,0,1,4.59.86,9.54,9.54,0,0,1,3.2,2.62,9.67,9.67,0,0,1,1.72,3.53A8.11,8.11,0,0,1,423.3,477.46ZM417.8,473a2,2,0,0,0-2,.08,11.07,11.07,0,0,0-2.58,1.76,33.65,33.65,0,0,0-2.83,2.87,43.43,43.43,0,0,0-2.75,3.49c-.84,1.2-1.58,2.36-2.21,3.48a17,17,0,0,0-1.35,2.91,19.86,19.86,0,0,0,5.49-3.19,37.3,37.3,0,0,0,4.88-4.6,20.93,20.93,0,0,0,3.07-4.34C418.21,474.18,418.29,473.36,417.8,473Z"/><path class="cls-2" d="M488.65,455.15a85.84,85.84,0,0,0-7,9.51A130.18,130.18,0,0,0,475,476.43q-3.17,6.27-5.78,12.87a123.16,123.16,0,0,0-4.35,12.84q3.76-1.15,7.71-2.22t7.54-1.84a64.21,64.21,0,0,1,6.72-1.11,18.32,18.32,0,0,1,5.25.08,12.19,12.19,0,0,1,3.69,1.36,10.24,10.24,0,0,1,2.75,2.25,7.77,7.77,0,0,1,1.56,2.87,6.73,6.73,0,0,1,.2,3,3,3,0,0,1-.61,1.1,5.31,5.31,0,0,1-.95.9,2.88,2.88,0,0,1-.94.5.46.46,0,0,1-.61-.29c-.06-.06,0-.36,0-.9a3.38,3.38,0,0,0,0-1.4,10.54,10.54,0,0,0-5.29-.69,66.29,66.29,0,0,0-8.12,1c-3,.55-6.23,1.2-9.59,2s-6.63,1.46-9.8,2.09-6.07,1.12-8.7,1.48a21.35,21.35,0,0,1-6.23.12,2.43,2.43,0,0,1-1.68-1,5.94,5.94,0,0,1-.9-1.84,4.61,4.61,0,0,1-.21-1.72c.06-.49.17-.74.33-.74a11.84,11.84,0,0,0,4.06-.78c2.11-.63,4.66-1.41,7.67-2.34-.11-.43-.22-.86-.33-1.27a14.71,14.71,0,0,1-.29-1.47,13,13,0,0,1-.08-2.18c0-.87.12-2,.29-3.36a56.58,56.58,0,0,1,2.46-10.58,96.05,96.05,0,0,1,4.75-11.8,98.49,98.49,0,0,1,6.69-11.73,78,78,0,0,1,8.2-10.41,51.47,51.47,0,0,1,9.26-7.88,26.87,26.87,0,0,1,10-4.1,10.89,10.89,0,0,1,5.9.7,11.74,11.74,0,0,1,5,3.77,13.71,13.71,0,0,1,2.63,6.28,14.94,14.94,0,0,1-1.19,8.11,29,29,0,0,1-4,7.06,23.88,23.88,0,0,1-4.8,4.63,21.31,21.31,0,0,1-5,2.66,19.59,19.59,0,0,1-4.55,1.15,16,16,0,0,1-3.61.08,4.93,4.93,0,0,1-2-.49q-.9-.57-.9-1t1.23-1.11a31.62,31.62,0,0,0,5.62-3.81,44.63,44.63,0,0,0,4.88-4.84,55.72,55.72,0,0,0,4-5.21,36,36,0,0,0,2.83-4.92,16.93,16.93,0,0,0,1.36-3.93,2.8,2.8,0,0,0-.29-2.3,3.67,3.67,0,0,0-2.63-.94,10.23,10.23,0,0,0-4.09.94,23.54,23.54,0,0,0-5.25,3.2A42.26,42.26,0,0,0,488.65,455.15Z"/><path class="cls-2" d="M534.24,476.8a20.55,20.55,0,0,1-.16,5.7,35.61,35.61,0,0,1-1.6,6.31,33.93,33.93,0,0,1-2.87,6.11,26.8,26.8,0,0,1-4,5.21,17.59,17.59,0,0,1-5,3.52,11.39,11.39,0,0,1-5.82,1,8.43,8.43,0,0,1-3-.86,13.31,13.31,0,0,1-3.2-2.13,13.62,13.62,0,0,1-2.58-3.12,7.89,7.89,0,0,1-1.15-3.81,21.92,21.92,0,0,1,.54-6.19,32.85,32.85,0,0,1,1.76-5.5,28.22,28.22,0,0,1,2.34-4.43,24.17,24.17,0,0,1,2.25-3,5.37,5.37,0,0,1,2.54-1.72,7.34,7.34,0,0,0,1.64-.49,27,27,0,0,1,1.36-2.5,10.64,10.64,0,0,1,1.84-2.26,8.45,8.45,0,0,1,2.46-1.56,6.75,6.75,0,0,1,3.2-.41,8.21,8.21,0,0,1,2.91,1.07,14.75,14.75,0,0,1,3,2.3,15.17,15.17,0,0,1,2.46,3.15A7.09,7.09,0,0,1,534.24,476.8Zm-10.66,12.46a43.06,43.06,0,0,0,2.25-5.7,25.64,25.64,0,0,0,1.11-5,11.13,11.13,0,0,0-.12-3.77,2.59,2.59,0,0,0-1.35-1.93,2.63,2.63,0,0,0-2.63.13,7.46,7.46,0,0,0-2.62,2.42,9.58,9.58,0,0,0-1.19,1.88,4.84,4.84,0,0,1-.94,1.4,10,10,0,0,0-1.44,2.09,37.71,37.71,0,0,0-1.72,3.48c-.58,1.31-1.11,2.7-1.6,4.14a30.74,30.74,0,0,0-1.11,4.19,12.75,12.75,0,0,0-.2,3.56,2.85,2.85,0,0,0,1.15,2.22,3.37,3.37,0,0,0,2.5,0,8.47,8.47,0,0,0,2.74-1.77,18.86,18.86,0,0,0,2.71-3.15A34.53,34.53,0,0,0,523.58,489.26Z"/><path class="cls-2" d="M561.55,498.12c.05.16.21.29.49.37a4,4,0,0,0,.86.16l.86.08c.27,0,.41.13.41.29a1.8,1.8,0,0,1-.29,1.15,7,7,0,0,1-.9,1.27,6.12,6.12,0,0,1-1.15,1,3.07,3.07,0,0,1-1.11.49,2.76,2.76,0,0,1-1.88-.66,7.86,7.86,0,0,1-1.85-2.09,11.36,11.36,0,0,1-1.35-3.28,14.56,14.56,0,0,1-.41-4.14v-.57q-2.38,3.36-4.18,5.57a32.65,32.65,0,0,1-3.2,3.49,11.56,11.56,0,0,1-2.46,1.8,4.38,4.38,0,0,1-2,.53,5.88,5.88,0,0,1-2.5-.65,8.85,8.85,0,0,1-2.5-1.85,10.33,10.33,0,0,1-1.93-2.83,8.25,8.25,0,0,1-.77-3.6,17.45,17.45,0,0,1,.86-4.47,47.75,47.75,0,0,1,2-5.21c.8-1.8,1.68-3.61,2.67-5.41s2-3.5,2.95-5.09,1.94-3,2.87-4.22a28.57,28.57,0,0,1,2.46-2.91,2,2,0,0,1,1.81.08,5.71,5.71,0,0,1,1.92,1.48,6.76,6.76,0,0,1,1.31,2.25,3.42,3.42,0,0,1,0,2.5,21.17,21.17,0,0,1-1.27,2.46l-2.38,4.23c-.9,1.61-1.83,3.31-2.78,5.08s-1.81,3.44-2.55,5a37.54,37.54,0,0,0-1.64,4c-.35,1.09-.36,1.75,0,2s.9.12,1.72-.29a14.11,14.11,0,0,0,3.08-2.34,49.89,49.89,0,0,0,4.26-4.63q2.43-2.91,5.29-7.09,1.89-3.29,3.78-6.73a53.69,53.69,0,0,1,4-6.31,2.3,2.3,0,0,1,2.26.21,5.88,5.88,0,0,1,1.84,1.84,8.4,8.4,0,0,1,1.07,2.46,2.73,2.73,0,0,1-.17,2.13c-.21.49-.62,1.34-1.23,2.54s-1.27,2.6-2,4.19-1.49,3.23-2.26,5-1.46,3.33-2.09,4.84-1.12,2.8-1.48,3.89A4.11,4.11,0,0,0,561.55,498.12Z"/><path class="cls-2" d="M595.9,498.28a.57.57,0,0,0,.49.33,4.08,4.08,0,0,0,.87.08c.29,0,.58,0,.86,0s.41.13.41.29a2.09,2.09,0,0,1-.25,1.19,6.39,6.39,0,0,1-.82,1.31,8,8,0,0,1-1.07,1.11,2.18,2.18,0,0,1-1.06.57,3.31,3.31,0,0,1-2-.36,6.16,6.16,0,0,1-2.09-1.77,10.13,10.13,0,0,1-1.64-3.15,13.58,13.58,0,0,1-.58-4.72,18.53,18.53,0,0,1,2-7.09q1.89-4.07,4.43-9.23-1.39,1.23-3.69,3.45a64,64,0,0,0-4.84,5.28,81.57,81.57,0,0,0-5.08,6.93,46,46,0,0,0-4.35,8.37,4.29,4.29,0,0,1-.24,1.1c-.17.53-.66.78-1.48.78a3.87,3.87,0,0,1-2-1,13.54,13.54,0,0,1-2.05-2.09,11.87,11.87,0,0,1-1.52-2.46,4.73,4.73,0,0,1-.49-2.26,22.6,22.6,0,0,1,.94-4.51c.52-1.69,1.17-3.45,1.93-5.28s1.61-3.67,2.54-5.5,1.86-3.57,2.79-5.21,1.81-3.1,2.63-4.38a29.55,29.55,0,0,1,2.13-3c.22-.21.69-.2,1.43.05a8.62,8.62,0,0,1,2.26,1.18,10.36,10.36,0,0,1,1.93,1.77,1.81,1.81,0,0,1,.53,1.68,13.9,13.9,0,0,1-.78,1.68c-.41.79-.89,1.68-1.44,2.66s-1.1,2.05-1.68,3.2-1.1,2.27-1.6,3.36a67.08,67.08,0,0,1,5.13-5.37c1.89-1.77,3.7-3.36,5.45-4.75a57.52,57.52,0,0,1,4.72-3.45,11.49,11.49,0,0,1,2.83-1.51,3.68,3.68,0,0,1,2.41,1.06,5.67,5.67,0,0,1,1.93,2.63,4.13,4.13,0,0,1,.41,3.19c-.22.5-.64,1.38-1.27,2.67s-1.34,2.76-2.13,4.43-1.61,3.41-2.46,5.24-1.61,3.56-2.3,5.17-1.23,3-1.64,4.14A4.37,4.37,0,0,0,595.9,498.28Z"/><path class="cls-2" d="M642,462.78a1,1,0,0,1,1.06-.58c.44.06.63.33.58.82a14.64,14.64,0,0,1-1.4,5.42,18.3,18.3,0,0,1-2.54,3.89,15.62,15.62,0,0,1-2.79,2.58,14.26,14.26,0,0,1-2.13,1.32,5.68,5.68,0,0,1-1.31.41,19.62,19.62,0,0,1-.9,8A26.72,26.72,0,0,1,629,492a21.85,21.85,0,0,1-5.21,5.29,9.05,9.05,0,0,1-5.78,1.89,6.15,6.15,0,0,1-1.85-.13,10.9,10.9,0,0,1-1.92-.61,12.12,12.12,0,0,0-1.81,1.88,15.42,15.42,0,0,0-1.8,3.2,35.31,35.31,0,0,1,7-1.64,19.41,19.41,0,0,1,8.12.58,10.62,10.62,0,0,1,2.87,2.13,12.91,12.91,0,0,1,1.89,2.58,12.47,12.47,0,0,1,1.1,2.67,11.75,11.75,0,0,1,.45,2.29,9.31,9.31,0,0,1-1.64,5.21,20,20,0,0,1-4.3,4.63,29.62,29.62,0,0,1-6,3.69,36.2,36.2,0,0,1-6.8,2.38,28.52,28.52,0,0,1-6.65.82,12.59,12.59,0,0,1-5.57-1.15,8.26,8.26,0,0,1-3.45-3.24,8.76,8.76,0,0,1-1.31-5.29,5.12,5.12,0,0,1,1-2.54,12.2,12.2,0,0,1,2.29-2.46,17,17,0,0,1,3.12-2,16,16,0,0,1,3.44-1.27,5.47,5.47,0,0,1-1.68-1.84,8,8,0,0,1-.78-1.77,4.51,4.51,0,0,1,0-2.74,10.58,10.58,0,0,1,1.44-2.87,16.66,16.66,0,0,1,2.42-2.79,30.69,30.69,0,0,1,3-2.5,9.38,9.38,0,0,1-1.93-2,7.07,7.07,0,0,1-1.1-2.42,11.84,11.84,0,0,1-.13-5,25.63,25.63,0,0,1,1.6-5.54,32.75,32.75,0,0,1,2.87-5.41,28.24,28.24,0,0,1,3.77-4.63,19.32,19.32,0,0,1,4.23-3.2,8.93,8.93,0,0,1,4.3-1.19,16.17,16.17,0,0,1,4.51.62,8.54,8.54,0,0,1,3.53,1.92,2.52,2.52,0,0,0,.16.29,2.48,2.48,0,0,1,.17.29,19,19,0,0,0,3.36-2.09c1.09-.85,2.1-1.66,3-2.42C640,464.72,641,463.76,642,462.78Zm-33,49.12a45.42,45.42,0,0,0-3.94,3.77c-.92,1-1.77,2.09-2.54,3.15s-1,1.93-.82,2.59a6,6,0,0,0,3.69.45,28.63,28.63,0,0,0,5.41-1.23,48.08,48.08,0,0,0,6-2.38,42.39,42.39,0,0,0,5.41-3,17.61,17.61,0,0,0,3.69-3.16c.88-1,1.15-2,.82-2.79s-1.15-1.2-2.46-1.15a24.23,24.23,0,0,0-4.63.74c-1.78.44-3.62,1-5.54,1.56S610.42,511.51,608.94,511.9Zm7.54-18.21q1.72.82,3.69-.74a18.11,18.11,0,0,0,3.82-4.34,42.69,42.69,0,0,0,3.32-6.11c1-2.22,1.77-4.25,2.38-6.11a7.93,7.93,0,0,1-2.3-1.11,4.66,4.66,0,0,1-1.48-1.6,24.73,24.73,0,0,0-5.16,5.29,33.64,33.64,0,0,0-3.65,6.24,18.54,18.54,0,0,0-1.6,5.49C615.34,492.31,615.66,493.31,616.48,493.69Z"/><path class="cls-2" d="M664.62,477.46a11.68,11.68,0,0,1-3.28,6.1,27.2,27.2,0,0,1-5.82,4.51A36.21,36.21,0,0,1,649.2,491a23.07,23.07,0,0,1-4.84,1.23,8.8,8.8,0,0,0-.16,3.36,2.56,2.56,0,0,0,1.39,2.21,4.73,4.73,0,0,0,3,0,24,24,0,0,0,4.22-1.47,35.54,35.54,0,0,0,4.67-2.55,50.8,50.8,0,0,0,4.35-3.07c.82-.77,1.39-1.15,1.72-1.15s.51.21.54.62a4.41,4.41,0,0,1-.25,1.51c-.19.61-.37,1.1-.53,1.48s-.82,1.38-1.64,2.66a20.81,20.81,0,0,1-3.28,3.86,19.43,19.43,0,0,1-4.84,3.28,11.4,11.4,0,0,1-6.4.94A9,9,0,0,1,644,503a12.5,12.5,0,0,1-3.45-2.38,13.79,13.79,0,0,1-2.79-3.89,13.22,13.22,0,0,1-1.23-5.46,23.23,23.23,0,0,1,2.14-9,36.09,36.09,0,0,1,4.71-7.71,27.07,27.07,0,0,1,5.86-5.5,11.9,11.9,0,0,1,5.66-2.25,8.62,8.62,0,0,1,4.59.86,9.42,9.42,0,0,1,4.92,6.15A8,8,0,0,1,664.62,477.46Zm-5.5-4.43a1.94,1.94,0,0,0-2,.08,11.11,11.11,0,0,0-2.59,1.76,33.65,33.65,0,0,0-2.83,2.87,41.17,41.17,0,0,0-2.74,3.49,39.85,39.85,0,0,0-2.22,3.48,17,17,0,0,0-1.35,2.91,19.86,19.86,0,0,0,5.49-3.19,37.3,37.3,0,0,0,4.88-4.6,21,21,0,0,0,3.08-4.34C659.53,474.18,659.62,473.36,659.12,473Z"/><path class="cls-2" d="M560.33,358.58l13.36-4.77a3.59,3.59,0,0,0,2.17-4.59l-2.62-7.35-3.62,4.69-8.24-6.13-2.24,9.88-5.91-.92,2.51,7A3.59,3.59,0,0,0,560.33,358.58Z"/><polygon class="cls-4" points="547.56 275.75 290.59 275.75 390.06 174.98 444.32 170.81 547.56 275.75"/><polygon class="cls-2" points="301.46 283.51 349.07 235.9 331.73 233.42 290.59 275.75 301.46 283.51"/><polygon class="cls-2" points="535.67 283.51 488.07 235.9 497.22 225.23 546.55 275.75 535.67 283.51"/><line class="cls-5" x1="373.58" y1="230.91" x2="418.39" y2="275.72"/><line class="cls-6" x1="333.6" y1="230.91" x2="378.51" y2="275.81"/><line class="cls-7" x1="419.24" y1="275.71" x2="455.4" y2="239.55"/><line class="cls-8" x1="379.3" y1="275.68" x2="415.43" y2="239.55"/><line class="cls-9" x1="337.57" y1="275.63" x2="394.99" y2="218.21"/><line class="cls-10" x1="313.77" y1="252.85" x2="336.72" y2="275.8"/><line class="cls-11" x1="418.06" y1="230.91" x2="462.54" y2="275.39"/><line class="cls-12" x1="434.14" y1="203.71" x2="505.08" y2="274.65"/><line class="cls-13" x1="463.75" y1="275.68" x2="505.89" y2="233.54"/><line class="cls-14" x1="507.08" y1="275.63" x2="526.78" y2="255.93"/><polygon class="cls-2" points="546.61 275.04 292.71 274.89 285.81 277.73 286.75 280.13 295.05 300.59 543.77 300.59 552.06 280.13 552.34 277.68 546.61 275.04"/><polygon class="cls-15" points="547.56 275.75 290.59 275.75 390.06 174.98 444.32 170.81 547.56 275.75"/><path class="cls-16" d="M500,182.38c4.11,17.44.09,22.49-8.21,29.24,14.88-22.06-12.31-32.83,14.88-59-51.3,7.7-69.74,83.78-36.39,89.82C504.13,248.56,520,220.86,500,182.38Z"/><path class="cls-17" d="M503,207.74c-7.16,5.73-10,12.18-19.34,11.47,12.8-27.08-10.28-30.67,9.72-59.4-28.21,14.88-49.37,66-26.16,79C484.63,248.56,501.54,237.83,503,207.74Z"/><path class="cls-18" d="M465.72,233.53c9.73,9.73,30.72,3.59,34.3-15.75-6.67,9.75-17.1,10-23.55,7.16,4.72-10.43,5.73-11.47,2.86-41.55C475.75,203.45,452.11,219.92,465.72,233.53Z"/><path class="cls-19" d="M374.23,122.22c-6.92,26,3.75,30.66,4,48.08-1.09-50.39,45.67-53.27,13.92-96,38.1,20.78,53.69,53.69,43.29,92.36,15-9.81,19.05-36.37,4-64.07,30.6,23.66,64.29,147.06-23.66,146.62C358.36,248.93,320.55,204.77,374.23,122.22Z"/><path class="cls-20" d="M366.73,156.86c-1.16,17.6,10.26,34.2,21.93,44.45-16.74-45.6,34.81-67.59,20.79-101.6,23.66,19.63,22.51,65.23,12.7,91.21,9.23-23.09,35-10.2,32.32-46.76,14.24,39.64,21,102.75-38.67,102.75C363.84,246.91,349.41,206.5,366.73,156.86Z"/><path class="cls-21" d="M367.31,177.06c.57,23.67,23.67,36.37,34.05,35.22-21.79-43.54,22.52-60,18.48-80.82,16.16,33.48-15.59,43.29,5.19,76.2,4-23.09,29.44-11,32.33-42.14,7.5,36.37,5.67,79.66-43.87,79.66C376.54,245.18,356.34,217.47,367.31,177.06Z"/><path class="cls-22" d="M332.61,184.65c-4.93,18.13-2.06,25.43,5.44,33.34-7.4-23.33,18.63-24.68,1.72-60.92,27.82,24.87,49.7,90,11.31,91.13C317.92,249.18,313.15,215.11,332.61,184.65Z"/><path class="cls-23" d="M327.44,210c5.14,6.87,6.22,13.38,14.82,14.92-2.52-27.66,10.26-20.88,8.08-49.84,13.46,22.88,31.87,68.11.06,71.19C337.24,247.51,321.66,237.56,327.44,210Z"/><path class="cls-24" d="M355.18,243.9c-11.09,6.53-26.52-6.61-25.23-25,4.51,8.27,10.94,13.92,17.45,12.84-3.93-9.4-2.57-21.56,7.17-38.31C347.63,210.93,378.34,230.24,355.18,243.9Z"/><path class="cls-2" d="M343.39,160.24a104.7,104.7,0,0,1,14.07,15.29,127,127,0,0,1,11.26,17.65l-3.62,1.69a125.36,125.36,0,0,0-9.29-18.21A103.86,103.86,0,0,0,343.39,160.24Z"/><path class="cls-2" d="M470.26,206a1.28,1.28,0,0,0-.27.17l0,0s0,.06,0,0a.45.45,0,0,1,.11-.13c.09-.18.19-.32.29-.53l.28-.66c.09-.23.15-.5.24-.75a14,14,0,0,0,.39-1.58,16.85,16.85,0,0,0,.3-1.66l.23-1.69.15-1.74c.12-1.15.13-2.32.18-3.49.12-4.69,0-9.43-.36-14.17l-.24-3.55-.34-3.55-.33-3.55-.41-3.55c-.51-4.73-1.2-9.45-1.84-14.17,1,4.67,2,9.33,2.83,14l.66,3.52.58,3.53.58,3.54.5,3.55c.68,4.74,1.16,9.52,1.37,14.36,0,1.21.1,2.42.06,3.65l0,1.83-.13,1.86a17.66,17.66,0,0,1-.2,1.88,14.76,14.76,0,0,1-.34,1.91c-.08.33-.13.64-.24,1l-.34,1c-.13.34-.33.71-.51,1.07-.13.2-.27.4-.41.59a2.29,2.29,0,0,1-.31.35l-.19.18a3.85,3.85,0,0,1-.45.3Z"/><path class="cls-2" d="M398.58,260.08c-10.76,0-21.41-1.28-28.47-3.43a23.62,23.62,0,0,1-16.95-18.5,90.5,90.5,0,0,1-.61-13.19c0-15.69,6.06-23.21,12.81-30.13,8.21-8.43,21.94-13.26,37.67-13.26a90.77,90.77,0,0,1,23.81,3.36c18.28,5,32.84,10.17,44.47,19.3,12.26,9.63,13.64,17.3,14.09,19.82.76,4.21.81,14.68-.66,20-1.42,5.1-9.29,10.25-23.69,10.25h0c-1.62,0-3.32-.06-5.05-.19-2.1-.15-4.26-.23-6.4-.23-10.69,0-19.92,1.92-28.06,3.62-2.45.51-4.77,1-7,1.4A92.5,92.5,0,0,1,398.58,260.08Z"/><path class="cls-2" d="M482.63,224.55c-.58-3.25-2.38-9.72-13.06-18.1-11.27-8.86-25.26-13.84-43.47-18.81-28-7.62-49.06-.76-58.72,9.15-6.16,6.32-12,13.24-12,28.24a89.17,89.17,0,0,0,.58,12.67,20.9,20.9,0,0,0,15,16.26c11.7,3.56,31.9,4.19,43.08,2.16s24.91-6.1,42.2-4.83,24.8-4.33,25.82-8C483.39,238.37,483.3,228.27,482.63,224.55Z"/><path class="cls-25" d="M435,251.93c.34-3.77,1.12-12.8,1.12-15.94,0-4-.58-8.78-3.06-11.84s-2.67-5.92-5.35-3.24-3.81,4.58-5.34,5-4.2-.19-6.88,1.53-2.67,2.67-.76,5,4.77,2.68,5.35,7.26c.52,4.2.3,11.88.26,15C424.81,253.74,429.68,252.7,435,251.93Z"/><path class="cls-25" d="M387.3,193.12c-4.46,6.24-5.63,18.07.29,23s12.63,9.94,17.78,5.73c0,0-1.11,3.42-3.4,4,0,0,7.93,3.38,11-.2,1.94-2.26,5-2.66,7.49-3.81s5-2.48,4.39-5.15-1.15-3.82-1.34-5.92-2.48-3.82-6.11-5.35-4.77,2.86-9.74,3.63a23.53,23.53,0,0,0,5.92-6.88c2.29-4.2,1.91-4.58,3.44-6.11s3.62-6.48,1.72-10.49a79.67,79.67,0,0,0-21.08-1.24A30.28,30.28,0,0,0,387.3,193.12Z"/><path class="cls-26" d="M408.56,224.48c-.39,0-.79,0-1.19-.07a11.93,11.93,0,0,0,.7-1.65l1.84-6.43-6.33,3.36a3.89,3.89,0,0,1-2.57.94h0c-3.67,0-8.83-4.33-11.6-6.65-4.48-3.76-3.62-13.87.19-19.21a27.82,27.82,0,0,1,8.84-7.64c1.63-.12,3.3-.18,5-.18a78.77,78.77,0,0,1,13.14,1.14,8.29,8.29,0,0,1-1.56,6,9.63,9.63,0,0,0-2.25,3.4c-.34.74-.8,1.76-1.68,3.35a44.17,44.17,0,0,1-4.81,6.89l-5.61,5.87c3-.45,12.29-3.6,13.69-4.65a5.84,5.84,0,0,1,1.59-1,1,1,0,0,1,.35.1c4.23,1.78,4.39,3,4.39,3a20.3,20.3,0,0,0,.77,3.81c.2.73.41,1.47.62,2.45.09.44-.77,1-2.81,2-.61.28-1.31.52-2.05.78-2,.71-4.54,1.58-6.4,3.76A3.1,3.1,0,0,1,408.56,224.48Z"/><path class="cls-25" d="M414.26,241.23c0-2.37-.89-5.81-3.37-7.34s-5-1.53-9.17-2.29a20.36,20.36,0,0,1-9.54-4.77c-2.3-1.91-4.21-5.92-5.54-5s-2.48,2.48-2.48,7.26-1,7.06.76,9.74a12,12,0,0,1,2.29,7.25c0,2.13-.08,8-.11,10.36,9.72.88,20.2.65,27.19-.61C414.29,252.73,414.26,243.21,414.26,241.23Z"/><path class="cls-25" d="M361.62,228.35c3.06-1.71,6.49-6.87,7.07-9.74a14.51,14.51,0,0,0-.58-6.3s4.21,5.54,7.45,4.4,3.44-5.16,3.63-9.17a27.7,27.7,0,0,1,3.63-12c1.83-2.94,3.37-8.76,3.49-9.2-8.08,2.22-14.4,5.93-18.57,10.21-6.16,6.32-12,13.24-12,28.24v.38C356.42,226.23,359,229.82,361.62,228.35Z"/><path class="cls-27" d="M360.29,225.85a5.1,5.1,0,0,1-1.73-1.59c.14-13.33,5.16-19.56,11.21-25.76a34.66,34.66,0,0,1,12.15-7.75,19.32,19.32,0,0,1-1.51,3.26,30.27,30.27,0,0,0-4.05,13.39c-.17,3.59-.4,6.16-1.74,6.63-.83,0-2.9-1.67-4.25-3.43l-4.94,2.61a11.69,11.69,0,0,1,.48,4.85C365.48,220.2,362.52,224.55,360.29,225.85Z"/><path class="cls-25" d="M463.4,236.18a15.56,15.56,0,0,0-5.34-8.78c-2.87-2.29-3.44-1-7.64-2.1s-8.4-3.25-9.74-3.25-3.82-.57-2.48,2.29,2.86,3.44,2.67,10.89c-.15,5.72.08,12.93.2,16a94.5,94.5,0,0,1,15.5-.18c2.2.16,4.24.21,6.13.17C463,248,463.72,238.39,463.4,236.18Z"/><path class="cls-25" d="M381.29,241.15c0-2.29-1.34-3.06-1.14-7.45s2.48-11.07-1.15-11.84-5.35-1-7.83,2.29-5.73,6.11-5.92,11.65c-.17,4.94,1.14,11.57,1.43,15.94a24.39,24.39,0,0,0,4.61,1.95,67.83,67.83,0,0,0,9.62,2.05C381,252.7,381.29,243.07,381.29,241.15Z"/><path class="cls-2" d="M392.54,191.13a35.17,35.17,0,0,0-3.67,6.23,14.1,14.1,0,0,0-1.49,3.36,8.08,8.08,0,0,0-.25,1.84,10.43,10.43,0,0,0,.09,1.85c.14,1.24.39,2.41.62,3.57a24.4,24.4,0,0,0,1.15,3.31,19.62,19.62,0,0,0,3.93,6l-.1.18a10.17,10.17,0,0,1-5.77-5.26,12.92,12.92,0,0,1-.92-7.8c.11-.64.21-1.27.33-1.89l.29-1.89a24.64,24.64,0,0,1,.57-3.86,7.55,7.55,0,0,1,.79-1.82,10.15,10.15,0,0,1,1.14-1.63,7.62,7.62,0,0,1,3.18-2.33Z"/><path class="cls-2" d="M387.62,225.51a21.84,21.84,0,0,0,5,4.79,19.93,19.93,0,0,0,6.22,2.46c1.1.29,2.23.51,3.37.7.57.1,1.14.2,1.71.28l.85.11.43.06.52.08a7.42,7.42,0,0,1,3.34,1.9A6.26,6.26,0,0,1,411,239a8.66,8.66,0,0,0-5.51-3.46h-.81l-.91,0c-.61,0-1.21-.08-1.81-.14a36.26,36.26,0,0,1-3.58-.64,16.27,16.27,0,0,1-6.68-3.16A13.61,13.61,0,0,1,387.62,225.51Z"/><path class="cls-28" d="M420.32,254.66c4.49-.94,9.36-2,14.66-2.73.3-3.41,1-11.09,1.09-14.86-5.81.78-11.11,1.92-16,2.92A145.29,145.29,0,0,1,420.32,254.66Z"/><path class="cls-29" d="M357.65,227.44a19.18,19.18,0,0,1-1.48-4.68c-.14-.87-.25-1.85-.33-2.87a47.89,47.89,0,0,0-.24,4.93V225A12.5,12.5,0,0,0,357.65,227.44Z"/><path class="cls-29" d="M483.3,227.7c-.07-1.15-.17-2.17-.29-3a24.73,24.73,0,0,1-.66,3.61,5.41,5.41,0,0,1-.33.82A6.34,6.34,0,0,0,483.3,227.7Z"/><path class="cls-28" d="M381.29,241.15v0A69.06,69.06,0,0,1,371.18,239a23.32,23.32,0,0,1-5.94-2.73c-.08,4.91,1.18,11.33,1.45,15.56a24,24,0,0,0,4.49,1.88,68.57,68.57,0,0,0,9.73,2.06C381,252.74,381.29,243.08,381.29,241.15Z"/><path class="cls-28" d="M463.43,236.47a63.33,63.33,0,0,1-6.92-.14,94.33,94.33,0,0,0-15.67.19c-.08,5.48.12,11.87.23,14.69a93.78,93.78,0,0,1,15.44-.18,60.48,60.48,0,0,0,6.19.17C463,248.08,463.66,239.09,463.43,236.47Z"/><path class="cls-28" d="M414.26,241.23v-.08c-7.13,1.29-17.92,1.49-27.83.56a11.39,11.39,0,0,1,.78,4.4c0,2.13-.08,8-.11,10.37,9.73.87,20.21.64,27.18-.63h0C414.29,252.71,414.26,243.21,414.26,241.23Z"/><path class="cls-25" d="M469.32,222.63c-4.2-2.11-7.63-2.3-11.07-5.16s-9.93-3.82-9.93-3.82,5-1.34,7.25-.76,5.35-.77,2.3-2.49-4.4-5.73-4.4-9c0,0,2.49,5.54,5.54,6.3,2.55.64,5.12-3.21,6.24-4.3h0s.17-.18.38-.37c-10.49-7-23.2-11.34-39.16-15.69-1.51-.41-3-.77-4.47-1.1a18.64,18.64,0,0,1-.6,8.86c-1.53,4-3.24,6.11-1.72,7.25s6.31.58,8.22,1.91,4.2,1.15,6.3,1.15,3.63,2.67,3.63,2.67a8.66,8.66,0,0,0-6.69-.76c-3.63,1.14-4.2,5.15-3.05,6.3s5.34,4.39,9.74,4,8.78,1.91,12.22,3.44,5.73.38,7.83,2.67,4.39,5.92,8.21,8.21,8.21,1.15,8.78-1.33S473.52,224.73,469.32,222.63Z"/><path class="cls-30" d="M470.4,230.39a5.63,5.63,0,0,1-2.86-.84,23.35,23.35,0,0,1-5.81-5.6c-.57-.7-1.12-1.37-1.67-2a36,36,0,0,0,3.82,1.51,34.1,34.1,0,0,1,4.18,1.68c3.18,1.59,4.19,3.84,4.05,4.77a2.66,2.66,0,0,1-1.71.46Zm-13.92-10.71a15.91,15.91,0,0,0-2.26-.43,10.15,10.15,0,0,1-3-.74l-1.14-.52c-3.14-1.43-7.05-3.21-11.25-3.21q-.62,0-1.23.06l-.48,0c-2.81,0-5.65-2-6.71-2.94a2.18,2.18,0,0,1,1.61-1.87,5.25,5.25,0,0,1,1.53-.23,6.26,6.26,0,0,1,2.82.71l9.22,5.45-5.28-9.27c-.24-.42-2.45-4.11-6.09-4.11h-1.43a5.59,5.59,0,0,1-3.25-.64c-1.59-1.11-3.71-1.33-5.76-1.54-.44-.05-1-.1-1.48-.17.15-.35.32-.74.48-1.09.38-.83.84-1.86,1.29-3a18.17,18.17,0,0,0,1.06-6.2l.61.17c11.39,3.1,21.13,6.2,29.57,10.32l-4.64,1a15.06,15.06,0,0,0,2.6,8.51,32,32,0,0,0-5.66,1l.33,5.55c1.59.23,6.22,1.27,8.52,3.19ZM459.61,205c-.79-.29-2.21-2.07-3.2-3.95,1.66.83,3.27,1.72,4.83,2.65A5.46,5.46,0,0,1,459.61,205Z"/><path class="cls-25" d="M475.05,210.68a57,57,0,0,0-5.12-4.5c-.17-.14-.35-.26-.52-.39l-.16.1c-.93.7-6.64,5.08-7,7.19-.38,2.29,2.29,3,5,2.1s5-4.14,7.82-4.5Z"/><path class="cls-25" d="M483,224.28c-.44-2.43-1.56-6.67-6.57-12.17h0s-3.46,1.54-3.46,3.64.57,3.44,3.06,5.73,3.43,3.44,3.24,6.11,2.14,3.09,4.09,0A30.7,30.7,0,0,0,483,224.28Z"/><path class="cls-2" d="M473.09,227.35a2.6,2.6,0,0,1,.45,1.29,2.07,2.07,0,0,1-.43,1.37,3.49,3.49,0,0,1-2.55,1.22,6.17,6.17,0,0,1-2.75-.46,9.26,9.26,0,0,1-2.31-1.44c-2.78-2.26-4.69-5.31-7.19-7.69a4.46,4.46,0,0,0-2.16-1.07c-.81-.17-1.68-.21-2.57-.35a12.23,12.23,0,0,1-2.64-.69c-.84-.35-1.62-.71-2.41-1.08-3.15-1.45-6.35-2.87-9.87-2.91v-.09a13,13,0,0,1,5.3.28,30.05,30.05,0,0,1,5,1.76l2.38,1.06a10.39,10.39,0,0,0,2.4.72c.84.17,1.72.25,2.61.5a5.67,5.67,0,0,1,1.3.54,5,5,0,0,1,1.08.9c.61.68,1.11,1.38,1.65,2.08s1.07,1.38,1.65,2a19.16,19.16,0,0,0,3.92,3.4,8.26,8.26,0,0,0,4.57,1.71,3.14,3.14,0,0,0,2.17-.77,1.91,1.91,0,0,0,.49-1,2.84,2.84,0,0,0-.18-1.24Z"/><g class="cls-31"><path class="cls-2" d="M503.33,20.24C350.75-22,209.53,57.81,155.44,183.86c-18.54,35.66-23.29,97.46-23.29,97.46s23.64-52.78,71.4-100.24c7.81-7.75,30.23-34.62,65.45-47.26l.06.36a121,121,0,0,0,4.77,17.17,75.09,75.09,0,0,0,8,15.52,71.85,71.85,0,0,1-2.34-16.63,112.35,112.35,0,0,1,1.11-16.45c.67-4.49,1.56-8.92,2.63-13.29,5.34-12.58,16.14-33.79,32.18-45.34,23.77-17.11,35.42-18.06,41.36-12.83s7.13,23.29,5.7,39.21a157.84,157.84,0,0,1-2.58,17.37c-1.22,4.63-2.65,9.22-4.33,13.74a113.58,113.58,0,0,1-7,14.94A72.43,72.43,0,0,1,338.51,161,75.63,75.63,0,0,0,353,151.3a122,122,0,0,0,12.46-12.74c2.13-2.55,4.16-5.18,6.13-7.87,8.92.32,20.18,1.41,28.67,4.61,16.4,6.18,31.61,12.59,57,33,0,0-5-6.85-9.89-13.35-5.2-6.87-5.32-14.93-2.23-22.3s21.39-41.12,55.86-41.83c0,0,10,8.08,7.84,27.81s-8.32,33.27-15,42.54c-2.83,3.94-6.3,8.52-9.36,12.49A13.11,13.11,0,0,0,486,191.22c8,7.59,22.35,20.85,26.41,31.74,0,0-4.2,20.72-22.27,45.2S453,301,453,301s40.48-4.61,66.08-37.56c25-32.17,54.15-65.13,51.82-150.22,0,0,18.69,23.14,18.06,86.2s-6,82.4-6.65,91.28,5.07,18.38,3.48,33.91c-1.14,11.16-2.44,26.43-3.08,34.12a10.08,10.08,0,0,0,3.14,8.19l12.48,11.73a20.11,20.11,0,0,1,4.7,22.61l-20.95,48.68a27.82,27.82,0,0,1-16.93,15.46c-21.69,7.05-69.61,20.52-119.44,20.52-67.5,0-99.83-17.75-123.28-34.23,0,0,19,26.3,76.38,43.1,21.63,6.34,48.68,9.43,74,10.82,24.45,1.34,29.38,35.32,6.28,43.49a173.62,173.62,0,0,1-50.15,10c-71.31,3.16-107.76-.64-177.79-39.3-26.51-14.64-48.11-34.54-64.73-53.62A288.42,288.42,0,0,0,421,586.43c184.83,0,329.1-173.64,278.6-366.69C674.3,123.21,599.5,46.87,503.33,20.24Z"/><path class="cls-2" d="M517.9,424.36s20-28.09-5.33-34.38c-20.28-5-57.23,33.28-57.23,33.28S512,393.15,517.9,424.36Z"/><path class="cls-2" d="M322.51,287.39s-3.69,23.39,7.39,33.24,33.24,6.16,39.4,1.23C369.3,321.86,339.82,317.87,322.51,287.39Z"/></g></g></g></svg>