<svg id="Layer_1" data-name="Layer 1" xmlns="http://www.w3.org/2000/svg" viewBox="0 0 841.89 595.28"><defs><style>.cls-1{opacity:0.05;}.cls-2{fill:#010101;}.cls-3{fill:none;}.cls-4{fill:#a91f25;}</style></defs><g class="cls-1"><path class="cls-2" d="M503.33,20.24C350.75-22,209.53,57.81,155.44,183.86c-18.54,35.66-23.29,97.46-23.29,97.46s23.64-52.78,71.4-100.24c7.81-7.75,30.23-34.62,65.45-47.26l.06.36a121,121,0,0,0,4.77,17.17,75.09,75.09,0,0,0,8,15.52,71.85,71.85,0,0,1-2.34-16.63,112.35,112.35,0,0,1,1.11-16.45c.67-4.49,1.56-8.92,2.63-13.29,5.34-12.58,16.14-33.79,32.18-45.34,23.77-17.11,35.42-18.06,41.36-12.83s7.13,23.29,5.7,39.21a157.84,157.84,0,0,1-2.58,17.37c-1.22,4.63-2.65,9.22-4.33,13.74a113.58,113.58,0,0,1-7,14.94A72.43,72.43,0,0,1,338.51,161,75.63,75.63,0,0,0,353,151.3a122,122,0,0,0,12.46-12.74c2.13-2.55,4.16-5.18,6.13-7.87,8.92.32,20.18,1.41,28.67,4.61,16.4,6.18,31.61,12.59,57,33,0,0-5-6.85-9.89-13.35-5.2-6.87-5.32-14.93-2.23-22.3s21.39-41.12,55.86-41.83c0,0,10,8.08,7.84,27.81s-8.32,33.27-15,42.54c-2.83,3.94-6.3,8.52-9.36,12.49A13.11,13.11,0,0,0,486,191.22c8,7.59,22.35,20.85,26.41,31.74,0,0-4.2,20.72-22.27,45.2S453,301,453,301s40.48-4.61,66.08-37.56c25-32.17,54.15-65.13,51.82-150.22,0,0,18.69,23.14,18.06,86.2s-6,82.4-6.65,91.28,5.07,18.38,3.48,33.91c-1.14,11.16-2.44,26.43-3.08,34.12a10.08,10.08,0,0,0,3.14,8.19l12.48,11.73a20.11,20.11,0,0,1,4.7,22.61l-20.95,48.68a27.82,27.82,0,0,1-16.93,15.46c-21.69,7.05-69.61,20.52-119.44,20.52-67.5,0-99.83-17.75-123.28-34.23,0,0,19,26.3,76.38,43.1,21.63,6.34,48.68,9.43,74,10.82,24.45,1.34,29.38,35.32,6.28,43.49a173.62,173.62,0,0,1-50.15,10c-71.31,3.16-107.76-.64-177.79-39.3-26.51-14.64-48.11-34.54-64.73-53.62A288.42,288.42,0,0,0,421,586.43c184.83,0,329.1-173.64,278.6-366.69C674.3,123.21,599.5,46.87,503.33,20.24Z"/><path class="cls-2" d="M517.9,424.36s20-28.09-5.33-34.38c-20.28-5-57.23,33.28-57.23,33.28S512,393.15,517.9,424.36Z"/><path class="cls-2" d="M322.51,287.39s-3.69,23.39,7.39,33.24,33.24,6.16,39.4,1.23C369.3,321.86,339.82,317.87,322.51,287.39Z"/></g><path class="cls-2" d="M364.51,194c8.43-8.65,22.47-13.62,38.52-13.62a92.28,92.28,0,0,1,24.12,3.4c18,4.91,32.43,10,44.08,18.91,5.39-37.48-13.72-86.13-31.77-100.09,15,27.7,11,54.26-4,64.07,10.39-38.67-5.19-71.58-43.29-92.36,31.75,42.72-15,45.6-13.92,96-.23-17.42-10.9-22.1-4-48.08-26,40-30.53,70.93-21.79,92.27C354.55,205,359.48,199.16,364.51,194Z"/><path class="cls-2" d="M364.51,194a39.6,39.6,0,0,1,11-7.78c-5.67-8.67-9.47-18.83-8.78-29.36-5.32,15.26-7.64,29.64-6.8,42.24C361.39,197.28,363,195.6,364.51,194Z"/><path class="cls-2" d="M426.45,183.6c.23.07.47.12.7.18,14.53,4,26.73,8.07,37,14.17.57-18-3.95-37.79-9.7-53.79C456.82,176,437.56,170.33,426.45,183.6Z"/><path class="cls-2" d="M385.29,182.61A69.28,69.28,0,0,1,403,180.38a90.51,90.51,0,0,1,21.63,2.77c7.3-26.52,6.24-65.65-15.22-83.44C421.41,128.72,385.67,149,385.29,182.61Z"/><path class="cls-2" d="M342.43,154.09a78.25,78.25,0,0,1,7.44,7.7c4.12-12.2,10.8-26,21-41.75A46.46,46.46,0,0,1,383,107.19c-1.95,5.18-4.85,16.06-4.85,16.06-3.08,11.54-2.46,18.44-.9,24.42,3.16-10.4,8.29-18.29,12.74-25.13,9.29-14.29,15.42-23.72-1-45.84a88.81,88.81,0,0,0-7-7.37,36.24,36.24,0,0,1,11.93,3.52c19.75,10.77,34,22.61,41.77,39.23a75,75,0,0,1,6.65,39.46c4.51-11.61,3.59-28.82-6.28-47,0,0-3.11-6.51-7.21-10.62,0,0,9.58,5.19,13.4,8.51,12.94,10,26.17,35,31.57,62.1a62,62,0,0,1,29.59-15.32c.07-20.77.41-47.18-5.71-62.4-8.06-20.09-56.94-23.18-76.67-23.18h-2.38c-19.73,0-68.61,3.09-76.67,23.18-6.09,15.17-5.78,41.46-5.71,62.2Z"/><path class="cls-2" d="M297,262.6l15.95-11.89-15.19,15.15c.21.88.42,1.74.62,2.59l26-26.75a27.7,27.7,0,0,1-3.07-4.48c-7.69-14-4.64-35,8-54.73.58-1,1.12-2,1.61-2.85-9.59.28-29.65,4.15-39.12,20.81-4.43,7.79-2.73,23.12.5,37.64C293.52,246.46,295.22,254.88,297,262.6Z"/><path class="cls-2" d="M317.19,275.75c14.79,2,44,4.07,101.35,4.07h2.38c57.34,0,86.57-2.11,101.36-4.07Z"/><polygon class="cls-3" points="547.56 275.75 290.59 275.75 390.06 174.98 444.32 170.81 547.56 275.75"/><path class="cls-2" d="M506.54,234.78a28.8,28.8,0,0,1-10.67,8.93l39.8,39.8,10.88-7.76Z"/><path class="cls-2" d="M324.05,241.32l-33.46,34.43,10.87,7.76,33.9-33.9A27.58,27.58,0,0,1,324.05,241.32Z"/><path class="cls-2" d="M80.83,428.63v-62.7h39.22v11.74H94.21V392h20.47V403.6H94.21v25Z"/><path class="cls-2" d="M129.79,428.63v-62.7h13.37v51h23.48v11.74Z"/><path class="cls-2" d="M213.32,413.8H191.67l-5.56,14.83H171.92l23.3-62.7h14.46l23.21,62.7h-14ZM196,402.24h13L202.4,380.4Z"/><path class="cls-2" d="M234.34,365.93h13.84l11.19,41.13,11.1-41.13h13.92l-19.1,62.7H253.46Z"/><path class="cls-2" d="M288.13,397.42a31.35,31.35,0,0,1,9.23-22.8,31.75,31.75,0,0,1,45.14,0,32.59,32.59,0,0,1-.05,45.5,31.69,31.69,0,0,1-45.09,0A31.22,31.22,0,0,1,288.13,397.42ZM306.78,384a19.52,19.52,0,0,0,0,26.89,18.35,18.35,0,0,0,26.25,0A19.32,19.32,0,0,0,333,384a18.29,18.29,0,0,0-26.25,0Z"/><path class="cls-2" d="M379,414a11.06,11.06,0,0,0,15.2-.05,10.12,10.12,0,0,0,3.23-7.69V365.93h13.37v40.31q0,10.38-7.1,16.84a24.49,24.49,0,0,1-17.1,6.46,24.82,24.82,0,0,1-17.2-6.46q-7.2-6.46-7.19-16.84V365.93h13.56v40.31A10.06,10.06,0,0,0,379,414Z"/><path class="cls-2" d="M455.75,406.43l15.56,22.2h-16l-14-21.66h-3v21.66H424.9v-62.7h25.66q10,0,15.42,6.05a22.2,22.2,0,0,1,1.41,27.26A18.54,18.54,0,0,1,455.75,406.43Zm-5.83-28.76H438.27v17.65h11.29a7,7,0,0,0,5.78-2.73,9.66,9.66,0,0,0,2.13-6.09,10,10,0,0,0-2-6.05A6.51,6.51,0,0,0,449.92,377.67Z"/><path class="cls-2" d="M525.27,397l29.39,31.67H537.37l-18.84-21.29v21.29H505.07v-62.7h13.46V386.5l14.84-20.57H549Z"/><path class="cls-2" d="M560.48,365.93h13.29v62.7H560.48Z"/><path class="cls-2" d="M635.56,365.93v62.7H623.64L601.8,390.68v37.95H588.51v-62.7h12.2l21.47,37.49V365.93Z"/><path class="cls-2" d="M702.35,375.49,692.52,384a18.09,18.09,0,0,0-27.07-.55,20.85,20.85,0,0,0,0,28.08,17.48,17.48,0,0,0,13.28,5.87,19,19,0,0,0,10.29-3.05q4.81-3,4.91-7.78H677.15V395.69h32.21q0,17-8.24,25.43t-22.34,8.42a32,32,0,0,1-32.12-32.12,31.21,31.21,0,0,1,9.33-22.8,30.84,30.84,0,0,1,22.79-9.42A32.18,32.18,0,0,1,692,367.93,29,29,0,0,1,702.35,375.49Z"/><path class="cls-2" d="M715.73,410.25h13.38a7.52,7.52,0,0,0,2.64,5.37,9.78,9.78,0,0,0,6.73,2.18,10.93,10.93,0,0,0,6.6-1.82,5.9,5.9,0,0,0,2.59-4.82,5.54,5.54,0,0,0-1.5-4.1q-1.59-1.72-6-3L732.56,402q-16.18-5-16.19-18a16.87,16.87,0,0,1,6.18-13.51,23,23,0,0,1,15.38-5.24q9.29,0,15.25,5.19t6,14H745.85a6.74,6.74,0,0,0-2.09-5.14,8.51,8.51,0,0,0-6-1.95,9.19,9.19,0,0,0-5.82,1.77,5.46,5.46,0,0,0-2.28,4.5q0,4.47,6.74,6.37l7.46,2.37q17.65,5.1,17.2,18.93a16.64,16.64,0,0,1-3.46,10.24,19.1,19.1,0,0,1-8.33,6.23,29.79,29.79,0,0,1-10.78,1.91q-10.2,0-16.47-5.41A17.59,17.59,0,0,1,715.73,410.25Z"/><path class="cls-2" d="M214.45,455.15a85.84,85.84,0,0,0-7,9.51,130.22,130.22,0,0,0-6.69,11.77q-3.15,6.27-5.78,12.87a123,123,0,0,0-4.34,12.84q3.77-1.15,7.7-2.22c2.63-.71,5.14-1.32,7.55-1.84a63.36,63.36,0,0,1,6.72-1.11,18.32,18.32,0,0,1,5.25.08,12.19,12.19,0,0,1,3.69,1.36,10.4,10.4,0,0,1,2.75,2.25,8.07,8.07,0,0,1,1.56,2.87,7,7,0,0,1,.2,3,3,3,0,0,1-.62,1.1,5.27,5.27,0,0,1-.94.9,3,3,0,0,1-.94.5.47.47,0,0,1-.62-.29,2.11,2.11,0,0,1,0-.9,3.21,3.21,0,0,0,0-1.4,10.52,10.52,0,0,0-5.29-.69,66.39,66.39,0,0,0-8.11,1c-3,.55-6.23,1.2-9.6,2s-6.63,1.46-9.8,2.09-6.06,1.12-8.69,1.48a21.35,21.35,0,0,1-6.23.12,2.43,2.43,0,0,1-1.68-1,5.94,5.94,0,0,1-.9-1.84,4.61,4.61,0,0,1-.21-1.72c.06-.49.17-.74.33-.74a11.88,11.88,0,0,0,4.06-.78q3.15-.94,7.67-2.34c-.11-.43-.22-.86-.33-1.27a12.33,12.33,0,0,1-.29-1.47,13,13,0,0,1-.08-2.18c0-.87.12-2,.29-3.36a56.58,56.58,0,0,1,2.46-10.58,94.49,94.49,0,0,1,4.75-11.8A95.8,95.8,0,0,1,198,461.63a78.73,78.73,0,0,1,8.19-10.41,51.87,51.87,0,0,1,9.27-7.88,26.76,26.76,0,0,1,10-4.1,10.91,10.91,0,0,1,5.91.7,11.74,11.74,0,0,1,5,3.77,13.7,13.7,0,0,1,2.62,6.28,14.85,14.85,0,0,1-1.19,8.11,28.65,28.65,0,0,1-4,7.06,24.14,24.14,0,0,1-4.8,4.63,21.69,21.69,0,0,1-5,2.66,19.59,19.59,0,0,1-4.55,1.15,16,16,0,0,1-3.61.08,4.93,4.93,0,0,1-2-.49q-.9-.57-.9-1t1.23-1.11a31.19,31.19,0,0,0,5.61-3.81,42.93,42.93,0,0,0,4.88-4.84,55.87,55.87,0,0,0,4-5.21,36,36,0,0,0,2.83-4.92,16.38,16.38,0,0,0,1.35-3.93,2.8,2.8,0,0,0-.28-2.3,3.73,3.73,0,0,0-2.63-.94,10.27,10.27,0,0,0-4.1.94,24,24,0,0,0-5.25,3.2A42.76,42.76,0,0,0,214.45,455.15Z"/><path class="cls-2" d="M238.06,499.1c0,.17.14.28.41.33a4,4,0,0,0,.86.08c.3,0,.59,0,.86,0s.41.13.41.29a1.92,1.92,0,0,1-.28,1.19,6.83,6.83,0,0,1-.91,1.31,10.5,10.5,0,0,1-1.1,1.11,2.25,2.25,0,0,1-1.07.57,3.46,3.46,0,0,1-2.13-.45,8,8,0,0,1-2.34-1.84,9.11,9.11,0,0,1-1.76-3,8.65,8.65,0,0,1-.41-4,30.94,30.94,0,0,1,1.23-5.38,69.77,69.77,0,0,1,2.54-6.92A76,76,0,0,1,238,475a48.19,48.19,0,0,1,4.63-6.84,2.89,2.89,0,0,1,2.34,0,6.55,6.55,0,0,1,2.13,1.43,5.51,5.51,0,0,1,1.35,2.13,2.28,2.28,0,0,1-.08,2c-.22.5-.64,1.43-1.27,2.79s-1.34,2.94-2.13,4.72-1.63,3.66-2.5,5.65-1.66,3.86-2.34,5.58-1.23,3.2-1.64,4.43A4.9,4.9,0,0,0,238.06,499.1Zm11.32-45.92a3.29,3.29,0,0,1,2.42-.32,7.67,7.67,0,0,1,3,1.18,6.29,6.29,0,0,1,2.17,2.34,3.11,3.11,0,0,1-.24,3.12c-.28.38-.69.91-1.23,1.6a17.16,17.16,0,0,1-1.93,2,13.07,13.07,0,0,1-2.42,1.68,5.19,5.19,0,0,1-2.79.61,3.41,3.41,0,0,1-1.88-.94,3.35,3.35,0,0,1-1-2.09,8,8,0,0,1,.17-2.75,13.59,13.59,0,0,1,.94-2.87,12.86,12.86,0,0,1,1.35-2.34A3.53,3.53,0,0,1,249.38,453.18Z"/><path class="cls-2" d="M278,468.85c.44-.28.78-.24,1,.12a1,1,0,0,1,0,1.19,13,13,0,0,1-3,2.66,17.33,17.33,0,0,1-3.32,1.64,16.6,16.6,0,0,1-3.36.86c-1.12.17-2.12.28-3,.33a27.15,27.15,0,0,1,.7,5.54,72.15,72.15,0,0,1-.13,7.25c-.16,2.63-.44,5.39-.82,8.29s-.87,5.71-1.47,8.44-1.29,5.34-2.05,7.83a42.78,42.78,0,0,1-2.5,6.44,15,15,0,0,1-2.92,4.18,3.82,3.82,0,0,1-3.28,1.23,6.14,6.14,0,0,1-2.41-.65,10.14,10.14,0,0,1-2.83-2,12,12,0,0,1-2.38-3.37,11.58,11.58,0,0,1-1.07-4.79,25,25,0,0,1,.45-7A93.7,93.7,0,0,1,248,496.85q1.64-5.62,4.06-12t5.37-12.71a4.4,4.4,0,0,1-.61-2.59,2.38,2.38,0,0,1,1.19-1.92,2.17,2.17,0,0,1,1.55-.09q2.22-4.66,4.35-8.85t3.81-7.38q1.68-3.19,2.79-5.13a24.06,24.06,0,0,1,1.27-2.09,2,2,0,0,1,2.05-.37,7,7,0,0,1,2.46,1.27,9.8,9.8,0,0,1,1.89,1.93c.49.69.63,1.22.41,1.6-.44.77-1,1.86-1.81,3.28s-1.61,3-2.54,4.88l-3,5.94q-1.65,3.21-3.28,6.48a31.57,31.57,0,0,0,3.65.12q1.85,0,3.24-.12C275.89,469,277,469,278,468.85Zm-15.66,11.48c-.6,1.14-1.39,2.84-2.38,5.08s-2,4.69-3,7.34-2,5.38-2.91,8.2-1.68,5.4-2.25,7.75a25.49,25.49,0,0,0-.87,5.9c0,1.59.41,2.49,1.23,2.71.28.11.73-.29,1.36-1.19a25.14,25.14,0,0,0,2-3.81q1.1-2.46,2.33-5.91a72.18,72.18,0,0,0,2.22-7.62c.65-2.79,1.19-5.74,1.6-8.86A73.47,73.47,0,0,0,262.33,480.33Z"/><path class="cls-2" d="M301.53,477.46a11.68,11.68,0,0,1-3.28,6.1,27.2,27.2,0,0,1-5.82,4.51,36.21,36.21,0,0,1-6.32,2.92,23.07,23.07,0,0,1-4.84,1.23,8.8,8.8,0,0,0-.16,3.36,2.56,2.56,0,0,0,1.39,2.21,4.73,4.73,0,0,0,3,0,24,24,0,0,0,4.22-1.47,35.54,35.54,0,0,0,4.67-2.55,50.8,50.8,0,0,0,4.35-3.07c.82-.77,1.39-1.15,1.72-1.15s.51.21.54.62a4.41,4.41,0,0,1-.25,1.51c-.19.61-.37,1.1-.53,1.48s-.82,1.38-1.64,2.66a20.81,20.81,0,0,1-3.28,3.86,19.43,19.43,0,0,1-4.84,3.28,11.48,11.48,0,0,1-6.4.94A9,9,0,0,1,281,503a12.5,12.5,0,0,1-3.45-2.38,13.79,13.79,0,0,1-2.79-3.89,13.22,13.22,0,0,1-1.23-5.46,23.28,23.28,0,0,1,2.14-9,36,36,0,0,1,4.71-7.7,27.07,27.07,0,0,1,5.86-5.5,11.9,11.9,0,0,1,5.66-2.25,8.62,8.62,0,0,1,4.59.86,9.42,9.42,0,0,1,4.92,6.15A8,8,0,0,1,301.53,477.46ZM296,473a1.94,1.94,0,0,0-2,.08,11.32,11.32,0,0,0-2.59,1.76,33.65,33.65,0,0,0-2.83,2.87,41.17,41.17,0,0,0-2.74,3.49,39.85,39.85,0,0,0-2.22,3.48,17,17,0,0,0-1.35,2.91,19.86,19.86,0,0,0,5.49-3.19,37.3,37.3,0,0,0,4.88-4.6,21,21,0,0,0,3.08-4.34C296.44,474.18,296.53,473.36,296,473Z"/><path class="cls-2" d="M314,493.36q-1.73-2.78-3.73-6.11a21.7,21.7,0,0,1-2.75-7.09,9.83,9.83,0,0,1,.5-6,10.6,10.6,0,0,1,3.32-4.19,13.13,13.13,0,0,1,4.88-2.29,13.56,13.56,0,0,1,5.33-.25,4.69,4.69,0,0,1,2.95,1.31,5.49,5.49,0,0,1,1.31,2.5,8.88,8.88,0,0,1,.16,3,10.52,10.52,0,0,1-.57,2.58c-.16.27-.67.12-1.52-.45s-1.79-1.19-2.83-1.85a14.57,14.57,0,0,0-3.11-1.51,1.93,1.93,0,0,0-2.38.53c-.55.77-.05,2.57,1.48,5.41.49.88,1.1,1.86,1.84,2.95s1.45,2.22,2.13,3.37a30.76,30.76,0,0,1,1.77,3.4,9.21,9.21,0,0,1,.82,3.07,11.73,11.73,0,0,1-1.07,4.84,14,14,0,0,1-2.91,4.22,14.26,14.26,0,0,1-4.35,3,13.26,13.26,0,0,1-5.37,1.1,10.19,10.19,0,0,1-5.74-1.68,9.74,9.74,0,0,1-3.4-4.06,12.12,12.12,0,0,1-1-5.37,12.45,12.45,0,0,1,1.48-5.53c.6-1.1,1.13-1.61,1.6-1.56s.72.63.78,1.72a7.68,7.68,0,0,0,.9,3.32,16.41,16.41,0,0,0,2.26,3.45,12.92,12.92,0,0,0,2.91,2.58,4.62,4.62,0,0,0,3,.82,2.16,2.16,0,0,0,1.93-1.72A4.44,4.44,0,0,0,314,493.36Z"/><path class="cls-2" d="M333.67,501.4a.66.66,0,0,0,.49.37,7.71,7.71,0,0,0,.86.2l.87.17c.27.05.41.16.41.33a1.6,1.6,0,0,1-.33,1.1,7.71,7.71,0,0,1-1,1.19,8.33,8.33,0,0,1-1.19,1,3,3,0,0,1-1.1.49,2.83,2.83,0,0,1-1.85-.33,5.11,5.11,0,0,1-1.72-1.56,8.24,8.24,0,0,1-1.23-2.75,15.07,15.07,0,0,1-.45-3.89,32.67,32.67,0,0,1,1-6.77,79.67,79.67,0,0,1,2.38-7.87q1.49-4.14,3.49-8.57t4.22-8.85a11.7,11.7,0,0,1-2.13-.58,3.27,3.27,0,0,1-1.52-1,2.64,2.64,0,0,1-.53-1.23,3.44,3.44,0,0,1,0-1.11,5.52,5.52,0,0,1,.16-.74c.17-.65,1-1.17,2.42-1.55a29.36,29.36,0,0,1,5.29-.82q2.37-4.44,4.55-7.88a54.59,54.59,0,0,1,3.73-5.33,3,3,0,0,1,2.46.09,7.77,7.77,0,0,1,2.46,1.59,6.18,6.18,0,0,1,1.52,2.22,1.6,1.6,0,0,1-.21,1.84,16.71,16.71,0,0,0-1.55,2.34c-.77,1.29-1.67,2.88-2.71,4.8,2,0,3.84,0,5.45.08s2.78.08,3.49.08a1.24,1.24,0,0,1,.82.37c.27.25.19.78-.25,1.6a8.52,8.52,0,0,1-2.42,2.87,12.79,12.79,0,0,1-3.4,1.84,18.49,18.49,0,0,1-3.94,1,28.56,28.56,0,0,1-3.93.29q-1.81,3.6-3.73,7.5c-1.29,2.6-2.5,5.15-3.65,7.67s-2.23,4.92-3.24,7.21-1.85,4.35-2.5,6.15-1.14,3.28-1.44,4.43S333.4,501.18,333.67,501.4Z"/><path class="cls-2" d="M373.69,469.91a2.7,2.7,0,0,1,2.25-.61,11.6,11.6,0,0,1,3,.65,9.62,9.62,0,0,1,2.5,1.31c.69.53.92.95.7,1.28a13.85,13.85,0,0,0-1.68,2.78q-1,2.06-2.58,5.54l-3.77,8.4q-2.22,4.92-5.42,11.4a113.71,113.71,0,0,1-8.4,14.35,54.69,54.69,0,0,1-9.51,10.74,25.59,25.59,0,0,1-10.25,5.5,15.48,15.48,0,0,1-10.7-1.31,9.62,9.62,0,0,1-4.76-4.31,5.49,5.49,0,0,1-.16-5,4.84,4.84,0,0,1,1.35-1.93,4,4,0,0,1,1.43-.78,1.75,1.75,0,0,1,1.07,0c.27.11.38.25.33.41a7.36,7.36,0,0,0-.86,3.49,6,6,0,0,0,.78,3,5,5,0,0,0,2.13,2,5.87,5.87,0,0,0,3.2.53,12.26,12.26,0,0,0,5.94-2.09,31.57,31.57,0,0,0,6.81-6.07,69.4,69.4,0,0,0,7.25-10.25,116.27,116.27,0,0,0,7.22-14.64c-.82,1-1.68,2.05-2.58,3s-1.77,1.86-2.59,2.62a29.59,29.59,0,0,1-2.25,1.93,3.84,3.84,0,0,1-1.68.86,5.43,5.43,0,0,1-2.91-.53,9.8,9.8,0,0,1-2.83-2,10.68,10.68,0,0,1-2.13-3,7.57,7.57,0,0,1-.74-3.69,14.64,14.64,0,0,1,1.06-5.12,47.63,47.63,0,0,1,2.63-5.74q1.56-2.91,3.36-5.7t3.44-5q1.65-2.18,2.79-3.53c.77-.9,1.23-1.35,1.4-1.35a4.34,4.34,0,0,1,2.37.53,7.3,7.3,0,0,1,2,1.52,6.13,6.13,0,0,1,1.19,1.84,1.55,1.55,0,0,1,0,1.44c-.54.82-1.24,1.93-2.09,3.32s-1.75,2.91-2.7,4.55-1.91,3.31-2.83,5-1.73,3.24-2.38,4.64a27.07,27.07,0,0,0-1.44,3.56c-.3,1-.28,1.56,0,1.73.33.32,1,.12,2.05-.62a29.28,29.28,0,0,0,3.65-3.2q2.1-2.08,4.51-4.79c1.61-1.81,3.16-3.61,4.64-5.42q1.4-2.87,2.46-4.83c.71-1.32,1.31-2.38,1.8-3.2l1.19-2Z"/><path class="cls-2" d="M385.33,499.84c.05.17.22.28.49.33a4.74,4.74,0,0,0,.86.08c.3,0,.59,0,.86,0s.41.13.41.29a1.8,1.8,0,0,1-.32,1.19,8.2,8.2,0,0,1-1,1.31,11.19,11.19,0,0,1-1.19,1.11,2.47,2.47,0,0,1-1.1.57,2.68,2.68,0,0,1-1.85-.37,4.81,4.81,0,0,1-1.68-1.68,9.92,9.92,0,0,1-1.19-2.87,12,12,0,0,1-.29-3.93,34.08,34.08,0,0,1,1.6-8q1.44-4.68,3.61-9.88t4.88-10.62q2.7-5.42,5.41-10.17c1.81-3.17,3.51-6,5.13-8.57a67.42,67.42,0,0,1,4.06-5.86,3,3,0,0,1,2.46.08,8,8,0,0,1,2.46,1.6,6.11,6.11,0,0,1,1.51,2.21,1.64,1.64,0,0,1-.2,1.85,20.12,20.12,0,0,0-1.93,2.87q-1.44,2.39-3.4,5.94t-4.35,8q-2.37,4.47-4.67,9.06t-4.43,9c-1.42,2.93-2.64,5.56-3.65,7.91a57.21,57.21,0,0,0-2.21,5.83C385.15,498.67,385.06,499.57,385.33,499.84Z"/><path class="cls-2" d="M423.3,477.46a11.75,11.75,0,0,1-3.28,6.1,27.25,27.25,0,0,1-5.83,4.51,35.79,35.79,0,0,1-6.31,2.92,23.07,23.07,0,0,1-4.84,1.23,8.61,8.61,0,0,0-.16,3.36,2.56,2.56,0,0,0,1.39,2.21,4.71,4.71,0,0,0,3,0,23.83,23.83,0,0,0,4.23-1.47,36.19,36.19,0,0,0,4.67-2.55,50.8,50.8,0,0,0,4.35-3.07c.82-.77,1.39-1.15,1.72-1.15s.5.21.53.62a4.14,4.14,0,0,1-.24,1.51c-.2.61-.37,1.1-.54,1.48s-.82,1.38-1.64,2.66a20.43,20.43,0,0,1-3.28,3.86,19.25,19.25,0,0,1-4.84,3.28,11.45,11.45,0,0,1-6.39.94,9,9,0,0,1-3.12-.9,12.6,12.6,0,0,1-3.44-2.38,13.79,13.79,0,0,1-2.79-3.89,13.06,13.06,0,0,1-1.23-5.46,23.44,23.44,0,0,1,2.13-9,36,36,0,0,1,4.72-7.7,26.84,26.84,0,0,1,5.86-5.5,11.87,11.87,0,0,1,5.66-2.25,8.62,8.62,0,0,1,4.59.86,9.54,9.54,0,0,1,3.2,2.62,9.67,9.67,0,0,1,1.72,3.53A8.11,8.11,0,0,1,423.3,477.46ZM417.8,473a2,2,0,0,0-2,.08,11.07,11.07,0,0,0-2.58,1.76,32.23,32.23,0,0,0-2.83,2.87,43.43,43.43,0,0,0-2.75,3.49c-.84,1.2-1.58,2.36-2.21,3.48a17,17,0,0,0-1.35,2.91,19.86,19.86,0,0,0,5.49-3.19,37.3,37.3,0,0,0,4.88-4.6,20.93,20.93,0,0,0,3.07-4.34C418.21,474.18,418.29,473.36,417.8,473Z"/><path class="cls-2" d="M488.65,455.15a85.84,85.84,0,0,0-7,9.51A130.18,130.18,0,0,0,475,476.43q-3.17,6.27-5.78,12.87a123.16,123.16,0,0,0-4.35,12.84q3.76-1.15,7.71-2.22t7.54-1.84a64.21,64.21,0,0,1,6.72-1.11,18.32,18.32,0,0,1,5.25.08,12.19,12.19,0,0,1,3.69,1.36,10.24,10.24,0,0,1,2.75,2.25,7.77,7.77,0,0,1,1.56,2.87,6.73,6.73,0,0,1,.2,3,3,3,0,0,1-.61,1.1,5.31,5.31,0,0,1-.95.9,2.88,2.88,0,0,1-.94.5.46.46,0,0,1-.61-.29c-.06-.06,0-.36,0-.9a3.38,3.38,0,0,0,0-1.4,10.54,10.54,0,0,0-5.29-.69,66.29,66.29,0,0,0-8.12,1c-3,.55-6.23,1.2-9.59,2s-6.63,1.46-9.8,2.09-6.07,1.12-8.7,1.48a21.35,21.35,0,0,1-6.23.12,2.43,2.43,0,0,1-1.68-1,5.94,5.94,0,0,1-.9-1.84,4.61,4.61,0,0,1-.21-1.72c.06-.49.17-.74.33-.74a11.84,11.84,0,0,0,4.06-.78c2.11-.63,4.66-1.41,7.67-2.34-.11-.43-.22-.86-.33-1.27a14.71,14.71,0,0,1-.29-1.47,13,13,0,0,1-.08-2.18c0-.87.12-2,.29-3.36a56.58,56.58,0,0,1,2.46-10.58,96.05,96.05,0,0,1,4.75-11.8,98.49,98.49,0,0,1,6.69-11.73,78,78,0,0,1,8.2-10.41,51.47,51.47,0,0,1,9.26-7.88,26.87,26.87,0,0,1,10-4.1,10.89,10.89,0,0,1,5.9.7,11.74,11.74,0,0,1,5,3.77,13.71,13.71,0,0,1,2.63,6.28,14.94,14.94,0,0,1-1.19,8.11,29,29,0,0,1-4,7.06,23.88,23.88,0,0,1-4.8,4.63,21.69,21.69,0,0,1-5,2.66,19.59,19.59,0,0,1-4.55,1.15,16,16,0,0,1-3.61.08,4.93,4.93,0,0,1-2-.49q-.9-.57-.9-1t1.23-1.11a31.62,31.62,0,0,0,5.62-3.81,44.63,44.63,0,0,0,4.88-4.84,55.72,55.72,0,0,0,4-5.21,36,36,0,0,0,2.83-4.92,16.93,16.93,0,0,0,1.36-3.93,2.8,2.8,0,0,0-.29-2.3,3.71,3.71,0,0,0-2.63-.94,10.23,10.23,0,0,0-4.09.94,23.54,23.54,0,0,0-5.25,3.2A42.26,42.26,0,0,0,488.65,455.15Z"/><path class="cls-2" d="M534.24,476.8a20.56,20.56,0,0,1-.16,5.7,35.61,35.61,0,0,1-1.6,6.31,33.93,33.93,0,0,1-2.87,6.11,26.8,26.8,0,0,1-4,5.21,17.59,17.59,0,0,1-5,3.52,11.39,11.39,0,0,1-5.82,1,8.64,8.64,0,0,1-3-.86,13.31,13.31,0,0,1-3.2-2.13,13.62,13.62,0,0,1-2.58-3.12,7.92,7.92,0,0,1-1.15-3.81,21.92,21.92,0,0,1,.54-6.19,32.85,32.85,0,0,1,1.76-5.5,28.22,28.22,0,0,1,2.34-4.43,24.17,24.17,0,0,1,2.25-3,5.37,5.37,0,0,1,2.54-1.72,7.34,7.34,0,0,0,1.64-.49,27,27,0,0,1,1.36-2.5,10.64,10.64,0,0,1,1.84-2.26,8.45,8.45,0,0,1,2.46-1.56,6.75,6.75,0,0,1,3.2-.41,8.21,8.21,0,0,1,2.91,1.07,14.75,14.75,0,0,1,3,2.3,15.17,15.17,0,0,1,2.46,3.15A7.09,7.09,0,0,1,534.24,476.8Zm-10.66,12.46a43.06,43.06,0,0,0,2.25-5.7,25.64,25.64,0,0,0,1.11-5,11.13,11.13,0,0,0-.12-3.77,2.59,2.59,0,0,0-1.35-1.93,2.63,2.63,0,0,0-2.63.13,7.46,7.46,0,0,0-2.62,2.42,9.58,9.58,0,0,0-1.19,1.88,4.84,4.84,0,0,1-.94,1.4,10,10,0,0,0-1.44,2.09,37.71,37.71,0,0,0-1.72,3.48c-.58,1.31-1.11,2.69-1.6,4.14a31,31,0,0,0-1.11,4.18,12.83,12.83,0,0,0-.2,3.57,2.85,2.85,0,0,0,1.15,2.22,3.37,3.37,0,0,0,2.5,0,8.47,8.47,0,0,0,2.74-1.77,18.86,18.86,0,0,0,2.71-3.15A35.31,35.31,0,0,0,523.58,489.26Z"/><path class="cls-2" d="M561.55,498.12c.05.16.21.29.49.37a4,4,0,0,0,.86.16l.86.08c.27,0,.41.13.41.29a1.8,1.8,0,0,1-.29,1.15,7,7,0,0,1-.9,1.27,6.12,6.12,0,0,1-1.15,1,3.07,3.07,0,0,1-1.11.49,2.76,2.76,0,0,1-1.88-.66,7.86,7.86,0,0,1-1.85-2.09,11.36,11.36,0,0,1-1.35-3.28,14.56,14.56,0,0,1-.41-4.14v-.57q-2.38,3.36-4.18,5.57a32.65,32.65,0,0,1-3.2,3.49,11.92,11.92,0,0,1-2.46,1.8,4.38,4.38,0,0,1-2,.53,5.88,5.88,0,0,1-2.5-.65,8.85,8.85,0,0,1-2.5-1.85,10.33,10.33,0,0,1-1.93-2.83,8.25,8.25,0,0,1-.77-3.6,17.38,17.38,0,0,1,.86-4.47,47.75,47.75,0,0,1,2-5.21c.8-1.8,1.68-3.61,2.67-5.41s2-3.5,2.95-5.09,1.94-3,2.87-4.22a28.57,28.57,0,0,1,2.46-2.91,2,2,0,0,1,1.81.08,5.71,5.71,0,0,1,1.92,1.48,6.76,6.76,0,0,1,1.31,2.25,3.42,3.42,0,0,1,0,2.5,21.17,21.17,0,0,1-1.27,2.46l-2.38,4.23c-.9,1.61-1.83,3.31-2.78,5.08s-1.81,3.44-2.55,5a37.54,37.54,0,0,0-1.64,4c-.35,1.09-.36,1.75,0,2s.9.12,1.72-.29a14.11,14.11,0,0,0,3.08-2.34,49.89,49.89,0,0,0,4.26-4.63q2.43-2.91,5.29-7.09,1.89-3.29,3.78-6.73a53.69,53.69,0,0,1,4-6.31,2.32,2.32,0,0,1,2.26.2,5.91,5.91,0,0,1,1.84,1.85,8.4,8.4,0,0,1,1.07,2.46,2.73,2.73,0,0,1-.17,2.13c-.21.49-.62,1.34-1.23,2.54s-1.27,2.6-2,4.19-1.49,3.23-2.26,5-1.46,3.33-2.09,4.83-1.12,2.81-1.48,3.9A4.11,4.11,0,0,0,561.55,498.12Z"/><path class="cls-2" d="M595.9,498.28a.57.57,0,0,0,.49.33,4.08,4.08,0,0,0,.87.08c.29,0,.58,0,.86,0s.41.13.41.29a2.09,2.09,0,0,1-.25,1.19,6.39,6.39,0,0,1-.82,1.31,8,8,0,0,1-1.07,1.11,2.18,2.18,0,0,1-1.06.57,3.25,3.25,0,0,1-2-.37,6,6,0,0,1-2.09-1.76,10.08,10.08,0,0,1-1.64-3.16,13.49,13.49,0,0,1-.58-4.71,18.53,18.53,0,0,1,2-7.09q1.89-4.07,4.43-9.23-1.39,1.23-3.69,3.45a64,64,0,0,0-4.84,5.28,80,80,0,0,0-5.08,6.93,46,46,0,0,0-4.35,8.37,4.29,4.29,0,0,1-.24,1.1c-.17.53-.66.78-1.48.78a3.87,3.87,0,0,1-2-1,13.54,13.54,0,0,1-2.05-2.09,11.87,11.87,0,0,1-1.52-2.46,4.73,4.73,0,0,1-.49-2.26,22.6,22.6,0,0,1,.94-4.51c.52-1.69,1.17-3.45,1.93-5.29s1.61-3.66,2.54-5.49,1.86-3.57,2.79-5.21,1.81-3.1,2.63-4.38a28.45,28.45,0,0,1,2.13-3c.22-.21.69-.2,1.43,0a9,9,0,0,1,2.26,1.19,10.36,10.36,0,0,1,1.93,1.77,1.81,1.81,0,0,1,.53,1.68,13.9,13.9,0,0,1-.78,1.68c-.41.79-.89,1.68-1.44,2.66s-1.1,2.05-1.68,3.2-1.1,2.27-1.6,3.36a67.08,67.08,0,0,1,5.13-5.37c1.89-1.77,3.7-3.36,5.45-4.75a57.52,57.52,0,0,1,4.72-3.45,11.49,11.49,0,0,1,2.83-1.51,3.68,3.68,0,0,1,2.41,1.06,5.67,5.67,0,0,1,1.93,2.63,4.13,4.13,0,0,1,.41,3.19c-.22.5-.64,1.39-1.27,2.67s-1.34,2.76-2.13,4.43-1.61,3.41-2.46,5.24-1.61,3.56-2.3,5.17-1.23,3-1.64,4.14A4.37,4.37,0,0,0,595.9,498.28Z"/><path class="cls-2" d="M642,462.78a1,1,0,0,1,1.06-.58c.44.06.63.33.58.82a14.64,14.64,0,0,1-1.4,5.42,18.3,18.3,0,0,1-2.54,3.89,15.62,15.62,0,0,1-2.79,2.58,14.26,14.26,0,0,1-2.13,1.32,5.68,5.68,0,0,1-1.31.41,19.62,19.62,0,0,1-.9,8A26.72,26.72,0,0,1,629,492a21.85,21.85,0,0,1-5.21,5.29,9.05,9.05,0,0,1-5.78,1.89,6.15,6.15,0,0,1-1.85-.13,10.9,10.9,0,0,1-1.92-.61,12.12,12.12,0,0,0-1.81,1.88,15.42,15.42,0,0,0-1.8,3.2,35.31,35.31,0,0,1,7-1.64,19.41,19.41,0,0,1,8.12.58,10.62,10.62,0,0,1,2.87,2.13,12.91,12.91,0,0,1,1.89,2.58,12.47,12.47,0,0,1,1.1,2.67,11.75,11.75,0,0,1,.45,2.29,9.31,9.31,0,0,1-1.64,5.21,20,20,0,0,1-4.3,4.63,29.62,29.62,0,0,1-6,3.69,36.2,36.2,0,0,1-6.8,2.38,28.52,28.52,0,0,1-6.65.82,12.59,12.59,0,0,1-5.57-1.15,8.26,8.26,0,0,1-3.45-3.24,8.77,8.77,0,0,1-1.31-5.29,5.12,5.12,0,0,1,1-2.54,12.2,12.2,0,0,1,2.29-2.46,17,17,0,0,1,3.12-2,16,16,0,0,1,3.44-1.27,5.47,5.47,0,0,1-1.68-1.84,8,8,0,0,1-.78-1.77,4.51,4.51,0,0,1,0-2.74,10.58,10.58,0,0,1,1.44-2.87,16.66,16.66,0,0,1,2.42-2.79,30.69,30.69,0,0,1,3-2.5,9.38,9.38,0,0,1-1.93-2,7,7,0,0,1-1.1-2.42,11.84,11.84,0,0,1-.13-5,25.63,25.63,0,0,1,1.6-5.54,32.75,32.75,0,0,1,2.87-5.41,28.24,28.24,0,0,1,3.77-4.63,19.32,19.32,0,0,1,4.23-3.2,8.93,8.93,0,0,1,4.3-1.19,16.17,16.17,0,0,1,4.51.62,8.54,8.54,0,0,1,3.53,1.92,2.52,2.52,0,0,0,.16.29,2.48,2.48,0,0,1,.17.29,19.56,19.56,0,0,0,3.36-2.09c1.09-.85,2.1-1.66,3-2.42C640,464.72,641,463.76,642,462.78Zm-33,49.12a44,44,0,0,0-3.94,3.77c-.92,1-1.77,2.09-2.54,3.15s-1,1.93-.82,2.59a6,6,0,0,0,3.69.45,28.63,28.63,0,0,0,5.41-1.23,48.08,48.08,0,0,0,6-2.38,42.39,42.39,0,0,0,5.41-3,17.61,17.61,0,0,0,3.69-3.16c.88-1,1.15-2,.82-2.79s-1.15-1.2-2.46-1.15a24.23,24.23,0,0,0-4.63.74c-1.78.44-3.62,1-5.54,1.56S610.42,511.51,608.94,511.9Zm7.54-18.21q1.72.82,3.69-.74a18.11,18.11,0,0,0,3.82-4.34,42.69,42.69,0,0,0,3.32-6.11c1-2.22,1.77-4.25,2.38-6.11a7.93,7.93,0,0,1-2.3-1.11,4.66,4.66,0,0,1-1.48-1.6,24.73,24.73,0,0,0-5.16,5.29,33.91,33.91,0,0,0-3.65,6.23,18.6,18.6,0,0,0-1.6,5.5C615.34,492.31,615.66,493.31,616.48,493.69Z"/><path class="cls-2" d="M664.62,477.46a11.68,11.68,0,0,1-3.28,6.1,27.2,27.2,0,0,1-5.82,4.51A36.21,36.21,0,0,1,649.2,491a23.07,23.07,0,0,1-4.84,1.23,8.8,8.8,0,0,0-.16,3.36,2.56,2.56,0,0,0,1.39,2.21,4.73,4.73,0,0,0,3,0,24,24,0,0,0,4.22-1.47,35.54,35.54,0,0,0,4.67-2.55,50.8,50.8,0,0,0,4.35-3.07c.82-.77,1.39-1.15,1.72-1.15s.51.21.54.62a4.41,4.41,0,0,1-.25,1.51c-.19.61-.37,1.1-.53,1.48s-.82,1.38-1.64,2.66a20.81,20.81,0,0,1-3.28,3.86,19.43,19.43,0,0,1-4.84,3.28,11.48,11.48,0,0,1-6.4.94A9,9,0,0,1,644,503a12.5,12.5,0,0,1-3.45-2.38,13.79,13.79,0,0,1-2.79-3.89,13.22,13.22,0,0,1-1.23-5.46,23.28,23.28,0,0,1,2.14-9,36,36,0,0,1,4.71-7.7,27.07,27.07,0,0,1,5.86-5.5,11.9,11.9,0,0,1,5.66-2.25,8.62,8.62,0,0,1,4.59.86,9.42,9.42,0,0,1,4.92,6.15A8,8,0,0,1,664.62,477.46Zm-5.5-4.43a1.94,1.94,0,0,0-2,.08,11.11,11.11,0,0,0-2.59,1.76,33.65,33.65,0,0,0-2.83,2.87,41.17,41.17,0,0,0-2.74,3.49,39.85,39.85,0,0,0-2.22,3.48,17,17,0,0,0-1.35,2.91,19.86,19.86,0,0,0,5.49-3.19,37.3,37.3,0,0,0,4.88-4.6,21,21,0,0,0,3.08-4.34C659.53,474.18,659.62,473.36,659.12,473Z"/><path class="cls-2" d="M560.33,358.58l13.36-4.77a3.59,3.59,0,0,0,2.17-4.59l-2.62-7.35-3.62,4.69-8.24-6.13-2.24,9.88-5.91-.92,2.51,7A3.59,3.59,0,0,0,560.33,358.58Z"/><path class="cls-2" d="M435,251.93c.34-3.77,1.12-12.8,1.12-15.94,0-4-.58-8.78-3.06-11.84s-2.67-5.92-5.35-3.24-3.82,4.58-5.34,5-4.2-.19-6.88,1.53-2.67,2.67-.76,5,4.77,2.68,5.35,7.26c.52,4.2.3,11.88.26,15C424.81,253.74,429.68,252.7,435,251.93Z"/><path class="cls-2" d="M387.3,193.12c-4.46,6.24-5.63,18.07.29,23s12.63,9.94,17.78,5.74c0,0-1.11,3.41-3.4,4,0,0,7.93,3.38,11-.2,1.94-2.26,5-2.66,7.49-3.81s5-2.48,4.39-5.15-1.15-3.82-1.34-5.92-2.48-3.82-6.11-5.35-4.77,2.86-9.74,3.63a23.53,23.53,0,0,0,5.92-6.88c2.29-4.2,1.91-4.58,3.44-6.11s3.62-6.48,1.72-10.49a79.67,79.67,0,0,0-21.08-1.24A30.28,30.28,0,0,0,387.3,193.12Z"/><path class="cls-2" d="M414.26,241.23c0-2.37-.89-5.81-3.37-7.34s-5-1.53-9.17-2.29a20.36,20.36,0,0,1-9.54-4.77c-2.3-1.91-4.21-5.92-5.54-5s-2.49,2.48-2.49,7.26-.95,7.06.77,9.74a12,12,0,0,1,2.29,7.25c0,2.13-.08,8-.11,10.36,9.72.88,20.2.65,27.19-.61C414.29,252.73,414.26,243.21,414.26,241.23Z"/><path class="cls-2" d="M361.62,228.35c3.06-1.71,6.49-6.87,7.07-9.73a14.54,14.54,0,0,0-.58-6.31s4.21,5.54,7.45,4.4,3.44-5.16,3.63-9.17a27.7,27.7,0,0,1,3.63-12c1.83-2.94,3.37-8.76,3.49-9.2-8.08,2.22-14.4,5.93-18.58,10.21-6.15,6.32-12,13.24-12,28.24v.38C356.42,226.23,359,229.82,361.62,228.35Z"/><path class="cls-2" d="M463.4,236.18a15.56,15.56,0,0,0-5.34-8.78c-2.87-2.29-3.44-1-7.64-2.1s-8.4-3.25-9.74-3.25-3.82-.57-2.48,2.29,2.86,3.44,2.67,10.89c-.15,5.72.08,12.93.2,16a94.5,94.5,0,0,1,15.5-.18c2.2.16,4.24.21,6.13.17C463,248,463.72,238.39,463.4,236.18Z"/><path class="cls-2" d="M381.29,241.15c0-2.29-1.34-3.06-1.15-7.45s2.49-11.07-1.14-11.84-5.35-1-7.83,2.29-5.73,6.11-5.92,11.65c-.17,4.94,1.14,11.57,1.43,15.94a24.39,24.39,0,0,0,4.61,1.95,67.83,67.83,0,0,0,9.62,2.05C381,252.7,381.29,243.07,381.29,241.15Z"/><path class="cls-4" d="M483.3,227.7c-.07-1.15-.17-2.17-.29-3a26.15,26.15,0,0,1-.66,3.61,5.41,5.41,0,0,1-.33.82A6.34,6.34,0,0,0,483.3,227.7Z"/><path class="cls-2" d="M469.32,222.63c-4.2-2.11-7.64-2.3-11.07-5.16s-9.93-3.82-9.93-3.82,5-1.34,7.25-.76,5.35-.77,2.3-2.49-4.4-5.73-4.4-9c0,0,2.49,5.54,5.54,6.3,2.55.64,5.12-3.21,6.23-4.3h0s.17-.18.38-.37c-10.49-7-23.2-11.34-39.16-15.69-1.51-.41-3-.77-4.47-1.1a18.78,18.78,0,0,1-.6,8.86c-1.53,4-3.24,6.11-1.72,7.25s6.31.58,8.21,1.91,4.21,1.15,6.31,1.15,3.62,2.67,3.62,2.67a8.63,8.63,0,0,0-6.68-.76c-3.63,1.14-4.2,5.15-3.05,6.3s5.34,4.39,9.73,4,8.79,1.91,12.23,3.44,5.72.38,7.83,2.67,4.39,5.92,8.21,8.21,8.21,1.15,8.78-1.33S473.52,224.73,469.32,222.63Z"/><path class="cls-2" d="M475.05,210.68a57,57,0,0,0-5.12-4.5c-.17-.14-.35-.26-.52-.39l-.16.1c-.93.7-6.64,5.08-7,7.19-.38,2.29,2.29,3,5,2.1s5-4.14,7.82-4.5Z"/><path class="cls-2" d="M483,224.28c-.44-2.43-1.56-6.67-6.57-12.17h0s-3.45,1.54-3.45,3.64.57,3.44,3.06,5.73,3.43,3.44,3.24,6.11,2.14,3.09,4.09,0A30.7,30.7,0,0,0,483,224.28Z"/><path class="cls-2" d="M352,252.16l3.1,3.09-18.06,18.06-21.88-21.88-2.83,2.83,21.88,21.88L333,277.36l2.82,2.82L358,258.08,376,276.14l-.58.58,2.82,2.83L393.81,264c-1.82-.06-3.61-.16-5.38-.29l-9.59,9.6-21.58-21.57A19.9,19.9,0,0,1,352,252.16Z"/><path class="cls-2" d="M432.72,259.4l-13.91,13.91-9.68-9.68c-1.69.16-3.46.27-5.31.35L416,276.14l-.81.81,2.83,2.83,21.3-21.31Q435.91,258.86,432.72,259.4Z"/><path class="cls-2" d="M525.37,254.51l-18.8,18.8L487.76,254.5,507.31,235l-.51-.51A29.48,29.48,0,0,1,491,245.63l-6,6-2.83,2.83-18.81,18.81-15.41-15.4c-1.83,0-3.64.11-5.39.25l18,18-.84.84,2.83,2.83,22.48-22.48,18.81,18.81-.86.86,2.83,2.83,22.49-22.49Z"/><polygon class="cls-2" points="546.61 275.04 304.26 274.9 312.94 250.71 297.75 265.86 285.81 277.73 286.75 280.13 295.05 300.59 543.77 300.59 552.06 280.13 552.34 277.68 546.61 275.04"/><path class="cls-2" d="M306.31,293.87a8.14,8.14,0,0,0,0,1.71,34.29,34.29,0,0,0,.21,4.81H358.6l1.19-1.14s-8.22-1.9-12.43-2.72c-3.18-3.91-8.73-7.44-15.53-9.45-11.16-3.3-21.73-1.32-24.74,4.36l1.84-5.75-2.9-9.94h-5.82c3.05,11.71,5.59,19.73,5.59,19.73Z"/><path class="cls-2" d="M308,304.31c.18.65.38,1.33.64,2.06,2.6,7.23,2.46,10.79,2.46,10.79h.06c1.19,4.08,6.51,8.29,13.68,10.34,9.08,2.58,17.65.72,19.14-4.16a5.47,5.47,0,0,0,0-3A17.77,17.77,0,0,1,345.2,314l.58-.72c1.58-1.86,5.49-5.75,8.78-8.95Z"/><path class="cls-2" d="M352,238.34a93.22,93.22,0,0,1-.63-13.41c0-16.09,6.5-24.11,13.15-30.93l.11-.11c-5.95-14.23-15-28-24.86-36.82,16.92,36.24-9.11,37.59-1.72,60.92-7.49-7.91-10.36-15.21-5.43-33.34-19.46,30.46-14.69,64.53,18.47,63.55a29.54,29.54,0,0,0,4.71-.51A24.61,24.61,0,0,1,352,238.34Z"/><path class="cls-2" d="M352,238.34a93.22,93.22,0,0,1-.63-13.41c0-13.49,4.57-21.3,10-27.5a168.08,168.08,0,0,0-11-22.38c2.18,29-10.6,22.18-8.08,49.84-8.6-1.54-9.68-8-14.82-14.92-5.78,27.59,9.8,37.54,23,36.27a27.25,27.25,0,0,0,4.11-.7A24.15,24.15,0,0,1,352,238.34Z"/><path class="cls-2" d="M352,238.34a93.22,93.22,0,0,1-.63-13.41A41.34,41.34,0,0,1,355,206.88c-1.57-4.51-2.21-9-.46-13.42-9.74,16.75-11.1,28.91-7.17,38.31-6.51,1.08-12.94-4.57-17.45-12.84-1.25,17.71,13.07,30.56,24,25.58A23.35,23.35,0,0,1,352,238.34Z"/><path class="cls-2" d="M500,182.38c4.11,17.44.09,22.49-8.21,29.24,14.88-22.06-12.31-32.83,14.88-59-24.2,3.63-41.08,22.48-48.67,42a78.24,78.24,0,0,1,14,8.67c12.62,9.91,14,17.91,14.53,20.54a66.6,66.6,0,0,1-.3,18.81C508.57,238.54,516.54,214.14,500,182.38Z"/><path class="cls-2" d="M472,203.3c7,5.48,10.53,10.38,12.4,14.11,11-25.45-10.64-29.52,8.91-57.6-13.18,6.95-24.82,21.82-31.12,37A73.6,73.6,0,0,1,472,203.3Z"/><path class="cls-2" d="M485.28,219.26a22,22,0,0,1,1.29,4.58,67.93,67.93,0,0,1,0,17c8.95-3.74,15.54-14.86,16.41-33.15C496.25,213.12,493.31,219.13,485.28,219.26Z"/><path class="cls-2" d="M481.15,244.87a4.73,4.73,0,0,0,.28-.39c.08-.11.16-.21.23-.32s.16-.3.24-.44.09-.17.13-.25a5,5,0,0,0,.25-.67c.08-.29.16-.61.23-.94l.06-.3c.06-.25.11-.51.16-.77l.06-.32c.06-.36.12-.73.18-1.12v-.07c.06-.37.11-.74.15-1.12,0-.13,0-.26.05-.39l.09-.9c0-.13,0-.26,0-.39,0-.41.07-.83.1-1.25a1.34,1.34,0,0,0,0-.2c0-.36,0-.73.07-1.1l0-.46c0-.26,0-1,0-1.3-2.47,2-9.13,5.78-15.2,4.37a.39.39,0,0,0-.47.35l-1.08,14.22c.48-.06.94-.13,1.4-.21l.69-.12,1.3-.26.65-.15c.41-.1.8-.2,1.18-.31l.6-.18,1.08-.34.55-.2,1-.38.51-.22c.29-.13.57-.26.84-.4s.32-.16.47-.25.5-.27.74-.41l.43-.27c.22-.14.43-.27.62-.41l.4-.3c.18-.13.36-.27.52-.41s.24-.21.36-.32.29-.26.41-.39.22-.23.32-.35S481.06,245,481.15,244.87Z"/><path class="cls-2" d="M541.53,266.64l-16-15.93,16.78,12.51c1.82-7.89,3.59-16.53,4.91-25.13,3.22-14.52,4.93-29.85.5-37.64-9.87-17.36-31.24-20.83-40.28-20.83a1.78,1.78,0,0,1-1.16-.45,24.18,24.18,0,0,0,.95,9.54c5.71,16.74,6.73,34,.66,44a28.54,28.54,0,0,1-2.3,3.27l38.46,39.75H533.43l-2.89,9.94,1.58,4.95c-3.55-5.05-13.63-6.7-24.25-3.56-6.81,2-12.38,5.56-15.55,9.48-4.25.84-12.27,2.69-12.27,2.69l1.19,1.14h52a32.6,32.6,0,0,0,.19-4.81c0-.25,0-.51,0-.76l.21.66s1.54-4.86,3.66-12.53l6.37,17.44h.15l9.22-22.3Z"/><path class="cls-2" d="M341.12,168.36c-.88-4.21-5-12.46-5-12.46a143.8,143.8,0,0,1-1.28,17.84c.14.29.22.45.44,1a16,16,0,0,1,1,3.73,33.17,33.17,0,0,1,.14,8.46c-.15,1.41-.4,2.94-.62,4.41l-.7,4.46-.71,4.47a15.06,15.06,0,0,0-.22,4.54,14.84,14.84,0,0,1,1.06-4.33l1.56-4.24,1.55-4.26c.5-1.43,1-2.8,1.5-4.33.36-1.18.66-2.38.91-3.6A40.78,40.78,0,0,0,341.12,168.36Z"/><path class="cls-2" d="M531.57,304.26H484.92c3.32,3.23,7.31,7.2,8.92,9.09,1.19,1.48,1.57,4.72,1.68,7.13a5.5,5.5,0,0,0,0,3c1.5,4.88,10.06,6.74,19.14,4.15,7.17-2,12.49-6.25,13.68-10.34h.06s-.13-3.56,2.46-10.79C531.17,305.67,531.38,305,531.57,304.26Z"/></svg>