<svg xmlns="http://www.w3.org/2000/svg" xmlns:xlink="http://www.w3.org/1999/xlink" viewBox="0 0 841.89 595.28"><defs><style>.cls-1{isolation:isolate;}.cls-2{fill:#010101;}.cls-12,.cls-14,.cls-15,.cls-18,.cls-3,.cls-6,.cls-9{mix-blend-mode:screen;}.cls-3{fill:url(#linear-gradient);}.cls-4{fill:url(#linear-gradient-2);}.cls-5{fill:url(#linear-gradient-3);}.cls-6{fill:url(#linear-gradient-4);}.cls-7{fill:url(#linear-gradient-5);}.cls-8{fill:url(#linear-gradient-6);}.cls-9{fill:url(#linear-gradient-7);}.cls-10{fill:url(#linear-gradient-8);}.cls-11{fill:url(#linear-gradient-9);}.cls-12{fill:url(#linear-gradient-10);}.cls-13{fill:#95351f;}.cls-14{fill:url(#linear-gradient-11);}.cls-15{fill:url(#linear-gradient-12);}.cls-16{fill:#651f0d;}.cls-17{fill:#a91f25;}.cls-18{fill:url(#linear-gradient-13);}.cls-19{fill:#be242e;}.cls-20{opacity:0.05;}</style><linearGradient id="linear-gradient" x1="412.81" y1="104.75" x2="412.81" y2="249.04" gradientUnits="userSpaceOnUse"><stop offset="0" stop-color="#010101"/><stop offset="1" stop-color="#f48420"/></linearGradient><linearGradient id="linear-gradient-2" x1="602.45" y1="179.96" x2="616.16" y2="266.28" gradientTransform="matrix(-1, 0, 0, 1, 1108.83, 0)" gradientUnits="userSpaceOnUse"><stop offset="0" stop-color="#ed3326"/><stop offset="1" stop-color="#faed14"/></linearGradient><linearGradient id="linear-gradient-3" x1="579.42" y1="160.73" x2="624.83" y2="253.76" xlink:href="#linear-gradient-2"/><linearGradient id="linear-gradient-4" x1="596.31" y1="186.35" x2="615.9" y2="253.13" gradientTransform="matrix(-1, 0, 0, 1, 1108.83, 0)" xlink:href="#linear-gradient"/><linearGradient id="linear-gradient-5" x1="397.42" y1="113.35" x2="423.2" y2="275.68" gradientTransform="matrix(1, 0, 0, 1, 0, 0)" xlink:href="#linear-gradient-2"/><linearGradient id="linear-gradient-6" x1="412.75" y1="75.38" x2="412.75" y2="255.5" gradientTransform="matrix(1, 0, 0, 1, 0, 0)" xlink:href="#linear-gradient-2"/><linearGradient id="linear-gradient-7" x1="413.36" y1="105.15" x2="413.36" y2="249.04" xlink:href="#linear-gradient"/><linearGradient id="linear-gradient-8" x1="310.82" y1="194.18" x2="323.88" y2="276.44" gradientTransform="translate(83.95 -77.21) rotate(14.54)" xlink:href="#linear-gradient-2"/><linearGradient id="linear-gradient-9" x1="291.95" y1="186.95" x2="330.44" y2="265.79" gradientTransform="translate(83.95 -77.21) rotate(14.54)" xlink:href="#linear-gradient-2"/><linearGradient id="linear-gradient-10" x1="306.96" y1="201.67" x2="325.88" y2="266.16" gradientTransform="translate(83.95 -77.21) rotate(14.54)" xlink:href="#linear-gradient"/><linearGradient id="linear-gradient-11" x1="401.56" y1="198.3" x2="401.56" y2="241.52" gradientUnits="userSpaceOnUse"><stop offset="0" stop-color="#f48420"/><stop offset="1" stop-color="#be242e" stop-opacity="0"/></linearGradient><linearGradient id="linear-gradient-12" x1="356.8" y1="230.55" x2="373.13" y2="205.1" gradientUnits="userSpaceOnUse"><stop offset="0" stop-color="#be242e" stop-opacity="0"/><stop offset="1" stop-color="#f48420"/></linearGradient><linearGradient id="linear-gradient-13" x1="430.56" y1="197.27" x2="457.88" y2="231.62" xlink:href="#linear-gradient-11"/></defs><g class="cls-1"><g id="Layer_1" data-name="Layer 1"><path class="cls-2" d="M540.59,226.91a63.15,63.15,0,0,1,.19,8c5.21,7.08,8.05,14.74,8.05,22.73a34.78,34.78,0,0,1-2.55,12.95l-10.86-15c-.53,1-1.11,1.93-1.71,2.85l10.06,16.88H524.16l-2.83-5a41.6,41.6,0,0,1-3.86,2l1.45,3H508.48l-4.46,1a18.91,18.91,0,0,1-2.59,2.77h19.31l7,14.33A106.54,106.54,0,0,1,510,304.33L500,280.21a26.09,26.09,0,0,1-3.81,2.36l7.87,22.29H483.25l-5-17.84c-1.56.11-3.19.18-4.92.18h0l-.91,0,3.88,17.68H452.6l-2.7-17.81q-2.77.22-5.44.56l1.65,17.25H421.78l-.36-13.09-5.22,1.05-.33,12H392.55l1-10.45c-1.83,0-3.64-.06-5.44-.14l-1.61,10.59H363.35l2.87-13.05c-1.89-.37-3.68-.78-5.35-1.23l-4,14.28h-23l8-22.57-.83.1c-1.28.14-2.47.23-3.64.26h-.46l-9,21.77a107,107,0,0,1-17.79-10.89L317,279.38a38,38,0,0,1-7.65-4.07H293.63l-.16-.3,6-10c-.44-.69-.87-1.4-1.27-2.14-.22-.39-.42-.8-.62-1.2l-6.35,8.43a34.54,34.54,0,0,1-2.38-12.49,35.52,35.52,0,0,1,3.92-16,65,65,0,0,1,.51-10.15c-6.18,8.19-9.42,17-9.42,26.15a39.84,39.84,0,0,0,3.42,16c.37,3.12,1.13,7.7,2.61,14.4,4.23,19.2,17.09,36.3,23.93,40.53s15-1.47,16.28-2.77a64.68,64.68,0,0,0,4.6-6.62s25.51,11.18,54.32,14.11a278.14,278.14,0,0,0,67.23-1.79c13.51-1.95,37.77-8,41.84-9.93l5-2.39s.52,2.71,5.89,6.95,10.42,5,16.44.32A60,60,0,0,0,543,302.51a123.38,123.38,0,0,0,7.47-29,39.79,39.79,0,0,0,3.38-15.91C553.83,246.77,549.25,236.34,540.59,226.91ZM311.65,279.06l-6,10.74A60.54,60.54,0,0,1,296,279.06ZM497.3,309.85q-5.55,2.13-11.54,3.95l-1.11-3.95Zm-50.71,0,1.12,11.7a254.54,254.54,0,0,1-25.42,1.61l-.37-13.31Zm-84.34,0h23.49l-1.67,10.95a219.17,219.17,0,0,1-23.23-4.52Zm-6.79,0-1.3,4.63q-7.21-2.1-13.81-4.63Zm35.48,11.81,1.13-11.81h23.66l-.36,13.31C407,323,398.84,322.53,390.94,321.66ZM455,320.59l-1.63-10.74h24l1.3,5.95A214.7,214.7,0,0,1,455,320.59Zm71.27-41.53h15.43a60.12,60.12,0,0,1-9.47,10.59Z"/><path class="cls-3" d="M468.65,167.41c-3.59,38.8-35.2,23.71-40.23,52.45-25.87-41,13.65-53.17-6.47-94.85,5,25.87-50.13,46.4-23,100.6-12.94,1.44-41.68-14.37-42.4-43.83a110.5,110.5,0,0,0-2.7,12.9c1.53,2.57,3,5.16,4.41,7.81l-4.51,2.11c-.24-.58-.5-1.14-.74-1.71-2.24,38.58,21.81,63.68,61,63.68C475.71,266.57,478,212.68,468.65,167.41Z"/><path class="cls-4" d="M522,188.57c5.1,21.65.11,27.91-10.19,36.3,18.47-27.39-15.28-40.76,18.47-73.24-63.68,9.56-86.57,104-45.17,111.49C527.12,270.72,546.86,236.33,522,188.57Z"/><path class="cls-5" d="M525.69,220.05c-8.89,7.12-12.45,15.12-24,14.23,15.89-33.61-12.77-38.07,12.07-73.73-35,18.47-61.3,82-32.48,98.07C502.92,270.72,523.91,257.4,525.69,220.05Z"/><path class="cls-6" d="M479.45,252.07c12.07,12.07,38.13,4.45,42.57-19.56-8.27,12.1-21.23,12.44-29.24,8.89,5.87-12.94,7.12-14.23,3.56-51.58C491.9,214.72,462.55,235.17,479.45,252.07Z"/><path class="cls-7" d="M365.88,113.89c-8.6,32.25,4.65,38.06,4.94,59.69C369.46,111,427.5,107.45,388.09,54.42c47.29,25.8,66.65,66.64,53.75,114.65,18.63-12.18,23.64-45.14,5-79.54,38,29.38,79.8,182.56-29.38,182C346.17,271.18,299.24,216.37,365.88,113.89Z"/><path class="cls-8" d="M356.56,156.89c-1.43,21.85,12.74,42.45,27.23,55.17C363,155.46,427,128.17,409.59,86c29.38,24.36,28,81,15.76,113.22,11.47-28.67,43.48-12.66,40.13-58,17.68,49.21,26,127.55-48,127.55C353,268.67,335.07,218.51,356.56,156.89Z"/><path class="cls-9" d="M357.28,182c.71,29.38,29.38,45.14,42.28,43.71-27.06-54.05,27.94-74.52,22.93-100.32,20.06,41.56-19.35,53.74,6.45,94.59,5-28.67,36.54-13.62,40.12-52.31,9.32,45.14,7,98.88-54.46,98.88C368.75,266.52,343.66,232.13,357.28,182Z"/><path class="cls-10" d="M314.22,191.38c-6.13,22.51-2.56,31.58,6.74,41.39-9.18-29,23.13-30.63,2.13-75.62,34.55,30.88,61.7,111.73,14.05,113.13C296,271.49,290.05,229.2,314.22,191.38Z"/><path class="cls-11" d="M307.79,222.81c6.38,8.53,7.72,16.62,18.4,18.53-3.13-34.34,12.74-25.93,10-61.87,16.7,28.4,39.56,84.54.08,88.37C320,269.42,300.62,257.06,307.79,222.81Z"/><path class="cls-12" d="M342.23,264.93c-13.76,8.12-32.93-8.2-31.32-31,5.6,10.26,13.58,17.27,21.67,15.93-4.89-11.65-3.2-26.76,8.89-47.55C332.85,224,371,248,342.23,264.93Z"/><path class="cls-2" d="M394.78,286.58c-12.95,0-25.75-1.55-34.24-4.13-16.78-5.1-19.93-19.43-20.39-22.25-1-5.86-.74-15.46-.73-15.86,0-18.87,7.29-27.91,15.4-36.24,9.88-10.13,26.39-15.94,45.31-15.94a109.19,109.19,0,0,1,28.63,4c22,6,39.5,12.23,53.48,23.21,14.74,11.58,16.4,20.8,16.94,23.84.91,5.05,1,17.65-.79,24-1.71,6.14-11.18,12.33-28.49,12.33h0c-1.94,0-4-.08-6.06-.23-2.53-.19-5.13-.28-7.7-.28-12.86,0-23.95,2.31-33.74,4.35-2.95.62-5.74,1.2-8.45,1.69A111.09,111.09,0,0,1,394.78,286.58Z"/><path class="cls-2" d="M495.85,243.84c-.7-3.91-2.87-11.68-15.71-21.77-13.55-10.64-30.37-16.64-52.27-22.61-33.63-9.16-59-.91-70.62,11-7.41,7.6-14.45,15.93-14.45,34,0,0-.23,9.62.69,15.24.59,3.62,4,15.27,18,19.55s38.35,5,51.8,2.6,30-7.33,50.75-5.81,29.82-5.2,31-9.62C496.77,260.46,496.65,248.31,495.85,243.84Z"/><path class="cls-13" d="M438.55,276.77c.4-4.53,1.34-15.39,1.34-19.17,0-4.82-.69-10.56-3.67-14.23s-3.22-7.12-6.43-3.91-4.6,5.51-6.43,6-5.06-.23-8.27,1.84-3.22,3.22-.92,6,5.74,3.22,6.43,8.73c.63,5,.36,14.28.31,18.09C426.32,278.94,432.18,277.7,438.55,276.77Z"/><path class="cls-13" d="M381.21,206.05c-5.36,7.5-6.77,21.72.35,27.69s15.18,11.95,21.38,6.9c0,0-1.33,4.1-4.09,4.79,0,0,9.53,4.07,13.21-.23,2.33-2.73,6-3.21,9-4.59s6-3,5.28-6.2-1.38-4.59-1.61-7.12-3-4.59-7.34-6.43-5.75,3.45-11.72,4.36a28.08,28.08,0,0,0,7.12-8.26c2.76-5.05,2.3-5.51,4.14-7.35s4.35-7.79,2.07-12.61a95.7,95.7,0,0,0-25.36-1.5A36.46,36.46,0,0,0,381.21,206.05Z"/><path class="cls-14" d="M421.34,227.6a24.31,24.31,0,0,0,.93,4.58c.24.87.49,1.77.74,2.95.11.52-.93,1.26-3.38,2.39-.73.33-1.58.63-2.47.94-2.43.85-5.45,1.9-7.69,4.52a3.72,3.72,0,0,1-2.69.78,11.56,11.56,0,0,1-1.43-.09,14.68,14.68,0,0,0,.84-2L408.4,234l-7.61,4a4.69,4.69,0,0,1-3.09,1.13h0c-4.42,0-10.62-5.2-13.95-8-5.39-4.52-4.36-16.68.23-23.1a33.26,33.26,0,0,1,10.62-9.18c2-.15,4-.22,6-.22A95.27,95.27,0,0,1,416.4,200a10,10,0,0,1-1.88,7.2,11.7,11.7,0,0,0-2.71,4.09c-.4.89-1,2.11-2,4a54.08,54.08,0,0,1-5.79,8.28l-6.75,7.06c3.56-.55,14.79-4.34,16.46-5.59a6.64,6.64,0,0,1,1.92-1.19,1.07,1.07,0,0,1,.42.11c5.09,2.15,5.28,3.58,5.28,3.6"/><path class="cls-13" d="M413.64,263.9c0-2.85-1.08-7-4.06-8.82s-6-1.84-11-2.76a24.56,24.56,0,0,1-11.49-5.74c-2.75-2.29-5.05-7.12-6.66-6s-3,3-3,8.73-1.15,8.49.92,11.71a14.53,14.53,0,0,1,2.75,8.73c0,2.55-.09,9.65-.13,12.45,11.69,1,24.29.78,32.7-.73C413.66,277.74,413.64,266.28,413.64,263.9Z"/><path class="cls-13" d="M350.33,248.42c3.67-2.07,7.81-8.27,8.5-11.71a17.41,17.41,0,0,0-.69-7.58s5.05,6.66,8.95,5.28,4.14-6.2,4.37-11a33.32,33.32,0,0,1,4.36-14.47c2.21-3.53,4.06-10.53,4.2-11.07-9.72,2.67-17.32,7.14-22.34,12.29-7.4,7.59-14.44,15.92-14.44,34,0,0,0,.17,0,.47C344.07,245.86,347.19,250.18,350.33,248.42Z"/><path class="cls-15" d="M348.73,245.41a6,6,0,0,1-2.08-1.91c.16-16,6.2-23.52,13.47-31a41.69,41.69,0,0,1,14.62-9.32,23,23,0,0,1-1.81,3.91,36.55,36.55,0,0,0-4.88,16.12c-.2,4.3-.47,7.4-2.09,8-1,0-3.49-2-5.11-4.14l-6,3.15a13.66,13.66,0,0,1,.58,5.83C355,238.61,351.41,243.84,348.73,245.41Z"/><path class="cls-13" d="M472.73,257.83c-.46-3.21-3-7.8-6.43-10.56s-4.13-1.15-9.19-2.53-10.1-3.9-11.71-3.9-4.59-.69-3,2.76,3.44,4.13,3.21,13.09c-.17,6.87.1,15.54.24,19.2a112.59,112.59,0,0,1,18.64-.21c2.65.19,5.1.25,7.37.2C472.21,272,473.11,260.49,472.73,257.83Z"/><path class="cls-13" d="M374,263.8c0-2.75-1.6-3.67-1.37-9s3-13.32-1.38-14.24-6.43-1.15-9.42,2.76-6.89,7.35-7.12,14c-.2,5.94,1.38,13.92,1.73,19.17a28.75,28.75,0,0,0,5.54,2.35,81,81,0,0,0,11.56,2.46C373.63,277.7,374,266.12,374,263.8Z"/><path class="cls-2" d="M387.49,203.64a33.26,33.26,0,0,0-4.55,7.44,17.93,17.93,0,0,0-1.7,4.09c-.07.37-.17.73-.21,1.1s-.08.74-.09,1.12a11.88,11.88,0,0,0,.07,2.23,42.1,42.1,0,0,0,.66,4.33,25.3,25.3,0,0,0,1.38,4A21.69,21.69,0,0,0,388,235.1l-.1.17a12.55,12.55,0,0,1-6.75-6.39,16,16,0,0,1-1.2-9.29c.11-.76.22-1.52.36-2.27.07-.38.1-.76.15-1.14s.12-.75.19-1.13a29.36,29.36,0,0,1,.78-4.59,12.5,12.5,0,0,1,2.29-4.11,9.52,9.52,0,0,1,3.71-2.88Z"/><path class="cls-2" d="M381.6,245a25,25,0,0,0,5.87,5.88,23.36,23.36,0,0,0,7.53,3c1.34.35,2.7.61,4.07.84.69.12,1.38.23,2.07.32l1,.13.51.06.61.1a8.89,8.89,0,0,1,4,2.2,7.5,7.5,0,0,1,2.36,3.65,10.2,10.2,0,0,0-6.59-4.31l-.45,0h-.54l-1.09-.06c-.72,0-1.44-.11-2.16-.19a37.09,37.09,0,0,1-4.29-.77,19.78,19.78,0,0,1-8-3.73A16.81,16.81,0,0,1,381.6,245Z"/><path class="cls-16" d="M420.92,280.05c5.4-1.12,11.26-2.36,17.63-3.28.36-4.1,1.16-13.34,1.31-17.87-7,.94-13.36,2.31-19.21,3.52C421.21,267.54,421,276.34,420.92,280.05Z"/><path class="cls-17" d="M345.56,247.32a23.66,23.66,0,0,1-1.79-5.63c-.17-1-.3-2.22-.4-3.45-.18,1.86-.29,3.82-.29,5.93v.16A14.69,14.69,0,0,0,345.56,247.32Z"/><path class="cls-17" d="M496.66,247.63c-.09-1.38-.21-2.61-.35-3.57a30.54,30.54,0,0,1-.8,4.34,5.63,5.63,0,0,1-.39,1A7.47,7.47,0,0,0,496.66,247.63Z"/><path class="cls-16" d="M374,263.8v0a82.16,82.16,0,0,1-12.16-2.55,28.25,28.25,0,0,1-7.14-3.28c-.09,5.9,1.42,13.62,1.74,18.71a29.41,29.41,0,0,0,5.4,2.26,81.1,81.1,0,0,0,11.7,2.47C373.63,277.75,374,266.12,374,263.8Z"/><path class="cls-16" d="M472.76,258.18a76.87,76.87,0,0,1-8.32-.17,111.68,111.68,0,0,0-18.84.23c-.1,6.58.14,14.27.27,17.66a112.85,112.85,0,0,1,18.57-.21,74,74,0,0,0,7.44.2C472.19,272.14,473,261.33,472.76,258.18Z"/><path class="cls-16" d="M413.64,263.9s0-.06,0-.1c-8.58,1.56-21.54,1.8-33.47.68a13.6,13.6,0,0,1,.94,5.3c0,2.56-.09,9.67-.13,12.46,11.71,1,24.3.77,32.69-.75h0C413.66,277.71,413.64,266.28,413.64,263.9Z"/><path class="cls-13" d="M479.85,241.53c-5.05-2.53-9.19-2.76-13.32-6.2s-11.94-4.59-11.94-4.59,6-1.61,8.72-.92,6.43-.92,2.76-3-5.28-6.89-5.28-10.79c0,0,3,6.66,6.66,7.58,3.06.76,6.15-3.87,7.49-5.17h0s.21-.21.46-.43c-12.61-8.39-27.91-13.64-47.1-18.87-1.82-.5-3.61-.93-5.38-1.33.07.38,1.06,6-.71,10.65-1.84,4.82-3.91,7.35-2.07,8.73s7.58.69,9.88,2.29,5.05,1.38,7.57,1.38,4.37,3.22,4.37,3.22a10.41,10.41,0,0,0-8-.92c-4.36,1.38-5.05,6.2-3.67,7.58s6.43,5.28,11.71,4.82,10.56,2.3,14.69,4.13,6.89.46,9.42,3.22,5.28,7.12,9.87,9.87,9.88,1.38,10.57-1.61S484.9,244.06,479.85,241.53Z"/><path class="cls-18" d="M481.15,250.86a6.8,6.8,0,0,1-3.45-1c-2.91-1.75-5.07-4.4-7-6.73-.69-.85-1.35-1.65-2-2.39a42.85,42.85,0,0,0,4.59,1.82,41.15,41.15,0,0,1,5,2c3.83,1.91,5,4.61,4.88,5.73a3.15,3.15,0,0,1-2.05.55ZM464.4,238a18.61,18.61,0,0,0-2.71-.52,12.53,12.53,0,0,1-3.65-.89l-1.37-.62c-3.78-1.72-8.48-3.86-13.52-3.86-.5,0-1,0-1.49.06a5.44,5.44,0,0,1-.57,0c-3.39,0-6.79-2.43-8.07-3.53a2.59,2.59,0,0,1,1.93-2.25,6,6,0,0,1,1.85-.28,7.28,7.28,0,0,1,3.38.86l11.09,6.55-6.35-11.15c-.29-.51-2.95-4.94-7.33-4.94h-1.71a6.79,6.79,0,0,1-3.91-.77c-1.91-1.34-4.46-1.6-6.92-1.85-.53-.06-1.2-.13-1.79-.21.18-.42.39-.89.58-1.31.45-1,1-2.23,1.55-3.65a21.94,21.94,0,0,0,1.28-7.44l.73.19c13.7,3.74,25.41,7.46,35.56,12.42l-5.58,1.2a18.14,18.14,0,0,0,3.12,10.23,37.87,37.87,0,0,0-6.8,1.18l.39,6.66c1.91.29,7.49,1.53,10.26,3.84Zm3.77-17.71c-1-.36-2.66-2.49-3.85-4.76q3,1.51,5.8,3.19A6.63,6.63,0,0,1,468.17,220.28Z"/><path class="cls-13" d="M486.73,227.17a66.64,66.64,0,0,0-6.15-5.42l-.63-.47-.19.13c-1.12.84-8,6.11-8.41,8.64-.46,2.75,2.76,3.67,6,2.52s6-5,9.41-5.4Z"/><path class="cls-13" d="M496.28,243.52c-.52-2.93-1.87-8-7.9-14.63h0s-4.15,1.85-4.15,4.37.69,4.14,3.68,6.89,4.13,4.14,3.9,7.35,2.57,3.72,4.92.06A37.74,37.74,0,0,0,496.28,243.52Z"/><path class="cls-2" d="M484.37,247.21a3.17,3.17,0,0,1,.51,1.55,2.43,2.43,0,0,1-.53,1.62,4.14,4.14,0,0,1-3,1.42,7.55,7.55,0,0,1-3.27-.56,11.48,11.48,0,0,1-2.77-1.71c-3.37-2.68-5.68-6.32-8.66-9.23A5.3,5.3,0,0,0,464,239c-1-.2-2-.26-3.09-.43a14.58,14.58,0,0,1-3.16-.83c-1-.42-1.94-.86-2.9-1.3C451.1,234.67,447.21,233,443,233v-.09a16,16,0,0,1,6.35.4,37.87,37.87,0,0,1,6,2.14l2.87,1.28a13.13,13.13,0,0,0,2.92.87c1,.19,2.06.28,3.13.58a6.47,6.47,0,0,1,1.55.63,6.63,6.63,0,0,1,1.29,1.06c.73.81,1.34,1.65,2,2.49s1.3,1.65,2,2.44a23.83,23.83,0,0,0,4.69,4.12,16.66,16.66,0,0,0,2.66,1.49,7.43,7.43,0,0,0,2.89.59,3.75,3.75,0,0,0,2.63-1,2.24,2.24,0,0,0,.59-1.27,3.25,3.25,0,0,0-.24-1.49Z"/><path class="cls-2" d="M86.54,437.8V375.1h38.31v10.38H98.19v16.29H119.3v10.37H98.19V437.8Z"/><path class="cls-2" d="M135.14,437.8V375.1h11.65v52.33H171V437.8Z"/><path class="cls-2" d="M220.59,437.8l-5.74-15.19H191.47l-5.74,15.19H173.36l23.47-62.7h12.56l23.48,62.7Zm-17.48-49.32-7.73,23.93H211Z"/><path class="cls-2" d="M231.51,375.1h12.1l12.19,43.68L268,375.1h12.1l-19,62.7H250.62Z"/><path class="cls-2" d="M284.56,406.59a31.44,31.44,0,0,1,9.19-22.8,31.82,31.82,0,0,1,45.18,0,32.58,32.58,0,0,1,0,45.5,31.69,31.69,0,0,1-45.09,0A31.23,31.23,0,0,1,284.56,406.59ZM302,391.89a21.28,21.28,0,0,0,0,29.35,20.09,20.09,0,0,0,28.66,0,21.28,21.28,0,0,0,0-29.35,20,20,0,0,0-28.66,0Z"/><path class="cls-2" d="M374.74,424.33a11.86,11.86,0,0,0,8.46,3.37,12,12,0,0,0,8.51-3.37,11.29,11.29,0,0,0,3.6-8.64V375.1H407v40.59q0,10.19-7,16.61a25.31,25.31,0,0,1-33.67,0q-7-6.42-7-16.61V375.1h11.83v40.59A11.35,11.35,0,0,0,374.74,424.33Z"/><path class="cls-2" d="M451.18,415.05l16,22.75h-14l-14.74-22.29h-4.82V437.8H422V375.1h25.12q9.74,0,14.87,6a22.45,22.45,0,0,1,1.1,27.17Q459,413.78,451.18,415.05Zm-4.64-29.57H433.62v19.65h12.56a7.82,7.82,0,0,0,6.55-2.91A10.8,10.8,0,0,0,455,395.4a11.54,11.54,0,0,0-2.18-6.87A7.24,7.24,0,0,0,446.54,385.48Z"/><path class="cls-2" d="M520.34,406.22l29.48,31.58H534.63L513.7,414.6v23.2H502V375.1H513.7v22.84l16.83-22.84h13.65Z"/><path class="cls-2" d="M556.37,437.8V375.1h11.56v62.7Z"/><path class="cls-2" d="M630,375.1v62.7H619.35l-24.21-41.22V437.8H583.58V375.1h10.83l23.93,40.77V375.1Z"/><path class="cls-2" d="M696.51,383.93,688,391.39a19.68,19.68,0,0,0-28.62.14,22.32,22.32,0,0,0,0,30.17A19,19,0,0,0,673.76,428a19.48,19.48,0,0,0,11.7-3.64,11.58,11.58,0,0,0,5.23-9.37h-17.2v-9.55h30.58q0,16.65-8.15,25t-22.16,8.32a30.62,30.62,0,0,1-22.66-9.42,32.53,32.53,0,0,1,0-45.5,30.61,30.61,0,0,1,22.66-9.41Q687.59,374.38,696.51,383.93Z"/><path class="cls-2" d="M710.8,419.51h11.65a8.65,8.65,0,0,0,3.09,6.23,11.2,11.2,0,0,0,7.74,2.6,11.85,11.85,0,0,0,7.37-2.14,7.06,7.06,0,0,0,3-5.41,6.39,6.39,0,0,0-2-5.19,15.36,15.36,0,0,0-6.68-3.37l-7.74-2q-15.84-4.65-15.83-17.47a16.45,16.45,0,0,1,6.14-13.24,22.51,22.51,0,0,1,15-5.14q9.11,0,15,5.14t5.87,13.78H741.74a7.6,7.6,0,0,0-2.5-6,10,10,0,0,0-6.87-2.23,10.74,10.74,0,0,0-6.69,2.05,6.4,6.4,0,0,0-2.69,5.32q0,5.19,7.47,7.19l7.73,2.28q9.73,2.64,13.65,7.73A17.62,17.62,0,0,1,748.61,434a24.74,24.74,0,0,1-15.33,4.77q-9.93,0-16.2-5.55A17.6,17.6,0,0,1,710.8,419.51Z"/><path class="cls-19" d="M214.29,464.32a86.36,86.36,0,0,0-7,9.52,128.62,128.62,0,0,0-6.68,11.76q-3.16,6.28-5.78,12.88a125.4,125.4,0,0,0-4.35,12.83c2.52-.77,5.09-1.5,7.71-2.21s5.14-1.33,7.54-1.85a63.94,63.94,0,0,1,6.73-1.11,18.29,18.29,0,0,1,5.25.09,12.11,12.11,0,0,1,3.69,1.35,10.35,10.35,0,0,1,2.74,2.25,7.85,7.85,0,0,1,1.56,2.87,6.88,6.88,0,0,1,.21,3,3,3,0,0,1-.62,1.1,5.72,5.72,0,0,1-.94.91,3,3,0,0,1-.95.49.46.46,0,0,1-.61-.29c-.06-.05,0-.35,0-.9a3.32,3.32,0,0,0,0-1.39,10.41,10.41,0,0,0-5.29-.7,68.56,68.56,0,0,0-8.12,1q-4.54.82-9.59,2c-3.36.77-6.63,1.46-9.8,2.09s-6.07,1.12-8.69,1.48a21,21,0,0,1-6.23.12,2.45,2.45,0,0,1-1.69-1,6.1,6.1,0,0,1-.9-1.85,4.36,4.36,0,0,1-.2-1.72c.05-.49.16-.74.33-.74a11.8,11.8,0,0,0,4.05-.78c2.11-.63,4.66-1.4,7.67-2.33-.11-.44-.22-.87-.33-1.28a12.5,12.5,0,0,1-.28-1.47,12.74,12.74,0,0,1-.09-2.17c0-.88.13-2,.29-3.37a56.31,56.31,0,0,1,2.46-10.57,94.71,94.71,0,0,1,4.76-11.81,97,97,0,0,1,6.68-11.73,79.45,79.45,0,0,1,8.2-10.41,50.72,50.72,0,0,1,9.27-7.87,26.43,26.43,0,0,1,10-4.1,10.77,10.77,0,0,1,5.9.69,11.83,11.83,0,0,1,5,3.77,13.75,13.75,0,0,1,2.63,6.28,15,15,0,0,1-1.19,8.12,28.91,28.91,0,0,1-4,7.05,23.61,23.61,0,0,1-4.8,4.63,21.16,21.16,0,0,1-5,2.67,19.91,19.91,0,0,1-4.55,1.14,16,16,0,0,1-3.61.09,4.94,4.94,0,0,1-2-.5c-.61-.38-.91-.72-.91-1s.41-.67,1.23-1.11a31.62,31.62,0,0,0,5.62-3.81,42.92,42.92,0,0,0,4.88-4.84,55.87,55.87,0,0,0,4-5.21,36.94,36.94,0,0,0,2.83-4.92,16.38,16.38,0,0,0,1.35-3.93,2.8,2.8,0,0,0-.29-2.3,3.69,3.69,0,0,0-2.62-.94,10.41,10.41,0,0,0-4.1.94,23.54,23.54,0,0,0-5.25,3.2A43.34,43.34,0,0,0,214.29,464.32Z"/><path class="cls-19" d="M237.91,508.28c0,.16.13.27.41.32a4,4,0,0,0,.86.09,8,8,0,0,1,.86,0c.27,0,.41.12.41.28a1.94,1.94,0,0,1-.29,1.19,6.49,6.49,0,0,1-.9,1.31,11.62,11.62,0,0,1-1.11,1.11,2.35,2.35,0,0,1-1.06.58,3.54,3.54,0,0,1-2.14-.45,8.18,8.18,0,0,1-2.33-1.85,9.18,9.18,0,0,1-1.77-3,9,9,0,0,1-.41-4,33.06,33.06,0,0,1,1.23-5.37,74.88,74.88,0,0,1,6.2-14.35,46.92,46.92,0,0,1,4.63-6.85,2.89,2.89,0,0,1,2.34,0,6.71,6.71,0,0,1,2.13,1.43,5.55,5.55,0,0,1,1.35,2.14,2.32,2.32,0,0,1-.08,2c-.22.49-.64,1.42-1.27,2.78s-1.34,2.94-2.13,4.72-1.63,3.66-2.51,5.66-1.65,3.85-2.33,5.57-1.23,3.2-1.64,4.43A4.91,4.91,0,0,0,237.91,508.28Zm11.31-45.92a3.25,3.25,0,0,1,2.42-.33,7.52,7.52,0,0,1,3,1.19,6.42,6.42,0,0,1,2.17,2.33,3.09,3.09,0,0,1-.25,3.12c-.27.38-.68.92-1.23,1.6a17,17,0,0,1-1.92,2A12.61,12.61,0,0,1,251,474a5.24,5.24,0,0,1-2.79.61,3.47,3.47,0,0,1-1.89-.94,3.37,3.37,0,0,1-1-2.09,8,8,0,0,1,.16-2.75,14.42,14.42,0,0,1,.95-2.87,12.43,12.43,0,0,1,1.35-2.33A3.36,3.36,0,0,1,249.22,462.36Z"/><path class="cls-19" d="M277.84,478q.66-.4,1,.12a1,1,0,0,1,0,1.19,13.46,13.46,0,0,1-3,2.67,17.88,17.88,0,0,1-3.32,1.63,17.32,17.32,0,0,1-3.36.87c-1.12.16-2.12.27-3,.32a25.81,25.81,0,0,1,.7,5.54q.12,3.31-.12,7.26t-.82,8.28q-.58,4.35-1.48,8.44t-2.05,7.83a41.74,41.74,0,0,1-2.5,6.44,14.67,14.67,0,0,1-2.91,4.18,3.83,3.83,0,0,1-3.28,1.23,6.18,6.18,0,0,1-2.42-.65,10.28,10.28,0,0,1-2.83-2A12,12,0,0,1,246,528a11.63,11.63,0,0,1-1.06-4.8,25,25,0,0,1,.45-7.05A91.92,91.92,0,0,1,247.83,506q1.63-5.61,4.06-12t5.37-12.71a4.41,4.41,0,0,1-.62-2.59,2.42,2.42,0,0,1,1.19-1.92,2.14,2.14,0,0,1,1.56-.08c1.48-3.12,2.92-6.07,4.35-8.86s2.69-5.25,3.81-7.38,2.05-3.84,2.79-5.13a21.45,21.45,0,0,1,1.27-2.09,2,2,0,0,1,2.05-.37,7.08,7.08,0,0,1,2.46,1.28,9.7,9.7,0,0,1,1.88,1.92c.5.69.63,1.22.41,1.6-.43.77-1,1.86-1.8,3.28s-1.61,3.05-2.54,4.88-1.94,3.81-3,6-2.18,4.29-3.28,6.47a31.65,31.65,0,0,0,3.65.13c1.23,0,2.31-.07,3.24-.13C275.73,478.21,276.8,478.13,277.84,478ZM262.18,489.5c-.6,1.15-1.4,2.84-2.38,5.08s-2,4.69-3,7.34-2,5.39-2.91,8.2-1.69,5.4-2.26,7.75a26,26,0,0,0-.86,5.9c0,1.59.41,2.49,1.23,2.71.27.11.72-.29,1.35-1.19a24.27,24.27,0,0,0,2-3.81q1.11-2.46,2.34-5.91A69.3,69.3,0,0,0,260,508a88.7,88.7,0,0,0,1.6-8.86A73.35,73.35,0,0,0,262.18,489.5Z"/><path class="cls-19" d="M301.37,486.63a11.67,11.67,0,0,1-3.28,6.11,27.52,27.52,0,0,1-5.82,4.51,36.05,36.05,0,0,1-6.31,2.91,23.07,23.07,0,0,1-4.84,1.23,8.61,8.61,0,0,0-.16,3.36,2.53,2.53,0,0,0,1.39,2.21,4.64,4.64,0,0,0,3,0,23.31,23.31,0,0,0,4.23-1.47,36.08,36.08,0,0,0,4.67-2.54q2.37-1.51,4.35-3.08c.82-.76,1.39-1.15,1.72-1.15s.5.21.53.62a4.05,4.05,0,0,1-.25,1.52,14.44,14.44,0,0,1-.53,1.47c-.27.49-.82,1.38-1.64,2.67a20.39,20.39,0,0,1-3.28,3.85,19.16,19.16,0,0,1-4.84,3.28,11.37,11.37,0,0,1-6.39.94,9,9,0,0,1-3.12-.9,12.39,12.39,0,0,1-3.44-2.38,13.15,13.15,0,0,1-2.79-3.89,12.9,12.9,0,0,1-1.23-5.45,23.4,23.4,0,0,1,2.13-9,35.73,35.73,0,0,1,4.72-7.71,26.84,26.84,0,0,1,5.86-5.5,11.87,11.87,0,0,1,5.66-2.25,8.62,8.62,0,0,1,4.59.86,9.45,9.45,0,0,1,3.2,2.63,9.63,9.63,0,0,1,1.72,3.52A8,8,0,0,1,301.37,486.63Zm-5.49-4.43a2,2,0,0,0-2,.08,11.39,11.39,0,0,0-2.58,1.76,31.13,31.13,0,0,0-2.83,2.88,43.28,43.28,0,0,0-2.75,3.48,41.18,41.18,0,0,0-2.21,3.48,17.4,17.4,0,0,0-1.35,2.92,20.17,20.17,0,0,0,5.49-3.2,38.6,38.6,0,0,0,4.88-4.59,21.23,21.23,0,0,0,3.07-4.35C296.29,483.35,296.37,482.53,295.88,482.2Z"/><path class="cls-19" d="M313.84,502.54q-1.72-2.79-3.73-6.11a21.62,21.62,0,0,1-2.75-7.1,9.84,9.84,0,0,1,.49-6,10.59,10.59,0,0,1,3.32-4.18,13.14,13.14,0,0,1,4.88-2.3,13.56,13.56,0,0,1,5.33-.25,4.68,4.68,0,0,1,2.95,1.32,5.36,5.36,0,0,1,1.32,2.5,9.07,9.07,0,0,1,.16,2.95,10.52,10.52,0,0,1-.57,2.58c-.17.28-.67.12-1.52-.45s-1.79-1.19-2.83-1.84a14.93,14.93,0,0,0-3.12-1.52,1.91,1.91,0,0,0-2.37.53q-.82,1.15,1.47,5.41c.49.88,1.11,1.86,1.85,3s1.44,2.21,2.13,3.36a31.55,31.55,0,0,1,1.76,3.4,9,9,0,0,1,.82,3.08,11.67,11.67,0,0,1-1.06,4.83,14,14,0,0,1-7.26,7.18,13.11,13.11,0,0,1-5.37,1.11,10.25,10.25,0,0,1-5.74-1.69,9.74,9.74,0,0,1-3.41-4.05,12.12,12.12,0,0,1-1-5.37,12.32,12.32,0,0,1,1.48-5.54c.6-1.09,1.13-1.61,1.6-1.56s.72.63.77,1.72a7.61,7.61,0,0,0,.91,3.33,17,17,0,0,0,2.25,3.44,12.45,12.45,0,0,0,2.91,2.58,4.65,4.65,0,0,0,3,.82,2.15,2.15,0,0,0,1.92-1.72A4.4,4.4,0,0,0,313.84,502.54Z"/><path class="cls-19" d="M333.52,510.57c.05.17.21.29.49.37s.56.15.86.21l.86.16c.27.06.41.16.41.33a1.57,1.57,0,0,1-.33,1.11,7.57,7.57,0,0,1-1,1.18,7.71,7.71,0,0,1-1.19,1,3.07,3.07,0,0,1-1.11.49,2.8,2.8,0,0,1-1.84-.33,5,5,0,0,1-1.72-1.56,8.19,8.19,0,0,1-1.23-2.74,15.15,15.15,0,0,1-.45-3.9,32.59,32.59,0,0,1,1-6.76,76.32,76.32,0,0,1,2.38-7.87q1.47-4.14,3.48-8.57t4.23-8.86a12.16,12.16,0,0,1-2.14-.57,3.32,3.32,0,0,1-1.51-1,2.77,2.77,0,0,1-.54-1.23,4.11,4.11,0,0,1,0-1.11,5,5,0,0,1,.17-.73c.16-.66,1-1.18,2.42-1.56a30.15,30.15,0,0,1,5.28-.82q2.38-4.42,4.56-7.87a50.67,50.67,0,0,1,3.73-5.33,3,3,0,0,1,2.46.08,7.63,7.63,0,0,1,2.46,1.6,6,6,0,0,1,1.51,2.21,1.62,1.62,0,0,1-.2,1.85,16.33,16.33,0,0,0-1.56,2.33q-1.15,1.94-2.71,4.8c2,0,3.85,0,5.46.08s2.77.08,3.48.08a1.25,1.25,0,0,1,.82.37c.28.25.19.78-.24,1.6a8.42,8.42,0,0,1-2.42,2.87,13.27,13.27,0,0,1-3.4,1.85,19.09,19.09,0,0,1-3.94,1,28.7,28.7,0,0,1-3.94.29q-1.8,3.6-3.73,7.5c-1.28,2.6-2.5,5.15-3.65,7.67s-2.23,4.92-3.24,7.21-1.84,4.35-2.5,6.15-1.13,3.28-1.43,4.43S333.24,510.35,333.52,510.57Z"/><path class="cls-19" d="M373.53,479.08a2.75,2.75,0,0,1,2.26-.61,11.22,11.22,0,0,1,3,.66,9.19,9.19,0,0,1,2.5,1.31c.68.52.92.94.7,1.27a13.71,13.71,0,0,0-1.68,2.79c-.69,1.36-1.55,3.21-2.59,5.53s-2.29,5.13-3.77,8.41-3.28,7.08-5.41,11.39a113,113,0,0,1-8.4,14.35,54.79,54.79,0,0,1-9.52,10.75,25.62,25.62,0,0,1-10.25,5.49,15.43,15.43,0,0,1-10.7-1.31,9.64,9.64,0,0,1-4.75-4.31,5.49,5.49,0,0,1-.17-5,5,5,0,0,1,1.35-1.93,4,4,0,0,1,1.44-.78,1.76,1.76,0,0,1,1.07,0c.27.11.38.25.32.41a7.51,7.51,0,0,0-.86,3.49,6.13,6.13,0,0,0,.78,2.95,5,5,0,0,0,2.13,2,5.89,5.89,0,0,0,3.2.53,12.15,12.15,0,0,0,5.95-2.09,31.55,31.55,0,0,0,6.8-6.07A68.87,68.87,0,0,0,354.18,518a116.78,116.78,0,0,0,7.22-14.63c-.82,1-1.69,2.05-2.59,3s-1.76,1.86-2.58,2.62a27.76,27.76,0,0,1-2.26,1.93,3.79,3.79,0,0,1-1.68.86,5.43,5.43,0,0,1-2.91-.53,9.88,9.88,0,0,1-2.83-2,11,11,0,0,1-2.13-3,7.73,7.73,0,0,1-.74-3.69,14.77,14.77,0,0,1,1.07-5.13,48.23,48.23,0,0,1,2.62-5.74q1.56-2.91,3.37-5.7t3.44-5q1.63-2.17,2.79-3.52c.76-.91,1.23-1.36,1.39-1.36a4.32,4.32,0,0,1,2.38.54,7.42,7.42,0,0,1,2,1.51A6.24,6.24,0,0,1,363.9,480a1.56,1.56,0,0,1,0,1.43c-.55.82-1.25,1.93-2.09,3.32s-1.75,2.91-2.71,4.55-1.9,3.31-2.83,5-1.72,3.24-2.38,4.63a27.75,27.75,0,0,0-1.43,3.57c-.3,1-.29,1.55,0,1.72.33.33,1,.12,2-.62a29.81,29.81,0,0,0,3.65-3.19c1.39-1.4,2.9-3,4.51-4.8s3.16-3.61,4.63-5.41q1.39-2.88,2.46-4.84c.71-1.31,1.31-2.38,1.81-3.2s.88-1.48,1.18-2S373.37,479.36,373.53,479.08Z"/><path class="cls-19" d="M385.18,509c.05.17.21.28.49.33a4,4,0,0,0,.86.08c.3,0,.59,0,.86,0s.41.13.41.29a1.88,1.88,0,0,1-.33,1.19,7.22,7.22,0,0,1-1,1.31,12.25,12.25,0,0,1-1.19,1.11,2.45,2.45,0,0,1-1.11.57,2.7,2.7,0,0,1-1.84-.36,4.93,4.93,0,0,1-1.68-1.69,9.65,9.65,0,0,1-1.19-2.87,12,12,0,0,1-.29-3.93,33.67,33.67,0,0,1,1.6-8q1.43-4.67,3.61-9.88t4.88-10.62q2.7-5.42,5.41-10.17t5.12-8.57a69.72,69.72,0,0,1,4.06-5.86,3,3,0,0,1,2.46.08,8,8,0,0,1,2.46,1.6,6.09,6.09,0,0,1,1.52,2.22,1.6,1.6,0,0,1-.21,1.84,20.16,20.16,0,0,0-1.92,2.87c-1,1.59-2.09,3.57-3.41,5.95s-2.76,5.05-4.34,8-3.15,6-4.68,9.06-3,6.06-4.42,9-2.64,5.57-3.65,7.92a57.61,57.61,0,0,0-2.22,5.82C385,507.84,384.9,508.74,385.18,509Z"/><path class="cls-19" d="M423.14,486.63a11.75,11.75,0,0,1-3.28,6.11,27.52,27.52,0,0,1-5.82,4.51,36.05,36.05,0,0,1-6.31,2.91,23.22,23.22,0,0,1-4.84,1.23,8.61,8.61,0,0,0-.17,3.36,2.55,2.55,0,0,0,1.4,2.21,4.63,4.63,0,0,0,3,0,23.24,23.24,0,0,0,4.22-1.47A36.17,36.17,0,0,0,416,503a52.23,52.23,0,0,0,4.34-3.08c.82-.76,1.4-1.15,1.73-1.15s.5.21.53.62a4.5,4.5,0,0,1-.25,1.52c-.19.6-.37,1.09-.53,1.47s-.82,1.38-1.64,2.67a20.77,20.77,0,0,1-3.28,3.85,19.16,19.16,0,0,1-4.84,3.28,11.4,11.4,0,0,1-6.4.94,9,9,0,0,1-3.11-.9,12.57,12.57,0,0,1-3.45-2.38,13.3,13.3,0,0,1-2.78-3.89,12.9,12.9,0,0,1-1.23-5.45,23.4,23.4,0,0,1,2.13-9,36.09,36.09,0,0,1,4.71-7.71,26.88,26.88,0,0,1,5.87-5.5,11.84,11.84,0,0,1,5.65-2.25,8.68,8.68,0,0,1,4.6.86,9.32,9.32,0,0,1,3.19,2.63,9.5,9.5,0,0,1,1.73,3.52A8,8,0,0,1,423.14,486.63Zm-5.49-4.43a2,2,0,0,0-2,.08A11.39,11.39,0,0,0,413.1,484a29.91,29.91,0,0,0-2.83,2.88,41.16,41.16,0,0,0-2.75,3.48,38.8,38.8,0,0,0-2.21,3.48A18.41,18.41,0,0,0,404,496.8a20.07,20.07,0,0,0,5.5-3.2,39.29,39.29,0,0,0,4.88-4.59,21.62,21.62,0,0,0,3.07-4.35C418.06,483.35,418.14,482.53,417.65,482.2Z"/><path class="cls-2" d="M488.49,464.32a86.36,86.36,0,0,0-7,9.52,131,131,0,0,0-6.68,11.76q-3.15,6.28-5.78,12.88a125.4,125.4,0,0,0-4.35,12.83c2.52-.77,5.09-1.5,7.71-2.21s5.14-1.33,7.55-1.85a63.36,63.36,0,0,1,6.72-1.11,18.27,18.27,0,0,1,5.25.09,12.11,12.11,0,0,1,3.69,1.35,10.4,10.4,0,0,1,2.75,2.25,8,8,0,0,1,1.55,2.87,6.88,6.88,0,0,1,.21,3,3,3,0,0,1-.62,1.1,5.72,5.72,0,0,1-.94.91,2.94,2.94,0,0,1-.94.49A.47.47,0,0,1,497,518a2.1,2.1,0,0,1,0-.9,3.16,3.16,0,0,0,0-1.39,10.41,10.41,0,0,0-5.29-.7,68.42,68.42,0,0,0-8.11,1q-4.56.82-9.6,2c-3.36.77-6.63,1.46-9.8,2.09s-6.07,1.12-8.69,1.48a21,21,0,0,1-6.23.12,2.45,2.45,0,0,1-1.68-1,6.37,6.37,0,0,1-.91-1.85,4.56,4.56,0,0,1-.2-1.72c.06-.49.16-.74.33-.74a11.88,11.88,0,0,0,4.06-.78c2.1-.63,4.66-1.4,7.66-2.33-.11-.44-.22-.87-.32-1.28a12.33,12.33,0,0,1-.29-1.47,12.88,12.88,0,0,1-.08-2.17c0-.88.12-2,.28-3.37a57.93,57.93,0,0,1,2.46-10.57,97.56,97.56,0,0,1,11.44-23.54,79.45,79.45,0,0,1,8.2-10.41,51.4,51.4,0,0,1,9.27-7.87,26.43,26.43,0,0,1,10-4.1,10.81,10.81,0,0,1,5.91.69,11.89,11.89,0,0,1,5,3.77,13.74,13.74,0,0,1,2.62,6.28,15,15,0,0,1-1.19,8.12,28.91,28.91,0,0,1-4,7.05A23.83,23.83,0,0,1,503,479a21.36,21.36,0,0,1-5,2.67,20,20,0,0,1-4.55,1.14,16,16,0,0,1-3.61.09,5,5,0,0,1-2-.5q-.9-.57-.9-1t1.23-1.11a31.55,31.55,0,0,0,5.61-3.81,42.12,42.12,0,0,0,4.88-4.84,55.87,55.87,0,0,0,4-5.21,35.87,35.87,0,0,0,2.83-4.92,16.38,16.38,0,0,0,1.35-3.93,2.76,2.76,0,0,0-.29-2.3,3.69,3.69,0,0,0-2.62-.94,10.44,10.44,0,0,0-4.1.94,23.54,23.54,0,0,0-5.25,3.2A43.89,43.89,0,0,0,488.49,464.32Z"/><path class="cls-2" d="M534.08,486a20.17,20.17,0,0,1-.16,5.7,35.71,35.71,0,0,1-1.6,6.32,33.18,33.18,0,0,1-2.87,6.1,26,26,0,0,1-4,5.21,17.35,17.35,0,0,1-5,3.53,11.35,11.35,0,0,1-5.82,1,8.44,8.44,0,0,1-3-.86,13.12,13.12,0,0,1-3.2-2.13,13.41,13.41,0,0,1-2.58-3.12,7.78,7.78,0,0,1-1.15-3.81,22.33,22.33,0,0,1,.53-6.19,32.44,32.44,0,0,1,1.77-5.49,27.35,27.35,0,0,1,2.33-4.43,24.31,24.31,0,0,1,2.26-3,5.4,5.4,0,0,1,2.54-1.72,7.7,7.7,0,0,0,1.64-.49,24.71,24.71,0,0,1,1.35-2.5,10.68,10.68,0,0,1,1.85-2.26,8.22,8.22,0,0,1,2.46-1.55,6.61,6.61,0,0,1,3.2-.41,8.17,8.17,0,0,1,2.91,1.06,15,15,0,0,1,3,2.3,14.34,14.34,0,0,1,2.46,3.16A7,7,0,0,1,534.08,486Zm-10.66,12.47a44.28,44.28,0,0,0,2.26-5.7,27.37,27.37,0,0,0,1.11-5,11.16,11.16,0,0,0-.13-3.78,2.5,2.5,0,0,0-1.35-1.92,2.58,2.58,0,0,0-2.62.12,7.58,7.58,0,0,0-2.63,2.42,10.63,10.63,0,0,0-1.19,1.88,4.53,4.53,0,0,1-.94,1.4A10.41,10.41,0,0,0,516.5,490a37.62,37.62,0,0,0-1.73,3.48c-.57,1.32-1.1,2.7-1.6,4.15a28.81,28.81,0,0,0-1.1,4.18,12.43,12.43,0,0,0-.21,3.56,2.88,2.88,0,0,0,1.15,2.22,3.28,3.28,0,0,0,2.5,0,8.63,8.63,0,0,0,2.75-1.76,18.47,18.47,0,0,0,2.7-3.16A32.64,32.64,0,0,0,523.42,498.44Z"/><path class="cls-2" d="M561.39,507.29c.05.17.22.29.49.37a4.85,4.85,0,0,0,.86.17l.86.08c.28,0,.41.12.41.28a1.78,1.78,0,0,1-.28,1.15,8.18,8.18,0,0,1-.9,1.27,5.79,5.79,0,0,1-1.15,1,2.91,2.91,0,0,1-1.11.49,2.75,2.75,0,0,1-1.89-.66,7.68,7.68,0,0,1-1.84-2.09,11.08,11.08,0,0,1-1.35-3.28,14.21,14.21,0,0,1-.41-4.14v-.57c-1.59,2.24-3,4.1-4.19,5.57a32.71,32.71,0,0,1-3.19,3.49,11.22,11.22,0,0,1-2.46,1.8,4.41,4.41,0,0,1-2,.54,5.73,5.73,0,0,1-2.5-.66,8.87,8.87,0,0,1-2.5-1.84,10.64,10.64,0,0,1-1.93-2.83,8.33,8.33,0,0,1-.78-3.61,17.53,17.53,0,0,1,.86-4.47,50.93,50.93,0,0,1,2-5.21c.79-1.8,1.68-3.61,2.66-5.41s2-3.5,3-5.08,1.94-3,2.87-4.23a28.57,28.57,0,0,1,2.46-2.91,2,2,0,0,1,1.8.08,5.84,5.84,0,0,1,1.93,1.48,7,7,0,0,1,1.31,2.26,3.42,3.42,0,0,1,0,2.5,25.12,25.12,0,0,1-1.27,2.46q-1,1.8-2.38,4.22c-.9,1.61-1.83,3.31-2.79,5.08s-1.8,3.45-2.54,5a33,33,0,0,0-1.64,4c-.36,1.1-.37,1.75,0,2s.9.12,1.72-.29a14.58,14.58,0,0,0,3.08-2.33,51.53,51.53,0,0,0,4.26-4.64q2.41-2.91,5.29-7.09c1.26-2.19,2.51-4.43,3.77-6.72a55.21,55.21,0,0,1,4-6.32,2.28,2.28,0,0,1,2.25.21,5.91,5.91,0,0,1,1.85,1.84,8.12,8.12,0,0,1,1.06,2.46,2.73,2.73,0,0,1-.16,2.13c-.22.5-.63,1.34-1.23,2.55s-1.27,2.59-2,4.18-1.49,3.24-2.25,5-1.47,3.33-2.09,4.84-1.13,2.8-1.48,3.89A4.18,4.18,0,0,0,561.39,507.29Z"/><path class="cls-2" d="M595.75,507.46c0,.16.22.27.49.32a4,4,0,0,0,.86.09,7.88,7.88,0,0,1,.86,0c.27,0,.41.12.41.28a2.08,2.08,0,0,1-.24,1.19,6.92,6.92,0,0,1-.82,1.32,8.58,8.58,0,0,1-1.07,1.1,2.33,2.33,0,0,1-1.07.58,3.28,3.28,0,0,1-2-.37,6.29,6.29,0,0,1-2.1-1.77,10.57,10.57,0,0,1-1.64-3.15,13.6,13.6,0,0,1-.57-4.72,18.4,18.4,0,0,1,2-7.09q1.88-4.06,4.43-9.23-1.39,1.23-3.69,3.45a60.88,60.88,0,0,0-4.84,5.29,80,80,0,0,0-5.09,6.93,46.5,46.5,0,0,0-4.34,8.36,4.13,4.13,0,0,1-.25,1.11q-.24.78-1.47.78a3.91,3.91,0,0,1-2-1,13.1,13.1,0,0,1-2.05-2.09,11.45,11.45,0,0,1-1.52-2.46,4.6,4.6,0,0,1-.49-2.25,21.66,21.66,0,0,1,.94-4.51,55.53,55.53,0,0,1,1.93-5.29c.76-1.83,1.61-3.67,2.54-5.5s1.86-3.56,2.79-5.2,1.8-3.11,2.62-4.39a28.15,28.15,0,0,1,2.13-3c.22-.22.7-.21,1.44,0a8.19,8.19,0,0,1,2.25,1.19,9.71,9.71,0,0,1,1.93,1.76,1.76,1.76,0,0,1,.53,1.68,13.9,13.9,0,0,1-.78,1.68c-.41.79-.88,1.68-1.43,2.67s-1.11,2.05-1.68,3.19-1.11,2.27-1.6,3.37a67.07,67.07,0,0,1,5.12-5.38c1.89-1.77,3.71-3.36,5.46-4.75s3.32-2.54,4.71-3.45a11.86,11.86,0,0,1,2.83-1.51,3.71,3.71,0,0,1,2.42,1.06,5.67,5.67,0,0,1,1.93,2.63,4.15,4.15,0,0,1,.41,3.2c-.22.49-.65,1.38-1.27,2.66s-1.34,2.76-2.14,4.43-1.61,3.42-2.46,5.25-1.61,3.55-2.29,5.16-1.23,3-1.64,4.14A4.39,4.39,0,0,0,595.75,507.46Z"/><path class="cls-2" d="M641.83,472a1,1,0,0,1,1.07-.57c.43.05.63.32.57.82a14.63,14.63,0,0,1-1.39,5.41,18.83,18.83,0,0,1-2.54,3.89,16.08,16.08,0,0,1-2.79,2.59,14.88,14.88,0,0,1-2.13,1.31,5.29,5.29,0,0,1-1.32.41,19.29,19.29,0,0,1-.9,8,26.44,26.44,0,0,1-3.61,7.34,21.64,21.64,0,0,1-5.2,5.29,9.05,9.05,0,0,1-5.78,1.89,6.46,6.46,0,0,1-1.85-.12,12,12,0,0,1-1.93-.62,11.76,11.76,0,0,0-1.8,1.89,15,15,0,0,0-1.8,3.19,35.67,35.67,0,0,1,7.05-1.64,19.41,19.41,0,0,1,8.12.58,10.78,10.78,0,0,1,2.87,2.13,12.85,12.85,0,0,1,1.88,2.58,13.06,13.06,0,0,1,1.11,2.67,13.47,13.47,0,0,1,.45,2.29,9.39,9.39,0,0,1-1.64,5.21,20.07,20.07,0,0,1-4.31,4.63,28.84,28.84,0,0,1-6,3.69,36,36,0,0,1-6.81,2.38,28.5,28.5,0,0,1-6.64.82,12.67,12.67,0,0,1-5.58-1.15,8.22,8.22,0,0,1-3.44-3.23,8.79,8.79,0,0,1-1.31-5.29,5.13,5.13,0,0,1,1-2.55,12.27,12.27,0,0,1,2.3-2.46,16.72,16.72,0,0,1,3.11-2,16.09,16.09,0,0,1,3.45-1.28,5.38,5.38,0,0,1-1.68-1.84,8.13,8.13,0,0,1-.78-1.76,4.46,4.46,0,0,1,0-2.75,10.83,10.83,0,0,1,1.43-2.87,17.63,17.63,0,0,1,2.42-2.79,33.67,33.67,0,0,1,3-2.5,9.38,9.38,0,0,1-1.93-2,7.2,7.2,0,0,1-1.11-2.42,12,12,0,0,1-.12-5,24.85,24.85,0,0,1,1.6-5.53,31.72,31.72,0,0,1,2.87-5.42,28.15,28.15,0,0,1,3.77-4.63,19.6,19.6,0,0,1,4.22-3.2,9,9,0,0,1,4.31-1.19,16.22,16.22,0,0,1,4.51.62,8.4,8.4,0,0,1,3.52,1.93,2.29,2.29,0,0,0,.17.28c0,.09.11.18.16.29a18.27,18.27,0,0,0,3.36-2.09c1.1-.85,2.11-1.65,3-2.42C639.83,473.89,640.85,472.93,641.83,472Zm-33,49.12a42.71,42.71,0,0,0-3.94,3.77,36.23,36.23,0,0,0-2.54,3.16,3,3,0,0,0-.82,2.58,6,6,0,0,0,3.69.45,28.8,28.8,0,0,0,5.41-1.23,48.7,48.7,0,0,0,6-2.38,40.71,40.71,0,0,0,5.41-3,18.14,18.14,0,0,0,3.69-3.16c.87-1,1.15-2,.82-2.79s-1.15-1.2-2.46-1.14a24.21,24.21,0,0,0-4.64.73c-1.77.44-3.62,1-5.53,1.56S610.26,520.68,608.79,521.07Zm7.54-18.21a3.35,3.35,0,0,0,3.69-.73,18.58,18.58,0,0,0,3.81-4.35,41.73,41.73,0,0,0,3.32-6.11,60.51,60.51,0,0,0,2.38-6.11,8.11,8.11,0,0,1-2.29-1.1,4.84,4.84,0,0,1-1.48-1.6,24.26,24.26,0,0,0-5.17,5.28,34.55,34.55,0,0,0-3.65,6.24,18.49,18.49,0,0,0-1.59,5.49C615.18,501.48,615.51,502.48,616.33,502.86Z"/><path class="cls-2" d="M664.46,486.63a11.67,11.67,0,0,1-3.28,6.11,27.52,27.52,0,0,1-5.82,4.51,36.05,36.05,0,0,1-6.31,2.91,23.07,23.07,0,0,1-4.84,1.23,8.61,8.61,0,0,0-.16,3.36,2.53,2.53,0,0,0,1.39,2.21,4.64,4.64,0,0,0,3,0,23.31,23.31,0,0,0,4.23-1.47,36.08,36.08,0,0,0,4.67-2.54q2.37-1.51,4.35-3.08c.82-.76,1.39-1.15,1.72-1.15s.5.21.53.62a4.05,4.05,0,0,1-.25,1.52,14.44,14.44,0,0,1-.53,1.47c-.27.49-.82,1.38-1.64,2.67a20.39,20.39,0,0,1-3.28,3.85,19.16,19.16,0,0,1-4.84,3.28,11.37,11.37,0,0,1-6.39.94,9,9,0,0,1-3.12-.9,12.39,12.39,0,0,1-3.44-2.38,13.15,13.15,0,0,1-2.79-3.89,12.9,12.9,0,0,1-1.23-5.45,23.4,23.4,0,0,1,2.13-9,35.73,35.73,0,0,1,4.72-7.71,26.84,26.84,0,0,1,5.86-5.5,11.87,11.87,0,0,1,5.66-2.25,8.62,8.62,0,0,1,4.59.86,9.45,9.45,0,0,1,3.2,2.63,9.63,9.63,0,0,1,1.72,3.52A8,8,0,0,1,664.46,486.63ZM659,482.2a2,2,0,0,0-2,.08,11.39,11.39,0,0,0-2.58,1.76,31.13,31.13,0,0,0-2.83,2.88,43.28,43.28,0,0,0-2.75,3.48,41.18,41.18,0,0,0-2.21,3.48,17.4,17.4,0,0,0-1.35,2.92,20.17,20.17,0,0,0,5.49-3.2,38.6,38.6,0,0,0,4.88-4.59,21.23,21.23,0,0,0,3.07-4.35C659.38,483.35,659.46,482.53,659,482.2Z"/><path class="cls-2" d="M555.22,367.75,568.58,363a3.59,3.59,0,0,0,2.17-4.59L568.13,351l-3.62,4.7-8.24-6.14L554,359.48l-5.91-.91,2.51,7A3.59,3.59,0,0,0,555.22,367.75Z"/><g class="cls-20"><path class="cls-2" d="M503.33,20.24C350.75-22,209.53,57.81,155.44,183.86c-18.54,35.66-23.29,97.46-23.29,97.46s23.64-52.78,71.4-100.24c7.81-7.75,30.23-34.62,65.45-47.26l.06.36a121,121,0,0,0,4.77,17.17,75.09,75.09,0,0,0,8,15.52,71.85,71.85,0,0,1-2.34-16.63,112.35,112.35,0,0,1,1.11-16.45c.67-4.49,1.56-8.92,2.63-13.29,5.34-12.58,16.14-33.79,32.18-45.34,23.77-17.11,35.42-18.06,41.36-12.83s7.13,23.29,5.7,39.21a157.84,157.84,0,0,1-2.58,17.37c-1.22,4.63-2.65,9.22-4.33,13.74a113.58,113.58,0,0,1-7,14.94A72.43,72.43,0,0,1,338.51,161,75.63,75.63,0,0,0,353,151.3a122,122,0,0,0,12.46-12.74c2.13-2.55,4.16-5.18,6.13-7.87,8.92.32,20.18,1.41,28.67,4.61,16.4,6.18,31.61,12.59,57,33,0,0-5-6.85-9.89-13.35-5.2-6.87-5.32-14.93-2.23-22.3s21.39-41.12,55.86-41.83c0,0,10,8.08,7.84,27.81s-8.32,33.27-15,42.54c-2.83,3.94-6.3,8.52-9.36,12.49A13.11,13.11,0,0,0,486,191.22c8,7.59,22.35,20.85,26.41,31.74,0,0-4.2,20.72-22.27,45.2S453,301,453,301s40.48-4.61,66.08-37.56c25-32.17,54.15-65.13,51.82-150.22,0,0,18.69,23.14,18.06,86.2s-6,82.4-6.65,91.28,5.07,18.38,3.48,33.91c-1.14,11.16-2.44,26.43-3.08,34.12a10.08,10.08,0,0,0,3.14,8.19l12.48,11.73a20.11,20.11,0,0,1,4.7,22.61l-20.95,48.68a27.82,27.82,0,0,1-16.93,15.46c-21.69,7.05-69.61,20.52-119.44,20.52-67.5,0-99.83-17.75-123.28-34.23,0,0,19,26.3,76.38,43.1,21.63,6.34,48.68,9.43,74,10.82,24.45,1.34,29.38,35.32,6.28,43.49a173.62,173.62,0,0,1-50.15,10c-71.31,3.16-107.76-.64-177.79-39.3-26.51-14.64-48.11-34.54-64.73-53.62A288.42,288.42,0,0,0,421,586.43c184.83,0,329.1-173.64,278.6-366.69C674.3,123.21,599.5,46.87,503.33,20.24Z"/><path class="cls-2" d="M517.9,424.36s20-28.09-5.33-34.38c-20.28-5-57.23,33.28-57.23,33.28S512,393.15,517.9,424.36Z"/><path class="cls-2" d="M322.51,287.39s-3.69,23.39,7.39,33.24,33.24,6.16,39.4,1.23C369.3,321.86,339.82,317.87,322.51,287.39Z"/></g></g></g></svg>