<svg id="Layer_1" data-name="Layer 1" xmlns="http://www.w3.org/2000/svg" viewBox="0 0 841.89 595.28"><defs><style>.cls-1{opacity:0.05;}.cls-2{fill:#010101;}</style></defs><g class="cls-1"><path class="cls-2" d="M503.33,20.24C350.75-22,209.53,57.81,155.44,183.86c-18.54,35.66-23.29,97.46-23.29,97.46s23.64-52.78,71.4-100.24c7.81-7.75,30.23-34.62,65.45-47.26l.06.36a121,121,0,0,0,4.77,17.17,75.09,75.09,0,0,0,8,15.52,71.85,71.85,0,0,1-2.34-16.63,112.35,112.35,0,0,1,1.11-16.45c.67-4.49,1.56-8.92,2.63-13.29,5.34-12.58,16.14-33.79,32.18-45.34,23.77-17.11,35.42-18.06,41.36-12.83s7.13,23.29,5.7,39.21a157.84,157.84,0,0,1-2.58,17.37c-1.22,4.63-2.65,9.22-4.33,13.74a113.58,113.58,0,0,1-7,14.94A72.43,72.43,0,0,1,338.51,161,75.63,75.63,0,0,0,353,151.3a122,122,0,0,0,12.46-12.74c2.13-2.55,4.16-5.18,6.13-7.87,8.92.32,20.18,1.41,28.67,4.61,16.4,6.18,31.61,12.59,57,33,0,0-5-6.85-9.89-13.35-5.2-6.87-5.32-14.93-2.23-22.3s21.39-41.12,55.86-41.83c0,0,10,8.08,7.84,27.81s-8.32,33.27-15,42.54c-2.83,3.94-6.3,8.52-9.36,12.49A13.11,13.11,0,0,0,486,191.22c8,7.59,22.35,20.85,26.41,31.74,0,0-4.2,20.72-22.27,45.2S453,301,453,301s40.48-4.61,66.08-37.56c25-32.17,54.15-65.13,51.82-150.22,0,0,18.69,23.14,18.06,86.2s-6,82.4-6.65,91.28,5.07,18.38,3.48,33.91c-1.14,11.16-2.44,26.43-3.08,34.12a10.08,10.08,0,0,0,3.14,8.19l12.48,11.73a20.11,20.11,0,0,1,4.7,22.61l-20.95,48.68a27.82,27.82,0,0,1-16.93,15.46c-21.69,7.05-69.61,20.52-119.44,20.52-67.5,0-99.83-17.75-123.28-34.23,0,0,19,26.3,76.38,43.1,21.63,6.34,48.68,9.43,74,10.82,24.45,1.34,29.38,35.32,6.28,43.49a173.62,173.62,0,0,1-50.15,10c-71.31,3.16-107.76-.64-177.79-39.3-26.51-14.64-48.11-34.54-64.73-53.62A288.42,288.42,0,0,0,421,586.43c184.83,0,329.1-173.64,278.6-366.69C674.3,123.21,599.5,46.87,503.33,20.24Z"/><path class="cls-2" d="M517.9,424.36s20-28.09-5.33-34.38c-20.28-5-57.23,33.28-57.23,33.28S512,393.15,517.9,424.36Z"/><path class="cls-2" d="M322.51,287.39s-3.69,23.39,7.39,33.24,33.24,6.16,39.4,1.23C369.3,321.86,339.82,317.87,322.51,287.39Z"/></g><path class="cls-2" d="M441.22,277.49c.41-4.57,1.36-15.52,1.36-19.33,0-4.87-.7-10.66-3.71-14.36s-3.24-7.19-6.49-3.94-4.63,5.56-6.48,6-5.1-.23-8.34,1.85-3.25,3.25-.93,6,5.79,3.24,6.49,8.8c.63,5.09.36,14.41.31,18.26C428.88,279.68,434.79,278.43,441.22,277.49Z"/><path class="cls-2" d="M383.38,206.15c-5.41,7.57-6.83,21.92.35,27.94s15.32,12,21.58,6.95c0,0-1.35,4.14-4.13,4.84,0,0,9.61,4.1,13.32-.24,2.35-2.75,6.07-3.23,9.08-4.62s6-3,5.33-6.26-1.39-4.63-1.62-7.18-3-4.63-7.42-6.49-5.79,3.48-11.81,4.4a28.43,28.43,0,0,0,7.18-8.34c2.78-5.09,2.32-5.56,4.17-7.41s4.39-7.86,2.09-12.72a96.11,96.11,0,0,0-25.58-1.51A36.78,36.78,0,0,0,383.38,206.15Z"/><path class="cls-2" d="M416.09,264.51c0-2.88-1.08-7.05-4.09-8.9s-6-1.85-11.12-2.78A24.89,24.89,0,0,1,389.29,247c-2.78-2.32-5.09-7.18-6.71-6s-3,3-3,8.8-1.15,8.57.93,11.81a14.61,14.61,0,0,1,2.78,8.81c0,2.58-.1,9.74-.14,12.56,11.8,1.06,24.51.79,33-.74C416.12,278.47,416.09,266.91,416.09,264.51Z"/><path class="cls-2" d="M352.23,248.89c3.7-2.08,7.87-8.34,8.57-11.81a17.66,17.66,0,0,0-.7-7.65s5.1,6.72,9,5.33,4.17-6.25,4.4-11.12a33.69,33.69,0,0,1,4.4-14.59c2.23-3.57,4.1-10.63,4.24-11.17-9.81,2.7-17.47,7.2-22.54,12.39-7.47,7.67-14.57,16.07-14.57,34.26,0,0,0,.17,0,.47C345.92,246.31,349.06,250.67,352.23,248.89Z"/><path class="cls-2" d="M475.7,258.39c-.46-3.24-3-7.88-6.48-10.66s-4.17-1.15-9.27-2.54-10.19-3.94-11.81-3.94-4.64-.7-3,2.78,3.48,4.17,3.25,13.2c-.18,6.94.1,15.69.24,19.38a113.4,113.4,0,0,1,18.8-.22c2.67.2,5.15.26,7.44.21C475.18,272.66,476.09,261.07,475.7,258.39Z"/><path class="cls-2" d="M376.09,264.41c0-2.78-1.62-3.7-1.39-9s3-13.44-1.39-14.36-6.49-1.16-9.5,2.78-6.95,7.41-7.18,14.13c-.21,6,1.39,14,1.74,19.33a29,29,0,0,0,5.59,2.37,82.09,82.09,0,0,0,11.66,2.48C375.74,278.43,376.09,266.75,376.09,264.41Z"/><path class="cls-2" d="M482.89,241.94c-5.1-2.55-9.27-2.78-13.44-6.25s-12.05-4.64-12.05-4.64,6-1.62,8.81-.92,6.48-.93,2.78-3-5.33-7-5.33-10.89c0,0,3,6.72,6.72,7.64,3.08.77,6.2-3.9,7.56-5.21h0s.21-.21.47-.44c-12.73-8.46-28.15-13.76-47.52-19-1.83-.5-3.64-.94-5.42-1.34.07.38,1.07,6-.72,10.74-1.86,4.87-3.94,7.42-2.09,8.81s7.65.69,10,2.31,5.1,1.39,7.65,1.39,4.4,3.25,4.4,3.25a10.51,10.51,0,0,0-8.11-.93c-4.4,1.39-5.09,6.25-3.7,7.64s6.48,5.33,11.81,4.87,10.66,2.32,14.83,4.17,6.95.46,9.5,3.24,5.32,7.18,10,10,10,1.39,10.65-1.62S488,244.49,482.89,241.94Z"/><path class="cls-2" d="M489.83,227.45a68,68,0,0,0-6.21-5.46c-.21-.17-.42-.32-.63-.48l-.2.13c-1.12.85-8.05,6.16-8.48,8.72-.46,2.78,2.78,3.71,6,2.55s6-5,9.49-5.46Z"/><path class="cls-2" d="M499.47,244c-.54-2.95-1.89-8.1-8-14.76h0s-4.19,1.86-4.19,4.41.69,4.17,3.7,7,4.17,4.17,3.94,7.42,2.59,3.75,5,.06A38.45,38.45,0,0,0,499.47,244Z"/><path class="cls-2" d="M497,268.94c.12-.15.21-.3.31-.44l.26-.36q.15-.25.27-.51c0-.09.11-.19.15-.28a4.93,4.93,0,0,0,.28-.75c.09-.34.18-.7.26-1.07,0-.11,0-.23.08-.34.06-.29.12-.58.17-.88,0-.12,0-.23.07-.36.07-.41.14-.83.2-1.26,0,0,0-.06,0-.09.06-.41.12-.84.17-1.27,0-.14,0-.29.05-.44,0-.33.07-.67.1-1,0-.14,0-.29.05-.44l.12-1.42a1.7,1.7,0,0,1,0-.22c0-.41.06-.83.08-1.24l0-.53c0-.29,0-.58,0-.88-2.68,3-9.39,4.75-15.89,3.64-1-.17-1.86.85-1.94,1.88L480.74,276c.54-.07,1.07-.15,1.58-.24l.79-.13,1.48-.3.73-.17c.46-.11.91-.23,1.34-.35l.68-.2c.42-.12.82-.26,1.22-.39l.62-.23,1.09-.42.58-.26c.33-.14.65-.29.95-.45l.54-.28c.28-.15.57-.3.83-.46l.49-.31c.24-.16.49-.31.71-.47l.45-.33.59-.46.4-.37.47-.44c.14-.14.25-.27.37-.4Z"/><path class="cls-2" d="M541.13,226.49a63.15,63.15,0,0,1,.19,8c5.21,7.09,8.06,14.74,8.06,22.73a34.79,34.79,0,0,1-2.56,12.95l-10.85-15c-.54,1-1.12,1.93-1.72,2.85l10.06,16.88H524.7l-2.83-5a39.33,39.33,0,0,1-3.86,2l1.45,3H509l-4.46,1a19.38,19.38,0,0,1-2.58,2.77h19.31l7,14.34a107.18,107.18,0,0,1-17.77,10.93l-9.94-24.11a27.93,27.93,0,0,1-3.81,2.36l7.87,22.28H483.79l-5-17.83c-1.56.11-3.19.17-4.91.17h0l-.91,0,3.88,17.68H453.14l-2.7-17.81c-1.85.15-3.66.34-5.43.56l1.64,17.25H422.32L422,291.36l-5.22,1-.33,12H393.09l1-10.44c-1.83,0-3.64-.07-5.44-.14L387,304.44H363.89l2.87-13c-1.89-.38-3.68-.79-5.34-1.24l-4,14.28h-23l8-22.57-.83.1c-1.28.14-2.47.23-3.64.26h-.46l-9,21.78a107.22,107.22,0,0,1-17.78-10.9L317.55,279a38,38,0,0,1-7.65-4.07H294.17c-.05-.1-.1-.2-.16-.3l6-10c-.44-.7-.87-1.41-1.27-2.14-.22-.4-.42-.81-.62-1.21l-6.35,8.43a34.5,34.5,0,0,1-2.38-12.49,35.52,35.52,0,0,1,3.92-16,64.88,64.88,0,0,1,.51-10.14c-6.18,8.18-9.42,17-9.42,26.14a39.8,39.8,0,0,0,3.42,16c.37,3.12,1.13,7.7,2.61,14.4,4.23,19.21,17.09,36.3,23.93,40.53s15-1.46,16.28-2.77a64.8,64.8,0,0,0,4.6-6.61s25.51,11.17,54.32,14.1a278.12,278.12,0,0,0,67.23-1.79c13.51-1.95,37.77-8,41.84-9.93s5-2.38,5-2.38.52,2.71,5.89,6.94,10.42,5.05,16.45.33a60.21,60.21,0,0,0,17.58-23.93,123.78,123.78,0,0,0,7.46-29,39.79,39.79,0,0,0,3.38-15.91C554.37,246.35,549.8,235.92,541.13,226.49ZM312.19,278.64l-6.05,10.75a60.13,60.13,0,0,1-9.63-10.75Zm185.65,30.79c-3.69,1.42-7.55,2.74-11.54,3.95l-1.11-3.95Zm-50.71,0,1.12,11.7a254.54,254.54,0,0,1-25.42,1.61l-.37-13.31Zm-84.34,0h23.49l-1.67,10.95a219.68,219.68,0,0,1-23.23-4.51Zm-6.79,0-1.3,4.63q-7.2-2.08-13.81-4.63Zm35.48,11.81,1.13-11.81h23.66l-.36,13.31C407.55,322.63,399.38,322.11,391.48,321.24Zm64.06-1.06-1.64-10.75h24l1.3,6A217.34,217.34,0,0,1,455.54,320.18Zm71.27-41.54h15.42a60.45,60.45,0,0,1-9.46,10.59Z"/><path class="cls-2" d="M524.47,189.08c5.11,21.73.1,28-10.23,36.42C532.77,198,498.91,184.61,532.77,152c-18.37,2.75-33.35,12.56-44.4,25.3-5-37.44-22.52-74.61-39.33-87.61,18.7,34.51,13.66,67.58-5,79.81,12.94-48.18-6.48-89.16-53.93-115,39.55,53.2-18.69,56.8-17.33,119.56-.29-21.7-13.58-27.53-4.95-59.89-14.48,22.26-23.6,42.27-28.31,60a103.45,103.45,0,0,0-14.63-16.57c21.07,45.15-11.35,46.83-2.14,75.88-9.33-9.85-12.91-19-6.76-41.53-24.25,37.95-18.31,80.38,23,79.16,1.06,0,2.07-.11,3.05-.22a32.94,32.94,0,0,1-2.32-4.18,58.28,58.28,0,0,1-2.54-6.76s-11.89-1.15-18.42-16.55c4.69,5.2,10.15,8.15,15.65,7.24,0,0-.17-7,.47-14.63s2.94-11,2.94-11a22.4,22.4,0,0,1,.31-15.32c2.64-6.5,3.5-15.25,1.27-22.55,2.07,2.7,4.77,7,5.08,14.92a112.61,112.61,0,0,1-.11,11.48,68.28,68.28,0,0,1,8.86-11.1c-.74-4.07-3.93-24.64,3.32-46.11,0,0,.64,9.85,3.82,15.72a65.7,65.7,0,0,1,6.13,20.38,69.84,69.84,0,0,1,21.41-7l.56-.09c4.11-52.46,33.43-42.48,32.24-76.31,13.23,26.68,8.09,54.14-2.32,76.38,2.13.32,4.14.68,4.14.68q5.4,1,10.91,2.48c8,2.18,15.73,4.37,23,6.89,7.17-4.53,13.4-11.37,14.88-27.35a183,183,0,0,1,4.06,35.29,95,95,0,0,1,11.45,6.93c5.86-6.36,10.62-13,11.86-20,1.56,16.39,2.19,25.85,1.92,32.4,4.75,5.63,7.66,11.4,8.72,17.25a34.81,34.81,0,0,1,.39,3.52,23.91,23.91,0,0,0,14.74-10.33c-1.42,7.67-7.11,13.73-14.59,18.05a79.34,79.34,0,0,1-1.2,12.67C535.44,258,544.7,228,524.47,189.08Z"/><path class="cls-2" d="M86.54,437.74V375h38.31v10.38H98.19v16.29H119.3v10.37H98.19v25.66Z"/><path class="cls-2" d="M135.14,437.74V375h11.65v52.33H171v10.37Z"/><path class="cls-2" d="M220.59,437.74l-5.74-15.19H191.47l-5.74,15.19H173.36L196.83,375h12.56l23.48,62.7Zm-17.48-49.32-7.73,23.93H211Z"/><path class="cls-2" d="M231.51,375h12.1l12.19,43.68L268,375h12.1l-19,62.7H250.62Z"/><path class="cls-2" d="M284.56,406.53a31.4,31.4,0,0,1,9.19-22.79,31.8,31.8,0,0,1,45.18,0,32.58,32.58,0,0,1,0,45.5,31.71,31.71,0,0,1-45.09,0A31.26,31.26,0,0,1,284.56,406.53ZM302,391.83a21.28,21.28,0,0,0,0,29.35,20.09,20.09,0,0,0,28.66,0,21.28,21.28,0,0,0,0-29.35,20,20,0,0,0-28.66,0Z"/><path class="cls-2" d="M374.74,424.28a11.89,11.89,0,0,0,8.46,3.36,12,12,0,0,0,8.51-3.36,11.33,11.33,0,0,0,3.6-8.65V375H407v40.59q0,10.2-7,16.61a25.31,25.31,0,0,1-33.67,0q-7-6.42-7-16.61V375h11.83v40.59A11.39,11.39,0,0,0,374.74,424.28Z"/><path class="cls-2" d="M451.18,415l16,22.75h-14l-14.74-22.29h-4.82v22.29H422V375h25.12q9.74,0,14.87,6a22.45,22.45,0,0,1,1.1,27.17Q459,413.72,451.18,415Zm-4.64-29.57H433.62v19.65h12.56a7.82,7.82,0,0,0,6.55-2.91,10.78,10.78,0,0,0,2.27-6.82,11.54,11.54,0,0,0-2.18-6.87A7.24,7.24,0,0,0,446.54,385.42Z"/><path class="cls-2" d="M520.34,406.17l29.48,31.57H534.63l-20.93-23.2v23.2H502V375H513.7v22.85L530.53,375h13.65Z"/><path class="cls-2" d="M556.37,437.74V375h11.56v62.7Z"/><path class="cls-2" d="M630,375v62.7H619.35l-24.21-41.22v41.22H583.58V375h10.83l23.93,40.77V375Z"/><path class="cls-2" d="M696.51,383.87,688,391.33a19.7,19.7,0,0,0-28.62.14,22.32,22.32,0,0,0,0,30.17,19,19,0,0,0,14.42,6.27,19.54,19.54,0,0,0,11.7-3.63,11.61,11.61,0,0,0,5.23-9.38h-17.2v-9.55h30.58q0,16.65-8.15,25t-22.16,8.32a30.65,30.65,0,0,1-22.66-9.41,32.53,32.53,0,0,1,0-45.5,30.62,30.62,0,0,1,22.66-9.42Q687.59,374.32,696.51,383.87Z"/><path class="cls-2" d="M710.8,419.45h11.65a8.69,8.69,0,0,0,3.09,6.24,11.24,11.24,0,0,0,7.74,2.59,11.85,11.85,0,0,0,7.37-2.14,7,7,0,0,0,3-5.41,6.4,6.4,0,0,0-2-5.19,15.36,15.36,0,0,0-6.68-3.37l-7.74-2q-15.84-4.64-15.83-17.47a16.46,16.46,0,0,1,6.14-13.24,22.51,22.51,0,0,1,15-5.14q9.11,0,15,5.14t5.87,13.78H741.74a7.6,7.6,0,0,0-2.5-6,10,10,0,0,0-6.87-2.23,10.74,10.74,0,0,0-6.69,2.05,6.41,6.41,0,0,0-2.69,5.33q0,5.18,7.47,7.18l7.73,2.28q9.73,2.64,13.65,7.73A17.62,17.62,0,0,1,748.61,434a24.74,24.74,0,0,1-15.33,4.77q-9.93,0-16.2-5.55A17.6,17.6,0,0,1,710.8,419.45Z"/><path class="cls-2" d="M214.29,464.27a86.18,86.18,0,0,0-7,9.51,128.62,128.62,0,0,0-6.68,11.76q-3.16,6.29-5.78,12.88a125.4,125.4,0,0,0-4.35,12.83q3.78-1.14,7.71-2.21c2.62-.71,5.14-1.33,7.54-1.85a63.94,63.94,0,0,1,6.73-1.11,18.29,18.29,0,0,1,5.25.09,12.11,12.11,0,0,1,3.69,1.35,10.19,10.19,0,0,1,2.74,2.26,7.69,7.69,0,0,1,1.56,2.87,6.83,6.83,0,0,1,.21,3,3.1,3.1,0,0,1-.62,1.11,6.08,6.08,0,0,1-.94.9,3,3,0,0,1-.95.49.45.45,0,0,1-.61-.29c-.06,0,0-.35,0-.9a3.32,3.32,0,0,0,0-1.39,10.41,10.41,0,0,0-5.29-.7,68.76,68.76,0,0,0-8.12,1c-3,.54-6.23,1.2-9.59,2s-6.63,1.47-9.8,2.09-6.07,1.12-8.69,1.48a20.66,20.66,0,0,1-6.23.12,2.45,2.45,0,0,1-1.69-1,6.1,6.1,0,0,1-.9-1.85,4.36,4.36,0,0,1-.2-1.72c.05-.49.16-.74.33-.74a11.8,11.8,0,0,0,4.05-.78c2.11-.62,4.66-1.4,7.67-2.33-.11-.44-.22-.86-.33-1.27a12.65,12.65,0,0,1-.37-3.65c0-.88.13-2,.29-3.36a56.4,56.4,0,0,1,2.46-10.58,94.71,94.71,0,0,1,4.76-11.81,97,97,0,0,1,6.68-11.73,80.12,80.12,0,0,1,8.2-10.41,50.72,50.72,0,0,1,9.27-7.87,26.59,26.59,0,0,1,10-4.1,10.77,10.77,0,0,1,5.9.69,11.77,11.77,0,0,1,5,3.78,13.67,13.67,0,0,1,2.63,6.27,15,15,0,0,1-1.19,8.12,28.72,28.72,0,0,1-4,7,23.61,23.61,0,0,1-4.8,4.63,21.16,21.16,0,0,1-5,2.67,20.51,20.51,0,0,1-4.55,1.15,16.55,16.55,0,0,1-3.61.08,5.16,5.16,0,0,1-2-.49c-.61-.39-.91-.73-.91-1s.41-.67,1.23-1.11a31.09,31.09,0,0,0,5.62-3.81,42.92,42.92,0,0,0,4.88-4.84,55.76,55.76,0,0,0,4-5.2,38.24,38.24,0,0,0,2.83-4.92,16.44,16.44,0,0,0,1.35-3.94,2.8,2.8,0,0,0-.29-2.3,3.69,3.69,0,0,0-2.62-.94,10.41,10.41,0,0,0-4.1.94,23.92,23.92,0,0,0-5.25,3.2A43.47,43.47,0,0,0,214.29,464.27Z"/><path class="cls-2" d="M237.91,508.22c0,.16.13.27.41.32a4,4,0,0,0,.86.09,8,8,0,0,1,.86,0c.27,0,.41.12.41.28a1.94,1.94,0,0,1-.29,1.19,6.85,6.85,0,0,1-.9,1.32,10.44,10.44,0,0,1-1.11,1.1,2.35,2.35,0,0,1-1.06.58,3.47,3.47,0,0,1-2.14-.45,8,8,0,0,1-2.33-1.85,9.18,9.18,0,0,1-1.77-3,9,9,0,0,1-.41-4,33.06,33.06,0,0,1,1.23-5.37,74.88,74.88,0,0,1,6.2-14.35,46.92,46.92,0,0,1,4.63-6.85,2.89,2.89,0,0,1,2.34,0,6.58,6.58,0,0,1,2.13,1.44,5.51,5.51,0,0,1,1.35,2.13,2.32,2.32,0,0,1-.08,2c-.22.49-.64,1.42-1.27,2.78s-1.34,2.94-2.13,4.72-1.63,3.66-2.51,5.66-1.65,3.85-2.33,5.57-1.23,3.2-1.64,4.43A4.91,4.91,0,0,0,237.91,508.22Zm11.31-45.92a3.35,3.35,0,0,1,2.42-.33,7.52,7.52,0,0,1,3,1.19,6.42,6.42,0,0,1,2.17,2.33,3.09,3.09,0,0,1-.25,3.12c-.27.38-.68.92-1.23,1.6a17,17,0,0,1-1.92,2A12.61,12.61,0,0,1,251,473.9a5.24,5.24,0,0,1-2.79.62,3.49,3.49,0,0,1-1.89-.95,3.37,3.37,0,0,1-1-2.09,8,8,0,0,1,.16-2.75,14.42,14.42,0,0,1,.95-2.87,12.43,12.43,0,0,1,1.35-2.33A3.36,3.36,0,0,1,249.22,462.3Z"/><path class="cls-2" d="M277.84,478q.66-.4,1,.12a1,1,0,0,1,0,1.19,13.22,13.22,0,0,1-3,2.67,17.94,17.94,0,0,1-3.32,1.64,17.29,17.29,0,0,1-3.36.86q-1.68.24-3,.33a25.71,25.71,0,0,1,.7,5.53q.12,3.31-.12,7.26t-.82,8.28c-.39,2.9-.88,5.71-1.48,8.45s-1.28,5.34-2.05,7.83a42,42,0,0,1-2.5,6.43,14.88,14.88,0,0,1-2.91,4.19,3.89,3.89,0,0,1-3.28,1.23,6,6,0,0,1-2.42-.66,10.28,10.28,0,0,1-2.83-2,12,12,0,0,1-2.38-3.36,11.63,11.63,0,0,1-1.06-4.8,25,25,0,0,1,.45-7A91.92,91.92,0,0,1,247.83,506q1.63-5.61,4.06-12t5.37-12.71a4.38,4.38,0,0,1-.62-2.58,2.42,2.42,0,0,1,1.19-1.93,2.14,2.14,0,0,1,1.56-.08c1.48-3.12,2.92-6.07,4.35-8.86s2.69-5.25,3.81-7.38,2.05-3.84,2.79-5.12a20.06,20.06,0,0,1,1.27-2.09,1.93,1.93,0,0,1,2.05-.37,7.05,7.05,0,0,1,2.46,1.27A9.7,9.7,0,0,1,278,456c.5.69.63,1.22.41,1.6-.43.77-1,1.86-1.8,3.28s-1.61,3.05-2.54,4.88-1.94,3.82-3,6-2.18,4.29-3.28,6.47a29.55,29.55,0,0,0,3.65.13c1.23,0,2.31-.07,3.24-.13C275.73,478.15,276.8,478.07,277.84,478Zm-15.66,11.48c-.6,1.15-1.4,2.84-2.38,5.08s-2,4.69-3,7.34-2,5.39-2.91,8.2-1.69,5.4-2.26,7.75a26,26,0,0,0-.86,5.91q0,2.37,1.23,2.7c.27.11.72-.29,1.35-1.19a24.27,24.27,0,0,0,2-3.81q1.11-2.46,2.34-5.9a70.15,70.15,0,0,0,2.21-7.63,88.7,88.7,0,0,0,1.6-8.86A73.35,73.35,0,0,0,262.18,489.44Z"/><path class="cls-2" d="M301.37,486.57a11.64,11.64,0,0,1-3.28,6.11,27.52,27.52,0,0,1-5.82,4.51A36.05,36.05,0,0,1,286,500.1a23.07,23.07,0,0,1-4.84,1.23,8.61,8.61,0,0,0-.16,3.36,2.56,2.56,0,0,0,1.39,2.22,4.78,4.78,0,0,0,3,0,24.21,24.21,0,0,0,4.23-1.48,36.08,36.08,0,0,0,4.67-2.54q2.37-1.51,4.35-3.08c.82-.76,1.39-1.15,1.72-1.15s.5.21.53.62a4,4,0,0,1-.25,1.52,14.44,14.44,0,0,1-.53,1.47c-.27.5-.82,1.38-1.64,2.67a20.39,20.39,0,0,1-3.28,3.85,19.16,19.16,0,0,1-4.84,3.28,11.46,11.46,0,0,1-6.39.95,9.22,9.22,0,0,1-3.12-.91,12.56,12.56,0,0,1-3.44-2.37,13.33,13.33,0,0,1-2.79-3.9,12.86,12.86,0,0,1-1.23-5.45,23.4,23.4,0,0,1,2.13-9,35.73,35.73,0,0,1,4.72-7.71,26.55,26.55,0,0,1,5.86-5.49A11.79,11.79,0,0,1,291.7,476a8.62,8.62,0,0,1,4.59.86,9.48,9.48,0,0,1,4.92,6.15A8,8,0,0,1,301.37,486.57Zm-5.49-4.43a2,2,0,0,0-2,.08,11.14,11.14,0,0,0-2.58,1.77,30.93,30.93,0,0,0-2.83,2.87,43.28,43.28,0,0,0-2.75,3.48,39.74,39.74,0,0,0-2.21,3.49,17,17,0,0,0-1.35,2.91,19.91,19.91,0,0,0,5.49-3.2,38.6,38.6,0,0,0,4.88-4.59,21.23,21.23,0,0,0,3.07-4.35C296.29,483.29,296.37,482.47,295.88,482.14Z"/><path class="cls-2" d="M313.84,502.48q-1.72-2.79-3.73-6.11a21.65,21.65,0,0,1-2.75-7.09,9.86,9.86,0,0,1,.49-6,10.66,10.66,0,0,1,3.32-4.18,13.14,13.14,0,0,1,4.88-2.3,13.37,13.37,0,0,1,5.33-.24,4.62,4.62,0,0,1,2.95,1.31,5.36,5.36,0,0,1,1.32,2.5,9.09,9.09,0,0,1,.16,2.95,10.52,10.52,0,0,1-.57,2.58c-.17.28-.67.13-1.52-.45s-1.79-1.19-2.83-1.84a14.93,14.93,0,0,0-3.12-1.52,1.91,1.91,0,0,0-2.37.53q-.82,1.15,1.47,5.41c.49.88,1.11,1.86,1.85,3s1.44,2.21,2.13,3.36a31.55,31.55,0,0,1,1.76,3.4,9,9,0,0,1,.82,3.08,11.75,11.75,0,0,1-1.06,4.84,14.07,14.07,0,0,1-7.26,7.17,13.11,13.11,0,0,1-5.37,1.11,10.33,10.33,0,0,1-5.74-1.68,9.83,9.83,0,0,1-3.41-4.06,12.12,12.12,0,0,1-1-5.37,12.36,12.36,0,0,1,1.48-5.54c.6-1.09,1.13-1.61,1.6-1.56s.72.63.77,1.73a7.61,7.61,0,0,0,.91,3.32,16.69,16.69,0,0,0,2.25,3.44,12.45,12.45,0,0,0,2.91,2.58,4.65,4.65,0,0,0,3,.82,2.15,2.15,0,0,0,1.92-1.72A4.41,4.41,0,0,0,313.84,502.48Z"/><path class="cls-2" d="M333.52,510.51c.05.17.21.29.49.37s.56.15.86.21l.86.16c.27.06.41.16.41.33a1.56,1.56,0,0,1-.33,1.11,7.57,7.57,0,0,1-1,1.18,7.71,7.71,0,0,1-1.19,1,2.91,2.91,0,0,1-1.11.49,2.8,2.8,0,0,1-1.84-.33,5,5,0,0,1-1.72-1.55,8.34,8.34,0,0,1-1.23-2.75,15.15,15.15,0,0,1-.45-3.9,32.59,32.59,0,0,1,1-6.76,76.32,76.32,0,0,1,2.38-7.87q1.47-4.14,3.48-8.57t4.23-8.86a11.35,11.35,0,0,1-2.14-.57,3.32,3.32,0,0,1-1.51-1,2.77,2.77,0,0,1-.54-1.23,4,4,0,0,1,0-1.1,4.92,4.92,0,0,1,.17-.74c.16-.66,1-1.18,2.42-1.56a30.15,30.15,0,0,1,5.28-.82q2.38-4.43,4.56-7.87a51.76,51.76,0,0,1,3.73-5.33,3,3,0,0,1,2.46.08,7.8,7.8,0,0,1,2.46,1.6,6,6,0,0,1,1.51,2.21,1.62,1.62,0,0,1-.2,1.85,16.33,16.33,0,0,0-1.56,2.33q-1.15,1.94-2.71,4.8c2,0,3.85,0,5.46.08s2.77.08,3.48.08a1.25,1.25,0,0,1,.82.37c.28.25.19.78-.24,1.6a8.42,8.42,0,0,1-2.42,2.87,13.27,13.27,0,0,1-3.4,1.85,19.09,19.09,0,0,1-3.94,1,28.7,28.7,0,0,1-3.94.29l-3.73,7.5q-1.92,3.9-3.65,7.67t-3.24,7.22Q336,501.33,335,504c-.65,1.8-1.13,3.28-1.43,4.42S333.24,510.3,333.52,510.51Z"/><path class="cls-2" d="M373.53,479a2.72,2.72,0,0,1,2.26-.62,11.22,11.22,0,0,1,3,.66,9.19,9.19,0,0,1,2.5,1.31c.68.52.92.94.7,1.27a13.71,13.71,0,0,0-1.68,2.79c-.69,1.36-1.55,3.21-2.59,5.53s-2.29,5.13-3.77,8.41-3.28,7.08-5.41,11.4a113.57,113.57,0,0,1-8.4,14.34,54.79,54.79,0,0,1-9.52,10.75,25.37,25.37,0,0,1-10.25,5.49,15.38,15.38,0,0,1-10.7-1.31,9.64,9.64,0,0,1-4.75-4.31,5.49,5.49,0,0,1-.17-5,5.13,5.13,0,0,1,1.35-1.93,4,4,0,0,1,1.44-.78,1.76,1.76,0,0,1,1.07,0c.27.11.38.25.32.42a7.44,7.44,0,0,0-.86,3.48,6.13,6.13,0,0,0,.78,3,4.9,4.9,0,0,0,2.13,2,5.89,5.89,0,0,0,3.2.53,12.15,12.15,0,0,0,5.95-2.09,31.55,31.55,0,0,0,6.8-6.07,68.87,68.87,0,0,0,7.26-10.25,116.78,116.78,0,0,0,7.22-14.63c-.82,1-1.69,2.05-2.59,3s-1.76,1.86-2.58,2.62a27.76,27.76,0,0,1-2.26,1.93,3.79,3.79,0,0,1-1.68.86,5.34,5.34,0,0,1-2.91-.53,9.69,9.69,0,0,1-2.83-2,10.89,10.89,0,0,1-2.13-3,7.73,7.73,0,0,1-.74-3.69,14.77,14.77,0,0,1,1.07-5.13,48.23,48.23,0,0,1,2.62-5.74q1.56-2.91,3.37-5.7c1.2-1.85,2.35-3.51,3.44-5s2-2.62,2.79-3.52,1.23-1.36,1.39-1.36a4.4,4.4,0,0,1,2.38.54,7.42,7.42,0,0,1,2,1.51A6.37,6.37,0,0,1,363.9,480a1.56,1.56,0,0,1,0,1.43c-.55.82-1.25,1.93-2.09,3.32s-1.75,2.92-2.71,4.56-1.9,3.3-2.83,5-1.72,3.24-2.38,4.63a27.75,27.75,0,0,0-1.43,3.57c-.3,1-.29,1.56,0,1.72.33.33,1,.12,2-.62a29.81,29.81,0,0,0,3.65-3.19c1.39-1.4,2.9-3,4.51-4.8s3.16-3.61,4.63-5.41q1.39-2.88,2.46-4.84c.71-1.31,1.31-2.38,1.81-3.2s.88-1.48,1.18-2Z"/><path class="cls-2" d="M385.18,509c.05.17.21.28.49.33a4,4,0,0,0,.86.09,7.88,7.88,0,0,1,.86,0c.27,0,.41.12.41.28a1.88,1.88,0,0,1-.33,1.19,7.22,7.22,0,0,1-1,1.31,12.25,12.25,0,0,1-1.19,1.11,2.45,2.45,0,0,1-1.11.57,2.7,2.7,0,0,1-1.84-.36,5,5,0,0,1-1.68-1.68,9.83,9.83,0,0,1-1.19-2.88,12,12,0,0,1-.29-3.93,33.67,33.67,0,0,1,1.6-8q1.43-4.67,3.61-9.88t4.88-10.62q2.7-5.42,5.41-10.16t5.12-8.57a68.53,68.53,0,0,1,4.06-5.87,3,3,0,0,1,2.46.09,7.77,7.77,0,0,1,2.46,1.59,6.18,6.18,0,0,1,1.52,2.22,1.6,1.6,0,0,1-.21,1.84,20.16,20.16,0,0,0-1.92,2.87c-1,1.59-2.09,3.57-3.41,5.95s-2.76,5.05-4.34,8-3.15,6-4.68,9.07-3,6-4.42,9-2.64,5.57-3.65,7.92a57.61,57.61,0,0,0-2.22,5.82C385,507.78,384.9,508.68,385.18,509Z"/><path class="cls-2" d="M423.14,486.57a11.71,11.71,0,0,1-3.28,6.11,27.52,27.52,0,0,1-5.82,4.51,36.05,36.05,0,0,1-6.31,2.91,23.22,23.22,0,0,1-4.84,1.23,8.61,8.61,0,0,0-.17,3.36,2.58,2.58,0,0,0,1.4,2.22,4.77,4.77,0,0,0,3,0,24.13,24.13,0,0,0,4.22-1.48,36.17,36.17,0,0,0,4.68-2.54,52.23,52.23,0,0,0,4.34-3.08c.82-.76,1.4-1.15,1.73-1.15s.5.21.53.62a4.47,4.47,0,0,1-.25,1.52c-.19.6-.37,1.09-.53,1.47s-.82,1.38-1.64,2.67a20.77,20.77,0,0,1-3.28,3.85,19.16,19.16,0,0,1-4.84,3.28,11.48,11.48,0,0,1-6.4.95,9.24,9.24,0,0,1-3.11-.91,12.75,12.75,0,0,1-3.45-2.37,13.49,13.49,0,0,1-2.78-3.9,12.86,12.86,0,0,1-1.23-5.45,23.4,23.4,0,0,1,2.13-9,36.09,36.09,0,0,1,4.71-7.71,26.58,26.58,0,0,1,5.87-5.49,11.76,11.76,0,0,1,5.65-2.26,8.68,8.68,0,0,1,4.6.86A9.56,9.56,0,0,1,423,483,8,8,0,0,1,423.14,486.57Zm-5.49-4.43a2,2,0,0,0-2,.08A11.14,11.14,0,0,0,413.1,484a29.73,29.73,0,0,0-2.83,2.87,41.16,41.16,0,0,0-2.75,3.48,37.52,37.52,0,0,0-2.21,3.49,18,18,0,0,0-1.36,2.91,19.81,19.81,0,0,0,5.5-3.2,39.29,39.29,0,0,0,4.88-4.59,21.62,21.62,0,0,0,3.07-4.35C418.06,483.29,418.14,482.47,417.65,482.14Z"/><path class="cls-2" d="M488.49,464.27a86.18,86.18,0,0,0-7,9.51,131,131,0,0,0-6.68,11.76q-3.15,6.29-5.78,12.88a125.4,125.4,0,0,0-4.35,12.83q3.78-1.14,7.71-2.21c2.63-.71,5.14-1.33,7.55-1.85a63.36,63.36,0,0,1,6.72-1.11,18.27,18.27,0,0,1,5.25.09,12.11,12.11,0,0,1,3.69,1.35,10.24,10.24,0,0,1,2.75,2.26,7.81,7.81,0,0,1,1.55,2.87,6.83,6.83,0,0,1,.21,3,3.1,3.1,0,0,1-.62,1.11,6.08,6.08,0,0,1-.94.9,2.94,2.94,0,0,1-.94.49.46.46,0,0,1-.62-.29,2.1,2.1,0,0,1,0-.9,3.16,3.16,0,0,0,0-1.39,10.41,10.41,0,0,0-5.29-.7,68.62,68.62,0,0,0-8.11,1c-3,.54-6.24,1.2-9.6,2s-6.63,1.47-9.8,2.09-6.07,1.12-8.69,1.48a20.66,20.66,0,0,1-6.23.12,2.45,2.45,0,0,1-1.68-1,6.37,6.37,0,0,1-.91-1.85,4.56,4.56,0,0,1-.2-1.72c.06-.49.16-.74.33-.74a11.88,11.88,0,0,0,4.06-.78c2.1-.62,4.66-1.4,7.66-2.33-.11-.44-.22-.86-.32-1.27a12.53,12.53,0,0,1-.29-1.48,12.88,12.88,0,0,1-.08-2.17c0-.88.12-2,.28-3.36a58,58,0,0,1,2.46-10.58,97.56,97.56,0,0,1,11.44-23.54,80.12,80.12,0,0,1,8.2-10.41,51.4,51.4,0,0,1,9.27-7.87,26.59,26.59,0,0,1,10-4.1,10.81,10.81,0,0,1,5.91.69,11.83,11.83,0,0,1,5,3.78A13.66,13.66,0,0,1,513,459.1a15,15,0,0,1-1.19,8.12,28.72,28.72,0,0,1-4,7A23.83,23.83,0,0,1,503,478.9a21.36,21.36,0,0,1-5,2.67,20.65,20.65,0,0,1-4.55,1.15,16.57,16.57,0,0,1-3.61.08,5.23,5.23,0,0,1-2-.49c-.6-.39-.9-.73-.9-1s.41-.67,1.23-1.11a31,31,0,0,0,5.61-3.81,42.12,42.12,0,0,0,4.88-4.84,55.76,55.76,0,0,0,4-5.2,37.09,37.09,0,0,0,2.83-4.92,16.44,16.44,0,0,0,1.35-3.94,2.77,2.77,0,0,0-.29-2.3,3.69,3.69,0,0,0-2.62-.94,10.44,10.44,0,0,0-4.1.94,23.92,23.92,0,0,0-5.25,3.2A44,44,0,0,0,488.49,464.27Z"/><path class="cls-2" d="M534.08,485.91a20.17,20.17,0,0,1-.16,5.7,35.71,35.71,0,0,1-1.6,6.32,33.58,33.58,0,0,1-2.87,6.11,26.26,26.26,0,0,1-4,5.2,17.35,17.35,0,0,1-5,3.53,11.25,11.25,0,0,1-5.82,1,8.44,8.44,0,0,1-3-.86,13.12,13.12,0,0,1-3.2-2.13,13.41,13.41,0,0,1-2.58-3.12,7.78,7.78,0,0,1-1.15-3.81,22.33,22.33,0,0,1,.53-6.19,32.73,32.73,0,0,1,1.77-5.49,27.35,27.35,0,0,1,2.33-4.43,23.35,23.35,0,0,1,2.26-3,5.36,5.36,0,0,1,2.54-1.73,7.15,7.15,0,0,0,1.64-.49,24.71,24.71,0,0,1,1.35-2.5,10.68,10.68,0,0,1,1.85-2.26,8.22,8.22,0,0,1,2.46-1.55,6.73,6.73,0,0,1,3.2-.41,8.17,8.17,0,0,1,2.91,1.06,15,15,0,0,1,3,2.3,14.34,14.34,0,0,1,2.46,3.16A7,7,0,0,1,534.08,485.91Zm-10.66,12.47a44.28,44.28,0,0,0,2.26-5.7,27.37,27.37,0,0,0,1.11-5,11.16,11.16,0,0,0-.13-3.78,2.5,2.5,0,0,0-1.35-1.92,2.58,2.58,0,0,0-2.62.12,7.58,7.58,0,0,0-2.63,2.42,10.31,10.31,0,0,0-1.19,1.89,4.6,4.6,0,0,1-.94,1.39,10.41,10.41,0,0,0-1.43,2.09,37.62,37.62,0,0,0-1.73,3.48c-.57,1.32-1.1,2.7-1.6,4.15a29.15,29.15,0,0,0-1.1,4.18,12.48,12.48,0,0,0-.21,3.57,2.88,2.88,0,0,0,1.15,2.21,3.28,3.28,0,0,0,2.5,0,8.63,8.63,0,0,0,2.75-1.76,18.47,18.47,0,0,0,2.7-3.16A32.64,32.64,0,0,0,523.42,498.38Z"/><path class="cls-2" d="M561.39,507.23c.05.17.22.29.49.37a4.85,4.85,0,0,0,.86.17l.86.08c.28,0,.41.12.41.29a1.76,1.76,0,0,1-.28,1.14,8.18,8.18,0,0,1-.9,1.27,5.79,5.79,0,0,1-1.15,1,2.91,2.91,0,0,1-1.11.49,2.75,2.75,0,0,1-1.89-.66,7.68,7.68,0,0,1-1.84-2.09,11.08,11.08,0,0,1-1.35-3.28,14.21,14.21,0,0,1-.41-4.14v-.57c-1.59,2.24-3,4.1-4.19,5.58a33.47,33.47,0,0,1-3.19,3.48,11.22,11.22,0,0,1-2.46,1.8,4.41,4.41,0,0,1-2,.54,5.73,5.73,0,0,1-2.5-.66,8.87,8.87,0,0,1-2.5-1.84,10.64,10.64,0,0,1-1.93-2.83,8.33,8.33,0,0,1-.78-3.61,17.53,17.53,0,0,1,.86-4.47,50.93,50.93,0,0,1,2-5.21q1.18-2.7,2.66-5.41c1-1.8,2-3.5,3-5.08s1.94-3,2.87-4.23a28.57,28.57,0,0,1,2.46-2.91,1.93,1.93,0,0,1,1.8.09,5.81,5.81,0,0,1,1.93,1.47,7,7,0,0,1,1.31,2.26,3.42,3.42,0,0,1,0,2.5,23,23,0,0,1-1.27,2.46q-1,1.8-2.38,4.22c-.9,1.61-1.83,3.31-2.79,5.08s-1.8,3.45-2.54,5a33,33,0,0,0-1.64,4c-.36,1.1-.37,1.75,0,2s.9.12,1.72-.29a14.24,14.24,0,0,0,3.08-2.33,50.19,50.19,0,0,0,4.26-4.64q2.41-2.91,5.29-7.09c1.26-2.18,2.51-4.43,3.77-6.72a55.21,55.21,0,0,1,4-6.32,2.28,2.28,0,0,1,2.25.21,5.91,5.91,0,0,1,1.85,1.84,8.12,8.12,0,0,1,1.06,2.46,2.76,2.76,0,0,1-.16,2.14c-.22.49-.63,1.34-1.23,2.54s-1.27,2.59-2,4.18-1.49,3.24-2.25,5-1.47,3.34-2.09,4.84-1.13,2.8-1.48,3.89A4.18,4.18,0,0,0,561.39,507.23Z"/><path class="cls-2" d="M595.75,507.4c0,.16.22.27.49.33a4.74,4.74,0,0,0,.86.08,7.88,7.88,0,0,1,.86,0c.27,0,.41.12.41.29a2.06,2.06,0,0,1-.24,1.18,6.92,6.92,0,0,1-.82,1.32,8.58,8.58,0,0,1-1.07,1.1,2.33,2.33,0,0,1-1.07.58,3.28,3.28,0,0,1-2-.37,6.25,6.25,0,0,1-2.1-1.76,10.64,10.64,0,0,1-1.64-3.16,13.6,13.6,0,0,1-.57-4.72,18.4,18.4,0,0,1,2-7.09q1.88-4.07,4.43-9.23c-.93.83-2.16,2-3.69,3.45a60.88,60.88,0,0,0-4.84,5.29,80,80,0,0,0-5.09,6.93A46.83,46.83,0,0,0,577.3,510a4.13,4.13,0,0,1-.25,1.11q-.24.78-1.47.78a3.83,3.83,0,0,1-2-1,12.7,12.7,0,0,1-2.05-2.09,11.45,11.45,0,0,1-1.52-2.46,4.57,4.57,0,0,1-.49-2.25,21.79,21.79,0,0,1,.94-4.51,55.53,55.53,0,0,1,1.93-5.29q1.14-2.74,2.54-5.5t2.79-5.2q1.39-2.46,2.62-4.39a29.24,29.24,0,0,1,2.13-3c.22-.22.7-.21,1.44,0a8.19,8.19,0,0,1,2.25,1.19,9.71,9.71,0,0,1,1.93,1.76,1.76,1.76,0,0,1,.53,1.68,13.9,13.9,0,0,1-.78,1.68c-.41.8-.88,1.68-1.43,2.67s-1.11,2.05-1.68,3.19-1.11,2.27-1.6,3.37a65.35,65.35,0,0,1,5.12-5.37q2.84-2.67,5.46-4.76t4.71-3.44a11.65,11.65,0,0,1,2.83-1.52,3.76,3.76,0,0,1,2.42,1.06,5.72,5.72,0,0,1,1.93,2.63,4.15,4.15,0,0,1,.41,3.2c-.22.49-.65,1.38-1.27,2.66s-1.34,2.76-2.14,4.43-1.61,3.42-2.46,5.25-1.61,3.55-2.29,5.16-1.23,3-1.64,4.15A4.34,4.34,0,0,0,595.75,507.4Z"/><path class="cls-2" d="M641.83,471.89a1,1,0,0,1,1.07-.57c.43.05.63.33.57.82a14.58,14.58,0,0,1-1.39,5.41,18.83,18.83,0,0,1-2.54,3.89,16.08,16.08,0,0,1-2.79,2.59,14.88,14.88,0,0,1-2.13,1.31,4.9,4.9,0,0,1-1.32.41,19.35,19.35,0,0,1-.9,8,26.38,26.38,0,0,1-3.61,7.33,21.64,21.64,0,0,1-5.2,5.29,9.05,9.05,0,0,1-5.78,1.89,6.46,6.46,0,0,1-1.85-.12,11.05,11.05,0,0,1-1.93-.62,11.76,11.76,0,0,0-1.8,1.89,14.91,14.91,0,0,0-1.8,3.2,34.31,34.31,0,0,1,7.05-1.64,19.25,19.25,0,0,1,8.12.57,10.78,10.78,0,0,1,2.87,2.13,12.85,12.85,0,0,1,1.88,2.58,13.06,13.06,0,0,1,1.56,5,9.38,9.38,0,0,1-1.64,5.2A20.31,20.31,0,0,1,626,531.1a29.27,29.27,0,0,1-6,3.69,36,36,0,0,1-6.81,2.37,28.5,28.5,0,0,1-6.64.82,12.67,12.67,0,0,1-5.58-1.15,8.22,8.22,0,0,1-3.44-3.23,8.77,8.77,0,0,1-1.31-5.29,5.06,5.06,0,0,1,1-2.54,11.75,11.75,0,0,1,2.3-2.46,16.26,16.26,0,0,1,3.11-2A15.53,15.53,0,0,1,606,520a5.5,5.5,0,0,1-1.68-1.85,8.13,8.13,0,0,1-.78-1.76,4.46,4.46,0,0,1,0-2.75A11,11,0,0,1,605,510.8a17.63,17.63,0,0,1,2.42-2.79,33.67,33.67,0,0,1,3-2.5,9.38,9.38,0,0,1-1.93-2,7.2,7.2,0,0,1-1.11-2.42,12,12,0,0,1-.12-5,25,25,0,0,1,1.6-5.53,31.63,31.63,0,0,1,2.87-5.41,27.82,27.82,0,0,1,3.77-4.64,19.6,19.6,0,0,1,4.22-3.2,9,9,0,0,1,4.31-1.18,16.22,16.22,0,0,1,4.51.61,8.4,8.4,0,0,1,3.52,1.93,2.29,2.29,0,0,0,.17.28c0,.09.11.18.16.29a17.74,17.74,0,0,0,3.36-2.09c1.1-.85,2.11-1.65,3-2.42C639.83,473.83,640.85,472.87,641.83,471.89Zm-33,49.12a42.71,42.71,0,0,0-3.94,3.77,36.23,36.23,0,0,0-2.54,3.16,3,3,0,0,0-.82,2.58,6,6,0,0,0,3.69.45,28.8,28.8,0,0,0,5.41-1.23,48.7,48.7,0,0,0,6-2.38,40.71,40.71,0,0,0,5.41-3,18.14,18.14,0,0,0,3.69-3.16c.87-1,1.15-2,.82-2.78s-1.15-1.21-2.46-1.15a23.55,23.55,0,0,0-4.64.74c-1.77.43-3.62.95-5.53,1.55S610.26,520.63,608.79,521Zm7.54-18.2a3.37,3.37,0,0,0,3.69-.74,18.58,18.58,0,0,0,3.81-4.35,41.22,41.22,0,0,0,3.32-6.11,60.51,60.51,0,0,0,2.38-6.11,8.11,8.11,0,0,1-2.29-1.1,4.84,4.84,0,0,1-1.48-1.6,24.09,24.09,0,0,0-5.17,5.29,34.15,34.15,0,0,0-3.65,6.23,18.49,18.49,0,0,0-1.59,5.49C615.18,501.43,615.51,502.42,616.33,502.81Z"/><path class="cls-2" d="M664.46,486.57a11.64,11.64,0,0,1-3.28,6.11,27.52,27.52,0,0,1-5.82,4.51,36.05,36.05,0,0,1-6.31,2.91,23.07,23.07,0,0,1-4.84,1.23,8.61,8.61,0,0,0-.16,3.36,2.56,2.56,0,0,0,1.39,2.22,4.78,4.78,0,0,0,3,0,24.21,24.21,0,0,0,4.23-1.48,36.08,36.08,0,0,0,4.67-2.54q2.37-1.51,4.35-3.08c.82-.76,1.39-1.15,1.72-1.15s.5.21.53.62a4,4,0,0,1-.25,1.52,14.44,14.44,0,0,1-.53,1.47c-.27.5-.82,1.38-1.64,2.67a20.39,20.39,0,0,1-3.28,3.85,19.16,19.16,0,0,1-4.84,3.28,11.46,11.46,0,0,1-6.39.95,9.22,9.22,0,0,1-3.12-.91,12.56,12.56,0,0,1-3.44-2.37,13.33,13.33,0,0,1-2.79-3.9,12.86,12.86,0,0,1-1.23-5.45,23.4,23.4,0,0,1,2.13-9,35.73,35.73,0,0,1,4.72-7.71,26.55,26.55,0,0,1,5.86-5.49,11.79,11.79,0,0,1,5.66-2.26,8.62,8.62,0,0,1,4.59.86A9.48,9.48,0,0,1,664.3,483,8,8,0,0,1,664.46,486.57ZM659,482.14a2,2,0,0,0-2,.08,11.14,11.14,0,0,0-2.58,1.77,30.93,30.93,0,0,0-2.83,2.87,43.28,43.28,0,0,0-2.75,3.48,39.74,39.74,0,0,0-2.21,3.49,17,17,0,0,0-1.35,2.91,19.91,19.91,0,0,0,5.49-3.2,38.6,38.6,0,0,0,4.88-4.59,21.23,21.23,0,0,0,3.07-4.35C659.38,483.29,659.46,482.47,659,482.14Z"/><path class="cls-2" d="M555.22,367.7l13.36-4.78a3.59,3.59,0,0,0,2.17-4.59L568.13,351l-3.62,4.7-8.24-6.13L554,359.42l-5.91-.91,2.51,7A3.6,3.6,0,0,0,555.22,367.7Z"/></svg>